<svg id="Capa_1" enable-background="new 0 0 512.048 512.048" height="512" viewBox="0 0 512.048 512.048" width="512" xmlns="http://www.w3.org/2000/svg"><path d="m361.024 136.013v60c0 3.9-1.5 7.8-4.501 10.499l-25.499 25.8v23.701c0 8.399-6.599 15-15 15h-45l-15-30-15 30h-45c-8.401 0-15-6.601-15-15v-23.701l-25.499-25.8c-3.001-2.699-4.501-6.599-4.501-10.499v-60c0-57.9 47.1-105 105-105s105 47.1 105 105z" fill="#fff7cc"/><path d="m361.024 136.013v60c0 3.9-1.5 7.8-4.501 10.499l-25.499 25.8v23.701c0 8.399-6.599 15-15 15h-45l-15-30v-210c57.9 0 105 47.1 105 105z" fill="#ffe6b3"/><path d="m271.024 226.013v45h-30v-45c0-8.401 6.599-15 15-15s15 6.599 15 15z" fill="#ffe6b3"/><path d="m316.024 95.406-42.426 42.426c-5.857 5.857-5.859 15.354 0 21.213l10.607 10.607c17.574 17.574 46.066 17.574 63.64 0s17.574-46.066 0-63.64l-10.607-10.607c-5.86-5.857-15.357-5.856-21.214.001z" fill="#ffca80"/><path d="m238.45 137.833-42.426-42.426c-5.857-5.857-15.354-5.859-21.213 0l-10.607 10.607c-17.574 17.574-17.574 46.066 0 63.64s46.066 17.574 63.64 0l10.607-10.607c5.858-5.86 5.857-15.357-.001-21.214z" fill="#ffe6b3"/><path d="m242.91 365.407-63.64-63.64-63.64-63.64c-5.625-5.625-15.586-5.625-21.211 0l-63.633 63.647c-41.052 41.021-41.043 107.465 0 148.477 41.021 41.05 107.465 41.041 148.477 0l63.647-63.633c5.859-5.859 5.855-15.355 0-21.211z" fill="#b9dd39"/><path d="m179.262 450.251 63.647-63.633c5.859-5.859 5.856-15.355 0-21.211l-63.64-63.64-148.483 148.484c41.021 41.05 107.464 41.041 148.476 0z" fill="#90cc1c"/><path d="m481.262 301.774-63.633-63.647c-2.813-2.813-6.709-4.219-10.605-4.219s-7.793 1.406-10.605 4.219l-63.64 63.64-63.64 63.64c-5.859 5.859-5.856 15.353 0 21.211l63.647 63.633c41.021 41.05 107.465 41.041 148.477 0 41.052-41.021 41.042-107.465-.001-148.477z" fill="#ff8e8e"/><path d="m481.262 301.774-63.633-63.647c-2.813-2.813-6.709-4.219-10.605-4.219s-7.793 1.406-10.605 4.219l-63.64 63.64 148.484 148.484c41.052-41.021 41.042-107.465-.001-148.477z" fill="#ff637b"/><path d="m271.024 226.013v45h-15v-60c8.401 0 15 6.599 15 15z" fill="#ffca80"/></svg>