<?xml version="1.0" encoding="iso-8859-1"?>
<!-- Generator: Adobe Illustrator 19.0.0, SVG Export Plug-In . SVG Version: 6.00 Build 0)  -->
<svg version="1.1" id="Layer_1" xmlns="http://www.w3.org/2000/svg" xmlns:xlink="http://www.w3.org/1999/xlink" x="0px" y="0px"
	 viewBox="0 0 511.98 511.98" style="enable-background:new 0 0 511.98 511.98;" xml:space="preserve">
<path style="fill:#8CC153;" d="M255.98,511.98c-5.891,0-10.656-4.781-10.656-10.672v-66.06c0-5.891,4.766-10.656,10.656-10.656
	s10.671,4.766,10.671,10.656v66.06C266.651,507.199,261.87,511.98,255.98,511.98z"/>
<path style="fill:#A0D468;" d="M428.558,424.952l-14.952-3.969c-0.844-3.844-3.765-7-7.687-8.047l-14.953-3.953
	c-1.047-4.812-5.312-8.405-10.422-8.405h-13.062c-0.703-1.469-1.75-2.766-3.077-3.781c-2.625-2.016-6.047-2.703-9.249-1.859
	l-11.984,3.172c-0.688-0.766-1.5-1.453-2.422-2c-3.203-1.938-7.188-2.031-10.5-0.281l-12.016,6.358
	c-2.938-1.827-6.593-2.108-9.796-0.766l-52.459,22.25l-52.436-22.25c-3.203-1.343-6.859-1.062-9.812,0.766l-12.015-6.358
	c-3.297-1.75-7.281-1.656-10.484,0.281c-0.922,0.547-1.734,1.234-2.438,2l-11.984-3.172c-3.203-0.844-6.609-0.156-9.234,1.859
	c-1.328,1.016-2.375,2.312-3.093,3.781h-13.046c-5.109,0-9.391,3.593-10.422,8.405l-14.953,3.953
	c-3.921,1.047-6.859,4.203-7.687,8.047l-14.952,3.969c-4.688,1.234-7.937,5.469-7.937,10.312c0,4.828,3.25,9.062,7.937,10.296
	l14.952,3.969c0.828,3.844,3.766,6.999,7.687,8.046l14.953,3.953c1.031,4.797,5.312,8.406,10.422,8.406h13.046
	c0.719,1.453,1.766,2.766,3.093,3.781c1.891,1.453,4.172,2.219,6.5,2.219c0.922,0,1.844-0.125,2.734-0.359l11.984-3.172
	c0.703,0.766,1.516,1.453,2.438,2c3.203,1.938,7.187,2.047,10.5,0.281l12.015-6.359c2.937,1.828,6.593,2.109,9.796,0.75
	l52.436-22.233l52.459,22.233c3.203,1.359,6.858,1.078,9.796-0.75l12.016,6.359c3.312,1.75,7.297,1.656,10.5-0.281
	c0.922-0.547,1.734-1.234,2.422-2l11.984,3.172c0.905,0.234,1.827,0.359,2.733,0.359c2.328,0,4.625-0.766,6.516-2.219
	c1.327-1.016,2.374-2.328,3.077-3.781h13.062c5.109,0,9.375-3.609,10.422-8.406l14.953-3.953c3.922-1.047,6.843-4.202,7.687-8.046
	l14.952-3.969c4.672-1.234,7.938-5.468,7.938-10.296C436.496,430.421,433.246,426.186,428.558,424.952z"/>
<path style="fill:#8CC153;" d="M489.978,201.273c-3.578-3.578-9.172-4.156-13.39-1.375l-29.187,19.171l-0.094-0.094
	c-3.578-3.578-9.188-4.156-13.406-1.375l-29.186,19.172l-0.094-0.094c-2-2.016-4.719-3.125-7.547-3.125l0,0
	c-2.828,0-5.547,1.109-7.547,3.109l-22.765,22.765c-2.078-1.453-4.64-2.141-7.218-1.875c-3.188,0.328-6.062,2.062-7.827,4.75
	l-17.203,26.187c-1.922-0.781-4.062-1.016-6.156-0.594c-3.484,0.688-6.406,3.078-7.766,6.374l-12.437,29.984
	c-1.109-0.172-2.234-0.172-3.359,0.016c-3.375,0.531-6.296,2.672-7.827,5.733l-40.992,81.512l-40.967-81.512
	c-1.531-3.062-4.453-5.202-7.828-5.733c-1.125-0.188-2.266-0.188-3.359-0.016l-12.437-29.984c-1.359-3.296-4.281-5.687-7.781-6.374
	c-2.078-0.422-4.219-0.188-6.141,0.594l-17.203-26.187c-1.765-2.688-4.64-4.422-7.828-4.75c-2.578-0.266-5.141,0.422-7.234,1.875
	l-22.75-22.749c-2-2.016-4.718-3.125-7.546-3.125s-5.547,1.109-7.547,3.125l-0.094,0.094L78.08,217.6
	c-4.234-2.781-9.828-2.203-13.406,1.359l-0.094,0.109l-29.187-19.171c-4.218-2.781-9.828-2.203-13.406,1.375
	c-3.562,3.562-4.14,9.171-1.359,13.39l19.173,29.188l-0.109,0.094c-3.578,3.578-4.141,9.171-1.359,13.406l19.171,29.187
	l-0.109,0.094c-4.156,4.172-4.156,10.921,0,15.093L80.16,324.49c-1.453,2.078-2.141,4.64-1.875,7.218
	c0.328,3.188,2.062,6.062,4.75,7.828l26.186,17.202c-0.781,1.922-1.016,4.062-0.594,6.156c0.688,3.484,3.078,6.406,6.375,7.766
	l29.983,12.437c-0.172,1.109-0.172,2.234,0,3.359c0.547,3.374,2.687,6.296,5.75,7.827L251.2,444.781
	c0.078,0.047,0.156,0.078,0.234,0.109c0.25,0.109,0.5,0.234,0.75,0.328c0.141,0.047,0.266,0.094,0.406,0.141
	c0.234,0.078,0.469,0.141,0.703,0.203c0.141,0.047,0.281,0.078,0.438,0.109c0.234,0.062,0.484,0.094,0.734,0.125
	c0.125,0.031,0.266,0.047,0.391,0.062c0.359,0.047,0.719,0.062,1.094,0.062c0.016,0,0.016,0,0.031,0l0,0c0,0,0,0,0.016,0l0,0
	c0.047,0,0.109,0,0.172,0c0.766-0.016,1.516-0.109,2.25-0.281c0.016,0,0.031,0,0.047-0.016c0.375-0.078,0.734-0.188,1.094-0.328
	c0.047-0.016,0.094-0.031,0.141-0.047c0.344-0.125,0.688-0.266,1.016-0.438c0.016,0,0.047-0.016,0.062-0.031l100.474-50.498
	c3.062-1.531,5.187-4.453,5.733-7.827c0.188-1.125,0.188-2.25,0.016-3.359l29.983-12.437c3.281-1.359,5.688-4.281,6.375-7.766
	c0.422-2.094,0.188-4.234-0.594-6.156l26.186-17.202c2.672-1.766,4.422-4.641,4.75-7.828c0.266-2.578-0.422-5.14-1.891-7.218
	l22.766-22.766c4.172-4.172,4.172-10.921,0-15.093l-0.094-0.094l19.171-29.187c2.781-4.234,2.203-9.828-1.375-13.406l-0.094-0.094
	l19.171-29.187C494.135,210.445,493.556,204.836,489.978,201.273z"/>
<path style="fill:#A0D468;" d="M333.141,231.444c-1.953-3.109-5.375-5-9.031-5h-0.094l10.453-43.451
	c0.766-3.171,0.031-6.531-1.984-9.093c-2.031-2.562-5.109-4.062-8.375-4.062h-2.969v-45.951c0-5.891-4.766-10.656-10.655-10.656
	h-5.219l-11.655-48.443c-1.156-4.797-5.438-8.172-10.375-8.172h-5.219L266.354,8.172C265.198,3.375,260.916,0,255.979,0
	c-4.922,0-9.219,3.375-10.359,8.172l-11.656,48.443h-5.218c-4.938,0-9.219,3.375-10.375,8.172l-11.656,48.443h-5.218
	c-5.891,0-10.671,4.766-10.671,10.656v45.951h-2.953c-3.266,0-6.359,1.5-8.375,4.062c-2.031,2.562-2.766,5.922-2,9.093
	l10.453,43.451h-0.078c-3.672,0-7.078,1.891-9.031,5c-1.953,3.094-2.172,6.984-0.578,10.296l20.108,41.78
	c-2.281,0.703-4.281,2.156-5.671,4.172c-1.984,2.891-2.422,6.593-1.156,9.858l54.482,141.542c1.594,4.108,5.547,6.827,9.953,6.827
	c4.421,0,8.375-2.719,9.953-6.827l54.506-141.542c1.266-3.266,0.828-6.968-1.156-9.858c-1.391-2.016-3.406-3.469-5.672-4.172
	l20.109-41.78C335.313,238.428,335.095,234.538,333.141,231.444z"/>
<g>
</g>
<g>
</g>
<g>
</g>
<g>
</g>
<g>
</g>
<g>
</g>
<g>
</g>
<g>
</g>
<g>
</g>
<g>
</g>
<g>
</g>
<g>
</g>
<g>
</g>
<g>
</g>
<g>
</g>
</svg>
