<svg height="464pt" viewBox="0 0 463 464" width="464pt" xmlns="http://www.w3.org/2000/svg"><path d="m312.5 32h-256v432h352v-336h-96zm0 0" fill="#dcf4ca"/><path d="m128.5 464h280v-224c0 114.96875-142.921875 224-280 224zm0 0" fill="#c9eeae"/><path d="m16.5 0h176c8.835938 0 16 7.164062 16 16v224c0 8.835938-7.164062 16-16 16h-176c-8.835938 0-16-7.164062-16-16v-224c0-8.835938 7.164062-16 16-16zm0 0" fill="#d1e7f8"/><path d="m312.5 128h96l-96-96zm0 0" fill="#006df0"/><path d="m24.5 24h160v40h-160zm0 0" fill="#88f236"/><g fill="#006df0"><path d="m40.5 88h16c4.417969 0 8 3.582031 8 8v16c0 4.417969-3.582031 8-8 8h-16c-4.417969 0-8-3.582031-8-8v-16c0-4.417969 3.582031-8 8-8zm0 0"/><path d="m96.5 88h16c4.417969 0 8 3.582031 8 8v16c0 4.417969-3.582031 8-8 8h-16c-4.417969 0-8-3.582031-8-8v-16c0-4.417969 3.582031-8 8-8zm0 0"/><path d="m152.5 88h16c4.417969 0 8 3.582031 8 8v16c0 4.417969-3.582031 8-8 8h-16c-4.417969 0-8-3.582031-8-8v-16c0-4.417969 3.582031-8 8-8zm0 0"/><path d="m40.5 144h16c4.417969 0 8 3.582031 8 8v16c0 4.417969-3.582031 8-8 8h-16c-4.417969 0-8-3.582031-8-8v-16c0-4.417969 3.582031-8 8-8zm0 0"/><path d="m96.5 144h16c4.417969 0 8 3.582031 8 8v16c0 4.417969-3.582031 8-8 8h-16c-4.417969 0-8-3.582031-8-8v-16c0-4.417969 3.582031-8 8-8zm0 0"/><path d="m152.5 144h16c4.417969 0 8 3.582031 8 8v16c0 4.417969-3.582031 8-8 8h-16c-4.417969 0-8-3.582031-8-8v-16c0-4.417969 3.582031-8 8-8zm0 0"/><path d="m40.5 200h16c4.417969 0 8 3.582031 8 8v16c0 4.417969-3.582031 8-8 8h-16c-4.417969 0-8-3.582031-8-8v-16c0-4.417969 3.582031-8 8-8zm0 0"/><path d="m96.5 200h16c4.417969 0 8 3.582031 8 8v16c0 4.417969-3.582031 8-8 8h-16c-4.417969 0-8-3.582031-8-8v-16c0-4.417969 3.582031-8 8-8zm0 0"/></g><path d="m459.578125 275.550781c6.25-6.25 6.25-16.382812 0-22.628906-6.246094-6.25-16.378906-6.25-22.628906 0l-11.3125 11.308594 22.632812 22.632812zm0 0" fill="#d1d3d4"/><path d="m299.8125 390.054688-19.3125 41.945312 41.945312-19.3125 108.917969-108.925781-22.625-22.625zm0 0" fill="#ed1c24"/><path d="m408.734375 281.136719 16.898437-16.894531 22.628907 22.625-16.898438 16.898437zm0 0" fill="#f7941d"/><path d="m32.5 256h160c8.824219-.027344 15.972656-7.175781 16-16v-128c0 79.59375-78.71875 144-176 144zm0 0" fill="#c2dff6"/><path d="m152.5 200h16c4.417969 0 8 3.582031 8 8v16c0 4.417969-3.582031 8-8 8h-16c-4.417969 0-8-3.582031-8-8v-16c0-4.417969 3.582031-8 8-8zm0 0" fill="#006df0"/><path d="m248.5 192h16v16h-16zm0 0" fill="#2488ff"/><path d="m280.5 192h96v16h-96zm0 0" fill="#2488ff"/><path d="m248.5 160h16v16h-16zm0 0" fill="#2488ff"/><path d="m280.5 160h96v16h-96zm0 0" fill="#2488ff"/><path d="m248.5 224h16v16h-16zm0 0" fill="#2488ff"/><path d="m280.5 224h96v16h-96zm0 0" fill="#2488ff"/><path d="m248.5 256h16v16h-16zm0 0" fill="#2488ff"/><path d="m280.5 256h96v16h-96zm0 0" fill="#2488ff"/><path d="m104.5 360c0 39.765625 32.234375 72 72 72v-144c-39.765625 0-72 32.234375-72 72zm0 0" fill="#ff9811"/><path d="m176.5 288v144c39.765625 0 72-32.234375 72-72s-32.234375-72-72-72zm0 0" fill="#ffa127"/><path d="m176.5 336c9.769531 0 16 4.734375 16 8h16c0-11.367188-10.070312-20.574219-24-23.199219v-8.800781h-16v8.800781c-13.929688 2.605469-24 11.816407-24 23.199219 0 13.464844 14.054688 24 32 24 9.769531 0 16 4.734375 16 8s-6.230469 8-16 8-16-4.734375-16-8h-16c0 11.367188 10.070312 20.574219 24 23.199219v8.800781h16v-8.800781c13.929688-2.605469 24-11.816407 24-23.199219 0-13.464844-14.054688-24-32-24-9.769531 0-16-4.734375-16-8s6.230469-8 16-8zm0 0" fill="#ff5023"/></svg>