<?xml version="1.0" encoding="iso-8859-1"?>
<!-- Generator: Adobe Illustrator 19.0.0, SVG Export Plug-In . SVG Version: 6.00 Build 0)  -->
<svg version="1.1" id="Layer_1" xmlns="http://www.w3.org/2000/svg" xmlns:xlink="http://www.w3.org/1999/xlink" x="0px" y="0px"
	 viewBox="0 0 504 504" style="enable-background:new 0 0 504 504;" xml:space="preserve">
<path style="fill:#33A5D2;" d="M446,59.2C446,42,432.4,30,415.2,30H39.6C22.4,30,6,42,6,59.2v4v47.6v16V372v19.6v47.6
	c0,17.2,16.4,31.2,33.6,31.2h415.2c17.2,0,31.2-14,31.2-31.2V330h4c8.8,0,12-9.2,12-17.6v-63.2c0-8.8-3.2-15.2-12-15.2h-4v-20.4
	v-86.8v-19.6c0-17.2-14-28.8-31.2-28.8H446V59.2z"/>
<path style="fill:#73BADD;" d="M434,415.2c0,4.4-2.8,6.8-7.2,6.8h-404L2,400l2-272.8l9.6,8l9.2,6.8h404c4.4,0,7.2,4,7.2,8V415.2z"/>
<path style="fill:#33A5D2;" d="M498,314c0,8.8-7.2,16-16,16H334c-8.8,0-16-7.2-16-16v-64c0-8.8,7.2-16,16-16h148.4
	c8.8,0,16,7.2,16,16C498,250,498,314,498,314z"/>
<g>
	<circle style="fill:#2884A9;" cx="375.6" cy="276.8" r="27.6"/>
	<path style="fill:#2884A9;" d="M446.4,80.4c-2-15.6-15.2-26.4-31.2-26.4H41.6c-7.6,0-14,4.8-14,12.4s6,14,14,14H446.4z"/>
</g>
<path d="M458.8,476H43.6C23.6,476,0,453.6,0,434.8V122c0-2.4,1.6-4,4-4s4,1.6,4,4v312.8C8,449.6,28,468,43.6,468h415.2
	c15.6,0,21.2-20,21.2-33.2V334c0-2.4,1.6-4,4-4s4,1.6,4,4v100.8C488,455.2,478,476,458.8,476z"/>
<path d="M484,234c-2.4,0-4-1.6-4-4V122.4c0-15.6-6.4-22.4-21.2-22.4H39.6C19.6,100,0,81.2,0,62.4c0-2.4,1.6-4,4-4s4,1.6,4,4
	C8,77.2,24,92,39.6,92h419.2c19.2,0,29.2,10.4,29.2,30.4V230C488,232.4,486.4,234,484,234z"/>
<path d="M484,214c-2.4,0-4-1.6-4-4V102.8c0-14-5.2-18.8-21.2-18.8H45.6c-10,0-18-8-18-18s8-18,18-18h373.6c18.4,0,30,10,32.4,27.2
	c0,0.4,0,0.4,0,0.8h7.2c14.4,0,29.2,3.2,29.2,26.8V210C488,212.4,486.4,214,484,214z M45.6,56c-5.6,0-10,4.4-10,10s4.4,10,10,10
	h397.6c-2-16.4-14.4-20-24.4-20H45.6z"/>
<path d="M4,374c-2.4,0-4-1.6-4-4V55.2C0,35.2,23.6,28,43.6,28h375.6C438,28,448,45.6,448,55.2V62c0,2.4-1.6,4-4,4s-4-1.6-4-4v-6.8
	c0-4-5.6-19.2-20.8-19.2H43.6C30.4,36,8,40,8,55.2V370C8,372.4,6.4,374,4,374z"/>
<path d="M484,336H335.6c-10.8,0-20-8.8-20-20v-64.4c0-10.8,8.8-20,20-20H484c10.8,0,20,8.8,20,20V316C504,327.2,495.2,336,484,336z
	 M336,240c-6.4,0-12,5.2-12,12v64.4c0,6.4,5.2,12,12,12h148.4c6.4,0,12-5.2,12-12V252c0-6.4-5.2-12-12-12H336z"/>
<path d="M375.6,308.4c-17.6,0-31.6-14.4-31.6-31.6s14.4-31.6,31.6-31.6s31.6,14.4,31.6,31.6S393.2,308.4,375.6,308.4z M375.6,252.8
	c-13.2,0-23.6,10.8-23.6,23.6s10.8,23.6,23.6,23.6s23.6-10.8,23.6-23.6S388.8,252.8,375.6,252.8z"/>
<path d="M375.6,292.4c-8.8,0-16-7.2-16-16s7.2-16,16-16c2.4,0,4,1.6,4,4s-1.6,4-4,4c-4.4,0-8,3.6-8,8s3.6,8,8,8s8-3.6,8-8
	c0-2.4,1.6-4,4-4s4,1.6,4,4C391.6,285.2,384.4,292.4,375.6,292.4z"/>
<path d="M432.4,428H43.6C24,428,0,411.2,0,392c0-2.4,1.6-4,4-4s4,1.6,4,4c0,14.8,20,28,35.6,28h388c0.4-1.6,0.4-5.2,0.4-6.8
	c0-0.8,0-1.2,0-2V334c0-2.4,1.6-4,4-4s4,1.6,4,4v77.2c0,0.4,0,1.2,0,2c0,4.4,0.4,10-2.8,13.2C436,427.2,434.4,428,432.4,428z"/>
<path d="M436,210c-2.4,0-4-1.6-4-4v-58H39.6C19.6,148,0,129.2,0,109.6c0-2.4,1.6-4,4-4s4,1.6,4,4C8,124.4,24,140,39.6,140h394
	c1.2,0,2.8,0,4.4,1.2c0.8,0.8,2,2,2,4.8v60C440,208.4,438.4,210,436,210z"/>
<g>
</g>
<g>
</g>
<g>
</g>
<g>
</g>
<g>
</g>
<g>
</g>
<g>
</g>
<g>
</g>
<g>
</g>
<g>
</g>
<g>
</g>
<g>
</g>
<g>
</g>
<g>
</g>
<g>
</g>
</svg>
