<svg height="512pt" viewBox="0 -105 512 512" width="512pt" xmlns="http://www.w3.org/2000/svg"><path d="m512 93.828125v186.691406c0 11.9375-9.683594 21.613281-21.613281 21.613281h-468.773438c-11.941406 0-21.613281-9.675781-21.613281-21.613281v-258.90625c0-11.941406 9.671875-21.613281 21.613281-21.613281h396.546875c51.828125 0 93.839844 42.011719 93.839844 93.828125zm0 0" fill="#75a4c8"/><path d="m512 93.832031v186.6875c0 11.941407-9.683594 21.613281-21.613281 21.613281h-39.980469c11.941406 0 21.609375-9.671874 21.609375-21.613281v-186.6875c0-51.824219-42-93.82812475-93.828125-93.82812475h39.972656c51.824219 0 93.839844 42.00390575 93.839844 93.82812475zm0 0" fill="#628fb1"/><path d="m512 93.828125v148.738281c-11.824219 8.550782-25.363281 14.886719-39.980469 18.421875-8.644531 2.089844-17.679687 3.191407-26.960937 3.191407-63.222656 0-114.464844-51.25-114.464844-114.460938 0-35.027344 35.140625-98.332031 66.488281-147.8125.402344-.636719.804688-1.273438 1.207031-1.90234375h19.871094c51.828125-.00390625 93.839844 42.00781275 93.839844 93.82421875zm0 0" fill="#f55"/><path d="m512 93.828125v148.738281c-11.824219 8.550782-25.363281 14.886719-39.980469 18.421875v-167.160156c0-45.347656-32.164062-83.1875-74.933593-91.921875.398437-.640625.800781-1.277344 1.203124-1.90625h19.871094c51.828125 0 93.839844 42.011719 93.839844 93.828125zm0 0" fill="#f72b2b"/><path d="m121.230469 69.21875v14.894531c0 3.34375-2.710938 6.054688-6.054688 6.054688h-14.976562v14.980469c0 3.34375-2.710938 6.054687-6.058594 6.054687h-14.894531c-3.34375 0-6.054688-2.710937-6.054688-6.054687v-14.980469h-14.980468c-3.34375 0-6.054688-2.710938-6.054688-6.054688v-14.894531c0-3.34375 2.710938-6.058594 6.054688-6.058594h14.980468v-14.972656c0-3.347656 2.710938-6.058594 6.054688-6.058594h14.894531c3.34375 0 6.054687 2.710938 6.054687 6.058594v14.972656h14.976563c3.347656 0 6.058594 2.714844 6.058594 6.058594zm0 0" fill="#f55"/><path d="m228.683594 49.855469h-67.699219c-4.269531 0-7.726563-3.457031-7.726563-7.726563 0-4.265625 3.460938-7.726562 7.726563-7.726562h67.699219c4.269531 0 7.726562 3.460937 7.726562 7.726562 0 4.269532-3.457031 7.726563-7.726562 7.726563zm0 0" fill="#d9efec"/><g fill="#f55"><path d="m296.386719 85.527344h-135.402344c-4.269531 0-7.726563-3.457032-7.726563-7.722656 0-4.269532 3.460938-7.726563 7.726563-7.726563h135.402344c4.265625 0 7.722656 3.457031 7.722656 7.726563.003906 4.265624-3.457031 7.722656-7.722656 7.722656zm0 0"/><path d="m296.386719 111.421875h-85.4375c-4.265625 0-7.722657-3.460937-7.722657-7.726563 0-4.269531 3.457032-7.726562 7.722657-7.726562h85.4375c4.265625 0 7.722656 3.457031 7.722656 7.726562 0 4.265626-3.457031 7.726563-7.722656 7.726563zm0 0"/><path d="m187.730469 111.421875h-26.746094c-4.269531 0-7.726563-3.460937-7.726563-7.726563 0-4.269531 3.460938-7.726562 7.726563-7.726562h26.746094c4.265625 0 7.726562 3.457031 7.726562 7.726562 0 4.265626-3.460937 7.726563-7.726562 7.726563zm0 0"/></g><path d="m156.398438 262.9375h-93.941407c-5.691406 0-10.300781-4.613281-10.300781-10.300781v-86.710938c0-5.691406 4.609375-10.300781 10.300781-10.300781h93.941407c5.691406 0 10.300781 4.609375 10.300781 10.300781v86.710938c0 5.6875-4.609375 10.300781-10.300781 10.300781zm0 0" fill="#a0ecff"/><path d="m417.722656 193.015625h-181.273437c-5.691407 0-10.304688-4.609375-10.304688-10.300781v-13.027344c0-5.691406 4.613281-10.300781 10.304688-10.300781h181.273437c5.691406 0 10.300782 4.609375 10.300782 10.300781v13.027344c0 5.691406-4.613282 10.300781-10.300782 10.300781zm0 0" fill="#38aaff"/><path d="m260.34375 229.097656h-34.199219c-4.265625 0-7.722656-3.457031-7.722656-7.726562 0-4.265625 3.457031-7.726563 7.722656-7.726563h34.199219c4.265625 0 7.726562 3.460938 7.726562 7.726563s-3.460937 7.726562-7.726562 7.726562zm0 0" fill="#d9efec"/><path d="m330.488281 252.914062h-104.34375c-4.265625 0-7.722656-3.460937-7.722656-7.726562s3.457031-7.726562 7.722656-7.726562h104.34375c4.269531 0 7.726563 3.460937 7.726563 7.726562s-3.457032 7.726562-7.726563 7.726562zm0 0" fill="#d9efec"/><path d="m428.023438 229.097656h-36.292969c-4.265625 0-7.726563-3.457031-7.726563-7.726562 0-4.265625 3.460938-7.726563 7.726563-7.726563h36.292969c4.269531 0 7.726562 3.460938 7.726562 7.726563s-3.457031 7.726562-7.726562 7.726562zm0 0" fill="#d9efec"/><path d="m135.714844 209.28125c0 14.519531-11.769532 26.285156-26.285156 26.285156-14.519532 0-26.289063-11.765625-26.289063-26.285156s11.769531-26.289062 26.289063-26.289062c14.515624 0 26.285156 11.769531 26.285156 26.289062zm0 0" fill="#fecaa8"/></svg>