<!DOCTYPE svg PUBLIC "-//W3C//DTD SVG 20010904//EN" "http://www.w3.org/TR/2001/REC-SVG-20010904/DTD/svg10.dtd">
<svg version="1.0" xmlns="http://www.w3.org/2000/svg" width="900px" height="520px" viewBox="0 0 9000 5200" preserveAspectRatio="xMidYMid meet">
<g id="layer101" fill="#020102" stroke="none">
 <path d="M5302 4410 c-77 -36 -157 -115 -206 -203 -54 -96 -51 -110 45 -212 45 -47 118 -115 163 -152 44 -36 133 -118 197 -181 l116 -114 -15 -30 c-10 -22 -13 -50 -10 -99 5 -64 4 -69 -15 -69 -11 0 -46 -22 -77 -49 l-57 -50 -29 20 c-16 10 -34 19 -41 19 -12 0 -53 -64 -53 -83 0 -14 123 -97 144 -97 8 0 34 23 59 51 l44 52 69 -27 c68 -25 74 -26 304 -26 l235 0 87 31 c68 25 88 36 88 50 0 18 18 19 450 19 l450 0 0 -24 c0 -40 22 -49 97 -42 108 11 165 26 170 47 3 10 11 20 19 23 11 4 14 28 14 101 l0 95 -252 0 -253 0 3 50 c2 28 1 62 -2 75 l-6 25 -345 0 -344 0 -3 32 c-3 27 -9 33 -45 45 -51 17 -93 55 -93 84 0 14 -26 47 -75 93 -43 41 -75 80 -75 91 -1 37 -37 101 -79 136 -74 64 -177 77 -268 34 -54 -24 -93 -71 -93 -109 0 -34 -54 28 -94 108 -40 79 -63 159 -72 253 l-7 63 -41 0 c-25 0 -66 -12 -104 -30z"/>
 <path d="M1966 4179 l-26 -20 0 -993 0 -993 23 -21 c13 -12 31 -22 40 -22 14 0 17 -11 17 -75 0 -71 -1 -75 -25 -81 -56 -14 -55 -7 -55 -530 l0 -483 26 -20 27 -21 2174 0 c2368 0 2222 -4 2237 55 6 24 8 25 96 25 75 0 90 -3 90 -15 0 -9 11 -27 25 -40 24 -25 26 -25 208 -25 171 0 186 1 211 21 l26 20 0 1125 0 1125 -69 -60 c-152 -131 -327 -223 -521 -274 -110 -29 -124 -31 -310 -31 -186 0 -200 2 -310 31 -135 36 -297 109 -407 185 -100 68 -253 221 -321 321 -143 208 -222 460 -222 708 l0 109 -1454 0 -1453 0 -27 -21z"/>
 </g>
<g id="layer102" fill="#693119" stroke="none">
 <path d="M5321 4375 c-66 -31 -156 -122 -196 -197 -27 -51 -28 -59 -16 -82 19 -35 127 -143 227 -227 l81 -69 99 0 99 0 -2 72 c-1 72 -2 74 -47 121 -74 76 -134 217 -150 350 -9 67 -15 69 -95 32z"/>
 <path d="M1966 4179 c-14 -11 -26 -28 -25 -37 0 -13 2 -12 9 4 5 12 15 26 22 30 7 5 670 11 1473 14 l1460 5 -1456 3 -1456 2 -27 -21z"/>
 <path d="M5746 4096 c-76 -28 -85 -46 -88 -176 l-2 -115 244 -2 245 -3 -62 59 c-42 39 -63 67 -63 83 -1 44 -37 106 -79 133 -49 33 -137 42 -195 21z m174 -56 c34 -24 66 -84 72 -135 l3 -30 -155 -6 c-85 -4 -159 -3 -164 2 -15 13 4 116 26 145 46 58 153 70 218 24z"/>
 <path d="M5774 4031 c-34 -15 -64 -61 -64 -97 l0 -34 125 0 c80 0 125 4 125 10 0 19 -37 84 -59 104 -23 21 -95 30 -127 17z"/>
 <path d="M2088 3116 c-3 -902 -4 -935 -22 -955 -35 -39 -100 -23 -119 29 -5 13 -6 13 -6 -1 -1 -20 40 -59 62 -59 14 0 17 -11 17 -74 0 -50 -4 -76 -12 -79 -7 -3 -1 -6 13 -6 53 -2 64 -30 67 -172 l4 -129 2409 0 2409 0 0 706 0 706 -27 -18 c-16 -10 -49 -31 -75 -47 l-48 -30 0 -552 c0 -544 0 -553 -21 -579 l-20 -26 -1198 0 -1198 0 -19 21 c-18 20 -19 52 -19 1009 0 957 1 989 19 1009 19 20 27 21 314 21 l295 0 -7 53 c-3 28 -6 64 -6 80 l0 27 -1405 0 -1405 0 -2 -934z m1959 752 l23 -21 0 -982 0 -982 -26 -24 -26 -24 -864 0 -863 0 -23 23 -23 23 0 977 c0 919 1 979 18 1005 l17 27 872 0 872 0 23 -22z"/>
 <path d="M2392 2865 l3 -880 763 -3 762 -2 0 880 0 880 -95 0 -95 0 0 -177 c0 -204 -13 -285 -62 -383 -38 -76 -160 -206 -226 -239 l-43 -22 29 -33 c152 -174 91 -453 -122 -556 -61 -29 -175 -38 -243 -20 -57 16 -142 70 -179 113 -105 124 -109 328 -8 448 19 22 34 42 34 44 0 1 -29 21 -64 44 -115 74 -206 197 -242 327 -11 41 -17 120 -21 259 l-6 200 -93 0 -94 0 2 -880z"/>
 <path d="M2730 3572 c0 -253 27 -339 137 -443 165 -156 427 -153 587 6 105 106 124 167 127 418 l2 192 -426 3 -427 2 0 -178z"/>
 <path d="M3115 2861 c-69 -17 -115 -54 -149 -122 -14 -27 -18 -51 -14 -102 3 -60 8 -70 44 -114 47 -55 123 -88 185 -79 151 23 234 193 155 316 -16 25 -36 51 -45 58 -43 35 -125 55 -176 43z"/>
 <path d="M5673 3753 c-7 -2 -13 -13 -13 -24 0 -18 1 -18 20 1 28 28 25 37 -7 23z"/>
 <path d="M5750 3752 c0 -2 7 -10 15 -18 20 -21 19 -63 -2 -87 -17 -20 -17 -20 0 -14 10 4 131 7 268 7 226 0 292 7 225 24 -13 3 -39 23 -57 43 l-33 38 -208 5 c-114 3 -208 4 -208 2z"/>
 <path d="M4430 2860 l0 -890 1090 0 1090 0 0 473 0 474 -82 -24 c-152 -44 -249 -56 -413 -50 -178 6 -325 39 -469 106 l-89 41 -414 0 c-412 0 -444 2 -465 34 -15 22 -8 73 13 92 20 18 43 19 334 22 l313 3 -49 46 c-27 25 -74 77 -105 114 l-56 69 -209 0 c-196 0 -210 1 -229 20 -26 26 -26 81 -2 103 16 14 44 17 185 17 92 0 167 2 167 4 0 2 -15 37 -34 79 -19 41 -40 94 -47 116 l-12 41 -259 0 -258 0 0 -890z m1015 -115 c14 -13 25 -31 25 -40 0 -20 -19 -57 -34 -67 -6 -4 -173 -8 -370 -8 -321 0 -361 2 -378 17 -24 22 -24 77 2 103 19 19 33 20 375 20 l356 0 24 -25z m933 5 c28 -26 29 -73 2 -100 -19 -19 -33 -20 -380 -20 -357 0 -359 0 -380 22 -27 29 -25 64 5 93 l24 25 354 0 c342 0 354 -1 375 -20z m-478 -390 c26 -26 25 -68 -2 -97 l-21 -23 -584 0 c-570 0 -583 0 -603 20 -24 24 -26 77 -3 102 15 17 47 18 605 18 575 0 588 0 608 -20z m480 0 c27 -27 26 -74 -2 -100 -19 -18 -35 -20 -130 -20 -102 0 -110 1 -133 25 -30 30 -31 54 -4 89 20 25 23 26 135 26 101 0 116 -2 134 -20z"/>
 <path d="M5480 3744 c0 -9 112 -124 122 -124 4 0 8 29 8 65 l0 65 -65 0 c-36 0 -65 -3 -65 -6z"/>
 <path d="M5701 3707 c-8 -11 -6 -18 8 -31 16 -15 20 -15 31 -1 15 18 7 45 -13 45 -8 0 -20 -6 -26 -13z"/>
 <path d="M5661 3638 l-1 -47 30 17 c29 17 29 17 8 28 -12 7 -25 20 -29 30 -5 13 -8 3 -8 -28z"/>
 <path d="M5800 3435 c0 -149 2 -175 15 -175 13 0 15 26 15 175 0 149 -2 175 -15 175 -13 0 -15 -26 -15 -175z"/>
 <path d="M5860 3569 c0 -33 3 -40 16 -35 9 3 78 6 155 6 l139 0 0 35 0 35 -155 0 -155 0 0 -41z"/>
 <path d="M6200 3435 l0 -175 55 0 55 0 0 175 0 175 -55 0 -55 0 0 -175z"/>
 <path d="M5713 3582 c-87 -47 -114 -165 -54 -239 18 -21 79 -63 94 -63 4 0 7 72 7 160 0 88 -3 160 -7 160 -5 -1 -22 -9 -40 -18z"/>
 <path d="M6343 3564 c-2 -6 -3 -33 -1 -60 l3 -49 330 0 330 0 0 58 0 58 -329 2 c-236 1 -330 -1 -333 -9z"/>
 <path d="M5860 3438 l0 -63 152 2 153 2 3 60 3 61 -156 0 -155 0 0 -62z"/>
 <path d="M6340 3363 l0 -58 582 3 c320 1 583 3 584 5 1 1 4 26 6 55 l5 52 -588 0 -589 0 0 -57z"/>
 <path d="M5860 3303 l0 -38 152 2 153 2 3 35 3 36 -155 0 -156 0 0 -37z"/>
 <path d="M5534 3279 c-16 -17 -42 -40 -57 -51 -26 -19 -30 -19 -61 -4 -42 20 -46 20 -46 1 0 -8 20 -28 44 -44 l44 -31 49 56 48 55 63 -25 c34 -13 62 -22 62 -20 0 14 -26 52 -49 71 -36 31 -62 28 -97 -8z"/>
 <path d="M7376 3261 c-55 -4 -81 -10 -84 -20 -4 -11 7 -13 59 -7 95 10 129 17 129 27 0 5 -6 8 -12 7 -7 -1 -49 -4 -92 -7z"/>
 <path d="M5715 3229 l16 -30 234 3 c170 2 237 6 247 16 10 9 -32 12 -209 12 -176 0 -226 3 -249 15 -47 24 -57 20 -39 -16z"/>
 <path d="M2094 1515 c-3 -6 -3 -106 -2 -224 l3 -213 373 -1 372 -2 -2 223 -3 223 -369 2 c-244 1 -370 -1 -372 -8z"/>
 <path d="M2990 1300 l0 -230 1685 0 c1672 0 1685 0 1705 -20 11 -11 20 -32 21 -48 0 -15 3 -21 6 -14 3 8 32 12 94 12 76 0 91 3 96 18 17 49 28 52 175 52 l138 0 0 230 0 230 -1960 0 -1960 0 0 -230z"/>
 <path d="M1940 972 c0 -6 12 -20 26 -31 l27 -21 2181 2 2181 3 -2188 5 -2189 5 -19 24 c-10 13 -19 19 -19 13z"/>
 <path d="M7033 953 c-22 -22 -27 -23 -205 -23 -150 0 -188 3 -208 16 l-25 16 24 -21 c22 -20 35 -21 207 -21 179 0 183 1 211 24 15 13 26 26 23 28 -3 2 -15 -6 -27 -19z"/>
 </g>
<g id="layer103" fill="#666767" stroke="none">
 <path d="M2718 4193 c404 -2 1061 -2 1460 0 400 1 70 2 -733 2 -803 0 -1130 -1 -727 -2z"/>
 <path d="M1956 4171 c-10 -11 -16 -26 -13 -33 4 -10 6 -10 6 1 1 8 8 23 18 33 9 10 14 18 11 18 -3 0 -13 -9 -22 -19z"/>
 <path d="M5745 4095 c-22 -8 -50 -26 -62 -40 -21 -24 -23 -36 -23 -141 l0 -114 235 0 c129 0 235 4 235 9 0 5 -25 30 -55 56 -39 33 -55 54 -55 71 0 72 -62 144 -140 162 -65 15 -85 15 -135 -3z m173 -54 c30 -22 45 -44 62 -87 11 -31 19 -63 16 -69 -5 -13 -298 -31 -316 -20 -16 10 -11 87 8 125 41 83 152 107 230 51z"/>
 <path d="M5763 4020 c-38 -23 -53 -48 -53 -89 l0 -31 103 1 c56 1 112 4 125 7 l22 7 -22 44 c-37 75 -110 101 -175 61z"/>
 <path d="M2090 3125 c0 -685 -3 -931 -12 -950 -6 -14 -22 -28 -35 -31 -22 -6 -23 -11 -23 -84 0 -53 -4 -80 -12 -83 -7 -3 -1 -6 13 -6 53 -2 64 -30 67 -172 l4 -129 2409 0 2409 0 0 706 0 706 -27 -18 c-16 -10 -49 -31 -75 -47 l-48 -30 0 -552 c0 -544 0 -553 -21 -579 l-20 -26 -1199 0 -1199 0 -20 26 c-21 27 -21 30 -21 1004 0 974 0 977 21 1004 l20 26 296 0 296 0 -7 53 c-3 28 -6 64 -6 80 l0 27 -1405 0 -1405 0 0 -925z m1957 743 l23 -21 0 -984 c0 -957 -1 -984 -19 -1002 -11 -11 -39 -22 -63 -26 -24 -3 -415 -5 -870 -3 l-827 3 -23 23 -23 23 0 983 c0 954 1 985 19 1005 l19 21 870 0 871 0 23 -22z"/>
 <path d="M2392 2865 l3 -880 763 -3 762 -2 0 880 0 880 -95 0 -95 0 0 -177 c0 -204 -13 -285 -62 -383 -38 -76 -160 -206 -226 -239 l-43 -22 29 -33 c152 -174 91 -453 -122 -556 -61 -29 -175 -38 -243 -20 -57 16 -142 70 -179 113 -105 124 -109 328 -8 448 19 22 34 42 34 44 0 1 -29 21 -64 44 -115 74 -206 197 -242 327 -11 41 -17 120 -21 259 l-6 200 -93 0 -94 0 2 -880z"/>
 <path d="M2733 3548 c7 -245 26 -306 127 -408 82 -81 182 -122 300 -122 165 0 305 90 378 242 l36 75 4 203 4 202 -427 0 -428 0 6 -192z"/>
 <path d="M3088 2851 c-70 -23 -127 -97 -135 -175 -16 -155 135 -268 282 -211 92 35 146 139 121 236 -17 62 -38 93 -87 126 -44 29 -129 40 -181 24z"/>
 <path d="M5480 3745 c0 -10 112 -125 122 -125 5 0 8 28 6 63 l-3 62 -62 3 c-35 2 -63 0 -63 -3z"/>
 <path d="M5660 3734 c0 -14 3 -14 15 -4 8 7 15 14 15 16 0 2 -7 4 -15 4 -8 0 -15 -7 -15 -16z"/>
 <path d="M5770 3731 c15 -29 12 -62 -7 -83 -17 -19 -5 -26 13 -8 7 7 95 10 252 8 224 -3 273 1 223 17 -11 3 -36 24 -55 45 l-36 40 -200 0 c-195 0 -200 -1 -190 -19z"/>
 <path d="M4430 2858 l0 -883 1090 3 1090 2 0 469 0 468 -82 -24 c-152 -44 -249 -56 -413 -50 -178 6 -325 39 -469 106 l-89 41 -424 0 -424 0 -25 27 c-30 33 -27 77 7 106 19 15 51 17 335 17 l313 0 -49 46 c-28 26 -75 78 -106 115 l-56 69 -213 0 -214 0 -20 26 c-28 36 -26 65 5 95 25 23 32 24 189 27 l163 3 -32 72 c-18 40 -39 89 -45 110 l-13 37 -259 0 -259 0 0 -882z m1017 -110 c30 -28 31 -78 2 -104 -20 -18 -43 -19 -363 -22 -187 -2 -351 0 -363 3 -31 7 -63 44 -63 72 0 13 11 35 25 48 l24 25 357 0 c353 0 358 0 381 -22z m936 5 c8 -10 19 -30 22 -45 6 -22 1 -33 -24 -58 l-30 -31 -355 3 c-332 3 -355 4 -375 22 -27 25 -28 79 -1 106 19 19 33 20 383 20 334 0 365 -1 380 -17z m-484 -387 c26 -23 28 -81 4 -108 -15 -17 -47 -18 -609 -18 l-593 0 -20 26 c-30 38 -26 68 10 98 l31 26 578 -2 c552 -3 579 -4 599 -22z m477 1 c33 -28 37 -76 9 -107 -16 -18 -31 -20 -133 -20 -105 0 -118 2 -139 22 -37 35 -26 99 20 118 12 5 66 9 119 9 88 1 99 -1 124 -22z"/>
 <path d="M5704 3705 c-7 -18 3 -35 21 -35 21 0 28 19 15 35 -16 19 -29 19 -36 0z"/>
 <path d="M5660 3632 l0 -41 29 17 c26 15 28 18 13 26 -9 5 -23 16 -29 24 -11 13 -13 9 -13 -26z"/>
 <path d="M5800 3435 c0 -149 2 -175 15 -175 13 0 15 26 15 175 0 149 -2 175 -15 175 -13 0 -15 -26 -15 -175z"/>
 <path d="M5862 3573 c2 -21 6 -37 11 -35 4 1 70 2 147 2 l140 0 0 35 0 35 -151 0 -150 0 3 -37z"/>
 <path d="M6200 3435 l0 -175 55 0 55 0 0 175 0 175 -55 0 -55 0 0 -175z"/>
 <path d="M5730 3589 c-90 -36 -129 -153 -77 -230 21 -32 80 -79 98 -79 5 0 9 72 9 160 0 88 -1 160 -2 159 -2 0 -14 -5 -28 -10z"/>
 <path d="M6342 3515 c2 -30 6 -55 11 -55 4 0 151 0 327 0 l320 0 0 55 0 55 -330 0 -331 0 3 -55z"/>
 <path d="M5860 3438 l0 -63 150 0 150 0 0 63 0 62 -150 0 -150 0 0 -62z"/>
 <path d="M6342 3365 c2 -30 6 -55 11 -55 4 0 266 0 582 0 l575 0 0 55 0 55 -585 0 -586 0 3 -55z"/>
 <path d="M5860 3303 l0 -38 150 0 150 0 0 38 0 37 -150 0 -150 0 0 -37z"/>
 <path d="M5515 3258 c-55 -50 -58 -51 -88 -39 -45 17 -52 18 -52 4 0 -7 18 -25 40 -42 l40 -30 50 55 50 56 53 -21 c69 -27 75 -27 58 8 -12 23 -67 61 -89 61 -3 0 -31 -23 -62 -52z"/>
 <path d="M7395 3262 c-93 -3 -113 -8 -98 -23 8 -8 35 -8 94 0 75 10 100 17 88 24 -2 1 -40 1 -84 -1z"/>
 <path d="M5715 3230 l16 -31 234 3 c170 2 237 6 247 16 10 9 -33 12 -213 12 -124 0 -229 4 -234 9 -6 4 -23 11 -38 15 l-28 7 16 -31z"/>
 <path d="M2094 1515 c-3 -6 -3 -106 -2 -224 l3 -213 373 -1 372 -2 -2 223 -3 223 -369 2 c-244 1 -370 -1 -372 -8z"/>
 <path d="M2990 1301 l0 -218 47 -7 c26 -3 785 -6 1687 -6 1606 0 1640 0 1659 -19 11 -10 20 -32 20 -48 0 -15 2 -22 4 -16 3 9 31 13 93 13 86 0 88 1 94 26 11 41 58 54 196 54 l120 0 0 220 0 220 -1960 0 -1960 0 0 -219z"/>
 <path d="M3078 923 c600 -2 1584 -2 2185 0 600 1 109 2 -1093 2 -1202 0 -1693 -1 -1092 -2z"/>
 <path d="M6733 923 c54 -2 139 -2 190 0 51 1 7 3 -98 3 -104 0 -146 -2 -92 -3z"/>
 </g>
<g id="layer104" fill="#fd5946" stroke="none">
 <path d="M2090 3110 l0 -931 -25 -24 c-13 -14 -29 -25 -35 -25 -6 0 -10 -31 -10 -80 0 -64 3 -80 15 -80 8 0 24 -9 35 -20 18 -18 20 -33 20 -145 l0 -124 2408 -3 c1324 -2 2408 -3 2410 -2 1 0 1 316 0 701 l-3 700 -72 -46 -73 -46 0 -545 c0 -300 -3 -555 -6 -568 -15 -54 32 -52 -1227 -52 -824 0 -1173 3 -1196 11 -17 6 -36 19 -41 29 -14 25 -14 1975 0 2000 19 35 64 40 348 40 l275 0 -7 46 c-3 26 -6 57 -6 70 l0 24 -1405 0 -1405 0 0 -930z m1929 779 c17 -6 36 -19 41 -29 6 -12 10 -378 10 -998 0 -950 -1 -981 -19 -1003 l-19 -24 -859 -3 c-600 -2 -866 1 -884 9 -15 5 -31 22 -38 35 -8 18 -11 295 -11 992 0 1053 -3 999 54 1022 33 13 1686 12 1725 -1z"/>
 <path d="M2482 3742 l-92 -3 2 -877 3 -877 763 -3 762 -2 0 880 0 880 -95 0 -95 0 0 -192 c0 -176 -2 -199 -25 -273 -13 -45 -42 -108 -63 -141 -45 -68 -146 -165 -203 -195 l-40 -20 29 -33 c124 -142 111 -361 -29 -490 -81 -76 -147 -99 -260 -94 -98 5 -166 33 -232 97 -133 127 -140 359 -15 497 18 21 18 21 -46 63 -109 70 -185 167 -234 300 -22 60 -25 86 -31 276 l-6 210 -93 -3z"/>
 <path d="M2733 3548 c7 -245 26 -306 127 -408 82 -81 182 -122 300 -122 165 0 305 90 378 242 l36 75 4 203 4 202 -427 0 -428 0 6 -192z"/>
 <path d="M3088 2851 c-70 -23 -127 -97 -135 -175 -16 -155 135 -268 282 -211 92 35 146 139 121 236 -17 62 -38 93 -87 126 -44 29 -129 40 -181 24z"/>
 <path d="M4430 2858 l0 -883 1090 3 1090 2 0 469 0 468 -82 -24 c-152 -44 -249 -56 -413 -50 -178 6 -325 39 -469 106 l-89 41 -424 0 -424 0 -25 27 c-30 33 -27 77 7 106 19 15 51 17 335 17 l313 0 -49 46 c-28 26 -75 78 -106 115 l-56 69 -213 0 -214 0 -20 26 c-28 36 -26 65 5 95 25 23 32 24 189 27 l163 3 -32 72 c-18 40 -39 89 -45 110 l-13 37 -259 0 -259 0 0 -882z m1017 -110 c30 -28 31 -78 2 -104 -20 -18 -43 -19 -363 -22 -187 -2 -351 0 -363 3 -31 7 -63 44 -63 72 0 13 11 35 25 48 l24 25 357 0 c353 0 358 0 381 -22z m936 5 c8 -10 19 -30 22 -45 6 -22 1 -33 -24 -58 l-30 -31 -355 3 c-332 3 -355 4 -375 22 -27 25 -28 79 -1 106 19 19 33 20 383 20 334 0 365 -1 380 -17z m-484 -387 c26 -23 28 -81 4 -108 -15 -17 -47 -18 -609 -18 l-593 0 -20 26 c-30 38 -26 68 10 98 l31 26 578 -2 c552 -3 579 -4 599 -22z m477 1 c33 -28 37 -76 9 -107 -16 -18 -31 -20 -133 -20 -105 0 -118 2 -139 22 -37 35 -26 99 20 118 12 5 66 9 119 9 88 1 99 -1 124 -22z"/>
 <path d="M5704 3699 c-8 -14 11 -33 25 -25 6 4 11 14 11 22 0 16 -26 19 -36 3z"/>
 <path d="M5800 3440 c0 -107 4 -170 10 -170 6 0 10 63 10 170 0 107 -4 170 -10 170 -6 0 -10 -63 -10 -170z"/>
 <path d="M5866 3587 c-11 -44 -1 -47 150 -47 l144 0 0 33 0 32 -144 0 c-133 0 -145 -2 -150 -18z m284 -17 c0 -19 -7 -20 -135 -20 -128 0 -135 1 -135 20 0 19 7 20 135 20 128 0 135 -1 135 -20z"/>
 <path d="M6210 3438 l0 -168 24 -6 c14 -3 34 -3 45 1 20 6 21 13 21 173 l0 167 -45 0 -45 0 0 -167z m80 117 c0 -33 -2 -35 -35 -35 -33 0 -35 2 -35 35 0 33 2 35 35 35 33 0 35 -2 35 -35z m0 -155 l0 -60 -35 0 -35 0 0 60 0 60 35 0 35 0 0 -60z"/>
 <path d="M6350 3515 l0 -55 325 0 325 0 0 55 0 55 -325 0 -325 0 0 -55z m640 25 c0 -20 -7 -20 -315 -20 -308 0 -315 0 -315 20 0 20 7 20 315 20 308 0 315 0 315 -20z"/>
 <path d="M5870 3438 l0 -58 145 0 145 0 0 58 0 57 -145 0 -145 0 0 -57z m280 22 c0 -19 -7 -20 -129 -20 l-130 0 -4 -27 c-2 -17 -5 -10 -6 20 l-1 47 135 0 c128 0 135 -1 135 -20z"/>
 <path d="M6350 3360 l0 -50 580 0 580 0 0 50 0 50 -580 0 -580 0 0 -50z m1150 25 c0 -13 -70 -15 -570 -15 -500 0 -570 2 -570 15 0 13 70 15 570 15 500 0 570 -2 570 -15z"/>
 <path d="M5866 3315 c-15 -40 0 -45 150 -45 l144 0 0 30 0 30 -144 0 c-119 0 -145 -3 -150 -15z"/>
 <path d="M7300 3250 c0 -11 100 -11 145 0 21 5 4 8 -57 9 -53 1 -88 -3 -88 -9z"/>
 <path d="M2094 1515 c-3 -6 -3 -106 -2 -224 l3 -213 373 -1 372 -2 -2 223 -3 223 -369 2 c-244 1 -370 -1 -372 -8z"/>
 <path d="M2990 1301 l0 -218 47 -7 c26 -3 785 -6 1687 -6 1606 0 1640 0 1659 -19 11 -10 20 -32 20 -48 0 -15 2 -22 4 -16 3 9 31 13 93 13 86 0 88 1 94 26 11 41 58 54 196 54 l120 0 0 220 0 220 -1960 0 -1960 0 0 -219z"/>
 </g>
<g id="layer105" fill="#a2a3a4" stroke="none">
 <path d="M2090 3110 l0 -931 -25 -24 c-13 -14 -29 -25 -35 -25 -6 0 -10 -31 -10 -80 0 -64 3 -80 15 -80 8 0 24 -9 35 -20 18 -18 20 -33 20 -145 l0 -124 2408 -3 c1324 -2 2408 -3 2410 -2 1 0 1 316 0 701 l-3 700 -72 -46 -73 -46 0 -545 c0 -300 -3 -555 -6 -568 -15 -54 32 -52 -1227 -52 -824 0 -1173 3 -1196 11 -17 6 -36 19 -41 29 -14 25 -14 1975 0 2000 19 35 64 40 348 40 l275 0 -7 46 c-3 26 -6 57 -6 70 l0 24 -1405 0 -1405 0 0 -930z m1929 779 c17 -6 36 -19 41 -29 6 -12 10 -378 10 -998 0 -950 -1 -981 -19 -1003 l-19 -24 -859 -3 c-600 -2 -866 1 -884 9 -15 5 -31 22 -38 35 -8 18 -11 295 -11 992 0 1053 -3 999 54 1022 33 13 1686 12 1725 -1z"/>
 <path d="M2482 3742 l-92 -3 2 -877 3 -877 763 -3 762 -2 0 880 0 880 -95 0 -95 0 0 -192 c0 -176 -2 -199 -25 -273 -13 -45 -42 -108 -63 -141 -45 -68 -146 -165 -203 -195 l-40 -20 29 -33 c124 -142 111 -361 -29 -490 -81 -76 -147 -99 -260 -94 -98 5 -166 33 -232 97 -133 127 -140 359 -15 497 18 21 18 21 -46 63 -109 70 -185 167 -234 300 -22 60 -25 86 -31 276 l-6 210 -93 -3z"/>
 <path d="M3088 2851 c-70 -23 -127 -97 -135 -175 -16 -155 135 -268 282 -211 92 35 146 139 121 236 -17 62 -38 93 -87 126 -44 29 -129 40 -181 24z"/>
 <path d="M5704 3699 c-8 -14 11 -33 25 -25 6 4 11 14 11 22 0 16 -26 19 -36 3z"/>
 <path d="M5800 3440 c0 -107 4 -170 10 -170 6 0 10 63 10 170 0 107 -4 170 -10 170 -6 0 -10 -63 -10 -170z"/>
 <path d="M5866 3587 c-11 -44 -1 -47 150 -47 l144 0 0 33 0 32 -144 0 c-133 0 -145 -2 -150 -18z m284 -17 c0 -19 -7 -20 -135 -20 -128 0 -135 1 -135 20 0 19 7 20 135 20 128 0 135 -1 135 -20z"/>
 <path d="M6210 3438 l0 -168 24 -6 c14 -3 34 -3 45 1 20 6 21 13 21 173 l0 167 -45 0 -45 0 0 -167z m80 117 c0 -33 -2 -35 -35 -35 -33 0 -35 2 -35 35 0 33 2 35 35 35 33 0 35 -2 35 -35z m0 -155 l0 -60 -35 0 -35 0 0 60 0 60 35 0 35 0 0 -60z"/>
 <path d="M6350 3515 l0 -55 325 0 325 0 0 55 0 55 -325 0 -325 0 0 -55z m640 25 c0 -20 -7 -20 -315 -20 -308 0 -315 0 -315 20 0 20 7 20 315 20 308 0 315 0 315 -20z"/>
 <path d="M5870 3438 l0 -58 145 0 145 0 0 58 0 57 -145 0 -145 0 0 -57z m280 22 c0 -19 -7 -20 -129 -20 l-130 0 -4 -27 c-2 -17 -5 -10 -6 20 l-1 47 135 0 c128 0 135 -1 135 -20z"/>
 <path d="M6350 3360 l0 -50 580 0 580 0 0 50 0 50 -580 0 -580 0 0 -50z m1150 25 c0 -13 -70 -15 -570 -15 -500 0 -570 2 -570 15 0 13 70 15 570 15 500 0 570 -2 570 -15z"/>
 <path d="M5866 3315 c-15 -40 0 -45 150 -45 l144 0 0 30 0 30 -144 0 c-119 0 -145 -3 -150 -15z"/>
 <path d="M7300 3250 c0 -11 100 -11 145 0 21 5 4 8 -57 9 -53 1 -88 -3 -88 -9z"/>
 <path d="M2094 1515 c-3 -6 -3 -106 -2 -224 l3 -213 373 -1 372 -2 -2 223 -3 223 -369 2 c-244 1 -370 -1 -372 -8z"/>
 </g>
<g id="layer106" fill="#76d1e3" stroke="none">
 <path d="M2090 3107 l0 -934 -23 -21 c-13 -12 -29 -22 -35 -22 -8 0 -12 -24 -12 -75 0 -71 2 -76 24 -85 39 -14 46 -41 46 -169 l0 -121 2300 0 2300 0 0 70 0 70 -1179 0 c-1177 0 -1178 0 -1205 21 l-26 20 0 999 0 999 26 20 c26 20 38 21 317 21 l290 0 -7 46 c-3 26 -6 57 -6 70 l0 24 -1405 0 -1405 0 0 -933z m1957 769 l28 -24 0 -987 0 -987 -28 -24 -28 -24 -865 0 -865 0 -24 25 -25 24 0 984 c0 1039 -2 1000 45 1025 14 8 276 11 877 12 l857 0 28 -24z"/>
 <path d="M2482 3742 l-92 -3 2 -877 3 -877 763 -3 762 -2 0 880 0 880 -95 0 -95 0 0 -192 c0 -176 -2 -199 -25 -273 -13 -45 -42 -108 -63 -141 -45 -68 -146 -165 -203 -195 l-40 -20 29 -33 c124 -142 111 -361 -29 -490 -81 -76 -147 -99 -260 -94 -98 5 -166 33 -232 97 -133 127 -140 359 -15 497 18 21 18 21 -46 63 -109 70 -185 167 -234 300 -22 60 -25 86 -31 276 l-6 210 -93 -3z"/>
 <path d="M3088 2851 c-70 -23 -127 -97 -135 -175 -16 -155 135 -268 282 -211 92 35 146 139 121 236 -17 62 -38 93 -87 126 -44 29 -129 40 -181 24z"/>
 <path d="M6211 3488 c1 -17 2 -19 6 -5 3 12 14 17 38 17 24 0 35 -5 38 -17 4 -14 5 -12 6 5 1 20 -4 22 -44 22 -40 0 -45 -2 -44 -22z"/>
 <path d="M6513 3503 c86 -2 228 -2 315 0 86 1 15 3 -158 3 -173 0 -244 -2 -157 -3z"/>
 <path d="M6513 3473 c86 -2 228 -2 315 0 86 1 15 3 -158 3 -173 0 -244 -2 -157 -3z"/>
 <path d="M5958 3423 c34 -2 90 -2 125 0 34 2 6 3 -63 3 -69 0 -97 -1 -62 -3z"/>
 <path d="M6351 3340 l-1 -25 580 0 580 0 -1 25 c-1 17 -3 19 -6 8 -4 -17 -40 -18 -573 -18 -533 0 -569 1 -573 18 -3 11 -5 9 -6 -8z"/>
 <path d="M5958 3313 c34 -2 90 -2 125 0 34 2 6 3 -63 3 -69 0 -97 -1 -62 -3z"/>
 <path d="M7300 3248 c0 -10 52 -9 110 2 39 7 35 8 -32 6 -43 0 -78 -4 -78 -8z"/>
 <path d="M2094 1515 c-3 -6 -3 -106 -2 -224 l3 -213 373 -1 372 -2 -2 223 -3 223 -369 2 c-244 1 -370 -1 -372 -8z"/>
 </g>
<g id="layer107" fill="#ffd35a" stroke="none">
 <path d="M2090 3107 l0 -934 -23 -21 c-13 -12 -29 -22 -35 -22 -8 0 -12 -24 -12 -75 0 -71 2 -76 24 -85 39 -14 46 -41 46 -169 l0 -121 2300 0 2300 0 0 70 0 70 -1179 0 c-1177 0 -1178 0 -1205 21 l-26 20 0 999 0 999 26 20 c26 20 38 21 317 21 l290 0 -7 46 c-3 26 -6 57 -6 70 l0 24 -1405 0 -1405 0 0 -933z m1957 769 l28 -24 0 -987 0 -987 -28 -24 -28 -24 -865 0 -865 0 -24 25 -25 24 0 984 c0 1039 -2 1000 45 1025 14 8 276 11 877 12 l857 0 28 -24z"/>
 <path d="M3088 2851 c-70 -23 -127 -97 -135 -175 -16 -155 135 -268 282 -211 92 35 146 139 121 236 -17 62 -38 93 -87 126 -44 29 -129 40 -181 24z"/>
 <path d="M6211 3488 c1 -17 2 -19 6 -5 3 12 14 17 38 17 24 0 35 -5 38 -17 4 -14 5 -12 6 5 1 20 -4 22 -44 22 -40 0 -45 -2 -44 -22z"/>
 <path d="M6513 3503 c86 -2 228 -2 315 0 86 1 15 3 -158 3 -173 0 -244 -2 -157 -3z"/>
 <path d="M6513 3473 c86 -2 228 -2 315 0 86 1 15 3 -158 3 -173 0 -244 -2 -157 -3z"/>
 <path d="M5958 3423 c34 -2 90 -2 125 0 34 2 6 3 -63 3 -69 0 -97 -1 -62 -3z"/>
 <path d="M6351 3340 l-1 -25 580 0 580 0 -1 25 c-1 17 -3 19 -6 8 -4 -17 -40 -18 -573 -18 -533 0 -569 1 -573 18 -3 11 -5 9 -6 -8z"/>
 <path d="M5958 3313 c34 -2 90 -2 125 0 34 2 6 3 -63 3 -69 0 -97 -1 -62 -3z"/>
 <path d="M7300 3248 c0 -10 52 -9 110 2 39 7 35 8 -32 6 -43 0 -78 -4 -78 -8z"/>
 <path d="M2094 1515 c-3 -6 -3 -106 -2 -224 l3 -213 373 -1 372 -2 -2 223 -3 223 -369 2 c-244 1 -370 -1 -372 -8z"/>
 </g>
<g id="layer108" fill="#d2d3d5" stroke="none">
 <path d="M2090 3107 l0 -934 -23 -21 c-13 -12 -29 -22 -35 -22 -8 0 -12 -24 -12 -75 0 -71 2 -76 24 -85 39 -14 46 -41 46 -169 l0 -121 2300 0 2300 0 0 70 0 70 -1179 0 c-1177 0 -1178 0 -1205 21 l-26 20 0 999 0 999 26 20 c26 20 38 21 317 21 l290 0 -7 46 c-3 26 -6 57 -6 70 l0 24 -1405 0 -1405 0 0 -933z m1957 769 l28 -24 0 -987 0 -987 -28 -24 -28 -24 -865 0 -865 0 -24 25 -25 24 0 984 c0 1039 -2 1000 45 1025 14 8 276 11 877 12 l857 0 28 -24z"/>
 <path d="M6211 3488 c1 -17 2 -19 6 -5 3 12 14 17 38 17 24 0 35 -5 38 -17 4 -14 5 -12 6 5 1 20 -4 22 -44 22 -40 0 -45 -2 -44 -22z"/>
 <path d="M6513 3503 c86 -2 228 -2 315 0 86 1 15 3 -158 3 -173 0 -244 -2 -157 -3z"/>
 <path d="M6513 3473 c86 -2 228 -2 315 0 86 1 15 3 -158 3 -173 0 -244 -2 -157 -3z"/>
 <path d="M5958 3423 c34 -2 90 -2 125 0 34 2 6 3 -63 3 -69 0 -97 -1 -62 -3z"/>
 <path d="M6351 3340 l-1 -25 580 0 580 0 -1 25 c-1 17 -3 19 -6 8 -4 -17 -40 -18 -573 -18 -533 0 -569 1 -573 18 -3 11 -5 9 -6 -8z"/>
 <path d="M5958 3313 c34 -2 90 -2 125 0 34 2 6 3 -63 3 -69 0 -97 -1 -62 -3z"/>
 <path d="M7300 3248 c0 -10 52 -9 110 2 39 7 35 8 -32 6 -43 0 -78 -4 -78 -8z"/>
 </g>

</svg>