<?xml version="1.0" encoding="iso-8859-1"?>
<!-- Generator: Adobe Illustrator 19.0.0, SVG Export Plug-In . SVG Version: 6.00 Build 0)  -->
<svg version="1.1" id="Capa_1" xmlns="http://www.w3.org/2000/svg" xmlns:xlink="http://www.w3.org/1999/xlink" x="0px" y="0px"
	 viewBox="0 0 512 512" style="enable-background:new 0 0 512 512;" xml:space="preserve">
<polygon style="fill:#CEC8D7;" points="512,131.963 320.953,176.156 468.948,428.75 512,255.905 "/>
<g>
	<polygon style="fill:#988EA6;" points="360.985,196.172 235.984,176.156 256,512 340.801,512 468.948,428.75 468.948,428.75 	"/>
	<polygon style="fill:#988EA6;" points="416.317,0 324.158,0 297,120 360.985,196.172 512,131.963 	"/>
</g>
<polygon style="fill:#CEC8D7;" points="360.985,196.172 324.158,0 256,0 235.984,98.086 256,196.172 "/>
<polygon style="fill:#F7F7F8;" points="256,0 171.199,0 88.101,233.203 256,196.172 "/>
<g>
	<polygon style="fill:#DCE4EC;" points="125.133,196.172 53,230.702 0,351.683 0,351.683 171.199,512 256,512 256,196.172 	"/>
	<polygon style="fill:#DCE4EC;" points="63.789,0 0,84.62 39,172 125.133,196.172 125.133,196.172 171.199,0 	"/>
</g>
<polygon style="fill:#F7F7F8;" points="125.133,196.172 0,84.62 0,351.683 "/>
<g>
</g>
<g>
</g>
<g>
</g>
<g>
</g>
<g>
</g>
<g>
</g>
<g>
</g>
<g>
</g>
<g>
</g>
<g>
</g>
<g>
</g>
<g>
</g>
<g>
</g>
<g>
</g>
<g>
</g>
</svg>
