<svg height="512pt" viewBox="0 0 512 512" width="512pt" xmlns="http://www.w3.org/2000/svg"><path d="m452 256 33.640625 30 26.359375-30v-30c0-24.851562-10.074219-47.351562-26.359375-63.640625l-54.265625-5.734375 11.839844 48.160156c5.425781 5.429688 8.785156 12.929688 8.785156 21.214844zm0 0" fill="#d9f2ff"/><path d="m512 256h-60v30c0 8.285156-3.359375 15.785156-8.785156 21.214844l-9.964844 20.035156 52.390625 22.390625c16.285156-16.289063 26.359375-38.789063 26.359375-63.640625zm0 0" fill="#cdf"/><path d="m422 136h-46v60h46c8.285156 0 15.785156 3.359375 21.214844 8.785156l42.425781-42.425781c-16.289063-16.285156-38.789063-26.359375-63.640625-26.359375zm0 0" fill="#cdf"/><path d="m422 316h-46v60h46c24.851562 0 47.351562-10.074219 63.640625-26.359375l-42.425781-42.425781c-5.429688 5.425781-12.929688 8.785156-21.214844 8.785156zm0 0" fill="#d9f2ff"/><path d="m311.699219 91c-27.898438-54.902344-84.597657-91-146.699219-91-90.902344 0-165 75.097656-165 166s74.097656 165 165 165c62.101562 0 118.800781-35.097656 146.699219-90h79.300781v-150zm-146.699219 180c-57.898438 0-105-47.101562-105-105s47.101562-106 105-106 105 48.101562 105 106-47.101562 105-105 105zm0 0" fill="#d9f2ff"/><path d="m391 166v75h-79.300781c-27.898438 54.902344-84.597657 90-146.699219 90-90.902344 0-165-74.097656-165-165h60c0 57.898438 47.101562 105 105 105s105-47.101562 105-105zm0 0" fill="#cdf"/><path d="m315 151h30v30h-30zm0 0" fill="#575f64"/><path d="m315 166h30v15h-30zm0 0" fill="#474f54"/><path d="m311.699219 271c-27.898438-54.902344-84.597657-90-146.699219-90-90.902344 0-165 74.097656-165 165s74.097656 166 165 166c62.101562 0 118.800781-36.097656 146.699219-91h79.300781v-150zm-146.699219 181c-57.898438 0-105-48.101562-105-106s47.101562-105 105-105 105 47.101562 105 105-47.101562 106-105 106zm0 0" fill="#e6ffff"/><path d="m391 346v75h-79.300781c-27.898438 54.902344-84.597657 91-146.699219 91-90.902344 0-165-75.097656-165-166h60c0 57.898438 47.101562 106 105 106s105-48.101562 105-106zm0 0" fill="#d9f2ff"/><path d="m315 331h30v30h-30zm0 0" fill="#575f64"/><path d="m315 346h30v15h-30zm0 0" fill="#474f54"/></svg>