<svg height="512pt" viewBox="-46 0 512 512.0003" width="512pt" xmlns="http://www.w3.org/2000/svg"><path d="m370 30-40-20-40 20-40-20-40 20-40-20-40 20-40-20-40 20-40-20v66h400c0-10.269531 0-49.359375 0-66zm0 0" fill="#fff"/><path d="m10 76h400v360h-400zm0 0" fill="#fa5e97"/><path d="m210 116c77.320312 0 140 62.679688 140 140s-62.679688 140-140 140-140-62.679688-140-140 62.679688-140 140-140zm0 0" fill="#fdd0d0"/><path d="m210 156c55.140625 0 100 44.859375 100 100s-44.859375 100-100 100-100-44.859375-100-100 44.859375-100 100-100zm0 0" fill="#fa5e97"/><path d="m235 226c14.800781 0 25 11.46875 25 25.050781 0 18.800781-20.378906 31.257813-50 54.949219-29.648438-23.71875-50-36.160156-50-54.949219 0-13.582031 10.199219-25.050781 25-25.050781 19 0 25 20 25 20s6-20 25-20zm0 0" fill="#fff"/><path d="m410 436v46l-40 20-40-20-40 20-40-20-40 20-40-20-40 20-40-20-40 20-40-20v-46zm0 0" fill="#fff"/><path d="m90 86c5.519531 0 10-4.480469 10-10s-4.480469-10-10-10-10 4.480469-10 10 4.480469 10 10 10zm0 0"/><path d="m14.472656 1.054688c-3.101562-1.550782-6.78125-1.382813-9.726562.441406-2.949219 1.820312-4.746094 5.039062-4.746094 8.503906v472c0 3.789062 2.140625 7.25 5.527344 8.941406l40 20c2.816406 1.410156 6.128906 1.410156 8.945312 0l35.527344-17.761718 35.527344 17.765624c2.816406 1.40625 6.128906 1.40625 8.945312 0l35.527344-17.765624 35.527344 17.765624c2.816406 1.40625 6.128906 1.40625 8.945312 0l35.527344-17.765624 35.527344 17.765624c2.816406 1.40625 6.128906 1.40625 8.945312 0l35.527344-17.765624 35.527344 17.765624c1.40625.703126 2.941406 1.054688 4.472656 1.054688s3.0625-.351562 4.472656-1.054688l40-20c3.386719-1.695312 5.527344-5.15625 5.527344-8.945312v-472c0-3.464844-1.792969-6.683594-4.742188-8.507812-2.949218-1.820313-6.628906-1.988282-9.730468-.4375l-35.527344 17.765624-35.527344-17.765624c-2.816406-1.40625-6.128906-1.40625-8.945312 0l-35.527344 17.765624-35.527344-17.765624c-2.816406-1.40625-6.128906-1.40625-8.945312 0l-35.527344 17.765624-35.527344-17.765624c-2.816406-1.40625-6.128906-1.40625-8.945312 0l-35.527344 17.765624-35.527344-17.765624c-2.816406-1.40625-6.128906-1.40625-8.945312 0l-35.527344 17.765624zm355.527344 489.765624-35.527344-17.765624c-1.410156-.703126-2.941406-1.054688-4.472656-1.054688s-3.066406.351562-4.472656 1.054688l-35.527344 17.765624-35.527344-17.765624c-2.816406-1.40625-6.128906-1.40625-8.945312 0l-35.527344 17.765624-35.527344-17.765624c-2.816406-1.40625-6.128906-1.40625-8.945312 0l-35.527344 17.765624-35.527344-17.765624c-2.816406-1.40625-6.128906-1.40625-8.945312 0l-35.527344 17.765624-30-15v-29.820312h380v29.820312zm-280-469.640624 35.527344 17.765624c2.816406 1.40625 6.128906 1.40625 8.945312 0l35.527344-17.765624 35.527344 17.765624c2.816406 1.40625 6.128906 1.40625 8.945312 0l35.527344-17.765624 35.527344 17.765624c2.816406 1.40625 6.128906 1.40625 8.945312 0l35.527344-17.765624 35.527344 17.765624c2.816406 1.40625 6.128906 1.40625 8.945312 0l25.527344-12.765624v39.820312h-270c-5.523438 0-10 4.476562-10 10s4.476562 10 10 10h270v340h-380v-340h30c5.523438 0 10-4.476562 10-10s-4.476562-10-10-10h-30v-39.820312l25.527344 12.765624c2.816406 1.40625 6.128906 1.40625 8.945312 0zm0 0"/><path d="m210 406c82.710938 0 150-67.289062 150-150s-67.289062-150-150-150-150 67.289062-150 150 67.289062 150 150 150zm0-280c71.679688 0 130 58.316406 130 130s-58.320312 130-130 130c-71.683594 0-130-58.316406-130-130s58.316406-130 130-130zm0 0"/><path d="m210 366c60.652344 0 110-49.347656 110-110s-49.347656-110-110-110-110 49.347656-110 110 49.347656 110 110 110zm0-200c49.625 0 90 40.375 90 90s-40.375 90-90 90-90-40.375-90-90 40.375-90 90-90zm0 0"/><path d="m203.753906 313.808594c1.824219 1.460937 4.035156 2.191406 6.246094 2.191406s4.417969-.730469 6.246094-2.191406c30.222656-24.175782 53.753906-38.449219 53.753906-62.757813 0-19.65625-15.375-35.050781-35-35.050781-11.078125 0-19.285156 4.804688-25 10.816406-5.714844-6.011718-13.921875-10.816406-25-10.816406-19.625 0-35 15.394531-35 35.050781 0 24.285157 23.441406 38.511719 53.753906 62.757813zm-18.753906-77.808594c10.996094 0 15.023438 11.625 15.421875 12.871094 1.269531 4.230468 5.160156 7.128906 9.578125 7.128906 4.414062 0 8.308594-2.894531 9.578125-7.128906.039063-.125 3.996094-12.871094 15.421875-12.871094 9.847656 0 15 7.570312 15 15.050781 0 12.304688-16.5 23.738281-40 42.191407-24.75-19.433594-40-30.175782-40-42.191407 0-7.480469 5.152344-15.050781 15-15.050781zm0 0"/></svg>