<?xml version="1.0" encoding="iso-8859-1"?>
<!-- Generator: Adobe Illustrator 19.0.0, SVG Export Plug-In . SVG Version: 6.00 Build 0)  -->
<svg version="1.1" id="Capa_1" xmlns="http://www.w3.org/2000/svg" xmlns:xlink="http://www.w3.org/1999/xlink" x="0px" y="0px"
	 viewBox="0 0 512.001 512.001" style="enable-background:new 0 0 512.001 512.001;" xml:space="preserve">
<rect x="150.3" y="225.84" style="fill:#3E4B58;" width="211.4" height="226.65"/>
<path style="fill:#FFFFFF;" d="M329.726,428.016H182.274c-4.143,0-7.5-3.358-7.5-7.5V257.814c0-4.142,3.357-7.5,7.5-7.5h147.451
	c4.143,0,7.5,3.358,7.5,7.5v162.702C337.226,424.658,333.868,428.016,329.726,428.016z M189.774,413.016h132.451V265.314H189.774
	V413.016z"/>
<path style="fill:#FDA354;" d="M365.993,452.488H146.007c-6.082,0-11.013,4.93-11.013,11.013v37.487
	c0,6.082,4.931,11.013,11.013,11.013h219.986c6.082,0,11.013-4.931,11.013-11.013v-37.487
	C377.006,457.418,372.075,452.488,365.993,452.488z"/>
<g style="opacity:0.1;">
	<path d="M134.994,488.766v12.221c0,6.082,4.931,11.013,11.013,11.013h219.987c6.082,0,11.013-4.931,11.013-11.013v-12.221H134.994z
		"/>
</g>
<path style="fill:#FDA354;" d="M314.501,155.927c-2.93-0.488-4.955-3.199-4.58-6.145c3.142-24.695,1.591-49.838-4.675-74.086l0,0
	h-98.493l0,0c-6.265,24.248-7.817,49.391-4.675,74.086c0.375,2.946-1.651,5.657-4.58,6.145l-48.712,8.108
	c-7.958,1.325-13.792,8.21-13.792,16.277v32.843c0,7.007,5.68,12.687,12.687,12.687h216.638c7.007,0,12.687-5.68,12.687-12.687
	v-32.843c0-8.068-5.834-14.953-13.792-16.277L314.501,155.927z"/>
<path style="fill:#3E4B58;" d="M294.911,0h-77.822c-5.708,0-10.336,4.628-10.336,10.336v65.36h98.494v-65.36
	C305.247,4.628,300.619,0,294.911,0z"/>
<g style="opacity:0.1;">
	<path d="M294.911,0h-33.675c5.708,0,10.336,4.628,10.336,10.336v65.36h33.675v-65.36C305.247,4.628,300.619,0,294.911,0z"/>
</g>
<g>
	<path style="fill:#FFFFFF;" d="M295.414,298.674h-78.828c-4.143,0-7.5-3.358-7.5-7.5s3.357-7.5,7.5-7.5h78.828
		c4.143,0,7.5,3.358,7.5,7.5S299.557,298.674,295.414,298.674z"/>
	<path style="fill:#FFFFFF;" d="M273.793,393.659h-35.586c-4.143,0-7.5-3.358-7.5-7.5s3.357-7.5,7.5-7.5h35.586
		c4.143,0,7.5,3.358,7.5,7.5S277.936,393.659,273.793,393.659z"/>
	<path style="fill:#FFFFFF;" d="M256,363.125c-21.893,0-39.042-11.63-39.042-26.478s17.149-26.478,39.042-26.478
		c21.893,0,39.042,11.63,39.042,26.478S277.893,363.125,256,363.125z M256,325.169c-14.676,0-24.042,6.798-24.042,11.478
		s9.366,11.478,24.042,11.478s24.042-6.798,24.042-11.478S270.676,325.169,256,325.169z"/>
</g>
<g style="opacity:0.1;">
	<polygon points="150.302,225.842 150.302,242.237 328.023,242.237 328.023,452.488 361.698,452.488 361.698,225.842 	"/>
</g>
<g style="opacity:0.1;">
	<path d="M365.993,452.488h-33.675c6.082,0,11.013,4.93,11.013,11.013v37.487c0,6.082-4.931,11.013-11.013,11.013h33.675
		c6.082,0,11.013-4.931,11.013-11.013v-37.487C377.006,457.418,372.075,452.488,365.993,452.488z"/>
</g>
<g style="opacity:0.1;">
	<path d="M363.214,164.035l-48.712-8.108c-2.929-0.488-4.955-3.199-4.58-6.145c3.143-24.695,1.591-49.838-4.675-74.086l0,0h-33.675
		l0,0c6.265,24.248,7.817,49.391,4.675,74.086c-0.375,2.946,1.651,5.657,4.58,6.145l48.712,8.108
		c7.959,1.325,13.792,8.21,13.792,16.278v32.843c0,7.007-5.68,12.687-12.687,12.687h33.675c7.007,0,12.687-5.68,12.687-12.687
		v-32.843C377.006,172.244,371.172,165.359,363.214,164.035z"/>
</g>
<g style="opacity:0.1;">
	<path d="M323.875,202.55h-135.75c-4.143,0-7.5-3.358-7.5-7.5s3.357-7.5,7.5-7.5h135.75c4.143,0,7.5,3.358,7.5,7.5
		S328.018,202.55,323.875,202.55z"/>
</g>
<g style="opacity:0.1;">
	<path d="M277.065,161.453h-42.131c-4.143,0-7.5-3.358-7.5-7.5s3.357-7.5,7.5-7.5h42.131c4.143,0,7.5,3.358,7.5,7.5
		S281.208,161.453,277.065,161.453z"/>
</g>
<g>
</g>
<g>
</g>
<g>
</g>
<g>
</g>
<g>
</g>
<g>
</g>
<g>
</g>
<g>
</g>
<g>
</g>
<g>
</g>
<g>
</g>
<g>
</g>
<g>
</g>
<g>
</g>
<g>
</g>
</svg>
