<svg height="512pt" viewBox="0 -23 512.001 512" width="512pt" xmlns="http://www.w3.org/2000/svg"><path d="m323.652344 332.667969h-135.304688c-4.144531 0-7.5 3.355469-7.5 7.5v81.78125c0 4.140625 3.355469 7.5 7.5 7.5h135.304688c4.144531 0 7.5-3.359375 7.5-7.5v-81.78125c0-4.144531-3.355469-7.5-7.5-7.5zm0 0" fill="#fff4f1"/><path d="m323.652344 332.667969h-24c4.144531 0 7.5 3.355469 7.5 7.5v81.78125c0 4.140625-3.355469 7.5-7.5 7.5h24c4.144531 0 7.5-3.359375 7.5-7.5v-81.78125c0-4.144531-3.355469-7.5-7.5-7.5zm0 0" fill="#ecedef"/><path d="m372.644531 422.375c-5.125-5.257812-12.574219-7.925781-22.148437-7.925781h-188.886719c-9.8125 0-17.394531 2.703125-22.535156 8.035156-8.25 8.558594-7.792969 21.03125-7.460938 30.132813.085938 2.359374.167969 4.585937.066407 6.191406-.132813 2.066406.59375 4.097656 2.011718 5.609375 1.417969 1.507812 3.398438 2.367187 5.472656 2.367187h233.78125c2.070313 0 4.050782-.855468 5.46875-2.367187 1.417969-1.511719 2.148438-3.542969 2.015626-5.609375-.101563-1.574219-.042969-3.71875.015624-5.992188.238282-9.21875.570313-21.847656-7.800781-30.441406zm0 0" fill="#d0cfd1"/><path d="m372.644531 422.375c-5.125-5.257812-12.574219-7.925781-22.148437-7.925781h-23c9.570312 0 17.023437 2.667969 22.148437 7.925781 8.371094 8.59375 8.039063 21.222656 7.800781 30.441406-.058593 2.273438-.117187 4.417969-.015624 5.992188.132812 2.066406-.597657 4.097656-2.015626 5.609375-1.417968 1.511719-3.398437 2.367187-5.46875 2.367187h23c2.070313 0 4.050782-.855468 5.46875-2.367187 1.417969-1.511719 2.148438-3.542969 2.015626-5.609375-.101563-1.574219-.042969-3.71875.015624-5.992188.238282-9.21875.570313-21.847656-7.800781-30.441406zm0 0" fill="#9c9b9d"/><path d="m483.6875 0h-455.375c-15.613281 0-28.3125 12.703125-28.3125 28.3125v322.96875c0 15.613281 12.699219 28.3125 28.3125 28.3125h455.375c15.613281 0 28.3125-12.699219 28.3125-28.3125v-322.96875c0-15.609375-12.699219-28.3125-28.3125-28.3125zm0 0" fill="#fff4f1"/><path d="m483.6875 0h-25c15.613281 0 28.3125 12.703125 28.3125 28.3125v322.96875c0 15.613281-12.699219 28.3125-28.3125 28.3125h25c15.613281 0 28.3125-12.699219 28.3125-28.3125v-322.96875c0-15.609375-12.699219-28.3125-28.3125-28.3125zm0 0" fill="#ecedef"/><path d="m512 67.417969v-39.105469c0-15.609375-12.699219-28.3125-28.3125-28.3125h-455.375c-15.613281 0-28.3125 12.703125-28.3125 28.3125v39.105469zm0 0" fill="#4890e3"/><path d="m483.6875 0h-25c15.613281 0 28.3125 12.703125 28.3125 28.3125v39.105469h25v-39.105469c0-15.609375-12.699219-28.3125-28.3125-28.3125zm0 0" fill="#2970d6"/><path d="m0 312.175781v39.105469c0 15.613281 12.699219 28.3125 28.3125 28.3125h455.375c15.613281 0 28.3125-12.699219 28.3125-28.3125v-39.105469zm0 0" fill="#4890e3"/><path d="m487 351.28125c0 15.613281-12.699219 28.3125-28.3125 28.3125h25c2.4375 0 4.808594-.308594 7.066406-.890625 12.203125-3.148437 21.246094-14.25 21.246094-27.421875v-39.105469h-25zm0 0" fill="#2970d6"/><path d="m479.042969 163.144531c-.171875-2.492187-1.570313-4.738281-3.734375-5.988281l-.699219-.402344c-1.140625-.65625-2.433594-1.003906-3.746094-1.003906h-244.828125c-4.140625 0-7.5 3.359375-7.5 7.5v34.464844c0 4.144531 3.359375 7.5 7.5 7.5h155.523438v22.375c0 2.863281 1.628906 5.476562 4.199218 6.734375 1.046876.515625 2.175782.765625 3.300782.765625 1.632812 0 3.253906-.53125 4.59375-1.570313l82.5-63.9375c1.976562-1.53125 3.058594-3.945312 2.890625-6.4375zm0 0" fill="#f45a3c"/><path d="m479.042969 163.144531c-.171875-2.492187-1.570313-4.738281-3.734375-5.988281l-.699219-.402344c-1.140625-.65625-2.433594-1.003906-3.746094-1.003906h-24c1.3125 0 2.605469.347656 3.746094 1.003906l.699219.402344c2.164062 1.25 3.5625 3.496094 3.734375 5.988281.167969 2.492188-.914063 4.90625-2.890625 6.4375l-70.59375 54.710938v3.296875c0 2.863281 1.628906 5.476562 4.199218 6.734375 1.046876.515625 2.175782.765625 3.300782.765625 1.632812 0 3.253906-.53125 4.59375-1.570313l82.5-63.9375c1.976562-1.53125 3.058594-3.945312 2.890625-6.4375zm0 0" fill="#e24a2a"/><path d="m290.472656 157.457031h-155.523437v-22.375c0-2.863281-1.628907-5.476562-4.199219-6.734375-2.570312-1.261718-5.632812-.945312-7.894531.804688l-82.5 63.9375c-1.976563 1.53125-3.058594 3.945312-2.890625 6.4375.171875 2.492187 1.566406 4.734375 3.730468 5.984375l.699219.40625c1.140625.65625 2.433594 1.003906 3.75 1.003906h244.824219c4.144531 0 7.5-3.355469 7.5-7.5v-34.464844c.003906-4.140625-3.355469-7.5-7.496094-7.5zm0 0" fill="#4890e3"/><path d="m258.984375 83.976562c-53.65625 0-97.3125 43.652344-97.3125 97.3125 0 53.660157 43.652344 97.3125 97.3125 97.3125s97.3125-43.652343 97.3125-97.3125c0-53.65625-43.652344-97.3125-97.3125-97.3125zm0 0" fill="#f9cd45"/><path d="m258.984375 83.976562c-4.0625 0-8.066406.253907-12 .738282 48.019531 5.933594 85.3125 46.980468 85.3125 96.574218 0 49.597657-37.292969 90.640626-85.3125 96.574219 3.933594.484375 7.9375.738281 12 .738281 53.660156 0 97.3125-43.652343 97.3125-97.3125 0-53.65625-43.652344-97.3125-97.3125-97.3125zm0 0" fill="#f8c03c"/><path d="m254.9375 219.519531c-12.816406-.429687-23.285156-7.050781-23.285156-13.886719 0-3.632812 3.203125-8.972656 7.261718-8.972656 4.488282 0 8.117188 6.300782 16.023438 7.691406v-17.304687c-9.828125-3.738281-21.363281-8.332031-21.363281-22.003906 0-13.566407 10.039062-20.082031 21.363281-21.683594v-2.988281c0-1.496094 1.707031-2.886719 4.058594-2.886719 2.027344 0 4.058594 1.390625 4.058594 2.886719v2.667968c6.621093.214844 19.121093 1.921876 19.121093 9.292969 0 2.882813-1.921875 8.757813-6.625 8.757813-3.523437 0-5.554687-3.417969-12.496093-3.953125v15.597656c9.71875 3.628906 21.042968 8.648437 21.042968 23.070313 0 13.242187-8.546875 21.253906-21.042968 23.285156v3.097656c0 1.496094-2.027344 2.882812-4.058594 2.882812-2.351563 0-4.058594-1.386718-4.058594-2.882812zm1.066406-49.347656v-12.710937c-4.804687.960937-6.835937 3.417968-6.835937 5.980468 0 3.097656 2.777343 5.019532 6.835937 6.730469zm5.980469 19.757813v14.316406c3.632813-.855469 6.515625-2.886719 6.515625-6.730469 0-3.523437-2.667969-5.769531-6.515625-7.585937zm0 0" fill="#fff4f1"/></svg>