<svg id="Filled_outline" height="512" viewBox="0 0 64 64" width="512" xmlns="http://www.w3.org/2000/svg" data-name="Filled outline"><path d="m39 45h4a1 1 0 0 1 1 1v4a1 1 0 0 1 -1 1h-4z" fill="#7c7c7c"/><path d="m40 22h3a1 1 0 0 0 1-1v-4.5a8.5 8.5 0 0 1 8.5-8.5 8.5 8.5 0 0 1 8.5 8.5v23a2.5 2.5 0 0 1 -2.5 2.5 2.5 2.5 0 0 1 -2.5-2.5v-23a3.5 3.5 0 0 0 -3.5-3.5 3.5 3.5 0 0 0 -3.5 3.5v6.5a4 4 0 0 1 -4 4h-5z" fill="#7c7c7c"/><path d="m22 61h6a12 12 0 0 0 12-12v-29a8 8 0 0 0 -8-8h-8a2 2 0 0 0 -2 2z" fill="#e65d52"/><path d="m22 61h-3a12 12 0 0 1 -12-12v-29a8 8 0 0 1 8-8h5a2 2 0 0 1 2 2z" fill="#ff675b"/><rect fill="#efefef" height="10" rx="1" width="6" x="19" y="22"/><path d="m29 3h2a2 2 0 0 1 2 2v7a0 0 0 0 1 0 0h-6a0 0 0 0 1 0 0v-7a2 2 0 0 1 2-2z" fill="#cc5249"/><path d="m7 43h-2a2 2 0 0 1 -2-2v-9a2 2 0 0 1 2-2h2z" fill="#7c7c7c"/><path d="m16 36h12a2 2 0 0 1 2 2v11a4 4 0 0 1 -4 4h-8a4 4 0 0 1 -4-4v-11a2 2 0 0 1 2-2z" fill="#efefef"/><path d="m52.5 7a9.51081 9.51081 0 0 0 -9.5 9.5v4.5h-2v-1a9.01023 9.01023 0 0 0 -7-8.76825v-6.23175a3.00328 3.00328 0 0 0 -3-3h-2a3.00328 3.00328 0 0 0 -3 3v6h-2a2.97711 2.97711 0 0 0 -2 .78027 2.97711 2.97711 0 0 0 -2-.78027h-5a9.01016 9.01016 0 0 0 -9 9v9h-1a3.00328 3.00328 0 0 0 -3 3v9a3.00328 3.00328 0 0 0 3 3h1v5a13.01474 13.01474 0 0 0 13 13h9a13.01292 13.01292 0 0 0 12.6366-10h2.3634a2.00229 2.00229 0 0 0 2-2v-1h4.02557a4.95129 4.95129 0 0 0 -1.02557 3v5h2v-5a3.00328 3.00328 0 0 1 3-3h1.5a5.00588 5.00588 0 0 0 5-5v-1.16321a3.49364 3.49364 0 0 0 2.5-3.33679v-23a9.51081 9.51081 0 0 0 -9.5-9.5zm-24.5-2a1.001 1.001 0 0 1 1-1h2a1.001 1.001 0 0 1 1 1v6h-4zm-4 22h-2v2h2v2h-4l-.001-8h4.001zm-19 15a1.001 1.001 0 0 1 -1-1v-9a1.001 1.001 0 0 1 1-1h1v11zm14 18a11.01245 11.01245 0 0 1 -11-11v-29a7.00818 7.00818 0 0 1 7-7h5a1.001 1.001 0 0 1 1 1v7h-1a2.00229 2.00229 0 0 0 -2 2v8a2.00229 2.00229 0 0 0 2 2h1v2h-5a3.00328 3.00328 0 0 0 -3 3v11a5.00588 5.00588 0 0 0 5 5h3v6zm-1-8a3.00328 3.00328 0 0 1 -3-3v-11a1.001 1.001 0 0 1 1-1h12a1.001 1.001 0 0 1 1 1v11a3.00328 3.00328 0 0 1 -3 3zm21-3a11.01245 11.01245 0 0 1 -11 11h-5v-6h3a5.00588 5.00588 0 0 0 5-5v-11a3.00328 3.00328 0 0 0 -3-3h-5v-2h1a2.00229 2.00229 0 0 0 2-2v-8a2.00229 2.00229 0 0 0 -2-2h-1v-7a1.001 1.001 0 0 1 1-1h8a7.00818 7.00818 0 0 1 7 7zm4 1h-2.05066c.02539-.33112.05066-.66248.05066-1v-3h2zm11.5-3h-9.5v-1a2.00229 2.00229 0 0 0 -2-2h-2v-16h4a5.00588 5.00588 0 0 0 5-5v-6.5a2.5 2.5 0 0 1 5 0v23a3.49364 3.49364 0 0 0 2.5 3.33679v1.16321a3.00328 3.00328 0 0 1 -3 3zm5.5-7.5a1.5 1.5 0 0 1 -3 0v-23a4.5 4.5 0 0 0 -9 0v6.5a3.00328 3.00328 0 0 1 -3 3h-4v-3h2a2.00229 2.00229 0 0 0 2-2v-4.5a7.5 7.5 0 0 1 15 0z"/></svg>