<svg height="511pt" viewBox="-70 0 511 511.997" width="511pt" xmlns="http://www.w3.org/2000/svg"><path d="m70.96875 10h-60.46875s28.246094 9.015625 28.246094 28.222656v91.21875c0 19.210938-28.246094 28.226563-28.246094 28.226563s28.246094 9.015625 28.246094 28.222656v139.617187c0 19.207032-28.246094 28.824219-28.246094 28.824219s28.246094 8.414063 28.246094 27.621094v91.824219c0 19.207031-28.246094 28.222656-28.246094 28.222656h350.621094s-28.25-9.015625-28.25-28.222656v-90.617188c0-20.027344 28.25-28.828125 28.25-28.828125s-28.25-9.617187-28.25-28.824219v-139.617187c0-19.207031 28.25-28.222656 28.25-28.222656s-28.25-9.015625-28.25-28.226563v-91.21875c0-19.207031 28.25-28.222656 28.25-28.222656h-191.863282" fill="#8690a6"/><path d="m284.386719 256c0 54.308594-44.023438 98.332031-98.332031 98.332031-54.308594 0-98.332032-44.023437-98.332032-98.332031s44.023438-98.332031 98.332032-98.332031c54.308593 0 98.332031 44.023437 98.332031 98.332031zm0 0" fill="#e5ecec"/><path d="m185.105469 200.632812-26.535157 68.417969c-7.492187 19.316407 6.761719 40.132813 27.484376 40.132813 21.019531 0 35.285156-21.375 27.21875-40.789063zm0 0" fill="#cbe558"/><path d="m342.871094 383.160156c0-10.199218 15.664062-17.5 21.183594-19.265625 3.964843-1.21875 6.847656-4.921875 7.054687-9.066406.214844-4.394531-2.585937-8.511719-6.742187-9.953125-5.574219-1.933594-21.496094-9.640625-21.496094-19.367188v-139.617187c0-9.523437 15.507812-16.773437 21.136718-18.644531 4.113282-1.238282 7.023438-5.121094 7.105469-9.40625.082031-4.355469-2.808593-8.371094-6.953125-9.695313-4.496094-1.4375-21.289062-8.816406-21.289062-18.699219v-91.21875c0-9.609374 15.785156-16.90625 21.289062-18.699218 4.695313-1.496094 7.597656-6.191406 6.839844-11.0625-.757812-4.875-4.953125-8.464844-9.878906-8.464844h-196.753906c-2.753907 0-5.390626 1.136719-7.28125 3.144531-1.886719 2.007813-2.867188 4.703125-2.699219 7.453125 0 .023438 0 .050782.003906.078125.324219 5.421875 4.921875 9.589844 10.382813 9.390625.277343-.011718.550781-.03125.820312-.066406h163.546875c-3.789063 5.144531-6.269531 11.222656-6.269531 18.226562v91.21875c0 7.007813 2.488281 13.082032 6.28125 18.226563l-59.082032-.003906-83.90625.003906c-.039062 0-.074218-.003906-.109374-.003906-.050782 0-.101563.003906-.152344.003906h-143.4375c3.792968-5.144531 6.28125-11.21875 6.28125-18.226563v-71.574218h243.570312c5.523438 0 10-4.476563 10-10 0-5.519532-4.476562-10-10-10h-243.578125c-.082031-6.855469-2.535156-12.816406-6.257812-17.871094h30.5625c.53125.066406 1.074219.085938 1.628906.066406 5.417969-.21875 9.660156-4.710937 9.597656-10.097656 0-.125 0-.257812-.007812-.367188-.210938-5.363281-4.625-9.601562-9.988281-9.601562h-63.773438c-4.929688 0-9.125 3.589844-9.882812 8.460938-.757813 4.871093 2.144531 9.566406 6.839843 11.066406 4.5 1.433594 21.289063 8.8125 21.289063 18.695312v91.21875c0 9.609375-15.785156 16.90625-21.289063 18.699219-4.132812 1.320313-7.035156 5.335937-6.953125 9.6875.078125 4.292969 2.984375 8.171875 7.105469 9.414063 4.691406 1.539062 21.136719 8.867187 21.136719 18.648437v139.617187c0 9.726563-15.917969 17.433594-21.46875 19.359376-4.042969 1.375-6.769532 5.273437-6.773438 9.519531-.003906 4.335937 2.988282 8.300781 7.140625 9.527343 4.457031 1.328126 21.101563 8.28125 21.101563 18.039063v91.820313c0 9.605468-15.785156 16.90625-21.289063 18.699218-4.695312 1.496094-7.597656 6.191406-6.839843 11.0625.757812 4.871094 4.953124 8.460938 9.882812 8.460938h350.621094c4.925781 0 9.121094-3.589844 9.878906-8.460938s-2.144531-9.566406-6.839844-11.0625c-4.496094-1.4375-21.289062-8.816406-21.289062-18.699218zm-13.726563-215.488281c-3.789062 5.140625-6.273437 11.214844-6.273437 18.21875v139.617187c0 7.410157 2.722656 13.660157 6.644531 18.824219h-80.765625c14.632812-10.398437 26.488281-24.25 34.460938-40.375 2.449218-4.953125.417968-10.949219-4.53125-13.398437-4.949219-2.449219-10.949219-.417969-13.394532 4.53125-15.019531 30.375-45.378906 49.242187-79.230468 49.242187-48.707032 0-88.332032-39.625-88.332032-88.332031s39.625-88.332031 88.332032-88.332031c33.390624 0 63.5625 18.492187 78.746093 48.265625 2.507813 4.917968 8.527344 6.875 13.449219 4.367187 4.921875-2.511719 6.875-8.53125 4.367188-13.453125-8.128907-15.941406-19.769532-29.246094-33.710938-39.179687zm-251.421875 88.328125c0 36.410156 18.054688 68.679688 45.679688 88.332031h-81.300782c3.921876-5.164062 6.644532-11.410156 6.644532-18.824219v-139.617187c0-7.003906-2.484375-13.078125-6.273438-18.21875l80.925782-.003906c-27.621094 19.652343-45.675782 51.925781-45.675782 88.332031zm-35.242187 236c3.789062-5.140625 6.265625-11.21875 6.265625-18.222656v-91.824219c0-6.785156-2.320313-12.648437-5.890625-17.621094h286.386719c-3.84375 5.269531-6.371094 11.539063-6.371094 18.828125v70.96875h-238.148438c-5.523437 0-10 4.476563-10 10 0 5.519532 4.476563 10 10 10h238.15625c.082032 6.855469 2.535156 12.816406 6.261719 17.871094zm0 0"/><path d="m118.839844 20.339844c4.175781 0 7.984375-2.6875 9.402344-6.609375 1.417968-3.921875.175781-8.476563-3.058594-11.117188-3.332032-2.722656-8.140625-2.988281-11.757813-.671875-3.492187 2.238282-5.253906 6.539063-4.34375 10.585938 1.015625 4.503906 5.132813 7.8125 9.757813 7.8125zm0 0"/><path d="m280.5625 246.769531c-3.917969 1.632813-6.417969 5.644531-6.152344 9.882813.265625 4.226562 3.304688 7.898437 7.382813 8.996094 4.023437 1.085937 8.457031-.523438 10.816406-3.960938 2.367187-3.457031 2.332031-8.089844-.09375-11.507812-2.652344-3.734376-7.742187-5.167969-11.953125-3.410157zm0 0"/><path d="m194.339844 196.792969c-1.550782-3.734375-5.195313-6.160157-9.234375-6.160157-.039063 0-.078125 0-.121094 0-4.082031.046876-7.726563 2.574219-9.203125 6.382813l-26.53125 68.417969c-4.714844 12.152344-3.132812 25.824218 4.230469 36.578125 7.363281 10.753906 19.539062 17.171875 32.570312 17.171875 13.222657 0 25.5-6.566406 32.835938-17.5625 7.339843-11 8.691406-24.851563 3.617187-37.0625zm7.914062 93.726562c-3.675781 5.507813-9.582031 8.664063-16.199218 8.664063-6.527344 0-12.382813-3.085938-16.070313-8.472656-3.6875-5.382813-4.449219-11.960938-2.089844-18.046876l17.53125-45.203124 18.613281 44.769531c2.539063 6.117187 1.890626 12.78125-1.785156 18.289062zm0 0"/></svg>