<?xml version="1.0" encoding="iso-8859-1"?>
<!-- Generator: Adobe Illustrator 19.0.0, SVG Export Plug-In . SVG Version: 6.00 Build 0)  -->
<svg version="1.1" id="Layer_1" xmlns="http://www.w3.org/2000/svg" xmlns:xlink="http://www.w3.org/1999/xlink" x="0px" y="0px"
	 viewBox="0 0 512 512" style="enable-background:new 0 0 512 512;" xml:space="preserve">
<rect x="100.612" y="258.76" transform="matrix(-0.7071 0.7071 -0.7071 -0.7071 526.1503 390.285)" style="fill:#73C9C9;" width="163.266" height="90.703"/>
<path style="fill:#E65F58;" d="M425.962,111.691l-25.657-25.657l-60.917,60.918c-2.617,2.609-6.55,3.384-9.947,1.94
	c-23.96-10.138-51.322-4.805-69.698,13.566l-39.025,39.025l70.554,70.555c3.543,3.543,3.543,9.283,0,12.826L162.997,413.138
	c-1.771,1.771-4.092,2.657-6.413,2.657s-4.642-0.886-6.413-2.657l-70.553-70.553l-57.722,57.722l89.792,89.792l237.85-237.846
	c18.398-18.402,23.73-45.764,13.579-69.707c-1.439-3.401-0.673-7.339,1.94-9.952L425.962,111.691z"/>
<rect x="415.331" y="42.254" transform="matrix(-0.7071 0.7071 -0.7071 -0.7071 813.6536 -216.2375)" style="fill:#D8D8D8;" width="72.56" height="36.281"/>
<path style="fill:#314E55;" d="M509.343,41.145L470.86,2.662c-3.543-3.543-9.283-3.543-12.826,0l-64.126,64.122
	c-0.004,0.005-0.009,0.005-0.009,0.005l-63.196,63.192c-29.337-9.907-61.637-2.498-83.786,19.651L2.657,393.894
	c-3.543,3.543-3.543,9.283,0,12.826l102.618,102.618c1.771,1.771,4.092,2.657,6.413,2.657s4.642-0.886,6.413-2.657l244.263-244.259
	c22.18-22.18,29.585-54.489,19.669-83.804l63.156-63.161c0.004-0.005,0.01-0.005,0.01-0.005l64.143-64.14
	c1.701-1.701,2.657-4.008,2.657-6.413C512,45.153,511.043,42.846,509.343,41.145z M207.893,214.311l64.14,64.14L156.584,393.899
	l-64.14-64.14L207.893,214.311z M363.118,182.547c10.151,23.943,4.819,51.305-13.579,69.707l-237.85,237.846l-89.792-89.792
	l57.721-57.722l70.553,70.553c1.771,1.771,4.092,2.657,6.413,2.657s4.642-0.886,6.413-2.657l128.275-128.275
	c3.543-3.543,3.543-9.283,0-12.826l-70.554-70.555l39.025-39.025c18.376-18.371,45.737-23.703,69.698-13.566
	c3.397,1.444,7.33,0.669,9.947-1.94l60.918-60.918l25.657,25.657l-60.904,60.904C362.444,175.208,361.678,179.145,363.118,182.547z
	 M438.792,98.865l-25.657-25.657l51.311-51.307l25.657,25.657L438.792,98.865z"/>
<g>
</g>
<g>
</g>
<g>
</g>
<g>
</g>
<g>
</g>
<g>
</g>
<g>
</g>
<g>
</g>
<g>
</g>
<g>
</g>
<g>
</g>
<g>
</g>
<g>
</g>
<g>
</g>
<g>
</g>
</svg>
