<svg height="464pt" viewBox="-44 0 464 464" width="464pt" xmlns="http://www.w3.org/2000/svg"><path d="m8 56h352v360c0 26.507812-21.492188 48-48 48h-256c-26.507812 0-48-21.492188-48-48zm0 0" fill="#fff69a"/><path d="m240 304c31.273438 2.929688 62.542969-5.601562 88-24-25.199219-11.042969-52.492188-16.5-80-16 40-32 40-88 40-88s-68.800781 24-80 56c11.679688-41.570312 2.660156-86.222656-24.238281-120-26.640625 33.90625-35.472657 78.5-23.761719 120-19.199219-40-80-56-80-56s5.945312 56 40 88c-27.507812-.5-54.800781 4.957031-80 16 0 0 25.105469 27.761719 88 24-26.320312 13.152344-48 48-48 48s56 8 80-24v64h48v-64c16 32 80 24 80 24s-21.679688-34.847656-48-48zm0 0" fill="#55b56a"/><path d="m16 0h336c8.835938 0 16 7.164062 16 16v32c0 8.835938-7.164062 16-16 16h-336c-8.835938 0-16-7.164062-16-16v-32c0-8.835938 7.164062-16 16-16zm0 0" fill="#e97424"/><path d="m296 440h-16c-4.417969 0-8-3.582031-8-8s3.582031-8 8-8h16c4.417969 0 8 3.582031 8 8s-3.582031 8-8 8zm0 0" fill="#e97424"/><path d="m368 40h-280c-4.417969 0-8-3.582031-8-8s3.582031-8 8-8h280c4.417969 0 8 3.582031 8 8s-3.582031 8-8 8zm0 0" fill="#fff69a"/><path d="m56 40h-24c-4.417969 0-8-3.582031-8-8s3.582031-8 8-8h24c4.417969 0 8 3.582031 8 8s-3.582031 8-8 8zm0 0" fill="#fff69a"/><g fill="#e97424"><path d="m248 440h-16c-4.417969 0-8-3.582031-8-8s3.582031-8 8-8h16c4.417969 0 8 3.582031 8 8s-3.582031 8-8 8zm0 0"/><path d="m56 104h-16c-4.417969 0-8-3.582031-8-8s3.582031-8 8-8h16c4.417969 0 8 3.582031 8 8s-3.582031 8-8 8zm0 0"/><path d="m104 104h-16c-4.417969 0-8-3.582031-8-8s3.582031-8 8-8h16c4.417969 0 8 3.582031 8 8s-3.582031 8-8 8zm0 0"/><path d="m96 440h-40c-4.417969 0-8-3.582031-8-8s3.582031-8 8-8h40c4.417969 0 8 3.582031 8 8s-3.582031 8-8 8zm0 0"/><path d="m144 440h-16c-4.417969 0-8-3.582031-8-8s3.582031-8 8-8h16c4.417969 0 8 3.582031 8 8s-3.582031 8-8 8zm0 0"/></g></svg>