<svg id="Layer_1" enable-background="new 0 0 64 64" height="512" viewBox="0 0 64 64" width="512" xmlns="http://www.w3.org/2000/svg"><circle cx="26.5" cy="16.5" fill="#f0f0e6" r="4"/><circle cx="19.5" cy="21.5" fill="#aad2ff" r="4"/><path d="m19.5 19.5c1.862 0 3.412 1.278 3.859 3 .083-.321.141-.653.141-1 0-2.209-1.791-4-4-4s-4 1.791-4 4c0 .347.058.679.141 1 .447-1.722 1.997-3 3.859-3z" fill="#bee6ff"/><path d="m26.5 14.5c1.862 0 3.412 1.278 3.859 3 .083-.321.141-.653.141-1 0-2.209-1.791-4-4-4s-4 1.791-4 4c0 .347.058.679.141 1 .447-1.722 1.997-3 3.859-3z" fill="#fffffa"/><path d="m19.5 26c-2.481 0-4.5-2.019-4.5-4.5s2.019-4.5 4.5-4.5 4.5 2.019 4.5 4.5-2.019 4.5-4.5 4.5zm0-8c-1.93 0-3.5 1.57-3.5 3.5s1.57 3.5 3.5 3.5 3.5-1.57 3.5-3.5-1.57-3.5-3.5-3.5z" fill="#785ae6"/><circle cx="33.5" cy="12.5" fill="#aad2ff" r="4"/><path d="m33.5 10.5c1.862 0 3.412 1.278 3.859 3 .083-.321.141-.653.141-1 0-2.209-1.791-4-4-4s-4 1.791-4 4c0 .347.058.679.141 1 .447-1.722 1.997-3 3.859-3z" fill="#bee6ff"/><circle cx="29.784" cy="53.284" fill="#968cd2" r="2.216"/><path d="m29.784 53.5c-.862 0-1.601-.497-1.967-1.216-.154.302-.249.638-.249 1 0 1.224.992 2.216 2.216 2.216s2.216-.992 2.216-2.216c0-.362-.095-.698-.249-1-.366.719-1.105 1.216-1.967 1.216z" fill="#8d7bd4"/><path d="m31.5 46.5h8v8h-8z" fill="#e678a0" transform="matrix(.866 -.5 .5 .866 -20.494 24.516)"/><path d="m34.036 53.964-3.134-5.428-.866.5 4 6.928 6.928-4-.866-1.5z" fill="#d2648c"/><g fill="#785ae6"><path d="m26.5 21c-2.481 0-4.5-2.019-4.5-4.5s2.019-4.5 4.5-4.5 4.5 2.019 4.5 4.5-2.019 4.5-4.5 4.5zm0-8c-1.93 0-3.5 1.57-3.5 3.5s1.57 3.5 3.5 3.5 3.5-1.57 3.5-3.5-1.57-3.5-3.5-3.5z"/><path d="m33.5 17c-2.481 0-4.5-2.019-4.5-4.5s2.019-4.5 4.5-4.5 4.5 2.019 4.5 4.5-2.019 4.5-4.5 4.5zm0-8c-1.93 0-3.5 1.57-3.5 3.5s1.57 3.5 3.5 3.5 3.5-1.57 3.5-3.5-1.57-3.5-3.5-3.5z"/><path d="m29.784 56c-1.498 0-2.716-1.218-2.716-2.716s1.218-2.716 2.716-2.716 2.716 1.218 2.716 2.716-1.218 2.716-2.716 2.716zm0-4.432c-.946 0-1.716.77-1.716 1.716s.77 1.716 1.716 1.716 1.716-.77 1.716-1.716-.77-1.716-1.716-1.716z"/><path d="m34.036 56.464c-.172 0-.341-.089-.433-.25l-4-6.928c-.138-.239-.056-.545.183-.683l6.928-4c.238-.138.545-.058.683.183l4 6.928c.139.239.057.545-.183.683l-6.928 4c-.079.045-.165.067-.25.067zm-3.317-7.245 3.5 6.062 6.062-3.5-3.5-6.062z"/></g><path d="m38.948 41.626h8v8h-8z" fill="#e678a0" transform="matrix(.792 -.61 .61 .792 -18.921 35.701)"/><path d="m42.221 49.236-3.916-5.082-.967.745 4.883 6.337 6.337-4.884-.967-1.254z" fill="#d2648c"/><path d="m42.221 51.735c-.149 0-.298-.067-.396-.195l-4.883-6.336c-.168-.219-.127-.533.091-.701l6.337-4.883c.106-.082.239-.114.37-.1.131.017.251.086.332.191l4.883 6.337c.168.219.127.533-.091.701l-6.337 4.883c-.092.07-.2.103-.306.103zm-4.182-6.745 4.272 5.544 5.545-4.272-4.272-5.545z" fill="#785ae6"/><path d="m45.5 35.5h8v8h-8z" fill="#e678a0" transform="matrix(.707 -.707 .707 .707 -13.433 46.571)"/><path d="m49.5 43.157-4.657-4.657-1 1 5.657 5.657 5.657-5.657-1-1z" fill="#d2648c"/><path d="m49.5 45.657c-.128 0-.256-.049-.354-.146l-5.657-5.657c-.094-.094-.146-.221-.146-.354s.053-.26.146-.354l5.657-5.657c.195-.195.512-.195.707 0l5.657 5.657c.094.094.146.221.146.354s-.053.26-.146.354l-5.657 5.657c-.097.097-.225.146-.353.146zm-4.95-6.157 4.95 4.95 4.95-4.95-4.95-4.95z" fill="#785ae6"/><circle cx="40.5" cy="9.5" fill="#f0f0e6" r="4"/><path d="m40.5 7.5c1.862 0 3.412 1.278 3.859 3 .083-.321.141-.653.141-1 0-2.209-1.791-4-4-4s-4 1.791-4 4c0 .347.058.679.141 1 .447-1.722 1.997-3 3.859-3z" fill="#fffffa"/><path d="m40.5 14c-2.481 0-4.5-2.019-4.5-4.5s2.019-4.5 4.5-4.5 4.5 2.019 4.5 4.5-2.019 4.5-4.5 4.5zm0-8c-1.93 0-3.5 1.57-3.5 3.5s1.57 3.5 3.5 3.5 3.5-1.57 3.5-3.5-1.57-3.5-3.5-3.5z" fill="#785ae6"/><circle cx="46.5" cy="8.5" fill="#aad2ff" r="4"/><path d="m46.5 6.5c1.862 0 3.412 1.278 3.859 3 .083-.321.141-.653.141-1 0-2.209-1.791-4-4-4s-4 1.791-4 4c0 .347.058.679.141 1 .447-1.722 1.997-3 3.859-3z" fill="#bee6ff"/><path d="m46.499 13c-1.385 0-2.669-.622-3.53-1.71-.171-.217-.134-.531.082-.702.216-.17.531-.136.703.082.67.847 1.669 1.33 2.745 1.33h.039c1.929-.021 3.482-1.608 3.462-3.538-.021-1.929-1.633-3.504-3.538-3.462-1.929.021-3.483 1.608-3.462 3.538.003.276-.219.502-.495.505-.001 0-.003 0-.005 0-.273 0-.497-.22-.5-.495-.026-2.481 1.971-4.521 4.451-4.548h.049c2.459 0 4.473 1.987 4.5 4.452.026 2.481-1.971 4.521-4.451 4.548-.017 0-.033 0-.05 0z" fill="#785ae6"/><circle cx="53.5" cy="9.5" fill="#f0f0e6" r="4"/><path d="m53.5 7.5c1.862 0 3.412 1.278 3.859 3 .083-.321.141-.653.141-1 0-2.209-1.791-4-4-4s-4 1.791-4 4c0 .347.058.679.141 1 .447-1.722 1.997-3 3.859-3z" fill="#fffffa"/><path d="m53.5 14c-2.481 0-4.5-2.019-4.5-4.5s2.019-4.5 4.5-4.5 4.5 2.019 4.5 4.5-2.019 4.5-4.5 4.5zm0-8c-1.93 0-3.5 1.57-3.5 3.5s1.57 3.5 3.5 3.5 3.5-1.57 3.5-3.5-1.57-3.5-3.5-3.5z" fill="#785ae6"/><circle cx="57.5" cy="12.5" fill="#aad2ff" r="4"/><path d="m57.5 10.5c1.862 0 3.412 1.278 3.859 3 .083-.321.141-.653.141-1 0-2.209-1.791-4-4-4s-4 1.791-4 4c0 .347.058.679.141 1 .447-1.722 1.997-3 3.859-3z" fill="#bee6ff"/><path d="m57.5 17c-2.481 0-4.5-2.019-4.5-4.5 0-.276.224-.5.5-.5s.5.224.5.5c0 1.93 1.57 3.5 3.5 3.5s3.5-1.57 3.5-3.5-1.57-3.5-3.5-3.5c-.716 0-1.404.214-1.989.62-.226.157-.538.101-.696-.126-.157-.227-.101-.539.126-.696.753-.522 1.638-.798 2.559-.798 2.481 0 4.5 2.019 4.5 4.5s-2.019 4.5-4.5 4.5z" fill="#785ae6"/><circle cx="58.5" cy="17.5" fill="#f0f0e6" r="4"/><path d="m58.5 15.5c1.862 0 3.412 1.278 3.859 3 .083-.321.141-.653.141-1 0-2.209-1.791-4-4-4s-4 1.791-4 4c0 .347.058.679.141 1 .447-1.722 1.997-3 3.859-3z" fill="#fffffa"/><path d="m58.5 22c-2.481 0-4.5-2.019-4.5-4.5s2.019-4.5 4.5-4.5 4.5 2.019 4.5 4.5-2.019 4.5-4.5 4.5zm0-8c-1.93 0-3.5 1.57-3.5 3.5s1.57 3.5 3.5 3.5 3.5-1.57 3.5-3.5-1.57-3.5-3.5-3.5z" fill="#785ae6"/><circle cx="58.5" cy="23.07" fill="#aad2ff" r="4"/><path d="m58.5 21.07c1.862 0 3.412 1.278 3.859 3 .083-.321.141-.653.141-1 0-2.209-1.791-4-4-4s-4 1.791-4 4c0 .347.058.679.141 1 .447-1.722 1.997-3 3.859-3z" fill="#bee6ff"/><path d="m58.5 27.57c-2.481 0-4.5-2.019-4.5-4.5s2.019-4.5 4.5-4.5 4.5 2.019 4.5 4.5-2.019 4.5-4.5 4.5zm0-8c-1.93 0-3.5 1.57-3.5 3.5s1.57 3.5 3.5 3.5 3.5-1.57 3.5-3.5-1.57-3.5-3.5-3.5z" fill="#785ae6"/><circle cx="56.5" cy="30.471" fill="#f0f0e6" r="4"/><path d="m56.5 28.471c1.862 0 3.412 1.278 3.859 3 .083-.321.141-.653.141-1 0-2.209-1.791-4-4-4s-4 1.791-4 4c0 .347.058.679.141 1 .447-1.722 1.997-3 3.859-3z" fill="#fffffa"/><path d="m56.5 34.971c-2.481 0-4.5-2.019-4.5-4.5s2.019-4.5 4.5-4.5 4.5 2.019 4.5 4.5-2.019 4.5-4.5 4.5zm0-8c-1.93 0-3.5 1.57-3.5 3.5s1.57 3.5 3.5 3.5 3.5-1.57 3.5-3.5-1.57-3.5-3.5-3.5z" fill="#785ae6"/><circle cx="53.781" cy="34.471" fill="#f0f0e6" r="2.216"/><circle cx="53.781" cy="34.471" fill="#968cd2" r="2.216"/><path d="m53.781 34.687c-.862 0-1.601-.497-1.967-1.216-.154.302-.249.638-.249 1 0 1.224.992 2.216 2.216 2.216s2.216-.992 2.216-2.216c0-.362-.095-.698-.249-1-.366.719-1.105 1.216-1.967 1.216z" fill="#8d7bd4"/><path d="m53.781 37.187c-1.497 0-2.716-1.218-2.716-2.716s1.219-2.716 2.716-2.716 2.716 1.218 2.716 2.716-1.219 2.716-2.716 2.716zm0-4.432c-.946 0-1.716.77-1.716 1.716s.77 1.716 1.716 1.716 1.716-.77 1.716-1.716-.769-1.716-1.716-1.716z" fill="#785ae6"/><circle cx="13.989" cy="27.5" fill="#f0f0e6" r="4"/><path d="m13.989 25.5c1.862 0 3.412 1.278 3.859 3 .083-.321.141-.653.141-1 0-2.209-1.791-4-4-4s-4 1.791-4 4c0 .347.058.679.141 1 .446-1.722 1.997-3 3.859-3z" fill="#fffffa"/><path d="m13.989 32c-2.481 0-4.5-2.019-4.5-4.5s2.019-4.5 4.5-4.5 4.5 2.019 4.5 4.5-2.019 4.5-4.5 4.5zm0-8c-1.93 0-3.5 1.57-3.5 3.5s1.57 3.5 3.5 3.5 3.5-1.57 3.5-3.5-1.571-3.5-3.5-3.5z" fill="#785ae6"/><circle cx="9.5" cy="33.5" fill="#aad2ff" r="4"/><path d="m9.5 31.5c1.862 0 3.412 1.278 3.859 3 .083-.321.141-.653.141-1 0-2.209-1.791-4-4-4s-4 1.791-4 4c0 .347.058.679.141 1 .447-1.722 1.997-3 3.859-3z" fill="#bee6ff"/><path d="m9.5 38c-2.481 0-4.5-2.019-4.5-4.5s2.019-4.5 4.5-4.5 4.5 2.019 4.5 4.5-2.019 4.5-4.5 4.5zm0-8c-1.93 0-3.5 1.57-3.5 3.5s1.57 3.5 3.5 3.5 3.5-1.57 3.5-3.5-1.57-3.5-3.5-3.5z" fill="#785ae6"/><circle cx="6.5" cy="40.5" fill="#f0f0e6" r="4"/><path d="m6.5 38.5c1.862 0 3.412 1.278 3.859 3 .083-.321.141-.653.141-1 0-2.209-1.791-4-4-4s-4 1.791-4 4c0 .347.058.679.141 1 .447-1.722 1.997-3 3.859-3z" fill="#fffffa"/><path d="m6.5 45c-2.481 0-4.5-2.019-4.5-4.5s2.019-4.5 4.5-4.5 4.5 2.019 4.5 4.5-2.019 4.5-4.5 4.5zm0-8c-1.93 0-3.5 1.57-3.5 3.5s1.57 3.5 3.5 3.5 3.5-1.57 3.5-3.5-1.57-3.5-3.5-3.5z" fill="#785ae6"/><circle cx="5.5" cy="46.5" fill="#aad2ff" r="4"/><path d="m5.5 51c-2.481 0-4.5-2.019-4.5-4.5s2.019-4.5 4.5-4.5 4.5 2.019 4.5 4.5-2.019 4.5-4.5 4.5zm0-8c-1.93 0-3.5 1.57-3.5 3.5s1.57 3.5 3.5 3.5 3.5-1.57 3.5-3.5-1.57-3.5-3.5-3.5z" fill="#785ae6"/><circle cx="5.5" cy="52.5" fill="#f0f0e6" r="4"/><path d="m5.5 54.5c-1.862 0-3.412-1.278-3.859-3-.083.321-.141.653-.141 1 0 2.209 1.791 4 4 4s4-1.791 4-4c0-.347-.058-.679-.141-1-.447 1.722-1.997 3-3.859 3z" fill="#dcdcdc"/><path d="m5.5 57c-2.481 0-4.5-2.019-4.5-4.5 0-2.013 1.353-3.796 3.29-4.335.267-.074.542.082.616.347.074.266-.081.542-.347.616-1.507.42-2.559 1.806-2.559 3.372 0 1.93 1.57 3.5 3.5 3.5s3.5-1.57 3.5-3.5c0-1.41-.839-2.676-2.138-3.225-.254-.107-.373-.401-.266-.655.108-.254.401-.374.655-.266 1.67.706 2.749 2.333 2.749 4.146 0 2.481-2.019 4.5-4.5 4.5z" fill="#785ae6"/><circle cx="9.5" cy="55.5" fill="#aad2ff" r="4"/><path d="m9.5 57.5c-1.862 0-3.412-1.278-3.859-3-.083.321-.141.653-.141 1 0 2.209 1.791 4 4 4s4-1.791 4-4c0-.347-.058-.679-.141-1-.447 1.722-1.997 3-3.859 3z" fill="#96bef0"/><path d="m9.5 60c-2.481 0-4.5-2.019-4.5-4.5 0-.583.11-1.151.328-1.688.104-.257.395-.379.651-.276.256.104.379.395.276.651-.17.417-.255.859-.255 1.313 0 1.93 1.57 3.5 3.5 3.5s3.5-1.57 3.5-3.5-1.57-3.5-3.5-3.5c-.423 0-.836.074-1.228.221-.256.096-.546-.034-.644-.293-.097-.258.034-.546.293-.644.504-.188 1.036-.284 1.579-.284 2.481 0 4.5 2.019 4.5 4.5s-2.019 4.5-4.5 4.5z" fill="#785ae6"/><circle cx="16.099" cy="56.5" fill="#f0f0e6" r="4"/><path d="m16.099 58.5c-1.862 0-3.412-1.278-3.859-3-.083.321-.141.653-.141 1 0 2.209 1.791 4 4 4s4-1.791 4-4c0-.347-.058-.679-.141-1-.446 1.722-1.997 3-3.859 3z" fill="#dcdcdc"/><path d="m16.099 61c-2.481 0-4.5-2.019-4.5-4.5s2.019-4.5 4.5-4.5 4.5 2.019 4.5 4.5-2.018 4.5-4.5 4.5zm0-8c-1.93 0-3.5 1.57-3.5 3.5s1.57 3.5 3.5 3.5 3.5-1.57 3.5-3.5-1.57-3.5-3.5-3.5z" fill="#785ae6"/><circle cx="23.5" cy="55.5" fill="#aad2ff" r="4"/><path d="m23.5 57.5c-1.862 0-3.412-1.278-3.859-3-.083.321-.141.653-.141 1 0 2.209 1.791 4 4 4s4-1.791 4-4c0-.347-.058-.679-.141-1-.447 1.722-1.997 3-3.859 3z" fill="#96bef0"/><path d="m23.5 60c-2.481 0-4.5-2.019-4.5-4.5s2.019-4.5 4.5-4.5 4.5 2.019 4.5 4.5-2.019 4.5-4.5 4.5zm0-8c-1.93 0-3.5 1.57-3.5 3.5s1.57 3.5 3.5 3.5 3.5-1.57 3.5-3.5-1.57-3.5-3.5-3.5z" fill="#785ae6"/></svg>