<svg height="511pt" viewBox="-39 1 511 511.999" width="511pt" xmlns="http://www.w3.org/2000/svg"><path d="m215.992188 287.398438c-59.941407 0-108.535157 48.59375-108.535157 108.53125 0 59.941406 48.59375 108.535156 108.535157 108.535156 59.9375 0 108.53125-48.59375 108.53125-108.535156 0-59.9375-48.589844-108.53125-108.53125-108.53125zm-83.3125 108.628906c0-42.152344 31.304687-76.984375 71.933593-82.535156v84.800781l-51.910156 51.910156c-12.480469-14.566406-20.023437-33.492187-20.023437-54.175781zm38.316406 70.125 45.671875-45.675782 45.136719 45.136719c-13.144532 8.671875-28.886719 13.722657-45.8125 13.722657-16.574219 0-32.019532-4.839844-44.996094-13.183594zm108.902344-16.683594-51.074219-51.074219v-84.695312c39.917969 6.171875 70.476562 40.679687 70.476562 82.328125.003907 20.339844-7.292969 38.976562-19.402343 53.441406zm0 0" fill="#f9cc59"/><path d="m241.375 255.976562c0 14.019532-11.363281 25.382813-25.382812 25.382813-14.019532 0-25.386719-11.363281-25.386719-25.382813 0-14.019531 11.367187-25.386718 25.386719-25.386718 14.019531 0 25.382812 11.367187 25.382812 25.386718zm0 0" fill="#a355ca"/><path d="m229.3125 216.695312c0 7.359376-5.964844 13.324219-13.320312 13.324219-7.359376 0-13.324219-5.964843-13.324219-13.324219 0-7.355468 5.964843-13.320312 13.324219-13.320312 7.355468 0 13.320312 5.964844 13.320312 13.320312zm0 0" fill="#b969dc"/><g fill="#18191b"><path d="m209.570312 307.8125c-1.640624-1.429688-3.820312-2.082031-5.976562-1.789062-44.722656 6.109374-78.449219 44.800781-78.449219 90.003906 0 21.664062 7.753907 42.644531 21.835938 59.078125 1.367187 1.59375 3.335937 2.546875 5.433593 2.628906.097657 0 .195313.003906.289063.003906 1.996094 0 3.914063-.792969 5.328125-2.207031l51.910156-51.910156c1.414063-1.414063 2.210938-3.328125 2.210938-5.328125v-84.800781c-.003906-2.175782-.945313-4.246094-2.582032-5.679688zm-12.492187 87.359375-43.632813 43.628906c-8.578124-12.535156-13.230468-27.449219-13.230468-42.773437 0-34.757813 23.90625-64.902344 56.863281-73.390625zm0 0"/><path d="m317.53125 356.78125c-3.976562 1.222656-6.210938 5.441406-4.988281 9.417969 2.949219 9.59375 4.445312 19.59375 4.445312 29.730469 0 55.691406-45.308593 100.996093-100.996093 100.996093-42.6875 0-80.949219-27.015625-95.214844-67.222656-1.390625-3.921875-5.699219-5.972656-9.621094-4.582031s-5.976562 5.699218-4.582031 9.621094c16.390625 46.210937 60.363281 77.257812 109.417969 77.257812 64 0 116.070312-52.070312 116.070312-116.070312 0-11.640626-1.722656-23.132813-5.113281-34.160157-1.222657-3.976562-5.4375-6.210937-9.417969-4.988281zm0 0"/><path d="m211.339844 415.148438-45.675782 45.675781c-1.609374 1.609375-2.40625 3.863281-2.164062 6.132812.246094 2.265625 1.5 4.300781 3.417969 5.535157 14.632812 9.40625 31.601562 14.382812 49.070312 14.382812 17.84375 0 35.121094-5.175781 49.964844-14.96875 1.890625-1.246094 3.117187-3.277344 3.347656-5.53125.230469-2.25-.566406-4.488281-2.167969-6.089844l-45.136718-45.132812c-2.941406-2.945313-7.714844-2.945313-10.65625-.003906zm38.183594 48.84375c-10.375 5.128906-21.804688 7.808593-33.53125 7.808593-11.375 0-22.492188-2.527343-32.625-7.363281l33.300781-33.304688zm0 0"/><path d="m274.570312 454.796875c1.417969 1.417969 3.332032 2.207031 5.328126 2.207031.109374 0 .222656 0 .332031-.003906 2.113281-.09375 4.089843-1.070312 5.445312-2.691406 13.648438-16.304688 21.164063-37 21.164063-58.28125 0-21.820313-7.851563-42.914063-22.105469-59.398438-14.105469-16.308594-33.554687-27.097656-54.757813-30.378906-2.175781-.335938-4.386718.296875-6.054687 1.726562-1.671875 1.433594-2.632813 3.523438-2.632813 5.722657v84.695312c0 2 .792969 3.917969 2.207032 5.328125zm-38.207031-131.773437c14.257813 3.980468 27.160157 12.121093 36.96875 23.464843 11.886719 13.746094 18.433594 31.339844 18.433594 49.539063 0 14.96875-4.457031 29.597656-12.683594 41.964844l-42.71875-42.71875zm0 0"/><path d="m426.851562 0c-4.160156 0-7.535156 3.375-7.535156 7.535156 0 52.890625-97.507812 133.863282-190.179687 192.984375-3.589844-2.921875-8.164063-4.683593-13.144531-4.683593-4.382813 0-8.445313 1.367187-11.808594 3.683593-92.109375-58.992187-188.613282-139.421875-188.613282-191.984375 0-4.160156-3.371093-7.535156-7.535156-7.535156-4.160156 0-7.535156 3.375-7.535156 7.535156 0 32.78125 28.351562 74.015625 84.265625 122.550782 40.3125 34.996093 84.921875 65.199218 110.925781 81.890624-.351562 1.519532-.558594 3.09375-.558594 4.71875 0 4.203126 1.261719 8.109376 3.402344 11.386719-9.277344 5.828125-15.464844 16.148438-15.464844 27.894531 0 10.390626 4.84375 19.667969 12.390626 25.703126-54.242188 9.722656-95.539063 57.257812-95.539063 114.25 0 1.949218.050781 3.917968.144531 5.84375.203125 4.027343 3.53125 7.160156 7.523438 7.160156.125 0 .253906-.003906.378906-.011719 4.15625-.207031 7.359375-3.742187 7.152344-7.898437-.082032-1.679688-.125-3.390626-.125-5.09375 0-55.6875 45.304687-100.996094 100.996094-100.996094 33.855468 0 65.296874 16.84375 84.101562 45.054687 2.308594 3.464844 6.988281 4.402344 10.453125 2.09375 3.460937-2.308593 4.398437-6.988281 2.089844-10.453125-17.746094-26.621094-45.292969-44.421875-76.125-49.9375 7.550781-6.039062 12.402343-15.320312 12.402343-25.714844 0-11.746093-6.1875-22.066406-15.46875-27.894531 2.148438-3.277343 3.40625-7.183593 3.40625-11.386719 0-1.042968-.101562-2.058593-.25-3.058593 25.609376-16.328125 71.511719-47.152344 113.035157-83.125 56.238281-48.722657 84.753906-90.097657 84.753906-122.976563 0-4.160156-3.375-7.535156-7.539063-7.535156zm-205.074218 216.695312c0 3.191407-2.597656 5.785157-5.785156 5.785157-3.191407 0-5.785157-2.59375-5.785157-5.785157 0-3.191406 2.59375-5.785156 5.785157-5.785156 3.1875 0 5.785156 2.597656 5.785156 5.785156zm-5.785156 57.128907c-9.84375 0-17.847657-8.007813-17.847657-17.847657 0-9.84375 8.003907-17.851562 17.847657-17.851562 9.839843 0 17.847656 8.007812 17.847656 17.851562 0 9.839844-8.007813 17.847657-17.847656 17.847657zm0 0"/></g></svg>