<svg height="512pt" viewBox="-71 0 512 512.0005" width="512pt" xmlns="http://www.w3.org/2000/svg"><path d="m360.078125 269.84375c-13.832031-14.332031-37.171875-14.0625-51.269531 0l-7.511719 7.488281c-6.230469 6.210938-16.878906 1.820313-16.878906-6.96875v-214.558593c0-14.160157-11.582031-26.070313-25.722657-25.800782-13.707031.261719-24.738281 11.449219-24.738281 25.230469v144.328125c0 7.601562-6.160156 13.761719-13.769531 13.761719-3.800781 0-7.242188-1.539063-9.730469-4.03125-2.488281-2.488281-4.03125-5.929688-4.03125-9.730469v-173.769531c0-14.148438-11.570312-26.058594-25.71875-25.78906275-13.699219.26171875-24.738281 11.44921875-24.738281 25.21874975v174.339844c0 7.601562-6.160156 13.761719-13.761719 13.761719-.089843 0-.179687 0-.269531-.011719-3.691406-.058594-7.03125-1.589844-9.460938-4.019531-2.488281-2.488281-4.03125-5.929688-4.03125-9.730469v-144.328125c0-13.941406-11.296874-25.238281-25.226562-25.238281-6.972656 0-13.28125 2.820312-17.839844 7.386718-4.570312 4.570313-7.390625 10.882813-7.390625 17.851563v174.328125c0 7.601562-6.160156 13.761719-13.769531 13.761719-3.800781 0-7.242188-1.539063-9.730469-4.03125-2.492187-2.488281-4.03125-5.929688-4.03125-9.730469v-133.757812c0-14.148438-11.570312-26.058594-25.71875-25.789063-13.699219.257813-24.738281 11.449219-24.738281 25.21875v369.046875c0 26.359375 21.421875 47.71875 47.851562 47.71875h188.71875c26.417969 0 47.847657-21.359375 47.847657-47.71875v-65.75c0-2.621094 1.042969-5.128906 2.890625-6.980469l72.28125-72.066406c13.71875-13.683594 13.878906-35.761719.488281-49.640625zm0 0" fill="#ffbc1d"/><path d="m359.585938 319.484375-72.277344 72.066406c-1.851563 1.851563-2.890625 4.359375-2.890625 6.980469v65.75c0 26.359375-21.429688 47.71875-47.851563 47.71875h-94.628906v-298.6875c.089844.011719.179688.011719.269531.011719 7.601563 0 13.761719-6.160157 13.761719-13.761719v-174.339844c0-13.769531 11.039062-24.957031 24.738281-25.21874975 14.152344-.26953125 25.722657 11.64062475 25.722657 25.78906275v173.769531c0 3.800781 1.539062 7.238281 4.027343 9.730469 2.492188 2.488281 5.929688 4.03125 9.730469 4.03125 7.609375 0 13.769531-6.160157 13.769531-13.761719v-144.328125c0-13.78125 11.03125-24.96875 24.742188-25.230469 14.140625-.269531 25.71875 11.640625 25.71875 25.800782v214.558593c0 8.789063 10.648437 13.179688 16.878906 6.96875l7.511719-7.488281c14.101562-14.0625 37.441406-14.332031 51.269531 0 13.390625 13.878906 13.230469 35.957031-.492187 49.640625zm0 0" fill="#ff9600"/><path d="m219.949219 383.222656v55.007813c0 10.421875-8.480469 18.890625-18.890625 18.890625h-118.238282c-10.421874 0-18.890624-8.46875-18.890624-18.890625v-55.007813c0-10.421875 8.46875-18.902344 18.890624-18.902344h118.238282c10.410156 0 18.890625 8.480469 18.890625 18.902344zm0 0" fill="#fff"/><path d="m219.949219 383.222656v55.007813c0 10.421875-8.480469 18.890625-18.890625 18.890625h-59.121094v-92.796875h59.121094c10.410156-.003907 18.890625 8.476562 18.890625 18.898437zm0 0" fill="#e7f9f9"/></svg>