<svg id="Capa_1" enable-background="new 0 0 513.764 513.764" height="512" viewBox="0 0 513.764 513.764" width="512" xmlns="http://www.w3.org/2000/svg"><path d="m47.131 294.779-34.635 43.761c-7.177 9.068-5.372 22.285 3.974 29.096 9.239 6.734 22.209 4.545 28.727-4.847l31.438-45.306z" fill="#444"/><path d="m466.633 294.779 34.635 43.762c7.177 9.068 5.372 22.285-3.974 29.096-9.239 6.734-22.209 4.545-28.727-4.847l-31.438-45.306z" fill="#444"/><path d="m76.632 317.482-16.18 23.31c-13.56-2.17-25.92-7.81-35.1-18.49l21.78-27.52z" fill="#333"/><path d="m488.502 322.412c-9.21 10.65-21.59 16.26-35.17 18.41l-16.2-23.34 29.5-22.7z" fill="#333"/><g fill="#444"><path d="m34.882 217.812h-27.382c-4.142 0-7.5-3.358-7.5-7.5s3.358-7.5 7.5-7.5h27.382c4.142 0 7.5 3.358 7.5 7.5s-3.358 7.5-7.5 7.5z"/><path d="m506.264 217.812h-29.382c-4.142 0-7.5-3.358-7.5-7.5s3.358-7.5 7.5-7.5h29.382c4.142 0 7.5 3.358 7.5 7.5s-3.358 7.5-7.5 7.5z"/><path d="m277.488 217.812h-41.018c-4.142 0-7.5-3.358-7.5-7.5s3.358-7.5 7.5-7.5h41.018c4.142 0 7.5 3.358 7.5 7.5s-3.358 7.5-7.5 7.5z"/><path d="m147.286 142.218h219.192v30.111h-219.192z"/></g><path d="m245.302 172.332h-98.02v-30.11h75.31c10.05 7.97 17.85 18.42 22.71 30.11z" fill="#333"/><path d="m366.482 142.222v30.11h-98.02c4.86-11.69 12.66-22.14 22.71-30.11z" fill="#333"/><path d="m28.096 210.312v66.238c0 10.446 2.88 20.769 8.729 29.424 23.515 34.795 77.24 23.54 108.428 8.517 31.629-15.233 57.21-35.55 77.939-64.243.494-.684.977-1.369 1.448-2.057 30.795-44.897-2.204-105.973-56.647-105.973h-71.803c-37.607 0-68.094 30.487-68.094 68.094z" fill="#9c9c9c"/><path d="m485.861 210.312v66.238c0 10.446-2.88 20.769-8.729 29.424-23.515 34.795-77.24 23.54-108.428 8.517-31.629-15.233-57.21-35.55-77.939-64.243-.494-.684-.977-1.369-1.448-2.057-30.795-44.897 2.204-105.973 56.647-105.973h71.803c37.608 0 68.094 30.487 68.094 68.094z" fill="#9c9c9c"/><path d="m224.642 248.192c-.47.69-.96 1.37-1.45 2.06-20.73 28.69-46.31 49.01-77.94 64.24-23.46 11.3-59.67 20.47-86.18 9.51 22.69 1.76 47.85-5.59 65.67-14.18 31.63-15.23 57.21-35.55 77.94-64.24.5-.68.98-1.37 1.45-2.06 25.61-37.32 7.11-85.83-31.14-101.12 51.43 3.59 81.48 62.28 51.65 105.79z" fill="#838383"/><path d="m485.862 210.312v66.24c0 10.44-2.88 20.77-8.73 29.42-18.63 27.57-56.22 26.23-86.54 17.02 25.24 3.76 51.45-.1 66.03-21.68 5.85-8.66 8.73-18.98 8.73-29.43v-66.24c0-28.68-17.74-53.22-42.84-63.25 35.39 2.43 63.35 31.9 63.35 67.92z" fill="#838383"/><path d="m81.107 207.382c-2.057 0-4.105-.841-5.587-2.494-2.765-3.084-2.506-7.826.578-10.591l19.333-17.333c3.084-2.765 7.825-2.506 10.591.578 2.765 3.084 2.506 7.826-.578 10.591l-19.333 17.333c-1.432 1.284-3.221 1.916-5.004 1.916z" fill="#444"/><path d="m90.774 230.098c-2.057 0-4.105-.841-5.587-2.494-2.765-3.084-2.506-7.826.578-10.591l35.004-31.383c3.083-2.765 7.826-2.506 10.591.578s2.506 7.826-.578 10.591l-35.004 31.383c-1.432 1.284-3.221 1.916-5.004 1.916z" fill="#444"/><path d="m387.99 207.382c-2.057 0-4.105-.841-5.587-2.494-2.765-3.084-2.506-7.826.578-10.591l19.333-17.333c3.084-2.765 7.826-2.506 10.591.578s2.506 7.826-.578 10.591l-19.333 17.333c-1.431 1.284-3.221 1.916-5.004 1.916z" fill="#444"/><path d="m397.657 230.098c-2.057 0-4.105-.841-5.587-2.494-2.765-3.084-2.506-7.826.578-10.591l35.004-31.383c3.083-2.765 7.825-2.506 10.591.578 2.765 3.084 2.506 7.826-.578 10.591l-35.004 31.383c-1.432 1.284-3.221 1.916-5.004 1.916z" fill="#444"/></svg>