<svg height="512pt" viewBox="-91 0 512 512" width="512pt" xmlns="http://www.w3.org/2000/svg"><path d="m150.3125 30v73.398438h-90c-16.5 0-30-13.5-30-30v-73.398438h90c16.566406 0 30 13.429688 30 30zm0 0" fill="#47568c"/><path d="m300.3125 0v73.398438c0 16.5-13.5 30-30 30h-90v-73.398438c0-16.570312 13.429688-30 30-30zm0 0" fill="#2c3b73"/><path d="m120.3125 0h90v103.398438h-90zm0 0" fill="#bbdcff"/><path d="m165.3125 0h45v103.398438h-45zm0 0" fill="#9abadb"/><path d="m326.710938 181.097656-27.597657 330.902344h-118.800781v-285c0-8.402344-6.601562-15-15-15-8.402344 0-15 6.597656-15 15v285h-118.800781l-27.601563-330.902344c6.300782-6.597656 83.699219-89.699218 86.402344-92.699218v-14.398438h150v24.597656zm0 0" fill="#25d9f8"/><path d="m326.710938 181.097656-27.597657 330.902344h-118.800781v-285c0-8.402344-6.601562-15-15-15v-138h75v24.597656zm0 0" fill="#00c0f1"/><path d="m90.3125 74v33c0 28.800781-16.800781 55.5-43.199219 67.800781-13.179687 6.386719-28.050781 8.632813-43.203125 6.296875-.246094-3.007812-4.148437-50.109375-3.8984372-47.097656l30.3007812-60zm0 0" fill="#00c0f1"/><path d="m300.3125 74c-3.335938 0-63.246094 0-60 0v33c0 26.398438 14.097656 51 36.597656 64.5 14.804688 8.730469 32.222656 12.304688 49.800782 9.597656.25-3.007812 4.148437-50.109375 3.902343-47.097656zm0 0" fill="#009ae4"/></svg>