<svg id="Capa_1" enable-background="new 0 0 512 512" height="512" viewBox="0 0 512 512" width="512" xmlns="http://www.w3.org/2000/svg"><path d="m0 181v75c0 8.284 6.716 15 15 15h30c74.384 0 134.975 60.573 134.997 134.954.003 8.287 5.964 15.046 14.252 15.046h123.502c8.288 0 14.249-6.759 14.252-15.046.022-74.381 60.613-134.954 134.997-134.954h30c8.284 0 15-6.716 15-15v-75c0-16.569-13.431-30-30-30h-452c-16.569 0-30 13.431-30 30z" fill="#76e2f8"/><path d="m256 421h61.751c8.287 0 14.249-6.758 14.253-15.048.022-74.379 60.613-134.952 134.996-134.952h30c8.284 0 15-6.716 15-15v-75c0-16.569-13.431-30-30-30h-226z" fill="#4bb9ec"/><path d="m256 361c-8.291 0-15-6.709-15-15v-180c0-8.291 6.709-15 15-15s15 6.709 15 15v180c0 8.291-6.709 15-15 15z" fill="#4bb9ec"/><path d="m357.518 241.864c-5.537 0-10.898-3.105-13.477-8.438-22.646-46.523-8.32-68.833 2.52-78.091 4.365-4.277 11.074-5.625 16.875-2.93 7.5 3.501 10.781 12.422 7.266 19.922-.908 1.992-2.871 4.321-4.57 5.742-6.973 5.845-5.156 21.636 4.863 42.231 3.633 7.456.527 16.436-6.914 20.054-2.11 1.027-4.337 1.51-6.563 1.51z" fill="#0095ff"/><path d="m154.482 241.864c-2.227 0-4.453-.483-6.563-1.509-7.441-3.618-10.547-12.598-6.914-20.054 10.02-20.596 11.836-36.387 4.863-42.231-1.699-1.421-3.662-3.75-4.57-5.742-3.516-7.5-.234-16.421 7.266-19.922 5.83-2.695 12.598-1.348 16.904 2.944 10.957 9.478 25.02 31.787 2.49 78.076-2.577 5.333-7.938 8.438-13.476 8.438z" fill="#4bb9ec"/><path d="m271 346v-180c0-8.291-6.709-15-15-15v210c8.291 0 15-6.709 15-15z" fill="#0095ff"/><path d="m497 91h-482c-8.401 0-15 6.599-15 15v45 30h512v-30-45c0-8.401-6.599-15-15-15z" fill="#4bb9ec"/><path d="m256 181h256v-30-45c0-8.401-6.599-15-15-15h-241z" fill="#0095ff"/></svg>