<svg id="Capa_1" enable-background="new 0 0 512 512" height="512" viewBox="0 0 512 512" width="512" xmlns="http://www.w3.org/2000/svg"><path d="m320.008 234.792c-3.31 0-6.621-1.091-9.362-3.282-14.939-11.936-34.008-18.51-53.695-18.51-18.064 0-35.9 5.642-50.225 15.887-5.599 4.004-13.203 3.685-18.446-.775-5.242-4.46-6.776-11.915-3.722-18.083l36.001-72.687c2.53-5.109 7.739-8.342 13.441-8.342h44c5.453 0 10.476 2.959 13.119 7.729l42.009 75.791c3.473 6.264 2.031 14.109-3.44 18.731-2.792 2.357-6.234 3.541-9.68 3.541z" fill="#ff415b"/><path d="m333.128 212.52-42.009-75.791c-2.643-4.77-7.666-7.729-13.119-7.729h-22.014v84.018c.322-.004.643-.019.965-.019 19.687 0 38.756 6.574 53.694 18.51 2.741 2.19 6.053 3.282 9.362 3.282 3.446 0 6.889-1.184 9.68-3.541 5.472-4.621 6.914-12.466 3.441-18.73z" fill="#c30048"/><path d="m100 111.91c-8.284 0-15-6.716-15-15v-81.91c0-8.284 6.716-15 15-15s15 6.716 15 15v81.91c0 8.284-6.716 15-15 15z" fill="#ff415b"/><path d="m135.496 255.171c-29.955 0-58.471-12.889-78.236-35.361-7.186-8.17-12.973-17.322-17.247-27.088-2.323-5.309 3.881-21.806 3.881-21.806s-11.662-4.835-12.166-10.056c-.744-7.711-.635-15.546.372-23.365.278-2.167 1.027-4.247 2.194-6.095 20.603-32.63 59.383-52.9 101.202-52.9 41.818 0 80.598 20.27 101.202 52.899 1.167 1.848 1.916 3.928 2.194 6.094 1.23 9.553 1.121 19.13-.249 28.476-.883 6.023-11.431 10.818-11.431 10.818s3.666 16.474 1.361 21.05c-3.956 7.853-8.924 15.245-14.84 21.972-19.766 22.473-48.282 35.362-78.237 35.362z" fill="#ff7c48"/><path d="m430.999 117c-8.284 0-15-6.716-15-15v-87c0-8.284 6.716-15 15-15s15 6.716 15 15v87c0 8.284-6.716 15-15 15z" fill="#c30048"/><path d="m132.218 125.115c-36.87 0-72.14 12.619-100.482 35.743 1.063 11.008 3.865 21.762 8.285 31.86 1.364-.651 2.654-1.516 3.814-2.606 24.029-22.568 55.418-34.997 88.383-34.997 35.585 0 69.94 14.9 94.257 40.88.648.692 1.353 1.296 2.091 1.838 5.045-10.015 8.446-20.776 10.071-31.864-29.052-26.101-67.124-40.854-106.419-40.854z" fill="#fff36c"/><path d="m289.566 512h-67.133c-4.502 0-8.766-2.022-11.614-5.508s-3.981-8.066-3.086-12.478c1.173-5.77 1.767-11.703 1.767-17.635 0-65.556-43.668-97.424-133.5-97.424-8.284 0-15-6.716-15-15v-46.955c0-8.284 6.716-15 15-15h360c8.284 0 15 6.716 15 15v46.955c0 8.284-6.716 15-15 15-25.843 0-63.472 1.775-91.765 17.129-28.084 15.239-41.735 41.504-41.735 80.295 0 5.933.594 11.866 1.767 17.635.896 4.412-.237 8.992-3.086 12.478s-7.113 5.508-11.615 5.508z" fill="#ff7c48"/><path d="m436 302h-180.014v210h33.58c4.502 0 8.766-2.022 11.614-5.508s3.981-8.066 3.086-12.478c-1.173-5.77-1.767-11.703-1.767-17.635 0-38.791 13.651-65.056 41.735-80.295 28.293-15.354 65.922-17.129 91.765-17.129 8.284 0 15-6.716 15-15v-46.955c.001-8.284-6.715-15-14.999-15z" fill="#ff415b"/><path d="m376.505 255.171c-29.955 0-58.471-12.889-78.236-35.361-7.186-8.17-12.973-17.322-17.247-27.088-2.323-5.309 3.881-21.806 3.881-21.806s-11.662-4.835-12.167-10.056c-.744-7.711-.635-15.546.372-23.365.278-2.167 1.027-4.247 2.194-6.095 20.604-32.63 59.383-52.9 101.203-52.9 41.818 0 80.598 20.27 101.202 52.899 1.167 1.848 1.916 3.928 2.194 6.094 1.23 9.553 1.121 19.13-.249 28.476-.883 6.023-11.431 10.818-11.431 10.818s3.666 16.474 1.361 21.05c-3.956 7.853-8.924 15.245-14.84 21.972-19.767 22.473-48.282 35.362-78.237 35.362z" fill="#ff415b"/><path d="m373.226 125.115c-36.87 0-72.14 12.619-100.482 35.743 1.063 11.008 3.865 21.762 8.285 31.86 1.364-.651 2.654-1.516 3.814-2.606 24.029-22.568 55.418-34.997 88.383-34.997 35.585 0 69.94 14.9 94.257 40.88.648.692 1.353 1.296 2.091 1.838 5.045-10.015 8.446-20.776 10.071-31.864-29.051-26.101-67.123-40.854-106.419-40.854z" fill="#ffde46"/></svg>