<svg height="512pt" viewBox="-25 0 511 512" width="512pt" xmlns="http://www.w3.org/2000/svg"><g fill="#858fa6" fill-rule="evenodd"><path d="m230.5 501.996094v-411.996094l-54.992188 47.949219-35.007812-107.949219-70.003906 10c-40.347656 23.296875-59.996094 88.539062-59.996094 155v197c0 5.5 4.5 10 10 10h48.5v80c0 11 9 20 20 20zm0 0"/><path d="m69 442v-40h-48.5v20c0 11 9 20 20 20zm0 0"/><path d="m230.5 90v411.996094l141.5.003906c11 0 20-9 20-20v-80h48.5c5.496094 0 10-4.5 10-10v-197c0-66.460938-19.648438-131.703125-60-155l-70-10-35.007812 107.949219zm0 0"/><path d="m175.507812 137.949219 54.992188-47.949219-60-80-30 20zm0 0"/><path d="m230.5 90 54.992188 47.949219 35.007812-107.949219-30-20zm0 0"/><path d="m230.5 90 60-80h-120zm0 0"/><path d="m440.5 402h-48.5v40h28.5c11 0 20-9 20-20zm0 0"/></g><path d="m13.222656 154.292969c.421875.050781.839844.078125 1.253906.078125 4.96875 0 9.277344-3.703125 9.910157-8.761719v-.007813c.683593-5.480468-3.203125-10.472656-8.683594-11.160156-5.484375-.6875-10.476563 3.207032-11.164063 8.6875-.683593 5.480469 3.203126 10.476563 8.683594 11.164063zm0 0"/><path d="m270.5 177.972656c-5.523438 0-10 4.480469-10 10 0 5.523438 4.476562 10 10 10h.007812c5.523438 0 9.996094-4.476562 9.996094-10 0-5.519531-4.480468-10-10.003906-10zm0 0"/><path d="m270.5 245.945312c-5.523438 0-10 4.480469-10 10 0 5.523438 4.476562 10 10 10h.007812c5.523438 0 9.996094-4.476562 9.996094-10 0-5.519531-4.480468-10-10.003906-10zm0 0"/><path d="m270.5 313.917969c-5.523438 0-10 4.480469-10 10 0 5.523437 4.476562 10 10 10h.007812c5.523438 0 9.996094-4.476563 9.996094-10 0-5.519531-4.480468-10-10.003906-10zm0 0"/><path d="m270.5 381.894531c-5.523438 0-10 4.476563-10 10 0 5.519531 4.476562 10 10 10h.007812c5.523438 0 9.996094-4.480469 9.996094-10 0-5.523437-4.480468-10-10.003906-10zm0 0"/><path d="m395.5 31.339844c-1.105469-.636719-2.320312-1.058594-3.585938-1.238282l-67.753906-9.679687-28.058594-18.707031c-1.648437-1.105469-3.613281-1.714844-5.601562-1.714844h-120c-1.984375 0-3.957031.613281-5.601562 1.714844l-28.058594 18.707031-67.753906 9.679687c-1.265626.179688-2.480469.601563-3.585938 1.238282-20.851562 12.039062-37.871094 34.761718-49.21875 65.71875-1.902344 5.183594.757812 10.929687 5.945312 12.832031 1.136719.414063 2.296876.613281 3.441407.613281 4.074219 0 7.90625-2.511718 9.390625-6.5625 9.40625-25.652344 22.8125-44.386718 38.84375-54.324218l59.683594-8.527344 32.410156 99.941406c2.167968 6.691406 10.761718 9.09375 16.082031 4.453125l38.421875-33.496094v380.011719h-131.5c-5.515625 0-10-4.484375-10-10v-337.503906c0-5.519532-4.476562-10-10-10s-10 4.480468-10 10v247.503906h-38.480469c-.007812 0-.011719 0-.019531 0v-197c0-1.859375.019531-3.714844.050781-5.570312.09375-5.519532-4.308593-10.074219-9.828125-10.167969-5.5-.113281-10.078125 4.304687-10.171875 9.828125-.03125 1.96875-.050781 3.9375-.050781 5.910156v197c0 7.382812 4.03125 13.828125 10 17.292969v12.707031c0 16.542969 13.457031 30 30 30h18.5v30c0 16.542969 13.457031 30 30 30h183c5.523438 0 10-4.476562 10-10s-4.476562-10-10-10h-31.5v-380.011719l38.417969 33.496094c5.324219 4.640625 13.914062 2.238281 16.085937-4.453125l32.410156-99.941406 59.679688 8.527344c32.5 20.171874 53.40625 76.886718 53.40625 145.382812v197h-38.5v-247.503906c0-5.519532-4.476562-10-10-10s-10 4.480468-10 10v337.503906c0 5.515625-4.488281 10-10 10h-10c-5.523438 0-10 4.476562-10 10s4.476562 10 10 10h10c16.539062 0 30-13.457031 30-30v-30h18.5c16.539062 0 30-13.457031 30-30v-12.707031c5.964844-3.464844 10-9.910157 10-17.292969v-197c0-60.976562-17.078125-135.992188-65-163.660156zm-355 400.660156c-5.515625 0-10-4.488281-10-10v-10h28.5v20zm190-358.667969-40-53.332031h80zm-50.152344 47.128907-28-86.339844 15.828125-10.554688 48.75 65.003906zm100.300782 0-36.574219-31.890626 48.75-65.003906 15.824219 10.554688zm139.851562 311.539062h-18.5v-20h28.5v10c0 5.511719-4.488281 10-10 10zm0 0"/><path d="m180.496094 197.972656c5.523437 0 10-4.476562 10-10 0-5.523437-4.476563-10-10-10h-61.496094c-5.523438 0-10 4.476563-10 10 0 5.523438 4.476562 10 10 10zm0 0"/><path d="m270.5 449.867188c-5.523438 0-10 4.476562-10 10 0 5.519531 4.476562 10 10 10h.007812c5.523438 0 9.996094-4.480469 9.996094-10 0-5.523438-4.480468-10-10.003906-10zm0 0"/><path d="m317.003906 492h-.007812c-5.523438 0-9.996094 4.476562-9.996094 10s4.480469 10 10.003906 10c5.519532 0 10-4.476562 10-10s-4.480468-10-10-10zm0 0"/></svg>