<?xml version="1.0" encoding="iso-8859-1"?>
<!-- Generator: Adobe Illustrator 19.0.0, SVG Export Plug-In . SVG Version: 6.00 Build 0)  -->
<svg version="1.1" id="Capa_1" xmlns="http://www.w3.org/2000/svg" xmlns:xlink="http://www.w3.org/1999/xlink" x="0px" y="0px"
	 viewBox="0 0 511.333 511.333" style="enable-background:new 0 0 511.333 511.333;" xml:space="preserve">
<g>
	<path id="SVGCleanerId_0" style="fill:#E64C3C;" d="M176.218,304.555h26.483v8.474c-0.005,2.979-1.495,5.76-3.972,7.415
		l-22.51,15.007V304.555z"/>
	<polygon style="fill:#E64C3C;" points="224.77,76.274 225.123,76.274 224.77,77.686 	"/>
	<path id="SVGCleanerId_1" style="fill:#E64C3C;" d="M276.058,130.74c1.077,0.814,1.7,2.093,1.677,3.443v7.062l-6.356-4.237
		c-0.883,1.412-1.677,2.825-2.472,4.326v-7.151c-0.012-1.174,0.45-2.304,1.28-3.134c0.83-0.83,1.96-1.292,3.134-1.28
		c0.983-0.005,1.942,0.304,2.737,0.883C275.97,130.652,276.058,130.74,276.058,130.74z"/>
	<g>
		<g>
			<path id="SVGCleanerId_2" style="fill:#E64C3C;" d="M286.828,76.274l0.794,4.767c0.343,1.391-0.058,2.86-1.059,3.884v-8.651
				H286.828z"/>
		</g>
		<path style="fill:#E64C3C;" d="M318.342,89.515c-0.598,0.313-1.267,0.465-1.942,0.441c-1.667,0.015-3.201-0.906-3.972-2.383
			l-3.354-8.033l10.24,1.677l0.971,2.383c0.553,1.037,0.659,2.255,0.292,3.372C320.21,88.09,319.403,89.008,318.342,89.515
			L318.342,89.515z"/>
	</g>
	<g>
		<path id="SVGCleanerId_0_1_" style="fill:#E64C3C;" d="M176.218,304.555h26.483v8.474c-0.005,2.979-1.495,5.76-3.972,7.415
			l-22.51,15.007V304.555z"/>
	</g>
	<polygon style="fill:#E64C3C;" points="224.77,76.274 225.123,76.274 224.77,77.686 	"/>
	<g>
		<path id="SVGCleanerId_1_1_" style="fill:#E64C3C;" d="M276.058,130.74c1.077,0.814,1.7,2.093,1.677,3.443v7.062l-6.356-4.237
			c-0.883,1.412-1.677,2.825-2.472,4.326v-7.151c-0.012-1.174,0.45-2.304,1.28-3.134c0.83-0.83,1.96-1.292,3.134-1.28
			c0.983-0.005,1.942,0.304,2.737,0.883C275.97,130.652,276.058,130.74,276.058,130.74z"/>
	</g>
	<g>
		<g>
			<path id="SVGCleanerId_2_1_" style="fill:#E64C3C;" d="M286.828,76.274l0.794,4.767c0.343,1.391-0.058,2.86-1.059,3.884v-8.651
				H286.828z"/>
		</g>
		<g>
			<path id="SVGCleanerId_3" style="fill:#E64C3C;" d="M318.342,89.515c-0.598,0.313-1.267,0.465-1.942,0.441
				c-1.667,0.015-3.201-0.906-3.972-2.383l-3.354-8.033l10.24,1.677l0.971,2.383c0.553,1.037,0.659,2.255,0.292,3.372
				C320.21,88.09,319.403,89.008,318.342,89.515L318.342,89.515z"/>
		</g>
	</g>
	<path style="fill:#F29C1F;" d="M277.736,134.183v7.062l-6.356-4.237c-0.883,1.412-1.677,2.825-2.472,4.326v-7.151
		c-0.012-1.174,0.45-2.304,1.28-3.134c0.83-0.83,1.96-1.292,3.134-1.28c0.983-0.005,1.942,0.304,2.737,0.883
		c-0.088,0,0,0.088,0,0.088C277.135,131.554,277.759,132.833,277.736,134.183L277.736,134.183z"/>
	<g>
		<polygon style="fill:#E57E25;" points="225.123,76.274 224.77,77.686 224.77,76.274 		"/>
		<path style="fill:#E57E25;" d="M287.622,81.041c0.343,1.391-0.058,2.86-1.059,3.884v-8.651h0.265L287.622,81.041z"/>
		<g>
			<path id="SVGCleanerId_3_1_" style="fill:#E57E25;" d="M318.342,89.515c-0.598,0.313-1.267,0.465-1.942,0.441
				c-1.667,0.015-3.201-0.906-3.972-2.383l-3.354-8.033l10.24,1.677l0.971,2.383c0.553,1.037,0.659,2.255,0.292,3.372
				C320.21,88.09,319.403,89.008,318.342,89.515L318.342,89.515z"/>
		</g>
	</g>
	<path style="fill:#802F34;" d="M492.069,470.955l10.77-3.09l-63.029-220.69l-12.623-44.226
		c-7.648-26.818-30.381-46.611-57.997-50.494l-7.68-1.148c-2.323-0.318-4.422-1.55-5.831-3.423
		c-1.409-1.873-2.011-4.232-1.672-6.552l7.592-53.054l-45.992-65.677c-7.059-10.056-17.385-17.356-29.219-20.657
		c-3.363-0.987-6.829-1.579-10.328-1.766c-0.704-0.073-1.411-0.103-2.119-0.088c-0.556-0.073-1.117-0.103-1.677-0.088h-39.548
		c-1.681,0-3.36,0.089-5.032,0.265c-3.691,0.326-7.333,1.066-10.858,2.207c-12.356,3.879-22.871,12.134-29.572,23.217L149.736,88.28
		l7.592,53.054c0.339,2.32-0.263,4.678-1.672,6.552c-1.409,1.873-3.508,3.106-5.831,3.423l-7.68,1.148
		c-27.616,3.883-50.35,23.675-57.997,50.494l-12.623,44.226L8.494,467.866l10.77,3.09l-7.768,23.128
		c-0.782,2.342-0.549,4.903,0.641,7.066s3.23,3.729,5.627,4.322l18.714,4.679c4.209,1.067,8.574-1.059,10.328-5.032l9.975-23.481
		l13.506,3.884l17.126-44.844l53.495-140.535v167.194c-0.002,10.95,6.734,20.773,16.949,24.717l5.914,2.295
		c6.974,2.648,14.124,5.032,21.274,7.062c13.002,3.73,26.288,6.387,39.724,7.945c2.913,0.441,5.914,0.706,8.828,0.971
		c11.738,1.088,23.541,1.294,35.31,0.618c2.913-0.177,5.914-0.353,8.828-0.618c16.434-1.397,32.694-4.382,48.552-8.916
		c7.15-2.03,14.301-4.414,21.274-7.062l5.914-2.295c10.215-3.944,16.951-13.767,16.949-24.717V300.142l0.353,0.883l53.672,140.888
		l16.596,43.608l13.506-3.884l9.975,23.481c1.754,3.972,6.119,6.099,10.328,5.032l18.714-4.679c2.396-0.592,4.436-2.159,5.627-4.322
		c1.19-2.163,1.423-4.724,0.641-7.066L492.069,470.955z M319.313,81.217l0.971,2.383c0.553,1.037,0.659,2.255,0.292,3.372
		c-0.367,1.117-1.174,2.035-2.234,2.543c-0.598,0.313-1.267,0.465-1.942,0.441c-1.667,0.015-3.201-0.906-3.972-2.383l-3.354-8.033
		L319.313,81.217z M287.622,81.041c0.343,1.391-0.058,2.86-1.059,3.884v-8.651h0.265L287.622,81.041z M224.77,77.686v-1.412h0.353
		L224.77,77.686z M202.701,313.03c-0.005,2.979-1.495,5.76-3.972,7.415l-22.51,15.007v-30.897h26.483V313.03z M271.38,137.008
		c-0.883,1.412-1.677,2.825-2.472,4.326v-7.151c-0.012-1.174,0.45-2.304,1.28-3.134c0.83-0.83,1.96-1.292,3.134-1.28
		c0.983-0.005,1.942,0.304,2.737,0.883c-0.088,0,0,0.088,0,0.088c1.077,0.814,1.7,2.093,1.677,3.443v7.062L271.38,137.008z"/>
	<path style="fill:#C03A2B;" d="M276.058,130.74c1.077,0.814,1.7,2.093,1.677,3.443v7.062l-6.356-4.237
		c0.883-1.412,1.942-2.825,3.001-4.237c0.066-0.133,0.156-0.253,0.265-0.353c0.422-0.626,0.894-1.217,1.412-1.766
		C275.97,130.652,276.058,130.74,276.058,130.74z"/>
	<path id="SVGCleanerId_4" style="fill:#F29C1F;" d="M251.253,348.693c-1.786,0.016-3.403-1.055-4.084-2.706
		c-0.681-1.651-0.29-3.551,0.989-4.798c0.372-0.448,0.862-0.784,1.414-0.97c1.638-0.675,3.523-0.292,4.767,0.97
		c0.848,0.804,1.328,1.92,1.328,3.088c0,1.168-0.48,2.285-1.328,3.088c-0.37,0.451-0.86,0.789-1.414,0.974
		C252.401,348.582,251.83,348.703,251.253,348.693L251.253,348.693z"/>
	<path id="SVGCleanerId_5" style="fill:#F29C1F;" d="M251.253,489.935c-1.786,0.016-3.403-1.055-4.084-2.706
		c-0.681-1.651-0.29-3.551,0.989-4.798c1.241-1.268,3.129-1.652,4.767-0.97c0.553,0.184,1.043,0.52,1.414,0.97
		c0.848,0.804,1.328,1.92,1.328,3.088c0,1.168-0.48,2.285-1.328,3.088c-0.37,0.451-0.86,0.789-1.414,0.974
		C252.401,489.823,251.83,489.944,251.253,489.935L251.253,489.935z"/>
	<path style="fill:#E6E7E8;" d="M202.701,304.555v8.474c-0.005,2.979-1.495,5.76-3.972,7.415l-22.51,15.007v-30.897H202.701z"/>
	<g>
		<polygon style="fill:#E57E25;" points="224.77,76.274 225.123,76.274 224.77,77.686 		"/>
		<path style="fill:#E57E25;" d="M273.322,129.769c0.983-0.005,1.942,0.304,2.737,0.883c-0.088,0,0,0.088,0,0.088
			c-0.546,0.491-1.022,1.055-1.412,1.677c-0.141,0.067-0.24,0.199-0.265,0.353c-1.059,1.412-2.119,2.825-3.001,4.237
			s-1.677,2.825-2.472,4.326v-7.151c-0.012-1.174,0.45-2.304,1.28-3.134C271.018,130.219,272.148,129.758,273.322,129.769
			L273.322,129.769z"/>
		<g>
			<path id="SVGCleanerId_2_2_" style="fill:#E57E25;" d="M286.828,76.274l0.794,4.767c0.343,1.391-0.058,2.86-1.059,3.884v-8.651
				H286.828z"/>
		</g>
		<g>
			<path id="SVGCleanerId_3_2_" style="fill:#E57E25;" d="M318.342,89.515c-0.598,0.313-1.267,0.465-1.942,0.441
				c-1.667,0.015-3.201-0.906-3.972-2.383l-3.354-8.033l10.24,1.677l0.971,2.383c0.553,1.037,0.659,2.255,0.292,3.372
				C320.21,88.09,319.403,89.008,318.342,89.515L318.342,89.515z"/>
		</g>
	</g>
	<path style="fill:#E64C3C;" d="M499.838,494.084c0.782,2.342,0.549,4.903-0.641,7.066c-1.19,2.163-3.23,3.729-5.627,4.322
		l-18.714,4.679c-4.209,1.067-8.574-1.059-10.328-5.032l-9.975-23.481l-13.506,3.884l-16.596-43.608l-53.672-140.888l-0.353-0.883
		v167.194c0.002,10.95-6.734,20.773-16.949,24.717l-5.914,2.295c-6.974,2.648-14.124,5.032-21.274,7.062
		c-15.858,4.533-32.118,7.519-48.552,8.916c-2.913,0.265-5.914,0.441-8.828,0.618c-11.769,0.677-23.572,0.47-35.31-0.618
		c-2.913-0.265-5.914-0.53-8.828-0.971c-13.436-1.558-26.722-4.215-39.724-7.945c-7.15-2.03-14.301-4.414-21.274-7.062l-5.914-2.295
		c-10.215-3.944-16.951-13.767-16.949-24.717V300.142L87.413,440.677l-17.126,44.844l-13.506-3.884l-9.975,23.481
		c-1.754,3.972-6.119,6.099-10.328,5.032l-18.714-4.679c-2.396-0.592-4.436-2.159-5.627-4.322s-1.423-4.724-0.641-7.066
		l7.768-23.128l-10.77-3.09l63.029-220.69l12.623-44.226c7.648-26.818,30.381-46.611,57.997-50.494l7.68-1.148
		c2.323-0.318,4.422-1.55,5.831-3.423c1.409-1.873,2.011-4.232,1.672-6.552l-7.592-53.054l37.517-62.588
		c6.701-11.082,17.216-19.338,29.572-23.217c3.525-1.141,7.167-1.881,10.858-2.207c1.671-0.176,3.351-0.264,5.032-0.265h39.548
		c0.561-0.015,1.121,0.015,1.677,0.088c0.707-0.015,1.415,0.015,2.119,0.088c3.5,0.186,6.966,0.779,10.328,1.766
		c11.835,3.301,22.16,10.6,29.219,20.657l45.992,65.678l-7.592,53.054c-0.339,2.32,0.263,4.678,1.672,6.552
		c1.409,1.873,3.509,3.106,5.831,3.423l7.68,1.148c27.616,3.883,50.35,23.675,57.997,50.494l12.623,44.226l63.029,220.69
		l-10.77,3.09L499.838,494.084z"/>
	<g>
		<path style="fill:#F29C1F;" d="M255.59,168.555c-14.592,84.988-21.949,171.06-21.992,257.291v84.48
			c-2.913-0.265-5.914-0.53-8.828-0.971v-83.509c0.01-86.767,7.427-173.375,22.169-258.88c0.439-2.389,2.731-3.97,5.12-3.531
			C254.448,163.874,256.029,166.167,255.59,168.555L255.59,168.555z"/>
		<path style="fill:#F29C1F;" d="M277.736,134.183v376.143c-2.913,0.265-5.914,0.441-8.828,0.618V134.183
			c0-2.438,1.976-4.414,4.414-4.414C275.759,129.769,277.736,131.745,277.736,134.183z"/>
	</g>
	<g>
		<path style="fill:#E57E25;" d="M241.896,0.004L223.799,82.1c-0.432,2.035-2.245,3.479-4.326,3.443
			c-0.297,0.014-0.594-0.015-0.883-0.088c-1.139-0.239-2.135-0.924-2.766-1.903c-0.63-0.979-0.842-2.169-0.589-3.305l17.567-80.243
			H241.896z"/>
		<path style="fill:#E57E25;" d="M284.268,86.337c-0.318,0.077-0.645,0.107-0.971,0.088c-2.038-0.031-3.79-1.454-4.237-3.443
			L264.936,0.004h7.327c0.561-0.015,1.121,0.015,1.677,0.088l13.683,80.949C288.154,83.429,286.654,85.797,284.268,86.337z"/>
		<path style="fill:#E57E25;" d="M227.683,0.268l-40.872,87.923c-0.788,1.462-2.312,2.376-3.972,2.383
			c-0.675,0.024-1.344-0.128-1.942-0.441c-1.055-0.513-1.862-1.426-2.243-2.536c-0.381-1.11-0.304-2.326,0.213-3.379l37.959-81.743
			C220.35,1.335,223.993,0.595,227.683,0.268z"/>
		<path style="fill:#E57E25;" d="M318.342,89.515c-0.598,0.313-1.267,0.465-1.942,0.441c-1.667,0.015-3.201-0.906-3.972-2.383
			L276.058,0.18c3.5,0.186,6.966,0.779,10.328,1.766l33.898,81.655c0.553,1.037,0.659,2.255,0.292,3.372
			C320.21,88.09,319.403,89.008,318.342,89.515L318.342,89.515z"/>
	</g>
	<g>
		<path style="fill:#802F34;" d="M56.781,481.637l-10.019,23.446c-1.704,3.987-6.052,6.147-10.259,5.095L17.75,505.49
			c-2.387-0.597-4.416-2.162-5.599-4.319s-1.412-4.71-0.632-7.043l7.745-23.172"/>
		<path style="fill:#802F34;" d="M492.069,470.955l7.745,23.172c0.78,2.333,0.551,4.886-0.632,7.043
			c-1.183,2.157-3.212,3.723-5.599,4.319l-18.753,4.688c-4.207,1.052-8.555-1.108-10.258-5.096l-10.019-23.446"/>
	</g>
	<path style="fill:#C03A2B;" d="M335.115,98.873v19.686c0.039,3.127-1.615,6.031-4.326,7.592l-35.046,21.01
		c-2.922,1.756-6.591,1.687-9.446-0.177l-14.919-9.975c6.961-10.97,17.177-19.489,29.219-24.364L335.115,98.873z"/>
	<g>
		<path id="SVGCleanerId_4_1_" style="fill:#F29C1F;" d="M251.253,348.693c-1.786,0.016-3.403-1.055-4.084-2.706
			c-0.681-1.651-0.29-3.551,0.989-4.798c0.372-0.448,0.862-0.784,1.414-0.97c1.638-0.675,3.523-0.292,4.767,0.97
			c0.848,0.804,1.328,1.92,1.328,3.088c0,1.168-0.48,2.285-1.328,3.088c-0.37,0.451-0.86,0.789-1.414,0.974
			C252.401,348.582,251.83,348.703,251.253,348.693L251.253,348.693z"/>
	</g>
	<g>
		<path id="SVGCleanerId_5_1_" style="fill:#F29C1F;" d="M251.253,489.935c-1.786,0.016-3.403-1.055-4.084-2.706
			c-0.681-1.651-0.29-3.551,0.989-4.798c1.241-1.268,3.129-1.652,4.767-0.97c0.553,0.184,1.043,0.52,1.414,0.97
			c0.848,0.804,1.328,1.92,1.328,3.088c0,1.168-0.48,2.285-1.328,3.088c-0.37,0.451-0.86,0.789-1.414,0.974
			C252.401,489.823,251.83,489.944,251.253,489.935L251.253,489.935z"/>
	</g>
	<g>
		<path style="fill:#C03A2B;" d="M160.505,171.171l-16.684,8.298c-18.827,9.467-33.141,26.002-39.812,45.992L98.8,241.173
			c-1.245,3.573-4.603,5.976-8.386,6.003H71.523l12.623-44.226c7.648-26.818,30.381-46.611,57.997-50.494l7.68-1.148
			c2.323-0.318,4.422-1.55,5.831-3.423c1.409-1.873,2.011-4.232,1.672-6.552l1.236-0.088l6.444,19.244
			C166.357,164.673,164.443,169.215,160.505,171.171L160.505,171.171z"/>
		<path style="fill:#C03A2B;" d="M439.81,247.176h-18.891c-3.783-0.026-7.141-2.43-8.386-6.003l-5.208-15.713
			c-6.672-19.989-20.985-36.525-39.812-45.992l-16.684-8.298c-3.937-1.955-5.852-6.497-4.502-10.681l6.444-19.244l1.236,0.088
			c-0.339,2.32,0.263,4.678,1.672,6.552c1.409,1.873,3.509,3.106,5.831,3.423l7.68,1.148c27.616,3.883,50.35,23.675,57.997,50.494
			L439.81,247.176z"/>
		<path style="fill:#C03A2B;" d="M185.046,487.816v13.595c-7.15-2.03-14.301-4.414-21.274-7.062l-5.914-2.295
			c-10.215-3.944-16.951-13.767-16.949-24.717v-25.953l27.012,16.155C178.518,463.953,185.008,475.427,185.046,487.816z"/>
		<path style="fill:#C03A2B;" d="M370.425,441.383v25.953c0.002,10.95-6.734,20.773-16.949,24.717l-5.914,2.295
			c-6.974,2.648-14.124,5.032-21.274,7.062v-13.595c0.038-12.389,6.528-23.863,17.125-30.279L370.425,441.383z"/>
		<path style="fill:#C03A2B;" d="M140.908,300.142L87.413,440.677l-19.862-26.571c-3.773-4.959-4.614-11.554-2.207-17.302
			L101.096,311c2.748-6.549,9.141-10.823,16.243-10.858H140.908z"/>
		<path style="fill:#C03A2B;" d="M446.342,414.106l-20.392,27.277l-1.501,0.53l-53.672-140.888l2.207-0.883h23.481
			c7.131,0.008,13.565,4.285,16.331,10.858l35.752,85.804C450.912,402.557,450.074,409.129,446.342,414.106z"/>
	</g>
	<path style="fill:#E6E7E8;" d="M202.701,264.831v48.199c-0.005,2.979-1.495,5.76-3.972,7.415l-22.51,15.007v-70.621
		c0.015-4.869,3.958-8.813,8.828-8.828h8.828C198.743,256.018,202.687,259.962,202.701,264.831L202.701,264.831z"/>
	<g>
		<rect x="176.218" y="273.659" style="fill:#FFFFFF;" width="26.483" height="8.828"/>
		<rect x="176.218" y="295.728" style="fill:#FFFFFF;" width="26.483" height="8.828"/>
	</g>
	<path style="fill:#E57E25;" d="M361.598,88.28l-26.483,10.593l-34.516,13.771c-5.021,2.028-9.743,4.731-14.036,8.033
		c-3.248,2.322-6.211,5.018-8.828,8.033c-2.366,2.567-4.494,5.345-6.356,8.298c-2.864,4.584-5.147,9.506-6.797,14.654l-13.33,42.549
		l-13.771-43.961c-2.602-8.343-6.933-16.043-12.712-22.599c-2.638-3.02-5.598-5.743-8.828-8.121
		c-3.767-2.946-7.89-5.408-12.27-7.327L149.736,88.28l60.91-10.152l5.297-0.794c2.913-0.441,5.914-0.794,8.828-1.059
		c17.579-2.103,35.327-2.399,52.966-0.883c3.001,0.177,5.914,0.441,8.828,0.883c4.767,0.441,9.446,1.059,14.124,1.854L361.598,88.28
		z"/>
	<g>
		<path style="fill:#F29C1F;" d="M224.77,76.274v51.377c-2.638-3.02-5.598-5.743-8.828-8.121V77.333
			C218.856,76.892,221.857,76.539,224.77,76.274z"/>
		<path style="fill:#F29C1F;" d="M286.563,76.274v44.403c-3.248,2.322-6.211,5.018-8.828,8.033V75.391
			C280.737,75.568,283.65,75.833,286.563,76.274z"/>
	</g>
</g>
<g>
</g>
<g>
</g>
<g>
</g>
<g>
</g>
<g>
</g>
<g>
</g>
<g>
</g>
<g>
</g>
<g>
</g>
<g>
</g>
<g>
</g>
<g>
</g>
<g>
</g>
<g>
</g>
<g>
</g>
</svg>
