<svg xmlns="http://www.w3.org/2000/svg" height="496" width="496" style=""><rect id="backgroundrect" width="100%" height="100%" x="0" y="0" fill="none" stroke="none"/><g class="currentLayer" style=""><title>Layer 1</title><path d="m168 488h-128c-8.800781 0-16-7.199219-16-16v-128l-13.679688-13.679688c-1.441406-1.441406-2.320312-3.519531-2.320312-5.601562v-116.71875c0-4.398438 3.601562-8 8-8h176c4.398438 0 8 3.601562 8 8v116.71875c0 2.082031-.878906 4.160156-2.320312 5.601562l-13.679688 13.679688v128c0 8.800781-7.199219 16-16 16zm0 0" fill="#aab2bd" id="svg_1"/><path d="m72.398438 16 7.601562 152h-32l7.601562-152c.238282-4.480469 3.917969-8 8.398438-8s8.160156 3.519531 8.398438 8zm0 0" fill="#ffeaa7" id="svg_2"/><path d="m96 168v32h-64v-32zm0 0" fill="#838f9b" id="svg_3"/><path d="m176 184v16h-32v-16c0-8.800781 7.199219-16 16-16 4.398438 0 8.398438 1.761719 11.28125 4.71875 2.957031 2.882812 4.71875 6.882812 4.71875 11.28125zm0 0" fill="#8ae98a" id="svg_4" class="" fill-opacity="1"/><path d="m232 232v64l-32 8v-80zm0 0" fill="#fcd770" id="svg_5"/><path d="m88 344c0 8.835938-7.164062 16-16 16s-16-7.164062-16-16 7.164062-16 16-16 16 7.164062 16 16zm0 0" fill="#fcd770" id="svg_6"/><path d="m40 232h128v64h-128zm0 0" fill="#69d6f4" id="svg_7"/><path d="m176 224h-144v80h144zm-16 64h-112v-48h112zm0 0" id="svg_8"/><path d="m208 208c0-8.824219-7.175781-16-16-16h-8v-8c0-13.230469-10.769531-24-24-24s-24 10.769531-24 24v8h-32v-32h-16.390625l-7.21875-144.398438c-.429687-8.753906-7.621094-15.601562-16.390625-15.601562s-15.960938 6.847656-16.390625 15.59375l-7.21875 144.40625h-16.390625v32h-8c-8.824219 0-16 7.175781-16 16v116.6875c0 4.207031 1.710938 8.335938 4.6875 11.3125l11.3125 11.3125v124.6875c0 13.230469 10.769531 24 24 24h128c13.230469 0 24-10.769531 24-24v-124.6875l11.3125-11.3125c2.976562-2.976562 4.6875-7.105469 4.6875-11.3125v-14.449219l32-7.992187v-76.492188l-32-7.992187zm-56-24c0-4.414062 3.585938-8 8-8s8 3.585938 8 8v8h-16zm-88.40625-167.609375h.8125l7.179688 143.609375h-15.179688zm-23.59375 159.609375h48v16h-48zm152 148.6875-16 16v131.3125c0 4.414062-3.585938 8-8 8h-128c-4.414062 0-8-3.585938-8-8v-131.3125l-16-16v-116.6875h176zm32-86.441406v51.507812l-16 4.007813v-59.515625zm0 0" id="svg_9"/><path d="m72 320c-13.230469 0-24 10.769531-24 24s10.769531 24 24 24 24-10.769531 24-24-10.769531-24-24-24zm0 32c-4.414062 0-8-3.585938-8-8s3.585938-8 8-8 8 3.585938 8 8-3.585938 8-8 8zm0 0" id="svg_10"/><path d="m112 320h48v16h-48zm0 0" id="svg_11"/><path d="m112 352h48v16h-48zm0 0" id="svg_12"/><path d="m96 384h16v16h-16zm0 0" id="svg_13"/><path d="m136 384h16v16h-16zm0 0" id="svg_14"/><path d="m56 384h16v16h-16zm0 0" id="svg_15"/><path d="m96 416h16v16h-16zm0 0" id="svg_16"/><path d="m136 416h16v16h-16zm0 0" id="svg_17"/><path d="m56 416h16v16h-16zm0 0" id="svg_18"/><path d="m96 448h16v16h-16zm0 0" id="svg_19"/><path d="m136 448h16v16h-16zm0 0" id="svg_20"/><path d="m56 448h16v16h-16zm0 0" id="svg_21"/><path d="m231.136719 150.167969c.582031-2.183594.863281-4.199219.863281-6.167969 0-13.230469-10.769531-24-24-24-1.96875 0-3.984375.28125-6.167969.863281l4.144531 15.457031c.808594-.214843 1.472657-.320312 2.023438-.320312 4.414062 0 8 3.585938 8 8 0 .550781-.105469 1.214844-.320312 2.023438zm0 0" id="svg_22" class="" fill="#e76767" fill-opacity="1"/><path d="m208 88c-11.664062 0-22.871094 3.59375-32.425781 10.390625l9.28125 13.035156c6.824219-4.859375 14.824219-7.425781 23.144531-7.425781 22.054688 0 40 17.945312 40 40 0 8.320312-2.566406 16.320312-7.425781 23.144531l13.035156 9.28125c6.796875-9.554687 10.390625-20.761719 10.390625-32.425781 0-30.871094-25.128906-56-56-56zm0 0" id="svg_23" class="" fill="#eb1a1a" fill-opacity="1"/><path d="m208 56c-20.246094 0-40.023438 7.0625-55.6875 19.878906l10.144531 12.378906c12.800781-10.480468 28.984375-16.257812 45.542969-16.257812 39.703125 0 72 32.296875 72 72 0 16.558594-5.777344 32.742188-16.257812 45.542969l12.378906 10.144531c12.816406-15.664062 19.878906-35.441406 19.878906-55.6875 0-48.519531-39.480469-88-88-88zm0 0" id="svg_24" class="" fill="#b80404" fill-opacity="1"/><rect fill="#eb1a1a" stroke-dashoffset="" fill-rule="nonzero" id="svg_25" x="246" y="75" width="0" height="2" style="color: rgb(0, 0, 0);"/></g></svg>