<!DOCTYPE svg PUBLIC "-//W3C//DTD SVG 20010904//EN" "http://www.w3.org/TR/2001/REC-SVG-20010904/DTD/svg10.dtd">
<svg version="1.0" xmlns="http://www.w3.org/2000/svg" width="600px" height="600px" viewBox="0 0 6000 6000" preserveAspectRatio="xMidYMid meet">
<g id="layer101" fill="#272727" stroke="none">
 <path d="M1891 5985 c-93 -26 -602 -257 -678 -308 -229 -153 -313 -409 -229 -699 26 -87 962 -2234 994 -2278 17 -22 17 -35 9 -115 -15 -142 -14 -887 1 -1040 53 -520 152 -869 311 -1104 141 -207 428 -374 735 -427 71 -13 137 -15 301 -11 231 5 332 20 560 82 145 39 238 83 383 180 410 273 673 614 748 968 37 180 28 336 -32 515 -142 430 -614 994 -1288 1543 -69 56 -126 107 -126 114 0 10 -304 714 -912 2114 -100 228 -251 389 -425 454 -76 27 -271 34 -352 12z"/>
 </g>
<g id="layer102" fill="#a8a8a8" stroke="none">
 <path d="M2010 5783 c-108 -18 -600 -228 -687 -293 -128 -98 -174 -255 -125 -430 19 -66 147 -378 162 -393 10 -11 1210 504 1210 519 0 20 -142 317 -182 380 -94 150 -248 239 -378 217z"/>
 <path d="M2055 4717 c-324 -143 -592 -262 -594 -263 -4 -4 699 -1626 710 -1638 5 -5 244 95 571 239 701 309 630 275 625 300 -9 43 -702 1625 -712 1624 -5 0 -275 -118 -600 -262z"/>
 <path d="M3330 3100 c-85 -38 -373 -167 -640 -288 l-485 -218 -7 -65 c-12 -105 -11 -702 1 -859 24 -296 57 -508 112 -705 87 -311 204 -488 400 -607 67 -41 196 -94 205 -86 3 3 -13 224 -35 490 -23 267 -41 506 -41 531 0 126 167 159 199 40 6 -21 29 -274 51 -563 23 -289 44 -528 46 -532 10 -15 143 -20 262 -9 70 7 128 14 130 15 1 2 -29 130 -68 284 -38 155 -70 292 -70 304 0 41 36 86 73 93 40 8 101 -14 115 -42 5 -10 42 -142 81 -293 40 -151 74 -281 76 -288 11 -32 179 4 289 62 43 22 80 46 83 52 2 6 -89 170 -203 365 -178 304 -208 360 -208 396 -1 33 5 48 25 69 36 36 95 43 130 15 15 -11 118 -176 229 -366 111 -190 204 -345 207 -345 4 0 31 19 60 42 74 57 206 198 277 297 l59 82 -40 42 c-22 23 -223 236 -446 474 l-407 432 0 45 c0 81 39 126 110 126 40 0 32 8 496 -494 l378 -409 13 30 c18 46 33 148 33 234 0 296 -256 711 -740 1199 -91 92 -214 210 -274 264 -128 114 -301 256 -313 256 -4 0 -78 -31 -163 -70z"/>
 </g>
<g id="layer103" fill="#ffffff" stroke="none">
 <path d="M2845 2880 l-640 -289 -8 -108 c-13 -169 -1 -795 17 -963 74 -665 218 -995 506 -1164 56 -33 189 -90 195 -84 2 2 -16 233 -40 515 -23 281 -40 523 -38 537 3 14 21 40 41 57 31 27 41 30 76 26 54 -8 96 -52 97 -105 0 -20 19 -269 42 -552 l43 -515 182 1 c121 0 186 4 193 11 9 9 -5 80 -55 277 -36 146 -66 284 -66 307 0 89 103 133 169 72 27 -25 37 -55 91 -263 98 -378 89 -350 119 -350 82 0 234 55 330 119 11 7 -29 83 -197 373 -159 273 -212 372 -212 397 0 45 55 101 99 101 67 0 77 -12 290 -379 113 -193 208 -351 211 -351 3 0 43 33 90 74 87 75 186 186 259 290 l41 59 -133 140 c-623 660 -740 786 -754 813 -35 70 19 164 94 164 21 0 48 -6 59 -14 11 -8 202 -211 424 -450 259 -280 406 -432 411 -424 19 38 33 137 33 243 0 108 -3 130 -32 215 -105 317 -363 661 -840 1121 -138 133 -434 390 -450 388 -4 0 -295 -130 -647 -289z"/>
 </g>

</svg>