<!DOCTYPE svg PUBLIC "-//W3C//DTD SVG 20010904//EN" "http://www.w3.org/TR/2001/REC-SVG-20010904/DTD/svg10.dtd">
<svg version="1.0" xmlns="http://www.w3.org/2000/svg" width="600px" height="600px" viewBox="0 0 6000 6000" preserveAspectRatio="xMidYMid meet">
<g id="layer101" fill="#000000" stroke="none">
 <path d="M644 4461 c-113 -18 -198 -59 -277 -131 -166 -152 -279 -438 -344 -875 -26 -174 -26 -736 0 -910 77 -518 229 -840 448 -951 227 -115 598 -66 1114 147 252 103 796 388 1047 548 l60 38 52 -19 c68 -26 184 -48 256 -48 71 0 187 22 255 47 l50 19 114 -69 c447 -269 907 -495 1236 -606 503 -172 821 -156 1009 51 170 187 284 530 327 980 15 168 7 635 -15 778 -53 347 -125 571 -242 746 -87 132 -174 199 -309 240 -81 24 -295 25 -420 1 -391 -75 -918 -308 -1550 -683 l-150 -89 -85 29 c-78 27 -97 30 -220 30 -123 0 -142 -3 -220 -30 l-85 -29 -145 86 c-633 375 -1155 607 -1530 679 -115 23 -301 33 -376 21z"/>
 </g>
<g id="layer102" fill="#ffffff" stroke="none">
 <path d="M673 4220 c-69 -14 -110 -39 -161 -95 -135 -148 -227 -449 -263 -865 -14 -166 -6 -519 16 -680 58 -420 185 -710 342 -778 257 -110 878 104 1725 595 l146 85 -49 61 c-220 272 -210 695 23 943 l30 32 -139 80 c-453 262 -812 433 -1128 537 -233 77 -432 109 -542 85z"/>
 <path d="M5112 4220 c-152 -21 -391 -97 -633 -200 -187 -80 -558 -269 -781 -399 l-177 -102 50 -62 c212 -263 212 -651 -1 -915 l-48 -60 176 -103 c375 -218 780 -411 1070 -509 203 -69 322 -93 457 -93 94 -1 118 3 163 22 164 73 287 352 349 791 25 177 25 643 0 820 -61 437 -186 720 -347 789 -59 26 -180 35 -278 21z"/>
 <path d="M2934 3490 c-197 -29 -355 -166 -409 -355 -34 -117 -17 -273 43 -375 35 -60 113 -142 173 -181 149 -95 369 -95 520 2 53 33 134 116 166 169 88 145 85 366 -8 511 -37 58 -119 137 -179 171 -83 48 -210 72 -306 58z"/>
 </g>

</svg>