<!DOCTYPE svg PUBLIC "-//W3C//DTD SVG 20010904//EN" "http://www.w3.org/TR/2001/REC-SVG-20010904/DTD/svg10.dtd">
<svg version="1.0" xmlns="http://www.w3.org/2000/svg" width="600px" height="600px" viewBox="0 0 6000 6000" preserveAspectRatio="xMidYMid meet">
<g id="layer101" fill="#585858" stroke="none">
 <path d="M1373 5701 c-68 -23 -154 -81 -188 -125 l-26 -35 -62 34 c-206 113 -472 36 -582 -169 -29 -53 -32 -56 -85 -67 -114 -24 -226 -102 -283 -200 -82 -139 -72 -335 23 -470 l21 -29 -21 -29 c-117 -165 -102 -405 35 -542 l43 -43 -23 -47 c-77 -151 -46 -345 75 -473 52 -55 140 -108 198 -121 18 -4 32 -10 30 -13 -90 -170 -83 -343 19 -484 57 -78 166 -150 251 -163 17 -3 48 -8 68 -11 l36 -5 -8 -42 c-43 -253 110 -472 355 -510 47 -7 88 -7 123 -1 l53 10 -14 -73 c-35 -171 49 -358 200 -446 112 -66 275 -74 391 -20 l63 30 0 -111 c0 -104 2 -115 31 -176 101 -210 338 -304 552 -217 l61 24 6 -46 c22 -157 108 -280 243 -344 63 -30 73 -32 182 -32 105 0 120 2 174 28 32 15 59 27 61 27 1 0 8 -19 15 -42 20 -69 49 -118 101 -173 120 -127 322 -166 483 -92 l54 25 37 -38 c20 -21 60 -50 87 -65 177 -97 386 -62 524 88 l54 58 33 -25 c82 -63 208 -93 317 -76 132 21 260 113 316 225 24 50 27 53 72 59 72 9 166 59 226 118 110 111 150 276 104 429 -10 34 -8 40 20 75 104 130 120 321 41 469 l-30 56 37 73 c69 141 56 311 -36 438 -42 59 -113 118 -173 143 l-36 15 35 57 c47 78 64 141 64 233 0 218 -154 391 -372 419 -47 6 -51 8 -63 45 -29 83 -113 151 -205 163 l-42 6 91 91 c66 66 91 98 91 116 0 38 -558 594 -586 584 -10 -4 -61 -48 -113 -98 l-93 -91 86 112 c63 82 86 120 86 141 0 26 -28 51 -304 263 -254 195 -310 234 -337 234 -34 0 -33 1 -142 -135 -16 -21 -6 1 23 52 58 100 62 128 23 156 -25 17 -586 342 -641 371 -33 17 -64 7 -83 -26 -9 -15 -35 -61 -59 -102 l-43 -74 -18 35 c-22 43 -78 93 -126 113 -55 23 -161 20 -214 -8 l-45 -22 -11 67 c-50 317 -424 463 -683 267 -30 -23 -56 -37 -58 -31 -1 5 -19 31 -39 56 -44 57 -138 121 -206 141 -70 21 -199 19 -264 -4z m471 -728 c18 -35 100 -114 146 -140 71 -41 136 -56 234 -51 76 3 102 9 158 35 37 17 87 50 111 72 l44 41 13 -30 c40 -97 130 -160 227 -160 29 0 53 -3 53 -6 0 -3 -16 -35 -36 -70 -23 -41 -33 -71 -29 -83 5 -16 482 -301 680 -406 24 -13 170 -121 325 -241 201 -155 285 -225 294 -248 21 -48 547 -566 575 -566 14 0 45 22 82 57 33 31 59 50 59 41 0 -46 34 -122 74 -164 l43 -44 -14 -52 c-26 -102 -9 -227 44 -318 38 -63 113 -134 178 -166 54 -26 55 -27 40 -48 -9 -11 -30 -50 -47 -85 -43 -88 -51 -215 -18 -311 12 -35 31 -77 43 -94 l20 -29 -25 -46 c-56 -100 -74 -236 -44 -335 l15 -48 -36 -46 c-20 -26 -42 -62 -50 -79 -9 -22 -22 -34 -41 -38 -69 -14 -131 -37 -172 -63 -45 -29 -130 -110 -130 -124 0 -15 -18 -8 -67 25 -77 52 -148 70 -256 65 -71 -3 -104 -10 -147 -29 l-56 -26 -44 40 c-133 117 -316 146 -475 73 l-53 -24 -12 42 c-30 101 -110 201 -198 249 -133 72 -257 73 -423 3 -13 -6 -17 3 -22 56 -14 138 -111 268 -245 331 -115 54 -287 48 -387 -13 l-30 -19 0 117 c0 106 -3 123 -27 175 -35 74 -123 166 -191 200 -80 39 -138 50 -231 45 l-82 -6 13 51 c34 132 -5 277 -103 386 -62 69 -172 124 -261 129 l-65 4 7 32 c16 81 17 128 1 199 -34 150 -153 280 -293 316 l-42 11 24 53 c71 156 41 354 -72 475 l-40 43 25 62 c52 128 36 303 -38 405 l-30 41 30 44 c16 24 34 55 39 69 8 21 18 26 59 32 71 9 169 62 227 121 l51 51 60 -32 c80 -45 181 -62 270 -47 76 13 178 60 214 98 30 32 36 31 54 -2z"/>
 </g>
<g id="layer102" fill="#a8a8a8" stroke="none">
 <path d="M1470 5623 c-118 -20 -203 -81 -252 -180 -29 -60 -33 -77 -33 -148 0 -62 5 -91 23 -130 29 -63 92 -129 157 -163 44 -24 61 -27 145 -27 84 0 101 3 145 27 28 14 68 45 89 67 39 40 40 41 41 123 1 46 10 111 20 145 20 71 14 96 -36 160 -71 88 -200 143 -299 126z"/>
 <path d="M799 5515 c-176 -56 -271 -237 -220 -417 16 -57 4 -81 -38 -76 -36 4 -61 60 -68 153 -6 74 -6 75 -32 68 -49 -11 -117 -51 -158 -93 -63 -62 -87 -120 -91 -217 -4 -71 -1 -88 23 -142 33 -74 102 -141 178 -175 62 -27 71 -38 63 -71 -10 -39 -39 -40 -117 -4 l-71 33 -19 -25 c-33 -42 -59 -126 -59 -189 0 -124 75 -241 189 -297 73 -36 190 -39 263 -6 62 28 134 96 166 158 24 44 27 62 27 145 0 85 -3 101 -28 148 -15 29 -34 55 -41 58 -8 3 -31 -4 -52 -15 -44 -24 -65 -26 -82 -9 -27 27 -13 57 41 91 55 36 137 121 137 143 0 7 -18 19 -41 25 -51 16 -66 41 -44 76 14 20 22 24 43 18 57 -14 174 -17 218 -5 52 15 120 61 160 109 l28 33 -26 47 c-54 96 -75 249 -47 331 11 30 10 34 -12 51 -77 59 -202 82 -290 54z"/>
 <path d="M2103 5512 c-74 -26 -127 -66 -167 -125 -111 -164 -54 -385 124 -478 39 -21 59 -24 145 -24 92 0 104 2 154 30 60 33 109 86 143 154 18 37 23 63 23 131 0 73 -4 93 -28 141 -32 66 -100 132 -163 160 -65 29 -167 34 -231 11z"/>
 <path d="M3172 5028 c-11 -18 -63 -109 -117 -203 -54 -93 -106 -184 -116 -201 l-19 -32 262 -151 c144 -83 265 -148 269 -144 9 10 268 457 266 459 -1 1 -117 68 -257 149 -140 81 -258 149 -262 151 -3 2 -15 -11 -26 -28z"/>
 <path d="M3787 4394 c-92 -119 -166 -218 -165 -219 24 -19 446 -343 454 -348 7 -4 73 72 173 203 89 115 163 215 166 222 3 11 -413 340 -449 354 -7 3 -79 -82 -179 -212z"/>
 <path d="M776 4032 c-22 -25 -113 -69 -167 -81 -80 -19 -185 -9 -260 23 -11 5 -21 -6 -40 -45 -31 -68 -33 -180 -5 -254 24 -62 95 -139 161 -173 44 -24 62 -27 145 -27 83 0 101 3 145 27 62 32 129 103 158 166 31 67 30 188 0 255 -30 64 -80 127 -102 127 -10 0 -25 -8 -35 -18z"/>
 <path d="M4437 3842 l-197 -197 203 -203 202 -202 200 200 200 200 -200 200 c-110 110 -202 200 -205 200 -3 0 -94 -89 -203 -198z"/>
 <path d="M821 3435 c-29 -19 -78 -40 -108 -46 -61 -14 -86 -39 -125 -125 -16 -36 -22 -68 -22 -124 -1 -66 4 -85 32 -142 58 -118 161 -182 292 -182 129 0 228 60 291 176 30 56 33 72 34 143 0 91 -26 161 -84 228 -41 46 -141 96 -206 102 -44 4 -57 0 -104 -30z"/>
 <path d="M5282 3153 c-28 -93 -138 -173 -239 -173 -50 0 -52 -1 -63 -36 -19 -56 -9 -170 20 -229 31 -63 92 -124 155 -156 43 -20 64 -24 145 -24 80 0 102 4 138 23 115 61 185 172 186 292 1 100 -26 163 -98 236 -61 61 -105 83 -197 99 -34 6 -36 5 -47 -32z"/>
 <path d="M1257 2904 c-9 -3 -41 -29 -70 -58 -28 -29 -78 -65 -109 -80 -50 -24 -59 -34 -75 -74 -12 -31 -18 -73 -17 -122 0 -96 33 -170 105 -234 71 -64 144 -89 239 -84 93 6 157 36 221 105 187 200 58 527 -217 547 -32 3 -67 3 -77 0z"/>
 <path d="M5460 2469 c-25 -11 -67 -23 -95 -26 -64 -7 -108 -34 -146 -89 -47 -69 -62 -124 -57 -212 4 -57 12 -90 30 -127 82 -159 275 -224 433 -146 39 19 80 50 104 77 142 161 88 423 -103 510 -75 34 -113 37 -166 13z"/>
 <path d="M1720 2324 c-85 -31 -153 -94 -193 -181 -33 -72 -31 -189 4 -263 31 -65 95 -131 158 -162 38 -19 63 -23 141 -23 108 0 148 15 225 86 163 150 118 424 -87 530 -57 30 -183 36 -248 13z"/>
 <path d="M2401 1865 c-66 -19 -104 -42 -153 -92 -94 -97 -118 -247 -59 -368 101 -205 365 -250 526 -90 73 74 98 142 93 250 -3 57 -11 93 -27 123 -73 142 -235 217 -380 177z"/>
 <path d="M5191 1787 c-82 -169 -12 -365 159 -446 75 -36 190 -36 268 -2 68 31 151 119 176 189 25 72 20 189 -13 255 -12 26 -27 47 -31 47 -5 0 -31 -14 -58 -30 -29 -19 -80 -37 -129 -47 -75 -16 -85 -16 -159 0 -46 10 -99 30 -127 47 -27 17 -52 30 -57 30 -4 0 -18 -19 -29 -43z"/>
 <path d="M3064 1491 c-51 -13 -134 -63 -166 -100 -85 -97 -108 -241 -56 -352 90 -196 332 -255 504 -124 21 16 34 36 39 61 7 39 43 122 72 166 15 24 16 34 6 82 -34 160 -147 262 -301 271 -37 2 -81 1 -98 -4z"/>
 <path d="M5115 1345 c-29 -48 -55 -130 -55 -170 0 -27 -18 -45 -45 -45 -30 0 -45 19 -45 56 l0 32 -37 -10 c-60 -16 -105 -43 -151 -89 -62 -63 -86 -119 -90 -211 -5 -105 15 -163 84 -237 116 -125 284 -145 427 -50 44 29 107 104 107 127 0 5 -22 17 -49 26 -98 32 -141 69 -125 109 11 30 42 29 110 -4 56 -28 77 -33 143 -33 67 -1 85 3 143 32 36 18 81 49 99 69 69 79 103 203 80 290 -11 41 -13 42 -34 29 -38 -25 -128 -46 -193 -46 -117 0 -242 56 -315 143 l-26 30 -28 -48z"/>
 <path d="M3705 1207 c-64 -21 -97 -42 -141 -89 -72 -74 -89 -118 -89 -228 0 -83 3 -101 27 -145 32 -62 103 -129 166 -158 68 -31 188 -30 260 2 40 18 51 28 46 40 -28 69 -42 173 -26 197 11 17 45 25 61 15 8 -5 18 -37 23 -73 23 -173 161 -298 328 -298 108 0 218 60 276 151 l23 38 -25 55 c-34 74 -47 161 -35 233 l10 58 -45 42 c-59 56 -123 76 -222 71 -92 -4 -148 -28 -215 -93 -52 -50 -66 -54 -90 -27 -21 23 -21 33 0 71 17 29 17 30 -6 54 -12 14 -50 40 -84 58 -49 26 -75 33 -131 36 -41 1 -88 -3 -111 -10z"/>
 </g>
<g id="layer103" fill="#e4e4e4" stroke="none">
 <path d="M1404 5602 c-182 -65 -269 -275 -185 -446 57 -116 161 -181 291 -181 65 0 85 5 142 33 37 18 80 49 96 68 27 32 30 44 35 132 2 53 12 117 21 141 15 41 15 46 -3 87 -25 56 -94 124 -155 154 -66 32 -172 37 -242 12z"/>
 <path d="M372 5210 c-113 -57 -177 -161 -177 -290 0 -65 4 -85 33 -143 37 -75 103 -136 169 -157 48 -16 63 -28 63 -51 0 -17 8 -19 71 -19 69 0 70 0 81 30 6 18 23 37 42 46 51 27 96 64 127 107 16 22 29 43 29 47 0 4 -14 10 -32 14 -41 8 -68 33 -68 62 0 15 -12 30 -36 44 -19 13 -52 44 -73 70 -20 25 -42 45 -48 43 -41 -14 -81 66 -86 170 -2 68 -8 70 -95 27z"/>
 <path d="M757 4015 c-75 -53 -148 -76 -241 -76 -48 0 -99 6 -126 16 -24 8 -49 14 -56 11 -20 -8 -48 -108 -48 -176 0 -118 71 -230 181 -285 50 -26 69 -29 143 -29 68 0 94 5 131 23 204 98 256 348 108 516 -17 19 -34 35 -38 34 -3 -1 -27 -16 -54 -34z"/>
 <path d="M5282 3144 c-27 -92 -134 -167 -237 -167 l-54 0 -12 -56 c-30 -146 43 -291 180 -358 79 -39 191 -40 272 -2 69 33 127 89 160 155 33 68 34 206 2 276 -44 96 -147 172 -251 185 l-48 5 -12 -38z"/>
 <path d="M570 3101 c0 -11 10 -46 22 -78 29 -78 103 -152 183 -182 84 -32 189 -26 263 14 88 48 154 136 168 225 l7 41 -54 -53 c-155 -155 -382 -155 -536 -1 -42 42 -53 49 -53 34z"/>
 <path d="M1191 2846 c-29 -30 -78 -66 -108 -81 -69 -35 -85 -66 -91 -170 -5 -103 20 -174 84 -240 124 -128 321 -135 457 -16 43 39 93 137 102 202 9 61 -17 161 -56 219 -62 90 -158 140 -272 140 -63 0 -63 0 -116 -54z"/>
 <path d="M5789 2134 c-19 -36 -92 -99 -144 -124 -65 -31 -151 -44 -220 -31 -85 16 -142 47 -209 113 l-58 59 7 -38 c21 -113 104 -212 210 -252 117 -44 254 -12 340 80 51 54 79 110 90 177 8 49 4 53 -16 16z"/>
 <path d="M1514 1956 c12 -100 81 -186 186 -235 73 -34 182 -35 252 -4 97 44 179 147 194 245 l7 43 -46 -51 c-25 -28 -74 -65 -109 -84 -152 -81 -360 -36 -465 101 l-25 34 6 -49z"/>
 <path d="M2384 1856 c-279 -91 -300 -478 -34 -605 75 -35 191 -37 265 -3 65 30 138 102 167 166 34 76 32 191 -3 267 -33 70 -89 127 -154 158 -61 29 -179 38 -241 17z"/>
 <path d="M5204 1806 c-46 -71 -56 -192 -23 -280 80 -215 354 -278 527 -121 103 92 132 278 62 393 l-20 32 -47 -29 c-133 -81 -324 -79 -445 4 l-37 25 -17 -24z"/>
 <path d="M3738 1210 c-61 -11 -141 -55 -180 -99 -17 -19 -43 -60 -57 -91 -35 -74 -36 -192 -2 -261 35 -73 86 -125 156 -160 54 -26 76 -31 137 -31 66 -1 145 19 171 42 5 4 1 31 -7 61 -19 62 -21 150 -4 167 7 7 22 12 34 12 17 0 20 5 17 24 -3 13 4 44 15 70 12 26 17 48 11 51 -15 10 -10 57 9 78 16 19 15 21 -31 62 -69 63 -172 92 -269 75z"/>
 <path d="M4872 1180 c-69 -35 -125 -92 -155 -159 -16 -35 -21 -67 -22 -131 0 -73 4 -93 28 -142 76 -156 268 -225 424 -154 65 30 92 53 134 110 34 45 36 56 12 56 -23 0 -122 46 -145 67 -33 30 -17 83 26 83 10 0 43 -12 73 -27 77 -37 178 -43 254 -14 104 39 189 139 205 241 l7 45 -51 -53 c-33 -34 -76 -64 -119 -85 -60 -27 -78 -31 -153 -31 -74 0 -94 4 -150 30 -64 30 -120 75 -153 123 l-16 24 -20 -24 c-16 -20 -23 -22 -47 -14 -24 9 -30 17 -32 48 -4 46 -18 47 -100 7z"/>
 <path d="M2820 1137 c0 -55 42 -140 94 -193 90 -89 221 -118 338 -74 67 25 128 74 128 103 0 12 11 48 24 79 l23 57 -41 -34 c-24 -19 -69 -47 -102 -62 -79 -36 -203 -38 -279 -4 -72 32 -121 68 -155 115 -29 39 -30 39 -30 13z"/>
 <path d="M4043 741 c12 -96 90 -195 187 -239 43 -20 71 -26 130 -26 91 1 148 23 215 85 63 58 80 92 65 129 l-12 28 -43 -33 c-69 -52 -127 -70 -230 -70 -82 0 -97 3 -156 32 -40 20 -85 53 -114 84 l-48 51 6 -41z"/>
 </g>

</svg>