<!DOCTYPE svg PUBLIC "-//W3C//DTD SVG 20010904//EN" "http://www.w3.org/TR/2001/REC-SVG-20010904/DTD/svg10.dtd">
<svg version="1.0" xmlns="http://www.w3.org/2000/svg" width="624px" height="624px" viewBox="0 0 6240 6240" preserveAspectRatio="xMidYMid meet">
<g id="layer101" fill="#161616" stroke="none">
 <path d="M1883 6216 l-28 -24 0 -486 0 -486 25 -25 c19 -18 41 -27 79 -32 l53 -6 -4 -271 c-4 -263 -5 -273 -31 -349 -15 -43 -44 -104 -63 -135 -23 -36 -218 -240 -524 -547 -414 -416 -492 -499 -518 -551 -63 -125 -81 -244 -59 -371 49 -271 273 -453 557 -453 200 0 284 42 488 243 l152 151 0 -347 0 -347 45 0 45 0 0 -145 0 -145 -45 0 -45 0 0 -414 c0 -383 1 -419 20 -477 69 -226 306 -371 538 -330 59 10 94 24 205 79 4 2 7 -77 7 -176 0 -149 3 -191 19 -241 46 -147 172 -272 320 -315 79 -23 217 -21 293 5 117 39 212 118 271 226 42 79 57 153 57 290 l0 123 38 -23 c78 -50 129 -62 252 -62 97 0 124 4 173 24 125 50 238 166 282 291 17 48 20 89 23 313 l3 258 33 -19 c56 -33 142 -61 208 -68 239 -24 473 150 518 385 6 34 10 409 10 1032 l0 979 -45 0 -45 0 0 120 0 120 45 0 45 0 0 110 0 110 -45 0 -45 0 0 135 0 135 45 0 45 0 0 330 0 330 30 0 c42 0 96 24 109 48 8 14 11 176 11 502 l0 481 -25 24 -24 25 -1735 0 -1735 0 -28 -24z"/>
 </g>
<g id="layer102" fill="#fefefe" stroke="none">
 <path d="M2047 6053 c-4 -3 -7 -163 -7 -355 l0 -348 1600 0 1600 0 0 355 0 355 -1593 0 c-877 0 -1597 -3 -1600 -7z"/>
 <path d="M2190 4877 c0 -242 -2 -283 -20 -353 -23 -89 -63 -181 -111 -251 -18 -27 -192 -209 -388 -406 l-355 -357 264 -265 265 -265 82 82 83 83 0 227 0 228 90 0 90 0 0 -710 0 -710 -45 0 -45 0 0 -145 0 -145 45 0 45 0 2 -162 3 -163 293 -3 292 -2 0 610 0 610 90 0 90 0 2 -1182 3 -1183 24 -52 c48 -107 154 -175 271 -175 118 0 210 59 262 167 l28 60 0 1138 0 1137 90 0 89 0 3 -852 3 -853 28 -57 c65 -133 219 -199 356 -153 74 24 154 100 180 171 21 54 21 72 21 944 l0 890 90 0 89 0 3 -497 3 -498 28 -57 c53 -107 144 -163 267 -163 92 1 156 30 219 101 74 85 71 31 71 1126 l0 978 50 0 50 0 0 120 0 120 -50 0 -50 0 0 104 0 105 48 3 47 3 0 140 0 140 -47 3 -48 3 0 320 0 319 -1450 0 -1450 0 0 -273z m2335 -312 l25 -24 0 -485 0 -485 -24 -28 -24 -28 -341 -3 -340 -3 -3 48 -3 48 -87 3 -88 3 0 -51 0 -50 -415 0 c-467 0 -465 0 -485 68 -8 25 -10 184 -8 500 l3 464 28 24 28 24 855 0 855 0 24 -25z"/>
 <path d="M1112 3306 c-90 -95 -115 -155 -116 -276 0 -72 4 -94 28 -146 34 -77 103 -144 181 -181 54 -25 71 -28 165 -28 93 0 111 3 163 27 33 16 86 54 123 90 l65 62 -263 263 c-145 145 -266 263 -269 263 -4 0 -38 -33 -77 -74z"/>
 <path d="M2200 1228 c0 -140 2 -157 24 -203 97 -204 380 -227 507 -40 41 61 49 100 49 254 l0 141 -290 0 -290 0 0 -152z"/>
 </g>

</svg>