<!DOCTYPE svg PUBLIC "-//W3C//DTD SVG 20010904//EN" "http://www.w3.org/TR/2001/REC-SVG-20010904/DTD/svg10.dtd">
<svg version="1.0" xmlns="http://www.w3.org/2000/svg" width="676px" height="676px" viewBox="0 0 6760 6760" preserveAspectRatio="xMidYMid meet">
<g id="layer101" fill="#212121" stroke="none">
 <path d="M2885 6219 c-695 -25 -1404 -105 -2085 -235 -483 -92 -536 -111 -650 -223 -48 -48 -78 -88 -106 -145 l-39 -80 0 -160 c0 -155 1 -163 27 -220 15 -32 43 -79 62 -105 19 -26 190 -184 380 -351 l345 -305 1 -643 0 -644 29 -29 c16 -16 39 -29 50 -29 20 0 21 -5 21 -123 l0 -123 -34 -12 c-63 -23 -69 -45 -63 -221 9 -238 51 -425 140 -630 195 -443 591 -796 1049 -935 192 -59 261 -68 574 -73 l292 -5 4 -72 c7 -98 37 -164 104 -225 87 -79 117 -86 394 -86 277 0 307 7 394 86 67 61 97 127 104 226 l5 71 286 4 c244 4 302 8 395 27 236 48 472 149 656 279 123 87 327 291 413 412 129 183 228 417 279 656 23 108 23 115 28 1100 l5 992 350 310 c457 405 460 408 460 668 l0 160 -39 80 c-28 57 -58 97 -106 145 -114 112 -167 131 -650 223 -1006 192 -2052 272 -3075 235z"/>
 </g>
<g id="layer102" fill="#707070" stroke="none">
 <path d="M3233 6223 c81 -2 213 -2 295 0 81 1 14 3 -148 3 -162 0 -229 -2 -147 -3z"/>
 <path d="M2895 6010 c-649 -25 -1266 -90 -1870 -196 -345 -61 -587 -113 -640 -139 -64 -31 -119 -85 -153 -149 -24 -45 -27 -62 -27 -151 0 -107 12 -144 70 -213 46 -55 666 -597 687 -600 28 -5 321 39 333 49 6 6 -99 119 -277 297 -157 158 -291 297 -297 309 -28 56 -3 157 50 195 30 23 54 28 303 73 873 155 1811 224 2664 196 341 -11 540 -21 704 -37 86 -8 118 -35 118 -99 0 -36 -5 -48 -32 -70 -36 -30 -9 -30 -353 -4 -219 16 -1113 23 -1380 10 -395 -19 -781 -54 -1140 -102 -210 -28 -699 -109 -707 -118 -4 -3 129 -143 297 -311 l304 -304 98 12 c1182 152 2203 157 3346 16 l218 -27 305 304 c167 167 300 306 296 310 -8 8 -234 48 -467 83 -296 45 -288 43 -312 71 -55 62 -7 155 79 155 49 0 405 -54 661 -100 178 -33 216 -47 250 -91 22 -30 33 -103 23 -146 -5 -19 -105 -126 -299 -320 -175 -176 -287 -296 -282 -301 10 -9 280 -52 322 -52 31 0 688 582 725 642 90 148 52 336 -90 445 -53 40 -93 52 -342 102 -638 129 -1239 206 -1910 246 -310 18 -988 26 -1275 15z"/>
 <path d="M2910 4579 c-349 -13 -693 -41 -1050 -85 -113 -14 -215 -28 -227 -31 l-23 -5 0 -897 c0 -568 4 -938 11 -1007 65 -660 430 -1207 918 -1376 113 -38 211 -48 487 -48 l264 0 0 229 0 229 -26 6 c-15 4 -52 33 -84 64 -63 63 -90 124 -90 202 l0 47 -77 39 c-114 57 -227 172 -281 285 -22 46 -46 108 -52 138 -18 77 -16 224 5 301 31 120 114 251 204 323 49 39 51 53 7 61 -47 9 -118 59 -151 106 -82 118 -72 246 30 400 59 88 138 159 235 210 l77 40 5 62 c9 108 72 202 164 246 l34 16 -2 225 -3 226 -85 1 c-47 1 -177 -2 -290 -7z"/>
 <path d="M3477 4583 c-4 -3 -7 -106 -7 -228 l0 -221 34 -16 c92 -44 155 -139 164 -246 l5 -62 77 -40 c290 -152 418 -493 300 -799 -35 -89 -114 -198 -187 -258 l-53 -42 38 -10 c135 -37 234 -180 218 -315 -15 -136 -165 -323 -318 -400 l-78 -39 0 -47 c0 -78 -27 -139 -90 -202 -32 -31 -69 -60 -84 -64 l-26 -6 0 -229 0 -229 264 0 c276 0 374 10 487 48 297 103 555 348 723 687 145 292 206 580 206 977 l0 180 29 29 c41 41 91 40 133 -2 l31 -30 -6 -242 c-6 -268 -20 -380 -72 -583 -94 -367 -273 -679 -522 -913 -108 -102 -107 -105 37 -49 195 76 354 182 515 343 219 217 346 450 417 763 22 96 22 110 25 1064 l4 966 -28 6 c-48 10 -343 56 -358 56 -13 0 -15 -68 -15 -494 0 -291 -4 -505 -10 -520 -22 -59 -119 -71 -160 -19 -20 25 -20 37 -20 544 l0 519 -22 4 c-46 10 -349 46 -548 65 -276 27 -466 40 -770 51 -307 12 -325 12 -333 3z"/>
 <path d="M1205 4400 c-93 -16 -173 -29 -177 -29 -5 -1 -8 -278 -8 -616 0 -444 -3 -621 -12 -640 -6 -14 -28 -33 -50 -42 l-38 -17 0 -131 0 -131 35 -13 c52 -18 62 -47 68 -206 17 -392 162 -722 441 -1001 162 -162 315 -263 518 -343 141 -55 143 -52 35 50 -253 237 -435 559 -526 929 -66 268 -64 232 -68 1273 l-4 947 -22 -1 c-12 0 -98 -14 -192 -29z"/>
 <path d="M3335 3941 c-41 -17 -50 -41 -55 -142 -5 -86 -8 -101 -30 -124 -13 -14 -42 -30 -64 -36 -102 -28 -196 -98 -257 -192 -45 -70 -56 -115 -39 -158 22 -52 101 -76 147 -44 11 8 35 39 52 69 57 101 131 136 291 136 156 0 232 -34 287 -128 23 -39 28 -59 28 -117 0 -58 -5 -78 -28 -117 -58 -99 -123 -127 -292 -128 -185 0 -273 -30 -373 -123 -253 -240 -154 -652 184 -761 79 -26 88 -40 92 -156 4 -87 7 -103 27 -124 13 -14 35 -28 49 -32 37 -9 74 3 101 32 20 21 23 37 27 124 4 118 12 130 103 160 82 27 140 65 197 128 77 87 104 163 76 215 -18 34 -40 46 -81 47 -51 0 -72 -12 -101 -63 -33 -55 -82 -102 -128 -121 -53 -22 -283 -22 -336 0 -47 19 -98 68 -123 116 -62 121 -9 273 116 333 32 15 74 20 200 25 132 6 170 11 214 29 156 63 264 211 278 381 18 209 -119 405 -325 465 -75 22 -92 53 -92 167 0 76 -3 90 -23 113 -24 29 -86 42 -122 26z"/>
 <path d="M824 3320 c0 -118 2 -167 3 -107 2 59 2 155 0 215 -1 59 -3 10 -3 -108z"/>
 <path d="M5935 3005 c0 -291 1 -409 2 -262 2 148 2 386 0 530 -1 144 -2 24 -2 -268z"/>
 <path d="M3268 3243 c-17 -20 -48 -78 -48 -90 0 -4 57 -6 127 -5 137 4 163 13 163 57 0 43 -29 55 -132 55 -78 0 -98 -3 -110 -17z"/>
 <path d="M824 2605 c0 -71 1 -99 3 -62 2 37 2 96 0 130 -2 34 -3 4 -3 -68z"/>
 <path d="M3386 2563 c-116 -4 -136 -11 -136 -49 0 -44 23 -54 128 -54 53 0 102 4 107 8 11 8 65 88 65 97 0 3 -12 4 -27 3 -16 -1 -77 -4 -137 -5z"/>
 <path d="M3090 889 c0 -58 20 -99 60 -123 41 -24 419 -24 460 0 40 24 60 65 60 123 l0 51 -290 0 -290 0 0 -51z"/>
 <path d="M3278 543 c56 -2 148 -2 205 0 56 1 10 3 -103 3 -113 0 -159 -2 -102 -3z"/>
 </g>
<g id="layer103" fill="#a1a1a1" stroke="none">
 <path d="M3233 6223 c82 -2 212 -2 290 0 78 1 12 3 -148 3 -159 0 -223 -2 -142 -3z"/>
 <path d="M2465 5849 c-611 -16 -1227 -76 -1855 -180 -314 -51 -312 -51 -343 -97 -47 -68 -61 -112 -61 -197 0 -86 15 -133 59 -191 14 -18 175 -165 359 -327 l333 -294 164 25 c90 13 166 26 168 29 3 2 -126 135 -286 296 -194 194 -294 301 -299 320 -10 43 1 116 23 146 34 44 76 61 232 91 435 84 988 155 1541 196 289 21 1146 30 1465 15 335 -16 515 -30 547 -42 63 -25 78 -107 29 -161 -34 -38 -33 -38 -301 -19 -831 59 -1816 24 -2650 -95 -280 -40 -628 -98 -637 -107 -1 -2 132 -138 297 -302 l299 -299 263 32 c1089 132 2053 132 3136 0 l263 -32 299 299 c165 165 298 301 296 302 -7 7 -271 53 -503 88 -129 20 -244 40 -254 46 -30 16 -52 67 -45 105 8 39 57 84 93 84 42 0 485 -69 676 -105 182 -34 225 -50 260 -96 22 -30 33 -103 23 -146 -5 -19 -105 -126 -299 -320 -160 -161 -289 -294 -286 -296 2 -2 64 -13 138 -25 l135 -20 135 120 c160 142 204 196 231 285 65 212 -30 433 -226 525 -151 71 -1072 227 -1689 287 -402 39 -1132 75 -1390 69 -33 -1 -186 -5 -340 -9z"/>
 <path d="M2860 4573 c-283 -15 -447 -26 -632 -43 -251 -24 -598 -66 -607 -75 -3 -4 -6 -421 -6 -928 0 -1008 1 -1016 62 -1267 130 -535 472 -957 878 -1083 122 -38 213 -47 481 -47 l244 0 0 228 0 227 -50 27 c-48 27 -101 86 -122 138 -6 14 -13 54 -17 89 l-6 64 -60 31 c-167 85 -276 211 -332 380 -22 69 -26 99 -26 196 0 98 4 127 27 197 32 100 106 214 181 281 l55 48 -57 24 c-175 72 -232 258 -138 440 53 102 174 223 270 271 39 19 73 39 77 44 4 6 8 33 8 60 0 31 9 69 24 100 23 51 96 126 141 147 l25 11 0 224 0 223 -182 -2 c-101 -1 -208 -3 -238 -5z"/>
 <path d="M3480 4358 l0 -225 25 -11 c45 -21 118 -96 141 -147 15 -31 24 -69 24 -100 0 -27 4 -54 8 -60 4 -5 39 -25 77 -44 50 -25 93 -58 150 -115 133 -133 188 -266 188 -451 0 -184 -55 -316 -189 -452 l-80 -83 50 -16 c74 -25 156 -110 180 -188 57 -181 -81 -410 -319 -532 l-60 -31 -6 -64 c-4 -35 -11 -75 -17 -89 -21 -52 -74 -111 -122 -138 l-50 -27 0 -227 0 -228 244 0 c135 0 280 5 322 11 455 63 850 466 1013 1033 60 207 78 341 87 635 6 196 9 225 26 246 37 47 129 38 158 -14 15 -29 12 -405 -4 -541 -18 -145 -58 -324 -103 -460 -98 -297 -297 -608 -501 -785 -35 -30 -56 -55 -48 -55 28 0 147 49 255 105 278 145 506 378 646 660 70 141 104 238 137 391 21 96 21 123 25 1048 2 522 0 953 -4 957 -5 5 -80 20 -168 34 -88 13 -175 27 -192 30 l-33 6 0 -501 c0 -514 -1 -528 -39 -557 -29 -22 -95 -16 -123 12 l-25 24 -7 523 c-3 287 -8 523 -10 525 -6 6 -284 41 -496 63 -304 30 -603 49 -897 57 l-263 6 0 -225z"/>
 <path d="M1221 4399 c-96 -15 -180 -30 -188 -33 -11 -4 -13 -118 -13 -624 0 -605 0 -620 -20 -645 -11 -14 -34 -28 -50 -32 l-30 -7 0 -134 c0 -129 1 -134 21 -134 11 0 33 -12 48 -28 27 -26 28 -31 34 -170 14 -311 106 -582 280 -829 76 -108 236 -269 345 -346 125 -90 382 -217 438 -217 8 0 -11 23 -43 50 -140 122 -299 332 -392 519 -96 192 -156 374 -203 621 -21 112 -21 138 -25 1078 -3 740 -7 962 -16 961 -7 -1 -90 -14 -186 -30z"/>
 <path d="M3345 3936 c-46 -21 -58 -51 -63 -153 -4 -83 -7 -94 -31 -116 -14 -13 -51 -32 -81 -41 -188 -59 -341 -276 -255 -361 18 -19 35 -25 65 -25 47 0 69 19 123 105 46 73 110 105 225 112 178 12 277 -24 337 -121 27 -44 30 -58 30 -131 0 -73 -3 -87 -30 -131 -19 -30 -49 -60 -79 -79 -47 -28 -55 -30 -201 -36 -176 -8 -236 -22 -321 -77 -237 -154 -270 -490 -66 -684 62 -59 116 -91 193 -114 70 -21 89 -50 89 -138 0 -126 28 -176 100 -176 72 0 100 50 100 176 0 89 19 117 93 139 48 14 131 57 168 87 27 22 98 122 114 161 22 52 19 65 -19 103 -59 59 -92 45 -194 -84 -56 -71 -96 -86 -248 -90 -118 -4 -136 -2 -183 18 -157 68 -203 277 -88 399 18 18 55 44 82 57 44 21 65 24 167 24 132 0 200 11 273 46 101 47 186 145 226 262 23 65 27 176 9 243 -40 148 -169 278 -316 318 -22 6 -51 22 -64 36 -21 23 -25 39 -30 123 -6 110 -16 135 -61 151 -18 6 -32 11 -33 11 -1 -1 -14 -7 -31 -14z"/>
 <path d="M3284 3252 c-7 -4 -23 -28 -38 -54 l-26 -47 128 5 c70 3 133 7 140 10 17 5 15 60 -4 78 -12 12 -36 16 -102 16 -48 0 -92 -4 -98 -8z"/>
 <path d="M3406 2563 c-67 -2 -126 -8 -133 -15 -17 -14 -17 -63 1 -77 9 -8 48 -11 112 -9 l98 3 27 45 c29 47 34 61 22 58 -5 -1 -62 -4 -127 -5z"/>
 <path d="M3100 879 c0 -45 4 -55 34 -85 l34 -34 212 0 212 0 34 34 c30 30 34 40 34 85 l0 51 -280 0 -280 0 0 -51z"/>
 <path d="M3283 543 c53 -2 141 -2 195 0 53 1 9 3 -98 3 -107 0 -151 -2 -97 -3z"/>
 </g>
<g id="layer104" fill="#fcfcfc" stroke="none">
 <path d="M2975 4569 c-261 -8 -574 -29 -830 -55 -178 -18 -471 -52 -502 -59 l-23 -5 0 -914 c0 -1014 1 -1042 65 -1292 85 -331 231 -593 451 -804 166 -160 331 -249 539 -291 37 -7 162 -12 330 -13 l270 -1 3 222 2 222 -40 21 c-91 47 -160 156 -160 255 l0 44 -72 37 c-108 56 -222 174 -277 284 -125 255 -81 534 114 739 l74 77 -48 17 c-90 32 -169 135 -186 244 -24 149 132 383 317 478 78 40 78 40 78 81 0 104 71 219 159 259 l41 18 -2 221 -3 221 -25 1 c-14 1 -137 -2 -275 -7z"/>
 <path d="M3485 4572 c-3 -3 -5 -103 -5 -222 l0 -217 41 -18 c87 -40 159 -157 159 -259 l0 -41 78 -40 c254 -130 393 -441 322 -721 -36 -139 -113 -265 -210 -342 l-49 -39 37 -11 c94 -28 178 -114 203 -206 34 -125 -23 -270 -155 -401 -56 -56 -104 -93 -153 -119 l-73 -37 0 -44 c0 -99 -69 -208 -160 -255 l-40 -21 2 -222 3 -222 270 1 c168 1 293 6 330 13 208 42 373 131 539 291 251 241 415 568 488 970 15 86 22 178 27 368 l6 254 33 29 c68 61 153 23 168 -77 10 -66 -12 -488 -31 -594 -81 -445 -253 -799 -520 -1067 -68 -68 -120 -123 -117 -123 2 0 46 16 96 36 210 84 390 206 546 371 193 203 318 442 382 733 l23 105 0 959 0 960 -175 27 c-96 15 -181 28 -187 28 -10 1 -13 -101 -13 -476 0 -297 -4 -492 -10 -515 -22 -78 -103 -102 -162 -49 l-33 29 -3 521 c-2 482 -4 520 -20 525 -31 9 -454 57 -677 76 -319 27 -947 54 -960 42z"/>
 <path d="M1205 4389 c-93 -15 -171 -28 -172 -28 -2 -1 -3 -276 -3 -611 0 -678 2 -658 -66 -686 l-34 -14 0 -129 0 -128 30 -6 c54 -11 67 -49 73 -210 6 -158 24 -266 69 -407 107 -336 349 -639 661 -824 79 -48 236 -120 303 -140 11 -3 -34 49 -101 116 -294 298 -483 719 -534 1190 -7 60 -11 418 -11 941 0 464 -3 872 -6 906 -5 47 -10 61 -23 60 -9 -1 -92 -14 -186 -30z"/>
 <path d="M3274 3238 c-12 -17 -44 -75 -44 -80 0 -8 246 4 257 14 16 13 17 50 1 66 -17 17 -202 16 -214 0z"/>
 <path d="M3276 2544 c-21 -21 -20 -47 3 -68 15 -14 35 -16 107 -14 l88 3 28 40 c15 22 27 43 28 48 0 4 -54 7 -119 7 -95 0 -123 -3 -135 -16z"/>
 </g>

</svg>