<!DOCTYPE svg PUBLIC "-//W3C//DTD SVG 20010904//EN" "http://www.w3.org/TR/2001/REC-SVG-20010904/DTD/svg10.dtd">
<svg version="1.0" xmlns="http://www.w3.org/2000/svg" width="600px" height="600px" viewBox="0 0 6000 6000" preserveAspectRatio="xMidYMid meet">
<g id="layer101" fill="#0a0a0a" stroke="none">
 <path d="M2080 5984 c-50 -22 -89 -61 -116 -119 l-24 -50 0 -1214 c0 -932 3 -1223 12 -1255 8 -24 32 -61 60 -90 l48 -50 0 -155 c0 -176 10 -211 72 -270 l36 -33 4 -227 c4 -203 7 -232 27 -283 23 -60 107 -162 142 -173 17 -6 19 -16 19 -101 0 -114 13 -145 70 -170 l40 -18 0 -136 0 -136 -35 -13 c-48 -17 -75 -58 -75 -116 0 -40 5 -52 34 -81 19 -19 43 -34 55 -34 20 0 21 -4 21 -144 l0 -144 -30 -7 c-16 -4 -41 -20 -55 -37 l-25 -30 0 -415 0 -415 34 -34 34 -34 109 0 c320 0 618 112 809 304 113 114 180 224 234 384 56 167 60 223 60 824 0 533 0 547 19 553 35 11 119 113 142 173 20 51 23 80 27 283 l4 227 36 33 c62 59 72 94 72 270 l0 155 48 50 c28 29 52 66 60 90 9 32 12 323 12 1255 l0 1214 -24 50 c-13 28 -36 62 -52 77 -65 61 -21 58 -986 58 -766 -1 -888 -3 -918 -16z"/>
 </g>
<g id="layer102" fill="#a7a7a7" stroke="none">
 <path d="M2180 4595 l0 -1175 820 0 820 0 0 1175 0 1175 -820 0 -820 0 0 -1175z m1340 920 c61 -32 60 -25 60 -425 0 -363 0 -365 -23 -393 -43 -55 -138 -51 -181 6 -20 28 -21 39 -21 392 l0 363 25 27 c43 46 89 56 140 30z m-6 -1169 c45 -19 66 -52 66 -104 0 -37 -6 -50 -34 -78 -27 -27 -42 -34 -72 -34 -81 0 -135 67 -114 141 12 40 28 59 65 75 39 17 49 17 89 0z"/>
 <path d="M2300 3185 c-1 -3 -1 -56 -1 -117 l0 -113 701 0 701 0 0 115 0 115 -700 3 c-386 1 -701 0 -701 -3z"/>
 <path d="M2410 2540 c0 -198 7 -230 55 -268 28 -22 30 -22 535 -22 505 0 507 0 535 22 48 38 55 70 55 268 l0 180 -590 0 -590 0 0 -180z"/>
 <path d="M2597 2013 c-4 -3 -7 -39 -7 -79 0 -63 -3 -76 -26 -103 -14 -17 -40 -35 -57 -39 l-32 -8 0 -144 0 -144 32 -8 c47 -12 83 -60 83 -112 0 -55 -28 -92 -81 -107 l-40 -12 3 -146 3 -146 27 -3 c37 -4 88 -56 88 -89 0 -24 5 -22 68 38 157 151 316 231 554 279 53 11 109 20 125 20 15 0 38 3 51 6 l22 6 -2 397 -3 396 -401 3 c-220 1 -403 -1 -407 -5z"/>
 <path d="M3250 965 c-342 -69 -566 -287 -634 -617 -24 -117 -27 -112 52 -103 111 12 211 42 322 96 91 45 116 63 190 138 67 68 94 104 127 171 42 87 76 195 89 283 l6 47 -43 -1 c-24 0 -73 -7 -109 -14z"/>
 </g>
<g id="layer103" fill="#f5f5f5" stroke="none">
 <path d="M2180 4590 l0 -1170 820 0 820 0 0 1170 0 1170 -820 0 -820 0 0 -1170z m1355 918 c53 -41 55 -59 55 -419 0 -288 -2 -335 -17 -366 -37 -78 -127 -94 -187 -34 l-31 31 -3 355 c-2 315 -1 359 14 391 30 63 115 85 169 42z m11 -1179 c37 -35 49 -87 31 -131 -26 -63 -92 -87 -159 -60 -32 13 -68 66 -68 100 0 36 27 85 58 105 37 24 105 17 138 -14z"/>
 <path d="M2300 3070 l0 -110 700 0 700 0 0 110 0 110 -700 0 -700 0 0 -110z"/>
 <path d="M2600 1949 c0 -98 -26 -136 -112 -163 -16 -5 -18 -21 -18 -145 l0 -141 28 -6 c74 -18 118 -92 92 -154 -16 -39 -65 -80 -96 -80 l-24 0 0 -145 c0 -131 2 -145 18 -145 31 0 83 -40 98 -76 l15 -36 72 69 c154 150 354 241 611 279 l116 18 0 393 0 393 -400 0 -400 0 0 -61z"/>
 <path d="M3273 965 c-381 -69 -614 -309 -667 -688 l-5 -37 57 6 c99 11 241 52 326 93 229 112 360 303 405 589 8 52 8 52 -18 51 -14 0 -58 -7 -98 -14z"/>
 </g>

</svg>