<!DOCTYPE svg PUBLIC "-//W3C//DTD SVG 20010904//EN" "http://www.w3.org/TR/2001/REC-SVG-20010904/DTD/svg10.dtd">
<svg version="1.0" xmlns="http://www.w3.org/2000/svg" width="600px" height="600px" viewBox="0 0 6000 6000" preserveAspectRatio="xMidYMid meet">
<g id="layer101" fill="#fbfbfb" stroke="none">
 <path d="M2650 5575 c-554 -69 -1070 -286 -1510 -635 -133 -105 -372 -344 -478 -477 -366 -462 -594 -1023 -652 -1602 -6 -64 -10 -536 -10 -1243 l0 -1140 34 -34 c31 -31 40 -34 91 -34 51 0 60 3 90 33 30 30 33 40 39 112 23 307 139 656 372 1115 148 294 312 572 424 720 72 94 202 219 305 289 72 50 266 154 273 146 2 -1 14 -57 28 -124 43 -215 126 -429 224 -581 65 -100 181 -208 275 -257 395 -203 1028 -236 1502 -78 222 74 345 164 460 335 91 135 186 381 226 585 15 80 26 115 36 115 25 0 225 -110 296 -163 173 -129 285 -262 447 -533 368 -613 588 -1153 617 -1516 6 -65 15 -126 20 -137 22 -41 61 -61 118 -61 49 0 59 4 89 34 l35 35 -4 1208 c-3 1177 -3 1211 -24 1338 -70 427 -189 762 -394 1108 -123 207 -259 380 -452 575 -454 460 -1029 752 -1677 853 -178 28 -625 35 -800 14z m-2 -1634 c12 -6 24 -20 27 -31 15 -47 -60 -225 -149 -355 -55 -80 -61 -130 -23 -186 39 -59 54 -60 517 -57 413 3 415 3 447 26 37 26 58 80 50 127 -3 19 -29 68 -57 110 -66 98 -117 205 -132 279 -12 56 -12 59 10 77 46 37 183 37 267 0 94 -41 169 -161 202 -321 21 -104 23 -347 4 -465 -40 -246 -143 -421 -276 -470 -149 -55 -341 -133 -431 -175 l-103 -48 -128 57 c-70 32 -195 84 -278 115 -191 73 -192 73 -243 124 -139 137 -214 505 -167 812 34 226 114 347 252 386 53 15 179 12 211 -5z"/>
 </g>

</svg>