<!DOCTYPE svg PUBLIC "-//W3C//DTD SVG 20010904//EN" "http://www.w3.org/TR/2001/REC-SVG-20010904/DTD/svg10.dtd">
<svg version="1.0" xmlns="http://www.w3.org/2000/svg" width="600px" height="600px" viewBox="0 0 6000 6000" preserveAspectRatio="xMidYMid meet">
<g id="layer101" fill="#050505" stroke="none">
 <path d="M2691 5207 c-13 -6 -34 -25 -45 -40 -20 -27 -21 -41 -24 -391 l-3 -363 -46 -7 c-83 -11 -78 -16 -96 92 -9 53 -28 138 -42 187 -32 111 -134 325 -173 365 -78 77 -206 24 -204 -85 0 -28 16 -69 51 -135 60 -114 104 -243 126 -364 8 -49 14 -90 13 -91 -2 -2 -47 -11 -100 -22 l-98 -19 0 32 c0 53 -46 217 -84 299 -59 127 -152 255 -210 288 -81 45 -176 -14 -176 -110 0 -33 10 -53 60 -119 101 -132 160 -275 163 -395 l2 -61 -66 -23 -66 -22 -13 56 c-17 81 -61 179 -113 259 -81 121 -250 263 -341 286 -39 10 -91 -10 -121 -45 -53 -64 -24 -154 66 -199 57 -29 164 -134 203 -199 36 -59 70 -150 79 -214 6 -37 6 -37 -53 -67 -33 -17 -62 -30 -65 -30 -2 0 -19 28 -36 63 -96 192 -275 354 -469 427 -74 28 -121 21 -162 -22 -22 -24 -28 -40 -28 -75 0 -71 20 -94 134 -148 86 -41 113 -61 181 -129 48 -49 93 -105 112 -141 52 -100 52 -99 -12 -141 l-55 -37 -38 44 c-117 139 -332 275 -451 287 -83 8 -141 -41 -141 -120 0 -58 30 -93 108 -122 116 -44 200 -102 291 -199 l34 -36 -34 -28 c-100 -84 -222 -200 -235 -224 -8 -15 -14 -47 -14 -70 0 -33 6 -47 34 -75 30 -30 40 -34 85 -34 50 0 51 1 168 106 519 469 1104 718 1792 765 279 19 613 -15 902 -90 470 -123 904 -367 1265 -713 71 -67 72 -68 127 -68 48 0 59 4 85 30 37 36 48 87 29 132 -14 32 -108 127 -215 217 -28 24 -52 48 -52 53 0 17 96 111 155 151 32 22 95 56 140 74 102 43 125 68 125 135 0 44 -4 54 -34 84 -47 47 -102 47 -210 -1 -127 -55 -184 -94 -289 -197 l-99 -97 -53 35 c-50 34 -53 38 -44 62 29 75 81 154 145 218 58 59 90 81 180 125 95 47 111 59 128 92 33 68 -7 155 -80 173 -72 18 -278 -90 -399 -210 -80 -79 -118 -132 -166 -227 -17 -35 -34 -66 -36 -68 -2 -3 -30 8 -63 24 -68 32 -70 40 -45 135 37 139 145 281 267 349 67 38 88 66 88 121 0 56 -22 94 -66 115 -47 22 -84 15 -163 -33 -175 -106 -317 -296 -362 -482 -7 -30 -16 -59 -20 -64 -4 -4 -37 2 -73 14 -76 25 -74 21 -50 138 27 133 83 244 187 376 35 43 40 110 13 151 -19 29 -71 55 -108 55 -111 0 -295 -305 -338 -557 -7 -42 -17 -73 -23 -73 -7 0 -47 7 -90 15 -43 8 -81 15 -83 15 -9 0 -3 62 11 132 24 114 53 194 116 321 33 65 59 130 59 146 0 43 -40 94 -87 110 -35 13 -46 13 -79 0 -32 -12 -47 -28 -87 -94 -82 -138 -158 -360 -173 -504 -9 -83 -11 -84 -83 -76 l-61 7 0 355 c0 389 -2 402 -59 436 -34 20 -86 22 -120 4z"/>
 <path d="M5014 2452 c-487 -343 -843 -587 -875 -600 -65 -27 -179 -52 -234 -52 -22 0 -69 7 -105 14 -53 11 -1622 543 -2965 1004 l-280 96 -111 1 c-108 0 -112 -1 -187 -38 -171 -84 -257 -228 -257 -428 0 -184 89 -344 241 -432 64 -38 1167 -457 1201 -457 37 0 67 15 94 46 l20 25 130 -50 129 -49 2 -42 c4 -110 127 -159 207 -81 l32 31 99 -38 c94 -36 100 -40 97 -64 -4 -35 21 -93 50 -112 46 -30 971 -377 1069 -401 150 -36 284 -49 449 -42 361 15 689 146 964 385 153 134 132 104 910 1247 298 438 306 451 306 498 0 42 -5 54 -34 83 -29 29 -41 34 -83 34 -48 0 -56 -5 -869 -578z"/>
 </g>
<g id="layer102" fill="#fefeff" stroke="none">
 <path d="M349 2657 c-149 -79 -150 -324 -2 -421 22 -14 285 -120 586 -235 300 -116 556 -215 567 -221 33 -18 53 -58 52 -105 l0 -43 134 -51 135 -51 30 35 c76 86 199 34 199 -84 l0 -39 73 -28 c39 -14 87 -33 105 -40 30 -12 33 -12 49 12 19 30 63 54 97 54 13 0 235 -81 493 -179 257 -99 493 -186 523 -195 165 -47 417 -60 586 -31 291 51 574 209 764 427 36 42 181 245 320 450 140 205 279 409 309 452 31 44 49 76 41 71 -8 -5 -251 -175 -540 -378 -289 -204 -554 -385 -590 -403 -144 -71 -308 -101 -465 -84 -94 11 -183 39 -1370 445 -236 81 -533 182 -660 225 -347 118 -1034 353 -1169 399 -142 49 -201 53 -267 18z"/>
 </g>

</svg>