<!DOCTYPE svg PUBLIC "-//W3C//DTD SVG 20010904//EN" "http://www.w3.org/TR/2001/REC-SVG-20010904/DTD/svg10.dtd">
<svg version="1.0" xmlns="http://www.w3.org/2000/svg" width="600px" height="600px" viewBox="0 0 6000 6000" preserveAspectRatio="xMidYMid meet">
<g id="layer101" fill="#fefefe" stroke="none">
 <path d="M3072 5985 c-18 -8 -59 -30 -90 -49 -31 -19 -90 -44 -129 -55 -40 -12 -106 -30 -145 -42 -286 -82 -692 -382 -1053 -778 -678 -744 -1182 -1689 -1270 -2379 -23 -182 -17 -1458 8 -1622 80 -527 273 -834 617 -981 160 -68 398 -96 593 -69 282 38 609 156 825 296 103 67 241 180 278 229 38 50 46 148 14 187 -18 23 -29 28 -68 28 -38 0 -83 -17 -232 -86 -333 -155 -533 -225 -740 -259 -117 -20 -274 -16 -351 9 -262 83 -389 322 -389 732 l0 102 67 -25 c242 -88 705 -119 974 -64 82 16 210 50 254 67 6 3 30 -24 54 -60 44 -68 93 -115 147 -141 40 -19 114 -19 157 -2 49 21 155 141 191 216 l31 66 5 830 c6 922 1 862 74 942 21 24 62 52 98 68 53 24 80 29 169 33 164 7 274 -35 356 -134 19 -24 39 -44 44 -44 5 0 93 126 196 280 l186 280 182 0 181 0 198 -209 c109 -115 197 -213 196 -217 -2 -5 -33 -15 -69 -22 -74 -15 -194 -64 -279 -114 -60 -35 -252 -215 -252 -235 0 -20 17 -16 130 31 179 76 282 99 445 100 158 1 213 -11 326 -70 146 -77 278 -236 360 -437 43 -104 60 -177 70 -309 6 -85 14 -129 29 -158 34 -67 105 -67 144 0 20 33 21 50 21 285 -1 239 -2 254 -28 350 -32 119 -109 280 -169 352 -95 114 -206 181 -351 212 l-82 17 -339 402 -338 402 -382 0 -381 0 -185 -185 -185 -185 -185 185 -185 185 -370 2 -370 3 80 59 c95 69 283 163 414 206 219 73 483 107 746 96 315 -14 442 -43 665 -154 l155 -77 105 -3 c91 -4 108 -2 128 15 34 27 21 63 -47 125 -216 198 -612 408 -883 468 l-58 13 0 369 c0 422 -12 383 106 347 312 -95 747 -474 1129 -980 135 -179 246 -349 391 -596 136 -235 168 -273 225 -273 33 0 40 4 45 26 4 14 4 61 1 103 -6 89 -43 189 -167 448 -234 487 -527 902 -877 1243 -270 264 -493 420 -693 485 -54 18 -109 43 -224 104 -51 27 -69 31 -135 31 -43 -1 -90 -7 -109 -15z m-84 -1290 c-2 -2 -53 -10 -114 -19 -137 -20 -241 -47 -358 -92 -104 -40 -273 -123 -371 -183 -37 -23 -70 -40 -72 -37 -3 2 0 51 6 108 45 448 312 758 790 918 l116 39 3 -366 c1 -201 1 -367 0 -368z m-1211 -1740 c274 -79 457 -233 547 -459 29 -71 61 -210 93 -396 23 -134 26 -483 4 -545 -16 -48 -43 -79 -81 -95 -24 -10 -44 -7 -137 24 -201 64 -295 79 -508 80 -170 0 -203 -3 -315 -27 -128 -27 -253 -64 -372 -110 l-68 -26 0 453 c0 255 5 500 11 561 31 314 132 475 340 545 128 43 323 41 486 -5z"/>
 <path d="M4330 1559 c-114 -15 -222 -39 -329 -75 -109 -36 -301 -122 -301 -134 0 -12 200 -101 306 -136 341 -111 704 -111 1043 2 108 36 301 122 301 134 0 11 -209 106 -295 133 -241 78 -502 105 -725 76z"/>
 <path d="M3539 727 c-120 -81 -103 -196 51 -341 203 -191 506 -324 850 -372 175 -25 432 -15 565 20 186 50 354 145 467 263 52 55 118 147 118 164 0 4 -25 -8 -56 -26 -189 -114 -471 -177 -794 -178 -172 0 -242 10 -372 54 -178 60 -357 171 -508 315 -53 52 -114 101 -133 109 -56 23 -147 20 -188 -8z"/>
 </g>

</svg>