<!DOCTYPE svg PUBLIC "-//W3C//DTD SVG 20010904//EN" "http://www.w3.org/TR/2001/REC-SVG-20010904/DTD/svg10.dtd">
<svg version="1.0" xmlns="http://www.w3.org/2000/svg" width="600px" height="600px" viewBox="0 0 6000 6000" preserveAspectRatio="xMidYMid meet">
<g id="layer101" fill="#020202" stroke="none">
 <path d="M2785 5994 c-416 -61 -768 -240 -1045 -530 -445 -467 -592 -1141 -386 -1758 41 -123 107 -261 142 -296 21 -21 34 -25 83 -25 53 1 61 -2 75 -25 8 -15 37 -55 65 -90 45 -59 48 -66 35 -84 -19 -27 -18 -106 2 -134 34 -48 104 -65 158 -37 31 16 33 16 91 -31 22 -17 58 -44 79 -58 38 -26 40 -28 37 -79 -3 -66 19 -96 97 -136 l55 -28 -70 -21 c-124 -38 -224 -130 -269 -249 -13 -33 -21 -42 -33 -37 -109 46 -227 56 -322 28 -161 -48 -281 -191 -296 -354 l-5 -56 -60 10 c-174 29 -361 -73 -441 -241 -30 -64 -32 -75 -32 -179 l0 -110 -65 -11 c-36 -5 -87 -21 -114 -33 -76 -36 -161 -121 -198 -199 -28 -58 -33 -78 -36 -166 -3 -87 -1 -109 20 -165 l24 -66 -68 -32 c-86 -41 -157 -112 -200 -199 -32 -65 -33 -72 -33 -183 0 -111 1 -118 34 -185 44 -89 113 -157 199 -198 63 -30 73 -32 182 -32 109 0 119 2 182 32 88 41 160 113 201 201 27 57 32 81 35 162 4 92 -4 134 -43 223 -5 11 -3 17 6 17 30 0 117 50 166 94 36 33 64 71 90 124 37 74 38 79 38 187 l0 112 69 12 c179 30 318 171 348 352 l10 66 52 -9 c67 -11 174 6 241 37 97 46 185 143 214 237 l12 36 42 -18 c183 -81 409 -18 523 144 l20 28 58 -41 c83 -58 143 -76 251 -75 107 1 179 25 254 84 45 36 50 38 56 21 11 -36 105 -120 167 -150 115 -57 252 -61 364 -12 l41 18 28 -65 c72 -164 274 -275 444 -244 58 10 54 15 66 -80 20 -156 173 -301 348 -331 l62 -10 0 -111 c0 -105 2 -115 32 -176 54 -110 134 -186 236 -221 28 -10 36 -17 31 -29 -90 -213 -35 -434 137 -549 85 -57 150 -74 263 -69 76 3 102 9 158 35 87 41 148 98 191 181 115 219 25 491 -195 587 l-65 28 18 41 c111 252 -50 547 -321 589 l-65 11 0 111 c0 108 -1 113 -38 187 -81 165 -261 261 -435 232 l-60 -10 -5 61 c-20 259 -302 429 -562 341 -38 -14 -70 -24 -71 -23 0 1 -9 22 -18 47 -48 123 -158 216 -295 251 l-44 11 97 51 c147 79 269 170 397 297 132 131 188 202 275 347 274 455 319 1041 118 1539 -79 198 -119 243 -202 232 l-41 -6 -68 92 -68 91 19 38 c36 74 -13 155 -98 164 -32 4 -53 1 -71 -11 -24 -16 -26 -15 -107 45 -46 34 -88 64 -95 66 -8 3 -9 12 -1 33 12 36 -3 88 -35 118 -31 29 -195 105 -304 141 -177 58 -286 74 -518 77 -115 1 -223 0 -240 -2z m-145 -896 l0 -123 -85 85 -85 85 72 37 c40 20 79 37 86 38 9 0 12 -31 12 -122z m818 84 l72 -37 -85 -85 -85 -85 0 123 c0 91 3 122 13 122 6 -1 45 -18 85 -38z m-818 -1550 l0 -323 -22 6 c-53 16 -186 95 -260 154 -87 69 -158 149 -225 253 -153 236 -197 554 -116 832 4 15 68 -44 314 -290 l309 -309 0 -323z m1366 837 c22 -97 22 -308 1 -404 -54 -243 -178 -446 -364 -595 -74 -60 -207 -138 -260 -155 l-23 -6 0 323 0 323 307 307 c221 221 310 304 315 294 4 -8 15 -47 24 -87z"/>
 </g>
<g id="layer102" fill="#a7a7a7" stroke="none">
 <path d="M2852 5759 c-202 -18 -437 -95 -617 -204 -371 -223 -621 -579 -711 -1015 -23 -108 -26 -409 -5 -520 21 -116 77 -291 127 -398 52 -111 54 -155 10 -201 l-26 -27 49 -70 c92 -127 83 -120 126 -100 78 37 165 -15 165 -98 0 -23 -7 -52 -17 -65 -14 -21 -14 -25 -2 -35 8 -6 42 -32 74 -57 94 -73 101 -75 136 -45 50 42 89 39 212 -19 109 -51 212 -86 327 -111 121 -27 477 -27 600 -1 518 111 935 474 1116 974 63 173 78 273 78 498 0 169 -4 216 -23 305 -24 112 -71 247 -127 362 -45 96 -44 127 8 185 l20 22 -46 63 c-89 124 -90 125 -121 108 -15 -8 -46 -14 -68 -14 -80 3 -138 109 -92 170 8 10 15 22 15 27 0 7 -156 126 -177 134 -7 3 -27 -7 -44 -21 -38 -32 -93 -34 -150 -6 -162 83 -380 145 -565 160 -139 11 -137 11 -272 -1z m-15 -278 c12 -9 26 -26 32 -39 7 -15 11 -159 11 -418 l0 -394 -32 -35 c-31 -32 -50 -39 -108 -36 -18 1 -95 71 -292 269 -293 291 -303 306 -275 374 36 87 334 249 537 293 61 14 94 10 127 -14z m593 -27 c160 -55 366 -185 397 -249 11 -23 13 -44 8 -71 -6 -34 -39 -71 -273 -301 -177 -175 -277 -266 -297 -271 -42 -12 -85 2 -117 38 l-28 30 0 399 0 399 26 31 c47 56 109 55 284 -5z m-973 -976 l423 -423 0 -479 0 -478 -34 -34 c-42 -42 -83 -44 -194 -13 -409 115 -744 447 -861 855 -43 150 -54 245 -48 413 6 170 40 324 101 456 54 117 79 138 150 131 37 -4 67 -32 463 -428z m1643 397 c34 -32 99 -194 129 -318 40 -162 44 -384 10 -546 -92 -452 -438 -829 -876 -956 -117 -34 -164 -33 -205 4 l-33 29 0 486 0 486 405 406 c223 223 419 415 435 426 40 26 98 19 135 -17z"/>
 <path d="M2930 2519 c-32 -13 -78 -56 -96 -91 -18 -35 -18 -131 0 -166 30 -57 103 -102 166 -102 63 0 136 45 167 103 19 37 19 127 0 164 -20 37 -65 79 -100 92 -35 13 -103 13 -137 0z"/>
 <path d="M2229 2411 c-101 -63 -115 -197 -30 -282 87 -87 224 -70 286 35 42 71 32 161 -23 220 -60 64 -158 75 -233 27z"/>
 <path d="M3595 2424 c-43 -22 -64 -44 -86 -86 -70 -136 62 -298 209 -258 123 33 178 175 108 281 -47 71 -158 101 -231 63z"/>
 <path d="M1625 2166 c-96 -43 -135 -168 -80 -261 61 -105 198 -122 285 -35 75 75 72 187 -7 262 -51 48 -134 62 -198 34z"/>
 <path d="M4230 2169 c-32 -13 -78 -56 -96 -91 -20 -39 -18 -122 6 -168 37 -72 124 -110 203 -89 89 23 137 86 137 179 0 105 -77 181 -183 179 -23 0 -53 -5 -67 -10z"/>
 <path d="M1078 1750 c-20 -11 -50 -36 -65 -57 -25 -32 -28 -45 -28 -108 0 -63 3 -76 28 -108 50 -66 140 -94 214 -66 44 16 102 79 114 123 24 88 -25 188 -108 223 -45 18 -112 16 -155 -7z"/>
 <path d="M4765 1756 c-69 -30 -124 -130 -109 -199 37 -174 253 -214 345 -63 23 38 26 134 5 174 -44 84 -156 125 -241 88z"/>
 <path d="M680 1219 c-32 -13 -78 -56 -96 -91 -23 -44 -18 -139 9 -179 78 -116 236 -116 314 0 27 40 32 135 9 179 -19 36 -65 78 -99 91 -35 13 -103 13 -137 0z"/>
 <path d="M5175 1216 c-139 -60 -139 -274 -1 -337 105 -48 226 11 257 124 22 81 -27 178 -108 213 -40 17 -108 17 -148 0z"/>
 <path d="M395 576 c-81 -49 -111 -157 -66 -243 85 -168 343 -102 343 87 0 140 -156 228 -277 156z"/>
 <path d="M5435 588 c-32 -17 -76 -61 -91 -90 -23 -43 -18 -125 10 -172 65 -111 230 -119 306 -14 66 91 37 218 -60 268 -43 22 -132 27 -165 8z"/>
 </g>
<g id="layer103" fill="#f9f9f9" stroke="none">
 <path d="M2815 5753 c-259 -32 -534 -146 -728 -300 -175 -140 -280 -262 -405 -473 -36 -61 -93 -202 -118 -290 -44 -154 -57 -255 -58 -425 0 -238 39 -413 140 -636 53 -117 56 -155 14 -202 l-30 -34 50 -69 c89 -125 82 -119 120 -99 51 26 113 13 146 -31 33 -42 36 -104 8 -135 -17 -19 -17 -22 -3 -32 8 -7 42 -33 74 -58 95 -73 102 -75 134 -45 46 44 77 43 182 -4 217 -98 382 -138 604 -147 434 -17 806 129 1115 437 215 214 357 483 416 790 25 132 25 398 0 530 -23 120 -74 276 -126 387 -49 104 -50 136 -9 186 l30 37 -45 62 c-90 124 -88 123 -124 104 -55 -29 -122 -13 -156 36 -20 29 -20 90 -1 128 l15 30 -82 61 c-46 34 -89 64 -95 66 -7 3 -26 -6 -43 -20 -53 -45 -78 -44 -197 11 -219 101 -412 143 -651 141 -81 -1 -160 -4 -177 -6z m-13 -253 c23 -7 46 -23 60 -43 l23 -32 0 -395 c0 -444 1 -436 -72 -467 -75 -31 -85 -24 -361 250 -139 139 -262 267 -274 285 -26 42 -20 103 14 139 31 33 167 122 253 165 77 39 258 101 310 107 6 0 27 -4 47 -9z m544 -16 c164 -47 402 -176 468 -254 28 -34 34 -85 15 -123 -15 -30 -528 -533 -557 -546 -31 -15 -48 -14 -88 5 -64 30 -64 31 -64 464 0 432 1 437 63 464 46 20 64 19 163 -10z m-1290 -603 c21 -16 213 -204 426 -417 340 -342 388 -394 398 -432 7 -29 10 -180 8 -485 -3 -494 -1 -477 -75 -512 -45 -21 -68 -18 -248 42 -131 43 -309 152 -427 262 -155 145 -304 381 -348 550 -5 20 -16 63 -24 95 -40 159 -40 390 0 562 19 84 70 228 100 284 46 84 119 104 190 51z m2029 11 c28 -18 42 -41 100 -175 53 -122 91 -367 81 -522 -29 -423 -228 -758 -601 -1007 -74 -50 -237 -120 -339 -146 -100 -25 -101 -25 -140 -7 -67 32 -66 28 -66 552 l0 468 428 427 c420 420 428 428 467 428 22 0 54 -8 70 -18z"/>
 <path d="M2945 2515 c-52 -19 -112 -83 -120 -129 -22 -112 61 -216 172 -216 87 0 153 49 177 131 15 51 4 106 -32 157 -40 55 -130 82 -197 57z"/>
 <path d="M1125 1760 c-92 -21 -157 -116 -141 -203 25 -132 178 -194 289 -115 87 62 87 224 0 286 -43 30 -102 43 -148 32z"/>
 <path d="M4804 1760 c-91 -20 -150 -100 -142 -190 10 -97 81 -162 178 -162 56 0 97 19 138 66 107 123 -14 322 -174 286z"/>
 <path d="M695 1218 c-50 -18 -82 -46 -104 -91 -60 -123 23 -257 159 -257 74 0 126 33 162 104 43 84 5 185 -86 231 -53 27 -83 30 -131 13z"/>
 <path d="M5195 1215 c-50 -18 -100 -71 -116 -123 -30 -102 43 -209 150 -220 66 -6 93 2 137 40 147 130 11 370 -171 303z"/>
 </g>

</svg>