<!DOCTYPE svg PUBLIC "-//W3C//DTD SVG 20010904//EN" "http://www.w3.org/TR/2001/REC-SVG-20010904/DTD/svg10.dtd">
<svg version="1.0" xmlns="http://www.w3.org/2000/svg" width="600px" height="600px" viewBox="0 0 6000 6000" preserveAspectRatio="xMidYMid meet">
<g id="layer101" fill="#000000" stroke="none">
 <path d="M2905 5981 c-56 -27 -1018 -992 -1040 -1043 -8 -21 -15 -60 -15 -88 0 -33 150 -650 435 -1793 240 -958 438 -1749 440 -1757 4 -11 -93 -64 -385 -210 -278 -139 -401 -205 -425 -230 -63 -65 -65 -78 -65 -397 0 -258 2 -292 19 -328 22 -49 63 -91 113 -116 36 -18 74 -19 1023 -19 1078 0 1024 -3 1088 58 16 15 39 45 50 67 21 38 22 52 22 340 0 290 -1 301 -22 341 -12 23 -37 54 -54 69 -18 15 -204 112 -413 217 -210 105 -382 191 -384 193 -1 1 196 796 439 1766 483 1934 459 1821 405 1912 -38 64 -983 1003 -1028 1022 -52 21 -153 19 -203 -4z"/>
 </g>
<g id="layer102" fill="#ffffff" stroke="none">
 <path d="M2675 5100 l-330 -330 325 -1301 c179 -715 328 -1306 332 -1312 4 -6 9 -9 11 -7 2 3 151 594 331 1314 l327 1310 -328 328 c-180 180 -330 328 -333 328 -3 0 -154 -149 -335 -330z"/>
 <path d="M2658 719 l-338 -169 0 -40 0 -40 690 0 690 0 0 40 0 40 -340 170 c-187 93 -346 170 -352 169 -7 0 -165 -76 -350 -170z"/>
 </g>

</svg>