<!DOCTYPE svg PUBLIC "-//W3C//DTD SVG 20010904//EN" "http://www.w3.org/TR/2001/REC-SVG-20010904/DTD/svg10.dtd">
<svg version="1.0" xmlns="http://www.w3.org/2000/svg" width="600px" height="600px" viewBox="0 0 6000 6000" preserveAspectRatio="xMidYMid meet">
<g id="layer101" fill="#3d3d3d" stroke="none">
 <path d="M1396 5977 c-16 -16 -26 -41 -30 -73 -3 -27 -92 -1029 -197 -2227 l-191 -2178 116 -493 116 -494 0 -221 c0 -231 6 -270 45 -285 9 -3 184 -6 389 -6 l373 0 21 23 c12 13 22 31 22 40 0 15 12 17 85 17 73 0 87 -3 92 -17 3 -10 15 -28 26 -41 l20 -22 1229 0 1229 0 24 25 25 24 0 228 0 228 117 497 117 497 -196 2226 c-191 2173 -196 2227 -219 2251 l-22 24 -622 0 -622 0 -21 -23 c-12 -13 -24 -36 -27 -52 -3 -17 -35 -319 -70 -673 -61 -595 -64 -644 -50 -672 9 -17 27 -33 41 -36 25 -6 26 -9 20 -58 -3 -28 -6 -66 -6 -83 0 -26 -4 -33 -20 -33 -11 0 -33 -12 -50 -27 l-31 -28 -63 -615 c-35 -338 -66 -604 -69 -590 -4 14 -70 653 -147 1420 -78 767 -143 1403 -146 1413 -3 10 -15 27 -27 37 -20 19 -38 20 -639 20 l-619 0 -23 -23z"/>
 </g>
<g id="layer102" fill="#6c6c6c" stroke="none">
 <path d="M1668 5823 l-126 -4 -6 -57 c-11 -102 -366 -4150 -366 -4175 0 -19 8 -28 33 -37 184 -68 454 -265 603 -442 126 -150 187 -263 222 -416 l17 -72 538 -3 537 -2 0 403 0 402 -179 0 -179 0 -27 32 c-22 26 -26 39 -21 66 11 72 11 72 281 72 230 0 244 -1 269 -21 l26 -20 0 -467 0 -467 334 0 334 0 7 45 c17 110 88 262 181 385 137 182 343 349 581 469 111 56 112 57 107 89 -2 18 -63 703 -135 1522 -225 2570 -235 2680 -243 2693 -8 14 -516 17 -821 5 l-170 -6 -59 -581 c-32 -320 -62 -599 -66 -621 -10 -43 -30 -63 -71 -72 -23 -4 -27 -11 -33 -56 -12 -102 -9 -120 24 -139 17 -9 34 -28 39 -42 13 -32 -203 -2177 -223 -2222 -32 -72 -135 -63 -155 13 -6 21 -94 866 -197 1878 -102 1012 -188 1843 -191 1848 -4 7 -581 7 -865 0z m396 -154 c53 -25 51 106 31 -2119 -3 -283 -8 -873 -11 -1310 -3 -437 -10 -805 -15 -818 -11 -30 -70 -55 -101 -43 -13 5 -31 18 -41 29 -18 19 -19 48 -18 509 1 268 4 630 6 803 2 173 7 734 10 1245 3 512 8 1074 10 1250 3 176 5 342 5 368 0 79 56 117 124 86z m1970 -12 c23 -23 24 -31 30 -238 3 -118 8 -594 11 -1059 5 -888 14 -2098 19 -2605 2 -178 -1 -312 -7 -329 -24 -69 -133 -65 -155 6 -7 21 -13 365 -16 958 -4 509 -8 1161 -11 1450 -3 289 -7 807 -11 1153 l-5 627 30 30 c37 38 82 40 115 7z"/>
 <path d="M1200 1356 c0 -14 170 -728 176 -737 6 -10 477 -13 486 -3 6 5 -6 62 -21 99 -70 174 -177 314 -351 457 -85 70 -290 200 -290 184z"/>
 <path d="M4710 1308 c-206 -119 -368 -273 -488 -463 -33 -54 -74 -153 -79 -196 l-6 -39 247 0 c135 0 246 2 246 5 0 3 38 168 85 367 47 199 84 365 83 368 -2 4 -41 -15 -88 -42z"/>
 <path d="M1392 308 l3 -133 70 0 70 0 3 133 3 132 -76 0 -76 0 3 -132z"/>
 <path d="M1710 304 l0 -135 150 3 c83 2 150 0 150 -4 0 -4 9 -9 20 -13 11 -3 19 -9 18 -13 -1 -4 2 -19 6 -34 8 -28 9 -28 96 -28 83 0 88 1 93 23 14 51 31 62 114 67 l78 5 3 133 3 132 -366 0 -365 0 0 -136z"/>
 <path d="M2610 305 l0 -135 380 0 380 0 0 135 0 135 -380 0 -380 0 0 -135z m665 60 c27 -27 33 -79 12 -106 -50 -65 -151 -35 -151 46 0 76 87 113 139 60z"/>
 <path d="M3542 308 l3 -133 375 0 375 0 0 130 0 130 -378 3 -378 2 3 -132z"/>
 <path d="M4470 305 l0 -135 70 0 70 0 0 135 0 135 -70 0 -70 0 0 -135z"/>
 </g>
<g id="layer103" fill="#f2f2f2" stroke="none">
 <path d="M1540 5795 c0 -28 -355 -4087 -365 -4172 l-6 -51 83 -39 c394 -185 716 -534 782 -848 l13 -60 536 -3 537 -2 0 400 0 400 -180 0 c-179 0 -181 0 -205 25 -33 32 -33 84 -1 122 l24 28 240 0 c240 0 240 0 266 -24 l26 -24 2 -461 3 -461 333 -3 332 -2 0 24 c0 77 94 285 182 403 141 187 403 393 625 490 50 22 63 32 63 49 0 24 -355 4078 -366 4177 l-6 57 -493 0 -492 0 -5 -32 c-3 -18 -32 -294 -64 -612 -56 -552 -60 -581 -82 -608 -16 -18 -33 -28 -51 -28 -26 0 -29 -3 -35 -52 -12 -105 -9 -121 27 -138 18 -8 36 -27 41 -41 6 -19 -23 -341 -98 -1078 -59 -578 -111 -1075 -115 -1103 -15 -92 -92 -129 -150 -71 l-27 28 -63 620 c-34 341 -120 1180 -189 1865 l-127 1245 -498 3 -497 2 0 -25z m545 -140 l25 -24 0 -293 c0 -161 -7 -1105 -15 -2097 -17 -1966 -12 -1836 -70 -1863 -36 -16 -86 1 -106 37 -16 28 -16 167 0 2115 13 1599 20 2090 29 2107 27 49 97 59 137 18z m1952 1 l28 -24 3 -244 c1 -133 9 -1078 17 -2098 14 -1799 14 -1856 -4 -1880 -10 -14 -30 -29 -45 -34 -34 -13 -73 1 -97 34 -17 24 -19 128 -34 1990 -19 2493 -20 2225 10 2255 32 33 84 33 122 1z"/>
 <path d="M1210 1338 c0 -7 38 -170 83 -363 l83 -350 243 -3 243 -2 -7 32 c-14 63 -58 160 -108 236 -65 100 -238 272 -352 349 -123 83 -185 117 -185 101z"/>
 <path d="M4746 1325 c-211 -112 -422 -310 -528 -495 -24 -43 -78 -181 -78 -201 0 -5 98 -9 243 -9 l242 0 86 365 c47 201 85 365 84 365 -1 0 -23 -11 -49 -25z"/>
 </g>

</svg>