<!DOCTYPE svg PUBLIC "-//W3C//DTD SVG 20010904//EN" "http://www.w3.org/TR/2001/REC-SVG-20010904/DTD/svg10.dtd">
<svg version="1.0" xmlns="http://www.w3.org/2000/svg" width="600px" height="600px" viewBox="0 0 6000 6000" preserveAspectRatio="xMidYMid meet">
<g id="layer101" fill="#2c2c2c" stroke="none">
 <path d="M1455 4034 c-252 -25 -376 -48 -531 -99 -191 -62 -344 -153 -447 -265 -68 -73 -97 -120 -142 -233 -75 -186 -122 -415 -132 -647 -3 -80 -10 -153 -15 -162 -5 -10 -42 -40 -83 -68 -41 -28 -82 -64 -90 -80 -12 -22 -15 -66 -15 -193 l0 -163 31 -30 30 -29 186 -3 c131 -3 192 -8 207 -17 104 -65 470 -99 821 -76 407 27 685 78 1010 186 279 92 419 115 715 115 296 0 436 -23 715 -115 325 -108 603 -159 1010 -186 351 -23 717 11 821 76 15 9 76 14 207 17 l186 3 30 29 31 30 0 163 c0 127 -3 171 -15 193 -8 16 -49 52 -90 80 -41 28 -78 58 -83 68 -5 9 -12 82 -15 162 -10 233 -52 443 -128 636 -46 118 -81 176 -152 251 -165 175 -454 294 -837 345 -52 6 -187 12 -300 12 -244 0 -347 -16 -459 -71 -216 -105 -465 -493 -564 -878 -32 -126 -37 -156 -46 -279 -8 -100 -8 -100 -46 -133 -121 -104 -409 -104 -530 0 -38 33 -38 33 -46 133 -9 123 -23 200 -55 313 -81 283 -234 561 -398 726 -146 145 -258 182 -566 189 -96 2 -193 2 -215 0z"/>
 </g>
<g id="layer102" fill="#bcbcbc" stroke="none">
 <path d="M1400 3813 c-204 -20 -460 -90 -603 -165 -102 -54 -203 -150 -240 -230 -150 -319 -186 -803 -81 -1073 56 -142 144 -169 554 -169 599 0 1165 116 1367 280 62 51 78 106 78 274 0 152 -16 243 -70 407 -96 289 -288 574 -428 638 -29 13 -81 29 -117 34 -59 10 -376 13 -460 4z"/>
 <path d="M4130 3809 c-144 -24 -256 -124 -386 -346 -196 -333 -280 -765 -184 -953 48 -95 269 -190 587 -255 488 -99 1180 -108 1301 -18 36 27 79 108 104 199 20 70 22 103 22 304 0 197 -2 238 -22 329 -29 134 -76 280 -115 356 -121 242 -547 397 -1075 394 -98 -1 -202 -5 -232 -10z"/>
 </g>
<g id="layer103" fill="#eaeaea" stroke="none">
 <path d="M1435 3814 c-322 -33 -574 -113 -736 -233 -105 -79 -162 -180 -219 -396 -75 -279 -81 -587 -15 -793 41 -129 79 -166 200 -193 96 -22 669 -19 850 4 362 47 587 102 764 185 102 48 157 100 178 171 27 88 23 277 -9 416 -61 265 -199 541 -351 701 -110 118 -161 134 -432 139 -104 1 -208 1 -230 -1z"/>
 <path d="M4162 3810 c-120 -17 -159 -36 -242 -119 -166 -165 -315 -462 -376 -751 -12 -56 -18 -127 -18 -210 1 -198 34 -260 182 -334 246 -123 681 -202 1172 -213 357 -8 524 13 582 74 36 37 71 120 94 218 26 109 26 406 1 545 -26 139 -73 294 -117 386 -94 194 -323 320 -705 385 -135 23 -466 34 -573 19z"/>
 </g>

</svg>