<!DOCTYPE svg PUBLIC "-//W3C//DTD SVG 20010904//EN" "http://www.w3.org/TR/2001/REC-SVG-20010904/DTD/svg10.dtd">
<svg version="1.0" xmlns="http://www.w3.org/2000/svg" width="1600px" height="1600px" viewBox="0 0 16000 16000" preserveAspectRatio="xMidYMid meet">
<g id="layer101" fill="#0a0a0a" stroke="none">
 <path d="M2886 15980 c-63 -29 -119 -83 -151 -146 l-30 -59 -3 -5155 -3 -5155 -64 -49 c-35 -27 -80 -63 -99 -80 -19 -17 -63 -56 -97 -86 -212 -185 -452 -424 -614 -613 -27 -32 -60 -70 -72 -83 -13 -14 -49 -57 -80 -97 -32 -40 -61 -74 -64 -77 -15 -13 -99 -144 -116 -182 -74 -161 -88 -228 -88 -413 0 -216 27 -314 143 -513 23 -41 42 -75 42 -77 0 -2 47 -84 105 -181 58 -97 105 -178 105 -180 0 -2 47 -83 105 -180 58 -97 105 -178 105 -180 0 -2 47 -83 105 -180 58 -97 105 -178 105 -180 0 -2 47 -83 105 -180 58 -97 105 -178 105 -180 0 -2 47 -83 105 -180 58 -97 105 -178 105 -180 0 -2 47 -83 105 -180 58 -97 105 -178 105 -180 0 -2 47 -83 105 -180 58 -97 105 -178 105 -180 0 -11 159 -268 195 -314 39 -50 113 -124 175 -175 71 -57 165 -107 285 -148 l90 -32 2920 -3 c3144 -3 2971 -6 3100 44 77 30 218 104 235 123 3 4 21 18 41 33 48 36 110 98 146 145 15 21 30 40 34 43 27 24 1611 3184 1644 3280 27 79 55 239 55 315 0 77 -28 238 -56 315 -37 106 -112 230 -189 314 -6 6 -51 56 -100 111 -144 161 -351 365 -529 520 -38 33 -76 67 -85 75 -9 9 -38 33 -66 55 -27 22 -55 44 -61 50 -6 5 -70 55 -142 109 -73 55 -132 102 -132 105 0 4 28 45 63 93 34 47 82 116 107 152 25 36 72 104 105 150 33 46 80 114 105 150 25 36 72 104 105 150 33 46 80 114 105 150 25 36 72 104 105 150 33 46 80 114 105 150 25 36 72 104 105 150 33 46 80 114 105 150 58 86 117 168 130 183 5 7 10 15 10 18 0 4 6 12 13 20 6 7 32 43 57 79 25 37 66 95 93 131 26 35 47 67 47 70 0 3 5 11 10 18 12 13 84 115 140 197 19 28 41 58 48 65 6 7 12 16 12 20 0 3 5 11 10 18 12 13 84 115 140 197 19 28 41 58 48 65 6 7 12 16 12 20 0 3 5 11 10 18 12 13 84 115 140 197 19 28 41 58 48 65 6 7 12 16 12 20 0 3 5 11 10 18 12 13 84 115 140 197 19 28 41 58 48 65 6 7 12 16 12 20 0 3 5 11 10 18 12 13 84 115 140 197 19 28 41 58 48 65 6 7 12 16 12 20 0 4 6 12 13 20 6 7 32 43 57 79 25 37 66 95 93 131 26 35 47 67 47 70 0 4 6 12 13 20 6 7 32 43 57 79 25 37 66 95 93 131 26 35 47 68 47 74 0 5 4 11 8 13 5 2 39 48 77 103 37 55 81 116 96 136 16 20 29 41 29 47 0 6 4 12 8 14 5 2 39 48 77 103 37 55 81 116 96 136 16 20 29 41 29 47 0 6 4 12 8 14 5 2 39 48 77 103 37 55 81 116 96 136 16 20 29 41 29 47 0 6 4 12 8 14 5 2 39 48 77 103 37 55 81 116 96 136 16 20 29 41 29 47 0 6 4 12 8 14 5 2 39 48 77 103 37 55 81 116 96 136 16 20 29 41 29 47 0 6 4 12 8 14 16 6 72 96 93 149 57 146 -21 333 -167 399 -64 29 -203 31 -261 4 -80 -37 -113 -72 -228 -239 -56 -81 -122 -176 -206 -295 -60 -86 -116 -166 -192 -276 l-43 -61 -34 23 c-51 35 -65 45 -135 94 -35 25 -93 65 -129 90 -36 25 -75 52 -86 60 -10 8 -48 35 -84 60 -36 25 -94 65 -129 90 -36 25 -74 52 -87 60 -12 8 -50 35 -85 60 -35 25 -93 65 -129 90 -36 25 -76 53 -88 63 l-21 17 49 71 c27 39 54 78 59 87 6 9 13 19 16 22 6 5 177 250 194 277 6 9 16 24 22 32 54 69 187 266 208 307 65 133 46 267 -56 372 -61 64 -130 92 -227 92 -68 0 -87 -4 -139 -30 -84 -42 -100 -62 -384 -475 -45 -66 -103 -148 -128 -182 -25 -34 -68 -94 -94 -133 -44 -65 -50 -69 -70 -58 -12 6 -27 16 -33 22 -7 6 -42 31 -78 56 -36 25 -94 65 -129 90 -36 25 -75 52 -87 60 -12 8 -41 29 -64 46 -22 16 -84 59 -136 95 -52 35 -97 66 -100 69 -3 3 -20 16 -39 29 -50 35 -243 169 -265 183 -63 43 -64 33 20 153 519 740 489 693 504 772 30 164 -57 314 -214 367 -137 45 -301 -16 -377 -142 -13 -20 -42 -63 -66 -94 -24 -31 -43 -61 -43 -66 0 -6 -4 -12 -8 -14 -5 -1 -39 -48 -77 -103 -37 -55 -81 -116 -96 -136 -16 -20 -29 -41 -29 -47 0 -6 -4 -12 -8 -14 -7 -3 -173 -234 -197 -276 -5 -9 -13 -19 -16 -22 -7 -6 -180 -254 -194 -278 -5 -9 -13 -19 -16 -22 -7 -6 -180 -254 -194 -278 -5 -9 -13 -19 -16 -22 -7 -6 -180 -254 -194 -278 -5 -9 -13 -19 -16 -22 -7 -6 -180 -254 -194 -278 -5 -9 -13 -19 -16 -22 -7 -6 -180 -254 -194 -278 -5 -9 -13 -19 -16 -22 -7 -6 -180 -254 -194 -278 -5 -9 -13 -19 -16 -22 -5 -5 -68 -94 -274 -390 -49 -71 -144 -206 -210 -300 -66 -94 -150 -214 -187 -268 -37 -53 -95 -135 -128 -182 -83 -115 -212 -300 -311 -445 -45 -66 -94 -136 -109 -155 -15 -19 -58 -80 -95 -135 -37 -55 -92 -134 -122 -175 -85 -119 -260 -368 -358 -511 -49 -72 -97 -139 -105 -150 -8 -10 -46 -64 -85 -120 l-70 -103 -5 3755 -5 3754 -28 54 c-36 67 -81 113 -146 145 -43 22 -63 26 -142 26 -83 0 -96 -3 -151 -32 -72 -38 -121 -93 -148 -165 -19 -51 -20 -78 -20 -548 l0 -495 -614 0 -615 0 -4 493 c-3 437 -5 498 -21 545 -10 28 -22 52 -27 52 -5 0 -9 6 -9 14 0 21 -86 93 -138 116 -61 27 -199 28 -258 1 -65 -30 -125 -84 -154 -141 -36 -71 -40 -129 -40 -610 l0 -470 -614 0 -615 0 -3 508 -3 507 -28 54 c-36 67 -81 113 -146 145 -44 23 -62 26 -143 25 -67 0 -104 -6 -132 -19z"/>
 </g>
<g id="layer102" fill="#b7b6b6" stroke="none">
 <path d="M4888 14122 l-308 -2 0 -625 0 -625 315 0 315 0 0 624 c0 344 -3 626 -7 628 -5 2 -146 2 -315 0z"/>
 <path d="M3330 13495 l0 -625 313 2 312 3 3 623 2 622 -315 0 -315 0 0 -625z"/>
 <path d="M5832 13498 l3 -623 310 0 310 0 3 623 2 622 -315 0 -315 0 2 -622z"/>
 <path d="M3330 11935 l0 -315 1565 0 1565 0 0 315 0 315 -1565 0 -1565 0 0 -315z"/>
 <path d="M10552 12102 c-18 -26 -81 -116 -140 -200 -59 -85 -154 -221 -212 -304 -58 -83 -151 -215 -207 -293 -56 -79 -106 -152 -111 -161 -11 -19 17 -43 198 -167 47 -32 110 -77 140 -98 107 -77 162 -111 170 -102 24 25 694 991 697 1004 4 12 -40 48 -159 131 -89 63 -203 142 -251 176 -48 34 -89 62 -90 62 -1 0 -17 -22 -35 -48z"/>
 <path d="M11563 11367 c-23 -34 -65 -93 -92 -132 -27 -38 -74 -106 -105 -150 -30 -44 -78 -111 -105 -150 -27 -38 -76 -108 -108 -154 -103 -148 -137 -197 -195 -279 -32 -45 -58 -86 -58 -91 0 -6 12 -18 28 -28 15 -10 88 -61 162 -113 74 -53 168 -118 208 -145 40 -28 81 -56 90 -63 20 -13 17 -16 130 146 18 26 65 94 106 152 41 58 88 125 105 150 17 25 64 92 105 150 41 58 88 125 105 150 17 25 63 90 102 144 39 55 73 105 76 112 3 9 -464 346 -500 359 -7 3 -31 -23 -54 -58z"/>
 <path d="M3330 8451 l0 -2549 88 51 c278 161 566 309 767 392 50 20 99 41 110 46 51 22 102 42 125 49 14 5 50 18 80 30 65 24 333 114 405 135 169 49 253 71 400 104 118 27 178 39 345 70 169 32 599 81 710 81 38 0 75 3 84 6 15 6 16 197 16 2070 l0 2064 -1565 0 -1565 0 0 -2549z"/>
 <path d="M12563 10613 c-114 -160 -257 -364 -273 -387 -8 -11 -55 -79 -105 -149 -49 -71 -97 -138 -105 -150 -8 -12 -47 -69 -87 -126 -40 -57 -70 -107 -68 -112 5 -6 54 -42 250 -179 17 -12 80 -57 140 -100 84 -60 113 -76 122 -67 6 7 42 57 80 112 39 55 119 170 178 255 60 85 154 220 210 300 56 80 131 187 168 239 37 52 67 99 67 105 0 10 -466 341 -495 352 -8 3 -40 -32 -82 -93z"/>
 <path d="M9328 10357 c-135 -192 -174 -255 -165 -264 15 -14 2528 -1774 2542 -1780 11 -4 365 490 365 508 0 4 -19 19 -42 35 -24 16 -88 61 -143 100 -55 38 -129 90 -165 115 -36 25 -545 382 -1131 792 -587 411 -1071 747 -1075 747 -5 0 -89 -114 -186 -253z"/>
 <path d="M8762 9548 c-15 -24 -64 -94 -108 -156 -43 -63 -86 -124 -94 -136 -8 -12 -55 -79 -105 -150 -49 -70 -97 -138 -105 -150 -8 -12 -55 -79 -105 -150 -122 -174 -273 -389 -402 -575 -60 -84 -137 -195 -172 -245 -35 -50 -80 -114 -100 -142 -20 -28 -65 -93 -101 -145 -36 -51 -83 -118 -105 -150 -22 -31 -69 -98 -105 -149 -36 -52 -84 -121 -108 -154 -23 -34 -49 -71 -58 -82 -12 -17 -14 -50 -12 -160 l3 -139 75 -2 c202 -7 656 -66 905 -118 176 -37 295 -66 528 -129 74 -20 386 -124 495 -165 245 -92 621 -267 875 -408 65 -36 119 -64 121 -62 4 5 50 70 112 159 24 36 72 103 105 150 33 47 80 114 105 150 24 36 72 103 105 150 33 47 80 114 105 150 24 36 72 103 105 150 33 47 80 114 105 150 24 36 72 103 105 150 33 47 72 103 87 125 15 22 73 105 129 185 56 80 126 178 154 219 l52 74 -29 24 c-16 14 -40 32 -54 41 -14 10 -83 58 -154 107 -70 50 -138 97 -150 105 -12 8 -79 56 -150 105 -70 50 -138 97 -150 105 -17 12 -208 146 -299 210 -65 45 -291 204 -422 295 -82 58 -217 152 -300 210 -82 58 -219 153 -304 212 -84 60 -197 139 -250 176 -53 37 -113 79 -134 93 -21 13 -64 45 -96 69 -33 25 -61 45 -64 45 -3 0 -19 -19 -35 -42z"/>
 <path d="M6334 6235 c-167 -13 -370 -36 -489 -56 -299 -50 -498 -95 -770 -174 -196 -57 -543 -185 -693 -256 -34 -16 -65 -29 -68 -29 -12 0 -334 -165 -464 -238 -332 -186 -647 -409 -970 -686 -312 -268 -784 -784 -832 -908 -40 -107 -20 -192 88 -373 33 -55 63 -107 67 -115 4 -8 31 -55 61 -103 l53 -88 53 78 c449 656 1002 1181 1665 1583 222 135 572 306 795 390 47 17 101 38 122 45 87 33 309 104 408 130 36 9 78 21 94 26 50 15 112 10 183 -15 168 -61 249 -258 173 -419 -47 -99 -121 -149 -280 -192 -81 -21 -333 -101 -380 -120 -19 -8 -78 -30 -130 -51 -202 -78 -496 -225 -680 -339 -604 -375 -1095 -849 -1481 -1430 -81 -121 -179 -284 -179 -298 0 -8 74 -142 140 -253 14 -23 61 -104 105 -180 44 -76 91 -157 105 -180 49 -83 204 -349 217 -374 73 -130 203 -345 210 -347 4 -1 23 46 42 105 225 712 704 1352 1336 1784 153 105 264 169 439 254 180 86 260 118 493 194 141 47 367 95 593 126 195 27 643 25 855 -5 88 -12 176 -26 195 -31 19 -5 71 -16 115 -26 236 -49 531 -153 776 -275 813 -404 1442 -1127 1726 -1983 l26 -79 359 716 358 716 -81 122 c-195 294 -391 531 -650 785 -303 297 -586 511 -945 716 -182 104 -493 255 -594 288 -14 5 -50 18 -80 30 -91 35 -319 109 -415 134 -119 31 -177 59 -221 108 -112 124 -114 297 -4 422 43 48 101 81 173 97 70 15 95 11 327 -58 129 -38 355 -115 445 -153 212 -88 299 -127 450 -203 726 -368 1369 -910 1853 -1565 30 -40 57 -72 61 -72 4 0 61 108 126 241 l120 241 0 92 c0 69 -5 100 -19 129 -26 52 -232 281 -402 447 -435 425 -926 776 -1469 1050 -180 91 -414 196 -547 246 -21 8 -55 20 -75 28 -386 148 -862 262 -1358 326 -299 38 -803 49 -1131 25z m555 -638 c65 -24 134 -89 164 -155 33 -72 30 -200 -5 -268 -52 -99 -172 -174 -279 -174 -108 0 -228 76 -279 177 -35 67 -35 207 -2 270 34 65 78 110 136 138 95 47 163 50 265 12z"/>
 <path d="M6560 3119 c-589 -45 -1136 -264 -1585 -634 -140 -116 -344 -328 -451 -470 -231 -308 -404 -676 -494 -1050 -22 -94 -50 -260 -50 -303 l0 -42 2788 2 2787 3 3 28 c8 70 -63 392 -129 581 -204 587 -579 1073 -1097 1419 -519 348 -1150 514 -1772 466z"/>
 </g>
<g id="layer103" fill="#fffefe" stroke="none">
 <path d="M3330 13495 l0 -625 313 2 312 3 3 623 2 622 -315 0 -315 0 0 -625z"/>
 <path d="M4580 13495 l0 -625 308 2 307 3 3 623 2 622 -310 0 -310 0 0 -625z"/>
 <path d="M5832 13498 l3 -623 310 0 310 0 3 623 2 622 -315 0 -315 0 2 -622z"/>
 <path d="M10576 12137 c-11 -22 -96 -145 -170 -247 -30 -41 -61 -85 -68 -97 -7 -12 -44 -66 -83 -119 -38 -54 -79 -112 -90 -128 -11 -16 -27 -40 -35 -52 -8 -12 -46 -66 -85 -120 -77 -109 -99 -139 -117 -169 -7 -11 -23 -33 -36 -49 l-23 -28 47 -32 c25 -17 75 -52 109 -78 34 -25 111 -79 171 -120 60 -40 126 -86 148 -102 l38 -30 19 25 c10 13 19 29 19 35 0 6 7 18 16 25 9 8 27 30 41 49 13 19 44 64 69 100 24 36 61 89 82 119 20 29 46 66 57 81 11 14 43 59 70 99 57 83 104 150 140 201 32 44 97 138 153 219 23 34 42 67 42 72 0 5 -19 21 -42 36 -97 65 -185 126 -268 188 -41 30 -85 59 -97 64 -11 5 -24 14 -27 19 -3 6 -21 19 -40 30 -25 15 -36 17 -40 9z"/>
 <path d="M11589 11403 c-8 -15 -41 -64 -74 -110 -111 -153 -145 -201 -145 -207 0 -4 -22 -34 -48 -69 -44 -56 -88 -119 -147 -211 -11 -17 -48 -69 -82 -116 -113 -155 -143 -198 -143 -205 0 -3 -11 -21 -25 -39 l-25 -33 23 -20 c26 -23 185 -136 236 -168 9 -5 48 -33 86 -60 39 -28 90 -65 115 -83 l44 -32 23 27 c12 16 22 32 23 37 0 5 12 25 28 45 15 19 34 45 42 57 8 13 43 61 78 109 34 47 62 88 62 92 0 3 12 22 28 42 15 19 34 45 42 57 8 13 43 61 78 109 34 47 62 88 62 92 0 3 12 22 28 42 15 19 34 45 42 57 8 13 43 61 78 109 34 47 62 89 62 93 0 4 9 18 19 31 l18 24 -46 35 c-25 20 -86 63 -135 96 -100 69 -150 103 -251 176 -38 27 -73 50 -76 50 -3 0 -12 -12 -20 -27z"/>
 <path d="M3330 8455 c0 -1400 3 -2545 6 -2545 4 0 28 13 53 28 25 16 53 32 61 36 8 4 24 12 35 19 208 126 618 327 840 412 33 12 85 33 115 44 155 61 416 147 593 195 28 8 77 21 108 30 31 9 63 16 71 16 9 0 38 6 64 14 78 22 289 64 454 90 52 8 127 20 165 26 39 6 120 15 180 20 61 5 172 15 248 21 l137 13 0 2063 0 2063 -1565 0 -1565 0 0 -2545z"/>
 <path d="M12596 10658 c-20 -29 -58 -84 -86 -123 -27 -38 -80 -115 -117 -169 -37 -54 -89 -127 -115 -161 -25 -34 -79 -111 -120 -171 -40 -60 -92 -134 -114 -164 -75 -99 -122 -174 -117 -183 4 -7 78 -59 132 -92 9 -5 56 -40 106 -76 80 -58 145 -103 194 -134 9 -5 29 -19 45 -29 28 -19 30 -19 40 -2 6 10 20 30 32 45 11 14 53 73 92 131 40 58 85 123 101 145 16 22 63 90 105 150 41 61 89 128 105 150 24 33 95 135 201 289 8 11 25 34 37 49 31 38 29 48 -15 75 -20 12 -57 38 -82 57 -25 18 -96 69 -159 112 -62 43 -123 85 -135 93 -11 8 -34 25 -49 37 -16 13 -32 23 -37 23 -5 0 -25 -24 -44 -52z"/>
 <path d="M8752 9528 c-21 -29 -45 -63 -53 -74 -8 -12 -44 -64 -80 -115 -36 -52 -114 -164 -174 -249 -60 -85 -153 -218 -207 -295 -54 -77 -146 -207 -203 -290 -175 -251 -307 -438 -369 -526 -33 -46 -81 -115 -107 -154 -27 -38 -74 -106 -105 -150 -32 -44 -79 -111 -105 -150 -27 -38 -74 -106 -105 -150 -32 -44 -82 -115 -111 -159 l-54 -79 3 -136 c3 -114 5 -135 18 -133 38 9 504 -41 690 -73 47 -8 94 -15 105 -15 11 0 52 -7 90 -15 39 -9 104 -23 145 -31 41 -9 98 -22 126 -30 28 -8 59 -14 70 -14 10 0 39 -6 64 -14 25 -8 72 -22 105 -31 33 -9 80 -22 105 -29 25 -8 72 -22 105 -31 33 -10 74 -24 92 -32 17 -7 38 -13 46 -13 8 0 28 -7 43 -15 16 -8 36 -15 45 -15 9 0 30 -7 45 -15 16 -8 37 -15 46 -15 9 0 19 -4 23 -9 3 -5 20 -13 37 -17 18 -3 39 -10 48 -15 8 -4 44 -20 80 -35 67 -27 84 -35 182 -78 31 -15 60 -26 64 -26 12 0 476 -235 549 -279 73 -43 85 -47 85 -31 0 6 22 39 48 73 26 34 64 87 84 117 21 30 46 66 57 80 12 14 21 29 21 33 0 4 22 36 48 70 26 34 64 87 84 117 21 30 46 66 57 80 12 14 21 29 21 33 0 4 22 36 48 70 26 34 64 87 84 117 21 30 46 66 57 80 12 14 21 29 21 33 0 4 22 36 48 70 26 34 64 87 85 117 20 30 64 93 97 140 33 47 81 116 107 154 48 68 89 126 141 200 15 21 34 48 42 60 8 12 36 52 63 88 26 37 47 69 47 71 0 5 -118 91 -280 204 -63 44 -182 127 -265 185 -82 58 -220 154 -305 213 -85 60 -218 153 -295 207 -77 54 -207 146 -290 203 -82 58 -217 152 -300 210 -82 58 -217 152 -300 210 -82 58 -188 132 -235 165 -47 34 -103 73 -125 87 -22 14 -63 43 -91 64 -28 22 -56 39 -62 39 -6 0 -29 -24 -50 -52z"/>
 <path d="M6330 6234 c-384 -32 -758 -95 -1070 -180 -30 -8 -80 -22 -110 -30 -30 -9 -68 -20 -85 -25 -16 -6 -52 -17 -80 -25 -27 -8 -63 -19 -80 -24 -53 -15 -119 -40 -137 -50 -10 -6 -26 -10 -36 -10 -9 0 -26 -6 -37 -13 -11 -7 -38 -18 -60 -26 -41 -13 -124 -47 -204 -83 -24 -10 -66 -28 -94 -39 -28 -11 -63 -27 -77 -34 -14 -8 -71 -36 -126 -64 -116 -56 -97 -46 -274 -146 -165 -93 -143 -79 -330 -202 -217 -144 -269 -179 -320 -222 -25 -21 -71 -56 -103 -80 -31 -23 -79 -61 -106 -84 -27 -23 -91 -78 -142 -122 -131 -113 -446 -427 -570 -570 -157 -180 -231 -282 -246 -340 -31 -117 -14 -173 110 -376 12 -20 53 -91 92 -157 l70 -122 18 23 c10 12 22 31 28 42 5 11 23 38 39 60 17 22 49 67 72 100 43 61 111 149 170 219 18 21 40 49 48 62 62 93 514 548 665 669 54 44 108 88 120 98 23 22 187 145 221 167 13 8 83 56 156 105 73 50 144 96 158 102 14 7 34 18 45 25 47 31 107 65 200 115 95 51 149 77 325 159 121 57 132 61 192 83 32 11 66 25 75 30 25 12 89 36 148 54 28 9 66 21 85 28 100 35 140 48 193 62 31 9 83 25 115 34 37 12 88 18 147 18 86 -1 94 -3 151 -38 103 -62 162 -177 151 -295 -9 -104 -71 -204 -152 -244 -57 -29 -106 -48 -123 -48 -9 0 -37 -6 -62 -14 -25 -8 -85 -26 -135 -41 -81 -24 -130 -41 -235 -80 -218 -82 -399 -164 -595 -270 -162 -87 -163 -88 -365 -221 -74 -49 -148 -100 -165 -115 -16 -14 -38 -30 -47 -35 -33 -18 -184 -143 -328 -273 -153 -137 -344 -338 -469 -491 -107 -132 -274 -357 -326 -440 -99 -159 -155 -255 -155 -264 1 -6 20 -43 43 -83 23 -39 89 -152 146 -250 57 -98 152 -261 212 -363 59 -102 154 -264 210 -360 133 -230 163 -280 169 -280 3 0 18 44 34 98 16 53 36 115 46 137 10 22 24 60 33 85 36 107 139 318 235 480 89 150 226 343 337 475 122 145 376 390 500 482 78 58 221 160 250 178 156 98 356 206 490 265 28 12 64 28 80 35 17 7 59 24 95 36 36 12 69 26 75 31 5 4 17 8 27 8 9 0 32 6 50 14 119 50 429 116 688 148 139 17 603 17 740 0 124 -15 328 -49 385 -63 22 -6 67 -17 100 -26 100 -25 168 -45 203 -59 18 -8 41 -14 50 -14 10 0 22 -4 27 -9 6 -5 39 -19 75 -31 36 -12 98 -37 138 -56 40 -19 75 -34 78 -34 12 0 201 -98 299 -155 448 -259 851 -638 1129 -1060 116 -176 110 -167 168 -275 105 -197 232 -494 255 -598 4 -18 95 156 363 690 l356 713 -23 35 c-13 19 -26 42 -30 50 -23 49 -263 381 -304 420 -9 8 -43 49 -75 90 -79 101 -435 455 -560 557 -336 273 -594 443 -919 602 -224 110 -291 139 -415 181 -14 5 -50 18 -80 30 -80 32 -267 90 -371 116 -161 40 -250 120 -285 255 -15 57 -15 67 1 133 10 39 21 73 25 76 4 3 19 24 33 47 19 29 46 53 94 79 61 35 73 38 147 38 51 1 103 -6 138 -17 32 -9 82 -24 110 -32 29 -8 94 -29 143 -45 50 -17 113 -38 140 -47 28 -8 64 -22 82 -29 17 -8 35 -14 41 -14 11 0 113 -42 277 -116 199 -89 504 -251 642 -341 45 -29 85 -53 89 -53 4 0 26 -16 50 -35 23 -19 45 -35 49 -35 4 0 41 -26 83 -57 42 -32 84 -62 93 -68 76 -44 392 -320 571 -498 218 -217 305 -316 475 -539 53 -71 99 -128 102 -128 3 0 59 108 125 240 110 222 119 245 124 310 8 120 -5 147 -157 319 -61 70 -361 372 -432 436 -96 85 -269 232 -309 260 -16 11 -79 59 -142 106 -199 150 -439 305 -693 447 -97 54 -487 242 -502 242 -4 0 -28 10 -53 22 -25 12 -54 25 -65 29 -21 7 -70 25 -145 54 -25 9 -60 23 -78 31 -18 8 -39 14 -46 14 -8 0 -27 7 -42 15 -16 8 -37 15 -46 15 -10 0 -32 6 -50 14 -33 14 -82 29 -188 59 -30 9 -79 23 -109 31 -29 9 -62 16 -73 16 -11 0 -27 4 -37 10 -10 5 -43 14 -72 19 -127 24 -195 38 -214 44 -12 4 -52 11 -90 17 -39 5 -92 14 -120 19 -55 10 -260 35 -430 52 -179 18 -714 20 -915 3z m559 -637 c157 -58 237 -258 165 -412 -35 -74 -119 -149 -190 -170 -154 -45 -296 18 -378 168 -34 62 -37 180 -6 249 44 99 130 167 235 186 60 11 103 6 174 -21z"/>
 </g>

</svg>