<!DOCTYPE svg PUBLIC "-//W3C//DTD SVG 20010904//EN" "http://www.w3.org/TR/2001/REC-SVG-20010904/DTD/svg10.dtd">
<svg version="1.0" xmlns="http://www.w3.org/2000/svg" width="676px" height="676px" viewBox="0 0 6760 6760" preserveAspectRatio="xMidYMid meet">
<g id="layer101" fill="#0c0c0c" stroke="none">
 <path d="M3065 6720 c-365 -25 -691 -89 -954 -186 -202 -76 -442 -219 -476 -284 -12 -24 -15 -86 -15 -355 0 -364 2 -374 66 -401 l34 -14 0 -84 0 -84 -31 -12 c-68 -28 -63 30 -69 -952 l-5 -889 -48 173 c-26 95 -83 301 -128 458 -44 157 -85 309 -90 338 -9 47 -120 454 -284 1037 -62 225 -70 237 -156 261 -86 25 -318 30 -420 9 -168 -34 -326 -114 -440 -224 l-52 -50 6 -218 c26 -986 370 -2532 818 -3670 54 -139 67 -163 108 -202 132 -126 373 -306 561 -418 91 -55 350 -186 440 -223 30 -13 58 -26 63 -30 4 -3 0 -28 -9 -54 -23 -66 -16 -206 13 -261 94 -179 340 -275 843 -327 196 -20 932 -17 1130 5 463 52 703 150 793 322 29 55 36 195 13 261 -9 26 -16 48 -16 49 0 1 28 15 63 30 101 45 356 174 432 218 171 100 394 264 547 401 74 66 86 88 188 363 59 157 62 189 20 236 l-29 34 26 81 c26 77 29 82 56 82 51 0 84 25 105 83 24 62 91 283 161 527 237 827 411 1839 428 2492 l6 216 -49 49 c-116 116 -285 202 -458 232 -86 16 -279 13 -361 -4 -90 -19 -117 -31 -134 -56 -18 -29 -310 -1078 -360 -1294 -10 -44 -101 -370 -220 -790 l-40 -140 0 1383 c-1 1202 -3 1387 -16 1412 -22 43 -155 134 -296 204 -265 131 -606 218 -1009 256 -158 15 -597 21 -755 10z"/>
 </g>
<g id="layer102" fill="#fbfbfb" stroke="none">
 <path d="M3283 6723 c53 -2 141 -2 195 0 53 1 9 3 -98 3 -107 0 -151 -2 -97 -3z"/>
 <path d="M3673 6713 c15 -2 39 -2 55 0 15 2 2 4 -28 4 -30 0 -43 -2 -27 -4z"/>
 <path d="M2992 6499 c-426 -35 -827 -145 -1073 -294 -97 -59 -89 -29 -89 -360 l0 -293 -31 -26 c-17 -14 -39 -26 -50 -26 -18 0 -19 -8 -19 -105 0 -97 1 -105 19 -105 11 0 33 -12 50 -26 l31 -26 0 -1378 c0 -1321 -1 -1383 -19 -1492 -32 -183 -94 -377 -136 -426 -19 -22 -32 -27 -70 -27 -39 0 -51 5 -71 28 -33 38 -31 68 15 205 46 138 70 248 79 371 l8 90 -330 1187 -330 1187 -121 -7 c-222 -12 -382 -47 -505 -112 -113 -60 -105 -41 -86 -206 90 -769 311 -1729 585 -2538 109 -323 205 -577 229 -603 72 -81 358 -289 542 -394 155 -89 472 -243 500 -243 4 0 43 44 88 98 81 98 353 371 473 474 79 69 110 83 153 68 20 -6 105 -84 231 -210 110 -110 203 -200 207 -200 5 0 8 1215 8 2700 l0 2700 -92 -1 c-51 -1 -139 -6 -196 -10z"/>
 <path d="M3480 3812 c0 -1486 3 -2702 8 -2702 4 0 97 90 207 200 201 201 239 230 286 215 53 -17 434 -382 571 -548 45 -53 85 -97 90 -97 19 0 298 133 424 201 277 150 599 391 640 479 12 25 47 115 79 200 65 178 89 210 154 210 l39 0 26 78 c31 92 32 109 7 117 -11 3 -27 22 -36 42 -19 40 -25 16 64 308 205 670 378 1481 457 2143 20 165 27 148 -86 206 -126 65 -285 101 -505 112 l-121 7 -330 -1187 -330 -1186 8 -90 c9 -124 33 -234 79 -372 21 -65 39 -131 39 -146 0 -65 -76 -109 -136 -80 -16 7 -39 31 -51 53 -32 59 -91 264 -114 393 -18 110 -19 178 -19 1943 l0 1828 -26 24 c-14 13 -58 42 -97 64 -289 160 -701 258 -1181 279 l-146 7 0 -2701z m244 2304 c72 -30 72 -142 -1 -172 -46 -20 -86 -10 -118 28 -31 36 -32 76 -4 112 35 45 70 54 123 32z m28 -863 c26 -24 33 -75 14 -111 -19 -37 -44 -52 -86 -52 -42 0 -67 15 -85 50 -21 40 -19 72 6 104 36 46 105 50 151 9z m-14 -858 c75 -63 34 -175 -64 -175 -38 0 -94 59 -94 100 0 23 10 42 34 66 42 42 82 45 124 9z m9 -876 c65 -62 19 -169 -73 -169 -37 0 -94 59 -94 98 0 33 32 79 64 93 30 12 76 2 103 -22z m-1 -873 c25 -24 34 -43 34 -66 0 -44 -56 -100 -100 -100 -43 0 -100 56 -100 97 2 93 100 135 166 69z m-15 -846 c52 -29 61 -116 15 -159 -66 -63 -184 6 -162 93 15 61 92 95 147 66z"/>
 <path d="M569 5540 c-116 -18 -256 -81 -341 -152 l-27 -23 10 -155 c6 -85 12 -160 14 -167 3 -8 24 -3 69 17 133 61 317 101 529 115 67 5 97 11 94 18 -2 7 -23 85 -48 174 -36 134 -47 163 -64 167 -43 11 -183 14 -236 6z m-146 -210 c34 -27 44 -78 23 -118 -45 -87 -170 -63 -183 35 -5 37 -2 45 25 73 38 37 95 41 135 10z"/>
 <path d="M5992 5540 c-29 -4 -55 -10 -56 -11 -1 -2 -22 -74 -45 -159 -23 -85 -44 -162 -47 -171 -4 -14 9 -18 93 -23 211 -15 396 -56 528 -115 36 -16 66 -27 69 -23 2 4 7 59 10 122 4 63 9 135 12 160 l5 46 -57 42 c-143 106 -345 158 -512 132z m475 -214 c23 -20 28 -32 28 -71 0 -39 -5 -51 -28 -71 -30 -26 -83 -32 -118 -14 -30 17 -52 68 -45 106 14 70 106 99 163 50z"/>
 <path d="M2623 1125 c-248 -240 -403 -434 -438 -548 -12 -41 -12 -54 -1 -81 48 -115 283 -189 721 -227 169 -15 784 -15 950 0 440 39 673 113 722 229 12 30 12 40 -2 83 -43 129 -252 379 -528 632 l-88 80 -175 -174 c-96 -95 -174 -176 -174 -180 0 -3 26 -12 58 -18 157 -35 324 -125 442 -238 89 -84 110 -125 90 -174 -17 -40 -47 -59 -93 -59 -35 0 -47 8 -111 69 -125 120 -237 179 -411 217 -107 23 -303 23 -410 0 -174 -38 -286 -97 -411 -217 -65 -63 -76 -69 -113 -69 -71 0 -117 67 -91 130 19 45 159 173 247 224 88 52 200 98 286 117 31 6 57 15 57 18 0 8 -343 351 -351 351 -3 0 -83 -74 -176 -165z m968 -604 c54 -55 34 -140 -39 -161 -48 -13 -296 -13 -344 0 -73 21 -93 106 -39 161 l29 29 182 0 182 0 29 -29z"/>
 <path d="M3218 43 c89 -2 235 -2 325 0 89 1 16 3 -163 3 -179 0 -252 -2 -162 -3z"/>
 </g>

</svg>