<!DOCTYPE svg PUBLIC "-//W3C//DTD SVG 20010904//EN" "http://www.w3.org/TR/2001/REC-SVG-20010904/DTD/svg10.dtd">
<svg version="1.0" xmlns="http://www.w3.org/2000/svg" width="600px" height="600px" viewBox="0 0 6000 6000" preserveAspectRatio="xMidYMid meet">
<g id="layer101" fill="#5b5b5b" stroke="none">
 <path d="M3420 4223 c-429 -23 -931 -111 -1382 -242 l-68 -20 0 118 c0 88 -4 121 -14 130 -10 8 -274 10 -982 9 l-969 -3 -3 -273 -2 -272 25 -12 c16 -7 24 -17 20 -26 -40 -105 -57 -577 -31 -832 47 -445 152 -700 287 -700 12 0 72 23 133 52 284 132 537 186 826 175 379 -13 707 -138 1189 -452 116 -75 174 -104 210 -105 18 0 59 34 150 123 177 173 248 236 389 349 425 339 885 555 1347 633 189 31 337 43 680 55 306 10 386 21 479 63 100 46 159 121 191 242 21 81 20 122 -4 137 -19 12 -19 12 2 23 27 13 105 170 106 212 1 41 -5 45 -193 128 -834 367 -1631 530 -2386 488z"/>
 </g>
<g id="layer102" fill="#a2a2a2" stroke="none">
 <path d="M90 3940 l0 -190 918 0 917 0 105 30 c759 220 1476 292 2135 215 496 -58 989 -196 1537 -431 83 -35 152 -63 153 -62 13 14 34 83 27 90 -5 5 -80 40 -168 77 -601 259 -1167 408 -1713 451 -172 13 -540 13 -707 0 -378 -30 -769 -103 -1193 -222 -135 -38 -188 -49 -200 -41 -13 8 -16 34 -19 142 l-3 131 -894 0 -895 0 0 -190z"/>
 <path d="M3395 3933 c-273 -16 -560 -54 -803 -104 -160 -33 -541 -128 -611 -153 -36 -13 -100 -16 -378 -16 -330 0 -335 0 -312 -19 23 -18 23 -21 12 -96 -17 -119 -74 -225 -176 -329 -100 -101 -173 -156 -430 -319 -217 -138 -310 -208 -357 -267 -35 -45 -60 -99 -60 -133 0 -32 -33 -61 -59 -52 -28 9 -36 46 -21 103 26 107 130 216 325 342 328 213 416 273 483 331 130 114 198 228 209 352 4 43 11 62 27 72 18 13 -49 15 -562 15 l-582 0 21 -21 c11 -11 18 -27 15 -35 -3 -7 -13 -64 -23 -126 -24 -155 -23 -530 1 -713 32 -236 79 -424 128 -509 38 -65 44 -65 157 -13 132 61 310 120 446 147 139 28 428 38 573 20 319 -40 629 -165 1017 -410 94 -59 179 -112 191 -118 18 -10 28 -4 78 47 l57 57 -21 19 c-14 13 -20 29 -18 49 2 26 8 32 32 34 18 2 36 -4 50 -17 l23 -21 57 52 58 53 -21 27 c-24 30 -26 49 -9 66 18 18 49 14 75 -9 l22 -22 56 43 55 42 -20 25 c-23 29 -25 54 -8 71 19 19 53 14 77 -12 l23 -24 63 46 63 45 -20 28 c-43 58 18 105 71 55 l28 -27 67 42 c37 23 65 44 64 48 -31 59 -32 60 -13 81 24 26 37 25 75 -6 l31 -27 167 81 c193 93 410 169 620 217 81 19 139 34 130 34 -10 1 -22 10 -28 20 -12 23 -14 799 -2 817 4 6 15 15 25 21 34 18 -341 74 -618 93 -138 9 -400 11 -520 3z m-1818 -295 c5 -7 19 -51 31 -98 35 -136 83 -223 171 -311 88 -88 152 -126 277 -168 198 -67 385 -76 1099 -57 425 11 558 -4 707 -78 59 -29 63 -33 63 -66 0 -29 -4 -36 -24 -38 -13 -2 -45 8 -72 22 -136 75 -311 89 -844 69 -415 -15 -627 -9 -795 23 -372 70 -583 253 -665 578 -18 72 -22 103 -15 117 12 21 53 25 67 7z"/>
 <path d="M4578 3828 c17 -17 17 -819 0 -836 -15 -15 -20 -15 132 3 69 9 256 20 415 25 388 13 455 21 540 62 80 40 124 105 144 211 12 67 17 77 36 77 35 0 21 22 -32 49 -261 131 -763 309 -1105 391 -144 34 -146 34 -130 18z"/>
 </g>
<g id="layer103" fill="#f1f1f1" stroke="none">
 <path d="M173 4123 l-73 -4 0 -184 0 -185 70 0 70 0 0 185 0 185 815 0 814 0 4 -105 3 -105 0 107 -1 108 -815 1 c-448 0 -848 -1 -887 -3z"/>
 <path d="M3438 4123 c12 -2 32 -2 45 0 12 2 2 4 -23 4 -25 0 -35 -2 -22 -4z"/>
 <path d="M3813 4123 c15 -2 37 -2 50 0 12 2 0 4 -28 4 -27 0 -38 -2 -22 -4z"/>
 <path d="M3393 4023 c9 -2 25 -2 35 0 9 3 1 5 -18 5 -19 0 -27 -2 -17 -5z"/>
 <path d="M3828 4023 c12 -2 32 -2 45 0 12 2 2 4 -23 4 -25 0 -35 -2 -22 -4z"/>
 <path d="M3475 3933 c-421 -14 -908 -94 -1385 -229 l-155 -44 -184 0 c-145 0 -181 -3 -173 -12 5 -7 19 -51 31 -98 59 -240 203 -400 431 -481 200 -71 407 -85 936 -65 542 22 716 7 874 -72 81 -40 101 -62 84 -89 -23 -37 -38 -37 -115 1 -151 74 -193 77 -1109 66 -399 -5 -467 0 -655 55 -293 85 -487 296 -545 593 -11 56 -11 64 5 82 18 20 17 20 -105 20 -97 0 -121 -3 -112 -12 17 -17 15 -105 -4 -169 -30 -103 -74 -169 -184 -280 -106 -106 -148 -137 -526 -379 -195 -125 -304 -243 -304 -331 0 -31 -17 -49 -45 -49 -83 0 -46 165 61 276 66 68 163 138 379 275 223 141 313 208 397 297 80 85 124 171 143 277 7 43 19 82 27 86 7 5 -242 9 -560 9 -534 0 -572 -1 -557 -17 12 -11 15 -26 11 -47 -32 -187 -38 -281 -33 -526 5 -268 23 -426 67 -600 35 -139 85 -251 117 -264 6 -2 61 18 123 45 451 201 886 230 1345 88 205 -64 427 -174 685 -339 58 -37 128 -80 157 -96 l52 -29 53 52 52 52 -22 31 c-27 36 -22 66 14 82 21 10 28 8 52 -15 l27 -26 53 50 c57 55 59 60 37 79 -20 17 -19 53 3 73 25 23 35 21 69 -7 l28 -24 50 43 c48 42 49 44 32 63 -23 25 -22 58 4 75 25 18 56 11 70 -15 13 -24 23 -20 89 29 48 35 49 38 35 60 -43 65 18 113 75 58 l26 -24 59 39 c33 22 65 42 70 44 6 1 2 12 -7 23 -22 24 -23 47 -2 67 22 23 50 20 77 -9 l23 -26 150 73 c221 109 459 191 671 234 84 16 91 20 78 34 -23 25 -22 815 0 840 14 16 6 19 -107 38 -68 12 -180 28 -250 37 -125 15 -486 36 -563 33 -22 -1 -76 -3 -120 -5z"/>
 <path d="M4590 3428 c3 -222 2 -413 -2 -426 -5 -13 -4 -21 0 -18 20 12 357 37 622 46 304 10 381 20 458 59 72 37 122 113 137 211 8 49 29 80 54 80 9 1 -15 17 -54 37 -160 82 -496 213 -770 300 -120 37 -409 113 -434 113 -14 0 -15 -43 -11 -402z"/>
 </g>

</svg>