<!DOCTYPE svg PUBLIC "-//W3C//DTD SVG 20010904//EN" "http://www.w3.org/TR/2001/REC-SVG-20010904/DTD/svg10.dtd">
<svg version="1.0" xmlns="http://www.w3.org/2000/svg" width="600px" height="600px" viewBox="0 0 6000 6000" preserveAspectRatio="xMidYMid meet">
<g id="layer101" fill="#131313" stroke="none">
 <path d="M53 5740 c-17 -10 -37 -28 -42 -39 -15 -27 -15 -2376 -1 -2579 40 -558 138 -1083 301 -1613 l39 -128 0 -526 c0 -584 -1 -573 65 -601 53 -22 2073 -21 2115 1 35 18 60 52 60 82 0 23 1 23 144 23 l144 0 6 -30 c7 -37 47 -77 87 -85 64 -14 134 26 145 85 l7 30 143 0 c143 0 144 0 144 -23 0 -30 25 -64 60 -82 42 -22 2062 -23 2115 -1 66 28 65 17 65 601 l0 526 39 128 c164 532 263 1069 301 1619 6 93 10 628 10 1356 0 1095 -1 1204 -16 1225 -38 53 17 51 -1370 51 -1425 0 -1335 4 -1368 -65 -14 -29 -16 -120 -16 -767 -1 -586 -4 -741 -14 -771 -35 -96 -117 -152 -222 -152 -79 0 -145 38 -189 109 l-30 49 -5 761 c-5 835 -2 790 -66 821 -28 13 -197 15 -1326 15 -1263 0 -1294 -1 -1325 -20z"/>
 </g>
<g id="layer102" fill="#a4a4a4" stroke="none">
 <path d="M230 5285 l0 -235 1150 0 1150 0 0 235 0 235 -1150 0 -1150 0 0 -235z"/>
 <path d="M3470 5285 l0 -235 1150 0 1150 0 0 235 0 235 -1150 0 -1150 0 0 -235z"/>
 <path d="M230 4153 c0 -680 8 -956 35 -1233 23 -231 12 -210 103 -210 102 0 243 -16 317 -35 220 -57 420 -226 521 -440 66 -140 77 -204 82 -472 l4 -233 619 0 619 0 0 145 c0 162 -9 197 -63 253 -43 46 -95 70 -162 78 -67 8 -101 32 -116 83 -9 30 -8 44 4 73 22 53 58 73 130 71 127 -4 253 -70 339 -178 78 -97 91 -141 97 -345 l6 -175 235 0 235 0 6 175 c6 204 19 248 97 345 86 108 212 174 340 178 73 2 109 -19 131 -76 29 -76 -19 -139 -112 -151 -69 -8 -120 -32 -164 -78 -54 -56 -63 -91 -63 -253 l0 -145 619 0 619 0 5 238 c4 196 8 251 26 319 56 221 212 419 413 524 113 58 240 88 414 96 l143 6 5 26 c12 57 36 347 46 541 5 113 10 505 10 873 l0 667 -1150 0 -1150 0 0 -297 c0 -164 -5 -327 -11 -363 -40 -251 -274 -425 -526 -389 -197 28 -362 192 -393 389 -5 36 -10 199 -10 363 l0 297 -1150 0 -1150 0 0 -667z"/>
 <path d="M327 2473 c-6 -10 71 -388 107 -533 28 -108 49 -183 92 -327 l25 -83 255 0 254 0 0 203 c0 139 -5 224 -15 272 -49 231 -242 419 -473 461 -83 14 -238 19 -245 7z"/>
 <path d="M5442 2469 c-73 -12 -156 -43 -220 -81 -78 -48 -173 -153 -216 -240 -54 -110 -66 -181 -66 -415 l0 -203 254 0 255 0 25 83 c43 144 64 219 92 327 36 145 113 523 107 533 -6 9 -164 7 -231 -4z"/>
 <path d="M575 890 l0 -420 955 0 c944 0 955 0 988 -20 20 -12 40 -36 49 -58 l14 -37 156 2 157 2 10 32 c32 94 160 94 192 0 l10 -32 156 -2 156 -2 11 31 c6 17 23 41 37 55 l26 24 966 3 967 2 0 420 0 420 -982 0 -983 0 0 -127 c0 -145 -12 -180 -74 -209 -32 -16 -36 -15 -72 2 -63 31 -75 67 -72 212 l3 122 -245 0 -245 0 3 -122 c3 -145 -9 -181 -72 -212 -36 -17 -40 -18 -72 -2 -62 29 -74 64 -74 209 l0 127 -982 0 -983 0 0 -420z"/>
 </g>
<g id="layer103" fill="#fcfcfc" stroke="none">
 <path d="M240 5285 l0 -235 1145 0 1145 0 0 235 0 235 -1145 0 -1145 0 0 -235z"/>
 <path d="M3470 5285 l0 -235 1145 0 1145 0 0 235 0 235 -1145 0 -1145 0 0 -235z"/>
 <path d="M240 4048 c0 -755 5 -915 35 -1185 8 -73 15 -137 15 -143 0 -6 38 -10 104 -10 285 0 474 -70 647 -240 131 -130 211 -283 239 -460 5 -36 10 -156 10 -267 l0 -203 620 0 620 0 0 138 c0 131 -1 141 -27 193 -33 63 -96 115 -151 124 -20 3 -52 8 -71 11 -51 8 -101 62 -101 109 0 48 26 91 66 110 93 44 279 -21 389 -136 101 -106 135 -213 135 -431 l0 -118 230 0 230 0 0 118 c0 218 34 325 135 431 110 115 296 180 389 136 45 -22 70 -67 63 -117 -9 -64 -65 -108 -139 -108 -75 0 -172 -79 -196 -159 -7 -21 -12 -97 -12 -170 l0 -131 620 0 620 0 0 208 c0 115 5 235 11 268 39 222 163 418 343 543 152 104 270 140 494 148 83 3 152 9 152 12 0 3 10 89 21 191 20 171 22 251 26 1048 l4 862 -1145 0 -1146 0 0 -317 c0 -248 -4 -332 -15 -382 -43 -183 -193 -320 -383 -353 -235 -40 -471 118 -527 353 -11 50 -15 134 -15 382 l0 317 -1145 0 -1145 0 0 -772z"/>
 <path d="M580 890 l0 -410 964 -2 c961 -3 965 -3 993 -24 15 -11 33 -36 39 -55 l12 -34 151 -3 c148 -2 151 -2 151 19 0 33 38 77 75 88 68 19 145 -28 145 -88 0 -21 3 -21 151 -19 l151 3 12 34 c6 19 24 44 39 55 28 21 32 21 993 24 l964 2 0 410 0 410 -980 0 -980 0 0 -139 c0 -158 -9 -181 -79 -202 -32 -9 -44 -8 -75 6 -57 27 -66 55 -66 205 l0 130 -240 0 -240 0 0 -130 c0 -150 -9 -178 -66 -205 -31 -14 -43 -15 -75 -6 -70 21 -79 44 -79 202 l0 139 -980 0 -980 0 0 -410z"/>
 </g>

</svg>