<!DOCTYPE svg PUBLIC "-//W3C//DTD SVG 20010904//EN" "http://www.w3.org/TR/2001/REC-SVG-20010904/DTD/svg10.dtd">
<svg version="1.0" xmlns="http://www.w3.org/2000/svg" width="600px" height="600px" viewBox="0 0 6000 6000" preserveAspectRatio="xMidYMid meet">
<g id="layer101" fill="#0a0a0a" stroke="none">
 <path d="M1220 4429 c-345 -28 -670 -108 -925 -228 -118 -56 -269 -152 -285 -181 -22 -41 -8 -90 86 -316 l96 -229 -11 -56 c-30 -150 -1 -362 85 -629 59 -184 176 -476 260 -648 59 -121 72 -141 147 -215 90 -91 178 -147 277 -178 82 -26 223 -36 274 -19 60 20 124 95 210 246 137 241 203 322 300 369 71 33 128 39 213 21 66 -13 214 -75 270 -111 l22 -15 -35 -57 c-85 -141 -86 -281 -3 -446 66 -129 143 -181 269 -180 136 1 261 55 490 211 69 47 219 146 334 219 l209 134 26 -25 c54 -51 126 -42 156 20 13 29 14 41 5 70 -7 19 -10 37 -8 39 1 1 26 16 53 32 l51 30 34 -28 c49 -42 108 -41 144 2 29 34 33 74 12 105 -14 19 -11 22 46 53 l60 33 28 -27 c17 -16 43 -29 68 -32 36 -5 45 -2 72 25 32 32 40 76 20 112 -9 17 -3 23 51 50 l61 31 29 -27 c37 -36 99 -37 135 -3 22 20 25 31 22 71 -3 54 -22 40 187 136 l120 55 185 13 c453 33 690 96 801 214 93 99 139 225 139 381 0 129 -24 212 -85 294 -13 17 -28 54 -34 84 -18 87 -68 176 -144 257 -174 187 -463 307 -826 344 -125 12 -3532 12 -3691 -1z"/>
 </g>
<g id="layer102" fill="#bebebe" stroke="none">
 <path d="M1245 4249 c-232 -18 -455 -61 -659 -129 -122 -41 -354 -148 -376 -175 -9 -11 4 -52 67 -202 l78 -188 35 3 c19 2 195 25 390 52 1764 245 3046 393 3528 407 202 6 202 6 227 -17 35 -33 35 -100 1 -128 -21 -16 -48 -20 -193 -25 -205 -7 -575 -37 -586 -46 -10 -10 86 -124 164 -195 123 -112 283 -211 416 -257 l51 -17 30 48 c103 165 333 196 675 91 113 -36 330 -113 518 -186 77 -30 143 -55 145 -55 3 0 17 26 31 58 32 68 43 196 23 266 -21 77 -42 92 -177 131 -212 60 -534 120 -753 141 -63 6 -79 11 -102 35 -37 36 -37 81 -2 116 25 25 28 26 117 20 174 -12 554 -79 721 -127 36 -10 66 -15 66 -11 0 4 -13 26 -28 47 -133 183 -414 309 -771 344 -125 12 -3471 11 -3636 -1z"/>
 <path d="M3370 3764 c-63 -7 -240 -28 -394 -46 -223 -26 -279 -35 -283 -47 -40 -129 -139 -253 -295 -369 l-68 -50 461 -513 c254 -283 467 -520 474 -528 12 -12 20 -10 59 13 25 15 46 30 46 33 0 3 -18 25 -40 49 -31 34 -40 52 -40 79 0 49 36 85 85 85 31 0 46 -9 99 -59 l61 -60 55 34 c30 19 60 36 65 39 6 2 -9 23 -32 48 -51 52 -56 91 -19 134 18 21 32 28 60 28 31 0 45 -9 95 -58 l58 -58 44 23 c24 12 54 29 67 37 l23 15 -29 31 c-60 64 -66 103 -23 147 48 47 81 41 156 -32 l63 -60 54 27 c85 42 85 42 36 91 -33 34 -42 50 -42 78 0 50 36 85 87 85 34 0 47 -8 103 -61 44 -43 69 -60 81 -56 18 5 324 145 372 170 38 19 36 34 -9 57 -57 29 -172 55 -321 74 -143 18 -224 43 -354 109 -218 109 -449 317 -535 480 -29 55 -24 54 -220 31z"/>
 <path d="M2190 3624 c-140 -19 -392 -52 -560 -74 -723 -96 -1266 -174 -1273 -184 -16 -21 1 -219 28 -326 34 -139 87 -300 98 -300 29 0 593 163 762 220 65 22 129 40 141 40 39 0 78 -42 78 -85 0 -57 -32 -77 -212 -135 -175 -57 -565 -170 -655 -190 -64 -15 -65 -15 -32 -94 12 -27 20 -36 33 -32 9 3 143 47 297 98 l280 92 130 1 c150 0 227 -19 335 -84 l62 -37 61 13 c254 56 637 -134 1019 -505 l106 -104 122 82 121 81 -88 97 c-48 53 -263 292 -477 530 -214 238 -391 432 -395 430 -4 -2 -72 -35 -151 -74 -80 -39 -182 -86 -227 -104 -75 -31 -84 -32 -113 -20 -46 19 -65 68 -46 114 12 28 26 38 92 65 158 65 382 181 499 259 113 75 235 186 264 240 11 20 10 22 -16 21 -15 -1 -143 -16 -283 -35z m735 -1369 c38 -37 37 -88 -1 -122 -54 -49 -138 -10 -138 62 0 74 88 112 139 60z"/>
 <path d="M4645 3349 c-58 -22 -69 -49 -21 -49 46 0 183 -41 254 -76 80 -39 127 -90 138 -152 l7 -35 103 6 c147 9 387 47 423 67 15 8 9 11 -294 122 -104 38 -233 81 -285 94 -108 29 -277 41 -325 23z"/>
 <path d="M1205 2476 c-27 -7 -163 -50 -302 -95 l-251 -82 25 -57 c37 -81 69 -130 117 -181 86 -91 230 -161 332 -161 52 0 58 7 169 200 97 168 126 211 189 278 56 60 56 61 -29 88 -69 21 -189 26 -250 10z"/>
 <path d="M2366 2098 c-34 -59 -46 -93 -46 -133 0 -46 34 -133 71 -185 l31 -42 61 4 c63 5 189 51 236 87 l24 18 -114 103 c-110 98 -222 190 -233 190 -3 0 -16 -19 -30 -42z"/>
 </g>
<g id="layer103" fill="#fefefe" stroke="none">
 <path d="M1355 4253 c-131 -7 -307 -25 -375 -38 -41 -8 -93 -17 -115 -20 -22 -3 -46 -9 -52 -13 -8 -5 4 -82 42 -270 29 -145 56 -267 61 -272 5 -4 54 -2 109 6 55 8 132 18 170 23 190 25 387 52 445 61 36 6 108 15 160 20 52 6 103 13 115 15 11 3 74 12 140 20 66 7 228 27 360 44 132 17 301 37 375 46 74 9 167 20 205 25 39 5 158 19 265 30 107 11 233 25 280 30 400 47 943 75 987 51 12 -6 27 -26 34 -45 11 -30 17 -34 57 -40 25 -3 63 -6 86 -6 37 0 43 3 53 29 20 55 54 63 200 46 70 -9 153 -20 183 -25 30 -5 96 -16 145 -24 50 -9 159 -33 243 -54 83 -21 152 -37 152 -35 0 14 -57 87 -101 129 -92 87 -202 146 -379 202 -104 33 -189 48 -350 62 -92 8 -3365 11 -3495 3z"/>
 <path d="M3370 3764 c-63 -7 -240 -28 -394 -46 -223 -26 -279 -35 -283 -47 -40 -129 -139 -253 -295 -369 l-68 -50 461 -513 c254 -283 467 -520 474 -528 12 -12 20 -10 59 13 25 15 46 30 46 33 0 3 -18 25 -40 49 -31 34 -40 52 -40 79 0 49 36 85 85 85 31 0 46 -9 99 -59 l61 -60 55 34 c30 19 60 36 65 39 6 2 -9 23 -32 48 -51 52 -56 91 -19 134 18 21 32 28 60 28 31 0 45 -9 95 -58 l58 -58 44 23 c24 12 54 29 67 37 l23 15 -29 31 c-60 64 -66 103 -23 147 48 47 81 41 156 -32 l63 -60 54 27 c85 42 85 42 36 91 -33 34 -42 50 -42 78 0 50 36 85 87 85 34 0 47 -8 103 -61 44 -43 69 -60 81 -56 18 5 324 145 372 170 38 19 36 34 -9 57 -57 29 -172 55 -321 74 -143 18 -224 43 -354 109 -218 109 -449 317 -535 480 -29 55 -24 54 -220 31z"/>
 <path d="M2190 3624 c-140 -19 -392 -52 -560 -74 -723 -96 -1266 -174 -1273 -184 -16 -21 1 -219 28 -326 34 -139 87 -300 98 -300 29 0 593 163 762 220 65 22 129 40 141 40 12 0 37 -12 54 -26 l31 -27 72 28 c71 28 90 41 81 57 -3 4 2 22 10 41 12 29 25 39 92 66 158 65 382 181 499 259 113 75 235 186 264 240 11 20 10 22 -16 21 -15 -1 -143 -16 -283 -35z"/>
 <path d="M4645 3349 c-58 -22 -69 -49 -21 -49 46 0 183 -41 254 -76 80 -39 127 -90 138 -152 l7 -35 103 6 c147 9 387 47 423 67 15 8 9 11 -294 122 -104 38 -233 81 -285 94 -108 29 -277 41 -325 23z"/>
 <path d="M1205 2476 c-27 -7 -163 -50 -302 -95 l-251 -82 25 -57 c37 -81 69 -130 117 -181 86 -91 230 -161 332 -161 52 0 58 7 169 200 97 168 126 211 189 278 56 60 56 61 -29 88 -69 21 -189 26 -250 10z"/>
 <path d="M2366 2098 c-34 -59 -46 -93 -46 -133 0 -46 34 -133 71 -185 l31 -42 61 4 c63 5 189 51 236 87 l24 18 -114 103 c-110 98 -222 190 -233 190 -3 0 -16 -19 -30 -42z"/>
 </g>

</svg>