<!DOCTYPE svg PUBLIC "-//W3C//DTD SVG 20010904//EN" "http://www.w3.org/TR/2001/REC-SVG-20010904/DTD/svg10.dtd">
<svg version="1.0" xmlns="http://www.w3.org/2000/svg" width="600px" height="600px" viewBox="0 0 6000 6000" preserveAspectRatio="xMidYMid meet">
<g id="layer101" fill="#010101" stroke="none">
 <path d="M180 5041 c-78 -9 -120 -29 -152 -73 -23 -33 -23 -37 -26 -326 -3 -282 -2 -296 18 -338 12 -24 36 -52 56 -64 l34 -22 0 -291 c0 -161 7 -708 15 -1217 8 -509 16 -1094 18 -1300 2 -339 4 -377 20 -401 29 -44 56 -49 238 -49 155 0 173 2 199 20 34 24 54 79 46 124 l-6 32 57 -4 c54 -4 145 8 185 23 17 7 17 5 2 -30 -24 -59 -1 -130 52 -153 63 -30 146 -3 170 53 20 49 18 77 -11 119 l-24 36 159 0 159 0 -24 -36 c-29 -42 -31 -70 -11 -119 27 -65 30 -65 480 -65 l404 0 29 24 c24 20 39 54 78 175 l49 151 37 -6 c74 -12 139 45 139 121 0 42 -26 92 -52 101 -10 3 -18 10 -18 16 0 12 95 192 147 278 l33 55 64 0 c50 0 69 4 86 20 54 48 60 130 15 179 l-23 25 112 148 c85 112 117 147 132 145 10 -1 37 -5 58 -9 50 -8 99 18 120 62 21 43 20 73 -3 118 l-19 37 109 114 109 114 37 -20 c51 -26 107 -19 145 20 37 36 47 95 25 139 l-16 30 81 64 c45 35 117 90 161 121 l80 57 32 -25 c92 -70 219 11 195 123 l-8 31 97 45 c53 24 134 57 181 73 l85 29 280 -3 c168 -2 328 1 400 8 302 30 485 121 572 286 17 32 71 165 119 294 74 198 89 246 92 308 8 144 -40 221 -173 276 -237 98 -327 132 -475 180 -249 82 -490 131 -805 167 -113 13 -4252 22 -4365 10z"/>
 </g>
<g id="layer102" fill="#989696" stroke="none">
 <path d="M232 4630 l3 -180 1500 0 c966 0 1513 -4 1536 -10 110 -31 118 -190 11 -220 -25 -6 -528 -10 -1484 -10 l-1448 0 0 -342 c0 -189 7 -714 15 -1168 8 -454 15 -978 15 -1165 l0 -340 89 0 c81 0 92 -3 132 -30 69 -46 208 -45 307 2 32 16 68 18 277 18 132 0 275 4 317 9 l77 9 17 51 c87 265 240 597 401 865 531 885 1287 1631 1998 1972 70 34 163 74 208 89 l82 28 -57 1 c-69 1 -101 12 -133 47 -55 59 -13 174 68 187 47 8 356 -11 477 -29 275 -40 615 -134 902 -250 61 -24 112 -43 114 -42 10 11 104 280 104 299 0 22 -11 30 -67 57 -261 120 -580 222 -854 271 -308 56 -210 54 -2497 58 l-2112 4 2 -181z m3572 -231 c25 -28 28 -38 23 -76 -3 -30 -14 -54 -32 -73 -76 -79 -207 -17 -192 92 14 102 130 135 201 57z m-2326 -795 c94 -19 198 -68 274 -129 279 -220 331 -631 117 -915 -163 -216 -446 -314 -702 -242 -98 28 -144 51 -230 116 -174 130 -266 334 -254 560 9 172 73 314 192 432 163 161 378 224 603 178z"/>
 <path d="M1230 3376 c-153 -44 -272 -168 -311 -319 -6 -27 -10 -84 -7 -130 6 -110 44 -195 125 -275 212 -211 558 -153 690 116 37 75 38 78 38 191 0 110 -2 119 -32 182 -44 90 -119 163 -210 207 -63 30 -86 35 -161 38 -53 2 -105 -2 -132 -10z"/>
 <path d="M4660 4168 c0 -25 41 -412 44 -415 2 -2 104 -4 227 -4 298 -1 435 18 549 76 43 22 98 70 89 79 -7 7 -202 83 -305 119 -176 62 -414 125 -566 151 -28 5 -38 3 -38 -6z"/>
 <path d="M4360 3990 c-416 -138 -857 -437 -1305 -885 -476 -476 -874 -1046 -1117 -1599 -34 -79 -118 -300 -118 -312 0 -3 64 -3 142 -2 l143 3 18 55 c11 30 27 76 38 103 l18 48 -34 32 c-49 46 -51 109 -6 159 25 28 34 32 80 32 l51 0 62 115 c33 64 81 149 105 189 l44 74 -25 23 c-47 43 -47 122 0 166 19 18 36 24 72 24 26 0 54 -4 63 -8 13 -7 31 12 82 85 36 51 95 131 131 177 60 77 65 86 51 101 -25 27 -35 76 -24 114 18 64 97 95 165 64 26 -12 30 -9 154 122 118 125 127 136 114 155 -8 11 -14 39 -14 63 0 37 6 50 34 78 40 40 90 45 140 15 l32 -20 84 68 c47 37 126 97 175 133 74 54 90 70 88 89 -9 96 5 131 64 155 43 18 83 11 122 -22 l28 -23 119 55 c65 30 164 69 219 86 55 17 104 34 108 38 5 5 3 67 -4 139 -14 148 -8 142 -99 111z"/>
 </g>
<g id="layer103" fill="#fcfcfc" stroke="none">
 <path d="M2233 4802 l-1993 -2 0 -175 0 -175 1509 0 c1645 0 1559 3 1597 -55 20 -30 22 -92 5 -124 -7 -12 -27 -31 -44 -41 -31 -20 -64 -20 -1496 -20 l-1464 0 7 -617 c5 -340 10 -683 12 -763 2 -80 6 -415 9 -745 3 -330 8 -664 11 -742 l6 -143 74 0 c77 0 114 -11 152 -44 46 -41 200 -31 308 20 53 25 60 26 108 14 50 -11 284 -9 467 5 l76 6 28 87 c15 48 35 103 43 122 16 39 28 69 41 103 55 142 240 506 323 635 9 15 24 41 33 59 9 18 23 37 31 44 8 6 14 16 14 21 0 5 28 50 63 100 34 50 73 107 86 127 48 73 207 279 300 391 276 330 599 641 882 851 130 96 196 142 227 159 15 8 41 25 57 36 87 62 432 234 469 234 8 0 17 4 21 9 3 5 20 13 38 17 28 7 24 9 -38 15 -62 7 -73 11 -97 40 -15 18 -30 44 -33 60 -9 39 18 95 57 119 31 19 43 20 183 15 235 -9 409 -32 610 -80 100 -24 127 -31 220 -58 28 -8 76 -22 108 -31 33 -9 80 -25 105 -35 108 -43 269 -103 289 -108 16 -4 24 0 29 13 6 21 18 52 63 170 42 109 41 128 -6 147 -21 9 -83 34 -138 57 -55 22 -109 44 -120 49 -23 10 -129 46 -265 89 -248 79 -570 129 -920 145 -30 1 -952 1 -2047 -1z m1533 -368 c42 -20 64 -59 64 -111 0 -90 -98 -142 -177 -93 -40 24 -56 53 -56 102 0 47 24 84 66 102 43 19 63 19 103 0z m-2215 -847 c129 -49 194 -92 282 -187 113 -122 170 -269 171 -440 1 -290 -186 -548 -463 -637 -75 -24 -101 -28 -206 -27 -107 0 -129 3 -207 31 -174 61 -304 176 -382 337 -56 115 -70 177 -70 296 1 130 25 214 101 355 28 53 174 188 239 222 54 28 142 62 199 77 11 3 76 3 145 2 104 -3 136 -8 191 -29z"/>
 <path d="M4415 4002 c-11 -2 -57 -17 -103 -33 -783 -269 -1756 -1235 -2271 -2254 -42 -82 -87 -177 -100 -210 -13 -33 -32 -78 -42 -100 -22 -51 -69 -183 -69 -196 0 -6 53 -8 136 -7 l136 3 36 98 35 98 -22 15 c-26 18 -51 65 -51 94 0 37 31 90 62 106 16 9 48 14 70 13 l39 -3 76 144 c41 80 80 152 87 160 6 8 18 27 25 42 13 25 11 30 -13 58 -40 48 -37 111 8 156 28 28 41 34 78 34 23 0 49 -4 57 -9 14 -9 37 16 106 118 17 25 62 85 102 135 l71 91 -21 23 c-34 37 -31 112 7 151 37 39 79 47 129 26 l38 -16 129 133 c112 117 126 135 114 149 -37 42 -21 131 30 165 36 23 101 22 134 -3 l26 -20 101 81 c55 45 135 106 178 136 65 45 77 58 72 75 -16 49 -16 65 -1 96 34 71 121 90 180 39 l34 -30 113 54 c63 30 165 72 227 92 l114 38 -6 40 c-3 23 -9 77 -12 121 -8 92 -12 102 -39 97z"/>
 </g>

</svg>