<!DOCTYPE svg PUBLIC "-//W3C//DTD SVG 20010904//EN" "http://www.w3.org/TR/2001/REC-SVG-20010904/DTD/svg10.dtd">
<svg version="1.0" xmlns="http://www.w3.org/2000/svg" width="600px" height="600px" viewBox="0 0 6000 6000" preserveAspectRatio="xMidYMid meet">
<g id="layer101" fill="#333333" stroke="none">
 <path d="M1925 5987 c-106 -41 -149 -100 -206 -283 -39 -123 -45 -136 -95 -189 -66 -70 -71 -84 -189 -496 -215 -749 -378 -1401 -464 -1854 -40 -212 -57 -335 -75 -545 -67 -765 -58 -1395 25 -1730 27 -108 86 -235 132 -281 34 -35 37 -44 77 -235 44 -211 63 -260 122 -309 85 -72 155 -79 387 -40 533 89 1125 128 1644 106 161 -6 335 -16 387 -21 162 -16 207 -13 234 13 13 13 25 29 27 36 4 11 23 12 87 6 77 -7 82 -8 82 -30 0 -13 10 -36 23 -50 20 -23 39 -28 205 -55 209 -34 269 -37 335 -14 54 18 124 82 150 135 9 20 35 123 57 229 40 192 40 192 84 241 84 94 141 280 172 569 21 188 24 776 5 1055 -36 546 -60 731 -157 1185 -112 526 -476 1874 -541 2003 -13 26 -42 66 -64 88 -36 36 -48 60 -91 189 -56 170 -94 225 -183 266 -48 23 -60 24 -280 24 -221 0 -232 -1 -280 -24 -62 -29 -107 -76 -136 -141 -33 -74 -44 -400 -30 -870 43 -1391 -45 -2426 -235 -2775 -35 -64 -95 -120 -130 -120 -140 0 -263 347 -329 930 -26 231 -45 571 -52 923 -4 210 -10 346 -17 360 -6 12 -26 29 -43 37 l-33 15 0 82 c0 81 0 81 29 91 57 20 58 24 70 437 14 477 4 818 -26 886 -28 63 -75 113 -135 143 -51 26 -54 26 -282 25 -151 0 -242 -5 -261 -12z"/>
 </g>
<g id="layer102" fill="#b6b6b6" stroke="none">
 <path d="M1961 5793 c-25 -24 -78 -149 -68 -160 2 -2 53 2 113 8 121 12 313 -1 386 -27 22 -8 45 -14 50 -14 11 0 0 125 -14 163 -19 50 -48 57 -252 57 l-186 0 -29 -27z"/>
 <path d="M3594 5797 c-28 -24 -42 -78 -43 -164 l-1 -41 49 19 c78 29 260 43 393 30 61 -6 113 -9 115 -7 10 9 -49 144 -72 164 -25 21 -33 22 -220 22 -188 0 -195 -1 -221 -23z"/>
 <path d="M1922 5455 c-95 -17 -152 -43 -180 -82 -56 -79 -419 -1420 -547 -2016 -90 -422 -131 -760 -151 -1247 l-7 -165 54 -18 c74 -23 196 -94 281 -164 166 -135 296 -339 372 -583 35 -113 66 -264 66 -322 0 -33 -13 -32 120 -12 22 3 40 7 40 8 0 1 -22 89 -49 196 -138 546 -202 1265 -161 1795 34 439 153 1283 318 2254 47 273 50 285 77 309 55 47 135 9 135 -65 0 -20 -24 -180 -54 -357 -137 -807 -235 -1481 -293 -2021 -21 -195 -24 -741 -5 -940 22 -233 63 -516 102 -715 37 -183 92 -401 109 -428 6 -9 51 -9 207 3 109 8 225 15 257 15 l57 0 0 340 0 341 25 24 c33 34 87 34 120 0 l25 -24 0 -336 0 -335 154 0 155 0 3 336 3 336 28 24 c41 35 88 32 121 -7 l26 -31 0 -332 0 -332 203 -12 c111 -7 227 -15 258 -18 l55 -6 27 88 c132 441 220 1156 203 1651 -15 442 -123 1261 -313 2373 -62 365 -64 393 -36 421 32 32 85 35 117 7 26 -22 30 -38 82 -343 215 -1268 311 -2015 321 -2485 11 -537 -60 -1141 -188 -1608 -18 -62 -30 -115 -27 -117 7 -7 141 -25 148 -20 4 3 10 36 14 75 10 101 50 256 96 375 118 301 339 536 597 633 l73 27 0 55 c0 163 -42 698 -71 895 -26 179 -94 514 -166 815 -118 501 -415 1571 -456 1644 -41 75 -125 103 -332 113 -229 10 -330 -20 -374 -111 -22 -44 -22 -47 -12 -322 14 -354 14 -1125 1 -1421 -54 -1191 -224 -1723 -549 -1723 -267 0 -422 336 -506 1091 -29 262 -46 569 -52 929 l-6 365 24 22 c13 11 33 23 44 25 18 3 20 12 23 96 3 87 2 92 -18 92 -12 0 -32 11 -45 25 -24 23 -25 29 -25 152 0 70 5 236 10 367 11 269 7 298 -47 352 -18 18 -50 38 -70 44 -62 19 -316 21 -411 5z"/>
 <path d="M1030 1693 c1 -142 21 -477 35 -578 26 -184 74 -337 118 -374 12 -10 48 -6 184 18 92 17 191 34 218 39 l50 8 -3 59 c-10 176 -95 416 -205 580 -49 72 -154 179 -221 225 -44 30 -158 90 -171 90 -3 0 -5 -30 -5 -67z"/>
 <path d="M4883 1724 c-192 -102 -330 -263 -431 -506 -41 -97 -81 -264 -84 -348 l-3 -64 80 -13 c44 -7 143 -25 219 -40 l140 -26 22 26 c45 52 89 209 115 412 13 103 27 585 17 591 -3 2 -37 -12 -75 -32z"/>
 <path d="M2500 719 c-154 -9 -315 -23 -510 -45 -159 -18 -692 -103 -702 -113 -3 -3 9 -78 28 -166 30 -145 36 -163 64 -188 17 -15 38 -27 46 -27 9 0 82 11 163 25 496 83 1028 122 1556 112 317 -6 684 -29 730 -47 24 -9 55 -56 55 -83 0 -10 19 -16 68 -20 96 -10 112 -9 112 6 0 16 37 51 62 60 9 3 102 -8 207 -25 164 -27 193 -29 220 -18 18 7 37 22 43 34 16 30 78 330 70 337 -10 10 -265 55 -472 84 -213 30 -531 61 -700 70 -69 3 -144 8 -167 11 l-43 5 0 -109 c0 -94 -3 -113 -20 -135 -25 -31 -65 -42 -102 -26 -46 19 -58 55 -58 169 l0 100 -150 0 -150 0 0 -94 c0 -110 -12 -151 -51 -171 -40 -21 -64 -19 -96 9 -27 23 -28 29 -33 137 -4 92 -8 114 -20 115 -8 1 -76 -2 -150 -7z"/>
 </g>
<g id="layer103" fill="#fbfbfb" stroke="none">
 <path d="M1955 5455 c-49 -8 -109 -22 -132 -30 -79 -30 -91 -54 -177 -349 -249 -860 -439 -1626 -515 -2081 -40 -239 -75 -638 -83 -938 l-3 -107 82 -34 c115 -46 204 -107 309 -211 138 -137 228 -281 297 -481 39 -112 64 -218 75 -314 l7 -65 74 2 c40 1 75 4 77 5 1 2 -8 41 -21 87 -140 482 -228 1281 -196 1791 19 298 63 680 142 1215 91 619 226 1424 242 1444 34 44 84 54 125 25 47 -32 46 -39 -33 -512 -191 -1147 -282 -1845 -301 -2297 -19 -473 85 -1290 213 -1676 14 -43 22 -54 38 -52 11 1 112 7 225 13 113 6 220 14 238 16 l32 5 0 335 0 335 25 24 c34 35 93 34 126 -1 l24 -26 3 -334 3 -334 149 0 150 0 0 326 c0 332 2 353 39 381 28 22 89 16 116 -12 l25 -24 0 -335 0 -335 33 -5 c17 -2 124 -10 237 -16 113 -6 213 -12 224 -13 23 -2 34 27 82 211 117 453 183 1097 163 1582 -18 425 -102 1060 -296 2228 l-76 463 20 27 c39 53 106 54 144 2 31 -43 241 -1341 323 -2005 76 -610 87 -863 55 -1315 -27 -388 -110 -886 -191 -1148 -11 -35 -18 -65 -16 -67 2 -2 35 -6 75 -10 l72 -7 6 38 c44 285 117 489 238 669 105 154 285 303 447 369 44 19 83 36 86 38 11 12 -35 675 -61 878 -55 415 -228 1145 -485 2051 -133 468 -135 472 -179 512 -43 38 -79 49 -232 68 -106 13 -247 5 -325 -16 -56 -16 -108 -64 -120 -111 -4 -14 -1 -249 6 -522 31 -1245 -42 -2161 -206 -2587 -97 -251 -245 -373 -410 -336 -206 46 -338 310 -418 835 -49 320 -71 604 -87 1142 -13 429 -13 431 56 455 l35 13 0 83 0 83 -34 14 c-60 25 -60 22 -52 437 8 416 9 410 -53 462 -17 14 -54 30 -83 36 -87 19 -255 22 -353 6z"/>
 <path d="M1043 1514 c6 -248 23 -419 58 -563 20 -86 63 -194 83 -210 7 -5 85 5 196 25 102 19 200 36 219 40 l34 5 -7 72 c-7 82 -45 238 -76 318 -33 85 -104 213 -153 277 -88 113 -248 241 -336 267 l-24 7 6 -238z"/>
 <path d="M4903 1730 c-66 -29 -153 -92 -217 -156 -174 -174 -275 -405 -319 -726 l-5 -36 66 -11 c119 -20 347 -62 364 -67 38 -11 95 135 127 328 33 198 57 688 34 688 -5 0 -27 -9 -50 -20z"/>
 </g>

</svg>