<!DOCTYPE svg PUBLIC "-//W3C//DTD SVG 20010904//EN" "http://www.w3.org/TR/2001/REC-SVG-20010904/DTD/svg10.dtd">
<svg version="1.0" xmlns="http://www.w3.org/2000/svg" width="676px" height="676px" viewBox="0 0 6760 6760" preserveAspectRatio="xMidYMid meet">
<g id="layer101" fill="#262626" stroke="none">
 <path d="M2785 5541 c-745 -285 -1726 -975 -2594 -1826 l-194 -190 6 -120 c10 -216 84 -665 164 -995 104 -433 298 -955 377 -1017 39 -31 380 -87 746 -122 327 -32 428 -40 751 -56 1464 -73 3064 -24 3934 121 182 30 224 41 249 62 38 34 146 281 240 552 132 381 276 1095 293 1450 l5 125 -183 180 c-472 463 -976 879 -1499 1237 -184 125 -215 136 -276 99 l-31 -19 -77 46 c-71 42 -76 47 -71 73 11 47 -18 94 -77 129 -94 54 -409 206 -533 256 l-120 49 -505 2 -505 2 -100 -38z"/>
 </g>
<g id="layer102" fill="#fafafa" stroke="none">
 <path d="M3128 5573 c138 -2 366 -2 505 0 138 1 25 2 -253 2 -278 0 -391 -1 -252 -2z"/>
 <path d="M3060 5363 c0 -5 12 -44 25 -88 31 -98 51 -204 60 -312 l8 -83 227 0 227 0 8 83 c9 108 29 214 60 312 13 44 25 83 25 88 0 4 -144 7 -320 7 -176 0 -320 -3 -320 -7z"/>
 <path d="M2684 5271 c-545 -244 -1187 -676 -1834 -1236 -239 -206 -536 -482 -528 -490 2 -2 77 -9 168 -16 174 -13 475 -8 635 11 631 73 1120 291 1481 661 121 125 220 252 265 340 85 169 99 392 39 615 -24 89 -59 184 -68 184 -4 -1 -75 -31 -158 -69z"/>
 <path d="M3890 5283 c-102 -273 -102 -540 -1 -742 45 -88 144 -215 265 -340 361 -369 850 -588 1481 -661 160 -19 460 -24 635 -11 91 7 167 14 168 16 4 4 -130 133 -268 261 -380 348 -840 715 -1222 972 -140 94 -168 117 -177 145 -8 23 -8 43 -2 59 9 24 5 29 -57 70 -91 61 -98 63 -134 33 -16 -14 -41 -25 -54 -25 -13 0 -97 38 -187 84 -132 69 -405 196 -422 196 -2 0 -13 -26 -25 -57z"/>
 <path d="M3126 4668 c-54 -187 -104 -286 -226 -440 -347 -437 -877 -737 -1510 -852 -337 -61 -755 -72 -1126 -29 l-51 5 9 -68 c55 -449 142 -857 260 -1222 59 -182 149 -417 166 -434 5 -5 50 7 108 30 143 57 333 117 496 157 139 34 142 35 177 17 44 -21 65 -62 57 -107 -9 -48 -42 -69 -143 -94 -176 -43 -374 -105 -361 -112 17 -9 336 -44 578 -64 607 -49 1304 -70 2080 -62 838 9 1337 34 1938 99 190 20 227 28 185 41 -426 126 -749 191 -1193 241 -825 94 -1878 80 -2655 -35 -155 -23 -181 -19 -211 27 -40 60 -8 134 65 154 49 12 411 57 611 75 818 72 1806 48 2520 -61 440 -67 859 -172 1114 -280 44 -19 85 -34 91 -34 14 0 113 250 176 442 110 339 207 793 253 1177 l13 114 -59 -7 c-391 -41 -764 -31 -1108 29 -441 76 -872 264 -1185 516 -103 83 -253 234 -335 337 -122 154 -172 253 -226 440 -3 9 -62 12 -254 12 -192 0 -251 -3 -254 -12z"/>
 <path d="M3573 1183 c48 -2 126 -2 175 0 48 1 8 3 -88 3 -96 0 -136 -2 -87 -3z"/>
 </g>

</svg>