<!DOCTYPE svg PUBLIC "-//W3C//DTD SVG 20010904//EN" "http://www.w3.org/TR/2001/REC-SVG-20010904/DTD/svg10.dtd">
<svg version="1.0" xmlns="http://www.w3.org/2000/svg" width="709px" height="1462px" viewBox="0 0 7090 14620" preserveAspectRatio="xMidYMid meet">
<defs>
  <pattern id="img1" patternUnits="userSpaceOnUse" width="1000" height="1000">
  </pattern>
</defs>
<g id="layer" width="1000" height="1000">
	<path d="M700 14407 c-206 -63 -348 -197 -390 -368 -7 -30 -27 -1500 -60 -4534 -26 -2469 -53 -4935 -59 -5480 -39 -3490 -39 -3304 -12 -3408 27 -105 64 -170 136 -243 64 -64 131 -102 230 -131 55 -15 180 -17 1495 -24 789 -3 2089 -7 2889 -8 1613 -1 1510 -5 1658 65 101 48 174 118 220 211 l38 76 7 256 c4 141 14 1422 23 2846 9 1425 20 3137 25 3805 5 668 17 2383 26 3811 17 2482 17 2599 0 2670 -49 206 -171 350 -336 399 -62 18 -142 20 -1570 35 -2685 27 -3327 34 -3790 40 -454 5 -455 5 -530 -18z m5632 -13545 c90 -45 141 -126 141 -227 0 -101 -51 -182 -141 -227 -46 -22 -55 -23 -390 -26 -226 -2 -361 1 -397 8 -97 20 -173 96 -195 194 -29 131 60 269 191 295 24 5 202 9 394 8 344 -2 351 -2 397 -25z"/>
</g>
</svg>