<svg height="512" viewBox="0 0 64 64" width="512" xmlns="http://www.w3.org/2000/svg"><path d="m16 26h2v8h-2z" fill="#66342e"/><path d="m46 26h2v8h-2z" fill="#66342e"/><path d="m44 39 3-8 3 8z" fill="#f9bb4b"/><path d="m44 53 3 8 3-8z" fill="#f9bb4b"/><path d="m44 39-5 7-5-8z" fill="#f9bb4b"/><path d="m44 53-5-7-5 8z" fill="#f9bb4b"/><path d="m50 39 5 7 5-8z" fill="#f9bb4b"/><path d="m50 53 5-7 5 8z" fill="#f9bb4b"/><path d="m20 53 5-7 5 8z" fill="#f9bb4b"/><path d="m30 54-10-1-3 8z" fill="#f9d88e"/><path d="m20 39h-6l-5 7 5 7h6l5-7z" fill="#a46634"/><path d="m14 39 3-8 3 8z" fill="#f9bb4b"/><path d="m14 39-5 7-5-8z" fill="#f9bb4b"/><path d="m14 53-5-7-5 8z" fill="#f9bb4b"/><g fill="#f9d88e"><path d="m17 31-3 8-10-1z"/><path d="m4 38 5 8-5 8z"/><path d="m4 54 10-1 3 8z"/><path d="m17 31 3 8 10-1z"/><path d="m30 38-5 8 5 8z"/><path d="m60 38-5 8 5 8z"/><path d="m47 31-3 8-10-1z"/><path d="m34 38 5 8-5 8z"/><path d="m34 54 10-1 3 8z"/><path d="m47 31 3 8 10-1z"/><path d="m60 54-10-1-3 8z"/></g><path d="m17 7a10 10 0 1 0 10 10 10 10 0 0 0 -10-10zm0 16a6 6 0 1 1 6-6 6 6 0 0 1 -6 6z" fill="#f9bb4b"/><path d="m47 7a10 10 0 1 0 10 10 10 10 0 0 0 -10-10zm0 16a6 6 0 1 1 6-6 6 6 0 0 1 -6 6z" fill="#f9bb4b"/><path d="m45 3h4v12h-4z" fill="#66342e"/><path d="m15 3h4v12h-4z" fill="#66342e"/><path d="m14 53 3 8 3-8z" fill="#f9bb4b"/><path d="m20 39 5 7 5-8z" fill="#f9bb4b"/><path d="m50 39h-6l-5 7 5 7h6l5-7z" fill="#a46634"/><path d="m14 43h2v2h-2z" fill="#fff"/><path d="m17 46h2v2h-2z" fill="#fff"/><path d="m47 42h2v2h-2z" fill="#fff"/><path d="m43 45h2v2h-2z" fill="#fff"/></svg>