<svg height="512pt" viewBox="0 0 512 512" width="512pt" xmlns="http://www.w3.org/2000/svg"><path d="m512 256c0 141.386719-114.613281 256-256 256s-256-114.613281-256-256 114.613281-256 256-256 256 114.613281 256 256zm0 0" fill="#b15f4c"/><path d="m512 256c0-5.84375-.214844-11.636719-.601562-17.382812l-126.613282-126.617188-267.796875 79.175781 112.457031 112.457031-87.757812 115.503907 91.871094 91.871093c7.394531.644532 14.878906.992188 22.441406.992188 141.386719 0 256-114.613281 256-256zm0 0" fill="#985040"/><path d="m376.820312 360.027344h-62.820312v-183h62.820312c37.59375 0 68.179688 30.582031 68.179688 68.175781v46.644531c0 37.59375-30.585938 68.179688-68.179688 68.179688zm-26.820312-36h26.820312c17.746094 0 32.179688-14.4375 32.179688-32.179688v-46.644531c0-17.742187-14.433594-32.179687-32.179688-32.179687h-26.820312zm0 0" fill="#ffb000"/><path d="m328.589844 429.027344h-161.179688c-21.214844 0-38.410156-17.199219-38.410156-38.410156v-235.589844h238v235.589844c0 21.210937-17.195312 38.410156-38.410156 38.410156zm0 0" fill="#ffda00"/><g fill="#ffc200"><path d="m246.550781 155.027344v274h82.039063c21.210937 0 38.410156-17.199219 38.410156-38.410156v-235.589844zm0 0"/><path d="m161 182.027344h31v216h-31zm0 0"/><path d="m231.5 182.027344h31v216h-31zm0 0"/></g><path d="m246.550781 182.027344h15.949219v216h-15.949219zm0 0" fill="#ffb000"/><path d="m301 182.027344h31v216h-31zm0 0" fill="#ffb000"/><path d="m343 93.027344c-9.210938 0-17.886719 2.253906-25.535156 6.226562-15.550782-22.199218-41.304688-36.726562-70.464844-36.726562-28.914062 0-54.476562 14.28125-70.066406 36.164062-7.375-3.625-15.664063-5.664062-24.433594-5.664062-30.652344 0-55.5 24.847656-55.5 55.5s24.847656 55.5 55.5 55.5c8.769531 0 17.058594-2.042969 24.433594-5.664063 15.589844 21.878907 41.152344 36.164063 70.066406 36.164063 29.160156 0 54.914062-14.53125 70.464844-36.726563 7.644531 3.96875 16.324218 6.226563 25.535156 6.226563 30.652344 0 55.5-24.847656 55.5-55.5s-24.847656-55.5-55.5-55.5zm0 0" fill="#fff"/><path d="m343 93.027344c-9.210938 0-17.886719 2.253906-25.535156 6.226562-15.550782-22.199218-41.304688-36.726562-70.464844-36.726562-.148438 0-.296875.003906-.449219.003906v171.988281c.152344 0 .300781.007813.449219.007813 29.160156 0 54.914062-14.53125 70.464844-36.726563 7.644531 3.96875 16.324218 6.226563 25.535156 6.226563 30.652344 0 55.5-24.847656 55.5-55.5s-24.847656-55.5-55.5-55.5zm0 0" fill="#dce1eb"/></svg>