<svg height="512pt" viewBox="0 0 512 512" width="512pt" xmlns="http://www.w3.org/2000/svg"><path d="m512 256c0 141.386719-114.613281 256-256 256s-256-114.613281-256-256 114.613281-256 256-256 256 114.613281 256 256zm0 0" fill="#76e2f8"/><path d="m511.917969 262.390625-178.84375-178.84375-29.761719 29.765625 23.5 23.5-8.800781 8.796875-62.039063-62.042969-56.703125 56.703125 111.5 111.5-160.625 160.625 99.527344 99.527344c2.101563.050781 4.210937.078125 6.328125.078125 139.25 0 252.527344-111.179688 255.917969-249.609375zm0 0" fill="#2ac4f4"/><path d="m313.816406 242.925781-19.269531 53.257813h-38.546875l-19.273438-58.460938 19.273438-57.820312 19.273438-19.273438 19.273437 19.273438zm0 0" fill="#f2f2fc"/><path d="m313.816406 242.925781-19.269531 53.257813h-19.273437v-135.554688l19.273437 19.273438zm0 0" fill="#e2d8fc"/><path d="m313.816406 150.992188-19.269531 28.910156h-38.546875l-19.273438-28.910156 19.273438-28.90625h38.546875zm0 0" fill="#eebf00"/><path d="m313.816406 150.992188-19.269531 28.910156h-19.273437v-57.816406h19.273437zm0 0" fill="#ea9c00"/><path d="m256 141.359375v115.632813h-38.546875l-19.269531-57.816407 19.269531-57.816406 19.273437-19.273437zm0 0" fill="#f2f2fc"/><path d="m256 141.359375v115.632813h-19.273438v-134.90625zm0 0" fill="#e2d8fc"/><path d="m256 83.539062v57.820313h-38.546875l-19.269531-30.917969 19.269531-26.902344zm0 0" fill="#eebf00"/><path d="m236.726562 83.539062h19.273438v57.816407h-19.273438zm0 0" fill="#ea9c00"/><path d="m217.453125 141.359375v115.632813h-38.542969v-115.632813l19.273438-19.273437zm0 0" fill="#f2f2fc"/><path d="m217.453125 141.359375v115.632813h-19.269531v-134.90625zm0 0" fill="#e2d8fc"/><path d="m178.910156 83.539062h38.542969v57.816407h-38.542969zm0 0" fill="#eebf00"/><path d="m198.183594 83.539062h19.269531v57.816407h-19.269531zm0 0" fill="#ea9c00"/><path d="m333.089844 141.359375v115.632813h-38.542969v-115.632813l19.269531-19.273437zm0 0" fill="#f2f2fc"/><path d="m333.089844 141.359375v115.632813h-19.273438v-134.90625zm0 0" fill="#e2d8fc"/><path d="m294.546875 83.539062h38.542969v57.816407h-38.542969zm0 0" fill="#eebf00"/><path d="m313.816406 83.539062h19.273438v57.816407h-19.273438zm0 0" fill="#ea9c00"/><path d="m362 218.449219v136.898437l-106-41.4375-106 41.4375v-136.898437h38.546875l38.542969 19.273437h57.820312l38.542969-19.273437zm0 0" fill="#e2d8fc"/><path d="m362 218.449219v136.898437l-106-41.4375v-76.1875h28.910156l38.542969-19.273437zm0 0" fill="#b3a2db"/><path d="m362 355.347656v57.113282h-212v-57.113282l106-60.707031zm0 0" fill="#ff5a99"/><path d="m362 355.347656v57.113282h-106v-117.820313zm0 0" fill="#e53c79"/><path d="m323.453125 218.449219c0 21.199219-17.34375 38.542969-38.542969 38.542969h-57.816406c-21.203125 0-38.546875-17.34375-38.546875-38.542969zm0 0" fill="#b3a2db"/><path d="m284.910156 256.992188h-28.910156v-38.542969h67.453125c0 21.199219-17.34375 38.542969-38.542969 38.542969zm0 0" fill="#9f90c4"/></svg>