<?xml version="1.0" encoding="iso-8859-1"?>
<!-- Generator: Adobe Illustrator 19.0.0, SVG Export Plug-In . SVG Version: 6.00 Build 0)  -->
<svg version="1.1" id="Layer_1" xmlns="http://www.w3.org/2000/svg" xmlns:xlink="http://www.w3.org/1999/xlink" x="0px" y="0px"
	 viewBox="0 0 512 512" style="enable-background:new 0 0 512 512;" xml:space="preserve">
<circle style="fill:#F4E3C3;" cx="256" cy="256" r="256"/>
<path style="fill:#FED8B2;" d="M300.422,508.151c112.004-19.596,198.963-111.987,210.315-226.616L328.757,99.556l-46.99,44.718
	l-77.808,32.832l55.491,55.491v75.895l-29.88-32.408l-36.936,10.802l67.927,67.927l-12.316,100.299L300.422,508.151z"/>
<path style="fill:#90DFAA;" d="M256,305.033c0,0-11.493-68.956-85.333-56.889C170.667,248.144,180.722,311.067,256,305.033z"/>
<path style="fill:#7FCC95;" d="M260.741,281.129c0,0,10.216-61.295,75.852-50.567C336.593,230.562,327.656,286.492,260.741,281.129z
	"/>
<rect x="248.242" y="170.667" style="fill:#2C9984;" width="15.515" height="284.444"/>
<rect x="254.845" y="170.667" style="fill:#238C78;" width="8.906" height="284.444"/>
<path style="fill:#C1321F;" d="M251.435,76.714c0,0-71.256-0.574-56.889,28.444c14.367,29.019,12.641,84.759,56.889,85.333
	S251.435,76.714,251.435,76.714z"/>
<path style="fill:#A82116;" d="M251.435,76.714c0,0,79.829,0.343,65.462,29.362s-18.785,62.833-56.889,85.333
	C232.839,207.45,247.668,106.882,251.435,76.714z"/>
<ellipse style="fill:#D83E20;" cx="241.778" cy="99.556" rx="42.667" ry="14.222"/>
<ellipse style="fill:#FC6F58;" cx="259.448" cy="98.9" rx="42.667" ry="14.222"/>
<ellipse style="fill:#C1321F;" cx="254.276" cy="92.444" rx="28.444" ry="10.343"/>
<path style="fill:#A82116;" d="M254.276,82.101c15.71,0,28.444,4.63,28.444,10.343s-12.734,10.343-28.444,10.343V82.101z"/>
<path style="fill:#F1543F;" d="M254.004,108.065c0,0,30.87,0.681,66.151-9.188s-7.166,102.781-62.843,101.078
	C257.312,199.954,228.369,120.656,254.004,108.065z"/>
<path style="fill:#D83E20;" d="M320.155,98.875c-31.872,8.916-60.137,9.221-65.303,9.197v84.611c1.46,4.532,2.46,7.27,2.46,7.27
	C312.989,201.656,355.437,89.005,320.155,98.875z"/>
<path style="fill:#A82116;" d="M256,142.222c0,0-33.904,2.586-63.785-28.444s-8.871,92.479,65.095,86.176
	C331.278,193.652,256,142.222,256,142.222z"/>
<path style="fill:#8E130D;" d="M256,142.222c0,0-0.414,0.029-1.148,0.043v57.832c0.815-0.038,1.631-0.074,2.46-0.145
	C331.278,193.652,256,142.222,256,142.222z"/>
<g>
</g>
<g>
</g>
<g>
</g>
<g>
</g>
<g>
</g>
<g>
</g>
<g>
</g>
<g>
</g>
<g>
</g>
<g>
</g>
<g>
</g>
<g>
</g>
<g>
</g>
<g>
</g>
<g>
</g>
</svg>
