<svg id="Capa_1" enable-background="new 0 0 512 512" height="512" viewBox="0 0 512 512" width="512" xmlns="http://www.w3.org/2000/svg"><circle cx="256" cy="256" fill="#4a7aff" r="256"/><path d="m507.56 303.619-183.313-183.314-10.261 21.632-86.129-86.129-77.697 30 81.327 81.327-43.733 277.154 67.704 67.704c.181 0 .361.007.542.007 125.11 0 229.241-89.754 251.56-208.381z" fill="#0053bf"/><path d="m187.753 120.305h136.493v323.984h-136.493z" fill="#fff"/><path d="m255.839 120.305h68.407v323.984h-68.407z" fill="#e9edf5"/><path d="m187.753 215.199h136.493v229.09h-136.493z" fill="#ffd400"/><path d="m255.839 215.199h68.407v229.09h-68.407z" fill="#ffa300"/><path d="m241.122 395.199-39.665-309.391h-51.297v-30h77.696l43.022 335.576z" fill="#ff583e"/><path d="m255.839 274.076v119.236l15.039-1.928z" fill="#f92814"/><circle cx="286" cy="247" fill="#e8d585" r="18"/><circle cx="210.5" cy="404" fill="#ffea92" r="18"/><circle cx="295" cy="329.744" fill="#e8d585" r="12.229"/><circle cx="207.5" cy="287.744" fill="#ffea92" r="12.229"/><circle cx="270.543" cy="416.229" fill="#e8d585" r="12.229"/></svg>