<svg height="504pt" viewBox="-5 0 503 504" width="504pt" xmlns="http://www.w3.org/2000/svg"><path d="m341.546875 136.441406c-21.160156-24.960937-68.605469-63.609375-164-74.105468v8.054687c102.5625 11.671875 147.90625 57.480469 164 79.371094zm0 0" fill="#545c66"/><path d="m192.765625 328-16 16 16 16-8 16 8 16-16 16 16 16v48l-72 32-32-40v-193.976562h104zm0 0" fill="#f6bb42"/><path d="m436.578125 141.960938-96.214844-35.199219-55.457031 86.148437 56.050781 166.832032 151.671875-50.941407zm-78.484375 25.367187c-4.425781 0-8-3.585937-8-8.007813 0-4.417968 3.574219-8 8-8 4.40625 0 8 3.582032 8 8 0 4.421876-3.59375 8.007813-8 8.007813zm0 0" fill="#ed5565"/><path d="m441.84375 233.015625-70.902344-35.246094-35.265625 70.910157 5.105469 15.167968 35.253906-70.917968 70.90625 35.253906zm0 0" fill="#656d78"/><path d="m140.5 0c-77.3125 0-140 62.679688-140 140s62.6875 140 140 140c77.328125 0 140-62.679688 140-140s-62.671875-140-140-140zm.265625 88c-15.472656 0-28-12.527344-28-28s12.527344-28 28-28c15.453125 0 28 12.527344 28 28s-12.546875 28-28 28zm0 0" fill="#ffce54"/><path d="m444.515625 291.191406-75.839844 25.480469-17.625-53.503906 24.984375-50.238281 50.761719 25.238281zm0 0" fill="#ffce54"/><path d="m120.765625 476c-2.21875 0-4-1.792969-4-4v-176c0-2.207031 1.78125-4 4-4 2.199219 0 4 1.792969 4 4v176c0 2.207031-1.792969 4-4 4zm0 0" fill="#edab37"/><g fill="#656d78"><path d="m405.300781 287.496094c-.703125-2.097656-2.96875-3.238282-5.066406-2.511719-2.09375.703125-3.214844 2.96875-2.511719 5.0625l5.097656 15.167969 7.574219-2.542969zm0 0"/><path d="m352.644531 163.871094c-.082031 0-.144531 0-.214843-.007813-161.753907-8.496093-202.175782-94.328125-203.816407-97.976562-.90625-2.007813 0-4.375 2-5.277344 2.015625-.90625 4.390625-.015625 5.292969 1.992187.394531.847657 40.441406 85.054688 196.9375 93.277344 2.199219.121094 3.902344 1.992188 3.785156 4.199219-.113281 2.136719-1.882812 3.792969-3.984375 3.792969zm0 0"/></g></svg>