<svg height="512pt" viewBox="0 -92 512 512" width="512pt" xmlns="http://www.w3.org/2000/svg"><path d="m490.222656 7.5h-468.445312c-7.886719 0-14.277344 6.394531-14.277344 14.277344v283.75c0 7.886718 6.390625 14.277344 14.277344 14.277344h468.445312c7.886719 0 14.277344-6.390626 14.277344-14.277344v-283.75c0-7.882813-6.390625-14.277344-14.277344-14.277344zm0 0" fill="#2c5771"/><path d="m490.222656 7.5h-11.132812v272.617188c0 7.886718-6.394532 14.277343-14.277344 14.277343-15.375 0-434.535156 0-457.3125 0v11.132813c0 7.886718 6.390625 14.277344 14.277344 14.277344h468.445312c7.886719 0 14.277344-6.390626 14.277344-14.277344v-283.75c0-7.882813-6.390625-14.277344-14.277344-14.277344zm0 0" fill="#24475c"/><path d="m489.125 319.804688h-283.457031v-312.304688h283.457031c8.492188 0 15.375 6.886719 15.375 15.375v281.554688c0 8.492187-6.882812 15.375-15.375 15.375zm0 0" fill="#f3e8d6"/><path d="m489.125 7.5h-10.035156v272.617188c0 7.886718-6.394532 14.277343-14.277344 14.277343h-259.144531v25.410157h283.457031c8.492188 0 15.375-6.882813 15.375-15.375v-281.554688c0-8.492188-6.882812-15.375-15.375-15.375zm0 0" fill="#c9c0b1"/><path d="m167.851562 162.019531c-.425781-6.914062-2.464843-13.597656-5.414062-19.867187-5.796875-12.300782-4.570312-24.410156 3.480469-36.332032l-12.5-12.5c-14.996094 12.339844-30.652344 11.4375-46.832031 0-16.179688 11.4375-31.835938 12.339844-46.832032 0l-12.5 12.5c8.050782 11.921876 9.273438 24.03125 3.480469 36.332032-2.953125 6.269531-4.992187 12.953125-5.417969 19.867187-2.078125 33.878907 18.292969 55.050781 52.132813 68.597657 5.863281 2.347656 12.410156 2.347656 18.269531 0 33.839844-13.546876 54.214844-34.71875 52.132812-68.597657zm0 0" fill="#ffbf14"/><path d="m167.851562 162.019531c-.425781-6.914062-2.464843-13.597656-5.414062-19.867187-5.796875-12.300782-4.570312-24.410156 3.480469-36.332032l-12.5-12.5c-6.503907 5.351563-13.132813 8.207032-19.875 8.796876.210937 13.429687 7.988281 18.203124 8.992187 34.589843 2.082032 33.878907-18.289062 55.050781-52.132812 68.597657-5.859375 2.34375-12.40625 2.34375-18.265625 0-7.3125-2.925782-13.992188-6.214844-19.957031-9.902344 8.484374 15.476562 24.285156 26.8125 45.269531 35.214844 5.859375 2.347656 12.410156 2.347656 18.269531 0 33.839844-13.546876 54.214844-34.71875 52.132812-68.597657zm0 0" fill="#e0a812"/><path d="m490.222656 327.304688h-409.222656c-4.140625 0-7.5-3.355469-7.5-7.5 0-4.140626 3.359375-7.5 7.5-7.5h409.222656c3.738282 0 6.777344-3.039063 6.777344-6.777344v-283.75c0-3.738282-3.039062-6.777344-6.777344-6.777344h-468.445312c-3.738282 0-6.777344 3.042969-6.777344 6.777344v283.75c0 3.738281 3.039062 6.777344 6.777344 6.777344h31.222656c4.140625 0 7.5 3.359374 7.5 7.5 0 4.144531-3.359375 7.5-7.5 7.5h-31.222656c-12.007813 0-21.777344-9.769532-21.777344-21.777344v-283.75c0-12.007813 9.769531-21.777344 21.777344-21.777344h468.445312c12.007813 0 21.777344 9.769531 21.777344 21.777344v283.75c0 12.007812-9.769531 21.777344-21.777344 21.777344zm0 0"/><path d="m256 37.273438v41.613281h212v-41.613281zm0 0" fill="#2c5771"/><path d="m439 37.273438h29v41.613281h-29zm0 0" fill="#24475c"/><path d="m198.167969 210.203125c0 4.144531 3.355469 7.5 7.5 7.5 4.140625 0 7.5-3.355469 7.5-7.5v-31.03125c0-4.144531-3.359375-7.5-7.5-7.5-4.144531 0-7.5 3.355469-7.5 7.5zm0 0"/><path d="m198.167969 272.273438c0 4.140624 3.355469 7.5 7.5 7.5 4.140625 0 7.5-3.359376 7.5-7.5v-31.035157c0-4.140625-3.359375-7.5-7.5-7.5-4.144531 0-7.5 3.359375-7.5 7.5zm0 0"/><path d="m198.167969 148.136719c0 4.140625 3.355469 7.5 7.5 7.5 4.140625 0 7.5-3.359375 7.5-7.5v-31.035157c0-4.140624-3.359375-7.5-7.5-7.5-4.144531 0-7.5 3.359376-7.5 7.5zm0 0"/><path d="m205.667969 93.566406c4.140625 0 7.5-3.355468 7.5-7.5v-31.03125c0-4.144531-3.359375-7.5-7.5-7.5-4.144531 0-7.5 3.355469-7.5 7.5v31.03125c0 4.144532 3.355469 7.5 7.5 7.5zm0 0"/><path d="m37.832031 161.5625c-2.117187 34.496094 17.003907 60.074219 56.832031 76.019531 7.703126 3.082031 16.171876 3.070313 23.84375 0 39.828126-15.945312 58.949219-41.523437 56.832032-76.019531-.453125-7.339844-2.511719-14.945312-6.117188-22.605469-4.664062-9.898437-3.738281-19.09375 2.910156-28.9375 2.011719-2.980469 1.628907-6.960937-.910156-9.503906l-12.5-12.5c-2.730468-2.730469-7.085937-2.941406-10.070312-.488281-11.75 9.667968-23.742188 9.5625-37.738282-.332032-2.59375-1.832031-6.0625-1.832031-8.65625 0-14 9.894532-25.992187 10-37.742187.332032-2.980469-2.453125-7.335937-2.238282-10.066406.488281l-12.5 12.5c-2.542969 2.542969-2.921875 6.523437-.914063 9.503906 6.648438 9.84375 7.574219 19.039063 2.914063 28.9375-3.609375 7.664063-5.667969 15.269531-6.117188 22.605469zm14.972657.917969c.332031-5.433594 1.917968-11.199219 4.714843-17.132813 6.078125-12.90625 5.792969-25.785156-.828125-38.359375l3.851563-3.855469c11.15625 7.011719 26.859375 10.730469 46.042969-.851562 19.179687 11.582031 34.886718 7.863281 46.039062.851562l3.855469 3.855469c-6.625 12.574219-6.910157 25.453125-.828125 38.359375 2.792968 5.9375 4.378906 11.699219 4.714844 17.132813 1.722656 28.089843-13.347657 47.527343-47.4375 61.175781-4.089844 1.636719-8.601563 1.636719-12.691407 0-34.085937-13.644531-49.160156-33.085938-47.433593-61.175781zm0 0"/><path d="m452.332031 131.722656h-180.664062c-4.144531 0-7.5 3.355469-7.5 7.5 0 4.140625 3.355469 7.5 7.5 7.5h180.667969c4.140624 0 7.5-3.359375 7.5-7.5 0-4.144531-3.359376-7.5-7.503907-7.5zm0 0"/><path d="m452.332031 173.386719h-180.664062c-4.144531 0-7.5 3.359375-7.5 7.5 0 4.144531 3.355469 7.5 7.5 7.5h180.667969c4.140624 0 7.5-3.355469 7.5-7.5 0-4.140625-3.359376-7.5-7.503907-7.5zm0 0"/><path d="m452.332031 215.054688h-180.664062c-4.144531 0-7.5 3.359374-7.5 7.5 0 4.140624 3.355469 7.5 7.5 7.5h180.667969c4.140624 0 7.5-3.359376 7.5-7.5 0-4.140626-3.359376-7.5-7.503907-7.5zm0 0"/><path d="m452.332031 256.722656h-180.664062c-4.144531 0-7.5 3.355469-7.5 7.5 0 4.140625 3.355469 7.5 7.5 7.5h180.667969c4.140624 0 7.5-3.359375 7.5-7.5 0-4.144531-3.359376-7.5-7.503907-7.5zm0 0"/><path d="m490.222656 0h-468.445312c-12.007813 0-21.777344 9.769531-21.777344 21.777344v283.75c0 12.007812 9.769531 21.777344 21.777344 21.777344h31.222656c4.140625 0 7.5-3.355469 7.5-7.5 0-4.140626-3.359375-7.5-7.5-7.5h-31.222656c-3.738282 0-6.777344-3.039063-6.777344-6.777344v-283.75c0-3.738282 3.039062-6.777344 6.777344-6.777344h176.386718v9c0 4.144531 3.359376 7.5 7.5 7.5 4.144532 0 7.5-3.355469 7.5-7.5v-9h277.058594c3.738282 0 6.777344 3.042969 6.777344 6.777344v283.75c0 3.738281-3.042969 6.777344-6.777344 6.777344h-277.054687v-9c0-4.140626-3.359375-7.5-7.5-7.5-4.144531 0-7.5 3.359374-7.5 7.5v9h-117.167969c-4.140625 0-7.5 3.359374-7.5 7.5 0 4.144531 3.359375 7.5 7.5 7.5h409.222656c12.007813 0 21.777344-9.769532 21.777344-21.777344v-283.75c0-12.007813-9.769531-21.777344-21.777344-21.777344zm0 0"/><path d="m475.5 78.886719v-41.613281c0-4.140626-3.359375-7.5-7.5-7.5h-212c-4.140625 0-7.5 3.359374-7.5 7.5v41.613281c0 4.144531 3.359375 7.5 7.5 7.5h27.667969c4.140625 0 7.5-3.355469 7.5-7.5 0-4.140625-3.359375-7.5-7.5-7.5h-20.167969v-26.613281h197v26.613281h-148.832031c-4.144531 0-7.5 3.359375-7.5 7.5 0 4.144531 3.355469 7.5 7.5 7.5h156.332031c4.140625 0 7.5-3.355469 7.5-7.5zm0 0"/></svg>