<?xml version="1.0" encoding="iso-8859-1"?>
<!-- Generator: Adobe Illustrator 19.0.0, SVG Export Plug-In . SVG Version: 6.00 Build 0)  -->
<svg xmlns="http://www.w3.org/2000/svg" xmlns:xlink="http://www.w3.org/1999/xlink" version="1.1" id="Capa_1" x="0px" y="0px" viewBox="0 0 465 465" style="enable-background:new 0 0 465 465;" xml:space="preserve" width="512" height="512">
<g>
	<rect x="37.5" y="42.83" style="fill:#CFC8AB;" width="390" height="62"/>
	<path style="fill:#FFF8ED;" d="M151.18,269.78c13.13,13.14,30.38,19.22,46.31,17.89c1.32-15.93-4.75-33.17-17.89-46.31   s-30.38-19.21-46.32-17.89C131.96,239.4,138.04,256.64,151.18,269.78z M427.45,382.02c-194.95,0-194.95-53-389.9-53H7.5V104.83h30   h390h30v277.19H427.45z M232.55,253.11c14.53-12.31,23.93-31.94,23.93-54.07c0-22.12-9.4-41.76-23.93-54.06   c-14.53,12.3-23.93,31.94-23.93,54.06C208.62,221.17,218.02,240.8,232.55,253.11z M267.61,287.67   c15.93,1.33,33.17-4.75,46.31-17.89c13.14-13.14,19.22-30.38,17.89-46.31c-15.93-1.32-33.17,4.75-46.31,17.89   S266.29,271.74,267.61,287.67z"/>
	<path style="fill:#945136;" d="M457.5,382.02v40.15H7.5v-93.15h30.05c194.95,0,194.95,53,389.9,53H457.5z"/>
	<path style="fill:#C2DC71;" d="M179.6,241.36c13.14,13.14,19.21,30.38,17.89,46.31c-15.93,1.33-33.18-4.75-46.31-17.89   c-13.14-13.14-19.22-30.38-17.9-46.31C149.22,222.15,166.46,228.22,179.6,241.36z"/>
	<path style="fill:#8AA92C;" d="M232.55,144.98c14.53,12.3,23.93,31.94,23.93,54.06c0,22.13-9.4,41.76-23.93,54.07   c-14.53-12.31-23.93-31.94-23.93-54.07C208.62,176.92,218.02,157.28,232.55,144.98z"/>
	<path style="fill:#C2DC71;" d="M331.81,223.47c1.33,15.93-4.75,33.17-17.89,46.31c-13.14,13.14-30.38,19.22-46.31,17.89   c-1.32-15.93,4.75-33.17,17.89-46.31S315.88,222.15,331.81,223.47z"/>
	<path style="fill:#591200;" d="M240.049,349.8v-23.604c0.077-0.184,0.142-0.371,0.204-0.559l30.313-30.313   c0.448,0.01,0.897,0.028,1.344,0.028c17.189,0,34.436-7.387,47.315-20.267c14.316-14.317,21.629-33.356,20.063-52.236   c-0.303-3.652-3.202-6.552-6.854-6.854c-1.624-0.135-3.28-0.202-4.925-0.202c-17.188,0-34.434,7.387-47.312,20.266   c-13.417,13.415-20.681,30.979-20.254,48.673l-19.895,19.896v-48.168c15.251-14.286,23.933-35,23.933-57.417   c0-23.688-9.689-45.48-26.585-59.789c-2.797-2.369-6.897-2.367-9.694,0c-16.895,14.309-26.585,36.101-26.585,59.789   c0,22.417,8.682,43.131,23.932,57.417v47.956l-19.896-20.173c0.282-17.527-6.96-34.891-20.251-48.182   c-12.879-12.879-30.124-20.266-47.312-20.266c-1.644,0-3.301,0.067-4.924,0.202c-3.653,0.304-6.552,3.202-6.854,6.854   c-1.566,18.88,5.747,37.92,20.063,52.237c12.879,12.879,30.125,20.266,47.314,20.266c0.605,0,1.212-0.019,1.819-0.038   l30.042,30.461v19.956c-45.651-12.308-95.388-24.213-187.5-24.213c-4.142,0-7.5,3.357-7.5,7.5s3.358,7.5,7.5,7.5   c96.474,0,145.536,13.34,192.983,26.241c48.396,13.159,98.441,26.767,196.918,26.767c4.143,0,7.5-3.357,7.5-7.5s-3.357-7.5-7.5-7.5   C334.752,374.525,285.827,362.209,240.049,349.8z M156.48,264.479c-9.283-9.284-14.917-21.454-15.761-33.581   c12.197,0.831,24.283,6.474,33.575,15.767c9.283,9.282,14.917,21.452,15.76,33.579C177.858,279.413,165.772,273.771,156.48,264.479   z M290.805,246.664c9.292-9.292,21.377-14.935,33.574-15.766c-0.844,12.127-6.477,24.297-15.761,33.58   c-9.292,9.293-21.378,14.935-33.574,15.767C275.888,268.117,281.521,255.947,290.805,246.664z M216.117,199.041   c0-16.557,6.049-32.417,16.432-43.688c10.383,11.271,16.432,27.132,16.432,43.688s-6.049,32.416-16.432,43.687   C222.166,231.457,216.117,215.597,216.117,199.041z"/>
	<path style="fill:#591200;" d="M457.5,97.328H435V42.827c0-4.143-3.357-7.5-7.5-7.5h-390c-4.142,0-7.5,3.357-7.5,7.5v54.501H7.5   c-4.142,0-7.5,3.357-7.5,7.5v317.345c0,4.143,3.358,7.5,7.5,7.5h450c4.143,0,7.5-3.357,7.5-7.5V104.828   C465,100.686,461.643,97.328,457.5,97.328z M45,50.327h375v47.001H45V50.327z M450,414.673H15V112.328h435V414.673z"/>
</g>















</svg>
