<?xml version="1.0" standalone="no"?>
<!DOCTYPE svg PUBLIC "-//W3C//DTD SVG 20010904//EN"
 "http://www.w3.org/TR/2001/REC-SVG-20010904/DTD/svg10.dtd">
<svg version="1.0" xmlns="http://www.w3.org/2000/svg"
 width="1000.000000pt" height="1080.000000pt" viewBox="0 0 1000.000000 1080.000000"
 preserveAspectRatio="xMidYMid meet">
<metadata>
Created by potrace 1.15, written by Peter Selinger 2001-2017
</metadata>
<g transform="translate(0.000000,1080.000000) scale(0.100000,-0.100000)"
fill="#000000" stroke="none">
<path d="M3586 8493 c-4 -5 -148 -11 -319 -15 -172 -4 -382 -11 -468 -15
l-156 -8 -41 -42 c-22 -24 -46 -43 -52 -43 -6 0 -33 -22 -60 -50 -27 -27 -54
-50 -60 -50 -6 0 -29 -18 -50 -40 -21 -22 -43 -40 -50 -40 -6 0 -55 -45 -110
-100 -55 -55 -105 -100 -112 -100 -8 0 -20 -9 -28 -20 -8 -11 -20 -20 -27 -20
-8 0 -99 -85 -203 -190 -104 -104 -194 -190 -200 -190 -14 0 -160 -147 -160
-160 0 -6 -32 -42 -70 -80 -38 -38 -70 -74 -70 -80 0 -6 -34 -44 -75 -85 -41
-42 -75 -79 -75 -84 0 -19 99 -111 120 -111 13 0 94 74 239 219 207 208 222
220 264 226 l46 7 6 -36 c7 -34 -12 -122 -75 -341 -21 -75 -26 -168 -11 -208
5 -14 21 -36 36 -51 24 -25 32 -26 125 -26 76 0 102 -4 114 -16 14 -14 16
-226 16 -2184 0 -1958 2 -2170 16 -2184 14 -14 291 -16 2904 -16 2613 0 2890
2 2904 16 14 13 16 48 16 222 0 114 0 1090 0 2169 0 1779 1 1963 16 1977 12
12 37 16 114 16 95 0 99 1 130 30 30 28 33 37 37 103 4 53 -1 91 -16 147 -44
157 -84 306 -88 333 -7 36 30 71 65 62 12 -3 126 -109 252 -235 153 -153 237
-230 250 -230 21 0 120 92 120 111 0 5 -34 42 -75 84 -41 41 -75 79 -75 85 0
6 -31 42 -70 80 -38 38 -70 74 -70 80 0 13 -567 580 -581 580 -5 0 -37 27 -69
60 -32 33 -64 60 -70 60 -6 0 -29 18 -50 40 -21 22 -44 40 -50 40 -6 0 -38 27
-70 60 -32 33 -64 60 -70 60 -6 0 -33 23 -60 50 -27 28 -54 50 -60 50 -7 0
-26 15 -42 33 l-31 32 -476 8 c-687 11 -3286 19 -3295 10z m3618 -69 l88 -6
-7 -126 c-4 -70 -10 -153 -13 -186 l-7 -58 -160 3 c-88 2 -398 3 -690 4 -291
0 -804 4 -1140 9 -419 6 -721 5 -965 -3 -421 -13 -1559 -16 -1571 -4 -10 10
-34 351 -26 359 16 16 773 21 2492 18 1051 -3 1950 -7 1999 -10z m606 -480
c25 -3 48 -9 51 -12 4 -4 32 -83 63 -177 30 -93 83 -249 116 -345 34 -96 77
-233 95 -304 l34 -129 -327 7 c-1197 25 -4463 25 -5679 0 l-332 -7 30 114 c36
138 86 293 140 437 22 59 60 172 84 251 25 80 49 149 55 155 7 7 187 13 543
17 663 7 5066 2 5127 -7z m-5914 -231 c-3 -32 -11 -84 -18 -116 l-11 -58 -275
-255 c-151 -139 -280 -254 -287 -254 -6 0 -21 10 -32 23 l-21 22 319 348 c176
191 323 347 326 347 3 0 3 -26 -1 -57z m6563 -323 l289 -315 -26 -27 c-14 -16
-30 -28 -34 -28 -12 0 -546 511 -553 529 -8 20 -35 179 -35 206 0 26 0 25 359
-365z m-717 -478 c229 -4 420 -10 423 -14 4 -4 4 -23 1 -43 -5 -25 -14 -39
-30 -45 -20 -7 -6286 -5 -6291 3 -1 1 -5 21 -9 44 l-6 41 73 6 c262 22 4604
28 5839 8z m-2632 -247 c173 -8 347 -17 385 -20 39 -3 162 -12 275 -20 622
-46 1200 -118 1765 -221 165 -30 305 -56 311 -58 17 -6 24 -702 24 -2396 l1
-1525 -27 -23 c-20 -18 -36 -22 -68 -20 l-41 3 0 290 c0 160 1 970 3 1800 2
1426 -1 1636 -25 1695 -4 10 -9 3 -14 -20 -5 -19 -13 -633 -19 -1365 -5 -731
-14 -1514 -20 -1740 -5 -225 -10 -465 -10 -532 l0 -123 -40 0 -40 0 0 353 c-1
338 -16 627 -35 658 -21 33 -28 -80 -34 -536 l-6 -480 -100 1 c-2159 14 -3171
15 -4124 5 -1066 -12 -1085 -12 -1110 7 l-26 19 -3 1369 c-2 753 0 1654 4
2002 6 604 7 633 25 643 53 28 502 103 834 139 229 24 1048 98 1230 110 151
10 442 5 885 -15z"/>
<path d="M4980 6391 c0 -6 8 -11 18 -11 40 0 42 -15 42 -264 0 -133 -4 -246
-8 -251 -4 -6 -18 -16 -32 -22 -23 -11 -22 -12 20 -12 25 -1 69 -4 98 -7 59
-8 67 4 19 26 l-32 15 -3 110 -3 110 69 0 c109 0 162 51 162 155 0 68 -24 110
-76 135 -47 22 -274 36 -274 16z m225 -25 c42 -18 65 -61 65 -124 0 -102 -35
-142 -125 -142 l-45 0 0 123 c0 67 4 127 8 133 17 25 51 29 97 10z"/>
<path d="M4150 6316 c-41 -22 -43 -24 -20 -27 31 -5 35 -29 46 -287 7 -182 7
-183 -14 -189 -12 -3 -22 -10 -22 -15 0 -6 7 -7 16 -4 9 3 42 6 75 6 33 0 59
4 59 10 0 6 -9 10 -20 10 -12 0 -24 10 -29 24 -5 13 -15 130 -22 260 -7 130
-15 236 -18 236 -3 -1 -26 -11 -51 -24z"/>
<path d="M4660 6183 c-25 -1 -64 -5 -86 -8 -41 -6 -42 -7 -49 -51 -9 -60 0
-67 21 -15 10 27 24 43 38 46 32 6 96 11 96 7 0 -6 -118 -257 -139 -298 l-21
-39 106 -3 c59 -1 109 -1 111 2 2 2 6 30 9 62 l4 59 -16 -35 c-27 -60 -42 -70
-101 -70 -29 0 -53 2 -53 5 0 3 6 16 14 28 15 22 146 304 146 312 0 3 -8 4
-17 3 -10 -1 -38 -3 -63 -5z"/>
<path d="M3730 6158 c-14 -7 -71 -33 -127 -59 -97 -45 -127 -63 -84 -52 15 4
19 -3 25 -43 3 -26 6 -91 6 -144 0 -101 -4 -112 -45 -123 -11 -3 13 -3 53 0
41 3 86 9 100 13 l27 8 -31 1 c-45 1 -54 17 -54 96 l0 71 45 12 c64 17 80 15
93 -10 9 -20 11 -16 11 30 1 51 -12 71 -22 33 -5 -21 -98 -57 -122 -47 -11 4
-15 22 -15 63 0 32 4 63 8 70 8 13 110 63 130 63 7 0 21 -13 30 -30 19 -33 36
-40 29 -12 -3 9 -8 29 -11 45 -7 30 -10 31 -46 15z"/>
<path d="M5463 6149 c-56 -28 -83 -82 -83 -168 0 -101 30 -145 112 -165 30 -7
90 13 120 41 31 28 9 33 -29 7 -77 -52 -153 15 -153 134 l0 34 78 -7 c42 -3
87 -8 100 -11 20 -4 22 0 22 31 0 54 -23 90 -70 109 -50 20 -47 20 -97 -5z"/>
<path d="M4375 6144 c-16 -7 -39 -16 -50 -20 -19 -6 -18 -7 5 -13 30 -8 38
-47 39 -183 1 -85 0 -88 -26 -102 -27 -15 -24 -15 55 -16 48 0 82 4 82 10 0 6
-9 10 -20 10 -31 0 -39 32 -47 186 l-8 141 -30 -13z"/>
<path d="M5762 6118 c-40 -11 -57 -43 -48 -92 6 -29 17 -43 65 -75 33 -23 61
-50 64 -63 17 -62 -71 -95 -112 -42 -12 15 -21 35 -21 45 0 11 -5 19 -11 19
-6 0 -9 -21 -7 -52 l3 -53 54 -3 c68 -4 96 3 121 28 21 21 26 70 10 100 -5 10
-32 32 -60 49 -71 44 -86 99 -34 123 31 15 73 -13 81 -52 8 -43 23 -37 23 10
0 22 -1 40 -2 40 -2 0 -23 6 -48 14 -30 9 -56 10 -78 4z"/>
<path d="M3932 6063 c-56 -27 -86 -76 -90 -147 -4 -56 -1 -65 23 -94 46 -55
143 -55 198 -1 38 38 28 50 -13 15 -41 -34 -92 -35 -125 -2 -28 28 -50 97 -34
107 6 3 49 12 95 19 94 14 104 22 84 71 -22 51 -75 64 -138 32z"/>
<path d="M6000 6033 c-57 -51 -60 -158 -7 -218 41 -46 142 -49 182 -5 21 23 9
26 -19 5 -23 -17 -69 -19 -97 -5 -30 17 -49 64 -49 124 0 44 5 60 26 85 14 17
33 31 43 31 28 0 59 -28 66 -60 5 -23 12 -30 31 -30 47 0 20 56 -43 89 -41 21
-100 14 -133 -16z"/>
<path d="M6300 5981 c-18 -5 -25 -14 -25 -31 0 -33 39 -35 43 -2 3 17 10 22
31 22 34 0 59 -25 67 -68 l7 -32 -65 0 c-77 0 -108 -17 -108 -60 0 -44 37 -64
103 -57 37 3 58 1 72 -9 22 -16 54 -18 75 -3 13 9 13 10 0 8 -38 -4 -40 0 -40
79 0 54 -5 84 -16 100 -27 39 -98 65 -144 53z"/>
<path d="M4886 5688 c-2 -13 -14 -74 -25 -137 -30 -162 -75 -290 -132 -375
-87 -131 -95 -136 -299 -221 -102 -42 -300 -132 -440 -199 -355 -171 -326
-160 -379 -141 -52 18 -104 56 -145 105 -59 70 -203 204 -299 276 -110 83
-197 130 -304 164 -60 20 -74 21 -87 11 -21 -18 -20 -36 9 -198 30 -163 50
-229 116 -379 27 -63 49 -127 49 -146 0 -22 -17 -66 -45 -119 -117 -217 -166
-338 -201 -492 -33 -146 -21 -167 87 -147 164 31 292 101 513 279 113 90 182
128 267 144 110 20 273 -23 318 -83 12 -16 28 -58 37 -92 15 -57 15 -72 -1
-196 -19 -147 -17 -157 36 -148 52 10 255 114 318 164 l65 50 107 -54 c59 -29
161 -72 226 -94 65 -22 124 -43 132 -45 11 -4 8 -12 -11 -33 -57 -61 -78 -153
-78 -346 0 -137 8 -166 47 -166 67 0 254 262 314 438 l21 62 211 0 c174 0 243
5 382 25 325 48 341 52 697 166 334 107 482 191 610 348 32 39 77 84 100 101
91 64 111 103 69 133 -11 7 -39 42 -63 78 -24 35 -78 99 -121 141 -168 167
-330 265 -633 384 -259 101 -475 149 -733 160 -70 3 -124 10 -141 19 -33 17
-84 86 -131 175 -42 82 -287 332 -364 372 -79 41 -94 43 -99 16z m84 -59 c64
-39 232 -220 290 -312 30 -49 74 -115 97 -147 39 -54 41 -59 22 -65 -30 -10
-85 13 -117 49 -15 18 -57 81 -93 140 -35 59 -92 137 -127 174 l-63 67 49 -61
c56 -71 157 -261 167 -317 7 -34 5 -39 -11 -35 -10 1 -42 32 -73 68 -138 164
-160 183 -73 65 45 -62 82 -126 82 -145 0 -5 -15 -10 -32 -10 -28 0 -43 10
-91 62 l-58 63 36 -55 c32 -49 33 -56 18 -62 -29 -12 -284 -60 -289 -55 -3 3
16 37 41 77 26 39 60 100 75 134 36 78 90 286 90 343 0 50 9 53 60 22z m-2059
-538 c80 -30 168 -87 250 -160 89 -80 156 -181 121 -181 -5 0 -66 42 -135 93
-120 90 -193 134 -204 124 -2 -3 40 -36 94 -73 109 -76 192 -153 218 -203 9
-18 15 -34 13 -36 -2 -2 -32 14 -68 35 -65 38 -130 60 -130 43 0 -5 28 -26 63
-46 100 -60 127 -90 127 -142 0 -54 -20 -69 -97 -75 l-68 -6 45 -12 c74 -21
100 -34 111 -54 22 -41 -48 -102 -130 -113 -93 -13 -78 -24 29 -22 90 2 105 0
108 -15 4 -22 -56 -80 -109 -104 -101 -46 -98 -44 -64 -38 17 3 53 15 82 26
78 30 92 23 54 -29 -39 -54 -107 -104 -253 -188 -108 -61 -142 -85 -121 -85 4
0 95 43 202 95 107 53 196 93 200 90 10 -11 -126 -130 -184 -162 -76 -40 -250
-109 -297 -118 l-36 -7 14 73 c8 40 19 89 25 108 24 73 142 329 189 413 28 49
50 100 50 115 0 16 -21 78 -46 138 -95 230 -129 337 -152 488 l-9 59 26 -5
c15 -3 52 -15 82 -26z m2839 -60 c212 -34 472 -106 634 -176 l38 -16 -28 -31
-29 -31 25 6 c14 3 51 11 82 18 56 13 59 12 120 -17 109 -51 267 -162 363
-255 135 -131 144 -167 60 -232 -102 -78 -156 -94 -253 -73 -69 14 -77 4 -22
-26 70 -37 163 -14 294 75 72 49 94 55 114 35 19 -19 15 -25 -35 -59 -27 -18
-93 -78 -148 -134 -106 -108 -157 -144 -263 -182 -134 -49 -219 -26 -306 84
-124 157 -165 348 -116 551 23 96 23 92 12 92 -21 0 -54 -147 -59 -258 -10
-220 48 -372 200 -522 50 -50 56 -60 38 -60 -23 0 -97 45 -143 88 -34 31 -36
20 -4 -22 23 -31 59 -96 53 -96 -24 0 -146 -28 -237 -55 -218 -64 -243 -67
-540 -72 -203 -3 -301 0 -375 10 -55 8 -104 12 -110 10 -12 -4 -35 -55 -65
-143 -33 -98 -83 -200 -128 -266 -54 -79 -126 -148 -146 -141 -9 4 -16 10 -16
14 0 12 29 55 84 125 l49 63 -54 -51 c-30 -27 -63 -57 -73 -65 -18 -13 -19
-12 -13 24 3 21 23 61 43 90 l38 52 -35 -32 c-41 -38 -49 -40 -49 -13 0 25 23
73 58 119 l25 33 -27 -17 c-15 -10 -29 -16 -31 -13 -14 14 46 97 100 138 56
43 105 100 105 122 0 6 -17 6 -42 1 -62 -12 -235 -8 -288 6 -64 18 -200 73
-200 81 0 3 57 -9 128 -27 138 -36 252 -42 327 -19 38 12 33 13 -85 17 -160 7
-226 29 -658 221 -386 172 -405 178 -513 185 -107 7 -178 -12 -237 -62 -55
-47 -82 -45 -100 10 -20 61 -23 303 -5 405 15 85 45 170 60 170 4 0 40 -30 78
-65 100 -94 143 -118 212 -117 65 0 98 15 406 184 350 193 497 247 824 302
229 39 437 57 583 50 52 -2 178 -17 280 -33z m-1781 -1024 c6 -8 8 -16 5 -20
-3 -3 2 -4 13 -1 10 2 27 -3 37 -11 20 -15 20 -15 0 -30 -23 -17 -14 -19 20
-4 20 9 29 9 41 -1 24 -20 18 -47 -16 -70 -48 -35 -25 -35 41 -1 60 32 80 33
80 6 0 -17 -87 -88 -144 -117 -23 -12 -36 -23 -29 -25 17 -6 79 22 161 73 44
28 79 43 89 40 14 -6 14 -8 -2 -26 -40 -44 -309 -199 -323 -185 -2 2 1 35 8
73 11 69 11 272 -1 272 -4 0 -9 9 -12 20 -6 23 14 27 32 7z"/>
<path d="M6573 4618 c-33 -16 -56 -73 -50 -121 7 -54 40 -85 98 -93 38 -5 49
-3 73 17 56 49 42 147 -27 189 -35 22 -61 24 -94 8z m102 -48 c21 -21 29 -40
29 -65 0 -74 -75 -101 -129 -45 -36 37 -37 80 -5 115 32 34 69 32 105 -5z"/>
<path d="M5885 4091 c-113 -34 -153 -57 -187 -109 -46 -69 1 -114 165 -161
181 -51 205 -44 322 92 70 80 86 107 68 107 -13 0 -26 -13 -93 -89 -79 -90
-132 -119 -185 -101 -19 6 -35 15 -35 19 0 4 20 22 45 40 49 35 63 55 18 25
-75 -49 -143 -69 -157 -45 -9 14 46 56 108 81 31 12 55 25 53 27 -3 2 -45 -14
-95 -36 -88 -40 -135 -50 -147 -31 -10 15 74 62 175 97 52 18 85 33 72 33 -12
0 -83 -24 -158 -54 -108 -44 -136 -52 -141 -40 -8 22 23 62 68 84 58 30 211
60 314 61 60 0 83 3 70 9 -37 16 -216 10 -280 -9z"/>
</g>
</svg>
