<!DOCTYPE svg PUBLIC "-//W3C//DTD SVG 20010904//EN" "http://www.w3.org/TR/2001/REC-SVG-20010904/DTD/svg10.dtd">
<svg version="1.0" xmlns="http://www.w3.org/2000/svg" width="512px" height="512px" viewBox="0 0 5120 5120" preserveAspectRatio="xMidYMid meet">
<g id="layer101" fill="#030506" stroke="none">
 <path d="M540 4585 l-535 -535 -3 -47 -3 -47 1243 -1243 c684 -685 1272 -1266 1308 -1294 84 -63 186 -113 286 -140 103 -28 296 -31 399 -5 l69 17 646 -646 645 -645 50 0 49 0 213 213 213 213 0 49 0 50 -646 646 -645 646 17 64 c26 94 24 298 -4 401 -26 97 -81 208 -143 289 -26 35 -607 623 -1291 1307 l-1243 1242 -45 0 -46 0 -534 -535z"/>
 </g>
<g id="layer102" fill="#386e6f" stroke="none">
 <path d="M667 4453 l-447 -448 290 -290 290 -289 343 349 c189 193 360 359 379 369 24 13 44 17 64 12 21 -5 218 -196 677 -654 357 -356 655 -660 664 -676 32 -61 27 -67 -357 -451 l-361 -361 238 -234 c205 -202 248 -240 306 -268 162 -79 338 -92 500 -37 47 16 86 24 100 20 12 -4 164 -148 337 -321 l315 -314 128 128 127 127 -310 310 c-170 170 -314 321 -321 336 -9 23 -6 40 16 105 56 162 43 334 -37 497 -40 82 -44 86 -1267 1310 l-1226 1227 -448 -447z"/>
 <path d="M1247 3613 l-317 -318 575 -575 575 -575 320 320 320 320 -572 572 c-315 315 -575 573 -578 573 -3 0 -148 -143 -323 -317z"/>
 <path d="M4260 855 l-125 -125 255 -255 255 -255 127 127 128 128 -252 252 c-139 139 -255 253 -258 253 -3 0 -61 -56 -130 -125z"/>
 </g>
<g id="layer103" fill="#8e8e8e" stroke="none">
 <path d="M667 4453 l-447 -448 288 -288 287 -287 350 351 c193 193 363 357 379 366 63 33 47 48 754 -660 653 -653 662 -663 662 -702 0 -38 -8 -48 -365 -405 l-365 -366 232 -230 c218 -216 238 -234 318 -273 159 -78 318 -90 487 -36 47 14 92 23 106 20 13 -4 163 -145 333 -316 170 -170 313 -309 319 -309 13 0 245 232 245 245 0 6 -139 149 -309 319 -171 170 -312 320 -316 333 -3 14 6 59 20 106 54 168 42 327 -36 487 l-41 85 -1227 1228 -1226 1227 -448 -447z"/>
 <path d="M4260 855 l-125 -125 250 -250 c137 -138 254 -250 260 -250 13 0 245 232 245 245 0 10 -490 505 -500 505 -3 0 -61 -56 -130 -125z"/>
 </g>
<g id="layer104" fill="#ece470" stroke="none">
 <path d="M670 4445 l-445 -445 285 -285 285 -285 365 365 c358 357 366 365 405 365 39 0 49 -9 707 -668 659 -658 668 -668 668 -707 0 -39 -8 -47 -365 -405 l-366 -366 233 -230 c218 -215 238 -233 318 -271 87 -43 205 -73 284 -73 57 0 182 24 231 44 76 32 64 41 407 -301 l318 -318 127 128 128 127 -318 318 c-244 245 -317 323 -317 342 0 14 9 48 20 76 64 170 44 378 -52 543 -24 41 -351 375 -1248 1274 -668 669 -1217 1217 -1220 1217 -3 0 -205 -200 -450 -445z"/>
 </g>

</svg>