<?xml version="1.0" encoding="iso-8859-1"?>
<!-- Generator: Adobe Illustrator 19.0.0, SVG Export Plug-In . SVG Version: 6.00 Build 0)  -->
<svg version="1.1" id="Layer_1" xmlns="http://www.w3.org/2000/svg" xmlns:xlink="http://www.w3.org/1999/xlink" x="0px" y="0px"
	 viewBox="0 0 512 512" style="enable-background:new 0 0 512 512;" xml:space="preserve">
<path style="fill:#F5F6F6;" d="M322.677,260.301c9.7-20.959,24.578-44.16,52.063-72.904c5.963,0.703,12.176-1.217,16.75-5.791
	l24.48-24.48c7.93-7.93,7.93-20.788,0-28.719l-32.377-32.377c-7.93-7.93-20.788-7.93-28.719,0l-24.48,24.48
	c-4.576,4.576-6.495,10.789-5.791,16.751c-28.743,27.485-51.945,42.362-72.903,52.063L322.677,260.301z"/>
<path style="fill:#E5E5E5;" d="M374.74,187.396c5.963,0.703,12.176-1.217,16.75-5.791l24.48-24.48c7.93-7.93,7.93-20.788,0-28.719
	l-16.188-16.188L287.188,224.811l35.489,35.489C332.377,239.342,347.255,216.141,374.74,187.396z"/>
<path style="fill:#7A7A7C;" d="M255.071,187.725c-54.282,26.296-92.725,16.091-170.665,94.032L7.324,358.839
	c-9.765,9.765-9.765,25.597,0,35.361l55.238,55.238l55.238,55.238c9.765,9.765,25.597,9.765,35.361,0l77.083-77.083
	c77.941-77.941,67.736-116.383,94.032-170.665L255.071,187.725z"/>
<path style="fill:#6A6A6B;" d="M289.673,222.326L62.562,449.438l55.238,55.238c9.765,9.765,25.597,9.765,35.361,0l77.083-77.083
	c77.941-77.941,67.736-116.383,94.032-170.665L289.673,222.326z"/>
<rect x="426.946" y="44.48" transform="matrix(-0.7071 -0.7071 0.7071 -0.7071 700.2788 434.0084)" style="fill:#F6C958;" width="26.16" height="54.984"/>
<rect x="438.11" y="49.104" transform="matrix(-0.7071 -0.7071 0.7071 -0.7071 704.9048 445.1721)" style="fill:#E5BC53;" width="13.08" height="54.984"/>
<rect x="371.077" y="0" style="fill:#F6C958;" width="26.161" height="54.984"/>
<rect x="457.015" y="114.766" style="fill:#E5BC53;" width="54.984" height="26.161"/>
<path style="fill:#F6C958;" d="M342.84,225.624l-50.238-6.226l-6.226-50.238c-12.358,8.708-23.684,15.059-34.42,20.046l7.811,63.027
	l63.027,7.811C327.78,249.309,334.132,237.983,342.84,225.624z"/>
<path style="fill:#E5BC53;" d="M342.84,225.624l-50.238-6.226l-32.835,32.835l63.027,7.811
	C327.78,249.309,334.132,237.983,342.84,225.624z"/>
<path style="fill:#F5F6F6;" d="M84.405,281.757c-22.748,22.748-44.113,44.113-60.78,60.78l145.838,145.838
	c16.667-16.667,38.03-38.03,60.78-60.78c4.01-4.01,7.776-7.91,11.336-11.72L96.125,270.421
	C92.317,273.981,88.417,277.746,84.405,281.757z"/>
<path style="fill:#E5E5E5;" d="M96.545,415.455l72.919,72.919c16.667-16.667,38.03-38.03,60.78-60.78
	c4.01-4.01,7.776-7.91,11.336-11.72l-72.727-72.727L96.545,415.455z"/>
<circle style="fill:#F6C958;" cx="165.164" cy="346.835" r="34.76"/>
<path style="fill:#E5BC53;" d="M189.747,371.419c-13.577,13.577-35.59,13.577-49.166,0c13.454-13.454,35.537-35.537,49.166-49.166
	C203.324,335.83,203.324,357.842,189.747,371.419z"/>
<g>
</g>
<g>
</g>
<g>
</g>
<g>
</g>
<g>
</g>
<g>
</g>
<g>
</g>
<g>
</g>
<g>
</g>
<g>
</g>
<g>
</g>
<g>
</g>
<g>
</g>
<g>
</g>
<g>
</g>
</svg>
