<!DOCTYPE svg PUBLIC "-//W3C//DTD SVG 20010904//EN" "http://www.w3.org/TR/2001/REC-SVG-20010904/DTD/svg10.dtd">
<svg version="1.0" xmlns="http://www.w3.org/2000/svg" width="681px" height="681px" viewBox="0 0 6810 6810" preserveAspectRatio="xMidYMid meet">
<g id="layer101" fill="#000000" stroke="none">
 <path d="M712 6755 c-351 -80 -625 -364 -697 -724 -26 -126 -17 -345 19 -464 48 -160 122 -285 232 -393 l74 -72 -19 -43 c-10 -24 -37 -75 -60 -114 -110 -185 -139 -446 -77 -686 30 -120 60 -178 150 -299 102 -135 118 -164 106 -196 -6 -14 -21 -40 -34 -57 -38 -51 -84 -150 -113 -244 -25 -81 -27 -102 -27 -263 -1 -189 5 -226 65 -382 57 -147 184 -310 314 -403 33 -24 108 -66 167 -93 l107 -50 -6 -34 c-9 -59 16 -369 36 -450 78 -304 376 -573 713 -642 99 -20 257 -20 356 0 178 37 305 107 444 244 l87 87 28 -30 c84 -87 262 -189 392 -222 329 -84 677 13 910 254 106 111 149 188 191 343 17 62 39 121 49 131 14 14 44 20 142 27 152 12 192 22 294 73 106 52 159 92 247 186 163 174 248 401 248 665 0 286 -77 483 -265 672 l-100 101 66 37 c233 133 402 402 439 700 68 540 -322 1014 -860 1043 -88 5 -117 2 -183 -16 -118 -32 -142 -29 -191 23 -131 140 -171 178 -236 221 -195 130 -443 182 -666 140 l-97 -19 -24 30 c-13 16 -42 66 -63 111 -76 156 -276 332 -459 402 -134 51 -216 64 -375 59 -133 -5 -146 -7 -235 -42 -52 -20 -101 -35 -108 -34 -7 2 -37 39 -66 83 -93 140 -260 257 -457 320 -75 25 -104 28 -240 31 -109 2 -174 -1 -218 -11z"/>
 <path d="M6248 3601 c-546 -362 -900 -789 -1033 -1245 -31 -107 -55 -287 -55 -404 0 -93 21 -273 40 -342 6 -23 10 -44 7 -46 -2 -2 -48 18 -103 46 -113 56 -246 103 -372 130 -117 26 -309 44 -366 36 -109 -17 -154 -123 -92 -218 24 -36 54 -47 158 -53 559 -37 978 -335 1193 -848 55 -132 69 -181 94 -317 35 -191 78 -266 158 -277 122 -16 177 97 139 288 -33 162 -132 414 -240 611 -31 56 -55 102 -53 103 1 1 48 29 104 64 416 254 724 595 868 960 46 116 95 309 95 374 0 26 3 47 8 47 15 0 -6 343 -28 455 -47 240 -181 564 -273 660 -40 42 -47 45 -94 45 -46 0 -61 -6 -155 -69z"/>
 </g>
<g id="layer102" fill="#7aceaa" stroke="none">
 <path d="M762 6496 c-109 -27 -201 -83 -292 -175 -136 -137 -200 -294 -200 -491 0 -163 57 -326 157 -449 80 -97 120 -100 290 -22 131 60 254 86 374 79 l76 -5 6 111 c9 199 84 387 219 549 37 45 68 87 68 92 0 22 -46 83 -109 145 -68 67 -148 116 -248 151 -75 27 -263 35 -341 15z"/>
 <path d="M1975 6134 c-86 -21 -118 -31 -171 -57 -131 -62 -249 -183 -316 -322 -64 -134 -81 -256 -53 -387 30 -145 94 -264 204 -380 128 -135 270 -185 501 -176 148 6 180 19 333 137 174 134 281 403 248 622 -51 327 -304 555 -626 565 -55 2 -109 1 -120 -2z"/>
 <path d="M3061 5554 c-29 -8 -57 -17 -62 -20 -5 -3 -9 -34 -9 -68 0 -138 -52 -335 -127 -478 -26 -51 -62 -93 -139 -168 -57 -55 -109 -100 -114 -100 -27 0 4 -91 65 -185 47 -75 105 -135 170 -180 l54 -38 83 41 c97 49 212 80 321 89 l77 6 0 78 c0 229 75 480 170 566 176 159 182 166 176 202 -13 83 -198 214 -361 256 -74 19 -232 19 -304 -1z"/>
 <path d="M4131 5174 c-269 -72 -469 -330 -487 -629 -8 -121 -3 -131 83 -164 106 -42 189 -97 271 -180 90 -93 150 -174 193 -266 19 -38 39 -73 44 -77 17 -13 112 -9 192 8 219 45 369 185 449 419 36 106 45 290 20 410 -50 244 -213 420 -441 480 -75 19 -251 19 -324 -1z"/>
 <path d="M988 5169 c-135 -15 -251 -72 -353 -174 -83 -84 -126 -153 -169 -272 -30 -84 -31 -95 -31 -238 1 -140 2 -155 29 -225 37 -98 109 -205 163 -243 24 -17 43 -34 43 -39 0 -4 29 11 64 33 99 62 249 100 401 102 66 1 129 -2 140 -6 19 -8 22 -1 43 91 36 159 92 262 225 415 33 37 58 69 56 70 -188 124 -350 315 -373 439 -6 34 -9 37 -49 42 -90 11 -124 12 -189 5z"/>
 <path d="M2300 4573 c-71 -22 -195 -32 -303 -22 -83 7 -104 6 -131 -8 -53 -27 -190 -173 -228 -243 -77 -138 -107 -322 -74 -448 9 -35 16 -72 16 -82 0 -10 20 -58 44 -107 48 -95 130 -194 202 -244 l44 -30 79 56 c137 96 282 150 438 161 l81 7 7 55 c14 112 86 284 168 401 l45 64 -98 96 c-107 105 -164 185 -207 292 -15 38 -30 68 -33 68 -3 -1 -25 -8 -50 -16z"/>
 <path d="M3241 4174 c-132 -28 -282 -123 -364 -229 -282 -369 -97 -954 340 -1070 132 -36 333 -15 453 46 303 154 446 559 300 850 -53 105 -116 193 -185 257 -143 134 -348 189 -544 146z"/>
 <path d="M1050 3845 c-233 -47 -405 -199 -487 -430 -25 -73 -28 -91 -27 -220 0 -123 3 -149 26 -217 72 -215 220 -369 418 -433 41 -14 55 -15 58 -6 11 32 129 176 186 225 86 76 165 121 263 151 45 14 94 35 107 48 15 12 43 66 66 122 l40 100 -28 20 c-116 84 -259 265 -310 396 -26 66 -37 105 -62 214 -5 26 -12 31 -51 37 -65 10 -126 8 -199 -7z"/>
 <path d="M4287 3468 c-19 -267 -141 -515 -327 -665 -32 -27 -59 -52 -59 -57 -1 -4 12 -23 28 -42 69 -78 142 -231 175 -367 25 -102 27 -104 122 -106 150 -3 349 117 447 270 178 278 151 663 -63 880 -52 53 -85 75 -164 113 -55 26 -112 50 -126 53 l-27 5 -6 -84z"/>
 <path d="M2341 3334 c-84 -18 -196 -71 -271 -129 -111 -86 -176 -184 -227 -345 -47 -148 -50 -253 -10 -368 44 -126 131 -250 237 -337 54 -45 199 -125 226 -125 11 0 14 21 14 98 0 260 109 507 303 688 l84 78 -54 74 c-75 105 -129 227 -157 355 -6 24 -11 27 -44 26 -20 0 -66 -7 -101 -15z"/>
 <path d="M6075 3143 c-116 -94 -307 -291 -388 -401 -253 -344 -319 -682 -217 -1101 29 -117 95 -318 111 -335 10 -11 130 61 259 157 111 83 324 293 397 390 247 335 338 697 267 1071 -16 83 -61 235 -73 249 -4 4 -15 -19 -25 -50 -44 -144 -241 -755 -263 -815 -15 -42 -41 -86 -66 -114 -36 -39 -49 -47 -89 -51 -58 -7 -106 11 -119 44 -22 57 -9 117 76 366 117 343 214 647 206 646 -3 0 -37 -25 -76 -56z m-214 -1178 c124 -65 64 -260 -74 -242 -54 7 -89 35 -107 85 -39 110 77 210 181 157z"/>
 <path d="M2875 2686 c-86 -37 -224 -208 -264 -327 -87 -259 -26 -537 160 -721 237 -235 656 -220 908 32 244 245 250 639 13 909 l-39 45 -79 -18 c-108 -24 -244 -31 -334 -17 -43 7 -127 33 -198 61 -67 28 -126 50 -130 50 -4 -1 -21 -7 -37 -14z"/>
 <path d="M1483 2630 c-79 -46 -215 -184 -251 -256 -82 -164 -90 -340 -22 -526 41 -111 93 -192 180 -278 128 -128 263 -184 440 -183 159 1 298 57 419 168 62 58 145 171 136 185 -3 5 -29 11 -58 15 -179 25 -395 144 -526 291 -132 148 -223 352 -240 538 -3 38 -10 71 -16 73 -5 1 -33 -11 -62 -27z"/>
 </g>
<g id="layer103" fill="#e9db54" stroke="none">
 <path d="M762 6496 c-109 -27 -201 -83 -292 -175 -136 -137 -200 -294 -200 -491 0 -163 57 -326 157 -449 80 -97 120 -100 290 -22 131 60 254 86 374 79 l76 -5 6 111 c9 199 84 387 219 549 37 45 68 87 68 92 0 22 -46 83 -109 145 -68 67 -148 116 -248 151 -75 27 -263 35 -341 15z"/>
 <path d="M1975 6134 c-86 -21 -118 -31 -171 -57 -131 -62 -249 -183 -316 -322 -64 -134 -81 -256 -53 -387 30 -145 94 -264 204 -380 128 -135 270 -185 501 -176 148 6 180 19 333 137 174 134 281 403 248 622 -51 327 -304 555 -626 565 -55 2 -109 1 -120 -2z"/>
 <path d="M3061 5554 c-29 -8 -57 -17 -62 -20 -5 -3 -9 -34 -9 -68 0 -138 -52 -335 -127 -478 -26 -51 -62 -93 -139 -168 -57 -55 -109 -100 -114 -100 -27 0 4 -91 65 -185 47 -75 105 -135 170 -180 l54 -38 83 41 c97 49 212 80 321 89 l77 6 0 78 c0 229 75 480 170 566 176 159 182 166 176 202 -13 83 -198 214 -361 256 -74 19 -232 19 -304 -1z"/>
 <path d="M4131 5174 c-269 -72 -469 -330 -487 -629 -8 -121 -3 -131 83 -164 106 -42 189 -97 271 -180 90 -93 150 -174 193 -266 19 -38 39 -73 44 -77 17 -13 112 -9 192 8 219 45 369 185 449 419 36 106 45 290 20 410 -50 244 -213 420 -441 480 -75 19 -251 19 -324 -1z"/>
 <path d="M988 5169 c-135 -15 -251 -72 -353 -174 -83 -84 -126 -153 -169 -272 -30 -84 -31 -95 -31 -238 1 -140 2 -155 29 -225 37 -98 109 -205 163 -243 24 -17 43 -34 43 -39 0 -4 29 11 64 33 99 62 249 100 401 102 66 1 129 -2 140 -6 19 -8 22 -1 43 91 36 159 92 262 225 415 33 37 58 69 56 70 -188 124 -350 315 -373 439 -6 34 -9 37 -49 42 -90 11 -124 12 -189 5z"/>
 <path d="M2300 4573 c-71 -22 -195 -32 -303 -22 -83 7 -104 6 -131 -8 -53 -27 -190 -173 -228 -243 -77 -138 -107 -322 -74 -448 9 -35 16 -72 16 -82 0 -10 20 -58 44 -107 48 -95 130 -194 202 -244 l44 -30 79 56 c137 96 282 150 438 161 l81 7 7 55 c14 112 86 284 168 401 l45 64 -98 96 c-107 105 -164 185 -207 292 -15 38 -30 68 -33 68 -3 -1 -25 -8 -50 -16z"/>
 <path d="M3241 4174 c-132 -28 -282 -123 -364 -229 -282 -369 -97 -954 340 -1070 132 -36 333 -15 453 46 303 154 446 559 300 850 -53 105 -116 193 -185 257 -143 134 -348 189 -544 146z"/>
 <path d="M1050 3845 c-233 -47 -405 -199 -487 -430 -25 -73 -28 -91 -27 -220 0 -123 3 -149 26 -217 72 -215 220 -369 418 -433 41 -14 55 -15 58 -6 11 32 129 176 186 225 86 76 165 121 263 151 45 14 94 35 107 48 15 12 43 66 66 122 l40 100 -28 20 c-116 84 -259 265 -310 396 -26 66 -37 105 -62 214 -5 26 -12 31 -51 37 -65 10 -126 8 -199 -7z"/>
 <path d="M4287 3468 c-19 -267 -141 -515 -327 -665 -32 -27 -59 -52 -59 -57 -1 -4 12 -23 28 -42 69 -78 142 -231 175 -367 25 -102 27 -104 122 -106 150 -3 349 117 447 270 178 278 151 663 -63 880 -52 53 -85 75 -164 113 -55 26 -112 50 -126 53 l-27 5 -6 -84z"/>
 <path d="M2341 3334 c-84 -18 -196 -71 -271 -129 -111 -86 -176 -184 -227 -345 -47 -148 -50 -253 -10 -368 44 -126 131 -250 237 -337 54 -45 199 -125 226 -125 11 0 14 21 14 98 0 260 109 507 303 688 l84 78 -54 74 c-75 105 -129 227 -157 355 -6 24 -11 27 -44 26 -20 0 -66 -7 -101 -15z"/>
 <path d="M2875 2686 c-86 -37 -224 -208 -264 -327 -87 -259 -26 -537 160 -721 237 -235 656 -220 908 32 244 245 250 639 13 909 l-39 45 -79 -18 c-108 -24 -244 -31 -334 -17 -43 7 -127 33 -198 61 -67 28 -126 50 -130 50 -4 -1 -21 -7 -37 -14z"/>
 <path d="M1483 2630 c-79 -46 -215 -184 -251 -256 -82 -164 -90 -340 -22 -526 41 -111 93 -192 180 -278 128 -128 263 -184 440 -183 159 1 298 57 419 168 62 58 145 171 136 185 -3 5 -29 11 -58 15 -179 25 -395 144 -526 291 -132 148 -223 352 -240 538 -3 38 -10 71 -16 73 -5 1 -33 -11 -62 -27z"/>
 </g>

</svg>