<?xml version="1.0" encoding="iso-8859-1"?>
<!-- Generator: Adobe Illustrator 19.0.0, SVG Export Plug-In . SVG Version: 6.00 Build 0)  -->
<svg version="1.1" id="Capa_1" xmlns="http://www.w3.org/2000/svg" xmlns:xlink="http://www.w3.org/1999/xlink" x="0px" y="0px"
	 viewBox="0 0 512.003 512.003" style="enable-background:new 0 0 512.003 512.003;" xml:space="preserve">
<path style="fill:#E6E6E6;" d="M296.024,160.565l1.492-110.347h-83.035l1.492,110.347c-53.322,17.651-90.709,69.573-86.922,128.888
	l10.984,172.085h231.93l10.984-172.085C386.733,230.138,349.347,178.216,296.024,160.565z"/>
<path style="fill:#CCCCCC;" d="M296.024,160.565l1.492-110.347h-41.517v411.319h115.965l10.984-172.085
	C386.733,230.138,349.347,178.216,296.024,160.565z"/>
<path style="fill:#E47700;" d="M141.444,225.986c-9.237,19.058-13.848,40.716-12.396,63.466l10.984,172.085h231.93l10.984-172.085
	c1.452-22.749-3.158-44.408-12.396-63.466H141.444z"/>
<path style="fill:#984D00;" d="M255.997,225.986v235.551h115.965l10.984-172.085c1.452-22.749-3.158-44.408-12.396-63.466H255.997z"
	/>
<rect x="205.648" style="fill:#723802;" width="100.696" height="63.177"/>
<rect x="256.001" style="fill:#4D2602;" width="50.348" height="63.177"/>
<path style="fill:#FBBF00;" d="M129.049,289.452l6.044,94.69h241.81l6.044-94.69c0.59-9.246,0.179-18.313-1.136-27.097H130.185
	C128.869,271.14,128.459,280.206,129.049,289.452z"/>
<path style="fill:#FFA900;" d="M255.997,384.142h120.904l6.044-94.69c0.59-9.246,0.179-18.313-1.136-27.097H255.997V384.142z"/>
<rect x="124.187" y="455.748" style="fill:#723802;" width="263.629" height="56.255"/>
<rect x="256.001" y="455.748" style="fill:#4D2602;" width="131.814" height="56.255"/>
<g>
</g>
<g>
</g>
<g>
</g>
<g>
</g>
<g>
</g>
<g>
</g>
<g>
</g>
<g>
</g>
<g>
</g>
<g>
</g>
<g>
</g>
<g>
</g>
<g>
</g>
<g>
</g>
<g>
</g>
</svg>
