<?xml version="1.0" encoding="iso-8859-1"?>
<!-- Generator: Adobe Illustrator 19.0.0, SVG Export Plug-In . SVG Version: 6.00 Build 0)  -->
<svg version="1.1" id="Capa_1" xmlns="http://www.w3.org/2000/svg" xmlns:xlink="http://www.w3.org/1999/xlink" x="0px" y="0px"
	 viewBox="0 0 512 512" style="enable-background:new 0 0 512 512;" xml:space="preserve">
<path style="fill:#8DFFFF;" d="M432.126,504.498H79.874c-9.126,0-16.525-7.398-16.525-16.525V24.027
	c0-9.126,7.398-16.525,16.525-16.525h352.252c9.126,0,16.525,7.398,16.525,16.525v463.946
	C448.651,497.1,441.252,504.498,432.126,504.498z"/>
<path style="fill:#21D8DE;" d="M432.126,7.502h-41.253c9.126,0,16.525,7.398,16.525,16.525v463.946
	c0,9.126-7.398,16.525-16.525,16.525h41.253c9.126,0,16.525-7.398,16.525-16.525V24.027C448.651,14.9,441.252,7.502,432.126,7.502z"
	/>
<rect x="63.35" y="39.431" style="fill:#45748C;" width="385.3" height="25.311"/>
<rect x="407.4" y="39.431" style="fill:#2D5872;" width="41.25" height="25.311"/>
<path style="fill:#E9FEFF;" d="M385.307,255.439c-42.861-7.96-44.323-0.092-87.184-8.052c-42.86-7.959-41.398-15.827-84.258-23.786
	c-42.858-7.959-44.319-0.092-87.178-8.051c-34.378-6.384-40.245-12.71-63.339-19.071v291.494c0,9.126,7.398,16.525,16.525,16.525
	h352.252c9.126,0,16.525-7.398,16.525-16.525V274.511C425.555,268.149,419.688,261.824,385.307,255.439z"/>
<path style="fill:#D0EFEF;" d="M407.398,487.973c0,9.126-7.398,16.525-16.525,16.525h41.253c9.126,0,16.525-7.398,16.525-16.525
	V274.511c-17.001-4.683-24.678-9.346-41.253-14.027V487.973z"/>
<circle cx="132.66" cy="358.68" r="7.578"/>
<circle cx="312.08" cy="290.03" r="7.578"/>
<circle cx="222.32" cy="358.68" r="7.578"/>
<circle cx="383.61" cy="340.29" r="7.578"/>
<circle cx="293.89" cy="447.77" r="7.578"/>
<circle cx="391.19" cy="437.84" r="7.578"/>
<circle cx="102.34" cy="462.92" r="7.578"/>
<circle cx="125.08" cy="263.66" r="7.578"/>
<path d="M432.126,0H79.874C66.626,0,55.847,10.779,55.847,24.027v463.946c0,13.248,10.779,24.027,24.027,24.027h352.252
	c13.248,0,24.027-10.779,24.027-24.027V24.027C456.153,10.779,445.374,0,432.126,0z M441.149,264.368
	c-3.917-1.326-7.417-2.662-11.029-4.043c-10.492-4.011-21.341-8.158-43.444-12.262c-5.903-1.096-11.236-1.938-16.305-2.576
	c-4.109-0.514-7.862,2.397-8.379,6.507c-0.517,4.111,2.396,7.862,6.507,8.379c4.776,0.601,9.826,1.399,15.438,2.442
	c20.76,3.855,30.507,7.581,40.826,11.525c4.957,1.895,10.052,3.84,16.386,5.794v207.839c0,4.975-4.048,9.023-9.023,9.023H79.874
	c-4.975,0-9.023-4.048-9.023-9.023V206.621c3.915,1.325,7.414,2.662,11.026,4.042c10.491,4.01,21.34,8.157,43.441,12.262
	s33.713,4.128,44.944,4.151c11.045,0.023,21.477,0.044,42.234,3.899c20.758,3.855,30.503,7.58,40.82,11.525
	c10.49,4.01,21.337,8.157,43.438,12.262c17.799,3.305,28.722,3.92,37.06,4.086c0.051,0.001,0.102,0.001,0.152,0.001
	c4.073,0,7.416-3.262,7.497-7.352c0.083-4.143-3.209-7.567-7.351-7.65c-8.119-0.162-17.932-0.738-34.62-3.837
	c-20.758-3.855-30.503-7.58-40.82-11.525c-10.49-4.01-21.337-8.157-43.438-12.262c-22.1-4.104-33.712-4.128-44.942-4.151
	c-11.045-0.022-21.477-0.044-42.235-3.899c-20.759-3.855-30.505-7.58-40.824-11.525c-4.956-1.895-10.05-3.84-16.383-5.794V72.244
	h50.541c4.143,0,7.502-3.359,7.502-7.502s-3.359-7.502-7.502-7.502h-50.54V46.933h370.297v10.308H157.024
	c-4.143,0-7.502,3.359-7.502,7.502s3.359,7.502,7.502,7.502h284.125V264.368z M441.149,31.929H70.851v-7.902
	c0-4.975,4.048-9.023,9.023-9.023h352.252c4.975,0,9.023,4.048,9.023,9.023L441.149,31.929L441.149,31.929z"/>
<g>
</g>
<g>
</g>
<g>
</g>
<g>
</g>
<g>
</g>
<g>
</g>
<g>
</g>
<g>
</g>
<g>
</g>
<g>
</g>
<g>
</g>
<g>
</g>
<g>
</g>
<g>
</g>
<g>
</g>
</svg>
