<svg height="512pt" viewBox="0 -101 512 512" width="512pt" xmlns="http://www.w3.org/2000/svg"><g fill-rule="evenodd"><path d="m405.15625 138.433594c-15.214844-60.894532-44.65625-128.433594-76.628906-128.433594-42.390625 0-21.730469 40.945312-72.527344 40.441406-50.796875.503906-30.136719-40.441406-72.527344-40.441406-31.972656 0-61.410156 67.539062-76.628906 128.433594-1.980469 7.925781-3.722656 15.738281-5.191406 23.277344 47.246094 13.988281 100.339844 21.335937 154.347656 21.335937s107.101562-7.347656 154.351562-21.335937c-1.472656-7.539063-3.210937-15.351563-5.195312-23.277344zm0 0" fill="#ff9256"/><path d="m256 183.046875c-54.007812 0-107.101562-7.351563-154.347656-21.339844-3.640625 18.601563-5.652344 35.515625-5.652344 48.292969 48.648438 15.097656 103.828125 23.046875 160 23.046875s111.355469-7.949219 160-23.046875c0-12.777344-2.011719-29.691406-5.648438-48.292969-47.25 13.992188-100.34375 21.339844-154.351562 21.339844zm0 0" fill="#858fa6"/><path d="m256 233.046875c-56.171875 0-111.351562-7.949219-160-23.046875 0-12.777344 2.011719-29.691406 5.652344-48.289062 1.46875-7.539063 3.210937-15.351563 5.191406-23.277344-58.859375 16.441406-96.84375 42.378906-96.84375 71.566406 0 49.707031 110.136719 90 246 90s246-40.292969 246-90c0-29.1875-37.984375-55.125-96.84375-71.566406 1.984375 7.925781 3.722656 15.738281 5.195312 23.273437 3.636719 18.601563 5.648438 35.515625 5.648438 48.292969-48.644531 15.097656-103.828125 23.046875-160 23.046875zm0 0" fill="#ff9256"/></g><path d="m481.511719 161.335938c-16.789063-12.140626-39.675781-22.535157-68.089844-30.929688-4.066406-15.484375-8.949219-31.066406-14.394531-45.570312-14.535156-38.703126-38.566406-84.835938-70.5-84.835938-25.714844 0-34.351563 13.660156-40.660156 23.640625-7.917969 12.523437-16.886719 16.800781-31.867188 16.800781-15.019531-.003906-23.9375-4.261718-31.867188-16.800781-6.308593-9.980469-14.949218-23.640625-40.660156-23.640625-14.214844 0-28.082031 9.117188-41.222656 27.105469-3.257812 4.457031-2.285156 10.714843 2.175781 13.972656 4.457031 3.257813 10.714844 2.285156 13.972657-2.175781 9.035156-12.367188 17.707031-18.902344 25.074218-18.902344 14.695313 0 18.105469 5.394531 23.753906 14.328125 11.527344 18.226563 26.949219 26.109375 48.773438 26.109375 21.824219.003906 37.25-7.886719 48.769531-26.109375 5.652344-8.9375 9.0625-14.328125 23.753907-14.328125 15.289062 0 35.128906 27.539062 51.777343 71.867188 7.402344 19.710937 13.792969 41.902343 18.351563 62.777343-44.019532 12.054688-93.121094 18.402344-142.652344 18.402344s-98.632812-6.347656-142.65625-18.40625c2.613281-12.027344 5.839844-24.511719 9.539062-36.691406 1.605469-5.28125-1.378906-10.867188-6.660156-12.472657-5.285156-1.605468-10.871094 1.378907-12.476562 6.660157-1.84375 6.070312-3.566406 12.183593-5.164063 18.265625-28.414062 8.394531-51.304687 18.789062-68.09375 30.929687-25.199219 18.226563-30.488281 36.527344-30.488281 48.667969 0 28.546875 27.917969 54.484375 78.617188 73.03125 47.535156 17.390625 110.53125 26.96875 177.382812 26.96875s129.847656-9.578125 177.382812-26.96875c50.695313-18.546875 78.617188-44.484375 78.617188-73.03125 0-12.140625-5.289062-30.441406-30.488281-48.664062zm-55 102.910156c-45.386719 16.605468-105.945313 25.753906-170.511719 25.753906s-125.121094-9.148438-170.511719-25.753906c-41.617187-15.222656-65.488281-34.996094-65.488281-54.246094 0-20.433594 27.636719-41.636719 73.207031-56.925781-.476562 2.253906-.929687 4.488281-1.363281 6.703125-.011719.054687-.023438.109375-.03125.164062-3.722656 19.066406-5.8125 36.585938-5.8125 50.058594 0 4.378906 2.851562 8.25 7.035156 9.550781 49.523438 15.371094 105.875 23.5 162.964844 23.5 12.183594 0 24.507812-.375 36.636719-1.113281 5.511719-.335938 9.707031-5.078125 9.371093-10.589844-.332031-5.515625-5.070312-9.699218-10.585937-9.375-11.722656.714844-23.640625 1.078125-35.421875 1.078125-52.328125 0-103.929688-7.046875-149.785156-20.421875.449218-8.277344 1.597656-17.914062 3.332031-28.304687 45.347656 12.257812 95.714844 18.722656 146.453125 18.722656 50.742188 0 101.117188-6.464844 146.46875-18.726563 1.730469 10.324219 2.878906 19.945313 3.324219 28.308594-8.734375 2.546875-17.746094 4.882813-26.875 6.96875-5.152344 1.175782-8.566407 6.359375-7.605469 11.558594 1.019531 5.519531 6.582031 9.1875 12.058594 7.9375 12.171875-2.777344 24.148437-5.988281 35.59375-9.542969 4.183594-1.300781 7.035156-5.171875 7.035156-9.550781 0-15.328125-2.648438-35.4375-7.199219-56.921875 45.566407 15.285156 73.199219 36.488281 73.199219 56.921875 0 19.25-23.867188 39.023438-65.488281 54.246094zm0 0"/><path d="m335.542969 217.550781h-.003907c-5.476562.730469-9.320312 5.761719-8.589843 11.234375.671875 5.023438 4.96875 8.679688 9.902343 8.679688.441407 0 .886719-.03125 1.335938-.089844 5.472656-.726562 9.320312-5.757812 8.589844-11.234375-.730469-5.472656-5.753906-9.320313-11.234375-8.589844zm0 0"/><path d="m124.714844 81.8125c1.285156.550781 2.621094.8125 3.9375.8125 3.878906 0 7.570312-2.269531 9.195312-6.0625l.003906-.007812c2.171876-5.074219-.179687-10.949219-5.253906-13.125-5.078125-2.179688-10.957031.179687-13.132812 5.253906-2.175782 5.078125.175781 10.953125 5.25 13.128906zm0 0"/></svg>