<svg height="512pt" viewBox="0 -66 512.00034 512" width="512pt" xmlns="http://www.w3.org/2000/svg"><g fill-rule="evenodd"><path d="m162.949219 74.050781c2.59375 9.929688 5.902343 19.859375 9.835937 29.710938l41.632813-17.511719c-3.066407-9.21875-5.296875-18.40625-6.550781-27.433594-4.542969-32.691406 9.769531-39.613281-6.636719-46.578125-27.84375-11.816406-55.257813 25.554688-60.757813 60.199219 9.5 2.089844 17.359375 3.023438 22.476563 1.613281zm0 0" fill="#5fa4ff"/><path d="m214.417969 86.25-41.632813 17.511719c7.578125 18.972656 17.476563 37.652343 29.046875 55.4375l35.859375-24.570313c-9.851562-15.746094-17.863281-32.109375-23.273437-48.378906zm0 0" fill="#5fa4ff"/><path d="m237.691406 134.628906-35.859375 24.570313c11.003907 16.910156 23.515625 33.015625 36.984375 47.808593l31.183594-29.90625c-11.988281-13.195312-22.972656-27.554687-32.308594-42.472656zm0 0" fill="#5fa4ff"/><path d="m270 177.101562-31.183594 29.90625c14.691406 16.132813 30.519532 30.707032 46.761719 43.058594l25.53125-35.359375c-14.316406-10.707031-28.285156-23.488281-41.109375-37.605469zm0 0" fill="#5fa4ff"/><path d="m311.109375 214.707031-25.53125 35.359375c9.398437 7.144532 18.929687 13.546875 28.464844 19.078125 25.324219 14.695313 34.230469 16.644531 34.230469 38.644531h7.441406c10.644531 0 20.664062-.527343 30.257812-1.558593l5.796875-58.085938c-24.433593 0-53.191406-12.898437-80.660156-33.4375zm0 0" fill="#5fa4ff"/><path d="m391.769531 248.144531-5.800781 58.085938c12.386719-1.335938 24.054688-3.515625 35.421875-6.488281 20.609375-5.398438 44.6875-13.796876 66.027344-24.121094-6-19.679688-19.167969-33.195313-95.648438-27.476563zm0 0" fill="#eef2f2"/><path d="m421.390625 299.742188c-11.367187 2.976562-23.035156 5.152343-35.417969 6.488281-9.59375 1.03125-19.613281 1.558593-30.257812 1.558593h-7.441406v62.222657h7.441406c45.730468 0 95.273437-14.132813 136.953125-33.441407 5.675781-2.625 11.589843-11.949218 8.476562-20.453124l-13.726562-40.496094c-21.335938 10.320312-45.414063 18.722656-66.027344 24.121094zm0 0" fill="#eef2f2"/><path d="m348.273438 370.011719v-62.222657h-328.777344c-9.328125 0-9.496094 1.550782-9.496094 12.476563v37.792969c0 11.230468 0 11.953125 11.394531 11.953125zm0 0" fill="#eef2f2"/><path d="m90.773438 307.789062h257.5c0-22-8.910157-23.949218-34.234376-38.644531-9.53125-5.53125-19.066406-11.933593-28.460937-19.078125-16.242187-12.351562-32.070313-26.925781-46.761719-43.058594-13.46875-14.792968-25.980468-30.898437-36.984375-47.808593-11.570312-17.785157-21.46875-36.460938-29.046875-55.4375-3.933594-9.851563-7.242187-19.78125-9.835937-29.707031-5.117188 1.40625-12.976563.476562-22.472657-1.617188-36.074218-7.949219-95.726562-32.671875-118.039062-9.777344-.421875 48.824219-1.367188 97.910156-2.074219 146.046875 24.40625 0 70.410157 36.859375 70.410157 99.082031zm29.75-162.605468c19.882812 0 36 16.117187 36 36 0 19.882812-16.117188 36-36 36-19.882813 0-36-16.117188-36-36 0-19.882813 16.117187-36 36-36zm0 0" fill="#9bc5ff"/><path d="m156.523438 181.183594c0 19.882812-16.117188 36-36 36-19.882813 0-36-16.117188-36-36 0-19.882813 16.117187-36 36-36 19.882812 0 36 16.117187 36 36zm0 0" fill="#eef2f2"/><path d="m90.773438 307.789062c0-62.222656-46.003907-99.082031-70.410157-99.082031-.492187 33.628907-.867187 66.792969-.867187 99.082031zm0 0" fill="#5fa4ff"/></g><path d="m510.585938 312.8125-13.65625-40.285156c-3.121094-10.15625-9.085938-22.636719-27.382813-29.527344-16.097656-6.066406-40.910156-7.609375-78.050781-4.863281-19.007813-.085938-42.523438-9.445313-66.378906-25.742188l.484374-.671875c3.234376-4.476562 2.226563-10.726562-2.253906-13.960937-4.476562-3.234375-10.726562-2.226563-13.960937 2.253906l-.300781.417969c-7.914063-6.414063-15.761719-13.53125-23.386719-21.28125-.550781-.558594-1.085938-1.121094-1.632813-1.683594l.652344-.625c3.984375-3.820312 4.117188-10.152344.296875-14.136719-3.824219-3.988281-10.152344-4.121093-14.140625-.296875l-.253906.242188c-6.988282-8.234375-13.421875-16.707032-19.222656-25.292969l.910156-.625c4.558594-3.121094 5.71875-9.34375 2.597656-13.898437-3.121094-4.558594-9.34375-5.71875-13.902344-2.597657l-.175781.121094c-5.441406-9.558594-10.0625-19.144531-13.75-28.582031l1.625-.683594c5.089844-2.140625 7.480469-8.003906 5.339844-13.097656-2.140625-5.089844-8.003907-7.480469-13.097657-5.339844l-.101562.042969c-1.34375-5.183594-2.378906-10.28125-3.070312-15.257813-1.742188-12.523437-.4375-20.488281.613281-26.886718 1.492187-9.121094 3.351562-20.472657-13.25-27.519532-11.148438-4.730468-23.027344-3.917968-34.347657 2.355469-16.785156 9.300781-31.503906 30.984375-37.925781 54.890625-5.128906-1.339844-10.457031-2.835938-15.578125-4.273438-37.660156-10.574218-80.34375-22.5625-102.011718-.328124-1.796876 1.847656-2.8125 4.316406-2.835938 6.894531-.058594 6.652343-.125 13.3125-.199219 19.972656-.0625 5.523437 4.363281 10.050781 9.886719 10.113281h.113281c5.472657 0 9.9375-4.402344 9.996094-9.886718.058594-5.140626.113281-10.277344.160156-15.414063 15.496094-10.066406 52.214844.246094 79.480469 7.902344 17.554688 4.929687 32.332031 9.078125 43.671875 9.429687 1.351563 4.515625 2.851563 9.046875 4.488281 13.582032l-1.539062.648437c-5.089844 2.140625-7.480469 8.003906-5.339844 13.09375 1.609375 3.824219 5.316406 6.125 9.222656 6.125 1.292969 0 2.605469-.25 3.871094-.785156l1.234375-.519531c5.882813 13.324218 12.878906 26.578124 20.796875 39.523437l-1.066406.730469c-4.554688 3.121094-5.71875 9.347656-2.597656 13.902344 1.9375 2.828124 5.070312 4.347656 8.257812 4.347656 1.949219 0 3.917969-.566406 5.644531-1.75l.664063-.453125c7.925781 11.511719 16.550781 22.6875 25.742187 33.335937l-.828125.792969c-3.984375 3.820313-4.117187 10.152344-.292968 14.136719 1.960937 2.046875 4.585937 3.078125 7.21875 3.078125 2.488281 0 4.980468-.921875 6.917968-2.78125l.449219-.429688c10.605469 11.066407 21.808594 21.398438 33.425781 30.773438l-.730468 1.007812c-3.230469 4.480469-2.222657 10.730469 2.253906 13.960938 1.769531 1.28125 3.816406 1.894531 5.847656 1.894531 3.101562 0 6.160156-1.4375 8.113281-4.144531l.46875-.648438c6.984375 4.941407 14.078125 9.519531 21.25 13.683594 3.136719 1.820313 6.027344 3.449219 8.683594 4.941406 12.300781 6.929688 17.363281 9.789063 19.355469 15.050781h-8.789063c-5.523437 0-10 4.480469-10 10 0 5.523438 4.476563 10 10 10h10v42.226563h-316.875c-.3125 0-.8125 0-1.390625-.007813-.003906-.644531-.003906-1.308593-.003906-1.949218v-37.792969c0-.742187 0-1.617187.007812-2.476563h218.261719c5.523438 0 10-4.476562 10-10 0-5.523437-4.476562-10-10-10h-137.886719c-2-26.03125-11.785156-50.367187-28.066406-69.378906-12.566406-14.675781-27.835937-24.890625-41.820312-28.378906.132812-8.910156.277344-17.96875.425781-27.210938.089844-5.523437-4.316406-10.070312-9.839844-10.160156-5.523437-.082031-10.070312 4.316406-10.15625 9.839844-.199219 12.363281-.390625 24.40625-.5625 36.199219v.007812.003907c-.460937 31.609374-.800781 61.375-.859375 90.464843-2.394531.929688-4.691406 2.472657-6.488281 5.078125-3.015625 4.378906-3.015625 9.511719-3.015625 16.011719v37.792969c0 7.21875 0 12.4375 3.988281 16.871094 4.566407 5.082031 11.09375 5.082031 17.40625 5.082031h334.320313c43.179687 0 93.308594-12.203125 141.15625-34.367188 10.371094-4.800781 18.523437-19.445312 13.714844-32.832031zm-430.257813-15.023438h-50.820313c.054688-24.832031.316407-50.199218.683594-76.808593 18.660156 7.574219 46.339844 33.914062 50.136719 76.808593zm394.214844-27.226562c-17.238281 7.664062-37.042969 14.625-55.6875 19.503906-7.1875 1.882813-14.371094 3.398438-21.679688 4.578125l3.703125-37.09375c53.257813-3.175781 68.09375 4.285157 73.664063 13.011719zm-301.917969-199.035156c-.675781-2.589844-2.359375-4.796875-4.675781-6.136719-2.316407-1.335937-5.070313-1.691406-7.648438-.980469-1.785156.492188-4.503906.449219-7.847656.039063 5.121094-18.324219 16.09375-34.953125 28.03125-41.566407 5.90625-3.269531 11.414063-3.742187 16.84375-1.4375.957031.40625 1.597656.738282 2.007813.980469-.082032 1.210938-.410157 3.210938-.6875 4.894531-1.128907 6.910157-2.839844 17.351563-.683594 32.871094.921875 6.621094 2.363281 13.417969 4.292968 20.324219l-23.769531 10c-2.253906-6.351563-4.21875-12.691406-5.863281-18.988281zm13.253906 37.574218 22.8125-9.59375c4.207032 10.660157 9.445313 21.449219 15.625 32.164063l-19.597656 13.429687c-7.160156-11.808593-13.492188-23.875-18.839844-36zm29.703125 52.800782 19.347657-13.257813c6.40625 9.492188 13.519531 18.832031 21.238281 27.867188l-16.867188 16.179687c-8.464843-9.851562-16.410156-20.164062-23.71875-30.789062zm37.171875 45.597656 16.878906-16.1875c.605469.621094 1.203126 1.25 1.8125 1.871094 8.457032 8.59375 17.140626 16.445312 25.902344 23.5l-13.828125 19.15625c-10.6875-8.65625-20.992187-18.167969-30.765625-28.339844zm74.765625 57.8125c-2.585937-1.457031-5.402343-3.042969-8.460937-4.816406-6.609375-3.835938-13.148438-8.046875-19.589844-12.585938l13.914062-19.265625c23.332032 16.015625 46.652344 26.054688 67.410157 28.753907l-3.957031 39.632812c-6.246094.464844-12.667969.707031-19.320313.746094-2.84375-17.15625-13.65625-23.261719-29.996094-32.464844zm160.945313 62.1875c-44.316406 20.523438-90.425782 32.015625-130.191406 32.492188v-42.222657c9.769531-.078125 19.214843-.59375 28.414062-1.574219.273438-.019531.546875-.050781.816406-.09375 12.515625-1.375 24.589844-3.589843 36.417969-6.6875 19.53125-5.113281 39.597656-12.117187 57.59375-20.054687l10.15625 29.964844c.027344.078125.054687.152343.082031.226562 1.183594 3.242188-1.972656 7.320313-3.289062 7.949219zm0 0"/><path d="m166.523438 181.183594c0-25.363282-20.636719-46-46-46-25.367188 0-46 20.636718-46 46 0 25.367187 20.632812 46 46 46 25.363281 0 46-20.632813 46-46zm-72 0c0-14.335938 11.664062-26 26-26 14.335937 0 26 11.664062 26 26 0 14.335937-11.664063 26-26 26-14.335938 0-26-11.664063-26-26zm0 0"/><path d="m21.941406 137.664062c5.523438 0 10-4.476562 10-10v-.007812c0-5.523438-4.476562-9.996094-10-9.996094-5.523437 0-10 4.480469-10 10.003906 0 5.523438 4.476563 10 10 10zm0 0"/><path d="m293.273438 307.789062c0-5.523437-4.476563-10-10-10h-.007813c-5.523437 0-9.996094 4.476563-9.996094 10 0 5.523438 4.480469 10 10.003907 10 5.523437 0 10-4.476562 10-10zm0 0"/></svg>