<?xml version="1.0" encoding="iso-8859-1"?>
<!-- Generator: Adobe Illustrator 19.0.0, SVG Export Plug-In . SVG Version: 6.00 Build 0)  -->
<svg version="1.1" id="Layer_1" xmlns="http://www.w3.org/2000/svg" xmlns:xlink="http://www.w3.org/1999/xlink" x="0px" y="0px"
	 viewBox="0 0 511.999 511.999" style="enable-background:new 0 0 511.999 511.999;" xml:space="preserve">
<path style="fill:#ED4850;" d="M496.501,149.801c-1.238-4.126-4.792-7.12-9.065-7.67c-27.126-3.497-73.368-4.601-123.666,19.109
	c-25.734,12.131-45.667,27.521-60.084,40.871h-95.372c-14.417-13.35-34.35-28.741-60.083-40.871
	C97.932,137.53,51.69,138.634,24.564,142.13c-4.274,0.551-7.826,3.544-9.065,7.673c-1.85,6.164-3.736,13.048-5.526,20.597
	c-5.342,22.529-9.831,50.986-9.969,83.947c-0.191,45.555,7.999,82.71,15.508,107.717c1.228,4.088,4.73,7.087,8.959,7.655
	c27.145,3.651,74.043,5.051,124.839-19.308c25.254-12.111,44.818-27.396,59.005-40.697h6.41h82.553h6.41
	c14.187,13.302,33.751,28.587,59.005,40.697c50.797,24.359,97.695,22.958,124.839,19.308c4.229-0.568,7.732-3.569,8.959-7.656
	c7.509-25.009,15.699-62.163,15.507-107.717C511.812,210.338,503.873,174.36,496.501,149.801z"/>
<g>
	<path style="fill:#E0273D;" d="M496.501,149.801c-1.238-4.126-4.792-7.12-9.065-7.67c-27.126-3.497-73.368-4.601-123.666,19.109
		c-25.734,12.131-45.667,27.521-60.084,40.871h-6.607h-83.682h-5.083c-14.417-13.35-34.35-28.741-60.083-40.871
		C97.932,137.53,51.69,138.634,24.564,142.13c-4.275,0.551-7.827,3.545-9.065,7.673c-1.85,6.164-3.735,13.049-5.525,20.598
		c27.597-1.804,68.685-8.91,114.025,2.175c26.022,6.362,72.263,22.619,86.68,35.969l63.917,23.236
		c14.417-13.35,34.35-28.741,60.083-40.871c1.176-0.554,2.35-1.096,3.521-1.623c67.497-30.395,144.099,19.264,144.696,93.287
		c0.004,0.48,0.007,0.961,0.009,1.442c0.144,34.388-4.487,63.985-9.997,87.189c5.328-0.373,10.218-0.9,14.593-1.486
		c4.243-0.568,7.758-3.562,8.989-7.662c7.509-25.009,15.697-62.161,15.506-107.712C511.812,210.338,503.873,174.36,496.501,149.801z
		"/>
	<path style="fill:#E0273D;" d="M208.316,242.047c-0.879,0-1.773-0.132-2.656-0.41c-12.544-3.946-28.632-8.689-41.792-10.366
		c-14.415-1.835-29.081-2.171-43.593-1.002c-4.869,0.401-9.134-3.234-9.528-8.104c-0.393-4.869,3.235-9.135,8.104-9.528
		c15.729-1.27,31.626-0.905,47.252,1.087c14.547,1.852,31.618,6.872,44.864,11.038c4.66,1.465,7.249,6.431,5.783,11.09
		C215.562,239.631,212.076,242.047,208.316,242.047z"/>
	<path style="fill:#E0273D;" d="M140.179,294.516c-4.677,0-8.584-3.668-8.826-8.392c-0.25-4.879,3.503-9.036,8.381-9.286
		c7.971-0.408,16.016-1.228,23.913-2.436c14.137-2.165,28.194-5.638,41.783-10.323c4.621-1.586,9.653,0.861,11.245,5.479
		c1.592,4.618-0.861,9.653-5.479,11.245c-14.591,5.03-29.687,8.759-44.871,11.083c-8.483,1.3-17.125,2.179-25.687,2.618
		C140.486,294.512,140.332,294.516,140.179,294.516z"/>
	<path style="fill:#E0273D;" d="M303.684,242.047c-3.76,0-7.247-2.416-8.435-6.194c-1.466-4.66,1.124-9.626,5.783-11.09
		c13.246-4.167,30.318-9.187,44.863-11.038c15.626-1.991,31.524-2.359,47.252-1.087c4.869,0.393,8.498,4.658,8.104,9.528
		c-0.394,4.869-4.676,8.495-9.528,8.104c-14.51-1.17-29.176-0.835-43.592,1.002c-13.158,1.677-29.245,6.42-41.792,10.366
		C305.456,241.915,304.563,242.047,303.684,242.047z"/>
	<path style="fill:#E0273D;" d="M371.821,294.516c-0.152,0-0.305-0.004-0.46-0.012c-8.562-0.439-17.203-1.318-25.686-2.617
		c-15.185-2.327-30.282-6.057-44.872-11.084c-4.618-1.593-7.071-6.627-5.479-11.245c1.592-4.618,6.625-7.069,11.245-5.479
		c13.588,4.684,27.647,8.157,41.785,10.324c7.896,1.208,15.942,2.028,23.912,2.435c4.879,0.25,8.631,4.407,8.381,9.286
		C380.405,290.848,376.498,294.516,371.821,294.516z"/>
</g>
<polygon style="fill:#F2BA43;" points="301.094,307.314 285.21,309.715 208.313,309.715 208.313,205.129 303.686,205.129 "/>
<path style="fill:#EDA21D;" d="M208.313,202.11v16.528h0.723c42.07,0,76.174,34.104,76.174,76.174v14.903h18.475V202.11H208.313z"/>
<g>
</g>
<g>
</g>
<g>
</g>
<g>
</g>
<g>
</g>
<g>
</g>
<g>
</g>
<g>
</g>
<g>
</g>
<g>
</g>
<g>
</g>
<g>
</g>
<g>
</g>
<g>
</g>
<g>
</g>
</svg>
