<svg height="512pt" viewBox="0 0 512 512" width="512pt" xmlns="http://www.w3.org/2000/svg"><path d="m512 256c0 141.386719-114.613281 256-256 256s-256-114.613281-256-256 114.613281-256 256-256 256 114.613281 256 256zm0 0" fill="#ffce00"/><path d="m512 256c0-.605469-.019531-1.207031-.023438-1.8125l-163.332031-163.335938-29.859375 100.058594-51.613281-51.613281-1.09375 3.949219-52.394531-52.394532-131.59375 281.160157 137.382812 137.382812c11.929688 1.703125 24.125 2.605469 36.527344 2.605469 141.386719 0 256-114.613281 256-256zm0 0" fill="#ffa300"/><path d="m196.710938 176h-16.382813c-12.226563 0-22.140625-9.910156-22.140625-22.140625v-48.792969c0-12.226562 9.914062-22.140625 22.140625-22.140625h16.382813c12.230468 0 22.140624 9.914063 22.140624 22.140625v48.792969c0 12.226563-9.910156 22.140625-22.140624 22.140625zm0 0" fill="#414952"/><path d="m204.089844 379.03125h-108.054688c-11.335937 0-19.636718-10.675781-16.84375-21.660156l37.109375-145.867188h105.164063v150.152344c0 9.59375-7.777344 17.375-17.375 17.375zm0 0" fill="#414952"/><path d="m220.167969 242.132812h-108.050781c-7.917969 0-14.082032-6.875-13.214844-14.746093l6.972656-63.492188c.699219-6.351562 5.816406-11.308593 12.1875-11.804687l101.078125-7.832032c7.726563-.601562 14.324219 5.507813 14.324219 13.253907v71.328125c0 7.339844-5.953125 13.292968-13.296875 13.292968zm0 0" fill="#707789"/><path d="m315.289062 176h16.382813c12.226563 0 22.140625-9.910156 22.140625-22.140625v-48.792969c0-12.226562-9.914062-22.140625-22.140625-22.140625h-16.382813c-12.230468 0-22.140624 9.914063-22.140624 22.140625v48.792969c0 12.226563 9.910156 22.140625 22.140624 22.140625zm0 0" fill="#23272b"/><path d="m307.910156 379.03125h108.054688c11.335937 0 19.636718-10.675781 16.84375-21.660156l-37.109375-145.867188h-105.164063v150.152344c0 9.59375 7.777344 17.375 17.375 17.375zm0 0" fill="#23272b"/><path d="m291.832031 242.132812h108.050781c7.917969 0 14.082032-6.875 13.21875-14.746093l-6.976562-63.492188c-.695312-6.351562-5.816406-11.308593-12.1875-11.804687l-101.078125-7.832032c-7.722656-.601562-14.324219 5.507813-14.324219 13.253907v71.328125c0 7.339844 5.953125 13.292968 13.296875 13.292968zm0 0" fill="#555a66"/><path d="m285.464844 236.269531h-58.929688c-4.613281 0-8.351562-3.738281-8.351562-8.351562v-64.441407c0-4.613281 3.738281-8.351562 8.351562-8.351562h58.929688c4.613281 0 8.351562 3.738281 8.351562 8.351562v64.441407c0 4.613281-3.738281 8.351562-8.351562 8.351562zm0 0" fill="#555a66"/><path d="m285.464844 155.125h-29.636719v81.144531h29.636719c4.613281 0 8.351562-3.738281 8.351562-8.351562v-64.441407c0-4.613281-3.738281-8.351562-8.351562-8.351562zm0 0" fill="#333940"/><path d="m256 254.605469c-8.972656 0-16.242188-7.273438-16.242188-16.242188v-87.285156c0-8.96875 7.269532-16.242187 16.242188-16.242187s16.242188 7.273437 16.242188 16.242187v87.285156c0 8.972657-7.269532 16.242188-16.242188 16.242188zm0 0" fill="#707789"/><path d="m256 134.835938c-.058594 0-.113281.007812-.171875.007812v119.753906c.058594 0 .113281.007813.171875.007813 8.972656 0 16.242188-7.269531 16.242188-16.242188v-87.285156c0-8.96875-7.269532-16.242187-16.242188-16.242187zm0 0" fill="#555a66"/></svg>