<svg height="512pt" viewBox="0 -26 512.00059 512" width="512pt" xmlns="http://www.w3.org/2000/svg"><path d="m504.253906 380.960938-13.464844 32.957031-153.390624 21.53125-200.488282-20.175781-86.109375-9.429688-2.085937-4.894531-10.027344-23.589844c-19.957031-19.960937 0-132.980469 0-132.980469 0-45.742187-30.945312-216.625-30.945312-216.625 19.265624-7.382812 40.804687-12.257812 62.914062-15.355468 86.699219-12.140626 181.972656 3.242187 181.972656 3.242187 10.097656 38.351563 12.78125 230.089844 12.78125 230.089844s119.761719 56.511719 172.90625 72.660156c53.15625 16.148437 65.9375 62.570313 65.9375 62.570313zm0 0" fill="#f0c398"/><path d="m95.1875 381.816406-46.472656 19.132813-10.027344-23.589844c-19.957031-19.960937 0-132.980469 0-132.980469 0-45.742187-30.945312-216.625-30.945312-216.625 19.265624-7.382812 40.804687-12.257812 62.914062-15.355468 48.765625 211.804687-17.195312 335.96875 24.53125 369.417968zm0 0" fill="#d89d6c"/><path d="m504.253906 380.960938v39.019531s-47.09375 32.96875-118.410156 32.96875-156.757812-14.804688-206.546875-14.804688c-24.574219 0-59.628906 1.144531-90.292969.121094-31.472656-1.050781-58.308594-4.386719-64.441406-13.578125l2.683594-48.433594c15.613281 1.671875 41.261718 3.570313 67.921875 5.554688 37.695312 2.816406 77.398437 5.8125 93.546875 8.570312 27.589844 4.707032 156.085937 21.527344 205.203125 21.527344 49.109375 0 105.628906-16.148438 110.335937-30.945312zm0 0" fill="#515a5e"/><path d="m95.1875 381.816406-6.183594 56.449219c-31.472656-1.050781-58.308594-4.386719-64.441406-13.578125l2.683594-48.433594c15.613281 1.671875 41.261718 3.570313 67.921875 5.554688zm0 0" fill="#343c3f"/><path d="m511.707031 378.859375c-.714843-2.566406-14.867187-50.785156-71.136719-67.878906-46.308593-14.070313-145.503906-59.945313-167.492187-70.207031-.496094-30.773438-3.53125-191.285157-12.960937-227.101563-.78125-2.964844-3.230469-5.1875-6.253907-5.675781-.675781-.109375-68.386719-10.867188-140.96875-7.253906-4.273437.210937-7.5625 3.847656-7.351562 8.117187.214843 4.273437 3.84375 7.570313 8.121093 7.351563 11.9375-.59375 23.734376-.785157 35.113282-.703126 2.253906 21.21875 9.226562 88.914063 14.34375 160.882813 5.132812 72.144531 6.488281 120.488281 5.839844 152.78125-15.949219-1.679687-36.859376-10.476563-50.464844-31.183594-16.21875-24.675781-38.871094-53.261719-72.226563-60.214843-2.117187-47.796876-24.320312-174.519532-29.753906-204.980469 18.953125-6.578125 41.375-11.339844 66.769531-14.175781 4.253906-.472657 7.3125-4.304688 6.839844-8.554688-.476562-4.25-4.308594-7.3125-8.558594-6.835938-29.4375 3.285157-55.207031 9.101563-76.589844 17.292969-3.476562 1.332031-5.515624 4.949219-4.851562 8.613281.304688 1.691407 30.527344 169.082032 30.820312 214.585938-.796874 4.617188-5.148437 30.558594-7.457031 59.035156-2.476562 30.523438-1.789062 52.089844 2.207031 65.914063-1.261718.257812-2.457031.828125-3.460937 1.683593-1.617187 1.375-2.597656 3.351563-2.71875 5.472657l-2.683594 48.433593c-.089843 1.671876.359375 3.332032 1.289063 4.726563 11.621094 17.421875 63.148437 18.09375 134.675781 17.148437 9.570313-.128906 18.613281-.25 26.503906-.25 22.269531 0 52.578125 3.097657 84.671875 6.371094 38.730469 3.957032 82.625 8.4375 121.875 8.4375 72.917969 0 120.847656-32.964844 122.851563-34.371094 2.070312-1.445312 3.300781-3.816406 3.300781-6.34375v-39.015624c0-.726563-.101562-1.429688-.292969-2.101563zm-347.320312-363.058594c38.402343 1.128907 69.890625 5.058594 81.84375 6.730469 8.222656 43.023438 11.011719 197.039062 11.390625 220.355469-7.484375 8.335937-37.164063 39.167969-73.34375 47.476562-1.949219-100.246093-15.992188-237.957031-19.890625-274.5625zm-125.472657 288.3125c1.667969-20.628906 4.511719-40.320312 6.144532-50.726562 26.605468 6.445312 45.441406 30.203125 60.492187 53.109375 14.175781 21.570312 38.355469 36.089844 62.894531 38.199218-.804687 16.703126-2.265624 27.742188-3.957031 34.96875-19.652343-1.90625-45.496093-3.835937-70.789062-5.726562-18.738281-1.398438-36.703125-2.738281-50.9375-3.984375-2.925781-5.144531-7.507813-20.621094-3.847657-65.839844zm457.597657 111.628907c-11.625 7.066406-53.027344 29.464843-110.667969 29.464843-38.460938 0-81.9375-4.441406-120.300781-8.355469-32.496094-3.320312-63.1875-6.453124-86.246094-6.453124-7.992187 0-17.082031.121093-26.707031.246093-25.570313.339844-54.550782.726563-78.664063-.855469-28.507812-1.871093-38.203125-5.851562-41.445312-8.054687l2.050781-36.972656c15.210938 1.425781 36.101562 2.984375 58.011719 4.621093 36.925781 2.757813 78.78125 5.882813 94.867187 8.628907 26.25 4.480469 156.742188 21.636719 206.507813 21.636719 2.417969 0 4.90625-.035157 7.605469-.113282 4.277343-.125 7.640624-3.691406 7.515624-7.96875-.121093-4.273437-3.65625-7.640625-7.964843-7.515625-2.546875.074219-4.886719.109375-7.15625.109375-48.949219 0-177.921875-16.980468-203.902344-21.414062-2.757813-.472656-6.167969-.949219-10.085937-1.425782 3.492187-16.859374 4.746093-43.570312 4.554687-75.171874 39.863281-7.789063 71.921875-39.066407 82.886719-50.945313 23.972656 11.203125 121.351562 56.210937 168.695312 70.597656 41.367188 12.566407 56.09375 44.441407 59.738282 54.300781-4.921876 5.058594-25.886719 15.613282-64.898438 21.269532-4.234375.617187-7.167969 4.542968-6.554688 8.777344.617188 4.234374 4.550782 7.164062 8.777344 6.550781 5.390625-.78125 41.875-6.414063 63.378906-18.367188v17.410157zm0 0"/></svg>