<?xml version="1.0" encoding="iso-8859-1"?>
<!-- Generator: Adobe Illustrator 19.0.0, SVG Export Plug-In . SVG Version: 6.00 Build 0)  -->
<svg version="1.1" id="Capa_1" xmlns="http://www.w3.org/2000/svg" xmlns:xlink="http://www.w3.org/1999/xlink" x="0px" y="0px"
	 viewBox="0 0 512 512" style="enable-background:new 0 0 512 512;" xml:space="preserve">
<circle style="fill:#FC4629;" cx="256" cy="256" r="256"/>
<path style="fill:#AA0031;" d="M512,256c0-7.767-0.366-15.446-1.043-23.037L395.015,117.021L117.202,394.864l116.125,116.125
	C240.799,511.645,248.357,512,256,512C397.385,512,512,397.385,512,256z"/>
<path style="fill:#66BD21;" d="M361.157,327.425c0-6.203,3.338-11.98,8.713-15.082c7.991-4.617,13.715-12.069,16.094-20.984
	c2.391-8.914,1.166-18.225-3.445-26.21c-1.296-2.243-2.084-4.771-2.285-7.328c-0.367-4.688-4.469-8.245-9.21-7.873l-85.533,12.797
	c-0.207,2.599-35.598,114.122-33.887,115.833c1.397,1.397,3.279,2.32,5.392,2.48c2.557,0.201,5.079,0.994,7.31,2.279
	c16.497,9.524,37.676,3.853,47.217-12.649c3.096-5.369,8.873-8.707,15.076-8.707C345.661,361.982,361.157,346.485,361.157,327.425z"
	/>
<g>
	<path style="fill:#FF2615;" d="M322.28,274.614l-24.245-24.245l48.49-48.49l24.245,24.245c13.39,13.39,13.39,35.1,0,48.49l0,0
		C357.38,288.004,335.67,288.004,322.28,274.614z"/>
	<path style="fill:#FF2615;" d="M273.79,323.104l-24.245-24.245l48.49-48.49l24.245,24.245c13.39,13.39,13.39,35.1,0,48.49l0,0
		C308.89,336.495,287.18,336.495,273.79,323.104z"/>
	<path style="fill:#FF2615;" d="M225.3,371.595l-24.245-24.245l48.49-48.49l24.245,24.245c13.39,13.39,13.39,35.1,0,48.49l0,0
		C260.4,384.985,238.69,384.985,225.3,371.595z"/>
</g>
<path style="fill:#FEDB41;" d="M298.035,298.859c-69.219,69.219-152.952,123.887-180.833,96.005
	c-15.275-15.275-6.338-46.788,17.179-84.368l41.46-5.576l-10.79-37.459c6.061-7.516,12.487-15.153,19.155-22.548l43.155-17.941
	l-7.273-19.638c8.123-7.88,16.365-15.639,24.73-23.033l40.126-12.729l8.001-25.458c44.489-31.155,84.615-46.55,102.071-29.094
	C422.897,144.903,367.255,229.639,298.035,298.859z"/>
<path style="fill:#FCBF29;" d="M298.035,298.859c-69.219,69.219-152.952,123.887-180.833,96.005l277.814-277.843
	C422.897,144.903,367.255,229.639,298.035,298.859z"/>
<g>
	<path style="fill:#FEA832;" d="M357.678,171.573l-9.093,6.91c-0.727,0.485-12.364,8.97-29.336,14.304
		c-8.001,2.667-17.335,4.485-27.276,4.485c-20.124,0-37.701-7.88-47.156-12.971c16.122-14.184,32.488-27.154,48.126-38.186
		c22.79,0.243,43.52,9.819,54.915,18.063c0.364,0.121,0.485,0.243,0.727,0.485L357.678,171.573z"/>
	<path style="fill:#FEA832;" d="M297.066,232.185l-9.093,6.91c-0.727,0.485-12.364,8.97-29.336,14.304
		c-8.001,2.667-17.335,4.485-27.276,4.485c-19.881,0-36.852-7.274-47.156-12.971c9.213-10.425,18.911-20.851,28.972-30.912
		c2.303-2.303,4.485-4.485,6.91-6.667c3.637-0.485,7.395-0.849,11.274-0.849c28.367-0.001,51.399,15.275,55.885,18.305
		c0.485,0.243,0.606,0.363,0.727,0.485L297.066,232.185z"/>
	<path style="fill:#FEA832;" d="M236.453,292.798l-9.093,6.91c-0.727,0.485-12.364,8.97-29.336,14.305
		c-8.001,2.667-17.335,4.485-27.276,4.485c-14.063,0-26.548-3.758-36.368-8.001c8.486-13.819,18.912-28.366,30.67-43.035
		c1.819-0.121,3.759-0.364,5.698-0.363c28.367-0.001,51.399,15.275,55.885,18.305c0.485,0.243,0.606,0.363,0.727,0.485
		L236.453,292.798z"/>
</g>
<g>
	<path style="fill:#FE9923;" d="M227.36,285.888l9.093,6.91l-9.093,6.91c-0.727,0.485-12.364,8.97-29.336,14.305l28.609-28.609
		C227.119,285.646,227.239,285.767,227.36,285.888z"/>
	<path style="fill:#FE9923;" d="M287.973,225.276l9.093,6.91l-9.093,6.91c-0.727,0.485-12.364,8.97-29.336,14.304l28.609-28.609
		C287.731,225.034,287.852,225.154,287.973,225.276z"/>
	<path style="fill:#FE9923;" d="M348.586,178.483c-0.727,0.485-12.364,8.97-29.336,14.304l28.609-28.609
		c0.364,0.121,0.485,0.243,0.727,0.485l9.093,6.91L348.586,178.483z"/>
</g>
<g>
</g>
<g>
</g>
<g>
</g>
<g>
</g>
<g>
</g>
<g>
</g>
<g>
</g>
<g>
</g>
<g>
</g>
<g>
</g>
<g>
</g>
<g>
</g>
<g>
</g>
<g>
</g>
<g>
</g>
</svg>
