<svg xmlns="http://www.w3.org/2000/svg" height="512pt" version="1.1" viewBox="0 0 512 512" width="512pt">
<g id="surface1">
<path d="M 512 256 C 512 397.386719 397.386719 512 256 512 C 114.613281 512 0 397.386719 0 256 C 0 114.613281 114.613281 0 256 0 C 397.386719 0 512 114.613281 512 256 Z M 512 256 " style=" stroke:none;fill-rule:nonzero;fill:rgb(29.019608%,47.843137%,100%);fill-opacity:1;" />
<path d="M 510.027344 287.855469 L 278.992188 56.820312 L 188.203125 453.605469 L 246.398438 511.804688 C 249.585938 511.921875 252.785156 512 256 512 C 386.597656 512 494.34375 414.207031 510.027344 287.855469 Z M 510.027344 287.855469 " style=" stroke:none;fill-rule:nonzero;fill:rgb(15.686275%,39.215686%,94.117647%);fill-opacity:1;" />
<path d="M 280.242188 153.019531 L 280.242188 65.710938 L 231.757812 65.710938 L 231.757812 153.019531 C 231.757812 174.003906 226.238281 194.613281 215.753906 212.789062 L 210.460938 221.964844 C 195.878906 247.242188 188.203125 275.914062 188.203125 305.097656 L 188.203125 453.609375 L 323.796875 453.609375 L 323.796875 305.097656 C 323.796875 275.914062 316.121094 247.242188 301.539062 221.964844 L 296.246094 212.789062 C 285.761719 194.613281 280.242188 174 280.242188 153.019531 Z M 280.242188 153.019531 " style=" stroke:none;fill-rule:nonzero;fill:rgb(100%,83.137255%,0%);fill-opacity:1;" />
<path d="M 323.796875 305.097656 C 323.796875 275.914062 316.121094 247.242188 301.535156 221.964844 L 296.246094 212.789062 C 285.761719 194.617188 280.242188 174.003906 280.242188 153.019531 L 280.242188 65.710938 L 255.761719 65.710938 L 255.761719 453.605469 L 323.796875 453.605469 Z M 323.796875 305.097656 " style=" stroke:none;fill-rule:nonzero;fill:rgb(99.215686%,72.941176%,7.058824%);fill-opacity:1;" />
<path d="M 280.242188 85.847656 L 231.757812 85.847656 L 231.757812 62.019531 C 231.757812 55.65625 236.917969 50.496094 243.28125 50.496094 L 268.71875 50.496094 C 275.082031 50.496094 280.242188 55.65625 280.242188 62.019531 Z M 280.242188 85.847656 " style=" stroke:none;fill-rule:nonzero;fill:rgb(99.215686%,72.941176%,7.058824%);fill-opacity:1;" />
<path d="M 280.242188 62.019531 C 280.242188 55.65625 275.082031 50.496094 268.71875 50.496094 L 255.761719 50.496094 L 255.761719 85.847656 L 280.242188 85.847656 Z M 280.242188 62.019531 " style=" stroke:none;fill-rule:nonzero;fill:rgb(100%,63.921569%,0%);fill-opacity:1;" />
<path d="M 256 214.429688 L 287.683594 194.523438 C 282.785156 181.285156 280.242188 167.238281 280.242188 153.019531 L 280.242188 133.007812 L 256 148.238281 L 231.757812 133.007812 L 231.757812 153.019531 C 231.757812 167.238281 229.214844 181.285156 224.316406 194.523438 Z M 256 214.429688 " style=" stroke:none;fill-rule:nonzero;fill:rgb(100%,100%,100%);fill-opacity:1;" />
<path d="M 287.683594 194.523438 C 282.785156 181.285156 280.242188 167.238281 280.242188 153.019531 L 280.242188 133.003906 L 256 148.238281 L 255.761719 148.089844 L 255.761719 214.28125 L 256 214.429688 Z M 287.683594 194.523438 " style=" stroke:none;fill-rule:nonzero;fill:rgb(94.901961%,96.470588%,98.823529%);fill-opacity:1;" />
<path d="M 210.246094 293.292969 L 301.753906 293.292969 L 301.753906 410.792969 L 210.246094 410.792969 Z M 210.246094 293.292969 " style=" stroke:none;fill-rule:nonzero;fill:rgb(100%,100%,100%);fill-opacity:1;" />
<path d="M 255.761719 293.292969 L 301.753906 293.292969 L 301.753906 410.792969 L 255.761719 410.792969 Z M 255.761719 293.292969 " style=" stroke:none;fill-rule:nonzero;fill:rgb(94.901961%,96.470588%,98.823529%);fill-opacity:1;" />
</g>
</svg>