<svg height="512pt" viewBox="0 0 512 512" width="512pt" xmlns="http://www.w3.org/2000/svg"><path d="m512 256c0 141.386719-114.613281 256-256 256s-256-114.613281-256-256 114.613281-256 256-256 256 114.613281 256 256zm0 0" fill="#414952"/><path d="m512 256c0-3.078125-.074219-6.140625-.183594-9.191406l-159.105468-159.105469-222.710938 67.285156 148.003906 148.007813-123.632812 75.054687 44.171875 44.167969-32.96875 26.769531 61.359375 61.359375c9.542968 1.078125 19.238281 1.652344 29.066406 1.652344 141.386719 0 256-114.613281 256-256zm0 0" fill="#333940"/><path d="m366.425781 128.988281h-220.851562l15.425781-53.976562 191.710938 12.691406zm0 0" fill="#fff"/><path d="m352.710938 87.703125-96.804688-6.410156v47.695312h110.519531zm0 0" fill="#e9edf5"/><path d="m346.425781 448.988281h-180.851562l-20-314.167969h220.851562zm0 0" fill="#de4726"/><path d="m366.425781 134.820312h-110.519531v314.167969h90.519531zm0 0" fill="#d9351c"/><path d="m367.5 222.949219h-223l9.875 155.101562h203.25zm0 0" fill="#fff"/><path d="m367.5 222.949219h-111.59375v155.101562h101.71875zm0 0" fill="#e9edf5"/><path d="m130 116.988281h252v38h-252zm0 0" fill="#ff936b"/><path d="m255.90625 116.988281h126.09375v38h-126.09375zm0 0" fill="#ff8257"/><path d="m293.296875 270.167969-63.042969 63.042969c14.007813 7.027343 34.59375 2.046874 49.84375-13.199219 15.246094-15.25 20.226563-35.839844 13.199219-49.84375zm0 0" fill="#ff936b"/><path d="m293.296875 270.167969-37.390625 37.390625v27.074218c8.414062-2.410156 16.910156-7.34375 24.191406-14.625 15.246094-15.246093 20.226563-35.835937 13.199219-49.839843zm0 0" fill="#ff8257"/><path d="m281.746094 258.617188c-14.003906-7.03125-34.59375-2.046876-49.839844 13.199218-15.25 15.246094-20.230469 35.835938-13.199219 49.839844zm0 0" fill="#ff936b"/><path d="m255.90625 257.246094v27.214844l25.839844-25.84375c-7.371094-3.699219-16.5625-4.066407-25.839844-1.371094zm0 0" fill="#ff8257"/></svg>