<?xml version="1.0" encoding="iso-8859-1"?>
<!-- Generator: Adobe Illustrator 19.0.0, SVG Export Plug-In . SVG Version: 6.00 Build 0)  -->
<svg version="1.1" id="Layer_1" xmlns="http://www.w3.org/2000/svg" xmlns:xlink="http://www.w3.org/1999/xlink" x="0px" y="0px"
	 viewBox="0 0 297.001 297.001" style="enable-background:new 0 0 297.001 297.001;" xml:space="preserve">
<g>
	<g>
		<circle style="fill:#D95459;" cx="148.501" cy="148.5" r="148.5"/>
	</g>
	<path style="fill:#B7343E;" d="M297,148.5c0-8.313-0.694-16.462-2.007-24.403l-84.673-84.673L86.817,245.893l50.703,50.703
		c3.626,0.265,7.288,0.405,10.982,0.405C230.515,297,297,230.514,297,148.5z"/>
	<g>
		<path style="fill:#404549;" d="M96.417,249.75h104.167c7.686,0,13.917-6.231,13.917-13.917V49.167
			c0-7.686-6.231-13.917-13.917-13.917H96.417c-7.686,0-13.916,6.231-13.916,13.917v186.667
			C82.501,243.519,88.732,249.75,96.417,249.75z"/>
	</g>
	<g>
		<path style="fill:#323638;" d="M200.583,35.25h-52.75v214.5h52.75c7.686,0,13.917-6.231,13.917-13.917V49.167
			C214.501,41.481,208.27,35.25,200.583,35.25z"/>
	</g>
	<g>
		<rect x="91.001" y="50.875" style="fill:#D0D5D9;" width="115" height="167.75"/>
	</g>
	<g>
		<circle style="fill:#292D30;" cx="148.501" cy="233.25" r="9.5"/>
	</g>
	<g>
		<rect x="147.835" y="50.875" style="fill:#AEB2B5;" width="58.166" height="167.75"/>
	</g>
	<g>
		<path style="fill:#181B1C;" d="M148.501,223.75c-0.225,0-0.445,0.018-0.666,0.034v18.933c0.221,0.015,0.441,0.034,0.666,0.034
			c5.247,0,9.5-4.253,9.5-9.5S153.747,223.75,148.501,223.75z"/>
	</g>
</g>
<g>
</g>
<g>
</g>
<g>
</g>
<g>
</g>
<g>
</g>
<g>
</g>
<g>
</g>
<g>
</g>
<g>
</g>
<g>
</g>
<g>
</g>
<g>
</g>
<g>
</g>
<g>
</g>
<g>
</g>
</svg>
