<svg height="511pt" viewBox="-75 0 511 511.99942" width="511pt" xmlns="http://www.w3.org/2000/svg"><path d="m68.363281 466.464844 11.152344 33.972656c2.253906 6.898438 8.683594 11.5625 15.933594 11.5625h27.753906c9.042969 0 16.457031-7.179688 16.75-16.21875l1.308594-40.257812" fill="#515a5e"/><path d="m294.015625 466.464844-11.15625 33.972656c-2.25 6.898438-8.679687 11.5625-15.933594 11.5625h-27.75c-9.046875 0-16.457031-7.179688-16.753906-16.21875l-1.304687-40.257812" fill="#515a5e"/><path d="m357.128906 231.375c-5.757812 61.054688-43.5 190.90625-55.328125 230.589844-2.375 7.945312-8.785156 14.027344-16.84375 15.949218-10.582031 2.53125-26.59375 4.695313-44.675781 1.511719-.082031-.007812-.167969-.03125-.25-.039062-11.378906-2.039063-19.417969-12.316407-18.914062-23.863281 2.902343-66.128907 9.078124-289.871094-39.925782-289.871094-49.011718 0-42.824218 223.742187-39.933594 289.871094.511719 11.546874-7.535156 21.824218-18.914062 23.863281-8.792969 1.5625-17.105469 1.867187-24.542969 1.480469-7.945312-.421876-14.886719-1.640626-20.382812-2.953126-8.058594-1.921874-14.46875-8.003906-16.84375-15.949218-11.828125-39.683594-49.570313-169.535156-55.328125-230.589844-5.3281252-56.378906-8.164063-128.476562 2.523437-163.613281 3.066407-10.097657 7.25-17.136719 12.804688-19.886719h321.222656c24.914063 12.34375 22.179687 110.929688 15.332031 183.5zm0 0" fill="#4695bc"/><g fill="#0e708e"><path d="m111.566406 464.59375c-3.757812 0-7.082031-2.695312-7.753906-6.523438-6.785156-38.785156-29.199219-170.101562-32.601562-231.515624-1.574219-28.421876.292968-63.25 5.257812-98.078126 4.496094-31.5 11.199219-60.0625 17.933594-76.410156 1.65625-4.023437 6.265625-5.9375 10.289062-4.28125 4.023438 1.65625 5.941406 6.265625 4.28125 10.289063-13.027344 31.613281-25.214844 110.011719-22.027344 167.609375 3.355469 60.550781 25.640626 191.097656 32.390626 229.667968.75 4.289063-2.117188 8.371094-6.402344 9.121094-.460938.082032-.917969.121094-1.367188.121094zm0 0"/><path d="m250.808594 464.59375c-.453125 0-.90625-.039062-1.367188-.121094-4.289062-.75-7.15625-4.832031-6.402344-9.121094 6.75-38.578124 29.035157-169.152343 32.390626-229.667968 3.1875-57.585938-8.996094-135.988282-22.019532-167.613282-1.65625-4.023437.261719-8.628906 4.285156-10.289062 4.023438-1.65625 8.628907.265625 10.285157 4.289062 6.734375 16.347657 13.433593 44.910157 17.925781 76.40625 4.964844 34.828126 6.832031 69.660157 5.257812 98.078126-3.398437 61.378906-25.8125 192.722656-32.601562 231.515624-.667969 3.828126-3.996094 6.523438-7.753906 6.523438zm0 0"/><path d="m97.800781 480.867188c-7.945312-.417969-14.886719-1.636719-20.382812-2.953126-8.058594-1.921874-14.46875-8.003906-16.84375-15.949218-11.828125-39.683594-49.570313-169.535156-55.328125-230.589844-5.3281252-56.378906-8.164063-128.476562 2.523437-163.609375l30.34375 26.683594c-7.703125 70.59375 11.0625 326.445312 59.6875 386.417969zm0 0"/></g><path d="m20.578125 47.875h48.972656v8.539062c0 38.035157-19.972656 90.023438-68.839843 101.003907h-.011719c-1.226563-52.859375 2.933593-101.148438 19.878906-109.542969zm0 0" fill="#075e72"/><path d="m361.667969 157.417969h-.007813c-48.867187-10.980469-68.839844-62.96875-68.839844-101.003907v-8.539062h48.972657c16.945312 8.394531 21.105469 56.683594 19.875 109.542969zm0 0" fill="#075e72"/><path d="m341.796875 47.875c-84.683594 17.535156-171.519531 21.054688-257.066406 10.558594-21.488281-2.636719-42.890625-6.15625-64.15625-10.558594 2.398437-11.546875 4.78125-23.09375 7.175781-34.640625 1.828125-8.816406 10.351562-14.59375 19.199219-12.957031 19.824219 3.65625 39.765625 6.492187 59.769531 8.519531.054688 0 .105469.011719.160156.011719 69.46875 7.007812 139.6875 4.160156 208.558594-8.53125 8.847656-1.636719 17.367188 4.140625 19.183594 12.957031 2.398437 11.546875 4.78125 23.09375 7.175781 34.640625zm0 0" fill="#515a5e"/><path d="m84.707031 58.414062c.011719.007813.011719.007813.023438.019532-21.488281-2.636719-42.890625-6.15625-64.15625-10.558594 2.398437-11.546875 4.78125-23.09375 7.175781-34.640625 1.828125-8.816406 10.351562-14.59375 19.199219-12.957031 19.824219 3.65625 39.765625 6.496094 59.769531 8.523437-30.320312-1.828125-44.125 27.496094-22.011719 49.613281zm0 0" fill="#343c3f"/><path d="m240.28125 479.425781c-.082031-.007812-.167969-.03125-.25-.039062-11.378906-2.039063-19.417969-12.316407-18.914062-23.863281 2.902343-66.128907 9.078124-289.871094-39.925782-289.871094 49.265625 0 79.242188 3.996094 59.089844 313.773437zm0 0" fill="#0e708e"/><path d="m159.863281 135.875c-4.355469 0-7.882812-3.527344-7.882812-7.878906v-88.3125c0-4.351563 3.527343-7.878906 7.882812-7.878906 4.351563 0 7.878907 3.527343 7.878907 7.878906v88.3125c0 4.351562-3.527344 7.878906-7.878907 7.878906zm0 0" fill="#cce6f6"/><path d="m202.515625 135.875c-4.351563 0-7.878906-3.527344-7.878906-7.878906v-88.3125c0-4.351563 3.527343-7.878906 7.878906-7.878906s7.878906 3.527343 7.878906 7.878906v88.3125c0 4.351562-3.527343 7.878906-7.878906 7.878906zm0 0" fill="#cce6f6"/></svg>