<svg height="512pt" viewBox="0 0 512 512" width="512pt" xmlns="http://www.w3.org/2000/svg"><path d="m512 256c0 141.386719-114.613281 256-256 256s-256-114.613281-256-256 114.613281-256 256-256 256 114.613281 256 256zm0 0" fill="#3440db"/><path d="m289.921875 61.328125-100.648437 379.019531 71.59375 71.589844c130.367187-2.429688 236.90625-102.300781 249.820312-229.84375zm0 0" fill="#1c259e"/><path d="m222.078125 61.328125h67.84375v36.671875h-67.84375zm0 0" fill="#fff"/><path d="m255.90625 61.328125h34.015625v36.671875h-34.015625zm0 0" fill="#e9edf5"/><path d="m293.128906 96.839844h-74.257812c-3.367188 0-6.527344 1.625-8.484375 4.367187l-18.222657 25.503907c-12.136718 16.992187-18.660156 37.347656-18.660156 58.230468v24.429688c0 15.109375 3.417969 30.027344 10 43.628906v64.828125l-6.992187 16.902344c-1.984375 4.800781-3.007813 9.945312-3.007813 15.136719v58.851562c0 21.871094 17.730469 39.601562 39.601563 39.601562h85.789062c21.871094 0 39.601563-17.730468 39.601563-39.601562v-58.851562c0-5.191407-1.023438-10.335938-3.007813-15.136719l-6.992187-16.902344v-64.828125c6.578125-13.601562 10-28.519531 10-43.628906v-24.429688c0-20.882812-6.527344-41.242187-18.664063-58.230468l-18.21875-25.507813c-1.957031-2.738281-5.117187-4.363281-8.484375-4.363281zm0 0" fill="#80dbff"/><path d="m328.496094 253c6.582031-13.601562 10-28.519531 10-43.628906v-24.429688c0-20.882812-6.523438-41.242187-18.660156-58.230468l-18.222657-25.507813c-1.957031-2.738281-5.117187-4.363281-8.484375-4.363281h-37.222656v351.480468h42.988281c21.871094 0 39.601563-17.730468 39.601563-39.601562v-58.851562c0-5.195313-1.023438-10.335938-3.007813-15.136719l-6.992187-16.902344zm0 0" fill="#19cffc"/><path d="m183.503906 253h144.992188v64.828125h-144.992188zm0 0" fill="#fff"/><path d="m255.90625 253h72.589844v64.828125h-72.589844zm0 0" fill="#e9edf5"/></svg>