<?xml version="1.0" encoding="iso-8859-1"?>
<!-- Generator: Adobe Illustrator 19.0.0, SVG Export Plug-In . SVG Version: 6.00 Build 0)  -->
<svg version="1.1" id="Layer_1" xmlns="http://www.w3.org/2000/svg" xmlns:xlink="http://www.w3.org/1999/xlink" x="0px" y="0px"
	 viewBox="0 0 512.001 512.001" style="enable-background:new 0 0 512.001 512.001;" xml:space="preserve">
<g>
	<g>
		<polygon style="fill:#2D404E;" points="138.758,34.703 84.223,57.631 129.444,105.347 171.352,67.547 		"/>
		<polygon style="fill:#253744;" points="84.223,57.631 84.223,173.667 129.444,105.347 		"/>
		<polygon style="fill:#253744;" points="157.043,53.106 135.44,87.565 166.779,62.938 		"/>
	</g>
	<g>
		<polygon style="fill:#2D404E;" points="373.248,34.703 427.781,57.631 382.561,105.347 340.653,67.547 		"/>
		<polygon style="fill:#253744;" points="427.781,57.631 427.781,173.667 382.561,105.347 		"/>
		<polygon style="fill:#253744;" points="354.963,53.106 376.565,87.565 345.226,62.938 		"/>
	</g>
	<path style="fill:#253744;" d="M380.904,91.325c-24.955-24.956-52.287-41.592-78.431-41.592c-26.143,0-46.471,0-46.471,0
		s-20.328,0-46.471,0c-26.144,0-53.476,16.636-78.431,41.592c-24.956,24.955-55.852,67.735-55.852,158.05
		c0,90.314,0,168.746,0,206.773s9.506,55.853,40.403,55.853s140.35,0,140.35,0s109.452,0,140.35,0s40.403-17.825,40.403-55.853
		c0-38.027,0-116.458,0-206.773C436.756,159.06,405.859,116.28,380.904,91.325z"/>
	<path style="fill:#2D404E;" d="M115.653,506.423c-25.712,0-34.826-13.156-34.826-50.275V249.375
		c0-89.534,30.943-130.832,54.218-154.107c26.141-26.14,51.898-39.958,74.487-39.958h92.941c22.589,0,48.347,13.818,74.487,39.958
		c23.274,23.275,54.218,64.573,54.218,154.107v206.773c0,37.12-9.114,50.275-34.826,50.275H115.653z"/>
	<path style="fill:#DF584C;" d="M380.937,280.866c-27.977,0-204.316,0-246.706,0c-26.079,0-37.867,13.764-43.087,24.36
		c0,66.057,0,121.001,0,150.921c0,38.027,8.671,55.853,36.851,55.853s128.008,0,128.008,0s99.828,0,128.008,0
		s36.851-17.825,36.851-55.853c0-29.392,0-82.93,0-147.426C414.665,296.118,403.411,280.866,380.937,280.866z"/>
	<path style="fill:#DF584C;" d="M103.136,249.375c0-81.251,27.214-117.861,47.684-138.333
		c21.554-21.553,42.406-33.423,58.713-33.423h92.941c16.307,0,37.159,11.87,58.713,33.423
		c20.47,20.471,47.684,57.082,47.684,138.333v5.13c-5.588-1.108-10.962-1.525-15.888-1.525H122.49
		c-7.057,0-13.492,0.625-19.354,1.735V249.375z"/>
	<path style="fill:#253744;" d="M307.717,12.781C298.422,5.113,283.549,0,273.324,0s-17.321,0-17.321,0s-7.097,0-17.321,0
		s-25.098,5.112-34.393,12.781s-17.12,26.504-15.764,40.325l26.918-3.374c0,0,3.718-23.179,20.914-23.179l19.646-0.991l19.646,0.991
		c17.196,0,20.914,23.179,20.914,23.179l26.918,3.374C324.837,39.286,317.012,20.45,307.717,12.781z"/>
	<path style="fill:#B9483E;" d="M145.263,149.654c15.319-33.371,40.288-57.395,58.248-71.523
		c-15.27,2.465-33.706,13.926-52.692,32.911c-20.47,20.471-47.684,57.082-47.684,138.333v5.34
		c5.862-1.109,12.298-1.735,19.354-1.735h10.354C129.669,230.4,127.443,188.479,145.263,149.654z"/>
	<path style="fill:#B9483E;" d="M366.742,149.654c-15.319-33.371-40.288-57.395-58.248-71.523
		c15.27,2.465,33.706,13.926,52.692,32.911c20.47,20.471,47.684,57.082,47.684,138.333v5.34c-5.862-1.109-12.298-1.735-19.354-1.735
		h-10.354C382.337,230.4,384.562,188.479,366.742,149.654z"/>
	<path style="fill:#B9483E;" d="M91.144,305.227c0,66.057,0,121.001,0,150.921c0,33.593,6.777,51.41,27.782,55.111V282.745
		C103.279,286.851,95.206,296.982,91.144,305.227z"/>
	<path style="fill:#B9483E;" d="M420.861,305.227c0,66.057,0,121.001,0,150.921c0,33.593-6.777,51.41-27.782,55.111V282.745
		C408.726,286.851,416.8,296.982,420.861,305.227z"/>
	<rect x="166.024" y="342.375" style="fill:#B9483E;" width="185.654" height="17.662"/>
	<g>
		<path style="fill:#2D404E;" d="M372.379,334.236c0,9.385-6.114,16.992-13.66,16.992H153.287c-7.546,0-13.66-7.607-13.66-16.992
			l0,0c0-9.384,6.114-16.991,13.66-16.991h205.432C366.264,317.245,372.379,324.852,372.379,334.236L372.379,334.236z"/>
		<path style="fill:#253744;" d="M372.379,334.236L372.379,334.236c0-9.384-6.114-16.991-13.66-16.991H153.287
			c-7.546,0-13.66,7.607-13.66,16.991l0,0c0,0,2.389-8.496,16.303-8.496c13.916,0,180.915,0,197.399,0
			C369.815,325.74,372.379,334.236,372.379,334.236z"/>
	</g>
	<path style="fill:#B9483E;" d="M334.423,351.228c0,0,0,67.989,0,84.72s-2.128,29.745-25.929,29.745s-139.527,0-139.527,0
		l6.733,9.421l154.54-2.449l21.438-16.267V351.207L334.423,351.228z"/>
	<path style="fill:#2D404E;" d="M356.517,342.375c0,0,0,60.419,0,90.784s-1.859,42.758-32.224,42.758s-148.594-0.804-148.594-0.804
		s121.327-2.295,143.017-5.393s29.126-15.492,29.126-32.223s0-95.122,0-95.122H356.517z"/>
	<path style="fill:#B9483E;" d="M186.473,351.228c0,0,1.886,19.73,1.886,24.998s-0.618,13.986-12.659,14.976
		c-11.81,0.971-15.136-6.452-15.136-6.452s11.348,2.864,16.614-0.545c5.267-3.408,4.026-10.535,1.548-20.76
		s-3.026-12.217-3.026-12.217L186.473,351.228L186.473,351.228z"/>
	<path style="fill:#B9483E;" d="M177.716,371.894c0,0-6.188-2.352-10.148,4.208c-3.962,6.561,3.785,11.14,3.785,11.14
		s-10.345-3.837-9.479-12.377S174.869,368.18,177.716,371.894z"/>
	<path style="fill:#2D404E;" d="M181.521,348.006h-19.519l-2.326,28.484c0,0-3.718,12.549,11.154,12.549
		c14.873,0,12.084-7.437,12.549-12.084S181.521,348.006,181.521,348.006z M171.354,384.124c-3.853,0-6.976-3.122-6.976-6.972
		s3.123-6.973,6.976-6.973c3.849,0,6.972,3.122,6.972,6.973S175.203,384.124,171.354,384.124z"/>
	<path style="fill:#B9483E;" d="M315.678,175.19c0,4.892-3.411,8.856-7.617,8.856H204.316c-4.207,0-7.618-3.965-7.618-8.856l0,0
		c0-4.893,3.411-8.857,7.618-8.857H308.06C312.266,166.333,315.678,170.298,315.678,175.19L315.678,175.19z"/>
	<g>
		<path style="fill:#2D404E;" d="M317.228,168.192c0,6.36-3.217,11.516-7.186,11.516h-108.08c-3.969,0-7.186-5.156-7.186-11.516l0,0
			c0-6.36,3.217-11.517,7.186-11.517h108.08C314.012,156.676,317.228,161.832,317.228,168.192L317.228,168.192z"/>
		<path style="fill:#253744;" d="M317.228,168.192L317.228,168.192c0-6.36-3.217-11.517-7.186-11.517h-108.08
			c-3.969,0-7.186,5.156-7.186,11.517l0,0c0,0,1.257-5.759,8.576-5.759c7.322,0,95.181,0,103.854,0
			C315.879,162.434,317.228,168.192,317.228,168.192z"/>
	</g>
	<g>
		<path style="fill:#B9483E;" d="M292.913,180.292c0,0,1.4,14.645,1.4,18.556c0,3.909-0.46,10.381-9.397,11.116
			c-8.767,0.721-11.236-4.789-11.236-4.789s8.424,2.126,12.333-0.405c3.911-2.53,2.99-7.82,1.149-15.409
			c-1.839-7.59-2.246-9.068-2.246-9.068h7.997V180.292z"/>
		<path style="fill:#B9483E;" d="M286.412,195.631c0,0-4.593-1.747-7.532,3.124c-2.941,4.87,2.809,8.27,2.809,8.27
			s-7.678-2.849-7.035-9.188C275.296,191.498,284.299,192.875,286.412,195.631z"/>
		<path style="fill:#2D404E;" d="M289.237,177.899h-14.489l-1.727,21.145c0,0-2.76,9.314,8.28,9.314s8.97-5.521,9.315-8.97
			C290.962,195.938,289.237,177.899,289.237,177.899z M281.69,204.71c-2.859,0-5.178-2.318-5.178-5.177
			c0-2.858,2.318-5.176,5.178-5.176c2.857,0,5.174,2.318,5.174,5.176C286.864,202.392,284.548,204.71,281.69,204.71z"/>
	</g>
</g>
<g>
</g>
<g>
</g>
<g>
</g>
<g>
</g>
<g>
</g>
<g>
</g>
<g>
</g>
<g>
</g>
<g>
</g>
<g>
</g>
<g>
</g>
<g>
</g>
<g>
</g>
<g>
</g>
<g>
</g>
</svg>
