<?xml version="1.0" encoding="iso-8859-1"?>
<!-- Generator: Adobe Illustrator 19.0.0, SVG Export Plug-In . SVG Version: 6.00 Build 0)  -->
<svg version="1.1" id="Capa_1" xmlns="http://www.w3.org/2000/svg" xmlns:xlink="http://www.w3.org/1999/xlink" x="0px" y="0px"
	 viewBox="0 0 511.999 511.999" style="enable-background:new 0 0 511.999 511.999;" xml:space="preserve">
<polygon style="fill:#FA982F;" points="256,349.772 170.666,298.572 170.666,213.238 256,264.438 "/>
<polygon style="fill:#F77219;" points="256,349.772 341.333,298.572 341.333,213.238 256,264.438 "/>
<polygon style="fill:#F9B44D;" points="170.666,213.238 256,162.038 341.333,213.238 256,264.438 "/>
<g>
	<path style="fill:#87CED9;" d="M249.173,3.318l-25.6,34.133l13.653,10.24l10.24-13.653v68.267h17.067V34.038l10.24,13.653
		l13.653-10.24l-25.6-34.133c-3.106-3.772-8.67-4.309-12.442-1.212C249.941,2.473,249.54,2.874,249.173,3.318z"/>
	<path style="fill:#87CED9;" d="M264.533,477.772v-68.267h-17.067v68.267l-10.24-13.653l-13.653,10.24l25.6,34.133
		c2.825,3.772,8.175,4.531,11.947,1.707c0.649-0.486,1.22-1.058,1.707-1.707l25.6-34.133l-13.653-10.24L264.533,477.772z"/>
	<rect x="247.466" y="119.372" style="fill:#87CED9;" width="17.067" height="17.067"/>
	<rect x="247.466" y="375.372" style="fill:#87CED9;" width="17.067" height="17.067"/>
	<path style="fill:#87CED9;" d="M102.4,264.438v-17.067H34.133l13.653-10.24l-10.24-13.653l-34.133,25.6
		c-3.772,2.825-4.531,8.175-1.707,11.947c0.486,0.649,1.058,1.22,1.707,1.707l34.133,25.6l10.24-13.653l-13.653-10.24H102.4
		L102.4,264.438z"/>
	<path style="fill:#87CED9;" d="M508.586,249.078l-34.133-25.6l-10.24,13.653l13.653,10.24H409.6v17.067h68.267l-13.653,10.24
		l10.24,13.653l34.133-25.6c3.772-2.825,4.531-8.175,1.707-11.947C509.807,250.136,509.235,249.565,508.586,249.078z"/>
	<rect x="119.466" y="247.372" style="fill:#87CED9;" width="17.067" height="17.067"/>
	<rect x="375.466" y="247.372" style="fill:#87CED9;" width="17.067" height="17.067"/>
	<path style="fill:#87CED9;" d="M95.496,121.932l-2.406-16.887l48.265,48.265l12.066-12.066l-48.265-48.265l16.887,2.406
		l2.415-16.896l-42.231-6.05c-4.659-0.691-9.003,2.526-9.694,7.185c-0.119,0.828-0.119,1.673,0,2.509l6.033,42.231L95.496,121.932z"
		/>
	<path style="fill:#87CED9;" d="M416.503,389.878l2.406,16.887l-48.265-48.265l-12.066,12.066l48.265,48.265l-16.87-2.423
		l-2.415,16.896l42.231,6.033c0.401,0.06,0.802,0.085,1.212,0.085c4.71,0,8.533-3.823,8.533-8.533c0-0.41-0.026-0.811-0.085-1.212
		l-6.033-42.231L416.503,389.878z"/>
	
		<rect x="156.921" y="156.869" transform="matrix(-0.7071 0.7071 -0.7071 -0.7071 399.4051 165.3655)" style="fill:#87CED9;" width="17.067" height="17.067"/>
	
		<rect x="337.979" y="337.881" transform="matrix(-0.7071 0.7071 -0.7071 -0.7071 836.4847 346.3444)" style="fill:#87CED9;" width="17.067" height="17.067"/>
	<path style="fill:#87CED9;" d="M141.354,358.484L93.09,406.749l2.406-16.887L78.6,387.446l-6.067,42.231
		c-0.666,4.668,2.569,8.986,7.236,9.66c0.401,0.06,0.811,0.085,1.212,0.085c0.41,0,0.811-0.026,1.212-0.085l42.231-6.033
		l-2.415-16.896l-16.887,2.406l48.265-48.265L141.354,358.484z"/>
	<path style="fill:#87CED9;" d="M370.645,153.326l48.265-48.265l-2.406,16.87l16.896,2.415l6.033-42.231
		c0.384-2.662-0.512-5.342-2.415-7.245c-1.894-1.911-4.582-2.807-7.245-2.415l-42.231,6.033l2.415,16.896l16.887-2.406
		l-48.265,48.265L370.645,153.326z"/>
	
		<rect x="157.01" y="337.878" transform="matrix(-0.7071 0.7071 -0.7071 -0.7071 527.5496 474.3045)" style="fill:#87CED9;" width="17.067" height="17.067"/>
	
		<rect x="337.979" y="156.859" transform="matrix(-0.7071 0.7071 -0.7071 -0.7071 708.4833 37.3218)" style="fill:#87CED9;" width="17.067" height="17.067"/>
</g>
<polygon style="fill:#F77219;" points="289.962,182.416 204.194,233.351 220.817,243.327 306.585,192.391 "/>
<g>
</g>
<g>
</g>
<g>
</g>
<g>
</g>
<g>
</g>
<g>
</g>
<g>
</g>
<g>
</g>
<g>
</g>
<g>
</g>
<g>
</g>
<g>
</g>
<g>
</g>
<g>
</g>
<g>
</g>
</svg>
