<svg height="496pt" viewBox="0 0 496 496" width="496pt" xmlns="http://www.w3.org/2000/svg"><path d="m378.800781 392h-130.800781c-4.398438 0-8.398438-1.761719-11.28125-4.71875-2.957031-2.882812-4.71875-6.882812-4.71875-11.28125 0-8.800781 7.199219-16 16-16h8c4.398438 0 8.398438-1.761719 11.28125-4.71875 2.957031-2.882812 4.71875-6.882812 4.71875-11.28125 0-8.800781-7.199219-16-16-16h-48c-4.398438 0-8.398438-1.761719-11.28125-4.71875-2.957031-2.882812-4.71875-6.882812-4.71875-11.28125 0-8.800781 7.199219-16 16-16h40c4.398438 0 8.398438-1.761719 11.28125-4.71875 2.957031-2.882812 4.71875-6.882812 4.71875-11.28125 0-8.800781-7.199219-16-16-16h-72c-4.398438 0-8.398438-1.761719-11.28125-4.71875-2.957031-2.882812-4.71875-6.882812-4.71875-11.28125 0-8.800781 7.199219-16 16-16h144.480469l.085937.078125c-15.285156 16.960937-24.566406 39.28125-24.566406 63.921875 0 48.71875 36.320312 88.960938 83.359375 95.121094-.160156.320312-.320313.558594-.480469.878906zm0 0" fill="#c1de9a"/><path d="m264 456v24c-17.761719 5.199219-36.558594 8-56 8-78.878906 0-147.121094-45.679688-179.601562-112h155.601562c4.398438 0 8.398438 1.761719 11.28125 4.71875 2.957031 2.882812 4.71875 6.882812 4.71875 11.28125 0 8.800781-7.199219 16-16 16h-32c-4.398438 0-8.398438 1.761719-11.28125 4.71875-2.957031 2.882812-4.71875 6.882812-4.71875 11.28125 0 8.800781 7.199219 16 16 16h96c8.800781 0 16 7.199219 16 16zm0 0" fill="#c1de9a"/><path d="m155.28125 300.71875c2.957031 2.882812 4.71875 6.882812 4.71875 11.28125 0 8.800781-7.199219 16-16 16h-132c-2.640625-12.960938-4-26.320312-4-40 0-19.441406 2.800781-38.238281 8-56h96c4.398438 0 8.398438 1.761719 11.28125 4.71875 2.957031 2.882812 4.71875 6.882812 4.71875 11.28125 0 8.800781-7.199219 16-16 16h-40c-4.398438 0-8.398438 1.761719-11.28125 4.71875-2.957031 2.882812-4.71875 6.882812-4.71875 11.28125 0 8.800781 7.199219 16 16 16h72c4.398438 0 8.398438 1.761719 11.28125 4.71875zm0 0" fill="#c1de9a"/><path d="m270 169.519531c9.679688 26.082031 30.398438 46.800781 56.480469 56.480469-2.082031 1.921875-4.082031 3.921875-5.914063 6.078125l-.085937-.078125h-144.480469c-8.800781 0-16 7.199219-16 16 0 4.398438 1.761719 8.398438 4.71875 11.28125 2.882812 2.957031 6.882812 4.71875 11.28125 4.71875h72c8.800781 0 16 7.199219 16 16 0 4.398438-1.761719 8.398438-4.71875 11.28125-2.882812 2.957031-6.882812 4.71875-11.28125 4.71875h-40c-8.800781 0-16 7.199219-16 16 0 4.398438 1.761719 8.398438 4.71875 11.28125 2.882812 2.957031 6.882812 4.71875 11.28125 4.71875h48c8.800781 0 16 7.199219 16 16 0 4.398438-1.761719 8.398438-4.71875 11.28125-2.882812 2.957031-6.882812 4.71875-11.28125 4.71875h-8c-8.800781 0-16 7.199219-16 16 0 4.398438 1.761719 8.398438 4.71875 11.28125 2.882812 2.957031 6.882812 4.71875 11.28125 4.71875h130.800781c-25.679687 42.078125-66.480469 73.921875-114.800781 88v-24c0-8.800781-7.199219-16-16-16h-96c-8.800781 0-16-7.199219-16-16 0-4.398438 1.761719-8.398438 4.71875-11.28125 2.882812-2.957031 6.882812-4.71875 11.28125-4.71875h32c8.800781 0 16-7.199219 16-16 0-4.398438-1.761719-8.398438-4.71875-11.28125-2.882812-2.957031-6.882812-4.71875-11.28125-4.71875h-155.601562c-7.4375-15.039062-12.957032-31.121094-16.398438-48h132c8.800781 0 16-7.199219 16-16 0-4.398438-1.761719-8.398438-4.71875-11.28125-2.882812-2.957031-6.882812-4.71875-11.28125-4.71875h-72c-8.800781 0-16-7.199219-16-16 0-4.398438 1.761719-8.398438 4.71875-11.28125 2.882812-2.957031 6.882812-4.71875 11.28125-4.71875h40c8.800781 0 16-7.199219 16-16 0-4.398438-1.761719-8.398438-4.71875-11.28125-2.882812-2.957031-6.882812-4.71875-11.28125-4.71875h-96c14.152344-48.640625 46.320312-89.679688 88.878906-115.359375 6.160156 47.039063 46.402344 83.359375 95.121094 83.359375 27.601562 0 52.480469-11.761719 70-30.480469zm0 0" fill="#69d6f4"/><path d="m104 104c0-53.039062 42.960938-96 96-96 41.199219 0 76.238281 26 89.839844 62.398438-16 17.121093-25.839844 40.160156-25.839844 65.601562 0 11.839844 2.078125 23.121094 6 33.519531-17.519531 18.71875-42.398438 30.480469-70 30.480469-48.71875 0-88.960938-36.320312-95.121094-83.359375-.640625-4.160156-.878906-8.320313-.878906-12.640625zm0 0" fill="#fcd770"/><path d="m379.359375 391.121094c-47.039063-6.160156-83.359375-46.402344-83.359375-95.121094 0-24.640625 9.28125-46.960938 24.558594-63.921875 1.832031-2.15625 3.832031-4.15625 5.914062-6.078125 10.488282 3.839844 21.765625 6 33.527344 6 25.441406 0 48.480469-9.839844 65.601562-25.839844 36.398438 13.601563 62.398438 48.640625 62.398438 89.839844 0 53.039062-42.960938 96-96 96-4.320312 0-8.480469-.238281-12.640625-.878906zm0 0" fill="#fcd770"/><path d="m326.480469 226c-26.082031-9.679688-46.800781-30.398438-56.480469-56.480469-3.921875-10.398437-6-21.679687-6-33.519531 0-25.441406 9.839844-48.480469 25.839844-65.601562 17.601562-18.71875 42.480468-30.398438 70.160156-30.398438 53.039062 0 96 42.960938 96 96 0 27.679688-11.679688 52.558594-30.398438 70.160156-17.121093 16-40.160156 25.839844-65.601562 25.839844-11.761719 0-23.039062-2.160156-33.519531-6zm0 0" fill="#fcd770"/><g fill="#1e1713"><path d="m439.023438 203.433594c15.535156-18.175782 24.976562-41.707032 24.976562-67.433594 0-57.34375-46.65625-104-104-104-25.726562 0-49.257812 9.441406-67.433594 24.976562-17.566406-34.480468-53.375-56.976562-92.566406-56.976562-57.34375 0-104 46.65625-104 104 0 2.886719.199219 5.726562.433594 8.558594-60.441406 38.441406-96.433594 103.59375-96.433594 175.441406 0 114.695312 93.304688 208 208 208 71.847656 0 137-35.992188 175.441406-96.433594 2.832032.234375 5.671875.433594 8.558594.433594 57.34375 0 104-46.65625 104-104 0-39.191406-22.496094-75-56.976562-92.566406zm-79.023438-155.433594c48.519531 0 88 39.480469 88 88s-39.480469 88-88 88-88-39.480469-88-88 39.480469-88 88-88zm-104 272h-48c-4.414062 0-8-3.585938-8-8s3.585938-8 8-8h40c13.230469 0 24-10.769531 24-24s-10.769531-24-24-24h-72c-4.414062 0-8-3.585938-8-8s3.585938-8 8-8h128.535156c-10.703125 16.550781-16.535156 35.742188-16.535156 56 0 37.0625 19.558594 69.574219 48.832031 88h-88.832031c-4.414062 0-8-3.585938-8-8s3.585938-8 8-8h8c13.230469 0 24-10.769531 24-24s-10.769531-24-24-24zm-56-304c34.9375 0 66.710938 21.128906 80.585938 53-15.3125 18.121094-24.585938 41.480469-24.585938 67 0 10.902344 1.703125 21.414062 4.832031 31.304688-16.480469 15.894531-37.863281 24.695312-60.832031 24.695312-48.519531 0-88-39.480469-88-88s39.480469-88 88-88zm-177.984375 224h89.984375c4.414062 0 8 3.585938 8 8s-3.585938 8-8 8h-40c-13.230469 0-24 10.769531-24 24s10.769531 24 24 24h72c4.414062 0 8 3.585938 8 8s-3.585938 8-8 8h-125.28125c-1.757812-10.414062-2.71875-21.097656-2.71875-32 0-16.480469 2.089844-32.558594 6.015625-48zm19.816406 144h142.167969c4.414062 0 8 3.585938 8 8s-3.585938 8-8 8h-32c-13.230469 0-24 10.769531-24 24s10.769531 24 24 24h96c4.414062 0 8 3.585938 8 8v17.984375c-15.441406 3.925781-31.519531 6.015625-48 6.015625-70.910156 0-132.921875-38.671875-166.167969-96zm230.167969 85.113281v-13.113281c0-13.230469-10.769531-24-24-24h-96c-4.414062 0-8-3.585938-8-8s3.585938-8 8-8h32c13.230469 0 24-10.769531 24-24s-10.769531-24-24-24h-150.472656c-4.710938-10.222656-8.582032-20.902344-11.457032-32h121.929688c13.230469 0 24-10.769531 24-24s-10.769531-24-24-24h-72c-4.414062 0-8-3.585938-8-8s3.585938-8 8-8h40c13.230469 0 24-10.769531 24-24s-10.769531-24-24-24h-85.113281c13.289062-37.878906 38.289062-70.863281 72.464843-94.28125 11.496094 44.921875 52.199219 78.28125 100.648438 78.28125 25.078125 0 48.59375-8.808594 67.382812-24.9375 8.578126 16.800781 21.5625 30.9375 37.449219 40.9375h-128.832031c-13.230469 0-24 10.769531-24 24s10.769531 24 24 24h72c4.414062 0 8 3.585938 8 8s-3.585938 8-8 8h-40c-13.230469 0-24 10.769531-24 24s10.769531 24 24 24h48c4.414062 0 8 3.585938 8 8s-3.585938 8-8 8h-8c-13.230469 0-24 10.769531-24 24s10.769531 24 24 24h115.878906c-23.246094 32.449219-55.253906 56.273438-91.878906 69.113281zm120-85.113281c-48.519531 0-88-39.480469-88-88 0-22.96875 8.800781-44.351562 24.695312-60.832031 9.890626 3.128906 20.402344 4.832031 31.304688 4.832031 25.519531 0 48.878906-9.273438 67-24.585938 31.871094 13.875 53 45.648438 53 80.585938 0 48.519531-39.480469 88-88 88zm0 0"/><path d="m360 176c-8.824219 0-16-7.175781-16-16h-16c0 14.871094 10.230469 27.289062 24 30.863281v17.136719h16v-16h24v-32c0-17.648438-14.351562-32-32-32-8.824219 0-16-7.175781-16-16v-16h16c8.824219 0 16 7.175781 16 16h16c0-14.871094-10.230469-27.289062-24-30.863281v-17.136719h-16v16h-24v32c0 17.648438 14.351562 32 32 32 8.824219 0 16 7.175781 16 16v16zm0 0"/><path d="m400 128h16v16h-16zm0 0"/><path d="m304 128h16v16h-16zm0 0"/><path d="m160 136c0 22.054688 17.945312 40 40 40s40-17.945312 40-40h-16c0 13.230469-10.769531 24-24 24s-24-10.769531-24-24v-8h32v-16h-32v-16h32v-16h-32v-8c0-13.230469 10.769531-24 24-24s24 10.769531 24 24h16c0-22.054688-17.945312-40-40-40s-40 17.945312-40 40v8h-32v16h32v16h-32v16h32zm0 0"/><path d="m438.152344 253.128906-12.304688-10.257812-33.847656 40.632812-33.847656-40.632812-12.304688 10.257812 38.152344 45.773438v5.097656h-32v16h32v16h-32v16h32v16h16v-16h32v-16h-32v-16h32v-16h-32v-5.097656zm0 0"/></g></svg>