<svg id="Layer_1" enable-background="new 0 0 110 110" height="512" viewBox="0 0 110 110" width="512" xmlns="http://www.w3.org/2000/svg" xmlns:x="http://ns.adobe.com/Extensibility/1.0/" xmlns:i="http://ns.adobe.com/AdobeIllustrator/10.0/" xmlns:graph="http://ns.adobe.com/Graphs/1.0/"><path d="m92.9269714 73.219841c-24.9145813 1.5942993-49.7011375 1.550972-74.3801346 0 0 0-.1380482 8.0071411 3.2992039 12.3969498 1.2958107 1.6549072 3.3041515 2.5927887 5.4060211 2.5927887h56.9697113c2.1018448 0 4.1101913-.9378815 5.4059982-2.5927887 3.4372464-4.3898087 3.2992001-12.3969498 3.2992001-12.3969498z" fill="#f2a916"/><path d="m93.2546005 69.7921143-4.8940811-.2645416c-.9730682-.0526047-1.9476547-.0135193-2.9133224.1172714-2.8999329.3927536-8.5600815 1.0979309-10.3417358 1.0979309-2.1606216 0-10.2845001 1.1235352-14.1735802 1.3827896-3.8891029.2592926-12.4593658-1.1630096-22.3117485.4790268-9.8523827 1.6420822-20.4531612-2.5847321-21.4902496-2.066185-1.0370884.5185394.5897865 3.9206238 4.8245869 3.7477798 4.2347775-.1728516 8.4695759.0864182 9.7659588.6049652 1.29636.5185471 5.7040062 8.1238785 9.1609917 9.2474136 3.4569588 1.1235123 5.7039833-3.9755249 10.6301765-6.3089752 4.9261894-2.3334732 2.5927429-.3456955 8.4695969 3.8026581 5.8768768 4.1483765 8.9017181 1.6420746 16.6799011-3.284111 7.7782059-4.9261932 8.29319-3.1574631 14.2076721-4.0328522 2.3298035-.3448257 3.8973007-1.2212219 4.8479691-1.9990158.9506605-.7778396-2.4621355-2.5241546-2.4621355-2.5241546z" fill="#f9b623"/><path d="m93.1112671 68.5467606-4.8940811-.2645416c-.9730682-.052597-1.9476547-.0135117-2.9133224.1172714-2.8999329.3927536-8.5600815 1.0979385-10.3417358 1.0979385-2.1606216 0-10.2845001 1.1235352-14.1735802 1.382782-3.8891029.2592926-12.4593658-1.163002-22.3117485.4790344-9.8523827 1.6420746-20.2954941-1.4296722-21.3325825-.9111328-1.0370884.5185471.4321213 2.7655716 4.6669197 2.59272 4.2347775-.1728439 8.4695759.0864258 9.7659588.6049728 1.29636.5185394 5.7040062 8.1238785 9.1609917 9.2474136 3.4569588 1.1235123 5.7039833-3.9755249 10.6301765-6.3089752 4.9261894-2.3334732 2.5927429-.3456955 8.4695969 3.8026581 5.8768768 4.1483688 8.9017181 1.6420746 16.6799011-3.2841187 7.7782059-4.9261856 9.3338394-3.2841339 15.2971191-3.7162552 5.963295-.4321136 3.9631424-2.6262131 3.802681-2.9384155-.5615006-1.0924758-2.5062943-1.9013518-2.5062943-1.9013518z" fill="#ffc94f"/><path d="m94.2012405 61.2744293c-2.1918182-.9392929-31.624485-.9392929-31.9375839-.7305603-.3131599.2087326-40.3916702.1043663-42.6878471.1043663s-3.5486355.9393578-3.5486355.9393578l.4444618 6.8147202c.1113529 1.7072754 1.3709221 3.1091309 3.0536728 3.4183502 12.8490849 2.3607864 33.8641891.9476852 35.4334946.837532.2081604-.0024109.4100952-.0047607.6250534-.0073013 22.2372589-.259552 34.0733032-2.097229 37.4706268-2.7180862.6876831-.1256485 1.2583618-.6114655 1.4701462-1.2776794 1.1412868-3.5895997-.3233891-7.3806993-.3233891-7.3806993z" fill="#885646"/><path d="m48.3348083 63.0565109c-.0337486.0199356-.0647316.0420761-.0944252.0651627.4128227.0211678.8256454.0423355 1.2385101.0634804-.3418769-.2452927-.7892646-.3383332-1.1440849-.1286431z" fill="#d6660b"/><path d="m39.3119087 62.8798332c-1.8741798.5500984-3.9115295.5306778-5.7748795-.0550652-.4867859-.1530266-.9620094-.3436241-1.4558754-.4719238-1.2205982-.3170815-2.5042019-.2425957-3.762949-.165863-.3696651.0225258-.7392445.0450516-1.1088676.0675774-.4371605.0266724-.874321.053299-1.3110065.0867004-1.373064.1049957-2.7400875.2766457-4.1064625.4482079-.6534958.0820389-1.3069935.1641197-1.9604893.2461548-.8831253.1109085-1.8493671.2641983-2.4342899.9350853-.5677052.6511269-.6050758 1.5952263-.6134491 2.4590569-.0100117 1.0310211-.0130749 2.0978546.3995724 3.0427322.4126053.9449234 1.3612823 1.7379456 2.3866463 1.6295776-.3068752-1.3223114-.6137066-2.6446228-.9205399-3.9669571-.1046505-.4508667-.2099495-.9129257-.1542797-1.3723984.0557137-.4594727.3057537-.923645.7312622-1.1057205.5478115-.2344589 1.2062263.0792389 1.5566902.5611496.350462.4818878.4662457 1.0901794.5729256 1.6764221.2978992 1.6371918 1.000248 3.1802444 1.2981033 4.8174591.9190292.051506 1.6419201-.8832932 1.7348766-1.7990417.0929546-.9157562-.2568169-1.8097534-.5371513-2.6864929-.2831402-.8855362-.4998646-1.8462753-.2288513-2.7355957.2710571-.8893394 1.1912956-1.6405602 2.0934086-1.4157219 1.1251373.2804413 1.4559631 1.7697029 1.179987 2.8959618s-.9293442 2.1732025-.9422894 3.3327103c-.0122128 1.0922089.6041279 2.1694946 1.5518551 2.7125092.9477272.5430222 2.1888237.5299454 3.1248989-.0329056-.531971-1.8435822-1.0639-3.6871414-1.595829-5.5307236-.209734-.726799-.4214954-1.4823151-.3036823-2.2295227.1178131-.7472267.6653633-1.4838829 1.4178581-1.5612831.6979904-.0717888 1.3492432.4456635 1.6584492 1.0755539.309206.6298866.3502903 1.3529778.3858471 2.0537682.0759964 1.4990158.1520348 2.998024.2280769 4.4970398.0348663.6880417.081562 1.4133453.4621887 1.9875641.3806267.5742264 1.2192612.9049225 1.7804909.5053482.6321793-.4500656.5066833-1.4074173.3127899-2.1588058-.3343239-1.2956238-.6686478-2.5912247-1.0029678-3.8868256-.1950607-.7559052-.3508949-1.6708374.2014046-2.2225266.5775871-.5769424 1.6493835-.3230362 2.1264648.3394089.4770775.6624527.4782867 1.5607452.2951355 2.356308-.1671371.7258911-.4686623 1.4152298-.6406364 2.1400223-.1720161.7247391-.2027397 1.5241241.1511307 2.1796036.3538284.6554871 1.1827507 1.0904465 1.8725815.8093719.526535-.2145386.8432083-.7798538.920414-1.3431778.0772018-.563324-.0436325-1.1328583-.1638184-1.6886139-.1974792-.912941-.3949127-1.8258896-.5923882-2.7388077-.2146988-.9928055-.3235359-2.2588425.5374069-2.7978516.7237968-.4532127 1.7446747-.015667 2.1859322.7154694.4413071.7311325.4419975 1.6414185.3561172 2.4910812-.1130219 1.1181488-.3525772 2.245224-.1777573 3.3554077.174778 1.1101913.8986626 2.2355881 2.0020943 2.4488983-.1903152-1.4536362-.3806267-2.9072647-.5709-4.3609238-.137146-1.0476303-.2677765-2.1510391.1310616-3.1294327.3988838-.9783859 1.5265236-1.745121 2.5123138-1.3649063.7856827.3030396 1.1893539 1.2067871 1.2199097 2.0483551.0305519.8415909-.225399 1.6634293-.3633652 2.4941864-.13797.8307571-.1403427 1.7457962.3351822 2.4408264.4755249.695015 1.5706291 1.0003815 2.1814003.4205933.5595512-.5311966.4473038-1.435379.2922897-2.1911545-.2840004-1.3851471-.5680504-2.7702713-.8520508-4.1553955-.1332626-.6497421-.1959267-1.4701462.3064842-1.8606339-1.1615143-.0595093-2.3230324-.1190414-3.4845085-.1785736-1.7876548-.0916176-3.7264366-.5674248-5.4439659-.0632668z" fill="#966051"/><path d="m80.8636551 62.5452957c.0571365-.002243.114296-.0044441.1714325-.0066872-.0589294-.037632-.1175995-.075695-.1788101-.1098747.0024566.0388413.0049133.0777016.0073776.1165619z" fill="#d6660b"/><path d="m82.7404251 66.5924149c.0034103.0093002.0084152.0176315.0119553.0268478.0126877-.0601807.0251541-.1204071.0352097-.1811905.0666351-.4028473.0607605-.8135376-.0064926-1.2147064-.1716538.4365158-.2022935.927185-.0406724 1.3690491z" fill="#966051"/><path d="m82.4562073 70.0519867c.3220825.5326157 1.0791779.8287506 1.5991516.4866562.6481018-.4264145.5023041-1.4458618.0583191-2.0820541-.438324-.6280823-1.0883484-1.1237411-1.3612976-1.837326-.1153564.5477676-.3281097 1.0730515-.4550323 1.6193085-.1408768.606285-.1632539 1.2807921.1588592 1.8134154z" fill="#966051"/><path d="m93.1452332 66.0950775c-.0860825-1.2774124-.6441574-2.5910835-1.7307129-3.2682724-1.0270081-.6400528-2.3189392-.6136932-3.5281525-.5666542-2.2837524.0888596-4.5675278.1777153-6.8512802.2665749.8896103.5684967 1.5024796 1.5385132 1.6768112 2.5783615.19104-.485733.5645599-.9013596 1.0532608-1.0893555.4565125-.175621.977684-.1648865 1.4349213.0087433 1.0118561.3841705 1.6131363 1.6146698 1.2945023 2.6490097-.1764297.5727234-.5851135 1.053978-.7486343 1.6305161s.077858 1.360054.6734161 1.4265747c.417305.0465851.7959061-.3040009.9278259-.7026596.1319199-.398613.0769806-.8318787.0206375-1.2479858-.1182022-.8729935-.2364044-1.7459793-.354599-2.6189728-.1033249-.7630844-.0195618-1.8056908.7376328-1.9457512.4257202-.0787659.8472519.2286072 1.0432434.6146469.1959991.3860359.2179413.8339272.2360306 1.2664909.0498199 1.1906662.099617 2.3813553.1494064 3.5720444.0141754.3384323.0311279.6882706.1810989.9920197.1499863.3037491.4710388.5503845.8065338.5036392.595932-.0830383.7189178-.8816605.689743-1.4826279-.0888367-1.8297272-.1776505-3.6594315-.2664871-5.4891548.2978821-.2718964.8134155-.1116524 1.0481949.2163239.2347488.3279495.2663269.7546272.2897415 1.1572609.0944748 1.6228714.1889267 3.2457504.2834015 4.8685989-.2532654.0895615-.35746-.1180115-.2673569.1350708.0900955.2530594.4027176.4011002.655571.3104248.3144226-1.2410889.6313248-2.5074769.54525-3.7848664z" fill="#966051"/><path d="m75.6011734 62.6006203c-3.2981873.0148468-6.5963974.0296898-9.8945618.0445366-1.631691.0073357-3.2657585.014801-4.890892.1612701-1.5317001.1380539-3.0512314.3992691-4.5854797.5053444-1.8199806.1258202-3.6472054.0324745-5.4691696-.0608902-.4274063-.0219231-.8547707-.0438232-1.282177-.0657272.1283836.0921173.2424011.2050323.330349.3324242.3221092.4665947.3904686 1.0570374.4493752 1.6209488.1851768 1.7725677.3703995 3.5451431.5555763 5.3177338.0737534.7057571.4044914 1.6314163 1.108223 1.5404663.3618546-.0467377.6281204-.389389.7048492-.746109.0767326-.35672.004879-.7266693-.0669746-1.084404-.2167244-1.0790024-.4334488-2.1580048-.6501312-3.2370148-.1825027-.9086304-.2758484-2.0507889.4958954-2.5638428.7655258-.5089035 1.8616219.0740128 2.2537727.9053955.3921471.8313828.3056641 1.7961121.2883186 2.7151871-.0163155.8645706.049324 1.7737122.5110397 2.5048676s1.4309807 1.2052536 2.2202415.8519669c.9450073-.4229813 1.1244049-1.7032242.9229126-2.7187881-.1894073-.9546356-.5934677-1.8867798-.5341721-2.858223.0592499-.9714432.8410034-2.0098801 1.802887-1.8615799.5934258.0914879 1.0475044.6130829 1.238163 1.1824265.1906586.5693665.1676979 1.1850815.1426697 1.7849808-.0661583 1.5829697-.1322708 3.1659393-.1983833 4.748909.4843292-.5943756 1.1165924-1.1952667 1.5031319-1.8574371.4161034-.7127457.4257698-1.9818115.4961548-2.7828064.0353432-.4024658.2698479-3.4561386-.1303711-3.5928764.8068275.275631 1.3356056 1.0867348 1.5130119 1.9207039.1774597.8339233.0638275 1.698967-.0503998 2.5438995-.1897964 1.4042282-.3796387 2.8084488-.5694313 4.2126694.5778847.4994736 1.5462837.1642075 1.9683037-.4724426.4220123-.6366425.4505768-1.4468765.4652939-2.2105484.0291748-1.5108185.0583038-3.0216522.0874786-4.532486.0122528-.6374893.1480637-1.441143.7659988-1.598381.5098343-.1297646 1.0128021.3363495 1.1354065.8479996.1225662.5116425-.0210114 1.0440674-.136322 1.5574188-.3135223 1.3961563-.4197693 2.8386536-.3142166 4.2656631.0346146.4681015.1001663.9569168.3726883 1.3390961.2725677.3821869.8144684.6113358 1.2281036.3894958.5068588-.2718124.5282211-.9781494.4817886-1.5513992-.1767654-2.182785-.3535309-4.3655624-.5302505-6.5483475.9703445.1302452 1.6975021 1.0196686 1.9532013 1.9647675.2556915.9450684.1383133 1.9454269.0329285 2.9187851-.1054306.9733658-.193512 1.9821167.1154785 2.9111557.6570358.0709 1.2743683-.407753 1.5754166-.9960175.3010559-.5882721.3536377-1.2679367.4006958-1.9270859.1201859-1.6835251.2403717-3.3670425.3605652-5.0505676 1.1636505 1.1193161 1.7213211 2.8343353 1.4384842 4.4240189-.1237488.6955261-.3973312 1.3718338-.3866043 2.0781937.0107269.7063828.4331284 1.4879837 1.1342239 1.5749893.5628281.0698471 1.095787-.3450699 1.3467407-.8536758.2509842-.5085983.2818832-1.0937805.3082123-1.6603241.0958023-2.0631561.1916275-4.1263123.2874527-6.1894684.5492783.0208015 1.0012589.4855804 1.1830292 1.0043488s.1501617 1.0846558.1163025 1.6333084c-.070343 1.1403503-.140686 2.2807236-.2110443 3.4210739-.0372925.6047974-.0684433 1.2419815.2017288 1.7843552s.9548264.9284821 1.4970627.6580505c.6063766-.3024139.6487503-1.1366882.6059418-1.8129044-.1453476-2.2961502-.2906876-4.5922775-.4360352-6.8884277-.3066635.0119095-.6132812.0238647-.9199371.0357742-1.4475099.006519-2.895012.0130345-4.3425447.01955z" fill="#966051"/><path d="m89.5259323 42.0004807c1.4170914 2.1899033 2.3787079 4.6730995 2.8061142 7.2462616.2477036 1.4912605.2626572 3.184063-.7311859 4.323143-.9666138 1.1078758-2.5707092 1.3423424-4.0319366 1.5052376-7.0349197.7842255-14.1030731 1.5697136-21.1752396 1.270359-4.5953712-.194519-9.1928787-.8534508-13.5640182-2.2846947-6.1091194.0019455-12.3151665-.0337868-18.4242859-.0318451-4.8150368.0015297-9.713953-.0088501-14.3187084-1.4162636-1.2443142-.3803139-2.5284042-.9133797-3.2861481-1.9711037-.9048119-1.2630157-.8463449-2.9521637-.7505112-4.5028763.0623531-1.0089836.227766-2.1893616 1.1141968-2.6753349.4931126-.2703438 1.0890541-.2444115 1.650135-.2066002 7.1860924.4842377 14.3556042 1.7295189 21.5461941 1.3173714 1.6103249-.0922966 3.2146034-.2675896 4.8180275-.4428101 2.9621773-.3237038 5.9243546-.6474037 8.8865318-.9711075 7.9917603-.8733292 16.1827507.6201096 24.1738091-.2596436 3.89151-.428421 7.8157501-1.0541992 11.7008743-.5712357.0119476-.2365568-.1783676-.3543509-.4138489-.3288572z" fill="#2fcda8"/><path d="m19.7007275 46.4779968c.7420082.770916 1.7657833 1.1920929 2.7580547 1.5924492 1.0772285.434639 2.1544571.8692741 3.2316856 1.3039093.4716187.1902885.9454975.3813019 1.4405823.4975967.9545364.2242279 1.9750824.158989 2.8932991-.1849556 1.4328327-.536705 2.5319519-1.6896248 3.5779686-2.8062782-.2836723 1.0376282.0844383 2.224411.9055099 2.9193764.8210754.6949654 2.0523682.8619308 3.0288658.4107208.6843834-.3162346 1.2290688-.8972282 1.9363174-1.1583405.7072525-.2611122 1.7246933.0220604 1.7966843.7725258 1.117897.4108047 2.2952995.8283348 3.4727631.6493607 1.1774673-.1789742 2.3216438-1.1795273 2.2157173-2.365799.8751602-.8496513 2.4015617-.2514343 3.173996.6925812.772438.9440117 1.18433 2.1713448 2.0869789 2.9917412.9026489.8203926 2.6634026.9048271 3.0910301-.2375183.3572578-.9543533-.3308372-2.3784943.5694084-2.8559685.6791878-.3602295 1.4371567.3757401 1.7193413 1.0908852.2821884.7151451.4655724 1.5850296 1.1543999 1.9264679.5573692.2762794 1.2222977.0806427 1.8115997-.1186447 1.5740967-.5323257 3.1481972-1.0646477 4.7222939-1.5969696.1840439-.0652618.3680801-.1305237.552124-.1957817 3.2766571.1613998 6.5533142.3228035 9.8299713.4842033 1.9663925.0968628 4.4323578-.1067123 5.1607666-1.9357872.5289154 1.1049309 2.1484528 1.4936562 3.1212692.749176.6202621-.474678.9332733-1.2662506 1.5479813-1.7480927.6147156-.4818459 1.8210526-.3221474 1.8239365.4589043.3914948-.2768326.7829819-.5536613 1.1744766-.8304901.7717133 1.0498886 2.4537582 1.2689018 3.4685822.4516258 1.0148315-.8172722 1.1594315-2.5073395.2981873-3.4851303-.2670135-.3031502-.6255112-.5431786-1.0264053-.5930099-.8552704-.106308-1.569664.6450996-1.9933548 1.3956184-.4236832.750515-.7620316 1.618248-1.4977875 2.06707-.6941833.4234581-1.6613998.3352318-2.2675095-.2068405-.606102-.5420685-.8013382-1.4934769-.457695-2.230442 1.1332703.1071892 2.3981781.0589638 3.2333832-.714489.8351974-.7734528.7483521-2.4838829-.3510666-2.7789574-.6909256-.1854362-1.4018402.2590675-1.8687515.8010559s-.7991867 1.2001152-1.3304062 1.679245c-.9445114.8518829-2.3202133.980011-3.5914307 1.022522-7.3790283.2467613-14.7204056-.9635544-22.0043488-2.169838-5.5416145-.9177399-11.0832253-1.8354797-16.6248398-2.7532196-4.1414223-.6858559-8.3414268-1.373951-12.5181293-.9533119-2.6410446.2659836-14.4270811 3.6390686-10.2654495 7.9628296z" fill="#13aa80"/><path d="m92.6635056 51.8272552c-13.491333 2.0957642-37.8544312 2.7998047-37.8544312 2.7998047v.3363647c-2.1640625-.1900635-13.7866821-1.1911011-22.2052612-1.5213013-9.3170795-.3653564-15.5285053-1.7355347-15.5285053-1.7355347s0 7.2161865 0 8.3123169c0 0 2.6489868 2.1009521 16.5333271 1.6442261 11.4902954-.3779907 18.9603271-.5054321 21.2004395-.538269v.0022583c30.2573853 3.2745972 39.4262695-2.6196899 39.4262695-2.6196899.5239257-3.4055786-1.5718384-6.6801758-1.5718384-6.6801758z" fill="#ef3e3e"/><path d="m93.4782562 42.7882042c-.7983322-.241951-.5441895 2.9848061-.6095428 2.1531868-.040184-.5112991.0334778-1.171772-.4300079-1.3913536-.3050461-.144516-.6844406.0328522-.8786697.3089066s-.2487335.6236229-.2979889.95755c-.1041489.7062187-.8403091 1.3897247-1.5350418 1.2255974-.3695602-.0873032-.7386627-.3508224-1.0939026-.2166443-.457634.1728516-.472641.8345909-.8237457 1.1752281-.335556.3255463-.8892059.2716446-1.3184204.0863342-.4292221-.185318-.8156967-.4786186-1.271286-.5836639-.9815292-.2263336-1.9154968.4660835-2.685791 1.1151543-.4358597.3672638-.8717422.7345276-1.307579 1.1017914-.2893829.2438316-.5787659.4876709-.8681564.7315025-.3037643.2559509-.6341324.5235023-1.0296478.5603371-.7516632.0699806-1.2926483-.6888084-1.6211395-1.3685074-.3489532-.7220688-.7784119-1.5673676-1.5716019-1.6856003-1.4307404-.2132568-2.3458786 2.3775864-3.766449 2.1047401-2.3349228 1.0422707-5.1054688 1.0615921-7.4547043.0519905.3841019.1193314.4061584.7112083.1241684.9980125-.2819977.286808-.7152176.3472786-1.1149139.3921051-1.7730446.1988716-3.5460892.3977318-5.3191147.5965881-1.1071892.3591385-2.2913895.4789314-3.4480934.3488083-1.2611465-.1418648-2.4691238-.5731163-3.6638374-1.0012207-.3381958-.1211777-.6763916-.2423706-1.0145874-.3635597-.5997543-.2149048-1.1995087-.4298096-1.7992668-.6447258-1.1224327-.402195-2.2448654-.8043976-3.3673248-1.206604-.1911697-.0685081-.3823624-.1370163-.573555-.2055244-1.5074615-.5401535-3.0500298-1.0868874-4.6512794-1.1021194-1.3574257-.0129242-2.7225685.3722458-3.8487206 1.1302528-.5536728.3726883-1.068058.8627014-1.2686234 1.499279-2.0441513.3915367-4.1716671.341835-6.1953182-.1447144.1196384.4367714-.4776535.7874298-.9026909.6310883-.4250145-.1563377-.6727161-.5882721-.8851147-.9882545-.5860291-1.1037483-1.1720791-2.2075195-1.758131-3.3112679.036602.2721176-.0689373.5799675-.2741642.7738991-.3248425.3069267-.8026943.3862572-1.2496166.3879509-1.3230438.0050049-2.8386421-.2156754-3.5620613-1.3234367-.2423573-.3711014-.6208267-.6510963-1.0465908-.7742538-.2594261-.0750389-.5314121-.0930099-.80089-.1105652-.4484196-.0292091-.9145241-.0557823-1.3314438.1118736-.3639107.1463318-.6546364.4267769-.9354439.7006226-.3894472.3797989-.7789154.7595901-1.1683626 1.1393929-.3394489.3310356 3.1051054 2.4635735 2.6517153 2.6023178-.30056.0919762-.6283722.0888329-.9157124.2162361-.2797508.1240387-.5015621.3723755-.5933762.6642914-.1301308.4137192-.046236.9567566-.4079895 1.196003-.3958044.2617455-1.0171604-.0898552-1.3689489.2286072-.2418728.2189751-.1741457.6405258.0527697.8749657.2269154.234436.5576973.3297386.8724222.4157982.3192787.0873146.6385574.1746292.9578352.2619438.4581642.1253014.9489937.2501564 1.3995686.0998306.3347855-.1116867.623291-.3696175.9752769-.3952751.3645267-.0265732-3.1036749-1.5843544-2.8536196-1.3178024.2500772.2665405.4549742.5800247.7476587.7989426.6802177.5087547 1.6217098.3804169 2.4670773.2975578.8453674-.0828629 2.1677494-.1224442 2.3010921.7164345.1205845.7583733.2930813 1.6023636.9274578 2.0350876.4686565.3196869 1.0750313.3293114 1.6423416.327549 1.0578327-.0032883 2.1156635-.0065651 3.1734943-.0098534 1.0728321-.0033226 2.1782856-.0005608 3.1701488.408287.4742432.1954842.9110489.4813042 1.2800617.8375816.2384853.2302361.453434.493103.7399826.6597404.2865448.1666222.6772461.2134171.9342079.0040245.1898079-.1546478.2628365-.4066582.3382187-.6395798.0753822-.232933.1800194-.4820518.3976097-.5942574.2175865-.1122017.5586624.0286942.5365372.2725143-.286087.2899132.0543289.8221054.45924.866024.4049339.0439148.7766724-.2011147 1.1263275-.4100151.3496323-.208889.777771-.3948593 1.1513176-.2325668.1967354.085453.3431892.2554321.5252724.3688011.4455414.2774429 1.0406075.1732101 1.496376-.0870628.4558105-.260273.8178291-.6537666 1.2237053-.9865723.2932129-.2404327.6227646-.4552383.9955139-.5247803.3727531-.0695534.7962723.032917 1.029171.3321571.2229347.286438.2310715.6777115.2774429 1.037693.0463448.359993.1810303.7628593.5177956.8982353.3367882.1353798.7920265-.2894516.5578499-.566761.2832718-.2805634.7510033-.2552452 1.1262627-.1205063.3752365.1347389.7219658.3587532 1.1153946.4233208.3934288.0645828.8736992-.104393.9700432-.4912796.085434-.3429451-.1581955-.6701736-.3623886-.9586601-.2041931-.2884712-.3822784-.6851311-.1817589-.9761581.8143082-.2751083 1.621357-.3645439 2.4356461-.6396561.6435928.4290428 1.2871628.8580933 1.9307365 1.2871323.3332443.2221565.7130127.5784416.564209.9502716-.1938782.4844246-1.050087.3563614-1.2619133.8332138-.1319122.2969284.0967598.6459808.3855743.7947731.2888374.1487846.6250954.1665573.9384346.2524872.8566284.2349434 1.5263557 1.0375175 1.6041794 1.9223671.1870995.293499.650589.2862625.9231224.0697746.2725372-.2164879.3958511-.5672874.4851761-.9036789.0893517-.3364029.1634789-.6901398.3753052-.9663277.3846512-.501564 1.0897026-.596962 1.7192841-.6528206 1.6733589-.1484642 3.346714-.2969322 5.0200729-.4454079 1.0309296-.0914612 2.3050079-2.8932953 3.2270164-2.4230728 4.5669861 2.3291626 6.7241745.1684074 10.0461197-1.1441879.0207672-.6301651.1535797-1.4141312.7587433-1.5910797.5631104-.1646538 1.1083603.3697701 1.2887115.928051.1803436.5582924.1468658 1.1709251.3475876 1.7222328.4118805 1.1313019 1.8309174 1.7218933 2.975174 1.3474388 1.1442261-.3744469 1.9215622-1.5634003 1.960762-2.7667122.0110626-.3396034.1012878-.8175316.4397507-.787529.1702118.0150909.2869186.1704712.4233017.2734604.2751083.2077446.6943817.1953392.9567566-.0283089.2623291-.2236519.3409424-.6356888.1793594-.9402161.2582779.411026.9116592.3135681 1.2825241.0003624.370903-.3132095.6010742-.7713509.9853516-1.0679703.6036453-.4659653 1.4403076-.4370918 2.2011871-.3865776.3005142.0199509.6192169.046257.8618622.2246704.2922897.2149048.4215393.6148796.7413025.7862396.5722809.3066635 1.2633667-.3180466 1.8957214-.1708221.4300919.1001396.6924896.5181351.9617462.8681679.2692566.3500404.6927795.6901817 1.110405.5466766.4615021-.1585732.7233963-.854332 1.1980972-.7412033.3201599.0762939.4442902.4912224.7449799.6251068.2322845.1034241.5168076.0037918.6929321-.179615.1761475-.1834145.2636948-.4335251.3254547-.6802063.5263899-2.1024283-1.553734-8.4887083-3.5594179-9.3100241z" fill="#17bd93"/><path d="m82.8253784 48.6117935c-.7821274.6823959-1.5642548 1.3648033-2.346405 2.0471992-.1387939.2966309-.4724808.4694672-.7997208.482975-.32724.0134926-.6465912-.1101036-.9284058-.2769241-1.032692-.6113052-1.7622223-1.8372116-2.9558411-1.9612045-.7149277-.0742683-1.3958511.2834702-2.0255203.6300545-.4029083.2217712-.8058167.4435272-1.2087021.6652946-.5006409.2755623-1.0021591.5515518-1.5260239.7799377-.453392.1976929-.9225998.3591919-1.4016342.4824715-.5245056.1349716-1.189682.1750793-1.4975433-.2705002-.1612549-.2333603-.1899185-.5658493-.4243546-.7254982-.2877579-.1959686-.7048111.0222702-.8559723.3358955-.1511536.3136253-.122673.6790619-.124939 1.0272141-.002243.3481369-.0553589.7309494-.3147659.9631767-.3046722.2727699-.7889252.23069-1.1517792.0421257-.3628998-.1885757-.648407-.4945908-.9744415-.741478-.5913963-.4478607-1.3285408-.6999168-2.0703506-.707901-.6609917-.0071144-1.331665.182888-1.8579292.5829391-.3432312.2609329-.6164055.601162-.8858604.9377518-.3335571.4166451-.6719933.8416405-.8666611 1.3385811-.1975708.5043373-.2308311 1.0929604.0104485 1.5778923.2412796.4849472.7914543.8285637 1.3251762.7363434.8046303-.139019 1.1663818-1.06707 1.381134-1.8548698.2147293-.7878036.5743065-1.716053 1.3784294-1.8578339.7310944-.1289101 1.4463081.6914597 1.2189331 1.3981705-.1030083.3200951-.3506012.5808525-.4385223.9054184-.1453743.5366936.2196579 1.1275406.7345467 1.3373756.5149384.2098351 1.1224365.0873795 1.5911407-.2118073.4686508-.2991943.816658-.7545967 1.1029205-1.2312813.22258-.3706627.4173355-.7643318.7117615-1.0809517.5175552-.5565643 1.3341904-.816761 2.078331-.6621895-.2753067-.31036.0325775-.8502312.4408112-.92416.4082565-.0739288.8070908.1620369 1.1250763.4285011.3179779.2664642.614975.581707 1.0069962.7174797.3920441.1357727.9200668.0030251 1.0424576-.393383.0866623-.2806511-.0544662-.5735474-.142807-.8536606-.088356-.2801132-.0935287-.6483345.158287-.7995491.3967056-.2382431.8896942.3333473 1.3282776.1857185.3443375-.1159019.4021149-.5700302.6073685-.8698196.3114243-.4548836.9686356-.5232925 1.5023117-.3851357.9427872.2440758 1.7287445 1.0191612 1.9859238 1.9584656.1042633.3806915.1279373.7846909.2819977 1.1481056.1540222.3634033.4950943.6933365.8884811.660881.4902573-.040451.7662201-.5952682.8171234-1.0845451s-.0185242-1.01091.2018814-1.4506874c.2705154-.5397911.8862839-.7887154 1.3865662-1.1267242.3723602-.2515488.7127991-.6748047.740097-1.091362l.1227798.5490303c.1309662-.4746168-.0168915-1.0155332-.3710785-1.3575323z" fill="none"/><path d="m75.4636841 50.6358185c-.3947906.1890259-.8474884.3128166-1.1257095.6507263-.5823898.7073288-.1723099 2.0605049-.9955292 2.4627495-.4109116.2007866-.9111481.0060158-1.2688599-.2789497-.3577194-.2849655-.645134-.6589737-1.037468-.8940125-.6056137-.3628197-1.3902054-.3351364-2.038826-.0563812-.648613.278759-1.1777191.7801933-1.6235428 1.3275986-.3755493.4611168-.7095947.9686699-1.1831741 1.3283768s-1.1413727.5444145-1.6678696.2678947c-.5728455-.3008614-.7679253-1.1448708-.3852081-1.6665955.3827209-.5217247 1.2463531-.5890999 1.7053528-.1330414.1893082-.7164154.3786163-1.4328308.5679321-2.1492462 1.5565186.0975304 3.1130371.1950607 4.6695557.2925911.3509598.0219917.7290497.0373688 1.0249405-.1526375.2958832-.1900101.4213715-.6719666.1458511-.8904648-.1722031-.1365585-.4165955-.1168251-.6347504-.0902328-2.0450363.2492676-4.0900803.4985313-6.1351166.7477989-.6156616.0750427-1.2714157.1672668-1.7389488.5748062-.4617805.4025269-.646862 1.0385017-.7080498 1.6480293s-.0216637 1.229641-.1385498 1.8309784c-.11689.6013336-.4299469 1.2101746-.9838905 1.4717331-.5539474.2615547-1.3522224.0079727-1.4909973-.5886917-.0717316-.3084068.0358353-.6289444.0287247-.9454994-.0071106-.3165588-.2218056-.6855888-.5363808-.649498-.2247505.0257835-.3691101.2411995-.5060921.4212379-.4218788.5544815-1.0582962.9412689-1.7447624 1.0603981-.7930107.1376152-1.712326-.0396271-2.322361.485405-.5875244.505661-.5938683 1.434227-1.0893784 2.0303383-.3578339.4304848-.9848404.6332016-1.5130653.447876-.5282249-.1853218-.897625-.7724228-.7917557-1.3221092.1357384-.7047844.9273643-1.1761665.9669151-1.8928108.0260277-.4716301-.286644-.8868141-.5830994-1.2545433-.5056267-.6271858-1.0112534-1.2543716-1.51688-1.8815536-.2769165-.3434906-.5611572-.7012177-.6709709-1.1285439s.0051765-.9459877.3832817-1.1733742c.4857903-.2921486 1.145237.0439568 1.4298782.5341835.2846413.4902229.3125458 1.0810089.40065 1.6409912.0654831.4162064.1823959.8522415.4923515 1.1376228.3099518.2853813.866066.3353119 1.1234131.0017128-.2235031.3322983.1794586.7986717.5793076.7764053.3998451-.0222702.7159195-.3394127.960289-.6566772.2443695-.3172684.4792213-.6722717.8459206-.8332253.6129074-.2690201 1.4191017.2512932 1.4264183.9206047.6430397-.1003189 1.2940369-.2028809 1.8917046-.4604797.3080673-.1327782.6177216-.3097.9526329-.2904434.3349075.0192604.6742287.3556252.5436707.6646385.3320122.2441788.8112106-.0933533.943161-.4837952.1319466-.3904381.0783005-.8262138.2184982-1.213768.3027267-.8368607 1.3292542-1.1111145 2.2080727-1.2513008 2.700882-.4308281 5.5743332-.3589668 8.2334442-.9232483.8343277-.1770477 1.5301971-.8745155 2.3512344-1.0030518 1.2258607-.1919135 1.3462373 1.0568276.3380357 1.5394784z" fill="#2fcda8"/><path d="m48.6778603 51.0515785c-.0781326-.4496231-.2770996-.9024467-.6516075-1.1632347s-.9477005-.2629128-1.2471161.0814934c-.3952484-.5467415-1.0049286-1.0042953-1.6789398-.9750671-.6740112.0292244-1.307682.7318954-1.0759888 1.365509.1552124.4244576.5982933.6552696.9791374.898613s.7682076.624527.6983871 1.0710487c-.0697708.446228-.6048698.7027473-1.0461197.6063843-.441246-.0963631-.7837105-.4467049-1.0329552-.8233528s-.4343071-.7959061-.7157936-1.1491051c-.601078-.7542114-1.556797-1.1136475-2.4644661-1.4396324-.3461304-.1243134-.7107544-.2505646-1.0738564-.1921158-.3631058.0584526-.7135124.3714943-.6760597.7373619.050499.4932709.7374954.8262177.609993 1.3053894-.0993385.3733177-.6507378.4308243-.9628677.2032127-.31213-.2276154-.4568748-.6123199-.637043-.9540367-.180172-.3417168-.4630966-.6886635-.8488007-.7102165-.4993362-.0279007-.8452873.4920197-.9997749.9676781s-.2609062 1.0228195-.6721687 1.3073883c-.5398827.3735619-1.4198227-.0699615-1.4406662-.7261543-.3887711.4983139-1.0904083.7279968-1.6985893.5560417-.1278324-.214592-.2556629-.429184-.3834953-.6437721.0528927.3302841-.1727028.6821327-.4949245.7719002-.3222218.0897713-.6972466-.0947456-.822752-.4048004-.5031109.1367416-1.0232124-.148838-1.421875-.4848251-.3986607-.3359871-.7609653-.7434006-1.250164-.9236832-.4892006-.1802864-1.1629963-.0112-1.2989407.4921227-.393692-.7749786-.7873821-1.5499611-1.1810722-2.3249397-.3731728-.7345924-.9761505-1.5916672-1.7863045-1.4415665-.7240162.1341438-.9975834 1.2513428-.4174576 1.7048302.1273346.2156296-.1249523.5019722-.3745117.4812279-.2495613-.0207481-.4394646-.2392502-.5402927-.4684792-.1008263-.2292252-.141531-.4821892-.2514992-.7071762-.1994495-.4080582-.6346817-.6899147-1.088625-.7049942-.4539433-.0150833-.9069214.2372665-1.1330147.6311874-.0170765-.6803856-.4633503-1.4596329-1.1432495-1.4287224-.5003548.0227509-.8851814.4987297-.9773808.9910431s.0383148.996006.1678562 1.4798355c.2309284.8624954.5428143 1.8268051 1.3477402 2.2132263.5924797.2844315 1.3669624.1359596 1.8014545-.3571434s.4803944-1.2912025.0936661-1.8225937c.2330914.6413841.4661827 1.2827644.6992741 1.9241447.1777172.4890137.3554344.9780273.5331516 1.467041.1978168.544323.5757999 1.2018623 1.1468811 1.1054878.4601555-.0776558.681963-.6322632.6464005-1.0975685-.0355644-.4653053-.2375355-.9078369-.2552013-1.3741684-.0176678-.4663277.2548103-1.0103836.7208443-1.0346069.3934937-.0204544.6962452.3270645.9331379.6419258.6006737.7983704 1.2013454 1.5967407 1.8020191 2.3951111-.4691353.1527748-.6929588.7980385-.4191933 1.2085037.2737637.4104652.9554939.4517632 1.276804.077343.3825054-.4457321.2155457-1.2139969.6514301-1.6076889.4018955-.3629951 1.0341358-.1738091 1.5340652.0344048.8411465.3503304 1.682291.7006569 2.5234356 1.0509834.0835686.0348053.1671371.0696106.2507057.1044159.2029762.0845375.4059525.169075.6089287.2536125.3875198.161396.7874603.3254318 1.2072449.3275414.5898552.0029716 1.1681366-.3455772 1.4410057-.8685341s.2279739-1.1966629-.111866-1.678791c.4704132-.2465019 1.0685158.0907478 1.326252.5551033.2577324.4643555.2834129 1.0161438.3766975 1.5389748.0932884.5228271.2972031 1.0805054.7612915 1.3387184.6907501.3843269 1.6132431-.1535149 1.8819046-.8969269.2686615-.7434158.0551834-1.573143-.2516861-2.3016167-.1232185-.2925148-.2634125-.5871429-.2830582-.9039421-.0196457-.3167953.1149673-.6682358.4048119-.7976036.5133972-.2291527 1.0400238.382946 1.085659.9433098.045639.56036-.1592216 1.1293869-.0463982 1.6801643.1128235.5507812.8238869 1.0284615 1.2227173.6322021.2890625.9572487 1.3942528 1.5842552 2.3642273 1.3412895.9699669-.2429619 1.6490898-1.3169022 1.4527931-2.2973747.1566582.7824783.8918533 1.407074 1.5438538.8265343.6605263-.588131.9061813-1.7781678.7620049-2.6078721z" fill="#13aa80"/><path d="m93.6195984 58.649826s-11.9130554.7942047-12.6079712.7942047c-.694931 0-14.8913269.7942009-30.0804634.7942009s-34.1507301-1.0920334-34.1507301-1.0920334-3.577322 1.3151321-4.0274601 2.4511833c-.1915741.4834938.1925812 1.6976585 1.644805 1.5198326 4.8645124-.5956497 11.6152658-2.3826103 21.7413292-.8934708 10.1261063 1.4891243 8.5377007 14.7920265 21.1456871 8.8355217 12.6079826-5.9565506 16.8768349-6.0558014 27.3007317-8.4384232 7.3754501-1.6858177 9.813736-1.3471146 10.9677734-.7064247.3926392.2179832 1.4907455-.3793602 1.7287445-.7601967-.5956355-2.2833288-3.6624461-2.5043944-3.6624461-2.5043944z" fill="#f9b623"/><path d="m88.276001 47.6972923c-.0023804.0010986-.0047989.002079-.0071716.0031891.0023727-.0011215.0047912-.0020904.0071716-.0031891z" fill="#a0c600"/><path d="m76.2372589 51.0914192 1.2513351.0295067c.0316315-.1621017.0752258-.3234558.1198578-.4798164-.4641265-.2947541-1.1721954-.0622292-1.3711929.4503097z" fill="#2fcda8"/><path d="m87.3590775 48.0969353c-.5480881-.0537605-.6503448-.8304024-1.0730515-1.1833878-.2918243-.2436981-.7256851-.2554131-1.0810394-.1202011-.3553314.1352119-.6477509.3946838-.920372.6597061-.8034897.7811279-1.5122375 1.6595993-2.1058121 2.6100769-.1859131.2977104-.3647842.6075859-.6264572.8414955-.2616882.2339096-.6289673.3825417-.9671402.288517-.2620163-.0728645-.4641266-.2748909-.6874313-.4301949-.2232666-.1553078-.5217972-.2674103-.7618713-.1395912-.2802353.1491928-.322731.5293236-.3047104.8462601.018013.3169365.0468521.6777-.1723709.9073067-.3192291.3343697-.933197.0841179-1.1204071-.3389969-.0524216.5410042.110466 1.1023979.491684 1.489666.6094818.6191673 1.7286148.6641502 2.3440323.0508881.3054886-.304409.4697571-.7179527.6798172-1.094574.2101135-.3766251.5068207-.7481575.9262314-.8486366.3630753-.0869827.7703171.0428848 1.1045532-.1234856.3855972-.1919327.497467-.6790771.7494812-1.0283775.4042969-.5603714 1.2593613-.7315598 1.8482285-.3700142.1410446-.7608452.2820816-1.5216942.4231262-2.2825394-.0600967.3957825.4262466.6871033.8208847.6198044.3735199-.0637131.6762772-.320961.987793-.5399666-.1761934.1105957-.353348.2060394-.5551683.186245z" fill="#2fcda8"/><path d="m96.1341858 50.1049004c-.1664734-.4283676-.3329391-.856739-.4994049-1.285099-.1395264-.3590012-.2943344-.7383194-.6071091-.9631004-.3127441-.2247925-.8335266-.2019615-1.0056305.1426239-.1609726.3223801.0522232.7359123-.0994644 1.0627594-.171463.3693848-.7374573.3915024-1.0480652.1281052-.3106155-.2633972-.4159775-.6948242-.4564972-1.1000519-.0405121-.4052315-.0364456-.825592-.1964264-1.2001038-.1600037-.3745003-.5493851-.6937904-.9477844-.6093674-.7298203.1546555-.7884369 1.3900757-1.5195312 1.5384293-.1532516.0310936-.3057327.0044212-.4581451-.0379982.2481003.2362404.3650131.6194305.5541153.9240379.1843491.2969513.4545288.5289154.7203369.7558861.1290512.1101913.25811.2203827.3871613.3305855.6637421.5667496 1.494133 1.1723862 2.3289185.9176674.2560349-.0781212.4818954-.2327538.7318649-.3284721.2499695-.0957298.5547485-.1229286.7668839.0403175.3957825.3045883.2273102 1.0494957.6581573 1.3020935.3353729.1966248.7842102-.1103897.8793716-.4873314.0951308-.3769418-.0479279-.7686234-.1887513-1.1309815z" fill="#2fcda8"/><path d="m87.9142456 47.9106903c.1163406-.07304.2322845-.1525574.3545837-.2102089-.1058273.0497437-.2079544.1088486-.3017883.1730232-.0176926.0120888-.0351944.0248108-.0527954.0371857z" fill="#a0c600"/><path d="m80.6392288 44.9985809c-.4159088-.0787811-.8509521-.0118332-1.2633896-.1071777-.5388031-.1245651-.9779587-.5098572-1.4915543-.7148857-.4083633-.1630135-.8526688-.2078781-1.2902451-.251133-2.0719299-.2048531-4.3473969-1.5198975-6.2814331-.7489014-1.5794373.6296463-3.3459244.781147-5.0095139.4296341-.6825104-.144207-1.4319267-.3624229-2.0439568-.0277023-.4554138.249073-.7264328.758709-1.1881371.9959106-.5598106.2876015-1.2319984.1041527-1.8466682-.0311279-1.7464294-.3843651-3.5547142-.3248863-5.3412209-.403698-1.7865067-.078804-3.740406-.2144241-5.2831039-1.1187859-2.2971344.3427849-4.5943108.6855659-6.8914413 1.028347-.9331779.1392479-1.8678055.2786484-2.8096504.3346863-1.0754509.0639877-2.1542892.0189285-3.2313232.0461159-.427433.010788-.8545609.0329628-1.2812042.0616989-2.5921898.1746407-5.1679306.5925064-7.6823883 1.2463188-.4610901.1198921-.9800301.2985802-1.1589928.7401047-.196825.4856033.1558228 1.0535622.6281738 1.2804337.4723091.22686 1.0213833.2029266 1.5445461.1741676 1.1979275-.0658569 2.4653625-.1546669 3.4490871-.8414307.385994-.2694664.7095604-.6201019 1.0934448-.8926048 1.3141975-.9329987 2.7367973-.4628716 4.1981506-.3420334 1.7209129.1423187 3.435318.3520546 5.1491051.5614929 2.4018784.2935333 4.8037567.5870743 7.2056808.8806076.7651672.0935173 1.5620346.1984177 2.2023735.6275787.5263748.3527679.9764214.9825249 1.6090164 1.0190277.5146942-.5704308 1.2878685-.8174095 2.0229912-1.0408821 1.0443039-.3174744 2.0885849-.6349487 3.1328659-.9524231.5679932-.1726723 1.2284355-.333168 1.7183609.0021019.4350014.2976761.5731392.8873253.9659958 1.2387047.5030174.4498825 1.2651062.3945961 1.9349403.3124275 2.6515846-.3252487 5.3180351-.6535568 7.8775826-1.4186363 1.1183701-.3342934 2.2185669-.7524109 3.3720551-.9311104 1.1534958-.178688 2.3955002-.0955658 3.3900528.5154533.4532089.2784424.8716736.6700439 1.3999634.7321739.4832153.0568275.9628906-.1862221 1.3062973-.5308838.3434372-.3446732.5741959-.7828979.7997971-1.2139854.1962968-.3750494-.4903487-.5808027-.9062575-.6595839z" fill="#2fcda8"/><path d="m84.4258804 54.2203903c.8074493-.242527 1.4797974-1.0037613 2.3183823-.9167633.5308609.0550728 1.2792358 2.3591461 1.779686 2.173687.2562485-.0949593 1.3341904-.4849396 1.5968704-.5603065.4446793-.1275787-.2592087-1.5128555.1196365-1.247364.7091141.4969368 1.6305237.7042236 2.4700241.492054.8395081-.2121735 1.5706787-.862339 1.817627-1.6922798.1928711-.6481895.0824127-1.3815041-.2994385-1.9396553s-1.0291672-.9277992-1.7044067-.9651146c-.9521255-.0526161-1.847702.5142593-2.8012772.5130768-.690155-.0008545-1.4124832-.2954178-2.0469131-.023716-.533699.2285652-.8456039.8003998-1.3533249 1.0819931-1.2290268.6816406-3.2950516-.5789299-4.2070541.8841133-.8141022 1.305992 1.1819305 2.5391616 2.3101882 2.2002753z" fill="#2fcda8"/><path d="m94.8539886 58.2963333c-.6840897-.4213982-1.4811478-.6174202-2.2828751-.5643082-2.9238358.1936569-10.9913177.7245827-11.5594864.7245827-.694931 0-14.8913269.7942047-30.0804634.7942047-13.290493 0-29.4692726-.8360863-33.3063316-1.045105-.5617008-.0305977-1.1170673.1235542-1.5827312.4391899-1.7113237 1.1599503-5.5180283 3.95924-1.6443224 3.4849091 4.8645124-.5956535 11.6152658-2.3826103 21.7413292-.893486 10.1261063 1.4891396 8.5377007 14.7920456 21.1456871 8.8355179 12.6079826-5.9565201 16.8768349-6.0558014 27.3007317-8.4384155 7.3754501-1.6858063 10.4269943-.8369408 11.5810394-.1962395.3926315.2179718.8882141.0806923 1.1262131-.3001328-.343278-1.315979-1.5109797-2.2692184-2.4387904-2.8407173z" fill="#ffc94f"/><path d="m94.922142 42.0119476c0 .9471092-.5828094 1.7276611-1.6339645 2.3624954-.1977386.1144676-.405899.2289314-.6244125.333046-.2289963.1040459-.4683456.2081604-.7181168.3122063-.5099487.1977425-1.071991.3746529-1.6964035.5412064-.4579315.1248817-.9575272.2393494-1.4778976.3433952-.1769028.0416718-.3538132.0728607-.5307236.1041145-.5411987.1040459-1.1135941.1977425-1.7068253.2810173-3.5697174.5203705-8.0448837.7805557-13.0092239.9054375-1.6548004.0416069-3.361557.0728607-5.110054.0936317-1.1552048.0104179-2.3416595.0208359-3.5280533.0312538-2.9765625.020771-6.0259132.020771-9.0648537.031189-5.8177528.0208321-11.6250229.0520248-16.9328232-.0416069-.322628-.0104179-.6348343-.0208359-.9470444-.0312538-.4163208 0-.8221588-.0103531-1.2280617-.020771-.1769104-.0104179-.3642998-.0104179-.5412064-.0208359-.8950195-.0208359-1.769268-.0624428-2.6330338-.0936928-.3954849-.020771-.7805519-.031189-1.1760368-.0520248-.1457214-.0104179-.2914391-.020771-.4475117-.031189-.2914371-.0104179-.5828094-.0312538-.8742466-.0416718-.3226261-.020771-.6452541-.0416069-.9574623-.062439-.353878-.031189-.69734-.0520248-1.0303192-.0832138-.0728607 0-.1353016-.0104179-.1977444-.0104179-.364296-.0312538-.707756-.0624428-1.0511551-.0936966-.6244812-.062439-1.2280617-.1248817-1.810873-.1873245-.343462-.0416069-.676506-.0832748-.9991322-.1248817-.7389469-.1040497-1.4362221-.2185783-2.0918922-.333046-.4475098-.0832748-.8741856-.1664886-1.2905045-.2705994-3.4968643-.7909737-5.5887585-2.0086174-5.5887585-3.8403282 0-.2913704.0104179-.5828094.031189-.8741837 0-.0936928 0-.1873245.0104179-.2810173.0208359-.2601852.0416698-.5203705.0832767-.7805557.1248837-1.0511551.364233-2.0918922.718111-3.1013794.0520248-.1457176.1040497-.2914352.1664906-.4371529.0208359-.0624428.0416698-.1144676.0728588-.1769104.0520248-.1457176.1144676-.3017883.1769714-.4475098.395422-.8741837.8741856-1.7172394 1.4465771-2.539402 4.8082047-6.8480721 16.3291798-11.5834179 36.7484512-11.5834179 10.6988182 0 18.7957268 1.1656227 24.7903862 3.1742382 6.0050735 2.0190353 9.8870087 4.8810635 12.1350403 8.2842979.1144638.1664886.2185135.3330421.3226242.4995346.0936279.1665535.1977463.3434601.2913742.5100136.0936966.1664886.1873245.343399.2705994.5099525.0936966.1769066.1769104.3538132.2497711.5307846.3954849.8741837.707695 1.7796211.9262695 2.6954765.0416031.1873245.0832748.374649.1248856.5619736.0416031.1873894.0728607.3747139.1040497.5620422.03125.1873245.062439.374649.0832748.5723915.0416718.2914352.0728607.5932274.0936966.8950195.0104141.1248817.0207672.2601852.0207672.385067.0208381.3434604.0312522.6869243.0312522 1.0407374z" fill="#fdc443"/><path d="m94.8909225 40.9711952c0-.1352997-.0103531-.2601852-.0207748-.385067-.0208359-.3017921-.0520248-.6035843-.093689-.8950195-.0208359-.1977425-.0520248-.385067-.0832825-.5723953-.031189-.1873245-.062439-.374649-.1040421-.5620384-.0416107-.1873245-.0832825-.374649-.1248856-.5619736-.2185822-.9158554-.5307846-1.8212929-.9262772-2.6954765-.0728531-.1769714-.1560669-.353878-.2497635-.5307884-.0832748-.1665535-.1769104-.3434601-.2705994-.5099487-.0936356-.1665535-.1977463-.3434639-.2913742-.5100174-.1041107-.1664886-.2081604-.3330421-.3226242-.4995308-1.654808.7285271-4.0693283 1.2488976-7.0146332 1.6131287h-.0103528c-.3122711.0312538-.6244812.0728607-.9471054.1144676-5.8489456.6348991-13.5816193.738945-21.7097778.7701988-2.2792168.0103531-4.5896263.0103531-6.9000969.020771-.6556702 0-1.3217583 0-1.9774284.0104179-1.1863937 0-2.3624306 0-3.5384712.0104179-13.5712624.03125-26.2161884-.1248856-31.5760136-2.4145203-.5723934.8221588-1.051157 1.6652184-1.446579 2.539402-.0625038.1457176-.1249466.3017921-.1769695.4475098-.0311909.0624428-.0520248.1144676-.0728607.1769066-.0624409.1457214-.1144657.2914391-.1664886.4371567-.3538799 1.0094872-.5932293 2.0502243-.7181129 3.1013794-.0416069.2601852-.0624409.5203705-.0832767.7805519-.0104179.0936966-.0104179.1873283-.0104179.2810211-.020771.2913742-.031189.5828094-.031189.8741837 0 1.8317108 2.0918941 3.0493546 5.5887585 3.8403244.4163208.1041145.8429947.1873283 1.2905045.2706032.6556702.1144676 1.3529472.2289963 2.0918941.333046.3226261.0416031.6556683.0832748.9991302.1248817.5828114.0624428 1.1863937.1248817 1.810873.1873245.343399.0312538.6868591.0624428 1.051157.0936966.0624409 0 .1248837.0104141.1977425.0104141.3329792.0311928.6764412.0520248 1.0303192.0832138.3122101.0208359.6348362.0416718.9574623.0624428.2914371.0104179.5828094.0312538.8742466.0416718.1560745.0104179.3017921.020771.4475098.031189.3954849.0208321.7805557.03125 1.1760406.0520248.8637657.03125 1.7380142.0728569 2.6330338.0936928.1769066.0104179.364296.0104179.5412025.0208359.4059029.0104179.8117447.020771 1.2280617.020771.3122101.0104179.6244202.0208359.9470444.0312538 5.3078041.0936279 11.1150742.062439 16.932827.0416031 3.0389366-.0104141 6.0882912-.0104141 9.0648537-.031189 1.1863861-.0104141 2.3728485-.0208321 3.5280533-.03125 1.7484894-.020771 3.4552536-.0520248 5.110054-.0936317 4.9643402-.1248817 9.4394989-.385067 13.0092239-.9054375.5932312-.0832748 1.1656189-.1769714 1.7068253-.2810173.1769104-.0312538.3538132-.0624428.5307236-.1041145.5203705-.1040459 1.0199661-.2185135 1.4778976-.3433952.6244125-.1665535 1.1864548-.3434639 1.6964035-.5412064.2497711-.1040459.4891205-.2081604.7181091-.3122063.2185211-.1041145.4266739-.2185783.6244202-.333046 1.0511551-.6348343 1.6339645-1.4153862 1.6339645-2.3624954-.0000003-.3538132-.0104144-.6972771-.0312503-1.0407372z" fill="#f9b623"/><path d="m85.3309402 34.9226646c.3565292-.3233757.241066-1.031517-.2579193-1.5816689-.3222885-.3553352-.7256165-.5575867-1.0669785-.5692482-.0899963-.0030708-.1878281-.0455933-.2599106-.1228752-.0575714-.061718-.1349182-.1152611-.2457809-.1516342-.1400757-.0459633-.2835312-.039959-.3730316.0423584-.1549454.1425285-.129837.4237099.0566101.6292725.0004501.0004997.0009079.0009956.001358.0014954.0767517.0840874.1330261.186039.1328354.2846718-.0006409.3293686.1600647.7222176.4637451 1.0570335.4989854.5501518 1.1925202.7339859 1.5490723.4105949z" fill="#ededed"/><path d="m29.921999 37.7264099c-.3186779-.3078156-.9620705-.1587257-1.437048.3330154-.3067818.3176079-.4680347.7003441-.4580021 1.0145798.0026512.0828476-.0304623.175293-.0970612.2461891-.0531902.0566292-.0976658.130928-.1243362.2349586-.0337048.1314545-.0194721.2628479.061573.3400459.1403236.1336555.3970585.093502.5745316-.0902328.0004292-.0004463.0008602-.0008926.0012913-.001339.072567-.0756035.1627884-.1334877.2533913-.1393051.3025551-.0194283.653614-.1909065.9426785-.4901733.4749774-.4917411.6016768-1.1399078.2829818-1.4477386z" fill="#dbd8dd"/><path d="m37.3343163 38.6336746c.4158745-.3771935.281189-1.2031937-.3008499-1.8449097-.375927-.4144745-.8463783-.6503906-1.2445526-.6639938-.1049728-.0035782-.2190971-.0531807-.3031654-.143322-.0671539-.071991-.157383-.1344452-.2866898-.1768723-.1633949-.0536156-.3307266-.046608-.4351158.049408-.1807365.1662483-.1514473.4942284.0660286.7340012.0005264.0005836.0010529.0011635.0015831.0017471.0895271.0980797.1551666.2170029.1549454.3320503-.0007477.3841858.1867027.8424225.5409241 1.2329597.5820349.6417161 1.3909987.8561479 1.8068923.4789315z" fill="#dbd8dd"/><path d="m35.7921333 41.6152229c-.1416512-.5432854-.9360809-.8065338-1.7744064-.5879593-.5414619.1411781-.9684563.4488373-1.1649513.795414-.0517998.0913773-.1486206.1695404-.2674522.2022934-.0949097.026165-.1920509.077198-.2895508.1721497-.1231995.1199722-.1945038.2715111-.1577644.4085045.0636177.2371826.3678589.3631516.6810951.2814827.0007591-.0001984.0015221-.0003967.0022812-.0005951.1283951-.0339127.2641945-.0369987.3660545.0164871.3401337.1786232.8330727.2247543 1.3432693.091732.8383217-.2185783 1.4030838-.8361931 1.261425-1.379509z" fill="#dbd8dd"/><path d="m40.7477417 34.830143c.4158745-.3771935.281189-1.2031937-.3008461-1.8449097-.3759308-.4144783-.8463821-.6503906-1.2445564-.6639938-.1049728-.0035782-.2190933-.0531807-.3031654-.1433258-.0671539-.071991-.1573792-.1344452-.2866898-.1768684-.1633949-.0536156-.3307228-.0466099-.4351158.049408-.1807365.1662483-.1514473.4942284.0660286.7340012.0005264.0005836.0010567.0011635.0015831.0017471.0895271.0980797.1551704.2170029.1549492.3320503-.0007515.3841858.1867027.8424225.5409203 1.2329597.582035.641716 1.3909987.8561477 1.8068923.4789314z" fill="#ededed"/><path d="m45.9644241 26.7481232c.3039207-.2756577.2054901-.8793049-.2198639-1.348278-.2747345-.3029022-.6185455-.4753094-.9095306-.4852505-.0767174-.0026169-.1601181-.038866-.2215576-.1047421-.0490761-.0526123-.1150169-.0982552-.2095184-.1292591-.1194077-.0391827-.2416954-.0340633-.3179817.0361061-.1320839.1214962-.1106796.3611889.0482521.536417.0003853.0004253.0007706.0008507.0011559.001276.0654297.0716782.1133995.1585884.1132393.2426662-.0005493.2807655.1364441.6156483.3953094.9010582.4253577.4689713 1.0165557.6256791 1.3204955.3500062z" fill="#ededed"/><path d="m83.9186249 38.1297607c-.4912796-.0348396-.933136.5514488-.9868927 1.3095207-.0347214.4896278.1010513.9308777.3339005 1.1914978.0613937.0687065.0991592.1711197.0930099.2790718-.0049057.0862236.010231.1812859.0617599.2889748.0651016.1360741.1710205.2378845.2951813.2458191.2149811.0137367.405098-.2037315.4251862-.4869804.0000534-.0006866.0000992-.0013733.0001526-.0020599.0078659-.1162262.0434341-.22995.1164932-.2995796.2439575-.2325134.4207153-.6292191.4534302-1.0905685.0537643-.758072-.3009186-1.4008523-.7922211-1.4356958z" fill="#dbd8dd"/><path d="m44.9608917 41.8524818c-.2838287-.4844284-1.1198883-.52211-1.8673859-.0841446-.4827957.2828751-.8102303.6949043-.9052505 1.0818138-.0250473.102005-.0970116.2035179-.2024879.2673035-.08424.0509491-.1638794.126442-.2319374.2442932-.0860023.1489143-.1134834.3141212-.0409317.4359932.1256218.2110062.4526329.2496414.7319298.0859985.000679-.0003967.001358-.0007935.0020332-.0011902.1143684-.0674934.2442284-.1073341.3567848-.0835114.3758507.0795746.8628044-.0098572 1.3177185-.2763977.7474976-.4379653 1.1233711-1.1857108.8395271-1.6701583z" fill="#dbd8dd"/><path d="m72.5141449 38.5691223c-.3870316-.4067345-1.2095795-.2523384-1.8371964.3448753-.405365.3857307-.6299667.8616905-.6340408 1.2600746-.0010681.1050301-.0479279.2203026-.1360397.3065071-.0703659.0688553-.1306381.1605492-.16996.2908363-.0496979.1646309-.0386887.3317451.0597916.4338074.1705246.176712.4977112.1395874.7322159-.0835571.0005722-.0005417.0011368-.0010834.001709-.0016251.0959091-.0918465.2132339-.1603127.3282547-.1628418.3840866-.0084343.8377151-.2067909 1.2196732-.5702477.6276167-.5972136.8226393-1.4110716.4355925-1.817829z" fill="#dbd8dd"/><path d="m67.2754822 42.8599472c.2077637-.521595-.276268-1.2043343-1.0811234-1.5249176-.5198441-.207058-1.0461121-.2121849-1.4097366-.0493927-.095871.042923-.2201767.0485306-.3353119.0045128-.0919571-.0351486-.2004547-.05159-.3352509-.0328598-.17033.0236588-.3175545.1034966-.3691177.2356224-.0892715.2287674.0811958.510498.3819275.6302834.0007324.0002899.0014572.0005798.0021896.0008698.1235275.048748.2347565.1267166.2851257.2301559.1681824.3454132.5379715.6746216 1.0277939.8697243.8048554.3205833 1.6257401.157627 1.8335038-.3639985z" fill="#dbd8dd"/><path d="m53.0853386 42.7627563c.2077599-.5215988-.2762718-1.2043343-1.0811272-1.5249176-.5198441-.2070618-1.0461082-.2121849-1.4097366-.0493965-.0958672.0429268-.2201729.0485306-.3353119.0045128-.0919609-.0351486-.2004547-.0515862-.3352509-.0328598-.17033.0236588-.3175507.1034966-.3691139.2356262-.0892715.2287674.0811958.510498.3819237.6302795.0007286.0002899.001461.0005836.0021896.0008736.1235237.048748.2347565.1267166.2851257.2301521.1681862.3454132.5379715.6746216 1.0277939.8697243.8048554.3205872 1.6257401.1576272 1.8335076-.3639946z" fill="#dbd8dd"/><g fill="#ededed"><path d="m74.5116882 25.9538574c-.1334381-.5453625-.9238052-.8205681-1.7653275-.6146641-.5435333.132988-.9751282.4341698-1.1768265.7777443-.0531693.0905838-.1511612.1672764-.2704773.1982327-.0952911.0247326-.1931915.074295-.2921066.1677608-.125.1180992-.1985779.2685471-.1639099.4060783.0600281.2381172.3623352.3686619.6767654.2917271.0007629-.0001869.0015259-.0003738.0022888-.0005608.128891-.0319691.2647247-.0330086.3657608.0220108.3374023.1837349.8295898.237299 1.3417358.1119881.84153-.205902 1.4155428-.8149261 1.282097-1.3603172z"/><path d="m64.7754669 31.5527821c.3018036-.4734364-.0457458-1.2347698-.7762833-1.70047-.4718437-.3007908-.9878273-.4044247-1.3755188-.3126431-.1022072.0242023-.2253647.0064182-.3302155-.0583897-.0837479-.0517559-.1872406-.088232-.3231621-.0950909-.1717453-.0086727-.3313179.0421696-.406723.1622963-.1305504.2079906-.0158882.5166702.2570763.6906757.0006599.0004234.0013237.000845.0019875.0012665.1122017.0710297.2068558.168457.2369537.2794991.1004944.3708076.40205.7634678.8466454 1.0468884.7305412.4657021 1.567421.4594269 1.8692398-.0140323z"/><path d="m81.3758011 27.3886547c-.1005783-.4110641-.696312-.6184959-1.3306046-.4632988-.4096832.1002407-.734993.3272533-.8870239.5862198-.0400772.0682755-.1139374.1260834-.2038651.149416-.0718231.0186424-.1456223.0559978-.2201767.1264496-.0942154.089016-.1496811.2024136-.1235504.306078.0452499.1794796.2731094.2778759.5101089.2198868.0005798-.0001411.001152-.0002823.0017319-.0004215.0971451-.0240974.1995316-.0248814.2756882.0165901.2543106.1384888.6252975.1788616 1.011322.0844097.6342927-.1551972 1.0669556-.6142446.9663697-1.0253297z"/><path d="m70.4073105 35.0170517c.549881-.1133919.8538208-.8931541.6788559-1.7416534-.1130066-.5480347-.3981934-.9903603-.7341537-1.2044983-.0885773-.0564499-.1616364-.1571827-.1882019-.2775478-.0212326-.0961342-.0671768-.1957855-.1569595-.2980576-.1134491-.1292362-.2611008-.2082729-.3998108-.1786613-.2401505.0512772-.3816757.3486042-.3162994.6656399.0001602.0007687.0003204.0015392.0004807.0023079.0272293.1299744.0232925.2657547-.0353851.3647118-.195961.330452-.2674942.8203506-.1610184 1.3367348.1749723.8484991.7625807 1.4444197 1.3124922 1.331024z"/><path d="m45.0504265 33.4566269c.549881-.1133881.8538246-.8931541.6788559-1.7416534-.1130066-.5480347-.3981934-.9903584-.7341537-1.2044983-.0885773-.0564499-.1616325-.1571808-.1882019-.2775459-.0212288-.0961342-.0671768-.1957855-.1569595-.2980576-.1134453-.1292362-.2611008-.2082729-.399807-.1786613-.2401543.0512772-.3816757.3486023-.3162994.6656399.0001602.0007687.0003166.0015373.0004768.0023079.0272293.1299744.0232964.2657528-.0353813.3647118-.195961.3304501-.2675018.8203506-.1610184 1.3367367.1749686.8484991.762577 1.4444159 1.3124885 1.3310202z"/><path d="m53.7422295 29.5181808c-.0144882-.561264-.7283096-.9981537-1.5943718-.9758015-.5593796.0144386-1.0451202.2170143-1.3152313.5098743-.071209.0772133-.1832581.1313286-.3064232.1362209-.0983734.0039158-.2045708.031538-.3210945.1018467-.1472435.0888367-.2511139.2202091-.2464676.3619671.0080528.2454357.2757111.4372463.599308.428894.0007858-.000021.0015717-.000042.0023575-.000061.13274-.0038471.2656898.0240059.3527298.0992413.2906456.2512436.7602043.408186 1.287281.3945827.8660621-.022354 1.5563965-.4954718 1.5419121-1.0567645z"/><path d="m53.9857254 36.4084206c.1265526-.5470009-.4550858-1.1487579-1.2991409-1.3440399-.545166-.126133-1.0661621-.0516777-1.4010162.1641922-.0882759.0569191-.2103119.0812416-.3307762.05513-.0962143-.0208473-.2059479-.0207062-.3363686.018177-.1647987.0491257-.2982635.1502914-.3292732.2886925-.0536766.2396317.1574059.4923668.4727821.5653343.0007668.0001755.0015297.0003548.0022964.0005302.1294746.0295219.2512093.0897903.3166275.1844254.2184525.3160324.6337357.5855865 1.147419.7044334.8440552.195282 1.6308861-.0898475 1.7574501-.6368751z"/><path d="m57.7722473 35.0170517c.549881-.1133919.8538246-.8931541.6788559-1.7416534-.1130066-.5480347-.3981934-.9903603-.7341576-1.2044983-.0885735-.0564499-.1616287-.1571827-.1881981-.2775478-.0212288-.0961342-.0671768-.1957855-.1569595-.2980576-.1134453-.1292362-.2611008-.2082729-.399807-.1786613-.2401543.0512772-.3816757.3486042-.3162994.6656399.0001602.0007687.0003166.0015392.0004768.0023079.0272293.1299744.0232964.2657547-.0353813.3647118-.195961.330452-.2675018.8203506-.1610184 1.3367348.1749688.8484991.7625771 1.4444197 1.3124886 1.331024z"/><path d="m67.8922424 37.6119156c.2244644-.5146294-.2373123-1.2126083-1.0314178-1.5589676-.5129013-.2237053-1.0387268-.2457886-1.4074173-.0948029-.0971985.039814-.2216187.0414085-.3352737-.0062943-.0907822-.0380936-.1986923-.0580254-.3340225-.0436478-.1710052.0181541-.3207245.0932083-.3765182.2236061-.0965958.225769.0647049.5128479.361412.6422615.0007248.0003128.001442.0006256.0021591.0009422.1218948.0527039.2305527.1342163.277565.2392235.1569672.3506546.5159454.6916084.9992294.9023972.7941055.3463555 1.619812.2099382 1.844284-.3047179z"/><path d="m58.3914223 37.1254272c-.4964027-.2623177-1.226963.1459656-1.6317368.9119453-.2614365.4947357-.3227806 1.017437-.1997871 1.3963814.0324287.0999031.0247192.2240982-.031353.3338699-.0447769.0876808-.0727196.1937943-.0685043.3298225.0053177.1718826.0689621.3267937.1948204.3921852.2179146.1132088.5162506-.0261688.6674919-.3123703.0003662-.0006943.0007362-.0013885.0011024-.0020828.0616722-.1176109.1510811-.2198715.2593117-.2588959.3614082-.1303024.7282562-.4627838.9745941-.9289474.4047737-.7659797.3304901-1.5995749-.1659393-1.8619079z"/></g><path d="m79.3754578 40.2095909c.3124924-.4664497-.0176468-1.2354889-.7374039-1.7176857-.4648895-.3114395-.9783783-.4267807-1.3680573-.3438416-.1027298.0218735-.2254562.0012932-.328804-.0658836-.08255-.0536461-.1851883-.0924683-.3209152-.102417-.1715012-.0125732-.3321915.034626-.4103088.1530075-.1352463.2049675-.0276337.5161743.2413025.6963425.0006561.0004387.0013046.0008736.0019608.0013123.1105576.0735626.2029724.1731148.2305374.2848129.0920334.3729973.3845825.7724152.8226166 1.0658722.7197646.482193 1.5565642.4949531 1.8690719.0284805z" fill="#dbd8dd"/><path d="m27.650589 33.3740845c.2335033-.3485451-.0131893-.9231949-.5510139-1.2835045-.347374-.2327194-.7310734-.3189068-1.0222511-.2569313-.0767651.0163441-.1684666.000967-.2456913-.0492287-.0616837-.0400867-.1383762-.0690956-.2397976-.0765285-.1281528-.0093975-.2482243.0258713-.3065948.1143303-.1010628.1531582-.020649.3857021.1803074.5203304.0004883.0003242.0009747.0006523.0014629.0009766.0826149.0549698.1516685.1293602.1722641.2128258.0687714.2787132.2873745.5771713.614687.7964478.5378264.3603133 1.1631106.3698462 1.3966273.0212821z" fill="#ededed"/><path d="m21.7065086 34.1684532c.3713226.1138191.8147259-.2583885.9903564-.8313599.1134377-.3700752.0872936-.7331886-.0454464-.9747047-.0349998-.0636711-.0458755-.1490555-.0220203-.2309151.0190449-.0653839.0242615-.1411114.0037479-.2329884-.0259171-.1160965-.089262-.2130928-.1832638-.2411919-.1627541-.048645-.3473721.0847683-.4129963.2988548-.0001602.0005207-.0003185.0010395-.0004787.0015583-.0266418.0879135-.0741234.1689949-.1425953.2095566-.2286549.1354294-.4347668.4089394-.5416546.7576408-.1756305.5729715-.0169887 1.1297228.3543511 1.2435495z" fill="#ededed"/><path d="m76.9141235 44.5169296c.3124924-.4664497-.0176544-1.2354889-.7374115-1.7176819-.4648819-.3114433-.9783783-.4267845-1.3680496-.3438454-.1027374.0218735-.2254562.0012932-.328804-.0658836-.08255-.0536461-.1851883-.0924683-.3209152-.1024132-.1715088-.0125771-.3321915.0346222-.4103088.1530037-.1352463.2049675-.0276337.5161743.2413025.6963425.0006485.0004387.0013046.0008774.0019531.0013123.1105652.0735626.2029724.1731186.2305374.2848167.0920334.3729973.3845901.7724152.8226242 1.0658684.7197571.4821968 1.5565643.494957 1.8690719.0284805z" fill="#dbd8dd"/><path d="m76.4698792 33.9020958c.549881-.1133919.8538284-.8931541.6788559-1.7416534-.1130066-.5480347-.3981934-.9903584-.7341537-1.2044983-.0885773-.0564499-.1616364-.1571827-.1882019-.2775478-.021225-.0961342-.0671768-.1957836-.1569595-.2980576-.1134491-.1292362-.2611008-.2082729-.3998032-.1786594-.2401581.0512753-.3816757.3486023-.3162994.665638.0001526.0007706.0003128.0015392.000473.0023079.0272293.1299763.0233002.2657547-.0353851.3647137-.1959534.3304501-.2674942.8203487-.1610107 1.3367329.1749647.8484991.7625731 1.4444197 1.3124846 1.331024z" fill="#ededed"/><path d="m51.133625 26.6807137c.4547577-.0937748.7061272-.7386532.5614243-1.4403744-.0934601-.4532337-.3293114-.8190422-.6071587-.9961395-.0732536-.0466843-.1336708-.1299915-.1556435-.2295341-.0175591-.079504-.0555573-.1619186-.1298103-.2464981-.0938187-.1068821-.2159309-.172245-.3306465-.1477566-.1986122.042408-.3156509.2882996-.2615814.5504951.0001297.0006351.0002594.0012722.0003929.0019073.022522.1074924.019268.2197838-.0292625.3016243-.1620598.2732868-.2212257.678442-.1331635 1.1054993.1447029.7017231.6306648 1.1945572 1.0854492 1.1007767z" fill="#ededed"/><path d="m66.2107468 26.9198589c.4604568-.0949516.7149811-.7479191.5684662-1.4584408-.094635-.4589176-.3334427-.8293133-.6147766-1.0086327-.074173-.0472698-.1353455-.1316204-.1575928-.2324142-.0177765-.0805016-.0562515-.1639481-.1314392-.2495899-.0950012-.1082211-.2186432-.1744041-.3347931-.1496086-.2011032.0429401-.3196106.2919159-.2648621.5573997.0001297.0006428.0002594.0012875.0003967.0019321.0228043.108839.0195084.222538-.0296326.3054066-.164093.2767143-.223999.6869507-.1348267 1.1193638.146515.7105237.6385728 1.2095395 1.0990602 1.114584z" fill="#ededed"/><path d="m56.5509529 23.7432098c.0618362-.3775654-.3603249-.7610035-.9429283-.8564224-.376297-.0616283-.7272758.0120697-.9454193.1736889-.0575104.0426121-.1394157.0645561-.2224884.0521336-.066349-.0099163-.1409607-.004961-.2279243.0272541-.1098862.0407028-.196167.115406-.2111206.2108936-.0258904.1653252.1288338.3278389.3465233.3634911.0005264.0000858.0010567.0001717.0015831.0002594.0893517.0143414.1747971.0499325.2234764.1113892.1625366.2052288.4568672.3701363.8114319.4282055.5826034.0954188 1.1050262-.1333104 1.1668662-.510893z" fill="#ededed"/><path d="m59.6299133 25.2378273c-.1537514-.3916264-.76828-.5167828-1.3725815-.2795315-.3903084.1532364-.6806297.4201584-.7959824.6955204-.030407.0725975-.0954895.1393738-.1809921.1743202-.0682869.0279179-.1360245.0745354-.2001152.1538601-.0809898.1002331-.1205521.2193317-.0810242.3179913.0684471.1708145.3060303.2374611.5318222.1488132.0005493-.0002155.0010986-.0004311.0016441-.0006466.092514-.0366592.1932831-.0510445.2738304-.0203133.2689781.1026287.6398544.0930767 1.0076256-.0513115.6043016-.2372512.9695359-.7470588.8157731-1.1387023z" fill="#ededed"/><path d="m90.8087234 37.4466171c-.0667572-.3860283-.6037521-.6154709-1.1994171-.5124626-.3847275.0665321-.6996002.2555084-.8564682.4850121-.0413513.0605049-.1132355.1091995-.1977768.1250305-.0675201.0126495-.1380463.0424614-.21138.1027832-.0926743.0762215-.1511002.1774254-.1335602.2748222.0303802.1686325.2345657.2739906.4571304.2355003.0005417-.0000916.0010834-.0001869.0016251-.0002785.0912476-.0160789.1858521-.0102921.2535553.0328484.2260666.1440659.5661163.2049332.928627.1422424.595665-.1030082 1.0244218-.4994506.9576645-.885498z" fill="#dbd8dd"/><path d="m31.8475437 27.340992c-.079092-.4573574-.7153149-.7291985-1.4210453-.6071548-.4558201.0788269-.828867.302721-1.0147228.5746307-.0489941.0716896-.1341648.1293774-.2343235.1481361-.0799961.0149879-.1635532.0503044-.2504406.1217766-.1097965.0903053-.1790218.210207-.1582355.3256016.0359917.1997948.2779045.3246193.5415974.2790184.000639-.0001106.0012779-.0002213.0019188-.0003319.1081161-.0190487.2202015-.0121937.3004093.0389175.2678375.1706867.6707249.2428036 1.1002216.1685295.7057304-.1220436 1.2137165-.5917434 1.1346206-1.0491237z" fill="#ededed"/><path d="m22.8159981 38.9195328c.4220829-.0933113.6475391-.6969376.5035534-1.3482361-.0929985-.4206619-.3173866-.7580605-.578371-.919239-.0688076-.0424881-.126152-.119236-.1479225-.2116089-.017395-.0737762-.0538559-.1499901-.1240959-.2277412-.0887508-.0982513-.2032871-.1574783-.3097458-.1331635-.1843204.0421028-.2900143.2725449-.2362156.5158997.0001297.0005913.0002613.0011826.000391.0017738.0223885.099762.0208454.2043343-.0232449.2811584-.1472435.2565384-.1969547.6344681-.1093273 1.0308418.1439857.6512986.6028747 1.1036301 1.0249786 1.010315z" fill="#dbd8dd"/><path d="m39.8784904 27.0113182c-.0956726-.5532398-.8652763-.8820686-1.718956-.7344398-.5513802.0953522-1.002636.3661842-1.2274551.6950989-.0592651.0867176-.1622887.1564999-.2834473.1791897-.0967636.0181313-.1978378.0608521-.3029442.1473064-.1328125.1092377-.2165489.2542763-.1914062.3938637.0435371.2416782.3361664.3926735.6551361.3375111.0007744-.0001335.0015488-.000267.0023232-.0004005.1307831-.0230446.2663651-.0147514.3633881.0470753.3239899.2064705.8113365.293705 1.3308754.2038593.8536796-.1476289 1.4681625-.7157976 1.372486-1.2690641z" fill="#ededed"/><path d="m45.4375 38.0318108c-.0956764-.5532417-.8652763-.8820686-1.718956-.7344398-.5513802.0953522-1.002636.3661842-1.2274551.6950951-.0592651.0867195-.1622887.1565018-.2834473.1791916-.0967636.0181313-.1978416.0608521-.3029442.1473083-.1328125.1092339-.2165489.2542763-.1914062.3938599.0435371.2416801.3361664.3926735.6551361.337513l.0023232-.0004005c.1307831-.0230446.2663651-.0147514.3633881.0470772.3239861.2064705.8113365.293705 1.3308754.2038574.8536795-.147629 1.4681624-.7157976 1.372486-1.2690622z" fill="#dbd8dd"/><path d="m88.9733582 30.4670315c-.0709457-.4102707-.6416702-.6541233-1.2747421-.5446453-.4088898.0707111-.7435303.2715549-.9102478.5154705-.0439529.0643082-.1203537.1160583-.2102051.132885-.0717545.0134449-.1467133.045126-.2246552.1092377-.0984879.0810089-.1605911.1885662-.1419449.2920818.0322876.179224.2492981.2911987.4858398.2502918.0005722-.0000992.0011444-.0001984.0017242-.0002975.0969849-.0170879.197525-.0109386.2694778.0349102.2402649.1531143.6016693.2178059.9869461.1511784.6330797-.1094781 1.0887605-.5308209 1.0178072-.9411126z" fill="#ededed"/><path d="m33.2276764 34.4564972c.5482178-.1211624.8410912-.9051552.654129-1.751091-.1207581-.5463791-.412178-.984621-.7511406-1.1939812-.0893669-.055191-.1638412-.1548786-.192112-.2748547-.0225868-.0958233-.0699387-.1948147-.1611595-.295805-.1152649-.1276169-.2640228-.2045555-.402298-.1729832-.2394066.0546741-.3767014.3539734-.3068428.6700516.0001678.0007668.0003395.0015354.0005074.0023022.0290718.1295757.0270615.2653961-.0302124.3651772-.1912613.3331909-.2558575.8240547-.1420727 1.3388786.1869641.8459397.7829533 1.4334794 1.3312016 1.3123055z" fill="#ededed"/><path d="m80.2685394 24.9646568c-1.2384796 2.4665432-4.6312943 5.068388-9.5331345 7.4933243-.5411987.2601852-1.1135941.5307884-1.6964035.8013916-1.9254074.8638306-4.0380707 1.7068253-6.3172874 2.4873772-1.384201.4786987-2.8308411.9470444-4.319088 1.3841362-.4058418.1145287-.8117447.2394142-1.2280655.353878-3.0285187.8429947-6.2651978 1.6027145-9.6268234 2.2376137-4.1421165.770134-8.1593513 1.3009224-11.926815 1.5922928-.8326416.0624428-1.6652222.1144676-2.4665451.1561394-6.9729576.3538132-12.9260101-.1353035-17.0056858-1.394619.1248837-1.0511551.364233-2.0918922.718111-3.1013794.0520248-.1457176.1040497-.2914352.1664906-.4371529.0208359-.0624428.0416698-.1144676.0728588-.1769104.0520248-.1457176.1144676-.3017883.1769714-.4475098.395422-.8741837.8741856-1.7172394 1.4465771-2.539402.2810211-.3954849.5828114-.7909698.9158554-1.1760368 5.2661304-6.2131767 16.5997829-10.4073811 35.8325958-10.4073811h.6556702c10.3761883.0520249 18.2649364 1.2072926 24.1347179 3.1742382z" fill="#fff" opacity=".2"/><path d="m58.8813858 22.3212051c-.8638306-.1977425-1.7796822-.374649-2.7475624-.5307865h-.6556702c-19.2328148 0-30.5664673 4.1942043-35.8325958 10.4073811.1457176.770134.7701359 1.4153862 1.6131306 1.5715218 2.518631.4787636 5.7240582.6244202 9.335453.4475098.5307865-.031189 1.092762-.062439 1.6443825-.1040459 2.5185699-.1977425 5.1932716-.5516243 7.9616089-1.061573 2.2480278-.4266777 4.4023628-.9366913 6.4317513-1.4986668.2706032-.0728588.5412025-.1560726.8118057-.2393494.9990692-.2914371 1.9670105-.6036453 2.8828659-.9158535 1.5298538-.5203705 2.9348221-1.082346 4.2253914-1.6652203.385067-.1769066.7701378-.3642311 1.123951-.5307217 1.5506897-.7702007 2.8828659-1.5611076 3.934021-2.3624954 1.3425273-1.0095501.9158534-3.1430492-.7285329-3.5177002z" fill="#fff" opacity=".2"/><path d="m93.9257889 51.1514091c-.1563873-.3853874-.6307068-.50951-1.0399704-.5833855-.4053345-.0731773-.8161316-.1466713-1.2266693-.1140823-.4105988.0325203-.8278732.1836395-1.0991135.4936256-.2028275.2318535-.3311996.553463-.6142502.675045-.4376068.1880226-.9083633-.2227097-1.3845825-.2152138-.5602646.008831-.9728317.5833206-1.5291595.6499557-.2722473.0325851-.5422821-.0619354-.797699-.1617928-.2553558-.0998535-.5168152-.2082863-.7910385-.2049828-.3107452.0037498-.5655975.2293777-.8525238.325676-.2930832.0983315-.7432632.226265-.6559219.6455078.0398254.1910706.2237244.3254204.4144135.3671532.1906967.0416718.3888168.0090828.5812912-.0235023.6337509-.1075439 1.2675705-.215023 1.9013901-.3225632.2232132-.0378609.4516373-.0757828.6747894-.0373497.2231522.0383644.4439545.1683311.529007.3781433.1074753.2652664.0039368.6366768.2395401.7991638.1791306.1235504.4369049.0139122.5692825-.1588669.1323776-.1727142.1845932-.3922462.2820358-.5868111.3214798-.6422043 1.198143-.9341507 1.8404694-.6129837.4139709.207016.7205963.6204796 1.1699448.7315788.359726.0888634.7486649-.0427513 1.0355301-.2773361.2867966-.2345848.4841003-.5611496.6389618-.8978157.1257093-.2732694.2273405-.590431.1142729-.8691633z" fill="#2fcda8"/></svg>