<svg height="496pt" viewBox="-108 0 496 496" width="496pt" xmlns="http://www.w3.org/2000/svg"><path d="m160.03125 104v8h-40v-112h40zm0 0" fill="#ffce54"/><path d="m160.03125 134.871094v57.207031h-40v-80.039063h40zm0 0" fill="#fff"/><path d="m120.03125 176.078125v16h-40v-112.078125h40zm0 0" fill="#ffce54"/><path d="m40.03125 80h40v112.078125h-24c-8.800781 0-16-7.191406-16-16zm0 0" fill="#ffce54"/><path d="m40.03125 104v24.078125h-40v-48.078125h40zm0 0" fill="#ffce54"/><path d="m120.03125 71.921875v8.078125h-120v-24h120zm0 0" fill="#e6e9ed"/><path d="m279.953125 56v24h-119.921875v-24zm0 0" fill="#e6e9ed"/><path d="m239.953125 104v-24h40v48.078125h-40zm0 0" fill="#ffce54"/><path d="m199.871094 80h40.082031v96.078125c0 8.808594-7.191406 16-16 16h-24.082031zm0 0" fill="#ffce54"/><path d="m199.871094 176.078125v16h-39.839844v-112.078125h39.839844zm0 0" fill="#ffce54"/><path d="m40.03125 152v24.078125c0 8.808594 7.199219 16 16 16h167.921875c8.808594 0 16-7.191406 16-16v-48h40v104h-279.921875v-104h40zm0 0" fill="#e6e9ed"/><path d="m139.953125 272c24.320313 0 44 19.679688 44 44 0 24.238281-19.679687 44-44 44-24.242187 0-44-19.761719-44-44 0-24.320312 19.757813-44 44-44zm0 0" fill="#da4453"/><path d="m279.953125 232.078125v67.769531l-140 140-139.921875-139.917968v-67.839844h279.921875zm-96 83.921875c0-24.320312-19.679687-44-44-44-24.242187 0-44 19.679688-44 44 0 24.238281 19.757813 44 44 44 24.320313 0 44-19.761719 44-44zm0 0" fill="#ed5565"/><path d="m279.953125 355.839844v124.160156c0 8.808594-7.191406 16-16 16h-124v-.160156zm0 0" fill="#ed5565"/><path d="m279.953125 299.839844v56l-140 140-139.921875-139.917969v-56l139.921875 139.917969zm0 0" fill="#e6e9ed"/><path d="m263.9375 480c0 8.808594-7.195312 16-16 16h16.015625c8.808594 0 16-7.191406 16-16v-124.160156l-16.015625 16.015625zm0 0" fill="#da4453"/><path d="m263.9375 355.839844v16.015625l16.015625-16.015625v-56l-16.015625 16.015625zm0 0" fill="#ccd1d9"/><path d="m263.9375 232.078125v83.777344l16.015625-16.015625v-67.761719zm0 0" fill="#da4453"/><path d="m139.953125 495.839844v.160156h-123.921875c-8.871094 0-16-7.191406-16-16v-124.078125zm0 0" fill="#ed5565"/><path d="m263.9375 128.078125h16.015625v104h-16.015625zm0 0" fill="#ccd1d9"/><path d="m263.9375 80h16.015625v48.078125h-16.015625zm0 0" fill="#f6bb42"/><path d="m263.9375 56h16.015625v24h-16.015625zm0 0" fill="#ccd1d9"/><path d="m240.03125 80h8v48.078125h-8zm0 0" fill="#f6bb42"/><path d="m0 80h8v48.078125h-8zm0 0" fill="#f6bb42"/><path d="m200.015625 80h8v112.078125h-8zm0 0" fill="#f6bb42"/><path d="m160.015625 80h8v112.078125h-8zm0 0" fill="#f6bb42"/><path d="m80.015625 80h8v112.078125h-8zm0 0" fill="#f6bb42"/><path d="m40.03125 128.078125v48c0 5.875 3.242188 10.96875 7.984375 13.761719v-109.839844h-7.984375zm0 0" fill="#f6bb42"/><path d="m120.015625 0h8v112.039062h-8zm0 0" fill="#f6bb42"/><path d="m120.015625 112.039062h8v80.039063h-8zm0 0" fill="#e6e9ed"/><g fill="#f6bb42"><path d="m8 95.992188h-7.96875v16h7.96875c4.425781 0 8-3.578126 8-8 0-4.425782-3.574219-8-8-8zm0 0"/><path d="m48.03125 95.992188h-8v16h8c4.425781 0 8-3.578126 8-8 0-4.425782-3.574219-8-8-8zm0 0"/><path d="m48.03125 143.992188h-8v16h8c4.425781 0 8-3.578126 8-8 0-4.425782-3.574219-8-8-8zm0 0"/><path d="m80.03125 120.054688h-8c-4.421875 0-8 3.578124-8 8 0 4.425781 3.578125 8 8 8h8zm0 0"/><path d="m80.03125 168.054688h-8c-4.421875 0-8 3.578124-8 8 0 4.425781 3.578125 8 8 8h8zm0 0"/><path d="m88.03125 95.992188h-8v16h8c4.425781 0 8-3.578126 8-8 0-4.425782-3.574219-8-8-8zm0 0"/><path d="m88.03125 143.992188h-8v16h8c4.425781 0 8-3.578126 8-8 0-4.425782-3.574219-8-8-8zm0 0"/><path d="m120.03125 128.078125v-8.023437h-8c-4.421875 0-8 3.578124-8 8 0 4.425781 3.578125 8 8 8h8zm0 0"/><path d="m120.03125 168.054688h-8c-4.421875 0-8 3.578124-8 8 0 4.425781 3.578125 8 8 8h8zm0 0"/><path d="m128.03125 15.945312h-8v16h8c4.425781 0 8-3.578124 8-8 0-4.425781-3.574219-8-8-8zm0 0"/><path d="m128.03125 63.945312h-8v16h8c4.425781 0 8-3.578124 8-8 0-4.425781-3.574219-8-8-8zm0 0"/><path d="m160.03125 48v-7.992188h-8c-4.421875 0-8 3.578126-8 8 0 4.425782 3.578125 8 8 8h8zm0 0"/><path d="m160.03125 96v-7.992188h-8c-4.421875 0-8 3.578126-8 8 0 4.425782 3.578125 8 8 8h8zm0 0"/><path d="m168.03125 95.992188h-8v16h8c4.425781 0 8-3.578126 8-8 0-4.425782-3.574219-8-8-8zm0 0"/><path d="m168.03125 143.992188h-8v16h8c4.425781 0 8-3.578126 8-8 0-4.425782-3.574219-8-8-8zm0 0"/><path d="m192.03125 120.054688c-4.421875 0-8 3.578124-8 8 0 4.425781 3.578125 8 8 8h7.839844v-16zm0 0"/><path d="m192.03125 168.054688c-4.421875 0-8 3.578124-8 8 0 4.425781 3.578125 8 8 8h7.839844v-16zm0 0"/><path d="m208.03125 95.992188h-8.039062c-.039063 0-.082032.023437-.121094.023437v15.953125c.039062 0 .082031.023438.121094.023438h8.039062c4.425781 0 8-3.578126 8-8 0-4.425782-3.574219-8-8-8zm0 0"/><path d="m208.03125 143.992188h-8.039062c-.039063 0-.082032.023437-.121094.023437v15.953125c.039062 0 .082031.023438.121094.023438h8.039062c4.425781 0 8-3.578126 8-8 0-4.425782-3.574219-8-8-8zm0 0"/><path d="m232.03125 120.054688c-4.421875 0-8 3.578124-8 8 0 4.425781 3.578125 8 8 8h7.921875v-16zm0 0"/><path d="m232.03125 168.054688c-4.421875 0-8 3.578124-8 8 0 4.425781 3.578125 8 8 8h5.703125c1.378906-2.359376 2.21875-5.0625 2.21875-7.976563v-8.023437zm0 0"/><path d="m239.953125 111.992188h8.039063c4.421874 0 8-3.578126 8-8 0-4.425782-3.578126-8-8-8h-8.039063zm0 0"/></g></svg>