<?xml version="1.0" encoding="iso-8859-1"?>
<!-- Generator: Adobe Illustrator 19.0.0, SVG Export Plug-In . SVG Version: 6.00 Build 0)  -->
<svg version="1.1" id="Capa_1" xmlns="http://www.w3.org/2000/svg" xmlns:xlink="http://www.w3.org/1999/xlink" x="0px" y="0px"
	 viewBox="0 0 512 512" style="enable-background:new 0 0 512 512;" xml:space="preserve">
<g>
	<g transform="translate(1 1)">
		<g>
			<circle style="fill:#607D8B;" cx="272.067" cy="144.067" r="34.133"/>
			<rect x="255" y="169.667" style="fill:#607D8B;" width="68.267" height="56.892"/>
			<path style="fill:#607D8B;" d="M272.067,144.067V229.4H161.133v-76.8c0.028-9.414,7.652-17.039,17.067-17.067h85.333
				C268.241,135.547,272.053,139.359,272.067,144.067z"/>
		</g>
		<path style="fill:#CFD8DC;" d="M246.467,144.067V229.4h-85.333v-76.8c0.028-9.414,7.652-17.039,17.067-17.067h59.733
			C242.641,135.547,246.453,139.359,246.467,144.067z"/>
		<path style="fill:#D84315;" d="M331.8,212.333v281.6c-0.014,4.707-3.826,8.52-8.533,8.533h-153.6
			c-4.707-0.014-8.52-3.826-8.533-8.533v-281.6H331.8z"/>
		<path style="fill:#FF5722;" d="M306.2,212.333v281.6c-0.014,4.707-3.826,8.52-8.533,8.533h-128
			c-4.707-0.014-8.52-3.826-8.533-8.533v-281.6H306.2z"/>
		<path style="fill:#F44335;" d="M229.969,76.369c-0.463,13.962-11.915,25.041-25.884,25.041c-13.97,0-25.422-11.079-25.884-25.041
			c0-13.824,25.884-68.836,25.884-68.836S229.969,62.545,229.969,76.369z"/>
	</g>
	<g>
		<path d="M349.867,162.133h-37.742c6.097-13.956,4.286-30.104-4.751-42.362c-9.037-12.258-23.928-18.764-39.063-17.067
			C253.177,104.402,240.097,114.044,234,128h-54.8c-14.132,0.015-25.585,11.468-25.6,25.6v341.333
			c0.012,9.421,7.646,17.054,17.067,17.067h153.6c9.421-0.012,17.054-7.646,17.067-17.067v-281.6
			c0.001-2.264-0.897-4.435-2.498-6.035s-3.772-2.499-6.035-2.498v-25.6h17.067c4.713,0,8.533-3.821,8.533-8.533
			C358.4,165.954,354.579,162.133,349.867,162.133z M273.067,119.467c10.132-0.075,19.341,5.876,23.435,15.145
			c4.094,9.269,2.29,20.084-4.591,27.522H281.6v-17.067c-0.012-9.421-7.646-17.054-17.067-17.067h-10.519
			C258.859,122.571,265.79,119.466,273.067,119.467z M170.667,153.6c0.003-4.712,3.822-8.53,8.533-8.533h85.333V204.8h-93.867V153.6
			z M256,494.933V273.067c0-4.713-3.821-8.533-8.533-8.533s-8.533,3.821-8.533,8.533v221.867h-68.267V221.867h153.6l0.017,273.067
			H256z M315.733,204.8H281.6v-25.6h34.133V204.8z"/>
		<path d="M238.933,162.133h-42.667c-4.713,0-8.533,3.821-8.533,8.533c0,4.713,3.821,8.533,8.533,8.533h42.667
			c4.713,0,8.533-3.821,8.533-8.533C247.467,165.954,243.646,162.133,238.933,162.133z"/>
		<path d="M205.083,110.933c18.763,0.209,34.157-14.804,34.417-33.567c0-14.975-22.242-62.992-26.692-72.467
			c-1.409-2.991-4.419-4.9-7.725-4.9s-6.316,1.909-7.725,4.9c-4.45,9.475-26.692,57.492-26.692,72.467
			C170.926,96.129,186.32,111.143,205.083,110.933z M205.083,29.158c7.578,15.366,13.398,31.538,17.35,48.208
			c-0.464,9.244-8.095,16.5-17.35,16.5s-16.886-7.256-17.35-16.5C191.687,60.696,197.507,44.525,205.083,29.158z"/>
	</g>
</g>
<g>
</g>
<g>
</g>
<g>
</g>
<g>
</g>
<g>
</g>
<g>
</g>
<g>
</g>
<g>
</g>
<g>
</g>
<g>
</g>
<g>
</g>
<g>
</g>
<g>
</g>
<g>
</g>
<g>
</g>
</svg>
