<?xml version="1.0" encoding="iso-8859-1"?>
<!-- Generator: Adobe Illustrator 19.0.0, SVG Export Plug-In . SVG Version: 6.00 Build 0)  -->
<svg version="1.1" id="Capa_1" xmlns="http://www.w3.org/2000/svg" xmlns:xlink="http://www.w3.org/1999/xlink" x="0px" y="0px"
	 viewBox="0 0 512 512" style="enable-background:new 0 0 512 512;" xml:space="preserve">
<polygon style="fill:#BD2B0F;" points="256,511.994 387.194,511.994 512,355.582 235.984,335.566 "/>
<polygon style="fill:#DB5925;" points="0,355.582 124.806,511.994 256,511.994 256,335.566 "/>
<path style="fill:#782E1C;" d="M418.153,109.5L418.153,109.5L235.984,89.484L256,355.582h256V239.28
	C512,180.302,474.163,127.977,418.153,109.5z"/>
<g>
	<path style="fill:#BD2B0F;" d="M256,89.484L104.166,109.5l-6.44,1.914C39.753,128.644,0,181.931,0,242.41v113.172h256V89.484z"/>
	<polygon style="fill:#BD2B0F;" points="418.153,109.5 418.153,15.006 235.984,15.006 256,109.5 	"/>
</g>
<rect x="104.17" y="15.01" style="fill:#DB5925;" width="151.83" height="94.49"/>
<polygon style="fill:#782E1C;" points="464.592,0.006 256,0.006 245.992,15.006 256,30.006 464.592,30.006 "/>
<rect x="57.728" y="0.006" style="fill:#BD2B0F;" width="198.27" height="30"/>
<g>
</g>
<g>
</g>
<g>
</g>
<g>
</g>
<g>
</g>
<g>
</g>
<g>
</g>
<g>
</g>
<g>
</g>
<g>
</g>
<g>
</g>
<g>
</g>
<g>
</g>
<g>
</g>
<g>
</g>
</svg>
