<svg enable-background="new 0 0 110 110" height="512" viewBox="0 0 110 110" width="512" xmlns="http://www.w3.org/2000/svg"><path d="m70.942772 25.548458h13.939298v13.939298h-13.939298z" fill="#d9dde6" transform="matrix(.707 .707 -.707 .707 45.814 -45.568)"/><path d="m22.0218601 90.0473404-3.69697 1.1972427 15.2983437-15.2983474 1.2498665 1.2498703z" fill="#717588"/><path d="m28.630428 70.368416h12.418625v10.44474h-12.418625z" fill="#e6e9ef" transform="matrix(.707 .707 -.707 .707 63.655 -2.495)"/><path d="m34.912972 67.187958h4.240576v12.418634h-4.240576z" fill="#d9dde6" transform="matrix(.707 -.707 .707 .707 -41.053 47.684)"/><path d="m45.739056 27.397894h20.04714v54.540016h-20.04714z" fill="#e6e9ef" transform="matrix(.707 .707 -.707 .707 54.989 -23.418)"/><path d="m33.834015 55.139938h26.258854v16.653875h-26.258854z" fill="#ef3e3e" transform="matrix(.707 -.707 .707 .707 -31.123 51.797)"/><path d="m68.353317 28.133511h7.84032v20.047104h-7.84032z" fill="#d9dde6" transform="matrix(.707 -.707 .707 .707 -5.813 62.281)"/><path d="m84.0622482 44.4018898-18.0336075-18.0336075c-1.1384277-1.1384258-2.9841537-1.1384258-4.1225777 0-1.1384277 1.1384277-1.1384659 2.9841862-.0000381 4.1226139l18.0336037 18.0336056c1.1384277 1.1384277 2.9841919 1.1383896 4.1226196-.0000381 1.1384201-1.138424 1.1384201-2.9841462 0-4.1225739z" fill="#e6e9ef"/><path d="m91.0063934 33.548172-14.1240387-14.1240368c-.8916245-.8916225-2.337204-.8916225-3.2288284 0s-.891655 2.3372345-.0000305 3.228857l14.1240387 14.1240387c.8916245.8916245 2.3372345.8915939 3.2288589-.0000305.8916245-.8916206.8916245-2.337204 0-3.2288284z" fill="#e6e9ef"/><g fill="#4e5366"><path d="m60.233654 41.051464h6.360791v1.212398h-6.360791z" transform="matrix(.707 .707 -.707 .707 48.03 -32.639)"/><path d="m57.847454 42.847328h3.510387v1.212398h-3.510387z" transform="matrix(.707 .707 -.707 .707 48.183 -29.418)"/><path d="m54.556595 46.728527h6.360791v1.212398h-6.360791z" transform="matrix(.707 .707 -.707 .707 50.381 -26.962)"/><path d="m52.170391 48.524387h3.510387v1.212398h-3.510387z" transform="matrix(.707 .707 -.707 .707 50.535 -23.741)"/><path d="m48.879532 52.405586h6.360791v1.212398h-6.360791z" transform="matrix(.707 .707 -.707 .707 52.733 -21.285)"/><path d="m46.493332 54.20145h3.510387v1.212398h-3.510387z" transform="matrix(.707 .707 -.707 .707 52.887 -18.064)"/><path d="m43.202473 58.082645h6.360791v1.212398h-6.360791z" transform="matrix(.707 .707 -.707 .707 55.085 -15.608)"/><path d="m40.816273 59.87851h3.510387v1.212398h-3.510387z" transform="matrix(.707 .707 -.707 .707 55.238 -12.387)"/><path d="m37.525414 63.759708h6.360791v1.212398h-6.360791z" transform="matrix(.707 .707 -.707 .707 57.436 -9.931)"/><path d="m35.13921 65.555573h3.510387v1.212398h-3.510387z" transform="matrix(.707 .707 -.707 .707 57.59 -6.71)"/></g><g fill="#fff"><path d="m51.198139 53.561543h22.541353v2.635621h-22.541353z" opacity=".25" transform="matrix(.707 -.707 .707 .707 -20.509 60.246)"/><path d="m48.667542 65.105461h4.514723v2.635621h-4.514723z" opacity=".25" transform="matrix(.707 -.707 .707 .707 -32.053 55.464)"/></g></svg>