<svg height="512pt" viewBox="0 0 512 512.00242" width="512pt" xmlns="http://www.w3.org/2000/svg"><path d="m406.1875 503.464844h-286.71875l-74.804688-302.929688 111.410157-172.460937c18.945312 7.679687 49.835937 14.59375 99.925781 14.59375 50.09375 0 80.984375-6.914063 99.925781-14.59375h.085938l94.550781 168.191406zm0 0" fill="#3f51b5"/><path d="m124.332031 129.535156 10.582031-12.714844c7.714844-9.203124 19.132813-14.492187 31.144532-14.421874h179.882812c12.011719-.070313 23.429688 5.21875 31.148438 14.421874l10.667968 12.886719 31.230469 45.097657-46.421875 191.019531-100.523437 129.960937c-3.910157 4.855469-9.808594 7.679688-16.042969 7.679688s-12.132812-2.824219-16.042969-7.679688l-100.519531-129.960937-54.871094-190.839844zm0 0" fill="#f44335"/><path d="m141.398438 311.808594 33.707031 43.519531 80.894531 104.617187 80.898438-104.617187 33.707031-43.519531 24.320312-119.46875-44.800781-54.015625c-1.078125-1.160157-2.597656-1.8125-4.183594-1.789063h-179.882812c-1.582032-.023437-3.101563.628906-4.179688 1.789063l-44.800781 54.015625zm0 0" fill="#ff9801"/><path d="m256 136.535156 28.203125 85.332032h91.265625l-73.832031 46.515624 28.195312 81.484376-73.832031-50.363282-73.828125 50.363282 28.191406-81.484376-73.828125-46.515624h91.261719zm0 0" fill="#ffeb3a"/><path d="m126.636719 425.558594 23.039062 66.558594c.910157 2.605468.503907 5.488281-1.085937 7.742187-1.59375 2.253906-4.175782 3.597656-6.933594 3.605469h-124.589844c-4.710937 0-8.53125-3.820313-8.53125-8.53125v-68.265625h110.933594c2.433594.027343 4.855469-.347657 7.167969-1.109375zm0 0" fill="#00bcd4"/><path d="m8.535156 187.734375v-170.667969c0-4.710937 3.820313-8.53125 8.53125-8.53125h133.460938c2.71875-.003906 5.273437 1.292969 6.882812 3.484375 1.605469 2.1875 2.074219 5.015625 1.261719 7.605469l-34.339844 109.910156-18.261719 58.539063c-1.207031-.242188-2.4375-.359375-3.667968-.339844zm0 0" fill="#00bcd4"/><path d="m503.46875 17.066406v477.867188c0 4.710937-3.820312 8.53125-8.535156 8.53125h-124.585938c-2.757812-.007813-5.34375-1.351563-6.933594-3.605469-1.59375-2.253906-1.996093-5.136719-1.085937-7.742187l23.039063-66.558594 20.648437-237.484375v-.085938l-18.257813-58.28125-34.390624-110.082031c-.8125-2.585938-.351563-5.402344 1.25-7.59375 1.601562-2.1875 4.144531-3.488281 6.855468-3.496094h133.460938c4.714844 0 8.535156 3.820313 8.535156 8.53125zm0 0" fill="#00838f"/><path d="m477.867188 17.066406v477.867188c0 4.710937-3.820313 8.53125-8.53125 8.53125h-98.988282c-2.757812-.007813-5.34375-1.351563-6.933594-3.605469-1.59375-2.253906-1.996093-5.136719-1.085937-7.742187l23.039063-66.558594 20.648437-237.484375v-.085938l-18.257813-58.28125-34.390624-110.082031c-.8125-2.585938-.351563-5.402344 1.25-7.59375 1.601562-2.1875 4.144531-3.488281 6.855468-3.496094h107.863282c4.710937 0 8.53125 3.820313 8.53125 8.53125zm0 0" fill="#00bcd4"/><g fill="#3f51b5"><path d="m443.734375 443.734375c0 9.425781-7.640625 17.066406-17.066406 17.066406s-17.066407-7.640625-17.066407-17.066406 7.640626-17.066406 17.066407-17.066406 17.066406 7.640625 17.066406 17.066406zm0 0"/><path d="m469.335938 145.066406c0 9.425782-7.640626 17.066406-17.066407 17.066406s-17.066406-7.640624-17.066406-17.066406c0-9.425781 7.640625-17.066406 17.066406-17.066406s17.066407 7.640625 17.066407 17.066406zm0 0"/><path d="m443.734375 76.800781c0 9.425781-7.640625 17.066407-17.066406 17.066407s-17.066407-7.640626-17.066407-17.066407 7.640626-17.066406 17.066407-17.066406 17.066406 7.640625 17.066406 17.066406zm0 0"/></g><path d="m59.734375 221.867188h59.734375c5.101562 0 10.089844 1.515624 14.335938 4.351562 9.355468 6.289062 13.5 17.957031 10.199218 28.738281-3.296875 10.78125-13.261718 18.136719-24.535156 18.109375 9.222656-.019531 17.742188 4.9375 22.285156 12.964844 4.542969 8.023438 4.40625 17.878906-.355468 25.777344-1.058594 1.808594-2.347657 3.472656-3.839844 4.949218-4.792969 4.808594-11.300782 7.507813-18.089844 7.507813 14.136719 0 25.597656 11.460937 25.597656 25.601563 0 14.136718-11.460937 25.597656-25.597656 25.597656 10.347656.011718 19.671875 6.25 23.628906 15.808594 3.957032 9.558593 1.773438 20.5625-5.539062 27.882812-3.015625 3.058594-6.78125 5.265625-10.921875 6.402344-2.3125.761718-4.734375 1.136718-7.167969 1.109375h-110.933594v-238.9375l93.867188.003906c1.230468-.019531 2.460937.097656 3.667968.339844 3.957032.53125 7.726563 1.992187 11.007813 4.265625 1.214844.875 2.355469 1.84375 3.414063 2.902344 4.808593 4.792968 7.507812 11.300781 7.507812 18.089843 0 4.714844-3.820312 8.535157-8.53125 8.535157zm0 0" fill="#ffe0b2"/><path d="m503.46875 187.734375v238.933594h-110.933594c-14.140625 0-25.601562-11.460938-25.601562-25.601563 0-14.136718 11.460937-25.601562 25.601562-25.601562-6.789062.003906-13.296875-2.699219-18.089844-7.507813-.671874-.671875-1.296874-1.382812-1.878906-2.132812-6.160156-7.671875-7.367187-18.199219-3.105468-27.070313 4.261718-8.867187 13.234374-14.503906 23.074218-14.488281-6.789062 0-13.296875-2.699219-18.089844-7.507813-1.492187-1.476562-2.78125-3.140624-3.839843-4.949218-4.707031-7.808594-4.894531-17.53125-.5-25.519532 4.398437-7.984374 12.71875-13.023437 21.832031-13.222656-11.164062-.230468-20.890625-7.675781-24.035156-18.390625-3.140625-10.714843 1.023437-22.230469 10.296875-28.457031 4.179687-2.832031 9.113281-4.351562 14.164062-4.351562-4.632812-.121094-8.335937-3.898438-8.363281-8.535157 0-6.789062 2.703125-13.296875 7.511719-18.089843 1.058593-1.058594 2.199219-2.027344 3.414062-2.902344 3.300781-2.285156 7.105469-3.75 11.089844-4.265625v-.085938c1.1875-.167969 2.386719-.253906 3.585937-.253906zm0 0" fill="#bfa885"/><path d="m477.867188 187.734375v238.933594h-85.332032c-14.140625 0-25.601562-11.460938-25.601562-25.601563 0-14.136718 11.460937-25.601562 25.601562-25.601562-6.789062.003906-13.296875-2.699219-18.089844-7.507813-.671874-.671875-1.296874-1.382812-1.878906-2.132812-6.160156-7.671875-7.367187-18.199219-3.105468-27.070313 4.261718-8.867187 13.234374-14.503906 23.074218-14.488281-6.789062 0-13.296875-2.699219-18.089844-7.507813-1.492187-1.476562-2.78125-3.140624-3.839843-4.949218-4.707031-7.808594-4.894531-17.53125-.5-25.519532 4.398437-7.984374 12.71875-13.023437 21.832031-13.222656-11.164062-.230468-20.890625-7.675781-24.035156-18.390625-3.140625-10.714843 1.023437-22.230469 10.296875-28.457031 4.179687-2.832031 9.113281-4.351562 14.164062-4.351562-4.632812-.121094-8.335937-3.898438-8.363281-8.535157 0-6.789062 2.703125-13.296875 7.511719-18.089843 1.058593-1.058594 2.199219-2.027344 3.414062-2.902344 3.300781-2.285156 7.105469-3.75 11.089844-4.265625v-.085938c1.1875-.167969 2.386719-.253906 3.585937-.253906zm0 0" fill="#ffe0b2"/><path d="m494.933594 0h-133.460938c-5.4375-.00390625-10.546875 2.585938-13.765625 6.964844-3.21875 4.382812-4.15625 10.035156-2.523437 15.222656l.203125.65625c-29.023438 8.40625-59.183594 12.214844-89.386719 11.289062-30.203125.921876-60.363281-2.894531-89.386719-11.316406l.207031-.65625c1.621094-5.183594.679688-10.828125-2.539062-15.203125-3.214844-4.375-8.320312-6.957031-13.753906-6.957031h-133.460938c-9.425781 0-17.066406 7.640625-17.066406 17.066406v477.867188c0 9.425781 7.640625 17.066406 17.066406 17.066406h124.589844c5.515625-.003906 10.695312-2.675781 13.894531-7.171875s4.027344-10.261719 2.222657-15.476563l-20.480469-59.203124c10.152343-6.171876 16.335937-17.203126 16.308593-29.082032-.058593-1.144531-.171874-2.28125-.351562-3.414062l79.96875 103.355468c5.523438 6.945313 13.914062 10.996094 22.785156 10.996094 8.875 0 17.265625-4.050781 22.789063-10.996094l79.957031-103.355468c-.175781 1.132812-.292969 2.269531-.347656 3.414062-.019532 9.054688 3.585937 17.742188 10.007812 24.125 1.921875 1.875 4.054688 3.523438 6.359375 4.90625l-20.480469 59.246094c-1.804687 5.207031-.984374 10.964844 2.199219 15.460938 3.1875 4.492187 8.347657 7.175781 13.859375 7.195312h124.585938c9.425781 0 17.066406-7.640625 17.066406-17.066406v-477.867188c0-9.425781-7.640625-17.066406-17.066406-17.066406zm-110.933594 17.066406h110.933594v162.132813h-82.730469l-50.730469-162.132813zm110.933594 401.066406h-102.398438c-9.425781 0-17.066406-7.640624-17.066406-17.066406 0-9.425781 7.640625-17.066406 17.066406-17.066406h59.734375c4.710938 0 8.53125-3.820312 8.53125-8.535156 0-4.710938-3.820312-8.53125-8.53125-8.53125h-59.734375c-4.527344.011718-8.871094-1.792969-12.058594-5.007813-.449218-.457031-.871093-.9375-1.261718-1.445312-2.433594-3-3.753906-6.75-3.746094-10.613281 0-9.425782 7.640625-17.066407 17.066406-17.066407h59.734375c4.710938 0 8.53125-3.820312 8.53125-8.535156 0-4.710937-3.820312-8.53125-8.53125-8.53125h-59.734375c-4.527344.007813-8.871094-1.792969-12.058594-5.011719-.996093-.980468-1.855468-2.089844-2.558593-3.300781-3.183594-5.261719-3.28125-11.835937-.25-17.1875 3.03125-5.355469 8.714843-8.65625 14.867187-8.632813h59.734375c4.710938 0 8.53125-3.820312 8.53125-8.535156 0-4.710937-3.820312-8.53125-8.53125-8.53125h-59.734375c-7.515625.023438-14.160156-4.871094-16.367187-12.050781-2.210938-7.183594.539062-14.964844 6.765625-19.164063 2.839844-1.90625 6.183594-2.921874 9.601562-2.921874h59.734375c4.710938 0 8.53125-3.820313 8.53125-8.53125 0-4.714844-3.820312-8.535157-8.53125-8.535157h-59.734375c-.011718-4.527343 1.792969-8.867187 5.007813-12.054687.683593-.683594 1.417969-1.320313 2.195312-1.894532 2.179688-1.523437 4.699219-2.496093 7.335938-2.84375.378906-.042968.75-.117187 1.117187-.210937.472656-.0625.941406-.0625 1.410156-.0625h85.332032zm-59.730469 25.601563c0 4.710937-3.824219 8.53125-8.535156 8.53125-4.714844 0-8.535157-3.820313-8.535157-8.53125 0-4.714844 3.820313-8.535156 8.535157-8.535156 4.710937 0 8.535156 3.820312 8.535156 8.535156zm-298.667969-42.667969c.011719 7.722656-5.199218 14.480469-12.671875 16.425782-1.421875.453124-2.90625.667968-4.394531.640624h-102.402344v-221.867187h85.335938c.570312-.007813 1.140625.039063 1.707031.136719.273437.042968.511719.070312.851563.136718 2.554687.34375 4.996093 1.285157 7.125 2.738282.835937.605468 1.617187 1.273437 2.347656 2 3.222656 3.179687 5.039062 7.523437 5.035156 12.054687h-59.734375c-4.710937 0-8.53125 3.820313-8.53125 8.535157 0 4.710937 3.820313 8.53125 8.53125 8.53125h59.734375c4.535156-.027344 8.890625 1.761718 12.097656 4.96875 3.207032 3.207031 4.996094 7.566406 4.96875 12.097656 0 9.425781-7.640625 17.070312-17.066406 17.070312h-59.734375c-4.710937 0-8.53125 3.820313-8.53125 8.53125 0 4.714844 3.820313 8.535156 8.53125 8.535156h59.734375c9.425781 0 17.066406 7.640626 17.066406 17.066407-.027344 3.148437-.910156 6.230469-2.5625 8.917969-.675781 1.148437-1.503906 2.203124-2.457031 3.136718-3.183594 3.214844-7.523437 5.019532-12.046875 5.011719h-59.734375c-4.710937 0-8.53125 3.820313-8.53125 8.53125 0 4.714844 3.820313 8.535156 8.53125 8.535156h59.734375c9.425781 0 17.066406 7.640625 17.066406 17.066407 0 9.425781-7.640625 17.066406-17.066406 17.066406h-59.734375c-4.710937 0-8.53125 3.820312-8.53125 8.53125 0 4.714844 3.820313 8.535156 8.53125 8.535156h59.734375c9.425781 0 17.066406 7.640625 17.066406 17.066406zm-4.53125-267.410156 9.503906-11.417969c6.113282-7.210937 15.101563-11.351562 24.550782-11.304687h179.882812c9.464844-.042969 18.460938 4.105468 24.570313 11.332031l9.640625 11.648437 13.703125 43.777344-37.21875-44.878906c-2.699219-3.082031-6.601563-4.835938-10.695313-4.8125h-179.882812c-4.121094-.019531-8.046875 1.761719-10.742188 4.882812l-37 44.609376zm161.542969 137.515625 19.765625 57.113281-52.53125-35.839844c-2.898438-1.972656-6.710938-1.972656-9.609375 0l-52.53125 35.839844 19.8125-57.113281c1.304687-3.75-.148437-7.898437-3.503906-10.019531l-48.863281-30.753906h61.753906c3.683594.003906 6.953125-2.355469 8.109375-5.851563l20.050781-60.816406 20.097656 60.816406c1.15625 3.496094 4.425782 5.855469 8.105469 5.851563h61.714844l-48.835938 30.722656c-3.382812 2.113281-4.851562 6.285156-3.535156 10.050781zm-157.011719-57.839844c-.035156-7.890625-2.828125-15.519531-7.902344-21.5625l38.742188-46.703125h76.800781l-22.5625 68.265625zm153.839844 0-22.5625-68.265625h76.800781l38.738281 46.703125c-5.066406 6.046875-7.855468 13.675781-7.882812 21.5625zm-148.574219 59.734375c.585938-.511718 1.234375-.921875 1.789063-1.476562 7.714844-7.597656 11.289062-18.445313 9.601562-29.140625l46.933594 29.542969-24.335938 70.289062-24.449218-31.574219c5.195312-13.296875 1.359375-28.425781-9.539063-37.640625zm114.199219 36.769532 68.960938 47.035156-68.960938 89.125-68.957031-89.125zm80.214844 32.425781-24.328125-70.289063 46.933593-29.539062c-1.6875 10.691406 1.886719 21.542968 9.597657 29.140625.554687.554687 1.203125.964843 1.792969 1.476562-10.875 9.226563-14.699219 24.339844-9.523438 37.628907zm-80.214844-291.0625c31.9375.914062 63.816406-3.167969 94.492188-12.097657l19.003906 60.738282c-7.230469-3.921875-15.328125-5.976563-23.554688-5.972656h-179.882812c-8.191406-.003907-16.257813 2.027343-23.472656 5.914062l18.933593-60.664062c30.675781 8.917968 62.550781 12.996093 94.480469 12.082031zm-128-34.132813h22.527344l-34.320313 109.910156-.050781.179688-16.210938 52.050781h-82.878906v-162.140625zm-110.933594 477.867188v-59.734375h70.136719l6.921875 27.675781c.949219 3.796875 4.363281 6.457031 8.277344 6.457031.699218.003907 1.402344-.082031 2.082031-.253906 4.570313-1.144531 7.347656-5.78125 6.203125-10.351563l-5.886719-23.527343h14.667969 1.457031l20.730469 59.734375zm248.226563-4.371094c-2.363281 2.648438-5.742188 4.160156-9.292969 4.160156-3.546875 0-6.929688-1.511718-9.292969-4.160156l-96.9375-125.335938c4.332031-8.066406 5.023438-17.597656 1.902344-26.207031l97.578125 126.148438c1.617188 2.089843 4.109375 3.3125 6.75 3.3125s5.136719-1.222657 6.75-3.3125l97.578125-126.128907c-1.234375 3.476563-1.882813 7.136719-1.925781 10.828126.027344 5.367187 1.328125 10.648437 3.789062 15.417968zm105.054687 4.371094 20.726563-59.871094c.480469 0 .941406.136719 1.425781.136719h10.105469c-1 2.734375-1.519531 5.621093-1.539063 8.535156 0 14.136719 11.464844 25.597656 25.601563 25.597656s25.601562-11.460937 25.601562-25.597656c-.03125-2.914063-.5625-5.800781-1.570312-8.535156h44.234375v59.734375zm0 0"/><path d="m99.703125 101.964844c2.148437.714844 4.492187.546875 6.519531-.464844 2.023438-1.011719 3.5625-2.789062 4.277344-4.9375l8.53125-25.597656c1.492188-4.480469-.929688-9.316406-5.410156-10.804688-4.476563-1.488281-9.3125.933594-10.800782 5.410156l-8.535156 25.601563c-.714844 2.148437-.542968 4.496094.472656 6.519531 1.015626 2.023438 2.796876 3.5625 4.945313 4.273438zm0 0"/><path d="m74.105469 170.230469c2.148437.714843 4.492187.550781 6.515625-.464844 2.023437-1.011719 3.5625-2.789063 4.277344-4.9375l8.535156-25.597656c1.488281-4.476563-.933594-9.316407-5.410156-10.804688-4.476563-1.488281-9.316407.933594-10.804688 5.410157l-8.53125 25.601562c-.714844 2.148438-.546875 4.496094.46875 6.519531 1.015625 2.027344 2.796875 3.5625 4.949219 4.273438zm0 0"/><path d="m426.667969 145.066406c0 14.140625 11.460937 25.601563 25.601562 25.601563 14.136719 0 25.597657-11.460938 25.597657-25.601563 0-14.136718-11.460938-25.601562-25.597657-25.601562-14.140625 0-25.601562 11.464844-25.601562 25.601562zm34.132812 0c0 4.714844-3.820312 8.535156-8.53125 8.535156-4.714843 0-8.535156-3.820312-8.535156-8.535156 0-4.710937 3.820313-8.53125 8.535156-8.53125 4.710938 0 8.53125 3.820313 8.53125 8.53125zm0 0"/><path d="m426.667969 102.398438c14.136719 0 25.601562-11.460938 25.601562-25.597657 0-14.140625-11.464843-25.601562-25.601562-25.601562s-25.601563 11.460937-25.601563 25.601562c0 14.136719 11.464844 25.597657 25.601563 25.597657zm0-34.132813c4.710937 0 8.535156 3.820313 8.535156 8.535156 0 4.710938-3.824219 8.53125-8.535156 8.53125-4.714844 0-8.535157-3.820312-8.535157-8.53125 0-4.714843 3.820313-8.535156 8.535157-8.535156zm0 0"/></svg>