<svg id="Capa_1" enable-background="new 0 0 512 512" height="512" viewBox="0 0 512 512" width="512" xmlns="http://www.w3.org/2000/svg"><path d="m482 121h-452c-16.569 0-30 13.431-30 30v285c0 8.284 6.716 15 15 15h211c8.284 0 15-6.716 15-15v-105h30v105c0 8.284 6.716 15 15 15h211c8.284 0 15-6.716 15-15v-285c0-16.569-13.431-30-30-30z" fill="#76e2f8"/><path d="m286 451h211c8.284 0 15-6.716 15-15v-285c0-16.569-13.431-30-30-30h-226v210h15v105c0 8.284 6.716 15 15 15z" fill="#4bb9ec"/><path d="m90 136v315h-30v-315c0-8.401 6.599-15 15-15s15 6.599 15 15z" fill="#4bb9ec"/><path d="m452 136v315h-30v-315c0-8.401 6.599-15 15-15s15 6.599 15 15z" fill="#0095ff"/><path d="m316.015 241c-4.849 0-9.609-2.344-12.495-6.68l-47.52-71.279-47.52 71.279c-4.6 6.885-13.916 8.73-20.801 4.16-6.899-4.6-8.76-13.901-4.16-20.801l60-90c5.566-8.35 19.395-8.35 24.961 0l60 90c4.6 6.899 2.739 16.201-4.16 20.801-2.563 1.7-5.449 2.52-8.305 2.52z" fill="#4bb9ec"/><path d="m303.52 234.32c2.886 4.336 7.646 6.68 12.495 6.68 2.856 0 5.742-.82 8.306-2.52 6.899-4.6 8.76-13.901 4.16-20.801l-60-90c-2.783-4.175-7.632-6.262-12.48-6.262v41.624z" fill="#0095ff"/><path d="m512 151h-512v-75c0-8.284 6.716-15 15-15h482c8.284 0 15 6.716 15 15z" fill="#4bb9ec"/><path d="m256 151h256v-75c0-8.284-6.716-15-15-15h-241z" fill="#0095ff"/></svg>