<?xml version="1.0" encoding="iso-8859-1"?>
<!-- Generator: Adobe Illustrator 19.0.0, SVG Export Plug-In . SVG Version: 6.00 Build 0)  -->
<svg version="1.1" id="Layer_1" xmlns="http://www.w3.org/2000/svg" xmlns:xlink="http://www.w3.org/1999/xlink" x="0px" y="0px"
	 viewBox="0 0 512 512" style="enable-background:new 0 0 512 512;" xml:space="preserve">
<polygon style="fill:#AAB1C6;" points="510.307,46.575 455.409,44.883 463.756,76.036 432.603,67.689 440.951,98.842 
	409.798,90.495 418.145,121.648 386.992,113.3 363.129,137.162 371.476,168.315 340.324,159.968 276.497,223.795 333.088,280.386 
	512,101.474 "/>
<path style="fill:#707487;" d="M510.598,56.032c-2.072,0.063-4.125,0.877-5.706,2.459L320.747,242.636
	c-3.295,3.295-3.295,8.638,0,11.932c1.647,1.648,3.807,2.472,5.966,2.472s4.319-0.823,5.966-2.472L511.215,76.032L510.598,56.032z"
	/>
<path style="opacity:0.1;enable-background:new    ;" d="M351.384,213.171l-32.133-32.133l-42.755,42.755l56.591,56.591
	l35.038-35.038C366.046,233.555,360.476,222.264,351.384,213.171z"/>
<path style="fill:#464655;" d="M333.088,231.467l-97.438-97.438c-13.509-13.509-35.41-13.509-48.919,0L10.132,310.628
	c-13.509,13.509-13.509,35.41,0,48.919l97.438,97.438c13.509,13.509,35.41,13.509,48.919,0l176.599-176.601
	C346.596,266.877,346.596,244.976,333.088,231.467z"/>
<path style="opacity:0.1;enable-background:new    ;" d="M333.088,231.467l-22.5-22.5c13.508,13.508,13.508,35.41,0,48.918
	L133.987,434.484c-13.509,13.508-35.41,13.508-48.919,0l22.5,22.5c13.509,13.508,35.41,13.508,48.919,0l176.601-176.599
	C346.596,266.878,346.596,244.976,333.088,231.467z"/>
<circle style="fill:#AAB1C6;" cx="270.828" cy="244.672" r="21.326"/>
<path style="fill:#707487;" d="M239.858,276.395l-49.136-49.136c-11.219-11.219-29.41-11.219-40.63,0l-82.27,82.27
	c-11.219,11.219-11.219,29.41,0,40.63l49.136,49.136c11.219,11.219,29.41,11.219,40.63,0l82.27-82.27
	C251.078,305.806,251.078,287.615,239.858,276.395z"/>
<path style="fill:#AAB1C6;" d="M102.708,274.643c0.014,0.014,0.024,0.028,0.037,0.04l90.297,89.157l11.93-11.93
	c-0.014-0.013-0.024-0.027-0.037-0.041l-90.297-89.157L102.708,274.643z"/>
<g>
</g>
<g>
</g>
<g>
</g>
<g>
</g>
<g>
</g>
<g>
</g>
<g>
</g>
<g>
</g>
<g>
</g>
<g>
</g>
<g>
</g>
<g>
</g>
<g>
</g>
<g>
</g>
<g>
</g>
</svg>
