<svg height="504pt" viewBox="0 -152 504 504" width="504pt" xmlns="http://www.w3.org/2000/svg"><path d="m504 152.484375c-110 51.035156-207.359375 65.28125-344 24v20.082031l-4.167969 3.917969h-151.832031l-4-3.917969v-32.082031l4-4h156c81.511719 24.640625 152 30.488281 224 15.839844 36.480469-7.277344 73.359375-19.917969 112.230469-37.917969.320312-.167969.722656-.328125 1.050781-.488281zm0 0" fill="#ffd2a6"/><path d="m104 152.484375v8h-100c-9.128906-40.230469-1.046875-114.246094 12-129.277344v25.277344c0 32.960937 88 48 88 96zm0 0" fill="#844747"/><path d="m303.671875 65.125c11.6875 6.71875 23.046875 12.082031 33.921875 16.3125l-9.59375 7.046875c-44.238281 30.234375-184-32-200 64v8h-24v-8c0-48-88-63.046875-88-96v-25.277344c2.480469-2.96875 5.191406-3.921875 8-2.488281 112 58.078125 192-36.234375 200-28.234375 14.953125 15.753906 29.511719 29.035156 43.59375 40.082031 5.765625 4.558594 11.4375 8.71875 17.125 12.640625 6.402344 4.3125 12.722656 8.3125 18.953125 11.917969zm0 0" fill="#965353"/><path d="m384 94.414062v81.917969c-72 14.640625-142.488281 8.800781-224-15.839843h-32v-8c16-96 155.761719-33.765626 200-64l9.59375-7.046876c16.566406 6.480469 32.078125 10.480469 46.40625 12.96875zm0 0" fill="#844747"/><path d="m496.230469 138.414062c-38.871094 18-75.757813 30.640626-112.230469 37.917969v-81.917969c65.359375 11.03125 107.191406-8.886718 112 34.078126v9.441406zm0 0" fill="#965353"/><g fill="#656d78"><path d="m298.640625 74.941406c-.929687 0-1.847656-.3125-2.609375-.96875-1.671875-1.4375-1.855469-3.96875-.421875-5.640625l4.949219-5.75c1.449218-1.671875 3.976562-1.839843 5.640625-.425781 1.671875 1.457031 1.855469 3.96875.425781 5.640625l-4.953125 5.753906c-.792969.917969-1.902344 1.390625-3.03125 1.390625zm0 0"/><path d="m279.695312 63.085938c-.925781 0-1.847656-.328126-2.605468-.96875-1.675782-1.457032-1.859375-3.96875-.425782-5.640626l4.953126-5.75c1.445312-1.6875 3.96875-1.855468 5.640624-.425781 1.671876 1.433594 1.855469 3.96875.421876 5.640625l-4.953126 5.753906c-.789062.917969-1.902343 1.390626-3.03125 1.390626zm0 0"/><path d="m262.550781 50.445312c-.925781 0-1.847656-.3125-2.605469-.96875-1.671874-1.4375-1.855468-3.96875-.425781-5.640624l4.953125-5.75c1.449219-1.671876 3.976563-1.839844 5.640625-.425782 1.671875 1.457032 1.855469 3.96875.421875 5.640625l-4.949218 5.753907c-.785157.917968-1.90625 1.390624-3.035157 1.390624zm0 0"/><path d="m247.246094 37.863281c-.925782 0-1.847656-.328125-2.605469-.96875-1.671875-1.457031-1.855469-3.96875-.425781-5.640625l4.953125-5.753906c1.449219-1.6875 3.96875-1.855469 5.640625-.421875 1.671875 1.429687 1.855468 3.96875.421875 5.640625l-4.949219 5.75c-.785156.929688-1.90625 1.394531-3.035156 1.394531zm0 0"/><path d="m231.503906 23.414062c-.929687 0-1.847656-.3125-2.609375-.96875-1.671875-1.441406-1.855469-3.96875-.421875-5.640624l4.953125-5.75c1.445313-1.671876 3.964844-1.839844 5.636719-.425782 1.671875 1.457032 1.859375 3.96875.425781 5.640625l-4.953125 5.753907c-.792968.917968-1.910156 1.390624-3.03125 1.390624zm0 0"/></g><path d="m8 196.566406c0 2.207032-1.789062 4-4 4s-4-1.792968-4-4c0-2.210937 1.789062-4 4-4s4 1.789063 4 4zm0 0" fill="#ffd2a6"/><path d="m8 164.484375c0 2.210937-1.789062 4-4 4s-4-1.789063-4-4c0-2.207031 1.789062-4 4-4s4 1.792969 4 4zm0 0" fill="#ffd2a6"/><path d="m159.832031 196.566406c0 2.207032-1.789062 4-4 4-2.210937 0-4-1.792968-4-4 0-2.210937 1.789063-4 4-4 2.210938 0 4 1.789063 4 4zm0 0" fill="#ffd2a6"/></svg>