<svg id="Capa_1" enable-background="new 0 0 512 512" height="512" viewBox="0 0 512 512" width="512" xmlns="http://www.w3.org/2000/svg"><path d="m392 511c-49.629 0-90-40.371-90-90 0-49.131-7.544-99.272-14.839-147.773-7.456-49.585-15.161-100.855-15.161-152.227 0-66.167 53.833-120 120-120s120 53.833 120 120c0 51.372-7.705 102.642-15.161 152.227-7.295 48.501-14.839 98.642-14.839 147.773 0 49.629-40.371 90-90 90z" fill="#b9dd39"/><path d="m120 511c-49.629 0-90-40.371-90-90 0-49.131-7.544-99.272-14.839-147.773-7.456-49.585-15.161-100.855-15.161-152.227 0-66.167 53.833-120 120-120s120 53.833 120 120c0 51.372-7.705 102.642-15.161 152.227-7.295 48.501-14.839 98.642-14.839 147.773 0 49.629-40.371 90-90 90z" fill="#b9dd39"/><path d="m210 421c0-49.131 7.544-99.272 14.839-147.773 7.456-49.585 15.161-100.855 15.161-152.227 0-66.167-53.833-120-120-120v510c49.629 0 90-40.371 90-90z" fill="#90cc1c"/><path d="m482 421c0-49.131 7.544-99.272 14.839-147.773 7.456-49.585 15.161-100.855 15.161-152.227 0-66.167-53.833-120-120-120v510c49.629 0 90-40.371 90-90z" fill="#90cc1c"/><path d="m155.918 141.918-20.918-13.945v-21.973c0-8.291-6.709-15-15-15s-15 6.709-15 15v21.973l-20.918 13.945c-43.257 28.843-69.082 77.095-69.082 129.082 0 8.291 6.709 15 15 15s15-6.709 15-15c0-41.938 20.83-80.859 55.723-104.121l19.277-12.847 19.277 12.847c34.893 23.262 55.723 62.183 55.723 104.121 0 8.291 6.709 15 15 15s15-6.709 15-15c0-51.987-25.825-100.239-69.082-129.082z" fill="#596c76"/><path d="m139.277 166.879c34.893 23.262 55.723 62.183 55.723 104.121 0 8.291 6.709 15 15 15s15-6.709 15-15c0-51.987-25.825-100.239-69.082-129.082l-20.918-13.945v-21.973c0-8.291-6.709-15-15-15v63.032z" fill="#465a61"/><path d="m427.918 141.918-20.918-13.945v-21.973c0-8.291-6.709-15-15-15s-15 6.709-15 15v21.973l-20.918 13.945c-43.257 28.843-69.082 77.095-69.082 129.082 0 8.291 6.709 15 15 15s15-6.709 15-15c0-41.938 20.83-80.859 55.723-104.121l19.277-12.847 19.277 12.847c34.893 23.262 55.723 62.183 55.723 104.121 0 8.291 6.709 15 15 15s15-6.709 15-15c0-51.987-25.825-100.239-69.082-129.082z" fill="#596c76"/><path d="m411.277 166.879c34.893 23.262 55.723 62.183 55.723 104.121 0 8.291 6.709 15 15 15s15-6.709 15-15c0-51.987-25.825-100.239-69.082-129.082l-20.918-13.945v-21.973c0-8.291-6.709-15-15-15v63.032z" fill="#465a61"/></svg>