<svg height="480pt" viewBox="-96 0 480 480.00089" width="480pt" xmlns="http://www.w3.org/2000/svg"><g fill="#ffd782"><path d="m96 111.996094-88-40v-64l128 16zm0 0"/><path d="m96 111.996094-88-40v-64l128 16zm0 0"/><path d="m192 111.996094 88-40v-64l-128 16zm0 0"/><path d="m192 111.996094 88-40v-64l-128 16zm0 0"/></g><path d="m152 23.996094h-16l-40 88 25.320312 40h50.648438l20.03125-40zm0 0" fill="#195c85"/><path d="m144 471.996094-80-88 56-232h48l56 232z" fill="#2d75bb"/><path d="m180.449219 203.550781-96.089844 96.085938-20.359375 84.359375 15.816406 17.394531 120.238282-116.601563zm0 0" fill="#195c85"/><path d="m144 431.996094c-3.234375 0-6.152344-1.949219-7.390625-4.9375-1.234375-2.988282-.550781-6.429688 1.734375-8.71875l8-8c3.140625-3.03125 8.128906-2.988282 11.214844.097656 3.085937 3.085938 3.128906 8.078125.097656 11.214844l-8 8c-1.5 1.5-3.535156 2.34375-5.65625 2.34375zm0 0" fill="#195c85"/><path d="m279.007812.0625-127.503906 15.933594h-15.007812l-127.503906-15.933594c-2.277344-.285156-4.566407.421875-6.285157 1.9375-1.71875 1.519531-2.707031 3.703125-2.707031 5.996094v64c0 3.136718 1.835938 5.984375 4.6875 7.28125l85.824219 39.007812 21.28125 33.601563-55.570313 230.238281c-.621094 2.578125.074219 5.292969 1.859375 7.257812l80 88c1.515625 1.667969 3.664063 2.617188 5.917969 2.617188s4.402344-.949219 5.921875-2.617188l80-88c1.78125-1.964843 2.476563-4.679687 1.855469-7.257812l-54.175782-224.488281c.597657-.605469 20.292969-39.527344 20.292969-39.527344l85.417969-38.832031c2.855469-1.296875 4.6875-4.144532 4.6875-7.28125v-64c0-2.292969-.984375-4.476563-2.707031-5.996094-1.71875-1.515625-4.007813-2.222656-6.285157-1.9375zm-263.007812 66.785156v-49.785156l108.214844 13.519531-32.214844 70.824219zm110.296875 93.148438h35.40625l9.914063 41.074218-72.800782 72.800782zm88.902344 221.761718-71.199219 78.351563-53.0625-58.398437 104.632812-101.417969zm-24-99.527343-111.023438 107.664062-7.375-8.136719 18.839844-78.0625 84.359375-84.402343zm-24.167969-138.234375h-41.304688l-20.652343-32.621094 36.078125-79.378906h5.695312l36.289063 79.832031zm104.96875-77.148438-76 34.558594-32.214844-70.824219 108.214844-13.519531zm0 0"/><path d="m138.34375 429.652344c3.125 3.125 8.1875 3.125 11.3125 0l8-8c3.03125-3.136719 2.988281-8.128906-.097656-11.214844-3.085938-3.085938-8.074219-3.128906-11.214844-.097656l-8 8c-3.121094 3.125-3.121094 8.191406 0 11.3125zm0 0"/><path d="m176 399.996094c2.121094 0 4.15625-.84375 5.65625-2.34375l16-16c3.03125-3.136719 2.988281-8.128906-.097656-11.214844-3.085938-3.085938-8.074219-3.128906-11.214844-.097656l-16 16c-2.285156 2.289062-2.96875 5.730468-1.734375 8.71875 1.238281 2.988281 4.15625 4.9375 7.390625 4.9375zm0 0"/></svg>