<svg height="512pt" viewBox="-1 0 511 512" width="512pt" xmlns="http://www.w3.org/2000/svg"><g fill-rule="evenodd"><path d="m203.03125 96.445312c-2.707031 5.730469-2.652344 12.652344.757812 18.554688 3.40625 5.902344 9.371094 9.410156 15.6875 9.933594.523438 6.3125 4.03125 12.277344 9.933594 15.6875 5.90625 3.40625 12.824219 3.460937 18.554688.757812 3.609375 5.207032 9.628906 8.617188 16.445312 8.617188s12.835938-3.410156 16.445313-8.617188c3.613281 5.207032 9.632812 8.617188 16.449219 8.617188 6.816406 0 12.835937-3.410156 16.445312-8.617188 3.613281 5.207032 9.628906 8.617188 16.449219 8.617188 6.816406 0 12.835937-3.410156 16.445312-8.617188 3.609375 5.207032 9.628907 8.617188 16.445313 8.617188 6.820312 0 12.835937-3.410156 16.449218-8.617188 3.609376 5.207032 9.628907 8.617188 16.445313 8.617188s12.835937-3.410156 16.449219-8.617188c3.609375 5.207032 9.628906 8.617188 16.445312 8.617188s12.835938-3.410156 16.445313-8.617188c5.730469 2.703125 12.652343 2.648438 18.554687-.757812 5.902344-3.410156 9.410156-9.375 9.933594-15.6875 6.316406-.523438 12.277344-4.03125 15.6875-9.933594 3.40625-5.902344 3.464844-12.824219.757812-18.554688 5.210938-3.609374 8.621094-9.628906 8.621094-16.445312s-3.410156-12.835938-8.621094-16.449219c2.707032-5.730469 2.652344-12.648437-.757812-18.550781-3.410156-5.90625-9.371094-9.410156-15.6875-9.933594-.523438-6.316406-4.03125-12.28125-9.933594-15.6875-5.90625-3.410156-12.824218-3.464844-18.554687-.761718-3.609375-5.207032-9.628907-8.617188-16.445313-8.617188s-12.835937 3.410156-16.449218 8.617188c-3.609376-5.207032-9.628907-8.617188-16.445313-8.617188s-12.835937 3.410156-16.445313 8.617188c-3.613281-5.207032-9.632812-8.617188-16.449218-8.617188s-12.835938 3.410156-16.445313 8.617188c-3.613281-5.207032-9.628906-8.617188-16.449219-8.617188-6.816406 0-12.835937 3.410156-16.445312 8.617188-3.609375-5.207032-9.628906-8.617188-16.445312-8.617188-6.820313 0-12.835938 3.410156-16.449219 8.617188-3.609375-5.207032-9.628907-8.617188-16.445313-8.617188s-12.835937 3.410156-16.445312 8.617188c-5.730469-2.703126-12.652344-2.648438-18.554688.761718-5.902344 3.40625-9.410156 9.371094-9.933594 15.6875-6.316406.523438-12.28125 4.027344-15.6875 9.933594-3.410156 5.902344-3.464843 12.820312-.757812 18.550781-5.210938 3.613281-8.621094 9.632813-8.621094 16.449219s3.410156 12.835938 8.621094 16.445312zm0 0" fill="#6a87c1"/><path d="m203.789062 115c-3.410156-5.902344-3.464843-12.824219-.757812-18.554688-5.210938-3.609374-8.621094-9.628906-8.621094-16.445312s3.410156-12.835938 8.621094-16.449219c-2.707031-5.730469-2.652344-12.648437.757812-18.550781 3.40625-5.90625 9.371094-9.410156 15.6875-9.933594h-89.6875c-8.800781 0-16 7.199219-16 16v57.867188c0 8.800781 7.199219 16 16 16h89.6875c-6.316406-.523438-12.28125-4.03125-15.6875-9.933594zm0 0" fill="#c7ced1"/><path d="m113.789062 96v-32h-48c-8.800781 0-16 7.199219-16 16s7.199219 16 16 16zm0 0" fill="#808080"/><path d="m209.785156 124.933594h-79.996094v16c0 8.800781 7.199219 16 16 16h48c8.796876 0 15.996094-7.199219 15.996094-16zm0 0" fill="#808080"/><path d="m193.789062 156.933594h-48l-16.003906 40c13.253906 0 24 10.746094 24 24zm0 0" fill="#c7ced1"/><path d="m153.785156 220.933594c0-13.253906-10.742187-24-24-24-2.765625 0-5.425781.46875-7.898437 1.332031-9.375 3.265625-16.101563 12.179687-16.101563 22.667969 0 9.359375 5.359375 17.46875 13.175782 21.425781 3.253906 1.644531 6.929687 2.574219 10.824218 2.574219 8.40625 0 15.800782-4.320313 20.085938-10.863282 2.476562-3.773437 3.914062-8.285156 3.914062-13.136718zm0 0" fill="#808080"/><path d="m221.660156 501.996094-71.789062-267.921875c-4.285156 6.539062-11.679688 10.859375-20.085938 10.859375-3.890625 0-7.570312-.929688-10.824218-2.574219l69.570312 259.636719zm0 0" fill="#c7ced1"/></g><path d="m508.878906 80c0-7.230469-2.613281-14.128906-7.210937-19.503906 1.296875-6.957032.105469-14.234375-3.507813-20.496094-3.613281-6.261719-9.324218-10.929688-15.996094-13.289062-2.355468-6.667969-7.023437-12.378907-13.285156-15.992188-6.261718-3.617188-13.542968-4.808594-20.496094-3.511719-5.375-4.597656-12.273437-7.207031-19.503906-7.207031-5.925781 0-11.625 1.753906-16.449218 4.914062-4.820313-3.160156-10.523438-4.914062-16.445313-4.914062s-11.625 1.753906-16.445313 4.914062c-4.824218-3.160156-10.527343-4.914062-16.449218-4.914062s-11.625 1.753906-16.445313 4.914062c-4.824219-3.160156-10.523437-4.914062-16.449219-4.914062-5.921874 0-11.621093 1.753906-16.445312 4.914062-4.824219-3.160156-10.523438-4.914062-16.445312-4.914062-5.925782 0-11.625 1.753906-16.449219 4.914062-4.820313-3.160156-10.523438-4.914062-16.445313-4.914062-7.230468 0-14.128906 2.609375-19.503906 7.207031-6.953125-1.296875-14.234375-.105469-20.496094 3.511719-5.738281 3.3125-10.113281 8.394531-12.621094 14.347656h-82c-14.335937 0-26 11.664063-26 26v2.933594h-38c-11.0625 0-20.53125 6.949219-24.277343 16.707031-23.25 3.953125-41.011719 24.226563-41.011719 48.582031 0 27.175782 22.109375 49.285157 49.289062 49.285157 33.964844 0 49.257813 10.046875 58.789063 25.8125-7.789063 6.234375-12.792969 15.816406-12.792969 26.546875 0 11.515625 5.761719 21.707031 14.550782 27.859375l68.539062 255.792969c1.195312 4.464843 5.234375 7.414062 9.652344 7.414062.855468 0 1.726562-.113281 2.59375-.34375 5.335937-1.429688 8.5-6.914062 7.070312-12.25l-65.539062-244.605469c4.113281-.34375 8.019531-1.417969 11.589844-3.101562l41.878906 156.292969c1.195312 4.46875 5.238281 7.414062 9.652344 7.414062.855468 0 1.730468-.109375 2.59375-.34375 5.335937-1.429688 8.5-6.914062 7.074218-12.246094l-44.875-167.460937c1.644532-3.492188 2.707032-7.304688 3.070313-11.316407l36.132812-57.808593c9.976563-2.359375 17.75-10.480469 19.59375-20.648438 1.539063 1.386719 3.214844 2.640625 5.046875 3.699219 6.261719 3.613281 13.539063 4.804688 20.496094 3.507812 5.375 4.601563 12.273438 7.210938 19.503906 7.210938 5.921875 0 11.621094-1.753906 16.445313-4.914062 4.824219 3.160156 10.523437 4.914062 16.445312 4.914062 5.925781 0 11.625-1.753906 16.449219-4.914062 4.820312 3.160156 10.523438 4.914062 16.445312 4.914062 5.921876 0 11.625-1.753906 16.449219-4.914062 4.820313 3.160156 10.519531 4.914062 16.445313 4.914062 5.921875 0 11.625-1.753906 16.445312-4.914062 4.824219 3.160156 10.523438 4.914062 16.449219 4.914062 5.921875 0 11.621094-1.753906 16.445313-4.914062 4.824218 3.160156 10.523437 4.914062 16.445312 4.914062 7.230469 0 14.128906-2.609375 19.503906-7.207031 6.953125 1.289062 14.234375.105469 20.496094-3.511719 6.261719-3.613281 10.929688-9.324219 13.289062-15.996094 6.667969-2.355468 12.378907-7.023437 15.992188-13.285156 3.617188-6.261719 4.804688-13.542969 3.511719-20.496094 4.597656-5.375 7.210937-12.273437 7.210937-19.503906zm-385.089844-28.933594c0-3.253906 2.746094-6 6-6h17.625v12.390625c0 5.519531 4.476563 10 10 10 5.523438 0 10-4.480469 10-10v-12.390625h25.394532c-1.742188 4.957032-2.144532 10.28125-1.1875 15.429688-4.597656 5.375-7.210938 12.273437-7.210938 19.503906s2.613282 14.128906 7.210938 19.503906c-.957032 5.148438-.554688 10.472656 1.1875 15.429688h-25.394532v-12.390625c0-5.523438-4.476562-10-10-10-5.523437 0-10 4.476562-10 10v12.390625h-17.625c-3.253906 0-6-2.746094-6-6zm19.625 138.726563 9.144532-22.859375h23.1875l-20.027344 32.042968c-3.332031-3.925781-7.53125-7.085937-12.304688-9.183593zm56.371094-48.859375c0 3.253906-2.746094 6-5.996094 6h-48c-3.253906 0-6-2.746094-6-6v-6h59.996094zm-133.996094-66.933594h38v12h-38c-3.253906 0-6-2.75-6-6 0-3.253906 2.746094-6 6-6zm-16 74.574219c-16.148437 0-29.289062-13.136719-29.289062-29.285157 0-13.539062 9.234375-24.957031 21.734375-28.296874 4.148437 8.855468 13.144531 15.007812 23.554687 15.007812h38v2.933594c0 10.796875 6.613282 20.070312 16 23.996094v8.003906c0 9.476562 5.097657 17.785156 12.695313 22.328125l-7.722656 19.308593c-15.015625-23.6875-38.171875-33.996093-74.972657-33.996093zm79.996094 86.359375c-7.71875 0-14-6.28125-14-14s6.28125-14 14-14 14 6.28125 14 14-6.277344 14-14 14zm354.777344-146.707032c-4.019531 2.785157-5.433594 8.066407-3.347656 12.488282 1.402344 2.976562 1.261718 6.445312-.375 9.285156-1.640625 2.839844-4.574219 4.695312-7.851563 4.96875-4.871093.398438-8.738281 4.269531-9.144531 9.140625-.269531 3.277344-2.125 6.210937-4.964844 7.851563-2.839844 1.640624-6.3125 1.78125-9.285156.375-4.421875-2.082032-9.703125-.667969-12.488281 3.347656-1.871094 2.703125-4.949219 4.316406-8.226563 4.316406s-6.355468-1.613281-8.230468-4.316406c-1.867188-2.695313-4.9375-4.304688-8.21875-4.304688-3.277344 0-6.347657 1.609375-8.214844 4.304688-1.875 2.703125-4.953125 4.316406-8.230469 4.316406s-6.355469-1.613281-8.230469-4.316406c-1.867187-2.695313-4.9375-4.304688-8.214844-4.304688-3.28125 0-6.351562 1.609375-8.21875 4.304688-1.875 2.703125-4.949218 4.316406-8.230468 4.316406-3.277344 0-6.351563-1.613281-8.226563-4.316406-1.871093-2.695313-4.941406-4.304688-8.21875-4.304688-3.28125 0-6.351562 1.609375-8.21875 4.304688-1.875 2.703125-4.949219 4.316406-8.230469 4.316406-3.277343 0-6.351562-1.613281-8.226562-4.316406-1.871094-2.695313-4.941406-4.304688-8.21875-4.304688-3.28125 0-6.351562 1.609375-8.21875 4.304688-1.875 2.703125-4.949219 4.316406-8.230469 4.316406-3.277343 0-6.351562-1.613281-8.226562-4.316406-1.871094-2.695313-4.941407-4.304688-8.21875-4.304688-3.277344 0-6.351563 1.609375-8.21875 4.304688-1.875 2.703125-4.949219 4.316406-8.226563 4.316406-3.28125 0-6.355468-1.613281-8.230468-4.316406-2.785157-4.019532-8.066407-5.433594-12.488282-3.347656-2.972656 1.40625-6.445312 1.265624-9.285156-.375-2.835938-1.640626-4.695312-4.574219-4.964844-7.851563-.402344-4.875-4.269531-8.738281-9.140625-9.140625-3.277343-.273438-6.214843-2.128906-7.855469-4.972656-1.636718-2.835938-1.777343-6.308594-.375-9.28125 2.085938-4.421875.671876-9.703125-3.34375-12.488282-2.703124-1.871093-4.316406-4.949218-4.316406-8.226562 0-3.28125 1.613282-6.355469 4.316406-8.230469 4.015626-2.785156 5.433594-8.0625 3.34375-12.484375-1.402343-2.976562-1.261718-6.445312.375-9.285156 1.640626-2.839844 4.578126-4.695312 7.855469-4.96875 4.871094-.402344 8.734375-4.269531 9.140625-9.140625.269532-3.277344 2.128906-6.214844 4.964844-7.855469 2.839844-1.636718 6.3125-1.777344 9.285156-.375 4.421875 2.085938 9.703125.675782 12.488282-3.34375 1.875-2.703125 4.949218-4.316406 8.226562-4.316406 3.28125 0 6.355469 1.613281 8.230469 4.316406 1.867187 2.695313 4.9375 4.300782 8.21875 4.300782 3.277343 0 6.347656-1.605469 8.21875-4.300782 1.871093-2.703125 4.949219-4.316406 8.226562-4.316406 3.277344 0 6.355469 1.613281 8.226563 4.316406 1.871094 2.691406 4.941406 4.300782 8.21875 4.300782 3.28125 0 6.351562-1.605469 8.21875-4.300782 1.875-2.703125 4.949218-4.316406 8.230468-4.316406 3.277344 0 6.351563 1.613281 8.226563 4.316406 1.871094 2.695313 4.941406 4.300782 8.21875 4.300782 3.28125 0 6.351563-1.605469 8.21875-4.300782 1.875-2.703125 4.949219-4.316406 8.230469-4.316406 3.277344 0 6.355468 1.613281 8.226562 4.316406 1.867188 2.695313 4.941406 4.300782 8.21875 4.300782 3.28125 0 6.351563-1.605469 8.21875-4.300782 1.875-2.703125 4.953125-4.316406 8.230469-4.316406s6.355469 1.613281 8.226563 4.316406c1.871093 2.695313 4.941406 4.300782 8.21875 4.300782 3.28125 0 6.351562-1.605469 8.21875-4.300782 1.875-2.703125 4.953124-4.316406 8.230468-4.316406s6.355469 1.613281 8.226563 4.316406c2.785156 4.015625 8.066406 5.429688 12.488281 3.34375 2.976562-1.40625 6.445312-1.261718 9.285156.375 2.839844 1.640625 4.695313 4.578125 4.964844 7.855469.40625 4.871094 4.273438 8.738281 9.144531 9.140625 3.277344.269531 6.210938 2.128906 7.851563 4.96875s1.78125 6.308594.375 9.285156c-2.085938 4.421875-.667969 9.699219 3.347656 12.484375 2.703125 1.875 4.316406 4.949219 4.316406 8.230469 0 3.277344-1.617187 6.355469-4.316406 8.226562zm0 0"/><path d="m208.84375 453.902344c5.324219-1.464844 8.449219-6.980469 6.984375-12.304688-1.464844-5.324218-6.96875-8.453125-12.292969-6.988281-5.324218 1.464844-8.453125 6.96875-6.988281 12.292969l.003906.019531c1.21875 4.4375 5.242188 7.339844 9.628907 7.339844.878906 0 1.773437-.113281 2.664062-.359375zm0 0"/><path d="m223.289062 469.433594c-1.429687-5.335938-6.914062-8.503906-12.25-7.070313-5.332031 1.429688-8.5 6.914063-7.070312 12.246094l8.03125 29.976563c1.199219 4.46875 5.238281 7.414062 9.65625 7.414062.855469 0 1.726562-.109375 2.59375-.34375 5.332031-1.429688 8.5-6.914062 7.070312-12.246094zm0 0"/><path d="m305.265625 94.804688h-.019531c-5.523438 0-9.992188 4.476562-9.992188 10 0 5.519531 4.488282 10 10.011719 10s10-4.480469 10-10c0-5.523438-4.476563-10-10-10zm0 0"/><path d="m229.964844 57.703125h-.019532c-5.523437 0-9.988281 4.480469-9.988281 10 0 5.523437 4.484375 10 10.007813 10 5.523437 0 10-4.476563 10-10 0-5.519531-4.476563-10-10-10zm0 0"/><path d="m357.445312 54.605469h-.019531c-5.523437 0-9.992187 4.476562-9.992187 10 0 5.519531 4.488281 10 10.011718 10 5.523438 0 10-4.480469 10-10 0-5.523438-4.476562-10-10-10zm0 0"/><path d="m421.863281 84.804688h-.019531c-5.523438 0-9.988281 4.476562-9.988281 10 0 5.519531 4.484375 10 10.007812 10 5.523438 0 10-4.480469 10-10 0-5.523438-4.476562-10-10-10zm0 0"/></svg>