<svg height="512pt" viewBox="-36 0 512 512" width="512pt" xmlns="http://www.w3.org/2000/svg"><g fill-rule="evenodd"><path d="m83.816406 335.128906-43.820312-285.128906c-25.417969 32.265625-29.996094 78.539062-29.996094 145v227c0 5.5 4.503906 10 10 10h49.117188l7.585937-50zm0 0" fill="#b5bbc9"/><path d="m39.996094 50 43.820312 285.128906-7.113281 46.871094-7.585937 50-10.617188 70h103.910156c31.679688 0 57.597656-25.917969 57.597656-57.597656v-99.898438l-.007812-.019531-105.753906-229.308594 29.441406-32.335937-34.898438-32.300782 14.832032-19.261718zm0 0" fill="#b5bbc9"/><path d="m114.246094 115.175781 105.753906 229.308594 105.753906-229.308594-29.445312-32.335937 34.902344-32.300782-14.832032-19.261718-16.378906-21.277344h-20l-60.011719 328.617188-59.988281-328.617188h-20l-16.378906 21.277344-14.832032 19.261718 34.898438 32.300782zm0 0" fill="#858fa6"/><path d="m160 10 59.988281 328.617188 60.011719-328.617188zm0 0" fill="#b5bbc9"/><path d="m325.753906 115.175781-105.753906 229.308594.007812.019531v99.898438c0 31.679687 25.921876 57.597656 57.597657 57.597656h103.894531l-10.621094-70-7.585937-50-7.109375-46.871094 43.816406-285.128906-83.621094-18.722656 14.828125 19.261718-34.898437 32.300782zm0 0" fill="#b5bbc9"/><path d="m400 50-43.816406 285.128906 7.109375 46.871094 7.585937 50h49.121094c5.496094 0 10-4.5 10-10v-227c0-66.460938-4.582031-112.734375-30-145zm0 0" fill="#b5bbc9"/></g><path d="m408.066406 44.085938c-1.441406-1.917969-3.527344-3.320313-5.878906-3.84375l-80.089844-17.933594-14.175781-18.410156c-1.894531-2.457032-4.820313-3.898438-7.921875-3.898438h-160c-3.105469 0-6.03125 1.441406-7.921875 3.898438l-14.175781 18.410156-80.089844 17.933594c-2.355469.527343-4.4375 1.921874-5.878906 3.84375-26.699219 34.105468-31.933594 81.1875-31.933594 150.914062v227c0 11.027344 8.972656 20 20 20h37.488281l-8.875 58.5c-.441406 2.882812.402344 5.808594 2.300781 8.019531 1.902344 2.210938 4.671876 3.480469 7.585938 3.480469h103.910156c24.339844 0 45.714844-12.925781 57.617188-32.277344 2.171875 3.523438 4.679687 6.867188 7.5 9.984375 11.210937 12.371094 26.449218 20.15625 42.910156 21.910157 5.472656.585937 10.421875-3.390626 11.003906-8.882813.585938-5.492187-3.390625-10.417969-8.882812-11.003906-24.257813-2.585938-42.550782-22.933594-42.550782-47.328125v-97.742188l104.828126-227.296875c1.683593-3.648437 1.015624-7.949219-1.6875-10.921875l-22.769532-25 27.621094-25.5625c3.074219-2.847656 3.980469-7.210937 2.535156-10.945312l48.160156 10.785156-42.398437 275.894531c-.152344 1-.152344 2.015625-.003906 3.015625l5.371093 35.371094h-45.460937c-5.519531 0-10 4.476562-10 10s4.480469 10 10 10h48.496094l15.167969 100h-8.367188c-5.523438 0-10 4.476562-10 10s4.476562 10 10 10h20c2.914062 0 5.683594-1.269531 7.582031-3.480469 1.902344-2.210937 2.742188-5.136719 2.304688-8.019531l-8.875-58.5h37.488281c11.027344 0 20-8.972656 20-20v-227c0-69.726562-5.238281-116.808594-31.933594-150.914062zm-188.074218 238.855468-48-262.941406h96.015624zm-75.070313-262.941406h6.738281l46.054688 252.285156-71.613282-155.277344 24.980469-27.433593c3.699219-4.0625 3.429688-10.34375-.601562-14.074219l-28.195313-26.09375zm17.488281 472h-92.28125l15.171875-100h48.492188c5.523437 0 10-4.476562 10-10s-4.476563-10-10-10h-45.457031l5.367187-35.371094c.152344-1 .148437-2.019531-.003906-3.019531l-21.191407-137.898437c-.839843-5.457032-5.953124-9.203126-11.402343-8.363282-5.457031.839844-9.203125 5.945313-8.363281 11.402344l20.957031 136.390625-13.175781 86.859375h-40.523438v-227c0-50.179688 2.683594-87.5625 14.398438-115.605469l4.671874 30.398438c.757813 4.945312 5.015626 8.484375 9.871094 8.484375.503906 0 1.015625-.039063 1.53125-.117188 5.457032-.839844 9.203125-5.945312 8.363282-11.40625l-7.539063-49.039062 48.164063-10.78125c-1.445313 3.730468-.542969 8.097656 2.535156 10.941406l27.621094 25.566406-22.769532 25c-2.703125 2.96875-3.367187 7.269532-1.6875 10.921875l104.847656 227.335938v97.703125c0 26.246094-21.351562 47.597656-47.597656 47.597656zm127.105469-416.5c-4.027344 3.730469-4.296875 10.011719-.601563 14.074219l24.980469 27.433593-71.636719 155.335938 46.082032-252.34375h6.738281l22.636719 29.402344zm130.484375 346.5h-40.523438l-13.175781-86.859375 39.300781-255.746094c11.714844 28.042969 14.398438 65.425781 14.398438 115.605469zm0 0"/><path d="m65.699219 151.429688c-.730469-5.476563-5.75-9.316407-11.234375-8.589844-5.472656.730468-9.320313 5.765625-8.589844 11.238281.671875 5.027344 4.964844 8.679687 9.898438 8.679687.441406 0 .886718-.027343 1.335937-.089843 5.472656-.730469 9.320313-5.757813 8.589844-11.234375zm0 0"/><path d="m316.503906 492h-.007812c-5.523438 0-9.996094 4.476562-9.996094 10s4.480469 10 10.003906 10c5.523438 0 10-4.476562 10-10s-4.476562-10-10-10zm0 0"/></svg>