<svg height="512" viewBox="0 0 64 64" width="512" xmlns="http://www.w3.org/2000/svg"><g id="Clothes-6" data-name="Clothes"><path d="m43 7v6l-11 19-11-19v-6s7 3 11 3 11-3 11-3z" fill="#009986"/><path d="m32 32v23l-6 6h-16v-33l.36-.44a19.957 19.957 0 0 0 4.64-12.8v-11.76h6v10z" fill="#00b39d"/><path d="m32 55v-23l11-19v-10h6v11.76a19.957 19.957 0 0 0 4.64 12.8l.36.44v33h-16z" fill="#00ccb3"/><g fill="#008c7b"><path d="m35 38h2v2h-2z"/><path d="m35 42h2v2h-2z"/><path d="m35 46h2v2h-2z"/><path d="m27 38h2v2h-2z"/><path d="m27 42h2v2h-2z"/><path d="m27 46h2v2h-2z"/></g></g></svg>