<?xml version="1.0" standalone="no"?>
<!DOCTYPE svg PUBLIC "-//W3C//DTD SVG 20010904//EN"
 "http://www.w3.org/TR/2001/REC-SVG-20010904/DTD/svg10.dtd">
<svg version="1.0" xmlns="http://www.w3.org/2000/svg"
 width="512.000000pt" height="512.000000pt" viewBox="0 0 512.000000 512.000000"
 preserveAspectRatio="xMidYMid meet">
<metadata>
Created by potrace 1.15, written by Peter Selinger 2001-2017
</metadata>
<g transform="translate(0.000000,512.000000) scale(0.100000,-0.100000)"
fill="#000000" stroke="none">
<path d="M1771 2127 c-14 -6 -29 -25 -34 -41 -21 -62 66 -113 112 -67 30 30
27 75 -5 100 -31 24 -40 25 -73 8z"/>
<path d="M1863 1870 c-44 -18 -56 -77 -23 -110 41 -41 120 -12 120 44 0 47
-53 83 -97 66z"/>
<path d="M3198 1866 c-51 -26 -46 -109 8 -122 42 -11 77 7 88 43 17 60 -41
107 -96 79z"/>
<path d="M3884 1870 c-29 -11 -37 -26 -36 -62 2 -87 132 -91 132 -5 0 38 -7
50 -37 66 -25 13 -30 13 -59 1z"/>
<path d="M1950 1607 c-32 -16 -47 -58 -32 -91 21 -47 99 -47 120 -1 16 35 15
49 -5 73 -24 27 -53 34 -83 19z"/>
<path d="M3113 1610 c-44 -18 -54 -78 -17 -114 22 -22 70 -20 94 4 51 51 -9
137 -77 110z"/>
<path d="M3971 1607 c-14 -6 -29 -25 -34 -41 -21 -62 66 -113 112 -67 30 30
27 75 -5 100 -31 24 -40 25 -73 8z"/>
<path d="M1003 1350 c-44 -18 -56 -77 -23 -110 41 -41 120 -12 120 44 0 47
-53 83 -97 66z"/>
<path d="M2027 1340 c-18 -15 -27 -31 -27 -51 0 -65 80 -93 120 -42 50 64 -29
143 -93 93z"/>
<path d="M3022 1350 c-26 -11 -45 -54 -37 -81 24 -75 135 -58 135 19 0 47 -52
80 -98 62z"/>
<path d="M4045 1335 c-31 -30 -32 -68 -3 -95 29 -26 72 -26 98 2 28 31 26 72
-6 97 -35 27 -59 26 -89 -4z"/>
<path d="M2105 1075 c-28 -27 -31 -45 -14 -78 16 -29 28 -37 62 -37 34 0 67
32 67 65 0 31 -41 75 -70 75 -11 0 -32 -11 -45 -25z"/>
<path d="M4150 1093 c-25 -9 -40 -35 -40 -68 0 -57 59 -84 108 -49 25 17 30
69 10 97 -14 18 -55 29 -78 20z"/>
<path d="M2096 798 c-22 -31 -20 -64 4 -88 41 -41 120 -12 120 45 0 59 -91 90
-124 43z"/>
<path d="M2928 810 c-25 -15 -33 -66 -14 -95 22 -34 88 -35 110 -3 34 48 7
108 -47 108 -18 0 -40 -5 -49 -10z"/>
<path d="M4114 795 c-19 -30 -11 -81 16 -95 33 -18 78 -12 94 12 36 51 7 108
-54 108 -31 0 -43 -5 -56 -25z"/>
<path d="M1034 572 c-16 -10 -34 -48 -34 -71 0 -23 44 -61 72 -61 25 0 68 44
68 70 0 44 -71 86 -106 62z"/>
<path d="M1980 560 c-29 -29 -26 -74 7 -100 32 -25 69 -20 96 12 22 27 22 49
-4 82 -25 32 -70 35 -99 6z"/>
<path d="M3049 562 c-15 -13 -22 -30 -22 -52 0 -62 71 -92 113 -48 59 64 -23
155 -91 100z"/>
<path d="M4001 554 c-12 -15 -21 -35 -21 -46 0 -24 44 -68 68 -68 33 0 72 38
72 71 0 65 -80 93 -119 43z"/>
<path d="M1238 393 c-52 -61 -4 -140 69 -112 34 13 43 26 43 62 0 56 -77 90
-112 50z"/>
<path d="M3262 394 c-22 -15 -30 -66 -14 -90 13 -20 51 -35 76 -28 34 8 49 29
48 65 -2 60 -60 89 -110 53z"/>
<path d="M3790 390 c-52 -52 6 -136 75 -110 28 11 49 53 40 81 -16 50 -78 66
-115 29z"/>
<path d="M1500 330 c-51 -51 6 -136 74 -110 70 26 50 130 -25 130 -16 0 -38
-9 -49 -20z"/>
<path d="M3520 323 c-36 -46 -8 -106 49 -106 63 0 94 70 51 113 -29 29 -74 26
-100 -7z"/>
</g>
</svg>
