<?xml version="1.0" standalone="no"?>
<!DOCTYPE svg PUBLIC "-//W3C//DTD SVG 20010904//EN"
 "http://www.w3.org/TR/2001/REC-SVG-20010904/DTD/svg10.dtd">
<svg version="1.0" xmlns="http://www.w3.org/2000/svg"
 width="1600.000000pt" height="1600.000000pt" viewBox="0 0 1600.000000 1600.000000"
 preserveAspectRatio="xMidYMid meet">
<metadata>
Created by potrace 1.15, written by Peter Selinger 2001-2017
</metadata>
<g transform="translate(0.000000,1600.000000) scale(0.100000,-0.100000)"
fill="#000000" stroke="none">
<path d="M1 11873 c1 -2271 6 -4069 10 -3998 55 883 257 1608 613 2201 l55 91
-14 139 c-42 430 -54 1212 -22 1491 59 516 193 961 410 1363 498 921 1450
1622 2632 1939 237 63 649 141 748 141 15 0 89 43 188 109 504 335 1001 553
1444 632 97 17 4 17 -2982 18 l-3083 1 1 -4127z"/>
<path d="M9650 15989 c464 -77 982 -302 1501 -651 100 -67 156 -98 175 -98 44
0 283 -37 424 -66 824 -166 1574 -522 2145 -1015 131 -113 360 -349 456 -469
488 -610 743 -1314 778 -2143 14 -321 -7 -966 -40 -1281 l-10 -98 56 -94 c280
-469 466 -1020 554 -1644 64 -446 89 -1004 56 -1223 -26 -172 -93 -340 -198
-497 -61 -91 -229 -261 -316 -320 -107 -72 -1791 -1080 -1871 -1120 -93 -46
-208 -84 -320 -105 -137 -26 -391 -21 -514 11 l-29 7 6 -109 c7 -115 59 -585
101 -914 35 -275 46 -452 46 -736 0 -265 -12 -381 -56 -556 -76 -301 -246
-649 -470 -960 -295 -409 -741 -849 -1259 -1244 -356 -271 -484 -340 -735
-400 -71 -17 -197 -19 -2203 -21 -2316 -4 -2213 -6 -2412 52 -135 40 -256 103
-420 220 -1046 748 -1729 1574 -1926 2329 -55 215 -63 287 -62 581 1 301 11
443 53 780 37 291 87 750 96 879 l7 99 -24 -6 c-130 -32 -402 -38 -537 -12
-106 20 -238 67 -322 112 -184 100 -1845 1093 -1907 1139 -237 181 -408 464
-458 764 -11 61 -13 -587 -14 -3552 l-1 -3628 8000 0 8000 0 0 8000 0 8000
-3202 -1 c-1963 -1 -3182 -5 -3148 -10z"/>
<path d="M7690 14618 c0 -567 -41 -1682 -76 -2078 -58 -664 -158 -756 -781
-722 -120 7 -246 17 -280 22 -430 70 -938 439 -1397 1014 -242 302 -471 674
-627 1017 -33 74 -62 135 -62 136 -1 1 -49 -7 -107 -17 -643 -113 -1212 -356
-1637 -699 -132 -106 -322 -303 -417 -430 -236 -318 -382 -684 -441 -1111 -23
-160 -30 -562 -16 -885 13 -320 23 -436 57 -689 35 -263 24 -322 -96 -511
-151 -238 -197 -318 -261 -450 -69 -143 -136 -325 -182 -495 -88 -323 -147
-796 -147 -1179 l0 -160 849 -510 850 -509 69 72 c310 326 508 979 617 2031
24 227 35 302 35 232 0 -75 34 -424 55 -577 86 -593 230 -1123 500 -1830 197
-517 256 -746 274 -1070 11 -213 -1 -389 -59 -829 -65 -505 -78 -633 -86 -882
-8 -223 -1 -290 42 -421 52 -159 170 -355 336 -561 226 -279 749 -755 1121
-1021 l65 -46 1992 0 1993 0 116 87 c657 492 1143 996 1339 1388 91 183 117
315 107 549 -10 267 -25 422 -81 851 -71 546 -81 680 -65 890 25 350 76 545
294 1120 296 779 460 1447 512 2082 27 324 28 326 49 113 69 -711 173 -1219
328 -1610 49 -123 143 -300 206 -385 61 -84 147 -175 164 -175 5 0 390 228
854 506 l844 507 0 136 c0 340 -46 766 -116 1081 -83 371 -196 642 -403 973
-107 171 -136 229 -156 304 -20 77 -19 114 9 326 35 261 45 396 57 796 16 532
-7 805 -95 1121 -221 803 -838 1403 -1771 1723 -189 64 -388 117 -575 151
-220 40 -194 47 -242 -64 -173 -395 -438 -821 -739 -1185 -113 -136 -381 -402
-509 -505 -265 -211 -516 -342 -746 -389 -59 -12 -187 -25 -317 -33 -573 -32
-704 51 -767 487 -47 323 -83 1068 -97 2008 l-6 467 -189 0 -188 0 0 -162z"/>
</g>
</svg>
