<svg height="512pt" viewBox="0 0 512 512" width="512pt" xmlns="http://www.w3.org/2000/svg"><g fill="#455a64"><path d="m309.332031 458.667969h-42.664062c-5.890625 0-10.667969 4.777343-10.667969 10.664062v21.335938c0 12.160156 9.171875 21.332031 21.332031 21.332031h21.335938c12.160156 0 21.332031-9.171875 21.332031-21.332031v-21.335938c0-5.886719-4.777344-10.664062-10.667969-10.664062zm0 0"/><path d="m480 458.667969h-42.667969c-5.886719 0-10.664062 4.777343-10.664062 10.664062v21.335938c0 12.160156 9.171875 21.332031 21.332031 21.332031h21.332031c12.160157 0 21.335938-9.171875 21.335938-21.332031v-21.335938c0-5.886719-4.78125-10.664062-10.667969-10.664062zm0 0"/><path d="m250.792969 326.1875c-4.050781 0-7.550781 1.066406-10.324219 3.15625-3.734375 2.792969-5.800781 7.0625-5.800781 11.988281 0 16.640625 12.90625 28.183594 14.398437 29.441407 1.984375 1.683593 4.4375 2.558593 6.933594 2.558593 1.621094 0 3.242188-.382812 4.777344-1.128906l21.335937-10.667969c3.605469-1.8125 5.886719-5.503906 5.886719-9.535156 0-14.65625-26.410156-25.8125-37.207031-25.8125zm0 0"/><path d="m495.871094 326.1875c-10.792969 0-37.203125 11.15625-37.203125 25.8125 0 4.03125 2.28125 7.722656 5.886719 9.535156l21.332031 10.667969c1.539062.746094 3.160156 1.128906 4.78125 1.128906 2.496093 0 4.949219-.875 6.933593-2.558593 1.492188-1.257813 14.398438-12.800782 14.398438-29.441407 0-8.917969-6.632812-15.144531-16.128906-15.144531zm0 0"/></g><path d="m478.742188 346.347656c-8.875-26.882812-30.421876-53.140625-44.972657-60.4375-8.125-4.054687-35.710937-8.578125-60.4375-8.578125-24.722656 0-52.308593 4.523438-60.480469 8.578125-14.527343 7.296875-36.050781 33.554688-44.925781 60.4375-15.574219 16.765625-22.59375 46.675782-22.59375 69.652344 0 17.578125 1.792969 48.875 13.78125 60.886719 2.007813 1.984375 4.714844 3.113281 7.554688 3.113281h41c7.296875 2.261719 36.203125 10.667969 65.664062 10.667969 29.460938 0 58.371094-8.40625 65.664063-10.667969h41.003906c2.835938 0 5.546875-1.128906 7.550781-3.113281 11.992188-11.992188 13.78125-43.285157 13.78125-60.886719 0-22.976562-6.996093-52.886719-22.589843-69.652344zm0 0" fill="#00bcd4"/><path d="m217.171875 382.976562c-6.996094-9.386718-14.503906-23.53125-14.503906-41.644531 0-15.039062 6.78125-28.757812 18.621093-37.609375 8.257813-6.207031 18.476563-9.535156 29.503907-9.535156 2.433593 0 5.207031.339844 8 .746094 11.839843-16.832032 26.136719-30.804688 39.703125-37.632813 15.679687-7.785156 50.21875-11.988281 74.835937-11.988281 24.640625 0 59.203125 4.179688 74.753907 11.96875 13.589843 6.804688 27.925781 20.796875 39.785156 37.652344 2.796875-.40625 5.570312-.746094 8-.746094 5.71875 0 11.074218 1.109375 16.128906 2.816406v-222.335937h-512v256c0 29.4375 23.894531 53.332031 53.332031 53.332031h158.082031l5.609376-.085938c.066406-.320312.085937-.617187.148437-.9375zm0 0" fill="#eceff1"/><path d="m249.601562 294.1875c-10.667968.210938-20.480468 3.625-28.375 9.597656-8.960937 6.613282-14.933593 16.214844-17.28125 26.882813h-150.613281c0-21.761719 14.933594-40.746094 36.054688-46.082031l38.1875-9.597657 4.480469-18.136719c-10.242188-9.597656-16.855469-23.679687-17.921876-37.542968h-1.492187c-4.695313 0-8.746094-3.414063-9.386719-8.109375l-2.347656-18.558594c-.640625-5.546875 3.628906-10.453125 9.386719-10.453125h.855469s-2.136719-17.28125-2.136719-23.039062c0-16.640626 4.269531-32.214844 41.816406-32.640626 12.371094-8.746093 25.8125-9.175781 33.492187-9.175781 14.71875 0 25.386719 4.695313 31.359376 13.867188 5.972656 9.175781 5.972656 16.855469 0 23.253906l-4.691407 4.695313-1.066406 23.039062c5.542969.210938 9.8125 4.90625 9.171875 10.453125l-2.347656 18.558594c-.640625 4.695312-4.691406 8.109375-9.386719 8.109375h-.425781c-1.066406 14.292968-8.105469 28.796875-18.773438 38.183594l4.265625 17.496093 38.1875 9.597657c7.253907 1.707031 13.441407 5.121093 18.988281 9.601562zm0 0" fill="#455a64"/><path d="m512 53.332031v21.335938h-512v-21.335938c0-29.4375 23.894531-53.332031 53.332031-53.332031h405.335938c29.4375 0 53.332031 23.894531 53.332031 53.332031zm0 0" fill="#455a64"/><path d="m322.367188 305.023438c4.011718-1.835938 26.816406-6.355469 50.964843-6.355469 24.152344 0 46.957031 4.519531 50.902344 6.335937 8.085937 4.050782 26.835937 25.300782 34.28125 48.425782-20.050781 2.835937-67.453125 9.238281-85.183594 9.238281-17.726562 0-65.128906-6.402344-85.183593-9.238281 7.46875-23.125 26.199218-44.375 34.21875-48.40625zm0 0" fill="#fafafa"/><path d="m203.882812 341.332031h-150.550781c-5.886719 0-10.664062-4.777343-10.664062-10.664062 0-26.753907 18.132812-49.964844 44.050781-56.449219l32.023438-7.980469 1.554687-6.269531c-7.785156-8.960938-13.375-20.226562-15.761719-31.851562-6.507812-2.835938-10.925781-8.597657-11.800781-15.550782l-2.300781-18.5625c-.726563-5.628906 1.023437-11.347656 4.820312-15.65625 1.28125-1.429687 2.707032-2.667968 4.289063-3.671875-.597657-5.480469-1.238281-12.09375-1.238281-15.613281 0-17.855469 5.160156-41.515625 49.066406-43.050781 14.890625-9.34375 30.230468-9.34375 37.035156-9.34375 23.101562 0 34.601562 10.21875 40.191406 18.75 11.777344 17.984375 4.332032 30.484375-1.171875 36.308593l-1.941406 1.964844-.554687 11.328125c1.425781.960938 2.75 2.109375 3.902343 3.433594 3.734375 4.246094 5.460938 9.941406 4.757813 15.550781l-2.304688 18.519532c-.832031 6.71875-4.992187 12.328124-10.6875 15.273437-2.433594 12.160156-8.339844 23.871094-16.640625 33.046875l1.324219 5.375 32.019531 7.980469c8.425781 2.132812 16.191407 6.121093 23.105469 11.902343 4.5 3.796876 5.097656 10.515626 1.320312 15.039063-3.816406 4.523437-10.515624 5.097656-15.039062 1.324219-4.414062-3.710938-9.320312-6.25-14.589844-7.554688l-38.230468-9.535156c-3.839844-.960938-6.804688-3.945312-7.765626-7.765625l-4.351562-17.429687c-.960938-3.839844.296875-7.890626 3.21875-10.515626 8.578125-7.703124 14.488281-19.625 15.40625-31.125.445312-5.570312 5.054688-9.835937 10.621094-9.835937l1.386718-17.320313c-2.898437-.042968-4.96875-.449218-6.953124-2.5625-2.003907-2.132812-2.347657-4.136718-2.21875-7.039062l1.152343-23.230469c.128907-2.648437 1.238281-5.164062 3.113281-7.019531l4.628907-4.628906c1.195312-1.28125 2.964843-3.160156-1.363281-9.8125-1.496094-2.261719-5.953126-9.089844-22.335938-9.089844-5.613281 0-17.300781 0-27.476562 7.273438-1.792969 1.28125-3.90625 1.984374-6.101563 2.007812-31.191406.296875-31.191406 10.730469-31.191406 21.78125 0 3.773438 1.300781 15.402344 2.113281 21.84375.382812 3.050781-.554688 6.082031-2.582031 8.40625-2.027344 2.28125-4.949219 3.605469-8 3.605469l2.753906 17.003906c5.566406 0 10.300781 3.046875 10.75 8.59375.894531 11.285156 6.421875 22.722656 14.71875 30.550781 2.816406 2.644532 3.992187 6.613282 3.050781 10.347656l-4.542968 18.195313c-.960938 3.839844-3.945313 6.804687-7.765626 7.765625l-38.230468 9.535156c-12.839844 3.203125-22.65625 12.886719-26.324219 25.070313l138.304687.019531c5.886719 0 10.667969 4.777344 10.667969 10.667969 0 5.886719-4.78125 10.664062-10.667969 10.664062zm0 0"/><path d="m211.15625 384h-157.824219c-29.417969 0-53.332031-23.914062-53.332031-53.332031v-277.335938c0-29.417969 23.914062-53.332031 53.332031-53.332031h405.335938c29.417969 0 53.332031 23.914062 53.332031 53.332031v241.28125c0 5.886719-4.777344 10.667969-10.667969 10.667969-5.886719 0-10.664062-4.78125-10.664062-10.667969v-241.28125c0-17.640625-14.359375-32-32-32h-405.335938c-17.640625 0-32 14.359375-32 32v277.335938c0 17.640625 14.359375 32 32 32h157.824219c5.890625 0 10.667969 4.777343 10.667969 10.664062 0 5.890625-4.757813 10.667969-10.667969 10.667969zm0 0"/><path d="m373.332031 170.667969h-64c-5.886719 0-10.664062-4.78125-10.664062-10.667969s4.777343-10.667969 10.664062-10.667969h64c5.890625 0 10.667969 4.78125 10.667969 10.667969s-4.777344 10.667969-10.667969 10.667969zm0 0"/><path d="m458.667969 170.667969h-42.667969c-5.886719 0-10.667969-4.78125-10.667969-10.667969s4.78125-10.667969 10.667969-10.667969h42.667969c5.886719 0 10.664062 4.78125 10.664062 10.667969s-4.777343 10.667969-10.664062 10.667969zm0 0"/><path d="m458.667969 234.667969h-149.335938c-5.886719 0-10.664062-4.78125-10.664062-10.667969s4.777343-10.667969 10.664062-10.667969h149.335938c5.886719 0 10.664062 4.78125 10.664062 10.667969s-4.777343 10.667969-10.664062 10.667969zm0 0"/><path d="m501.332031 85.332031h-490.664062c-5.890625 0-10.667969-4.777343-10.667969-10.664062 0-5.890625 4.777344-10.667969 10.667969-10.667969h490.664062c5.890625 0 10.667969 4.777344 10.667969 10.667969 0 5.886719-4.777344 10.664062-10.667969 10.664062zm0 0"/><path d="m394.667969 426.667969h-42.667969c-5.886719 0-10.667969-4.78125-10.667969-10.667969s4.78125-10.667969 10.667969-10.667969h42.667969c5.886719 0 10.664062 4.78125 10.664062 10.667969s-4.777343 10.667969-10.664062 10.667969zm0 0"/><path d="m309.332031 426.667969c-5.886719 0-10.664062-4.78125-10.664062-10.667969 0-5.484375-17.6875-10.433594-32.171875-10.667969-5.886719-.085937-10.582032-4.925781-10.496094-10.835937.085938-5.824219 4.863281-10.496094 10.667969-10.496094h.167969c5.441406.085938 53.164062 1.707031 53.164062 32 0 5.886719-4.777344 10.667969-10.667969 10.667969zm0 0"/><path d="m469.332031 512h-21.332031c-11.96875 0-21.332031-9.367188-21.332031-21.332031v-7.234375c-12.886719 3.222656-32.984375 7.234375-53.335938 7.234375-20.351562 0-40.445312-4.011719-53.332031-7.234375v7.234375c0 11.964843-9.367188 21.332031-21.332031 21.332031h-21.335938c-11.964843 0-21.332031-9.367188-21.332031-21.332031v-17.664063c-9.195312-13.890625-10.667969-41.066406-10.667969-57.003906 0-22.847656 7-52.714844 22.59375-69.609375 8.851563-26.964844 30.464844-53.269531 44.992188-60.523437 8.105469-4.03125 35.648437-8.535157 60.414062-8.535157 24.769531 0 52.3125 4.503907 60.394531 8.535157 14.570313 7.253906 36.160157 33.558593 45.015626 60.523437 15.574218 16.894531 22.589843 46.738281 22.589843 69.609375 0 15.9375-1.46875 43.113281-10.664062 57.003906v17.664063c0 11.964843-9.367188 21.332031-21.335938 21.332031zm-32-53.332031c2.21875 0 4.394531.679687 6.230469 2.023437 2.792969 1.984375 4.4375 5.230469 4.4375 8.640625v21.335938h21.332031v-21.335938c0-2.835937 1.132813-5.546875 3.117188-7.550781 3.136719-3.113281 7.550781-19.414062 7.550781-45.78125 0-19.285156-6.207031-44.84375-18.089844-56.339844-1.324218-1.28125-2.285156-2.882812-2.816406-4.628906-7.082031-23.789062-26.625-45.953125-34.902344-50.09375-3.925781-1.789062-26.6875-6.269531-50.859375-6.269531-24.167969 0-46.933593 4.480469-50.921875 6.3125-8.234375 4.097656-27.777344 26.261719-34.859375 50.070312-.511719 1.75-1.492187 3.347657-2.816406 4.628907-11.859375 11.476562-18.066406 37.035156-18.066406 56.320312 0 26.367188 4.414062 42.667969 7.550781 45.78125 1.984375 2.003906 3.113281 4.714844 3.113281 7.550781v21.335938h21.335938v-21.335938c0-3.410156 1.640625-6.65625 4.4375-8.640625 2.773437-2.023437 6.3125-2.535156 9.597656-1.46875.300781.085938 30.847656 10.109375 60.628906 10.109375s60.332031-10.023437 60.628907-10.132812c1.109374-.339844 2.242187-.53125 3.371093-.53125zm0 0"/><path d="m373.332031 384c-24.148437 0-94.570312-10.324219-97.554687-10.773438-5.804688-.875-9.855469-6.292968-9.003906-12.117187.875-5.800781 6.25-9.707031 12.117187-9.003906.703125.128906 71.828125 10.5625 94.441406 10.5625s93.738281-10.433594 94.445313-10.5625c5.929687-.722657 11.242187 3.179687 12.117187 9.003906.851563 5.824219-3.179687 11.242187-9.003906 12.117187-2.988281.449219-73.40625 10.773438-97.558594 10.773438zm0 0"/><path d="m437.332031 426.667969c-5.886719 0-10.664062-4.78125-10.664062-10.667969 0-30.292969 47.722656-31.914062 53.160156-32 6.015625.832031 10.730469 4.609375 10.839844 10.476562.085937 5.886719-4.609375 10.75-10.476563 10.855469-14.589844.277344-32.191406 5.078125-32.191406 10.667969 0 5.886719-4.777344 10.667969-10.667969 10.667969zm0 0"/><path d="m309.332031 480h-42.664062c-5.890625 0-10.667969-4.777344-10.667969-10.667969 0-5.886719 4.777344-10.664062 10.667969-10.664062h42.664062c5.890625 0 10.667969 4.777343 10.667969 10.664062 0 5.890625-4.777344 10.667969-10.667969 10.667969zm0 0"/><path d="m480 480h-42.667969c-5.886719 0-10.664062-4.777344-10.664062-10.667969 0-5.886719 4.777343-10.664062 10.664062-10.664062h42.667969c5.886719 0 10.667969 4.777343 10.667969 10.664062 0 5.890625-4.78125 10.667969-10.667969 10.667969zm0 0"/><path d="m256 373.332031c-2.453125 0-4.90625-.832031-6.933594-2.558593-1.492187-1.257813-14.398437-12.800782-14.398437-29.441407 0-4.925781 2.066406-9.195312 5.78125-11.988281 2.792969-2.113281 6.269531-3.15625 10.324219-3.15625 10.792968 0 37.207031 11.15625 37.207031 25.8125 0 5.886719-4.78125 10.667969-10.667969 10.667969-4.800781 0-8.832031-3.136719-10.199219-7.511719-1.554687-1.535156-4.714843-3.433594-7.914062-4.949219 1.792969 2.605469 3.671875 4.308594 3.710937 4.351563 4.480469 3.839844 4.992188 10.5625 1.175782 15.042968-2.089844 2.453126-5.078126 3.730469-8.085938 3.730469zm10.667969-21.332031"/><path d="m490.667969 373.332031c-3.007813 0-5.996094-1.277343-8.109375-3.730469-3.839844-4.480468-3.304688-11.203124 1.175781-15.042968.851563-.746094 2.34375-2.324219 3.730469-4.371094-3.199219 1.515625-6.375 3.433594-7.933594 4.96875-1.367188 4.375-5.398438 7.511719-10.199219 7.511719-5.886719 0-10.664062-4.78125-10.664062-10.667969 0-14.65625 26.410156-25.8125 37.203125-25.8125 9.496094 0 16.128906 6.226562 16.128906 15.144531 0 16.640625-12.90625 28.183594-14.398438 29.441407-2.027343 1.726562-4.480468 2.558593-6.933593 2.558593zm-10.667969-21.332031"/></svg>