<!DOCTYPE svg PUBLIC "-//W3C//DTD SVG 20010904//EN" "http://www.w3.org/TR/2001/REC-SVG-20010904/DTD/svg10.dtd">
<svg version="1.0" xmlns="http://www.w3.org/2000/svg" width="217px" height="370px" viewBox="0 0 2170 3700" preserveAspectRatio="xMidYMid meet">
<g id="layer101" fill="#ee2d4e" stroke="none">
 <path d="M840 3324 c-30 -8 -75 -28 -100 -44 -25 -16 -90 -52 -145 -80 -54 -28 -107 -58 -117 -67 -24 -21 -23 -68 1 -102 22 -31 113 -82 179 -102 34 -10 47 -21 63 -50 48 -96 59 -225 34 -409 -20 -147 -18 -245 6 -353 25 -111 28 -196 11 -344 -21 -186 1 -267 124 -463 45 -73 55 -99 68 -172 9 -48 18 -100 22 -115 24 -98 136 -233 226 -272 29 -13 61 -27 70 -32 34 -17 125 -10 180 15 95 42 128 100 128 221 0 106 -27 178 -115 310 -41 61 -79 124 -85 140 -6 17 -18 84 -26 151 -10 88 -25 152 -55 238 -48 139 -51 197 -19 350 25 124 25 218 0 348 -39 196 -36 353 8 390 9 8 48 23 86 33 79 21 141 63 168 117 25 47 15 68 -55 112 -29 19 -70 54 -93 79 -79 86 -178 117 -379 116 -81 0 -151 -6 -185 -15z"/>
 </g>
<g id="layer102" fill="#f76d8f" stroke="none">
 <path d="M903 3333 c9 -2 25 -2 35 0 9 3 1 5 -18 5 -19 0 -27 -2 -17 -5z"/>
 <path d="M1123 3333 c9 -2 25 -2 35 0 9 3 1 5 -18 5 -19 0 -27 -2 -17 -5z"/>
 <path d="M1254 3304 c69 -22 86 -33 135 -85 31 -32 78 -72 104 -89 26 -16 50 -37 53 -45 12 -29 -16 -83 -58 -111 -34 -24 -51 -29 -94 -27 -51 2 -55 0 -89 -39 -19 -23 -35 -49 -35 -57 0 -10 5 -7 13 8 15 30 24 35 112 60 79 23 134 63 159 116 22 45 11 65 -57 109 -29 19 -71 55 -94 80 -46 50 -121 91 -188 101 -26 4 -12 -4 39 -21z"/>
 <path d="M737 3280 c-26 -16 -47 -32 -47 -36 0 -4 6 -2 13 4 6 6 32 22 57 36 25 14 40 26 34 26 -5 0 -31 -13 -57 -30z"/>
 <path d="M610 3205 c-14 -8 -20 -14 -15 -14 6 0 21 6 35 14 14 8 21 14 15 14 -5 0 -21 -6 -35 -14z"/>
 <path d="M467 3123 c-4 -3 -7 -21 -7 -39 0 -25 9 -43 36 -69 20 -20 38 -34 41 -31 3 2 -12 19 -32 37 -32 29 -36 37 -33 71 2 21 3 38 2 38 0 0 -4 -3 -7 -7z"/>
 <path d="M590 2956 c14 -7 45 -20 69 -27 38 -11 47 -20 68 -63 17 -36 23 -42 18 -21 -4 17 -21 49 -38 72 -26 33 -38 41 -62 40 -16 -1 -41 2 -55 6 l-25 8 25 -15z"/>
 <path d="M772 2640 c-1 -30 -4 -80 -7 -110 -5 -53 -4 -54 6 -15 5 22 8 72 6 110 -3 65 -3 66 -5 15z"/>
 <path d="M1262 2610 c0 -19 2 -27 5 -17 2 9 2 25 0 35 -3 9 -5 1 -5 -18z"/>
 <path d="M1285 2490 c16 -125 16 -230 1 -311 -22 -115 -19 -135 5 -29 22 101 23 221 4 310 -8 36 -12 49 -10 30z"/>
 <path d="M742 2295 c0 -55 6 -122 14 -150 11 -43 12 -45 7 -10 -3 22 -9 90 -13 150 l-7 110 -1 -100z"/>
 <path d="M1263 2020 c0 -25 2 -35 4 -22 2 12 2 32 0 45 -2 12 -4 2 -4 -23z"/>
 <path d="M781 2009 c0 -19 4 -43 9 -54 6 -13 7 -2 3 30 -7 59 -13 72 -12 24z"/>
 <path d="M1262 1940 c0 -19 2 -27 5 -17 2 9 2 25 0 35 -3 9 -5 1 -5 -18z"/>
 <path d="M775 1815 c-4 -47 -5 -88 -2 -91 3 -3 8 33 12 81 4 47 5 88 2 91 -3 3 -8 -33 -12 -81z"/>
 <path d="M1296 1810 c3 -14 11 -32 16 -40 6 -10 7 -7 2 10 -3 14 -11 32 -16 40 -6 10 -7 7 -2 -10z"/>
 <path d="M1331 1710 c1 -8 7 -46 15 -85 l14 -70 -5 61 c-4 53 -24 133 -24 94z"/>
 <path d="M766 1642 c8 -111 35 -181 130 -332 45 -73 55 -99 68 -172 9 -48 18 -100 22 -115 24 -98 136 -233 226 -272 29 -13 61 -27 70 -32 24 -12 51 -11 43 1 -3 6 -14 10 -24 10 -38 0 -159 71 -205 120 -62 66 -90 131 -115 263 -19 100 -26 117 -90 223 -71 118 -102 200 -120 314 l-10 65 5 -73z"/>
 <path d="M1362 1520 c0 -19 2 -27 5 -17 2 9 2 25 0 35 -3 9 -5 1 -5 -18z"/>
 <path d="M1456 1278 c4 -7 18 -27 30 -43 35 -46 73 -137 89 -207 10 -46 14 -54 14 -30 1 50 -36 148 -85 224 -24 37 -46 68 -49 68 -4 0 -3 -6 1 -12z"/>
 <path d="M1581 900 c-2 -42 -36 -105 -72 -134 -19 -15 -24 -23 -13 -17 49 24 102 117 91 158 -3 13 -5 10 -6 -7z"/>
 </g>

</svg>