<svg height="512" viewBox="0 0 64 64" width="512" xmlns="http://www.w3.org/2000/svg"><path d="m59 26v29a2.006 2.006 0 0 1 -2 2h-5v-33h5a2.006 2.006 0 0 1 2 2z" fill="#806749"/><path d="m55 30v29a2.006 2.006 0 0 1 -2 2h-48a2.006 2.006 0 0 1 -2-2v-33a2.006 2.006 0 0 0 2 2h48a2.006 2.006 0 0 1 2 2z" fill="#957856"/><path d="m10 24v4h-5a2.006 2.006 0 0 1 -2-2 2.015 2.015 0 0 1 2-2z" fill="#806749"/><path d="m10 3h22v25h-22z" fill="#00ccb3"/><path d="m61 42v4a4.01 4.01 0 0 1 -4 4h-8a4 4 0 0 1 -4-4v-4a4 4 0 0 1 4-4h8a4 4 0 0 1 4 4z" fill="#c0ab91"/><path d="m52 9v19h-13v-21h11a2.006 2.006 0 0 1 2 2z" fill="#5aaae7"/><path d="m46 11a1.992 1.992 0 0 1 1.31 3.5 2 2 0 1 1 -2.62 0 1.992 1.992 0 0 1 1.31-3.5z" fill="#ff9811"/><path d="m35 7h4v21h-4z" fill="#46f8ff"/><path d="m35 7v21h-3v-19-2z" fill="#5aaae7"/><path d="m32 7v2a6.325 6.325 0 0 1 -.86-.06 6.008 6.008 0 0 1 -5.14-5.94h6z" fill="#5eac24"/><path d="m10 3h6a6 6 0 0 1 -6 6z" fill="#5eac24"/><circle cx="21" cy="20" fill="#ffda44" r="8"/><circle cx="51" cy="44" fill="#e0e0e2" r="2"/><path d="m22 19v-2a1 1 0 0 1 1 1h2a3 3 0 0 0 -3-3v-1h-2v1a3 3 0 0 0 0 6v2a1 1 0 0 1 -1-1h-2a3 3 0 0 0 3 3v1h2v-1a3 3 0 0 0 0-6zm-3-1a1 1 0 0 1 1-1v2a1 1 0 0 1 -1-1zm3 5v-2a1 1 0 0 1 0 2z" fill="#fff"/></svg>