<svg height="388pt" viewBox="0 0 388 388.23936" width="388pt" xmlns="http://www.w3.org/2000/svg"><path d="m102.519531 388.238281c-27.351562 0-53.074219-10.652343-72.40625-30-19.339843-19.332031-29.992187-45.050781-29.992187-72.398437s10.652344-53.066406 29.992187-72.414063l91.710938-91.71875c5.121093-5.121093 14.1875-5.121093 19.308593 0l125.503907 125.519531c5.335937 5.332032 5.335937 13.972657 0 19.304688l-91.710938 91.707031c-19.339843 19.347657-45.054687 30-72.40625 30zm28.957031-237.570312-82.058593 82.066406c-14.179688 14.183594-21.992188 33.050781-21.992188 53.105469 0 20.054687 7.804688 38.90625 21.992188 53.09375 14.1875 14.183594 33.039062 22 53.101562 22 20.050781 0 38.914063-7.8125 53.097657-22l82.058593-82.054688zm0 0" fill="#5c128d"/><path d="m256.988281 256.875 91.714844-91.71875c34.65625-34.65625 34.65625-90.847656 0-125.503906-34.65625-34.660156-90.847656-34.660156-125.507813 0l-91.714843 91.714844zm0 0" fill="#f35cd2"/><path d="m256.988281 270.53125c-3.621093 0-7.09375-1.4375-9.65625-4l-125.503906-125.519531c-5.335937-5.332031-5.335937-13.972657 0-19.304688l91.710937-91.707031c19.339844-19.347656 45.054688-30 72.40625-30 27.355469 0 53.074219 10.652344 72.410157 30 19.339843 19.332031 29.992187 45.050781 29.992187 72.398438 0 27.347656-10.652344 53.070312-29.992187 72.414062l-91.714844 91.722656c-2.5625 2.558594-6.035156 3.996094-9.652344 3.996094zm-106.203125-139.171875 106.203125 106.214844 82.058594-82.066407c14.179687-14.1875 21.992187-33.054687 21.992187-53.109374 0-20.050782-7.804687-38.90625-21.992187-53.089844-14.1875-14.1875-33.039063-22-53.101563-22-20.050781 0-38.910156 7.8125-53.097656 22zm0 0" fill="#5c128d"/><path d="m322.460938 92.066406c-4.355469 0-8.636719-2.082031-11.28125-5.933594-6.386719-9.332031-16.929688-14.894531-28.199219-14.894531-9.121094 0-17.6875 3.546875-24.140625 10-5.335938 5.335938-13.976563 5.335938-19.308594 0-5.332031-5.332031-5.332031-13.972656 0-19.304687 11.609375-11.613282 27.035156-18 43.449219-18 20.285156 0 39.253906 10 50.734375 26.761718 4.257812 6.222657 2.671875 14.71875-3.554688 18.984376-2.355468 1.613281-5.042968 2.386718-7.699218 2.386718zm0 0" fill="#fff"/></svg>