<?xml version="1.0" encoding="iso-8859-1"?>
<!-- Generator: Adobe Illustrator 19.0.0, SVG Export Plug-In . SVG Version: 6.00 Build 0)  -->
<svg version="1.1" id="Layer_1" xmlns="http://www.w3.org/2000/svg" xmlns:xlink="http://www.w3.org/1999/xlink" x="0px" y="0px"
	 viewBox="0 0 512 512" style="enable-background:new 0 0 512 512;" xml:space="preserve">
<g>
	<g>
		<path d="M460.699,0H51.301C23.014,0,0,23.014,0,51.301V460.7C0,488.987,23.014,512,51.301,512h409.397
			C488.986,512,512,488.987,512,460.7V51.301C512,23.014,488.986,0,460.699,0z M491.52,460.7c0,16.995-13.826,30.82-30.821,30.82
			H51.301c-16.995,0-30.821-13.825-30.821-30.82V51.301c0-16.995,13.826-30.821,30.821-30.821h409.397
			c16.995,0,30.821,13.826,30.821,30.821V460.7z"/>
	</g>
</g>
<g>
	<g>
		<path d="M430.08,366.666V145.334c18.346-10.64,30.72-30.482,30.72-53.174c0-33.879-27.561-61.44-61.44-61.44
			s-61.44,27.561-61.44,61.44c0,22.692,12.374,42.534,30.72,53.174v69.706h-81.92v-69.706c18.346-10.64,30.72-30.482,30.72-53.174
			c0-33.879-27.561-61.44-61.44-61.44s-61.44,27.561-61.44,61.44c0,22.692,12.374,42.534,30.72,53.174v69.706h-81.92v-69.706
			c18.346-10.64,30.72-30.482,30.72-53.174c0-33.879-27.561-61.44-61.44-61.44S51.2,58.281,51.2,92.16
			c0,22.692,12.374,42.534,30.72,53.174V266.24c0,5.655,4.585,10.24,10.24,10.24h133.12v90.186
			c-18.346,10.641-30.72,30.483-30.72,53.174c0,33.878,27.561,61.44,61.44,61.44s61.44-27.563,61.44-61.44
			c0-22.691-12.374-42.534-30.72-53.174V276.48h81.92v90.186c-18.346,10.641-30.72,30.484-30.72,53.174
			c0,33.878,27.561,61.44,61.44,61.44s61.44-27.563,61.44-61.44C460.8,397.149,448.426,377.306,430.08,366.666z M358.4,92.16
			c0-22.585,18.375-40.96,40.96-40.96s40.96,18.375,40.96,40.96s-18.375,40.96-40.96,40.96S358.4,114.745,358.4,92.16z
			 M215.04,92.16c0-22.585,18.375-40.96,40.96-40.96s40.96,18.375,40.96,40.96s-18.375,40.96-40.96,40.96
			S215.04,114.745,215.04,92.16z M71.68,92.16c0-22.585,18.375-40.96,40.96-40.96s40.96,18.375,40.96,40.96
			s-18.375,40.96-40.96,40.96S71.68,114.745,71.68,92.16z M296.96,419.84c0,22.585-18.375,40.96-40.96,40.96
			s-40.96-18.375-40.96-40.96s18.375-40.96,40.96-40.96S296.96,397.255,296.96,419.84z M276.48,256
			c-5.655,0-10.24,4.585-10.24,10.24v93.029c-3.333-0.562-6.75-0.869-10.24-0.869s-6.907,0.308-10.24,0.869V266.24
			c0-5.655-4.585-10.24-10.24-10.24H102.4V152.731c3.333,0.562,6.75,0.869,10.24,0.869s6.907-0.308,10.24-0.869v72.549
			c0,5.655,4.585,10.24,10.24,10.24h102.4c5.655,0,10.24-4.585,10.24-10.24v-72.549c3.333,0.562,6.75,0.869,10.24,0.869
			s6.907-0.308,10.24-0.869v72.549c0,5.655,4.585,10.24,10.24,10.24h102.4c5.655,0,10.24-4.585,10.24-10.24v-72.549
			c3.333,0.562,6.75,0.869,10.24,0.869s6.907-0.308,10.24-0.869v206.539c-3.333-0.562-6.75-0.869-10.24-0.869
			s-6.907,0.308-10.24,0.869V266.24c0-5.655-4.585-10.24-10.24-10.24H276.48z M399.36,460.8c-22.585,0-40.96-18.375-40.96-40.96
			s18.375-40.96,40.96-40.96s40.96,18.375,40.96,40.96S421.945,460.8,399.36,460.8z"/>
	</g>
</g>
<g>
</g>
<g>
</g>
<g>
</g>
<g>
</g>
<g>
</g>
<g>
</g>
<g>
</g>
<g>
</g>
<g>
</g>
<g>
</g>
<g>
</g>
<g>
</g>
<g>
</g>
<g>
</g>
<g>
</g>
</svg>
