<svg height="512pt" viewBox="0 -43 512.00148 512" width="512pt" xmlns="http://www.w3.org/2000/svg"><path d="m475.386719 242.679688c-.34375 12.492187-1.074219 22.820312-2.058594 29.957031h-434.65625c-.984375-7.136719-1.714844-17.464844-2.058594-29.957031-2.007812-70.398438 7.96875-209.203126 52.992188-227.96875 53.015625-22.082032 106.027343 14.730468 166.402343 14.730468 60.371094 0 113.382813-36.8125 166.386719-14.730468 45.023438 18.765624 55 157.570312 52.992188 227.96875zm0 0" fill="#fb6572"/><path d="m165.871094 12.835938c-1.632813.566406-3.277344 1.195312-4.917969 1.875-53.011719 22.089843-57.433594 210.582031-50.933594 257.925781h-71.34375c-6.5-47.34375-2.078125-235.835938 50.921875-257.925781 25.164063-10.484376 50.316406-7.695313 76.273438-1.875zm0 0" fill="#ea394e"/><path d="m475.386719 242.679688c-.34375 12.492187-1.074219 22.820312-2.058594 29.957031h-434.65625c-.984375-7.136719-1.714844-17.464844-2.058594-29.957031.679688-.160157 1.371094-.304688 2.058594-.425782 143.792969-25.195312 290.867187-25.195312 434.65625 0 .691406.121094 1.378906.265625 2.058594.425782zm0 0" fill="#ea394e"/><path d="m503.601562 317.125c-4.945312 23.875-9.882812 47.761719-14.832031 71.636719-4.105469 19.820312-23.207031 32.726562-43.148437 29.269531-91.730469-15.886719-184.960938-20.152344-277.503906-12.8125-.011719 0-.011719 0-.019532 0-34.035156 2.695312-67.96875 6.972656-101.707031 12.8125-19.941406 3.457031-39.054687-9.449219-43.148437-29.269531-4.949219-23.875-9.894532-47.761719-14.84375-71.636719-4.289063-20.710938 9.4375-40.824219 30.273437-44.484375 32.960937-5.78125 66.101563-10.230469 99.335937-13.351563 111.722657-10.515624 224.5-6.0625 335.320313 13.351563 20.847656 3.660156 34.5625 23.773437 30.273437 44.484375zm0 0" fill="#fb6572"/><path d="m168.097656 405.214844c-34.035156 2.699218-67.96875 6.976562-101.707031 12.816406-19.941406 3.457031-39.054687-9.449219-43.148437-29.269531-4.949219-23.875-9.894532-47.761719-14.84375-71.636719-4.289063-20.710938 9.4375-40.828125 30.273437-44.488281 32.960937-5.777344 66.101563-10.226563 99.335937-13.351563-59.664062 7.058594-51.910156 138.1875 30.089844 145.929688zm0 0" fill="#ea394e"/><path d="m294.675781 309.921875-24.164062-24.167969c-8.011719-8.011718-21.003907-8.011718-29.019531 0l-24.164063 24.167969c-8.015625 8.011719-8.015625 21.003906 0 29.015625l24.164063 24.167969c8.015624 8.011719 21.007812 8.011719 29.019531 0l24.164062-24.167969c8.015625-8.011719 8.015625-21.003906 0-29.015625zm0 0" fill="#cce6f6"/><path d="m504.210938 284.261719c-5.550782-8.179688-13.417969-14.160157-22.585938-17.308594 3.21875-34.175781 2.441406-113.015625-10.699219-175.132813-.871093-4.109374-4.90625-6.738281-9.015625-5.863281-4.105468.867188-6.734375 4.902344-5.863281 9.011719 12.632813 59.722656 13.574219 135.046875 10.605469 168.824219-139.820313-23.585938-281.460938-23.585938-421.289063 0-2.195312-25.53125-2.34375-77.4375 4.003907-128.652344 7.929687-63.945313 23.664062-105.285156 43.164062-113.410156 29.65625-12.351563 60.335938-4.558594 92.8125 3.6875 22.503906 5.71875 45.777344 11.628906 70.664062 11.628906 24.882813 0 48.15625-5.910156 70.660157-11.628906 32.476562-8.246094 63.152343-16.039063 92.800781-3.6875 11.070312 4.617187 21.125 20.03125 29.078125 44.570312 1.292969 3.992188 5.585937 6.179688 9.578125 4.886719s6.183594-5.582031 4.886719-9.578125c-9.496094-29.300781-22.179688-47.441406-37.695313-53.914063-34.324218-14.300781-67.390625-5.90625-102.394531 2.984376-21.597656 5.488281-43.933594 11.160156-66.917969 11.160156-22.980468 0-45.316406-5.671875-66.917968-11.160156-35.003907-8.890626-68.070313-17.289063-102.40625-2.984376-25.773438 10.738282-43.402344 52.988282-52.40625 125.574219-6.695313 54.023438-6.375 107.523438-3.898438 133.683594-9.167969 3.148437-17.03125 9.132813-22.585938 17.3125-6.898437 10.164063-9.324218 22.378906-6.835937 34.40625l14.839844 71.632813c4.402343 21.304687 22.945312 35.90625 44 35.90625 2.601562 0 5.238281-.226563 7.894531-.683594 8.316406-1.441406 16.769531-2.804688 25.125-4.046875 4.15625-.621094 7.019531-4.488281 6.402344-8.640625-.617188-4.15625-4.480469-7.019532-8.640625-6.402344-8.472657 1.261719-17.046875 2.644531-25.484375 4.105469-16.015625 2.777343-31.128906-7.464844-34.40625-23.320313l-14.839844-71.636718c-1.648438-7.957032-.039062-16.046876 4.527344-22.777344 4.585937-6.757813 11.554687-11.261719 19.609375-12.675782 143.339843-25.113281 288.699219-25.113281 432.03125 0 8.0625 1.414063 15.027343 5.914063 19.617187 12.671876 4.566406 6.730468 6.175782 14.820312 4.527344 22.78125l-14.832031 71.636718c-3.285157 15.851563-18.394531 26.09375-34.40625 23.320313-107.78125-18.660157-217.464844-21.425781-326.003907-8.21875-4.167968.507812-7.136718 4.296875-6.628906 8.46875.507813 4.167969 4.308594 7.132812 8.46875 6.628906 107.0625-13.027344 215.25-10.300781 321.566406 8.105469 24.140626 4.183594 46.9375-11.285156 51.894532-35.21875l14.832031-71.636719c2.492187-12.03125.0625-24.25-6.835937-34.410156zm0 0"/><path d="m256.003906 376.71875c7.511719 0 14.574219-2.925781 19.886719-8.238281l24.164063-24.164063c5.3125-5.3125 8.238281-12.375 8.238281-19.886718 0-7.511719-2.925781-14.574219-8.238281-19.886719l-24.164063-24.164063c-5.3125-5.3125-12.375-8.238281-19.886719-8.238281-7.511718 0-14.574218 2.925781-19.886718 8.238281l-24.164063 24.164063c-5.3125 5.3125-8.238281 12.375-8.238281 19.886719 0 7.511718 2.925781 14.574218 8.238281 19.886718l24.164063 24.164063c5.3125 5.3125 12.375 8.238281 19.886718 8.238281zm-37.082031-52.289062c0-3.449219 1.34375-6.691407 3.785156-9.132813l24.164063-24.164063c2.4375-2.441406 5.683594-3.785156 9.132812-3.785156 3.449219 0 6.695313 1.34375 9.132813 3.785156l24.164062 24.164063c2.441407 2.441406 3.78125 5.683594 3.78125 9.132813 0 3.449218-1.339843 6.695312-3.78125 9.132812l-24.164062 24.164062c-2.4375 2.441407-5.683594 3.785157-9.132813 3.785157-3.449218 0-6.695312-1.34375-9.132812-3.785157l-24.164063-24.164062c-2.441406-2.4375-3.785156-5.683594-3.785156-9.132812zm0 0"/><path d="m276.054688 324.429688c0-4.199219-3.402344-7.601563-7.601563-7.601563h-24.898437c-4.199219 0-7.605469 3.402344-7.605469 7.601563 0 4.199218 3.40625 7.605468 7.605469 7.605468h24.898437c4.199219 0 7.601563-3.40625 7.601563-7.605468zm0 0"/></svg>