<svg xmlns="http://www.w3.org/2000/svg" height="591pt" version="1.1" viewBox="1 -178 591.6 591" width="591pt">
<g id="surface1">
<path d="M 520.550781 51.457031 C 507.730469 43.460938 494.390625 36.347656 480.613281 30.152344 L 449.101562 61.660156 L 132.691406 61.660156 C 92.554688 61.660156 53.125 72.132812 18.28125 92.046875 C 6.972656 98.5 0 110.523438 0 123.535156 L 0 184.144531 L 540.964844 184.144531 L 574.035156 170.875 C 584.886719 166.539062 592 156.023438 592 144.339844 L 592 61.660156 Z M 520.550781 51.457031 " style=" stroke:none;fill-rule:nonzero;fill:rgb(86.666667%,21.960784%,10.196078%);fill-opacity:1;" />
<path d="M 480.613281 30.152344 C 437.234375 10.578125 390.199219 0.441406 342.605469 0.421875 L 330.582031 0.421875 C 274.402344 0.421875 219.121094 14.515625 169.800781 41.421875 L 132.691406 61.660156 L 449.101562 61.660156 Z M 480.613281 30.152344 " style=" stroke:none;fill-rule:nonzero;fill:rgb(26.27451%,58.039216%,80%);fill-opacity:1;" />
<path d="M 265.378906 61.660156 L 449.101562 61.660156 L 480.613281 30.152344 C 457.308594 19.683594 432.894531 11.894531 407.828125 6.941406 Z M 265.378906 61.660156 " style=" stroke:none;fill-rule:nonzero;fill:rgb(24.313725%,53.72549%,74.117647%);fill-opacity:1;" />
<path d="M 551.171875 82.074219 L 592 82.074219 L 592 102.488281 L 551.171875 102.488281 Z M 551.171875 82.074219 " style=" stroke:none;fill-rule:nonzero;fill:rgb(96.078431%,68.235294%,27.058824%);fill-opacity:1;" />
<path d="M 244.964844 82.074219 L 285.792969 82.074219 L 285.792969 102.488281 L 244.964844 102.488281 Z M 244.964844 82.074219 " style=" stroke:none;fill-rule:nonzero;fill:rgb(76.862745%,19.215686%,9.019608%);fill-opacity:1;" />
<path d="M 330.582031 0.421875 C 325.84375 0.421875 321.128906 0.664062 316.414062 0.871094 L 316.414062 61.660156 L 336.828125 61.660156 L 336.828125 0.421875 Z M 330.582031 0.421875 " style=" stroke:none;fill-rule:nonzero;fill:rgb(21.176471%,47.058824%,65.098039%);fill-opacity:1;" />
<path d="M 0 143.316406 L 0 184.144531 L 540.964844 184.144531 L 574.035156 170.875 C 584.886719 166.539062 592 156.023438 592 144.339844 L 592 143.316406 Z M 0 143.316406 " style=" stroke:none;fill-rule:nonzero;fill:rgb(81.568627%,20.392157%,9.411765%);fill-opacity:1;" />
<path d="M 91.863281 112.695312 C 58.035156 112.695312 30.621094 140.113281 30.621094 173.9375 C 30.621094 207.765625 58.035156 235.179688 91.863281 235.179688 C 125.6875 235.179688 153.101562 207.765625 153.101562 173.9375 C 153.101562 140.113281 125.6875 112.695312 91.863281 112.695312 Z M 91.863281 112.695312 " style=" stroke:none;fill-rule:nonzero;fill:rgb(41.176471%,48.235294%,54.901961%);fill-opacity:1;" />
<path d="M 122.484375 173.9375 C 122.484375 190.847656 108.773438 204.558594 91.863281 204.558594 C 74.949219 204.558594 61.242188 190.847656 61.242188 173.9375 C 61.242188 157.027344 74.949219 143.316406 91.863281 143.316406 C 108.773438 143.316406 122.484375 157.027344 122.484375 173.9375 Z M 122.484375 173.9375 " style=" stroke:none;fill-rule:nonzero;fill:rgb(76.470588%,78.823529%,81.960784%);fill-opacity:1;" />
<path d="M 479.722656 112.695312 C 445.898438 112.695312 418.484375 140.113281 418.484375 173.9375 C 418.484375 207.765625 445.898438 235.179688 479.722656 235.179688 C 513.550781 235.179688 540.964844 207.765625 540.964844 173.9375 C 540.964844 140.113281 513.550781 112.695312 479.722656 112.695312 Z M 479.722656 112.695312 " style=" stroke:none;fill-rule:nonzero;fill:rgb(41.176471%,48.235294%,54.901961%);fill-opacity:1;" />
<path d="M 510.34375 173.9375 C 510.34375 190.847656 496.636719 204.558594 479.722656 204.558594 C 462.8125 204.558594 449.101562 190.847656 449.101562 173.9375 C 449.101562 157.027344 462.8125 143.316406 479.722656 143.316406 C 496.636719 143.316406 510.34375 157.027344 510.34375 173.9375 Z M 510.34375 173.9375 " style=" stroke:none;fill-rule:nonzero;fill:rgb(76.470588%,78.823529%,81.960784%);fill-opacity:1;" />
<path d="M 316.414062 61.660156 L 336.828125 61.660156 L 336.828125 184.144531 L 316.414062 184.144531 Z M 316.414062 61.660156 " style=" stroke:none;fill-rule:nonzero;fill:rgb(76.862745%,19.215686%,9.019608%);fill-opacity:1;" />
</g>
</svg>