<?xml version="1.0" encoding="iso-8859-1"?>
<!-- Generator: Adobe Illustrator 19.0.0, SVG Export Plug-In . SVG Version: 6.00 Build 0)  -->
<svg version="1.1" id="Capa_1" xmlns="http://www.w3.org/2000/svg" xmlns:xlink="http://www.w3.org/1999/xlink" x="0px" y="0px"
	 viewBox="0 0 512 512" style="enable-background:new 0 0 512 512;" xml:space="preserve">
<path style="fill:#6F7478;" d="M426.667,35.93h26.947c9.926,0,17.965,8.039,17.965,17.965V71.86c0,9.926-8.039,17.965-17.965,17.965
	h-26.947V35.93z"/>
<path style="fill:#69B0BB;" d="M435.649,503.018H76.351c-19.842,0-35.93-16.088-35.93-35.93V125.754
	c0-19.842,16.088-35.93,35.93-35.93h359.298c19.842,0,35.93,16.088,35.93,35.93v341.333
	C471.579,486.93,455.491,503.018,435.649,503.018z"/>
<path style="fill:#A8A8A8;" d="M372.772,269.474h-89.825v-80.842c0-14.884-12.063-26.947-26.947-26.947
	c-14.884,0-26.947,12.063-26.947,26.947v80.842h-62.877v-80.842c0-14.884-12.063-26.947-26.947-26.947s-26.947,12.063-26.947,26.947
	v215.579c0,14.884,12.063,26.947,26.947,26.947s26.947-12.063,26.947-26.947v-80.842h62.877v80.842
	c0,14.884,12.063,26.947,26.947,26.947c14.884,0,26.947-12.063,26.947-26.947v-80.842h89.825c14.884,0,26.947-12.063,26.947-26.947
	S387.656,269.474,372.772,269.474z"/>
<rect x="345.825" y="145.965" style="fill:#B9B9B9;" width="53.895" height="150.456"/>
<g>
	<rect x="247.018" y="116.772" style="fill:#3B869E;" width="17.965" height="17.965"/>
	<rect x="130.246" y="116.772" style="fill:#3B869E;" width="17.965" height="17.965"/>
	<rect x="130.246" y="458.105" style="fill:#3B869E;" width="17.965" height="17.965"/>
	<rect x="247.018" y="458.105" style="fill:#3B869E;" width="17.965" height="17.965"/>
	<rect x="363.789" y="350.316" style="fill:#3B869E;" width="17.965" height="17.965"/>
</g>
<polygon style="fill:#B94137;" points="399.719,152.702 345.825,152.702 327.86,116.772 327.86,107.789 408.702,107.789 
	408.702,116.772 "/>
<path style="fill:#C7463B;" d="M417.684,116.772H309.895c-9.926,0-17.965-8.039-17.965-17.965v-71.86
	c0-9.926,8.039-17.965,17.965-17.965h107.789c9.926,0,17.965,8.039,17.965,17.965v71.86
	C435.649,108.733,427.61,116.772,417.684,116.772z"/>
<path d="M453.614,26.947h-8.982C444.632,12.09,432.541,0,417.684,0H309.895c-14.857,0-26.947,12.09-26.947,26.947v53.895H76.351
	c-24.765,0-44.912,20.148-44.912,44.912v341.333c0,24.765,20.148,44.912,44.912,44.912h359.298
	c24.765,0,44.912-20.148,44.912-44.912V125.754c0-12.099-4.859-23.049-12.665-31.133c7.581-4.77,12.665-13.159,12.665-22.762V53.895
	C480.561,39.038,468.471,26.947,453.614,26.947z M453.614,44.912c4.949,0,8.982,4.024,8.982,8.982V71.86
	c0,4.958-4.033,8.982-8.982,8.982h-8.982v-35.93H453.614z M300.912,26.947c0-4.958,4.033-8.982,8.982-8.982h107.789
	c4.949,0,8.982,4.024,8.982,8.982v71.86c0,4.958-4.033,8.982-8.982,8.982H313.326h-3.431c-4.949,0-8.982-4.024-8.982-8.982V26.947z
	 M157.193,314.386v89.825c0,9.908-8.057,17.965-17.965,17.965c-9.908,0-17.965-8.057-17.965-17.965V188.632
	c0-9.908,8.057-17.965,17.965-17.965c9.908,0,17.965,8.057,17.965,17.965v89.825h80.842v-89.825c0-9.908,8.057-17.965,17.965-17.965
	s17.965,8.057,17.965,17.965v89.825h62.877v17.965c0,4.967,4.024,8.982,8.982,8.982h42.415c-3.117,5.345-8.848,8.982-15.468,8.982
	h-98.807v89.825c0,9.908-8.057,17.965-17.965,17.965s-17.965-8.057-17.965-17.965v-89.825H157.193z M354.807,161.684h35.93v125.754
	h-35.93V161.684z M392.704,143.719h-41.328l-8.982-17.965h54.802L392.704,143.719z M462.596,467.088
	c0,14.857-12.09,26.947-26.947,26.947H76.351c-14.857,0-26.947-12.09-26.947-26.947V125.754c0-14.857,12.09-26.947,26.947-26.947
	h206.596c0,14.857,12.09,26.947,26.947,26.947h12.414l14.534,29.067v105.67H291.93v-71.86c0-19.815-16.115-35.93-35.93-35.93
	s-35.93,16.115-35.93,35.93v71.86h-44.912v-71.86c0-19.815-16.115-35.93-35.93-35.93s-35.93,16.115-35.93,35.93v215.579
	c0,19.815,16.115,35.93,35.93,35.93s35.93-16.115,35.93-35.93v-71.86h44.912v71.86c0,19.815,16.115,35.93,35.93,35.93
	s35.93-16.115,35.93-35.93v-71.86h80.842c19.815,0,35.93-16.115,35.93-35.93V153.807l7.015-28.052h1.967
	c14.309,0,25.932-11.246,26.786-25.34c10.518,3.674,18.127,13.581,18.127,25.34V467.088z"/>
<rect x="247.018" y="116.772" width="17.965" height="17.965"/>
<rect x="130.246" y="116.772" width="17.965" height="17.965"/>
<rect x="130.246" y="458.105" width="17.965" height="17.965"/>
<rect x="247.018" y="458.105" width="17.965" height="17.965"/>
<rect x="363.789" y="350.316" width="17.965" height="17.965"/>
<g>
</g>
<g>
</g>
<g>
</g>
<g>
</g>
<g>
</g>
<g>
</g>
<g>
</g>
<g>
</g>
<g>
</g>
<g>
</g>
<g>
</g>
<g>
</g>
<g>
</g>
<g>
</g>
<g>
</g>
</svg>
