<svg height="511pt" viewBox="0 -3 511.99949 511" width="511pt" xmlns="http://www.w3.org/2000/svg"><path d="m504.394531 405.769531s-11.304687 13.574219-32.300781 17.367188c-8.152344 1.460937-17.753906 1.449219-28.710938-1.390625l-62.699218-226.605469v270.355469s-30.261719 31.957031-124.683594 31.957031c-40.796875 0-69.621094-5.960937-89.199219-12.746094-25.730469-8.902343-35.496093-19.210937-35.496093-19.210937v-270.355469l-62.695313 226.605469c-18.019531 4.675781-32.355469 1.683594-42.582031-2.917969-12.054688-5.414063-18.421875-13.058594-18.421875-13.058594 7.257812-159.785156 66.8125-297.78125 66.8125-297.78125 34.867187-34.867187 89.472656-54.292969 89.472656-54.292969h184.21875s54.597656 19.425782 89.460937 54.292969c0 0 59.554688 137.996094 66.824219 297.78125zm0 0" fill="#fb6572"/><path d="m192.746094 53.695312-5.609375 27.554688c-53.035157 18.363281-97.625 38.183594-110.507813 105.566406-12.878906 67.378906-50.601562 232.011719-50.601562 232.011719-12.054688-5.414063-18.421875-13.058594-18.421875-13.058594 7.257812-159.785156 66.8125-297.78125 66.8125-297.78125 34.867187-34.867187 89.472656-54.292969 89.472656-54.292969zm0 0" fill="#ea394e"/><path d="m166.800781 202.671875v282.035156c-25.730469-8.902343-35.496093-19.210937-35.496093-19.210937v-270.355469c0-24.03125-9.753907-46.496094-9.753907-46.496094s45.25 6.203125 45.25 54.027344zm0 0" fill="#ea394e"/><path d="m354.769531 36.804688c0 21.796874-55.195312 67.804687-55.195312 67.804687l-43.5625-43.097656-.011719-.011719-.011719.011719-43.574219 43.097656s-55.195312-46.007813-55.195312-67.804687c0-20.359376 36.785156-27.730469 87.839844-28.613282h.042968c3.558594-.058594 7.199219-.089844 10.898438-.089844 56.65625 0 98.769531 6.914063 98.769531 28.703126zm0 0" fill="#fb6572"/><g fill="#ea394e"><path d="m311.113281 37.664062c-11.191406 14.289063-31.671875 23.847657-55.101562 23.847657h-.023438l-43.574219 43.097656s-55.195312-46.007813-55.195312-67.804687c0-20.359376 36.785156-27.730469 87.839844-28.613282h.042968c45.59375 0 66.011719 29.472656 66.011719 29.472656zm0 0"/><path d="m256 82.109375 19.671875 28.683594c1.953125 2.84375 5.734375 3.746093 8.757813 2.09375l15.144531-8.28125-43.585938-43.09375zm0 0"/><path d="m472.132812 423.117188-.039062.019531c-8.152344 1.460937-17.753906 1.449219-28.710938-1.390625l-62.699218-226.605469c0-24.03125 9.765625-46.496094 9.765625-46.496094zm0 0"/></g><path d="m466.25 164.488281c-1.296875-3.996093-5.582031-6.183593-9.578125-4.890625-3.996094 1.292969-6.183594 5.582032-4.890625 9.578125 15.164062 46.804688 33.378906 114.871094 41.488281 190.851563-14.757812 12.203125-38.980469 13.582031-55.273437 13.738281l-49.695313-179.617187c.261719-21.71875 9.027344-42.273438 9.117188-42.472657 1.671875-3.851562-.09375-8.332031-3.945313-10.003906-3.851562-1.675781-8.328125.09375-10.003906 3.945313-.425781.976562-10.390625 24.199218-10.390625 49.527343v.007813 266.945312c-7.730469 6.238282-38.105469 26.332032-109.476563 27.675782v-410.050782l30.625 30.292969c1.476563 1.457031 3.410157 2.195313 5.347657 2.195313 1.726562 0 3.453125-.582032 4.867187-1.761719.578125-.480469 14.269532-11.925781 28.191406-26.277344 8.109376-8.359375 13.996094-15.371094 18.289063-21.234375 14.15625 5.710938 53.285156 23.007812 80.230469 49.394531 1.433594 3.433594 5.496094 13.371094 10.894531 28.355469 1.117187 3.097656 4.039063 5.027344 7.152344 5.027344.855469 0 1.726562-.144532 2.578125-.453125 3.949218-1.421875 6-5.777344 4.578125-9.730469-6.925781-19.222656-11.605469-30.105469-11.800781-30.558594-.382813-.878906-.925782-1.683594-1.605469-2.363281-27.800781-27.796875-66.925781-45.832031-83.929688-52.824219 3.347657-7.011718 3.359375-10.984375 3.359375-12.976562 0-14.152344-11.402344-24.210938-33.886718-29.894532-17.070313-4.316406-40.785157-6.414062-72.496094-6.414062-31.714844 0-55.425782 2.097656-72.496094 6.414062-22.484375 5.683594-33.886719 15.742188-33.886719 29.894532 0 1.996094.011719 5.964844 3.359375 12.980468-17.007812 6.992188-56.136718 25.027344-83.933594 52.820313-.679687.679687-1.222656 1.484375-1.605468 2.363281-.613282 1.429688-15.257813 35.5625-31.003906 89.867188-14.527344 50.097656-32.636719 127.296875-36.4218755 210.582031-.0859375 1.898437.5390625 3.757813 1.7539065 5.214844.847656 1.019531 17.996093 21.097656 48.9375 21.09375 6.078125 0 12.695312-.777344 19.816406-2.621094 2.628906-.683594 4.695313-2.714844 5.421875-5.335937l47.761719-172.636719v138.804687c0 4.199219 3.40625 7.605469 7.605469 7.605469 4.199218 0 7.601562-3.40625 7.601562-7.605469v-194.71875c0-.027344.003906-.050781.003906-.078125 0-25.324219-9.960937-48.550781-10.386718-49.527343-1.671876-3.847657-6.144532-5.613282-9.996094-3.941407-3.851563 1.667969-5.621094 6.140625-3.957032 9.996094.09375.207031 8.855469 20.75 9.121094 42.46875l-49.699218 179.625c-16.28125-.15625-40.484376-1.535156-55.242188-13.714844 13.789062-128.410156 56.675781-234.699219 62.089844-247.722656 26.941406-26.382813 66.070312-43.675781 80.230468-49.390625 4.292969 5.867188 10.179688 12.875 18.289063 21.234375 13.921875 14.351563 27.613281 25.796875 28.191406 26.277344 3.007813 2.507812 7.429688 2.320312 10.214844-.433594l30.628906-30.300781v410.058594c-70.707031-1.363282-101.644531-21.550782-109.484375-27.726563v-41.6875c0-4.199219-3.40625-7.605469-7.605468-7.605469-4.199219 0-7.605469 3.40625-7.605469 7.605469v45.136719c0 1.945312.746093 3.816406 2.085937 5.226562 1.328125 1.402344 33.632813 34.332032 130.214844 34.332032s128.878906-32.929688 130.207031-34.332032c1.335938-1.410156 2.082031-3.28125 2.082031-5.226562v-214.359375l47.761719 172.636719c.726563 2.621093 2.792969 4.652343 5.421875 5.335937 43.390625 11.25 67.75-17.253906 68.765625-18.472656 1.214844-1.457031 1.839844-3.316407 1.753907-5.214844-4.363282-95.890625-27.285157-183.949219-45.742188-240.933594zm-396.449219 224.425781-7.3125 26.429688c-12.582031 2.449219-24.359375 1.023438-35.066406-4.261719-5.765625-2.84375-9.855469-6.195312-12.066406-8.253906.429687-8.574219 1.019531-17.085937 1.734375-25.523437 16.511718 9.457031 37.167968 11.269531 52.710937 11.609374zm142.265625-294.652343c-5.175781-4.5625-13.511718-12.140625-21.789062-20.675781-23.617188-24.347657-25.453125-34.304688-25.453125-36.777344 0-6.34375 8.882812-21.101563 91.171875-21.101563 30.015625 0 53.15625 2.003907 68.769531 5.949219 10.222656 2.585938 22.40625 7.3125 22.40625 15.152344 0 2.46875-1.832031 12.402344-25.371094 36.691406-8.292969 8.554688-16.675781 16.179688-21.875 20.757812l-27.003906-26.707031c18.222656-3.417969 34.078125-12.304687 44.179687-25.199219 2.589844-3.304687 2.011719-8.085937-1.292968-10.671874-3.304688-2.59375-8.085938-2.011719-10.675782 1.292968-10.109374 12.902344-28.914062 20.917969-49.082031 20.929688-.035156 0-.066406 0-.101562 0-20.164063-.015625-38.972657-8.03125-49.097657-20.933594-2.59375-3.304688-7.371093-3.878906-10.675781-1.289062-3.304687 2.59375-3.878906 7.375-1.289062 10.675781 10.117187 12.890625 25.972656 21.773437 44.1875 25.191406zm237.433594 321.078125-7.3125-26.425782c15.546875-.339843 36.21875-2.152343 52.730469-11.617187.714843 8.441406 1.296875 16.964844 1.726562 25.554687-5.3125 4.980469-21.574219 17.433594-47.144531 12.488282zm0 0"/><path d="m492.332031 393.113281c-1.339843-6.453125-10.105469-8.304687-13.777343-2.734375-1.890626 2.863282-1.632813 6.691406.640624 9.269532 2.027344 2.304687 5.359376 3.125 8.238282 2.101562 3.527344-1.25 5.585937-4.980469 4.898437-8.636719zm0 0"/><path d="m19.660156 396.085938c.644532 3.011718 3.007813 5.398437 6.046875 5.976562 3.15625.601562 6.441407-.921875 8.015625-3.714844 3.328125-5.898437-2.488281-13.136718-8.988281-10.964844-3.585937 1.195313-5.832031 4.972657-5.074219 8.703126zm0 0"/><path d="m286.226562 124.695312c-.585937-3.054687-3.101562-5.460937-6.148437-5.996093-3.066406-.539063-6.21875.917969-7.820313 3.578125-1.691406 2.816406-1.339843 6.5.835938 8.957031 2.117188 2.394531 5.632812 3.195313 8.589844 1.976563 3.304687-1.363282 5.253906-5.007813 4.542968-8.515626zm0 0"/><path d="m282.992188 446.878906c-2.964844-2-7.070313-1.574218-9.59375.941406-2.074219 2.074219-2.769532 5.25-1.757813 8 1.105469 3.015626 4.097656 5.066407 7.320313 4.984376 3.203124-.082032 6.070312-2.234376 7.046874-5.28125 1.015626-3.152344-.199218-6.835938-3.015624-8.644532zm0 0"/><path d="m286.226562 387.894531c-.574218-3.058593-3.101562-5.472656-6.148437-6.007812-3.066406-.535157-6.21875.917969-7.820313 3.582031-1.691406 2.8125-1.339843 6.496094.835938 8.953125 2.117188 2.394531 5.632812 3.195313 8.589844 1.976563 3.289062-1.355469 5.269531-5.003907 4.542968-8.503907zm0 0"/><path d="m284.148438 318.199219c-4.914063-5.058594-13.660157-.703125-12.933594 6.164062.335937 3.210938 2.742187 5.921875 5.898437 6.632813 3.226563.722656 6.640625-.792969 8.269531-3.664063 1.660157-2.9375 1.167969-6.746093-1.234374-9.132812zm0 0"/><path d="m286.226562 256.292969c-.5625-2.980469-3-5.378907-5.960937-5.96875-3.191406-.640625-6.53125.90625-8.117187 3.742187-1.515626 2.703125-1.203126 6.136719.753906 8.535156 2.132812 2.617188 5.875 3.496094 8.953125 2.121094 3.195312-1.425781 5.085937-4.972656 4.371093-8.429687zm0 0"/><path d="m286.226562 190.496094c-.574218-3.050782-3.109374-5.472656-6.148437-6.003906-3.054687-.535157-6.234375.917968-7.820313 3.582031-1.683593 2.828125-1.34375 6.488281.835938 8.957031 2.121094 2.398438 5.636719 3.191406 8.589844 1.96875 3.304687-1.367188 5.257812-4.992188 4.542968-8.503906zm0 0"/><path d="m244.957031 38.382812h22.085938c4.199219 0 7.605469-3.402343 7.605469-7.601562s-3.40625-7.605469-7.605469-7.605469h-22.085938c-4.199219 0-7.605469 3.40625-7.605469 7.605469s3.40625 7.601562 7.605469 7.601562zm0 0"/></svg>