<?xml version="1.0" encoding="iso-8859-1"?>
<!-- Generator: Adobe Illustrator 19.0.0, SVG Export Plug-In . SVG Version: 6.00 Build 0)  -->
<svg xmlns="http://www.w3.org/2000/svg" xmlns:xlink="http://www.w3.org/1999/xlink" version="1.1" id="Layer_1" x="0px" y="0px" viewBox="0 0 512.004 512.004" style="enable-background:new 0 0 512.004 512.004;" xml:space="preserve" width="512" height="512">
<g>
	<g>
		<path style="fill:#FFBD59;" d="M237.642,138.42V72.505c0-8.284-6.716-15-15-15h-71.875c-8.284,0-15,6.716-15,15v65.916H237.642z"/>
		<path style="fill:#FF8036;" d="M222.642,57.505h-35.937v80.916h50.937V72.505C237.642,64.22,230.927,57.505,222.642,57.505z"/>
		<path style="fill:#5F6270;" d="M248.781,123.421H124.629c-8.284,0-15,6.716-15,15v48.023c0,8.284,6.716,15,15,15h124.152    c8.284,0,15-6.716,15-15v-48.023C263.781,130.136,257.065,123.421,248.781,123.421z"/>
		<path style="fill:#343642;" d="M248.781,123.421h-62.076v78.023h62.076c8.284,0,15-6.716,15-15v-48.023    C263.781,130.136,257.065,123.421,248.781,123.421z"/>
		<path style="fill:#FFBD59;" d="M233.958,171.444h-94.505c-30.973,0-56.172,25.198-56.172,56.172v269.388c0,8.284,6.716,15,15,15    H275.13c8.284,0,15-6.716,15-15V227.616C290.13,196.642,264.931,171.444,233.958,171.444z"/>
		<path style="fill:#FF8036;" d="M233.958,171.444h-47.253v340.56h88.425c8.284,0,15-6.716,15-15V227.616    C290.13,196.642,264.931,171.444,233.958,171.444z"/>
		<g>
			<path style="fill:#BBBEC7;" d="M413.723,78.62h-30.138c-8.284,0-15,6.716-15,15s6.716,15,15,15h30.138c8.284,0,15-6.716,15-15     S422.007,78.62,413.723,78.62z"/>
			<path style="fill:#5F6270;" d="M339.173,78.62h-26.812c-8.284,0-15,6.716-15,15s6.716,15,15,15h26.812c8.284,0,15-6.716,15-15     S347.457,78.62,339.173,78.62z"/>
			<path style="fill:#BBBEC7;" d="M371.179,41.672c1.738,0,3.506-0.305,5.231-0.946l31.331-11.664     c7.764-2.891,11.714-11.527,8.824-19.291c-2.891-7.764-11.526-11.713-19.291-8.824L365.943,12.61     c-7.764,2.891-11.714,11.527-8.824,19.291C359.367,37.94,365.092,41.672,371.179,41.672z"/>
			<path style="fill:#5F6270;" d="M301.148,67.743c1.738,0,3.506-0.305,5.231-0.946l28.664-10.671     c7.764-2.891,11.714-11.527,8.824-19.291c-2.891-7.764-11.525-11.712-19.291-8.824l-28.664,10.671     c-7.764,2.891-11.714,11.527-8.824,19.291C289.337,64.011,295.061,67.743,301.148,67.743z"/>
			<path style="fill:#BBBEC7;" d="M407.741,158.177l-31.331-11.664c-7.766-2.892-16.401,1.061-19.291,8.824s1.061,16.4,8.824,19.291     l31.331,11.664c1.726,0.643,3.493,0.946,5.231,0.946c6.086,0,11.812-3.732,14.06-9.771     C419.455,169.705,415.505,161.068,407.741,158.177z"/>
			<path style="fill:#5F6270;" d="M335.043,131.113l-28.664-10.671c-7.766-2.892-16.401,1.061-19.291,8.824s1.061,16.4,8.824,19.291     l28.664,10.671c1.726,0.643,3.493,0.946,5.231,0.946c6.086,0,11.812-3.732,14.06-9.771     C346.757,142.64,342.806,134.004,335.043,131.113z"/>
		</g>
	</g>
	<path style="fill:#59A7FF;" d="M83.281,415.061v81.942c0,8.284,6.716,15,15,15H275.13c8.284,0,15-6.716,15-15v-81.942H83.281z"/>
	<path style="fill:#59A7FF;" d="M290.13,283.586v-55.97c0-30.974-25.199-56.172-56.172-56.172h-94.505   c-30.973,0-56.172,25.198-56.172,56.172v55.97H290.13z"/>
	<path style="fill:#316196;" d="M186.705,415.061v96.942h88.425c8.284,0,15-6.716,15-15v-81.942H186.705z"/>
	<path style="fill:#316196;" d="M233.958,171.444h-47.253v112.142H290.13v-55.97C290.13,196.642,264.931,171.444,233.958,171.444z"/>
</g>















</svg>
