<svg height="512pt" viewBox="-18 0 512 512.01212" width="512pt" xmlns="http://www.w3.org/2000/svg"><path d="m98.875 105.929688h-54.730469c-4.875 0-8.828125 3.953124-8.828125 8.828124v353.105469c0 4.875 3.953125 8.828125 8.828125 8.828125h282.480469c4.878906 0 8.828125-3.953125 8.828125-8.828125v-353.105469c0-4.875-3.949219-8.828124-8.828125-8.828124h-54.730469v-35.308594h63.558594c19.503906 0 35.3125 15.808594 35.3125 35.308594v370.761718c0 19.5-15.808594 35.308594-35.3125 35.308594h-300.136719c-19.5 0-35.3085935-15.808594-35.3085935-35.308594v-370.761718c0-19.5 15.8085935-35.308594 35.3085935-35.308594h63.558594zm0 0" fill="#e4c05c"/><path d="m271.894531 105.929688h54.730469c4.878906 0 8.828125 3.953124 8.828125 8.828124v353.105469c0 4.875-3.949219 8.828125-8.828125 8.828125h-282.480469c-4.875 0-8.828125-3.953125-8.828125-8.828125v-353.105469c0-4.875 3.953125-8.828124 8.828125-8.828124zm0 0" fill="#f9eab0"/><path d="m273.660156 88.277344c0 48.75-39.519531 88.273437-88.273437 88.273437-48.753907 0-88.277344-39.523437-88.277344-88.273437 0-48.753906 39.523437-88.277344 88.277344-88.277344 48.753906 0 88.273437 39.523438 88.273437 88.277344zm0 0" fill="#ecf0f1"/><path d="m220.695312 70.621094h-17.65625v-17.65625c0-9.75-7.902343-17.65625-17.652343-17.65625-9.753907 0-17.65625 7.90625-17.65625 17.65625v17.65625h-17.65625c-9.75 0-17.65625 7.902344-17.65625 17.65625 0 9.75 7.90625 17.652344 17.65625 17.652344h17.65625v17.65625c0 9.75 7.902343 17.65625 17.65625 17.65625 9.75 0 17.652343-7.90625 17.652343-17.65625v-17.65625h17.65625c9.75 0 17.65625-7.902344 17.65625-17.652344 0-9.753906-7.90625-17.65625-17.65625-17.65625zm0 0" fill="#c03a2b"/><g fill="#7f6e5d"><path d="m79.453125 273.65625c-9.75 0-17.652344-7.90625-17.652344-17.65625v-35.308594c0-9.753906 7.902344-17.65625 17.652344-17.65625h44.140625c4.875 0 8.824219 3.953125 8.824219 8.828125s-3.949219 8.828125-8.824219 8.828125h-44.140625v35.308594c4.875 0 8.828125 3.953125 8.828125 8.828125s-3.953125 8.828125-8.828125 8.828125zm0 0"/><path d="m123.59375 273.65625c-2.34375 0-4.585938-.933594-6.242188-2.585938l-17.65625-17.65625c-3.34375-3.464843-3.296874-8.96875.109376-12.375 3.402343-3.40625 8.910156-3.453124 12.375-.109374l11.414062 11.414062 37.894531-37.894531c3.464844-3.347657 8.96875-3.296875 12.375.105469 3.40625 3.40625 3.453125 8.914062.109375 12.375l-44.140625 44.140624c-1.652343 1.652344-3.898437 2.585938-6.238281 2.585938zm0 0"/><path d="m300.144531 229.515625h-8.828125c-4.875 0-8.828125-3.949219-8.828125-8.824219 0-4.878906 3.953125-8.828125 8.828125-8.828125h8.828125c4.875 0 8.828125 3.949219 8.828125 8.828125 0 4.875-3.953125 8.824219-8.828125 8.824219zm0 0"/><path d="m256.007812 229.515625h-44.140624c-4.875 0-8.828126-3.949219-8.828126-8.824219 0-4.878906 3.953126-8.828125 8.828126-8.828125h44.140624c4.875 0 8.824219 3.949219 8.824219 8.828125 0 4.875-3.949219 8.824219-8.824219 8.824219zm0 0"/><path d="m282.488281 264.828125h-70.621093c-4.875 0-8.828126-3.953125-8.828126-8.828125s3.953126-8.828125 8.828126-8.828125h70.621093c4.875 0 8.828125 3.953125 8.828125 8.828125s-3.953125 8.828125-8.828125 8.828125zm0 0"/><path d="m79.453125 361.929688c-9.75 0-17.652344-7.902344-17.652344-17.652344v-35.3125c0-9.75 7.902344-17.65625 17.652344-17.65625h44.140625c4.875 0 8.824219 3.953125 8.824219 8.828125s-3.949219 8.828125-8.824219 8.828125h-44.140625v35.3125c4.875 0 8.828125 3.949218 8.828125 8.824218 0 4.878907-3.953125 8.828126-8.828125 8.828126zm0 0"/><path d="m123.59375 361.929688c-2.34375 0-4.585938-.929688-6.242188-2.585938l-17.65625-17.65625c-3.34375-3.460938-3.296874-8.96875.109376-12.371094 3.402343-3.40625 8.910156-3.453125 12.375-.109375l11.414062 11.414063 37.894531-37.898438c3.464844-3.34375 8.96875-3.296875 12.375.109375s3.453125 8.910157.109375 12.375l-44.140625 44.136719c-1.652343 1.65625-3.898437 2.585938-6.238281 2.585938zm0 0"/><path d="m300.144531 317.792969h-8.828125c-4.875 0-8.828125-3.953125-8.828125-8.828125s3.953125-8.828125 8.828125-8.828125h8.828125c4.875 0 8.828125 3.953125 8.828125 8.828125s-3.953125 8.828125-8.828125 8.828125zm0 0"/><path d="m256.007812 317.792969h-44.140624c-4.875 0-8.828126-3.953125-8.828126-8.828125s3.953126-8.828125 8.828126-8.828125h44.140624c4.875 0 8.824219 3.953125 8.824219 8.828125s-3.949219 8.828125-8.824219 8.828125zm0 0"/><path d="m282.488281 353.101562h-70.621093c-4.875 0-8.828126-3.949218-8.828126-8.824218s3.953126-8.828125 8.828126-8.828125h70.621093c4.875 0 8.828125 3.953125 8.828125 8.828125s-3.953125 8.824218-8.828125 8.824218zm0 0"/><path d="m79.453125 450.207031c-9.75 0-17.652344-7.90625-17.652344-17.65625v-35.308593c0-9.75 7.902344-17.65625 17.652344-17.65625h44.140625c4.875 0 8.824219 3.953124 8.824219 8.828124s-3.949219 8.828126-8.824219 8.828126h-44.140625v35.308593c4.875 0 8.828125 3.953125 8.828125 8.828125s-3.953125 8.828125-8.828125 8.828125zm0 0"/><path d="m123.59375 450.207031c-2.34375 0-4.585938-.929687-6.242188-2.585937l-17.65625-17.65625c-3.34375-3.464844-3.296874-8.96875.109376-12.375 3.402343-3.40625 8.910156-3.453125 12.375-.105469l11.414062 11.414063 37.894531-37.898438c3.464844-3.34375 8.96875-3.296875 12.375.109375 3.40625 3.402344 3.453125 8.910156.109375 12.375l-44.140625 44.136719c-1.652343 1.65625-3.898437 2.585937-6.238281 2.585937zm0 0"/><path d="m300.144531 406.070312h-8.828125c-4.875 0-8.828125-3.953124-8.828125-8.828124s3.953125-8.828126 8.828125-8.828126h8.828125c4.875 0 8.828125 3.953126 8.828125 8.828126s-3.953125 8.828124-8.828125 8.828124zm0 0"/><path d="m256.007812 406.070312h-44.140624c-4.875 0-8.828126-3.953124-8.828126-8.828124s3.953126-8.828126 8.828126-8.828126h44.140624c4.875 0 8.824219 3.953126 8.824219 8.828126s-3.949219 8.828124-8.824219 8.828124zm0 0"/><path d="m282.488281 441.378906h-70.621093c-4.875 0-8.828126-3.953125-8.828126-8.828125s3.953126-8.828125 8.828126-8.828125h70.621093c4.875 0 8.828125 3.953125 8.828125 8.828125s-3.953125 8.828125-8.828125 8.828125zm0 0"/></g><path d="m441.386719 220.691406h-35.3125v203.03125l13.894531 39.972656c13.601562-6.214843 29.230469-6.214843 42.832031 0l13.894531-39.972656v-203.03125zm0 0" fill="#f3d55b"/><path d="m419.96875 463.695312 14.902344 42.875c.570312 3.152344 3.3125 5.441407 6.515625 5.441407 3.199219 0 5.941406-2.289063 6.511719-5.441407l14.902343-42.875c-13.601562-6.214843-29.230469-6.214843-42.832031 0zm0 0" fill="#f3d55b"/><path d="m419.96875 463.695312 14.902344 42.875c.570312 3.152344 3.3125 5.441407 6.515625 5.441407 3.199219 0 5.941406-2.289063 6.511719-5.441407l14.902343-42.875c-5.023437-2.726562-11.988281-22.316406-21.414062-22.316406-9.429688 0-16.394531 19.589844-21.417969 22.316406zm0 0" fill="#35495e"/><path d="m462.570312 114.757812h-42.371093c-8.722657 1.074219-14.992188 8.914063-14.125 17.65625v52.964844h70.621093v-52.964844c.867188-8.742187-5.402343-16.582031-14.125-17.65625zm0 0" fill="#f3d55b"/><path d="m462.570312 114.757812h-42.371093c-8.722657 1.074219-14.992188 8.914063-14.125 17.65625v52.964844h70.621093v-52.964844c.867188-8.742187-5.402343-16.582031-14.125-17.65625zm0 0" fill="#d75e72"/><path d="m441.386719 432.550781c-4.875 0-8.828125-3.953125-8.828125-8.828125v-123.585937c0-4.875 3.953125-8.828125 8.828125-8.828125s8.828125 3.953125 8.828125 8.828125v123.585937c0 4.875-3.953125 8.828125-8.828125 8.828125zm0 0" fill="#b19046"/><path d="m441.386719 273.65625c-4.875 0-8.828125-3.953125-8.828125-8.828125v-44.136719c0-4.878906 3.953125-8.828125 8.828125-8.828125s8.828125 3.949219 8.828125 8.828125v44.136719c0 4.875-3.953125 8.828125-8.828125 8.828125zm0 0" fill="#b19046"/><path d="m406.074219 220.691406h70.621093v-35.3125h-70.621093zm0 0" fill="#f3d55b"/><path d="m406.074219 220.691406h70.621093v-44.140625h-70.621093zm0 0" fill="#bdc3c7"/><path d="m406.074219 423.722656 13.894531 39.972656c13.601562-6.214843 29.230469-6.214843 42.832031 0l13.894531-39.972656zm0 0" fill="#fac176"/></svg>