<svg enable-background="new 0 0 60 60" height="512" viewBox="0 0 60 60" width="512" xmlns="http://www.w3.org/2000/svg"><path d="m39 21v-20h-38v38h20v20h38v-38z" fill="#4e667c"/><path d="m33 47v-14h14v14zm-20-20v-14h14v14z" fill="#25ae88"/><g fill="#4d007e"><path d="m59 60h-38c-.552 0-1-.448-1-1v-19h-19c-.552 0-1-.448-1-1v-38c0-.552.448-1 1-1h38c.552 0 1 .448 1 1v19h19c.552 0 1 .448 1 1v38c0 .552-.448 1-1 1zm-37-2h36v-36h-19c-.552 0-1-.448-1-1v-19h-36v36h19c.552 0 1 .448 1 1z"/><path d="m47 48h-14c-.552 0-1-.448-1-1v-14c0-.552.448-1 1-1h14c.552 0 1 .448 1 1v14c0 .552-.448 1-1 1zm-13-2h12v-12h-12zm-7-18h-14c-.552 0-1-.448-1-1v-14c0-.552.448-1 1-1h14c.552 0 1 .448 1 1v14c0 .552-.448 1-1 1zm-13-2h12v-12h-12z"/></g></svg>