<?xml version="1.0" encoding="UTF-8"?>
<svg xmlns="http://www.w3.org/2000/svg" xmlns:xlink="http://www.w3.org/1999/xlink" width="512" height="512" viewBox="0 0 60 40" version="1.1"><!-- Generator: Sketch 51.3 (57544) - http://www.bohemiancoding.com/sketch --><title>021 - Mechanic</title><desc>Created with Sketch.</desc><defs/><g id="Page-1" stroke="none" stroke-width="1" fill="none" fill-rule="evenodd"><g id="021---Mechanic" fill-rule="nonzero"><polygon id="Shape" fill="#545C60" points="9.833 12 13.983 12 45.444 12 51.417 12 51.36 4 45.444 4 18.086 4 9.89 4"/><path d="M25,8 L19,8.07 C19.2335037,8.02148277 19.4715174,7.99801663 19.71,8 L25,8 Z" id="Shape" fill="#FDD7AD"/><path d="M19.71,8 C19.5628236,8.00003496 19.4158191,8.01005799 19.27,8.03 C19.1793416,8.03843029 19.0892086,8.05178333 19,8.07 L19,8 L19.71,8 Z" id="Shape" fill="#DFC49C"/><path d="M40,4 L40,18 C40,18.33 39.99,18.66 39.96,18.99 C39.7300033,21.6307567 38.7478858,24.1502524 37.13,26.25 L33.36,31.33 C33.1219352,31.7689176 32.9981347,32.2606804 33,32.76 L33,38 C33,38.5522847 32.5522847,39 32,39 L21,39 C20.4477153,39 20,38.5522847 20,38 L20,30.34 C19.9987268,29.8745575 19.8891716,29.4157952 19.68,29 L13.6,19.2 C13.2181881,18.4351214 13.1817933,17.5434508 13.5,16.75 L15.99,10.51 C16.2940902,9.77418182 16.8046264,9.14208933 17.46,8.69 C17.9221376,8.37380085 18.4476873,8.16221591 19,8.07 L25,8 L19,8 L19,4 C18.9999298,3.20446489 19.3165773,2.44163237 19.88,1.88 C20.0668564,1.69592895 20.2749919,1.53479181 20.5,1.4 C21.4285009,0.86392947 22.5725043,0.864112702 23.5008334,1.40048064 C24.4291625,1.93684857 25.0006877,2.9278596 25,4 C24.9993123,2.9278596 25.5708375,1.93684857 26.4991666,1.40048064 C27.4274957,0.864112702 28.5714991,0.86392947 29.5,1.4 C29.7250081,1.53479181 29.9331436,1.69592895 30.12,1.88 C30.6834227,2.44163237 31.0000702,3.20446489 31,4 C30.9993123,2.9278596 31.5708375,1.93684857 32.4991666,1.40048064 C33.4274957,0.864112702 34.5714991,0.86392947 35.5,1.4 C35.7250081,1.53479181 35.9331436,1.69592895 36.12,1.88 C36.6834227,2.44163237 37.0000702,3.20446489 37,4 C36.9993124,2.92751599 37.5712013,1.93624189 38.5,1.4 C38.7250081,1.53479181 38.9331436,1.69592895 39.12,1.88 C39.6834227,2.44163237 40.0000702,3.20446489 40,4 Z" id="Shape" fill="#FFE0B2"/><path d="M43,4 L43,18 C43,18.33 42.99,18.66 42.96,18.99 C42.7300033,21.6307567 41.7478858,24.1502524 40.13,26.25 L36.36,31.33 C36.1219352,31.7689176 35.9981347,32.2606804 36,32.76 L36,38 C36,38.5522847 35.5522847,39 35,39 L32,39 C32.5522847,39 33,38.5522847 33,38 L33,32.76 C32.9981347,32.2606804 33.1219352,31.7689176 33.36,31.33 L37.13,26.25 C38.7478858,24.1502524 39.7300033,21.6307567 39.96,18.99 C39.99,18.66 40,18.33 40,18 L40,4 C40.0000702,3.20446489 39.6834227,2.44163237 39.12,1.88 C38.9331436,1.69592895 38.7250081,1.53479181 38.5,1.4 C38.9567092,1.13849648 39.4737235,1.00062601 40,1 C41.6568542,1 43,2.34314575 43,4 Z" id="Shape" fill="#DFC49C"/><polygon id="Shape" fill="#DFC49C" points="25 8 19 8.07 19 8.04 19.27 8.03 22 8"/><path d="M25,8 L19,8.07 C19.2335037,8.02148277 19.4715174,7.99801663 19.71,8 L25,8 Z" id="Shape" fill="#FDD7AD"/><path d="M13,7.96 C13.0730749,11.7342856 10.0742275,14.8539821 6.3,14.93 C6.02928432,14.9282898 5.75887078,14.9115976 5.49,14.88 C3.90059076,14.6699547 2.44079289,13.8921062 1.38,12.69 C1.16141148,12.4444468 1.07415115,12.1088043 1.14546729,11.7878816 C1.21678343,11.466959 1.4379855,11.1998637 1.74,11.07 C1.86164396,11.0247889 1.99023065,11.0011019 2.12,11 L5,11 C5.83353759,10.9994659 6.62927638,10.652165 7.19645806,10.0413539 C7.76363974,9.43054287 8.05112627,8.61129343 7.99,7.78 C7.81845246,6.17331402 6.44544807,4.96541775 4.83,5 L2.06,5 C1.67759497,5.00291437 1.32701248,4.78748407 1.15684217,4.44501632 C0.986671854,4.10254856 1.02671506,3.69301853 1.26,3.39 C2.22186635,2.22352097 3.55718413,1.42515638 5.04,1.13 C5.45406538,1.04124401 5.87653539,0.997655837 6.3,1 C10.0709664,1.07440281 13.0691498,4.18893364 13,7.96 Z" id="Shape" fill="#545C60"/><path d="M10.96,8.03 C11.007623,11.327022 8.71584892,14.1969768 5.49,14.88 C3.90059076,14.6699547 2.44079289,13.8921062 1.38,12.69 C1.16141148,12.4444468 1.07415115,12.1088043 1.14546729,11.7878816 C1.21678343,11.466959 1.4379855,11.1998637 1.74,11.07 L2.96,11.07 C3.17864999,11.0719907 3.39678735,11.048499 3.61,11 L5,11 C5.83353759,10.9994659 6.62927638,10.652165 7.19645806,10.0413539 C7.76363974,9.43054287 8.05112627,8.61129343 7.99,7.78 C7.81845246,6.17331402 6.44544807,4.96541775 4.83,5 L2.06,5 C1.67759497,5.00291437 1.32701248,4.78748407 1.15684217,4.44501632 C0.986671854,4.10254856 1.02671506,3.69301853 1.26,3.39 C2.22186635,2.22352097 3.55718413,1.42515638 5.04,1.13 C8.47454158,1.60152878 11.0159931,4.5636936 10.96,8.03 Z" id="Shape" fill="#7F8E94"/><path d="M58.62,12.69 C57.3755811,14.1056086 55.5847928,14.9209268 53.7,14.93 C53.1945096,14.9317526 52.6907242,14.8712984 52.2,14.75 C49.1326122,13.9234773 47.0012516,11.1417921 47.0012516,7.965 C47.0012516,4.78820791 49.1326122,2.00652274 52.2,1.18 C52.6907242,1.05870164 53.1945096,0.99824739 53.7,1 C55.6517147,1.00800671 57.4987083,1.88386283 58.74,3.39 C58.9732849,3.69301853 59.0133281,4.10254856 58.8431578,4.44501632 C58.6729875,4.78748407 58.322405,5.00291437 57.94,5 L55.17,5 C53.5545519,4.96541775 52.1815475,6.17331402 52.01,7.78 C51.9488737,8.61129343 52.2363603,9.43054287 52.8035419,10.0413539 C53.3707236,10.652165 54.1664624,10.9994659 55,11 L57.88,11 C58.2782684,11.003552 58.6373399,11.240603 58.797093,11.6054445 C58.956846,11.970286 58.8875084,12.3949245 58.62,12.69 Z" id="Shape" fill="#545C60"/><path d="M55.62,12.69 C54.7163272,13.7088566 53.5231486,14.4275548 52.2,14.75 C49.1326122,13.9234773 47.0012516,11.1417921 47.0012516,7.965 C47.0012516,4.78820791 49.1326122,2.00652274 52.2,1.18 C53.5865952,1.51767015 54.8277516,2.29251638 55.74,3.39 C55.9732849,3.69301853 56.0133281,4.10254856 55.8431578,4.44501632 C55.6729875,4.78748407 55.322405,5.00291437 54.94,5 L55.169,5 C53.5535519,4.96541775 52.1805475,6.17331402 52.009,7.78 C51.9478611,8.61146679 52.2354806,9.43087615 52.8028824,10.04172 C53.3702842,10.6525638 54.1662885,10.9997436 55,11 L54.88,11 C55.2782684,11.003552 55.6373399,11.240603 55.797093,11.6054445 C55.956846,11.970286 55.8875084,12.3949245 55.62,12.69 Z" id="Shape" fill="#7F8E94"/><path d="M40,15 C37.790861,15 36,13.209139 36,11 L36,4 C36,1.790861 37.790861,0 40,0 C42.209139,0 44,1.790861 44,4 L44,11 C44,13.209139 42.209139,15 40,15 Z M40,2 C38.8954305,2 38,2.8954305 38,4 L38,11 C38,12.1045695 38.8954305,13 40,13 C41.1045695,13 42,12.1045695 42,11 L42,4 C42,2.8954305 41.1045695,2 40,2 Z" id="Shape" fill="#000000"/><path d="M34,15 C31.790861,15 30,13.209139 30,11 L30,4 C30,1.790861 31.790861,0 34,0 C36.209139,0 38,1.790861 38,4 L38,11 C38,13.209139 36.209139,15 34,15 Z M34,2 C32.8954305,2 32,2.8954305 32,4 L32,11 C32,12.1045695 32.8954305,13 34,13 C35.1045695,13 36,12.1045695 36,11 L36,4 C36,2.8954305 35.1045695,2 34,2 Z" id="Shape" fill="#000000"/><path d="M31,12 C30.4477153,12 30,11.5522847 30,11 L30,4 C30,2.8954305 29.1045695,2 28,2 C26.8954305,2 26,2.8954305 26,4 L26,8 C26,8.55228475 25.5522847,9 25,9 C24.4477153,9 24,8.55228475 24,8 L24,4 C24,1.790861 25.790861,0 28,0 C30.209139,0 32,1.790861 32,4 L32,11 C32,11.5522847 31.5522847,12 31,12 Z" id="Shape" fill="#000000"/><path d="M19,9.07 C18.4477153,9.07 18,8.62228475 18,8.07 L18,4 C18,1.790861 19.790861,0 22,0 C24.209139,0 26,1.790861 26,4 L26,8 C26,8.55228475 25.5522847,9 25,9 C24.4477153,9 24,8.55228475 24,8 L24,4 C24,2.8954305 23.1045695,2 22,2 C20.8954305,2 20,2.8954305 20,4 L20,8.07 C20,8.62228475 19.5522847,9.07 19,9.07 Z" id="Shape" fill="#000000"/><path d="M35,40 L21,40 C19.8954305,40 19,39.1045695 19,38 L19,30.342 C18.999651,30.031704 18.9274301,29.7257064 18.789,29.448 L12.753,19.732 C12.2083099,18.6930181 12.1422507,17.4685523 12.572,16.377 L15.065,10.143 C15.8191907,8.24031586 17.6613036,6.99332877 19.708,7 L28.953,7 C29.8398909,7.00027935 30.6814874,7.39180471 31.253,8.07 C31.817539,8.73556232 32.0591134,9.61657661 31.913,10.477 C31.5522279,13.582441 28.9391366,15.9355082 25.813,15.97 C28.228,17.68 31,20.6 31,25 C31,25.5522847 30.5522847,26 30,26 C29.4477153,26 29,25.5522847 29,25 C29,18.79 21.721,15.964 21.647,15.936 C21.1944669,15.7658174 20.9284938,15.2962556 21.0152183,14.8206222 C21.1019428,14.3449888 21.516525,13.9995159 22,14 L25,14 C27.848,14 29.512,12.7 29.946,10.142 C29.9931018,9.86205703 29.9136231,9.57564078 29.729,9.36 C29.536003,9.13153535 29.2520717,8.99981468 28.953,9 L19.711,9 C18.482028,8.99478547 17.3754688,9.74334024 16.923,10.886 L14.429,17.121 C14.2168654,17.6513414 14.241612,18.2470792 14.497,18.758 L20.533,28.473 C20.8360277,29.0496373 20.9961827,29.6906001 21,30.342 L21,38 L35,38 L35,32.756 C34.9995771,32.0928605 35.1638248,31.4399932 35.478,30.856 C35.5009469,30.813679 35.5266697,30.7729233 35.555,30.734 L39.329,25.648 C40.8304617,23.7000483 41.7455483,21.3644616 41.967,18.915 C41.989,18.615 42,18.303 42,17.996 L42,10 C42,9.44771525 42.4477153,9 43,9 C43.5522847,9 44,9.44771525 44,10 L44,18 C44,18.355 43.987,18.708 43.962,19.061 C43.714303,21.8905506 42.6641748,24.5906325 40.935,26.844 L37.209,31.866 C37.0717938,32.1426381 37.0002718,32.4472054 37,32.756 L37,38 C37,39.1045695 36.1045695,40 35,40 Z" id="Shape" fill="#000000"/><path d="M48.19,5 L43,5 C42.4477153,5 42,4.55228475 42,4 C42,3.44771525 42.4477153,3 43,3 L48.19,3 C48.7422847,3 49.19,3.44771525 49.19,4 C49.19,4.55228475 48.7422847,5 48.19,5 Z" id="Shape" fill="#000000"/><path d="M19,5 L11.81,5 C11.2577153,5 10.81,4.55228475 10.81,4 C10.81,3.44771525 11.2577153,3 11.81,3 L19,3 C19.5522847,3 20,3.44771525 20,4 C20,4.55228475 19.5522847,5 19,5 Z" id="Shape" fill="#000000"/><path d="M48.24,13 L43,13 C42.4477153,13 42,12.5522847 42,12 C42,11.4477153 42.4477153,11 43,11 L48.24,11 C48.7922847,11 49.24,11.4477153 49.24,12 C49.24,12.5522847 48.7922847,13 48.24,13 Z" id="Shape" fill="#000000"/><path d="M15.4,13 L11.76,13 C11.2077153,13 10.76,12.5522847 10.76,12 C10.76,11.4477153 11.2077153,11 11.76,11 L15.4,11 C15.9522847,11 16.4,11.4477153 16.4,12 C16.4,12.5522847 15.9522847,13 15.4,13 Z" id="Shape" fill="#000000"/><path d="M6.3,15.93 C4.12833922,15.9212352 2.06494436,14.9805806 0.634,13.347 C0.0988768807,12.7526885 -0.0323433135,11.8974 0.3,11.17 C0.618757407,10.4526107 1.33301347,9.99294096 2.118,10 L5,10 C5.53056179,10.0012405 6.03949349,9.78981592 6.413,9.413 C6.82605193,9.00258842 7.04028398,8.43288447 7,7.852 C6.85843413,6.77004604 5.9217712,5.97027667 4.831,6 L2.056,6 C1.27165796,6.00281624 0.558067684,5.54690049 0.231,4.834 C-0.0979050325,4.14970098 0.00377228606,3.33628243 0.491,2.754 C1.9205972,1.01674337 4.05016492,0.00713250517 6.3,-1.77635684e-15 C10.621796,0.0777701744 14.0657411,3.63800431 14,7.96 C14.0685474,12.2847792 10.6245736,15.8495158 6.3,15.93 Z M2.133,12.024 C3.18488005,13.2268597 4.70211414,13.9208477 6.3,13.93 C9.52030691,13.8502961 12.0693133,11.1805473 12,7.96 C12.0664914,4.74224271 9.51752285,2.07700537 6.3,2 C4.64394276,2.00830243 3.07765416,2.75387487 2.027,4.034 L4.831,4 C6.97199176,3.96279048 8.78229198,5.57678259 8.99,7.708 C9.07115512,8.81674759 8.68722221,9.90925558 7.93028983,10.7234796 C7.17335744,11.5377036 6.11171369,12.0001868 5,12 L2.118,12 L1.384,12.686 L2.133,12.024 Z" id="Shape" fill="#000000"/><path d="M53.7,15.93 C49.3754264,15.8495158 45.9314526,12.2847792 46,7.96 C45.9342589,3.63800431 49.378204,0.0777701744 53.7,1.77635684e-15 C55.9496068,0.00716600179 58.0790331,1.01634323 59.509,2.753 C59.9964036,3.33559573 60.0980794,4.14939294 59.769,4.834 C59.4419323,5.54690049 58.728342,6.00281624 57.944,6 L55.169,6 C54.0801184,5.97287933 53.1463785,6.77199497 53.005,7.852 C52.9634117,8.43211778 53.1757764,9.00170767 53.587,9.413 C53.9605065,9.78981592 54.4694382,10.0012405 55,10 L57.882,10 C58.6669865,9.99294096 59.3812426,10.4526107 59.7,11.17 C60.0326096,11.897206 59.9017855,12.7524732 59.367,13.347 C57.9358251,14.9808415 55.8720101,15.9215216 53.7,15.93 Z M53.7,2 C50.4824772,2.07700537 47.9335086,4.74224271 48,7.96 C47.9306867,11.1805473 50.4796931,13.8502961 53.7,13.93 C55.2978859,13.9208477 56.81512,13.2268597 57.867,12.024 L55,12 C53.8887673,11.998695 52.8280291,11.5357589 52.0714237,10.7218866 C51.3148183,9.90801435 50.9303678,8.81637655 51.01,7.708 C51.217708,5.57678259 53.0280082,3.96279048 55.169,4 L57.949,4 C56.8978738,2.73810736 55.3423168,2.00590826 53.7,2 Z" id="Shape" fill="#000000"/></g></g></svg>
