<!DOCTYPE svg PUBLIC "-//W3C//DTD SVG 20010904//EN" "http://www.w3.org/TR/2001/REC-SVG-20010904/DTD/svg10.dtd">
<svg version="1.0" xmlns="http://www.w3.org/2000/svg" width="600px" height="600px" viewBox="0 0 6000 6000" preserveAspectRatio="xMidYMid meet">
<g id="layer101" fill="#010101" stroke="none">
 <path d="M989 5971 c-440 -164 -744 -524 -845 -1001 -25 -115 -25 -360 -1 -482 55 -276 188 -521 386 -711 257 -246 568 -371 921 -370 577 1 1078 367 1255 915 217 669 -126 1389 -782 1642 l-92 36 -383 0 -383 -1 -76 -28z"/>
 <path d="M4059 5956 c-436 -178 -739 -558 -815 -1024 -19 -117 -14 -359 10 -467 104 -466 421 -829 859 -984 272 -96 565 -101 841 -14 322 101 610 341 770 643 346 655 86 1468 -574 1800 -186 93 -168 90 -603 90 l-382 0 -106 -44z"/>
 <path d="M955 3206 l-25 -25 0 -281 0 -281 25 -25 c27 -27 20 -29 146 30 204 95 497 95 691 1 117 -57 117 -57 144 -30 l24 24 0 284 c0 304 -2 319 -51 319 -13 0 -64 -9 -114 -20 -259 -60 -537 -51 -797 24 -11 3 -28 -5 -43 -20z"/>
 <path d="M4080 3223 c-38 -13 -40 -30 -40 -316 0 -170 4 -286 10 -297 20 -37 43 -41 98 -14 164 78 252 99 417 97 132 -1 233 -22 334 -69 126 -59 119 -57 146 -30 l25 25 0 276 c0 169 -4 284 -10 295 -18 34 -43 40 -101 25 -237 -64 -550 -67 -778 -9 -31 8 -63 16 -71 18 -8 3 -22 2 -30 -1z"/>
 <path d="M1364 2450 c-302 -46 -518 -284 -532 -585 -5 -122 10 -194 69 -314 59 -120 145 -204 270 -264 109 -52 170 -67 277 -67 169 0 313 60 433 180 121 120 183 269 183 435 0 102 -16 169 -66 275 -57 119 -159 221 -278 277 -124 59 -245 81 -356 63z"/>
 <path d="M4500 2454 c-94 -15 -145 -31 -220 -66 -154 -74 -281 -228 -325 -398 -21 -78 -24 -214 -6 -290 53 -225 238 -412 461 -464 275 -65 568 70 689 315 59 120 74 192 69 314 -13 267 -183 486 -438 563 -66 20 -184 33 -230 26z"/>
 <path d="M954 1075 l-26 -26 5 -342 c4 -373 5 -379 68 -497 37 -69 101 -139 166 -180 l47 -30 234 0 234 0 54 36 c30 20 72 57 95 83 48 56 103 167 118 239 12 57 16 678 5 707 -15 37 -50 36 -136 -5 -236 -113 -509 -110 -755 6 -40 19 -75 34 -78 34 -3 0 -17 -11 -31 -25z"/>
 <path d="M4080 1093 c-38 -14 -40 -28 -40 -359 0 -355 4 -392 56 -499 41 -86 96 -151 168 -199 l54 -36 234 0 234 0 47 29 c94 60 158 144 206 270 24 65 25 72 29 394 2 181 1 339 -2 352 -4 14 -17 32 -30 40 -23 15 -29 14 -108 -24 -102 -48 -183 -70 -292 -79 -168 -14 -308 10 -454 78 -46 22 -85 40 -86 39 0 0 -8 -3 -16 -6z"/>
 </g>
<g id="layer102" fill="#fefefe" stroke="none">
 <path d="M1320 5944 c-312 -45 -551 -163 -749 -369 -167 -174 -287 -406 -326 -633 -19 -108 -19 -315 0 -424 40 -233 171 -484 340 -653 176 -176 445 -310 689 -344 782 -109 1468 550 1386 1330 -26 241 -112 449 -270 650 -181 230 -492 402 -790 439 -80 9 -225 12 -280 4z"/>
 <path d="M4385 5939 c-289 -39 -599 -214 -775 -438 -330 -419 -368 -951 -101 -1401 214 -359 619 -590 1037 -590 201 0 358 36 540 125 244 118 434 306 554 545 94 188 130 341 130 550 0 203 -39 369 -128 545 -166 330 -481 573 -846 651 -87 19 -316 26 -411 13z"/>
 <path d="M1040 2914 c0 -107 3 -194 6 -194 4 0 37 11 75 25 208 75 489 71 682 -10 20 -8 39 -15 42 -15 3 0 5 87 5 193 l0 193 -87 -20 c-130 -28 -509 -28 -635 1 l-88 20 0 -193z"/>
 <path d="M4150 2913 c0 -106 2 -193 5 -193 2 0 22 7 42 15 211 82 472 85 682 10 38 -14 71 -25 75 -25 3 0 6 87 6 194 l0 193 -87 -20 c-127 -29 -506 -29 -635 -1 l-88 20 0 -193z"/>
 <path d="M1323 2335 c-257 -72 -424 -320 -384 -573 43 -281 317 -482 590 -433 206 37 379 205 422 409 50 243 -96 497 -338 584 -75 27 -217 34 -290 13z"/>
 <path d="M4430 2336 c-163 -45 -293 -161 -356 -316 -36 -87 -44 -220 -19 -306 75 -261 313 -423 567 -386 192 28 348 155 415 339 120 330 -138 687 -492 682 -38 0 -90 -6 -115 -13z"/>
 <path d="M1040 674 c0 -259 2 -290 20 -342 82 -234 338 -345 557 -241 83 40 158 113 198 194 l30 60 3 307 3 307 -44 -19 c-154 -68 -418 -86 -591 -41 -49 13 -109 31 -133 42 l-43 18 0 -285z"/>
 <path d="M4152 652 l3 -307 39 -73 c171 -320 625 -283 746 60 18 52 20 83 20 342 l0 285 -43 -18 c-206 -88 -517 -89 -720 -2 l-48 21 3 -308z"/>
 </g>

</svg>