<!DOCTYPE svg PUBLIC "-//W3C//DTD SVG 20010904//EN" "http://www.w3.org/TR/2001/REC-SVG-20010904/DTD/svg10.dtd">
<svg version="1.0" xmlns="http://www.w3.org/2000/svg" width="600px" height="600px" viewBox="0 0 6000 6000" preserveAspectRatio="xMidYMid meet">
<g id="layer101" fill="#121212" stroke="none">
 <path d="M4129 5963 c-52 -60 -117 -166 -174 -286 -53 -111 -81 -188 -170 -469 -53 -168 -87 -228 -148 -257 -51 -25 -42 -24 -457 -15 -360 7 -571 -2 -850 -37 -811 -102 -1363 -395 -1598 -847 -54 -103 -123 -312 -152 -457 -28 -137 -38 -434 -21 -581 52 -444 259 -911 578 -1307 l95 -117 -30 -48 c-69 -107 -102 -250 -102 -441 0 -142 13 -231 91 -621 64 -324 77 -361 141 -415 53 -45 106 -65 177 -65 86 0 134 16 186 62 l44 39 46 -15 c99 -34 217 -12 285 53 37 35 40 36 66 23 15 -8 56 -17 90 -20 79 -6 149 17 205 67 l42 37 51 -18 c28 -9 67 -17 87 -18 147 -1 279 127 279 272 0 61 -134 760 -176 918 -61 228 -154 362 -301 432 -140 67 -173 127 -151 275 16 111 16 560 0 699 -6 56 -15 128 -18 160 l-7 58 29 -19 c225 -148 368 -193 652 -202 196 -7 334 6 482 43 205 52 400 146 533 256 l47 39 48 -34 c254 -185 744 -306 1240 -307 139 0 144 1 167 25 l25 24 0 1551 0 1551 -25 24 -24 25 -625 0 -624 0 -33 -37z"/>
 </g>
<g id="layer102" fill="#b9b9b9" stroke="none">
 <path d="M4205 5758 c-25 -40 -64 -111 -87 -157 -37 -78 -108 -261 -108 -280 0 -5 37 -20 83 -34 151 -48 365 -168 418 -235 27 -35 25 -83 -6 -112 -41 -39 -81 -32 -160 27 -76 57 -200 121 -295 152 -89 29 -95 28 -109 -21 -24 -79 -78 -183 -120 -230 -26 -29 -67 -60 -109 -80 l-67 -33 -515 0 c-428 0 -540 -3 -665 -18 -597 -70 -994 -203 -1291 -433 -99 -77 -160 -143 -231 -251 -82 -126 -140 -274 -184 -473 -30 -138 -38 -443 -15 -599 16 -106 61 -302 84 -362 l11 -26 103 23 c129 29 141 29 174 0 21 -18 28 -32 28 -60 0 -55 -27 -75 -135 -100 -51 -12 -94 -27 -96 -33 -11 -31 223 -429 320 -547 l24 -30 403 90 c358 79 403 91 410 110 26 68 40 617 17 641 -4 4 -155 -25 -335 -65 -180 -40 -340 -73 -355 -72 -38 0 -77 41 -77 79 0 17 10 41 23 56 20 23 58 34 372 103 296 67 351 81 354 97 2 10 -4 68 -14 129 -13 87 -14 118 -5 141 27 73 108 117 174 95 18 -6 69 -38 112 -71 98 -74 233 -142 339 -170 100 -27 399 -38 528 -20 263 38 504 146 672 302 97 90 111 90 200 9 47 -42 100 -76 188 -119 141 -69 229 -100 388 -134 191 -42 176 -42 182 1 19 124 29 361 24 572 -10 418 -67 683 -203 959 -35 72 -64 141 -64 154 0 14 9 36 21 51 16 20 29 26 60 26 54 0 74 -22 142 -157 99 -198 168 -450 203 -738 21 -182 22 -584 1 -780 -9 -77 -14 -141 -13 -143 2 -1 65 -6 140 -9 l136 -6 0 1426 0 1427 -514 0 -514 0 -47 -72z"/>
 <path d="M1785 1789 c-165 -38 -324 -73 -353 -80 -44 -9 -52 -14 -46 -27 30 -73 21 -149 -28 -230 -52 -85 -69 -144 -75 -266 -6 -105 -5 -109 13 -101 68 28 147 27 216 -2 l38 -16 44 41 c32 30 63 47 105 58 53 15 62 21 75 53 8 20 21 45 29 55 12 17 11 25 -16 76 -16 32 -32 78 -34 103 -5 39 -2 49 20 71 30 30 71 34 105 10 12 -8 35 -44 51 -78 16 -35 32 -66 37 -69 5 -3 108 14 229 38 121 24 237 46 258 50 20 3 37 11 37 17 0 17 -49 99 -78 130 -13 15 -50 37 -81 49 -76 30 -153 89 -187 143 -16 25 -36 45 -44 44 -8 0 -150 -31 -315 -69z"/>
 <path d="M2207 1255 c-114 -23 -219 -47 -233 -54 -37 -16 -58 -73 -44 -117 15 -44 44 -64 95 -64 39 0 460 81 497 95 26 10 48 51 48 90 0 27 -8 44 -29 66 -40 39 -74 38 -334 -16z"/>
 <path d="M1722 990 c-60 -37 -60 -44 4 -370 31 -162 63 -307 70 -322 43 -84 184 -50 184 44 0 18 -23 147 -51 286 -50 251 -51 254 -84 284 -19 16 -44 45 -55 64 -12 19 -25 34 -28 34 -4 0 -22 -9 -40 -20z"/>
 <path d="M2600 960 c-8 -5 -49 -17 -90 -26 -41 -9 -76 -18 -78 -19 -7 -6 79 -432 93 -462 44 -97 185 -71 185 34 0 39 -80 464 -89 475 -3 4 -13 3 -21 -2z"/>
 <path d="M1341 904 c-25 -20 -31 -34 -31 -64 0 -70 108 -593 128 -620 48 -65 130 -59 165 12 18 36 18 37 -38 320 -31 155 -60 297 -66 315 -21 65 -102 84 -158 37z"/>
 <path d="M2140 861 c-54 -12 -74 -20 -73 -31 1 -8 21 -114 44 -235 38 -198 45 -222 70 -247 40 -41 90 -39 135 6 19 19 34 43 34 53 0 11 -20 120 -45 243 -25 123 -45 225 -45 227 0 7 -48 0 -120 -16z"/>
 </g>
<g id="layer103" fill="#fefefe" stroke="none">
 <path d="M3954 5124 c-51 -145 -98 -228 -162 -286 -92 -83 -174 -101 -393 -88 -570 35 -1195 -21 -1599 -144 -339 -103 -537 -212 -725 -401 -126 -126 -187 -223 -243 -385 -130 -377 -137 -742 -21 -1125 l31 -101 91 23 c138 34 177 30 205 -24 19 -34 14 -72 -11 -97 -17 -17 -53 -30 -120 -46 -54 -12 -97 -24 -97 -26 0 -5 100 -202 137 -269 24 -44 157 -238 196 -288 13 -16 38 -12 416 73 221 49 403 90 405 90 2 0 9 51 17 113 12 108 18 531 7 543 -3 2 -157 -29 -342 -71 -185 -41 -343 -75 -350 -75 -8 0 -28 12 -45 26 -38 32 -43 87 -11 122 24 26 21 25 410 112 172 38 315 72 317 74 3 3 -2 53 -11 113 -9 60 -16 120 -16 134 0 65 60 127 131 136 48 7 67 -2 171 -78 199 -147 366 -199 633 -199 372 0 673 106 908 319 87 79 108 80 185 10 128 -117 346 -211 621 -268 142 -30 137 -31 144 32 19 154 29 391 23 552 -14 423 -83 731 -222 994 -46 88 -55 139 -29 161 24 20 18 33 -38 95 -47 52 -55 57 -74 47 -39 -21 -74 -13 -127 26 -95 72 -164 110 -257 145 -134 50 -147 53 -155 31z"/>
 <path d="M1750 1778 c-195 -44 -357 -82 -359 -84 -2 -2 2 -24 9 -48 18 -64 6 -123 -39 -192 -47 -74 -72 -163 -79 -282 l-5 -92 43 15 c58 20 120 19 181 -5 l52 -19 19 24 c21 27 131 85 162 86 16 0 28 15 49 58 l27 59 -30 63 c-38 80 -39 131 -5 164 26 27 72 33 106 15 11 -6 34 -42 51 -80 20 -45 36 -70 47 -70 9 0 117 20 241 45 124 25 235 45 248 45 27 0 27 0 -2 58 -36 70 -65 96 -158 140 -79 38 -138 88 -188 158 l-15 21 -355 -79z"/>
 <path d="M2206 1251 c-209 -43 -231 -50 -252 -75 -34 -39 -32 -89 5 -127 18 -18 40 -29 57 -29 31 0 434 76 481 91 74 23 97 107 44 160 -39 39 -55 38 -335 -20z"/>
 <path d="M1706 974 c-19 -20 -26 -37 -26 -65 0 -21 25 -166 55 -321 53 -269 57 -284 86 -310 33 -31 66 -35 108 -13 59 30 59 47 1 343 l-53 267 -48 52 c-27 28 -49 57 -49 62 0 21 -48 11 -74 -15z"/>
 <path d="M2595 957 c-11 -6 -51 -18 -90 -28 -64 -15 -70 -18 -67 -40 15 -104 86 -438 97 -456 8 -11 30 -26 49 -33 29 -9 41 -8 70 5 64 31 65 48 16 304 -52 273 -49 263 -75 248z"/>
 <path d="M1347 910 c-15 -12 -29 -35 -32 -53 -4 -20 17 -145 53 -331 55 -278 61 -301 86 -323 59 -51 156 -8 156 69 0 18 -26 161 -57 318 -52 259 -59 288 -84 313 -34 33 -84 36 -122 7z"/>
 <path d="M2156 861 c-44 -9 -81 -21 -83 -26 -1 -6 17 -110 41 -233 38 -198 46 -226 69 -250 58 -57 156 -19 157 61 1 53 -84 467 -95 466 -5 -1 -46 -9 -89 -18z"/>
 </g>

</svg>