<!DOCTYPE svg PUBLIC "-//W3C//DTD SVG 20010904//EN" "http://www.w3.org/TR/2001/REC-SVG-20010904/DTD/svg10.dtd">
<svg version="1.0" xmlns="http://www.w3.org/2000/svg" width="600px" height="600px" viewBox="0 0 6000 6000" preserveAspectRatio="xMidYMid meet">
<g id="layer101" fill="#1b1b1b" stroke="none">
 <path d="M1335 5983 c-189 -40 -370 -152 -501 -311 -54 -66 -121 -185 -144 -254 -10 -32 -15 -37 -34 -32 -37 9 -158 -16 -224 -46 -75 -35 -168 -121 -205 -188 -56 -104 -57 -111 -57 -792 0 -681 -1 -670 57 -784 31 -62 112 -143 179 -178 57 -31 152 -58 201 -58 l33 0 0 -419 c0 -470 8 -573 65 -796 184 -731 726 -1314 1441 -1551 l142 -46 11 -38 c31 -104 129 -243 228 -325 222 -183 551 -219 810 -89 163 82 317 257 364 414 l11 38 142 46 c553 184 1006 573 1270 1095 76 149 127 284 167 435 59 229 62 262 66 769 l5 467 32 0 c17 0 58 7 91 15 163 43 279 157 329 324 24 80 24 1275 1 1366 -45 173 -196 306 -380 335 -38 6 -79 9 -91 6 -19 -5 -24 0 -34 32 -7 20 -30 70 -51 110 -100 188 -254 328 -452 411 -156 64 -65 61 -1814 60 -1370 -1 -1598 -3 -1658 -16z m1360 -5514 c155 -14 623 -6 743 11 46 7 86 10 89 7 12 -12 -53 -105 -116 -167 -223 -220 -570 -228 -804 -19 -52 46 -137 159 -137 181 0 7 18 8 48 4 26 -4 106 -11 177 -17z"/>
 </g>
<g id="layer102" fill="#8d8d8d" stroke="none">
 <path d="M1380 5844 c-270 -58 -478 -251 -572 -529 l-23 -70 -3 -1305 c-2 -907 0 -1347 8 -1442 67 -821 604 -1508 1394 -1784 38 -13 72 -24 75 -24 4 0 6 18 6 41 0 31 6 46 24 60 30 24 52 24 85 -2 21 -17 26 -29 26 -67 0 -26 4 -52 8 -59 4 -7 50 -20 102 -30 137 -26 837 -26 979 -1 52 9 98 23 102 30 5 7 9 34 9 60 0 38 5 50 26 67 33 26 55 26 84 3 16 -13 24 -31 25 -58 4 -48 8 -48 143 2 659 246 1155 823 1297 1510 44 213 47 307 43 1689 -4 1465 4 1335 -84 1514 -99 201 -293 349 -520 396 -106 22 -3133 21 -3234 -1z m2693 -560 c125 -45 190 -87 292 -189 114 -114 175 -226 206 -380 19 -92 20 -128 16 -450 -3 -325 -5 -355 -25 -423 -64 -213 -203 -381 -394 -477 -166 -83 -120 -80 -1173 -80 -1051 0 -989 -4 -1160 80 -194 95 -335 265 -397 481 -22 76 -23 92 -23 459 0 433 1 443 80 601 100 199 295 352 510 399 48 11 255 13 1020 12 l960 -2 88 -31z m533 -2085 c27 -28 29 -36 32 -124 3 -83 1 -99 -18 -129 -36 -59 -114 -67 -165 -16 -30 30 -30 32 -30 136 l0 106 33 29 c46 42 107 41 148 -2z m-3084 -439 c23 -17 26 -28 32 -127 31 -479 310 -904 732 -1117 123 -62 280 -113 406 -132 140 -21 576 -15 688 11 605 137 1026 629 1067 1247 5 90 8 101 31 118 30 24 50 25 78 5 30 -20 35 -59 23 -182 -33 -364 -187 -685 -445 -934 -225 -217 -480 -345 -794 -399 -104 -18 -451 -24 -586 -10 -417 43 -775 239 -1028 565 -182 234 -277 478 -306 783 -12 125 -8 156 23 177 29 20 49 19 79 -5z"/>
 <path d="M2005 4014 c-106 -26 -219 -89 -308 -174 l-82 -77 36 -54 c101 -152 262 -253 442 -278 107 -15 1707 -15 1813 0 184 25 343 126 442 279 l35 54 -80 76 c-93 88 -188 142 -299 170 -74 19 -111 20 -1008 19 -775 -1 -941 -3 -991 -15z"/>
 <path d="M545 4256 c-68 -17 -129 -50 -181 -98 l-44 -41 0 -188 c0 -166 2 -195 21 -243 37 -101 144 -184 250 -194 l49 -5 0 392 0 391 -22 -1 c-13 0 -45 -6 -73 -13z"/>
 <path d="M5360 3879 l0 -392 49 5 c106 10 213 93 250 194 19 48 21 77 21 243 l0 188 -44 41 c-67 62 -184 112 -261 112 -13 0 -15 -56 -15 -391z"/>
 </g>
<g id="layer103" fill="#fafafa" stroke="none">
 <path d="M1425 5850 c-220 -34 -421 -167 -534 -355 -50 -83 -90 -204 -101 -309 -12 -118 -13 -2374 0 -2601 21 -382 111 -683 297 -990 150 -248 393 -496 648 -661 137 -88 458 -234 515 -234 6 0 10 15 10 33 0 64 76 101 119 58 18 -18 26 -45 33 -111 3 -22 10 -26 68 -36 252 -46 748 -47 1028 -3 41 7 75 17 77 23 2 6 6 33 10 59 4 27 15 57 26 68 43 43 119 6 119 -59 0 -37 0 -36 60 -18 206 63 465 204 650 353 96 78 279 266 352 364 195 261 324 559 383 889 30 172 36 467 33 1695 l-3 1210 -28 90 c-79 255 -263 438 -519 517 l-73 23 -1560 1 c-858 1 -1582 -2 -1610 -6z m2596 -547 c286 -81 496 -305 554 -590 14 -68 16 -138 13 -449 l-3 -369 -28 -80 c-96 -274 -309 -465 -582 -520 -71 -14 -187 -15 -1010 -12 -1041 3 -968 -2 -1130 77 -188 93 -327 256 -396 465 -22 67 -23 86 -27 439 -3 311 -1 381 13 449 51 251 221 457 459 556 144 60 141 60 1146 58 905 -2 916 -3 991 -24z m554 -2077 c49 -21 65 -59 65 -160 0 -102 -9 -130 -52 -156 -39 -24 -69 -25 -108 -5 -46 24 -60 62 -60 160 0 100 15 140 63 160 41 18 50 18 92 1z m-3046 -465 c14 -14 21 -39 25 -98 29 -377 152 -656 394 -897 137 -136 252 -214 423 -287 201 -87 387 -115 708 -106 282 8 408 36 616 137 318 153 571 443 682 780 35 105 63 248 63 325 1 75 16 137 36 152 28 20 62 15 91 -13 25 -25 26 -28 19 -122 -19 -272 -97 -513 -236 -727 -221 -338 -565 -570 -967 -652 -73 -15 -139 -18 -388 -18 -272 0 -309 2 -397 22 -407 92 -731 314 -952 656 -137 209 -215 452 -232 718 -7 95 -6 98 19 123 31 31 69 34 96 7z"/>
 </g>

</svg>