<!DOCTYPE svg PUBLIC "-//W3C//DTD SVG 20010904//EN" "http://www.w3.org/TR/2001/REC-SVG-20010904/DTD/svg10.dtd">
<svg version="1.0" xmlns="http://www.w3.org/2000/svg" width="676px" height="676px" viewBox="0 0 6760 6760" preserveAspectRatio="xMidYMid meet">
<g id="layer101" fill="#1d1d1d" stroke="none">
 <path d="M2766 6744 c-336 -43 -664 -140 -880 -260 -115 -64 -229 -146 -245 -178 -8 -15 -12 -448 -14 -1566 l-2 -1545 -93 335 c-52 184 -151 542 -222 795 -71 253 -169 606 -219 784 -58 207 -97 332 -109 343 -31 32 -119 49 -267 55 -102 4 -162 1 -220 -10 -165 -31 -339 -120 -447 -228 l-51 -51 6 -221 c18 -679 196 -1687 462 -2607 101 -349 295 -916 395 -1151 37 -88 99 -156 243 -266 110 -84 151 -97 205 -69 36 19 40 17 128 -41 49 -33 52 -36 47 -71 -9 -70 20 -95 226 -199 102 -51 235 -114 297 -140 l112 -47 102 -187 c86 -158 107 -190 135 -203 29 -14 145 -16 1025 -16 869 0 996 2 1024 15 34 16 51 44 176 276 l62 117 72 27 c362 141 855 439 1075 649 86 83 94 98 214 423 326 881 565 1829 686 2728 41 300 63 545 68 762 l6 221 -51 51 c-108 108 -282 197 -447 228 -58 11 -118 14 -220 10 -148 -6 -236 -23 -267 -55 -12 -11 -51 -136 -109 -343 -50 -178 -148 -531 -219 -784 -71 -253 -170 -611 -222 -795 l-93 -335 -5 288 -5 289 -28 24 c-15 13 -37 24 -48 24 -17 0 -19 8 -19 90 0 84 1 90 21 90 11 0 34 13 50 29 l29 29 0 1120 0 1120 -31 31 c-154 154 -523 311 -894 381 -198 37 -326 49 -361 35 -66 -27 -64 -9 -64 -537 0 -262 -3 -479 -7 -481 -5 -3 -53 -12 -108 -22 -181 -30 -496 -18 -647 25 l-38 11 0 472 c0 524 2 504 -66 533 -18 8 -35 13 -36 13 -2 -1 -52 -8 -112 -15z m49 -6015 c-30 -122 -74 -260 -86 -274 -13 -14 -12 -7 24 101 19 54 44 141 57 192 12 51 24 91 27 88 2 -2 -7 -51 -22 -107z m1139 5 c14 -56 39 -142 56 -190 33 -97 34 -102 21 -89 -22 24 -128 405 -107 384 3 -2 16 -50 30 -105z m-728 -189 c-11 -8 -25 -15 -30 -15 -6 0 -2 7 8 15 11 8 25 15 30 15 6 0 2 -7 -8 -15z m-56 -55 c-6 -12 -14 -19 -17 -17 -2 3 1 15 7 27 6 12 14 19 17 17 2 -3 -1 -15 -7 -27z m490 -14 c0 -6 -7 -2 -15 8 -8 11 -15 25 -15 30 0 6 7 2 15 -8 8 -11 15 -25 15 -30z m-455 -114 c-7 -7 -45 29 -45 41 0 6 11 0 25 -13 14 -13 23 -26 20 -28z m430 18 c-10 -11 -23 -20 -28 -20 -6 0 0 11 13 25 27 29 42 25 15 -5z m-945 -30 c-6 -12 -14 -19 -17 -17 -2 3 1 15 7 27 6 12 14 19 17 17 2 -3 -1 -15 -7 -27z m1400 -14 c0 -6 -7 -2 -15 8 -8 11 -15 25 -15 30 0 6 7 2 15 -8 8 -11 15 -25 15 -30z m-1454 -101 c-1 -25 -7 -31 -19 -19 -6 6 9 44 17 44 2 0 3 -11 2 -25z m1508 -16 c-10 -17 -19 -9 -21 18 -1 26 0 26 13 9 7 -10 11 -23 8 -27z"/>
 </g>
<g id="layer102" fill="#918b88" stroke="none">
 <path d="M2705 6519 c-51 -8 -119 -21 -210 -39 -59 -12 -135 -34 -227 -66 -38 -13 -68 -21 -68 -18 0 4 -11 -1 -25 -10 -14 -9 -25 -14 -25 -10 0 3 -11 -1 -25 -10 -14 -9 -25 -14 -25 -11 0 10 -199 -98 -235 -127 l-35 -29 0 -575 c0 -622 -2 -597 53 -554 14 12 52 32 84 46 32 14 60 30 63 34 3 5 37 23 75 40 38 17 72 35 75 40 3 5 35 23 70 40 36 17 103 51 149 75 106 56 147 59 185 14 l26 -31 0 -236 c0 -296 5 -282 -140 -360 -58 -31 -136 -73 -175 -94 -38 -20 -95 -50 -125 -65 -30 -14 -60 -32 -67 -38 -6 -7 -37 -22 -67 -35 -31 -12 -56 -26 -56 -30 0 -4 -34 -22 -75 -40 l-75 -33 0 -1028 c0 -1022 0 -1029 -20 -1049 -39 -39 -100 -47 -138 -17 -15 12 -36 58 -50 112 -6 22 -17 63 -25 90 -21 71 -31 109 -32 120 -1 6 -8 30 -15 55 -8 25 -15 52 -15 60 -1 9 -7 26 -14 38 -6 11 -10 25 -9 29 1 4 -5 28 -12 53 -8 25 -15 50 -16 55 0 6 -4 17 -7 25 -3 8 -7 26 -10 40 -2 14 -14 59 -25 100 -87 310 -135 482 -147 525 -7 28 -20 73 -27 100 -8 28 -27 95 -43 150 -15 55 -36 132 -47 170 -11 39 -30 108 -43 155 -13 47 -52 186 -86 308 l-63 224 -115 -7 c-140 -8 -338 -39 -406 -63 -81 -29 -179 -79 -198 -100 -16 -18 -17 -28 -7 -108 16 -136 68 -489 85 -584 9 -47 23 -123 31 -170 9 -47 17 -94 18 -105 1 -12 5 -25 8 -30 3 -6 9 -32 13 -60 4 -27 11 -63 16 -80 4 -16 11 -50 14 -74 3 -23 7 -47 10 -51 3 -5 12 -45 21 -90 26 -139 135 -568 186 -730 17 -54 24 -79 48 -160 87 -292 308 -920 324 -920 5 0 52 44 105 98 105 107 197 231 277 372 68 119 78 130 126 130 51 0 98 -43 98 -90 0 -29 -36 -108 -80 -175 -11 -16 -23 -37 -27 -45 -41 -89 -239 -327 -346 -416 l-48 -40 82 -65 c128 -100 131 -103 127 -170 -1 -32 0 -59 2 -61 29 -22 139 -88 147 -88 5 0 18 8 27 19 9 10 31 22 49 25 26 5 60 -9 219 -89 103 -53 188 -94 188 -91 0 2 -50 96 -110 208 -114 213 -126 247 -93 286 21 25 106 69 147 76 15 3 34 10 42 17 8 6 14 8 14 4 0 -4 11 0 24 8 13 9 36 18 51 21 15 3 32 9 39 15 6 5 24 12 40 15 15 3 34 10 42 17 8 6 14 8 14 5 0 -4 10 -2 21 5 20 10 7 25 -195 228 -201 202 -216 219 -216 253 0 39 6 48 175 256 50 61 234 290 410 509 175 219 336 418 357 442 l38 44 0 1713 c0 1365 -3 1714 -12 1713 -7 -1 -35 -5 -63 -10z"/>
 <path d="M3980 4817 l0 -1712 33 -40 c17 -21 166 -206 330 -409 164 -204 351 -436 415 -515 197 -242 202 -250 202 -286 0 -42 -6 -50 -235 -276 -113 -111 -192 -196 -186 -202 4 -4 15 -9 22 -11 8 -1 24 -7 36 -14 12 -7 30 -13 40 -15 10 -1 24 -6 31 -10 7 -5 24 -10 38 -13 14 -3 37 -12 50 -21 13 -8 24 -12 24 -8 0 4 6 2 14 -4 8 -7 25 -14 37 -16 47 -9 138 -56 155 -80 28 -39 16 -75 -96 -282 -61 -112 -110 -206 -110 -208 0 -8 245 117 354 180 141 81 298 187 399 268 l88 71 -48 40 c-26 22 -72 65 -102 95 -55 58 -227 281 -242 316 -5 11 -18 34 -29 50 -44 68 -80 146 -80 175 0 47 47 90 98 90 48 0 58 -11 126 -130 80 -141 172 -265 277 -372 53 -54 100 -98 105 -98 9 0 22 32 139 360 65 181 179 531 207 630 5 19 13 49 18 65 101 340 205 775 280 1170 11 61 25 133 30 160 26 138 85 533 105 706 7 65 3 70 -95 121 -126 65 -283 99 -521 113 l-115 7 -63 -224 c-34 -122 -73 -263 -87 -313 -23 -85 -40 -144 -100 -360 -14 -49 -32 -115 -40 -145 -9 -30 -20 -68 -24 -85 -8 -26 -40 -142 -142 -505 -11 -41 -23 -86 -25 -100 -3 -14 -7 -32 -10 -40 -4 -8 -5 -21 -4 -28 1 -8 -2 -19 -7 -25 -12 -15 -26 -68 -23 -85 1 -8 -3 -20 -10 -28 -6 -8 -12 -22 -13 -32 -1 -9 -8 -37 -16 -62 -7 -25 -14 -52 -16 -60 -5 -30 -25 -105 -33 -130 -5 -14 -14 -45 -21 -70 -17 -60 -37 -105 -52 -117 -38 -30 -99 -22 -138 17 -20 20 -20 29 -20 719 l0 699 26 31 c16 19 35 31 50 31 24 0 24 1 24 104 0 100 -1 104 -23 110 -13 3 -36 17 -50 30 l-27 25 0 164 0 164 -65 28 c-36 15 -65 31 -65 35 0 4 -25 18 -56 30 -30 13 -61 29 -68 36 -7 7 -42 26 -77 43 -35 18 -95 49 -134 69 -38 21 -117 63 -175 94 -145 78 -140 64 -140 360 l0 236 26 31 c38 45 79 42 185 -13 46 -25 118 -61 159 -81 41 -20 77 -40 80 -44 3 -5 36 -23 75 -40 38 -17 72 -35 75 -40 3 -4 33 -21 67 -36 35 -15 68 -34 74 -41 6 -8 18 -14 25 -14 12 0 14 93 14 574 l0 575 -37 30 c-36 30 -227 131 -228 121 0 -3 -16 5 -35 17 -20 12 -49 24 -65 27 -17 3 -68 19 -115 35 -75 26 -309 78 -427 95 l-43 6 0 -1713z"/>
 <path d="M2980 3849 c0 -921 -1 -1717 -4 -1769 -14 -255 -22 -377 -31 -480 -9 -101 -12 -127 -29 -255 -9 -66 -18 -140 -21 -165 -2 -25 -7 -60 -10 -77 -3 -18 -8 -48 -11 -65 -3 -18 -7 -44 -10 -58 -3 -14 -5 -35 -5 -47 1 -12 -4 -25 -9 -28 -5 -3 -7 -12 -3 -20 3 -9 0 -21 -6 -29 -6 -7 -8 -15 -5 -18 13 -14 -87 -359 -112 -389 -8 -9 -11 -19 -7 -22 3 -4 -1 -15 -10 -25 -10 -10 -14 -22 -11 -25 4 -4 -5 -24 -20 -45 -28 -41 -49 -99 -40 -113 7 -12 1481 -12 1488 0 9 14 -12 72 -40 113 -15 21 -24 41 -20 45 3 3 -1 15 -11 25 -9 10 -13 21 -10 25 4 3 1 13 -7 22 -25 30 -125 375 -112 389 3 3 1 11 -5 18 -6 8 -9 20 -6 29 4 8 2 17 -3 20 -5 3 -10 16 -9 28 0 12 -2 33 -5 47 -3 14 -7 40 -10 58 -3 17 -8 47 -11 65 -3 17 -8 50 -11 72 -3 22 -7 51 -9 65 -2 14 -6 52 -9 85 -4 33 -11 98 -17 145 -17 135 -28 290 -45 605 -3 55 -4 848 -4 1762 l1 1661 -38 -4 c-21 -2 -67 -7 -103 -9 -36 -3 -85 -9 -110 -13 -49 -9 -183 -7 -295 3 -69 6 -95 9 -165 20 -19 3 -42 6 -50 6 -8 1 -21 6 -28 12 -11 9 -13 -281 -12 -1664z m651 -3329 c20 -22 27 -38 24 -53 -3 -12 -6 -33 -7 -47 -4 -62 -35 -71 -243 -71 -208 0 -239 9 -243 71 -1 14 -4 35 -7 48 -4 16 3 31 27 55 l33 32 194 -2 194 -2 28 -31z"/>
 <path d="M485 5280 c-82 -21 -206 -87 -252 -133 l-32 -32 9 -125 c5 -69 10 -143 10 -165 1 -63 10 -70 58 -46 120 61 328 108 525 118 70 3 127 8 127 11 0 7 -76 283 -92 335 -6 21 -19 42 -29 48 -32 17 -247 10 -324 -11z m-80 -214 c30 -21 59 -82 50 -103 -5 -10 -8 -21 -7 -24 1 -4 -10 -17 -24 -30 -39 -37 -98 -33 -135 9 -39 43 -38 81 2 127 34 39 78 47 114 21z"/>
 <path d="M5949 5290 c-8 -5 -21 -26 -27 -47 -16 -52 -92 -328 -92 -335 0 -3 57 -8 128 -11 196 -10 404 -57 524 -118 48 -24 57 -17 58 46 0 22 5 96 10 165 8 121 8 126 -13 149 -50 53 -169 117 -266 142 -80 20 -292 27 -322 9z m507 -228 c50 -42 57 -95 18 -141 -22 -27 -33 -31 -73 -31 -38 0 -52 5 -71 25 -13 14 -20 25 -16 25 5 0 3 6 -3 14 -18 21 -1 74 31 101 35 30 83 32 114 7z"/>
 <path d="M2360 5106 c-25 -13 -153 -82 -285 -154 l-240 -130 -3 -101 c-1 -56 1 -101 5 -101 4 0 135 69 290 152 l283 153 0 102 c0 57 -1 103 -2 103 -2 0 -23 -11 -48 -24z"/>
 <path d="M4350 5027 l0 -102 283 -153 c155 -83 286 -152 290 -152 4 0 6 45 5 101 l-3 101 -185 100 c-102 55 -214 116 -250 136 -36 20 -82 44 -102 54 l-38 17 0 -102z"/>
 <path d="M2653 2637 c-155 -194 -445 -555 -545 -678 l-77 -95 235 -235 234 -236 0 -45 c0 -29 -6 -53 -17 -67 -11 -12 -108 -55 -243 -106 -124 -48 -228 -89 -232 -93 -3 -4 19 -52 49 -107 30 -55 84 -156 121 -225 36 -69 82 -156 103 -195 20 -38 53 -101 73 -140 20 -38 44 -81 54 -94 l19 -23 31 49 c18 28 32 56 32 64 0 9 7 24 15 35 8 10 15 26 15 34 0 8 7 29 16 45 8 17 22 55 31 85 8 30 19 71 25 90 18 65 67 295 83 390 8 52 20 120 25 150 33 192 66 614 80 1020 12 353 13 530 3 530 -5 0 -63 -69 -130 -153z"/>
 <path d="M3970 2663 c1 -353 31 -932 65 -1233 26 -227 90 -580 133 -730 6 -19 17 -60 25 -90 9 -30 23 -68 31 -85 9 -16 16 -37 16 -45 0 -8 7 -24 15 -34 8 -11 15 -26 15 -33 0 -7 14 -36 32 -64 l31 -51 19 23 c11 13 35 56 54 94 20 39 54 104 76 145 22 41 49 93 60 115 12 22 65 123 120 224 55 100 98 184 96 185 -2 1 -84 33 -183 70 -99 38 -193 75 -209 82 -16 8 -35 14 -43 14 -8 0 -25 11 -38 25 -20 19 -25 35 -25 71 l0 47 234 235 235 236 -62 76 c-165 204 -473 588 -570 709 -59 75 -112 138 -118 139 -5 2 -9 -48 -9 -125z"/>
 <path d="M2877 3 c277 -2 729 -2 1005 0 277 1 51 2 -502 2 -553 0 -779 -1 -503 -2z"/>
 </g>
<g id="layer103" fill="#fafbfb" stroke="none">
 <path d="M2650 6509 c-307 -56 -587 -156 -757 -272 l-63 -42 0 -573 c0 -316 4 -572 8 -570 5 2 153 81 329 176 185 98 333 172 348 172 37 0 62 -16 80 -50 12 -24 15 -75 15 -278 0 -245 0 -249 -22 -269 -13 -12 -183 -107 -378 -213 -195 -105 -361 -196 -367 -202 -10 -8 -13 -226 -13 -1028 l0 -1018 -26 -31 c-21 -26 -33 -31 -68 -31 -80 0 -87 16 -207 455 -10 39 -27 99 -38 135 -15 53 -142 519 -195 715 -8 28 -21 77 -30 110 -10 33 -21 76 -26 95 -6 19 -17 60 -25 90 -9 30 -20 71 -26 90 -68 256 -192 700 -199 718 -9 21 -13 22 -97 16 -167 -11 -277 -25 -357 -45 -81 -20 -222 -83 -262 -116 l-22 -18 19 -160 c51 -423 150 -939 280 -1455 116 -462 174 -665 280 -984 87 -261 191 -536 203 -536 6 0 54 44 106 97 97 100 204 247 280 386 48 89 69 107 123 107 49 0 97 -43 97 -88 0 -35 -52 -149 -105 -227 -11 -17 -24 -37 -30 -46 -65 -104 -138 -194 -247 -301 l-108 -107 99 -80 c105 -85 122 -112 102 -164 -14 -37 -8 -47 57 -87 85 -53 90 -54 124 -25 16 14 41 25 54 25 13 0 99 -39 189 -86 91 -47 171 -84 180 -82 11 2 -12 53 -90 198 -70 131 -105 206 -105 227 0 54 40 84 175 136 66 25 158 60 204 77 l83 32 -211 212 c-205 206 -211 213 -211 253 0 28 8 51 29 79 24 33 516 646 852 1062 l99 122 0 1710 c0 1362 -3 1710 -12 1709 -7 -1 -60 -10 -118 -20z"/>
 <path d="M3980 4821 l0 -1711 95 -118 c205 -252 852 -1058 868 -1082 9 -13 17 -42 17 -64 0 -39 -7 -47 -211 -252 -132 -133 -206 -213 -197 -216 7 -3 99 -38 203 -78 209 -79 245 -103 245 -163 0 -21 -35 -96 -105 -227 -78 -145 -101 -196 -90 -198 18 -4 256 119 395 203 132 80 194 123 310 216 l101 80 -109 107 c-95 93 -252 284 -252 306 0 5 -10 22 -22 39 -51 71 -108 192 -108 229 0 45 48 88 97 88 51 0 78 -20 110 -83 72 -144 208 -330 316 -434 41 -40 79 -73 84 -73 17 0 239 623 300 840 8 30 22 78 30 105 8 28 18 64 23 80 203 739 334 1358 405 1925 l23 185 -21 18 c-39 33 -180 95 -263 116 -80 20 -190 34 -357 45 -84 6 -88 5 -97 -16 -5 -13 -50 -171 -100 -353 -49 -181 -97 -355 -106 -385 -8 -30 -19 -71 -24 -90 -6 -19 -17 -60 -25 -90 -9 -30 -20 -71 -25 -90 -5 -19 -16 -60 -24 -90 -8 -30 -52 -190 -97 -355 -44 -165 -96 -352 -114 -415 -18 -63 -56 -198 -84 -300 -61 -214 -76 -240 -147 -240 -35 0 -47 5 -68 31 l-26 31 0 693 c0 440 4 703 10 720 6 17 25 33 50 43 l40 17 0 97 0 96 -30 7 c-16 4 -39 18 -50 32 -18 23 -20 41 -20 178 0 117 -3 155 -14 164 -7 6 -173 97 -367 202 -195 105 -364 200 -376 212 -23 20 -23 24 -23 269 0 264 5 294 49 318 27 14 71 12 101 -4 14 -7 54 -29 90 -48 220 -119 534 -288 537 -288 2 0 3 258 3 574 l0 574 -80 52 c-175 112 -444 206 -725 254 -49 9 -102 19 -117 22 l-28 6 0 -1711z"/>
 <path d="M555 5288 c-130 -24 -210 -58 -296 -124 l-56 -43 4 -58 c10 -152 23 -296 26 -299 2 -2 33 9 68 25 139 63 291 96 497 110 67 5 124 10 127 12 2 2 -20 87 -48 189 l-52 185 -50 7 c-70 9 -161 7 -220 -4z m-129 -242 c42 -42 45 -82 9 -124 -32 -38 -72 -48 -119 -28 -93 39 -60 186 41 186 27 0 43 -8 69 -34z"/>
 <path d="M5980 5291 l-45 -6 -52 -185 c-28 -102 -50 -187 -48 -189 3 -2 60 -7 127 -12 206 -14 358 -47 497 -110 35 -16 66 -27 68 -25 3 3 16 148 26 299 4 57 3 58 -37 90 -140 113 -339 164 -536 138z m476 -226 c55 -38 56 -132 1 -166 -89 -56 -200 54 -141 139 29 41 101 55 140 27z"/>
 <path d="M2120 4975 l-285 -153 -3 -101 c-1 -56 0 -101 4 -101 4 0 134 69 290 153 l284 152 0 103 c0 56 -1 102 -2 101 -2 0 -131 -69 -288 -154z"/>
 <path d="M4350 5028 l0 -103 284 -152 c156 -84 287 -153 290 -153 4 0 5 45 4 101 l-3 100 -185 100 c-102 55 -231 125 -287 155 l-103 54 0 -102z"/>
 <path d="M2714 2707 c-162 -203 -464 -577 -563 -699 -61 -76 -111 -141 -111 -145 0 -4 106 -114 235 -243 221 -222 235 -238 235 -273 0 -28 -8 -44 -35 -72 -20 -19 -43 -35 -51 -35 -9 0 -30 -6 -47 -14 -18 -8 -108 -43 -202 -78 -93 -36 -169 -69 -168 -74 1 -5 86 -164 189 -354 102 -190 195 -362 206 -382 11 -21 22 -38 24 -38 2 0 26 46 53 103 136 284 226 733 276 1387 20 269 40 969 28 981 -6 6 -31 -17 -69 -64z"/>
 <path d="M3975 2767 c-10 -25 12 -741 30 -973 42 -555 111 -953 215 -1249 28 -78 106 -245 115 -245 2 0 12 17 23 38 11 20 103 192 206 381 102 189 186 349 186 356 0 7 -75 40 -167 75 -93 34 -182 68 -200 76 -17 8 -38 14 -47 14 -8 0 -31 16 -51 35 -27 28 -35 44 -35 72 0 35 14 51 235 273 129 129 235 239 235 243 0 4 -50 69 -111 145 -61 75 -183 227 -272 337 -88 110 -195 243 -238 295 -42 52 -86 106 -97 120 -19 23 -21 23 -27 7z"/>
 <path d="M2877 3 c277 -2 729 -2 1005 0 277 1 51 2 -502 2 -553 0 -779 -1 -503 -2z"/>
 </g>

</svg>