<!DOCTYPE svg PUBLIC "-//W3C//DTD SVG 20010904//EN" "http://www.w3.org/TR/2001/REC-SVG-20010904/DTD/svg10.dtd">
<svg version="1.0" xmlns="http://www.w3.org/2000/svg" width="600px" height="600px" viewBox="0 0 6000 6000" preserveAspectRatio="xMidYMid meet">
<g id="layer101" fill="#040404" stroke="none">
 <path d="M2625 5994 c-438 -35 -824 -85 -1240 -163 -148 -28 -162 -32 -187 -61 -33 -36 -35 -67 -9 -118 50 -98 85 -251 167 -717 96 -552 148 -773 229 -974 39 -95 104 -200 146 -236 l29 -24 0 -179 c0 -169 -1 -180 -21 -198 -58 -53 -118 -265 -119 -423 0 -26 -4 -41 -9 -35 -7 8 -301 1058 -301 1078 0 4 12 23 27 43 43 56 42 119 -6 391 -46 261 -61 302 -136 371 -82 76 -117 86 -290 85 -177 -1 -302 -24 -464 -85 -177 -66 -243 -115 -291 -212 -48 -100 -48 -138 5 -422 25 -137 50 -264 56 -282 13 -42 78 -99 126 -112 l38 -10 23 -168 c97 -697 326 -1573 581 -2221 52 -131 53 -133 127 -199 122 -109 201 -163 242 -163 19 0 43 7 53 16 16 15 23 13 88 -26 71 -42 71 -42 71 -86 0 -56 15 -71 130 -129 l91 -46 -8 -32 c-4 -18 -8 -77 -8 -132 0 -93 2 -105 33 -167 88 -180 319 -289 722 -340 145 -18 826 -18 970 0 253 33 440 89 563 172 82 55 127 105 165 188 24 51 27 68 26 157 0 55 -6 112 -12 127 -11 28 -11 28 91 79 215 107 409 235 563 370 93 82 95 85 187 334 252 676 453 1485 552 2217 6 45 8 48 45 58 45 12 95 51 115 90 20 39 105 505 105 578 0 117 -64 229 -167 289 -235 138 -664 206 -823 132 -146 -68 -175 -127 -231 -466 -46 -278 -46 -299 6 -362 l25 -29 -45 -163 c-54 -196 -56 -228 -16 -262 l29 -24 -21 -76 c-19 -73 -22 -77 -48 -77 -59 0 -74 -28 -139 -265 -33 -121 -62 -224 -64 -230 -1 -5 -8 42 -15 105 -15 130 -40 238 -70 301 -19 39 -21 61 -21 265 0 188 2 223 16 234 29 25 94 147 134 253 74 195 121 410 230 1034 56 320 98 499 135 581 37 80 31 137 -15 162 -68 36 -710 137 -1180 186 -147 15 -856 28 -985 18z"/>
 </g>
<g id="layer102" fill="#a4a4a4" stroke="none">
 <path d="M2590 5809 c-426 -30 -1190 -141 -1190 -174 0 -7 11 -55 24 -107 33 -123 46 -192 106 -535 118 -677 181 -919 282 -1075 l30 -48 207 0 207 0 38 39 c22 22 62 50 90 63 49 22 61 23 306 23 254 0 255 0 310 -26 30 -14 71 -42 90 -62 30 -32 41 -37 82 -37 56 0 74 20 109 120 18 52 23 94 27 212 5 172 -5 291 -58 643 -22 144 -46 310 -55 370 -16 119 -36 388 -30 408 2 7 6 54 10 105 l6 92 -233 -1 c-128 -1 -289 -6 -358 -10z m516 -1180 c45 -21 86 -68 110 -124 47 -114 -31 -265 -155 -295 -29 -7 -70 -9 -93 -6 -215 34 -259 336 -63 427 55 26 146 25 201 -2z"/>
 <path d="M2964 4455 c-20 -31 -10 -63 23 -71 35 -9 57 7 61 42 7 52 -55 74 -84 29z"/>
 <path d="M3353 5763 c-12 -71 -9 -333 6 -453 7 -58 30 -220 51 -361 89 -580 97 -790 40 -997 -11 -39 -20 -74 -20 -77 0 -3 165 -4 367 -3 l368 3 33 50 c91 140 162 404 263 985 64 369 94 523 125 639 13 52 22 96 20 98 -8 8 -463 82 -656 107 -176 23 -512 56 -567 56 -18 0 -23 -8 -30 -47z"/>
 <path d="M782 4649 c-98 -12 -215 -45 -310 -85 -144 -61 -172 -91 -172 -181 0 -50 73 -469 83 -480 3 -3 48 15 99 41 187 92 358 135 571 143 111 5 137 8 137 20 0 42 -73 439 -84 462 -19 35 -54 67 -89 80 -32 12 -142 12 -235 0z"/>
 <path d="M4966 4638 c-22 -13 -48 -37 -58 -55 -17 -29 -101 -470 -92 -484 2 -3 68 -9 146 -12 218 -9 387 -54 574 -151 54 -27 87 -40 89 -32 11 30 85 453 85 483 0 87 -69 144 -250 206 -109 37 -219 57 -344 63 -103 5 -114 4 -150 -18z"/>
 <path d="M955 3909 c-38 -5 -106 -19 -150 -31 -85 -23 -242 -84 -250 -99 -8 -12 48 -394 90 -615 62 -327 152 -699 246 -1014 74 -247 246 -751 263 -767 8 -8 154 117 213 182 150 163 243 369 243 538 0 51 -13 113 -51 250 -57 202 -93 334 -115 417 -8 30 -30 109 -49 175 -18 66 -54 197 -80 290 -25 94 -52 190 -60 215 -7 25 -25 88 -39 140 -58 213 -86 311 -91 320 -7 12 -72 11 -170 -1z"/>
 <path d="M4870 3883 c-6 -21 -29 -103 -51 -183 -45 -160 -63 -190 -115 -190 -32 0 -34 -3 -48 -52 -31 -108 -31 -105 3 -134 41 -34 40 -61 -3 -217 -19 -67 -42 -147 -49 -177 -18 -67 -122 -442 -178 -640 -36 -128 -40 -153 -35 -210 20 -196 118 -393 276 -550 61 -62 178 -156 184 -148 22 28 262 755 311 943 135 511 204 837 260 1230 14 99 27 191 29 203 3 21 -5 28 -60 53 -135 60 -345 108 -476 109 -34 0 -38 -3 -48 -37z"/>
 <path d="M2425 3789 c-51 -45 -57 -77 -53 -304 3 -222 7 -236 71 -275 29 -18 52 -20 254 -20 l221 0 32 26 c57 48 60 63 60 289 0 186 -2 210 -20 245 -34 66 -49 70 -304 70 l-225 0 -36 -31z m467 -38 c46 -17 53 -49 53 -252 l0 -189 -28 -27 -27 -28 -199 0 c-197 0 -200 0 -225 24 l-26 24 0 203 0 202 31 26 c30 26 31 26 214 26 101 0 194 -4 207 -9z"/>
 <path d="M2610 3505 l0 -75 80 0 80 0 0 75 0 75 -80 0 -80 0 0 -75z"/>
 <path d="M3184 3687 c-2 -7 -3 -85 -2 -172 l3 -160 255 -3 255 -2 26 42 c14 24 42 68 62 100 l36 56 -60 76 -61 76 -254 0 c-199 0 -256 -3 -260 -13z m317 -106 c32 -33 36 -58 14 -100 -16 -32 -33 -41 -75 -41 -42 0 -59 9 -76 42 -46 89 65 170 137 99z"/>
 <path d="M3940 3687 c0 -7 11 -24 24 -36 35 -33 59 -87 50 -114 -3 -12 -28 -57 -55 -99 -27 -42 -49 -79 -49 -82 0 -4 45 -6 100 -6 l100 0 -2 173 -3 172 -82 3 c-65 2 -83 0 -83 -11z"/>
 <path d="M1950 3520 l0 -171 123 3 122 3 3 168 2 167 -125 0 -125 0 0 -170z"/>
 <path d="M1841 3138 c-5 -18 -14 -60 -20 -93 -6 -33 -13 -73 -16 -90 -4 -16 -10 -239 -14 -495 -8 -428 -10 -472 -30 -550 -57 -224 -230 -469 -444 -629 -66 -50 -67 -45 34 -122 73 -56 85 -77 76 -134 -6 -34 -4 -35 68 -79 l73 -44 23 24 c32 35 67 30 170 -21 49 -25 94 -43 100 -40 5 4 20 27 33 53 67 131 290 439 356 492 87 69 217 95 330 66 76 -20 129 -52 186 -113 l41 -44 48 53 c177 197 431 590 530 820 73 171 96 275 102 464 8 242 -25 380 -112 471 l-42 43 -92 0 -92 0 -50 -54 c-30 -33 -69 -62 -101 -77 -49 -22 -68 -24 -268 -27 -301 -5 -368 11 -458 113 l-40 45 -190 0 -190 0 -11 -32z m1399 -310 c14 -5 44 -28 68 -51 128 -125 66 -339 -109 -378 -159 -36 -304 109 -268 269 30 136 173 210 309 160z m-218 -643 c81 -54 115 -153 88 -255 -18 -67 -91 -134 -163 -150 -82 -19 -146 -1 -207 59 -55 53 -75 106 -68 188 14 161 210 250 350 158z"/>
 <path d="M3115 2650 c-24 -27 -13 -68 22 -76 33 -9 57 6 61 38 6 50 -49 76 -83 38z"/>
 <path d="M2860 2030 c-11 -11 -20 -23 -20 -28 0 -20 34 -52 55 -52 21 0 55 32 55 52 0 14 -39 48 -55 48 -8 0 -24 -9 -35 -20z"/>
 <path d="M3570 3165 c0 -3 9 -24 21 -47 35 -68 69 -224 76 -343 9 -178 -22 -387 -84 -564 -92 -258 -344 -662 -593 -950 -81 -93 -80 -89 -17 -164 l32 -38 114 151 c129 170 170 211 250 249 48 22 69 26 151 26 83 0 103 -4 155 -28 33 -15 77 -45 99 -65 71 -69 273 -351 334 -467 39 -73 28 -73 159 -6 197 100 497 303 476 321 -4 4 -36 28 -71 54 -163 124 -305 303 -382 484 -62 147 -72 229 -71 582 2 336 -9 553 -35 689 -24 134 10 121 -324 121 -160 0 -290 -2 -290 -5z"/>
 <path d="M2385 1287 c-46 -26 -166 -180 -273 -352 -235 -376 -230 -518 23 -636 94 -44 203 -72 375 -96 101 -14 195 -18 495 -18 402 0 517 10 709 60 186 48 287 110 332 202 31 62 29 119 -6 211 -41 108 -143 287 -234 412 -126 174 -148 199 -192 221 -67 32 -159 24 -211 -17 -34 -28 -243 -289 -243 -303 0 -3 55 -23 121 -45 247 -80 429 -197 429 -277 0 -50 -37 -89 -85 -89 -27 0 -45 9 -78 38 -54 49 -98 74 -214 122 -102 43 -292 100 -330 100 -14 0 -50 -7 -81 -16 -216 -61 -387 -136 -464 -203 -54 -48 -93 -53 -133 -18 -32 27 -37 83 -9 119 29 39 108 96 190 136 92 46 252 107 307 117 20 4 37 10 36 14 0 3 -50 71 -112 151 -88 114 -122 150 -157 168 -60 30 -141 30 -195 -1z"/>
 </g>
<g id="layer103" fill="#fbfbfb" stroke="none">
 <path d="M2710 5813 c-308 -18 -684 -61 -1030 -120 -118 -20 -230 -38 -247 -41 -38 -5 -38 -9 -17 -77 25 -83 70 -303 124 -613 108 -623 171 -869 264 -1025 l31 -52 210 -5 210 -5 36 36 c19 19 58 46 85 60 48 24 54 24 314 24 300 0 310 -2 402 -84 42 -38 52 -42 90 -39 38 3 45 7 65 43 36 65 54 151 60 285 6 150 -8 296 -71 715 -24 165 -50 345 -57 400 -14 116 -18 376 -6 453 l8 52 -208 -2 c-114 -1 -233 -3 -263 -5z m409 -1190 c66 -41 101 -97 108 -170 7 -75 -8 -123 -56 -176 -70 -78 -171 -98 -266 -53 -54 25 -73 42 -103 97 -51 91 -35 187 43 265 80 80 181 94 274 37z"/>
 <path d="M3366 5801 c-3 -5 -11 -52 -17 -106 -13 -121 0 -305 42 -589 84 -570 99 -697 99 -856 0 -107 -21 -263 -44 -329 -9 -24 -16 -45 -16 -47 0 -2 164 -4 364 -4 l365 0 19 28 c105 148 178 419 297 1112 53 306 88 474 116 566 11 36 19 67 17 68 -2 2 -97 19 -213 39 -314 55 -593 90 -967 122 -31 2 -59 1 -62 -4z"/>
 <path d="M808 4649 c-163 -20 -385 -92 -449 -146 -38 -32 -59 -73 -59 -115 0 -30 78 -479 85 -486 2 -2 44 17 94 43 179 90 371 139 590 151 l121 7 -5 31 c-3 17 -21 119 -39 228 -36 212 -48 243 -109 274 -39 21 -128 25 -229 13z"/>
 <path d="M5002 4650 c-37 -9 -77 -42 -98 -81 -10 -21 -84 -419 -84 -457 0 -5 51 -12 113 -15 219 -13 416 -63 592 -152 49 -24 92 -41 96 -37 14 17 90 475 84 505 -16 75 -92 129 -258 182 -143 45 -371 74 -445 55z"/>
 <path d="M995 3910 c-128 -13 -269 -51 -389 -104 l-53 -24 19 -138 c78 -589 227 -1224 427 -1824 88 -261 150 -430 160 -430 4 0 43 29 88 65 182 145 305 338 349 545 27 128 35 87 -136 700 -66 239 -125 451 -130 470 -5 19 -53 195 -108 390 -113 405 -86 364 -227 350z"/>
 <path d="M4879 3896 c-5 -12 -27 -88 -49 -171 -22 -82 -46 -160 -52 -173 -15 -29 -40 -43 -79 -44 -27 -1 -31 -6 -44 -52 -29 -105 -29 -105 0 -127 55 -44 58 -27 -109 -633 l-155 -561 9 -75 c19 -144 64 -260 151 -385 73 -106 285 -305 302 -284 9 10 96 253 158 439 156 471 287 989 368 1460 29 164 71 448 71 477 0 29 -192 101 -340 127 -47 8 -116 16 -154 18 -61 4 -69 2 -77 -16z"/>
 <path d="M2453 3805 c-18 -8 -42 -29 -53 -47 -18 -30 -20 -50 -20 -253 0 -320 -5 -315 310 -315 219 0 250 6 288 55 21 27 22 37 22 260 0 223 -1 233 -22 260 -39 49 -69 55 -290 55 -152 -1 -211 -4 -235 -15z m464 -69 l28 -24 0 -207 0 -207 -28 -24 c-28 -24 -31 -24 -223 -24 -121 0 -203 4 -216 11 -39 21 -48 68 -48 244 0 174 9 222 47 244 11 6 94 11 215 11 194 0 197 0 225 -24z"/>
 <path d="M1836 3103 c-31 -140 -39 -250 -46 -683 l-7 -445 -27 -89 c-35 -116 -66 -180 -142 -296 -70 -106 -169 -212 -279 -300 l-74 -58 84 -65 c87 -69 108 -104 86 -146 -6 -11 -11 -22 -11 -25 0 -3 31 -24 70 -47 l69 -41 27 21 c41 32 84 26 183 -23 l88 -45 61 102 c73 124 219 331 285 404 31 34 72 64 115 85 62 31 74 33 167 33 93 0 105 -2 166 -32 40 -20 85 -53 112 -82 l47 -50 84 103 c175 213 317 426 426 641 93 183 115 241 147 390 25 114 25 394 -1 485 -26 93 -65 168 -105 201 -33 27 -41 29 -126 29 l-90 0 -25 -36 c-31 -46 -111 -99 -171 -114 -30 -8 -129 -10 -285 -8 -237 3 -239 3 -289 30 -54 29 -96 64 -121 103 l-16 25 -193 0 -193 0 -16 -67z m1433 -290 c127 -79 147 -248 42 -353 -71 -71 -164 -89 -251 -49 -92 41 -134 107 -134 209 -1 54 4 73 28 112 67 114 204 149 315 81z m-272 -612 c81 -41 123 -112 123 -209 0 -122 -102 -222 -225 -222 -123 0 -225 100 -225 222 0 114 59 193 170 229 37 12 113 3 157 -20z"/>
 <path d="M3595 3117 c56 -121 69 -196 69 -407 0 -148 -4 -215 -17 -280 -16 -81 -63 -230 -92 -295 -8 -16 -27 -60 -43 -96 -91 -204 -332 -562 -549 -817 l-42 -49 37 -51 c20 -28 40 -52 43 -52 4 0 56 64 115 141 59 78 121 155 138 171 69 70 164 108 266 108 84 0 148 -19 217 -65 80 -53 275 -322 404 -556 16 -28 435 219 559 329 l43 38 -59 44 c-187 140 -351 360 -420 563 -43 126 -47 174 -49 577 -1 391 -10 529 -44 672 l-16 73 -292 3 -292 2 24 -53z"/>
 <path d="M2392 1289 c-26 -13 -60 -44 -86 -78 -240 -313 -379 -583 -363 -703 22 -161 229 -262 637 -309 153 -18 706 -18 855 0 283 34 458 90 554 177 69 62 89 141 61 244 -20 78 -99 227 -200 378 -175 262 -226 312 -325 312 -90 0 -126 -27 -252 -190 -61 -80 -108 -148 -105 -151 4 -4 34 -14 67 -24 33 -9 105 -35 160 -58 258 -105 371 -222 290 -302 -38 -39 -87 -34 -141 14 -80 71 -246 143 -461 201 l-81 22 -97 -27 c-200 -54 -355 -122 -436 -192 -65 -56 -113 -60 -153 -12 -30 35 -32 58 -11 99 36 71 220 175 420 240 55 18 104 36 108 40 9 8 -190 272 -225 298 -63 48 -146 55 -216 21z"/>
 </g>

</svg>