<!DOCTYPE svg PUBLIC "-//W3C//DTD SVG 20010904//EN" "http://www.w3.org/TR/2001/REC-SVG-20010904/DTD/svg10.dtd">
<svg version="1.0" xmlns="http://www.w3.org/2000/svg" width="600px" height="600px" viewBox="0 0 6000 6000" preserveAspectRatio="xMidYMid meet">
<g id="layer101" fill="#efefef" stroke="none">
 <path d="M1975 4644 c-289 -29 -461 -66 -683 -149 -211 -79 -454 -218 -637 -366 -164 -132 -357 -347 -471 -524 -75 -118 -184 -337 -184 -370 0 -223 1233 -398 2503 -356 203 7 376 15 385 18 12 5 14 2 8 -13 -14 -36 -56 -229 -73 -339 -21 -137 -24 -497 -5 -630 17 -118 58 -299 87 -389 13 -39 28 -90 34 -112 22 -84 109 -83 286 5 215 106 512 328 905 676 187 166 737 715 916 915 495 554 847 1042 935 1299 20 56 25 146 10 169 -10 16 -171 71 -312 107 -419 107 -906 73 -1329 -92 -192 -75 -453 -226 -609 -351 -35 -29 -68 -49 -75 -45 -6 4 -36 27 -66 52 -101 82 -263 183 -415 257 -226 111 -459 182 -720 220 -99 14 -413 26 -490 18z"/>
 </g>

</svg>