<!DOCTYPE svg PUBLIC "-//W3C//DTD SVG 20010904//EN" "http://www.w3.org/TR/2001/REC-SVG-20010904/DTD/svg10.dtd">
<svg version="1.0" xmlns="http://www.w3.org/2000/svg" width="600px" height="600px" viewBox="0 0 6000 6000" preserveAspectRatio="xMidYMid meet">
<g id="layer101" fill="#fefefe" stroke="none">
 <path d="M5755 3396 c-16 -8 -282 -188 -590 -400 -308 -212 -594 -403 -635 -425 -157 -82 -353 -121 -517 -102 -54 6 -695 162 -1653 402 l-1565 392 -110 1 c-133 1 -190 -12 -314 -71 -156 -75 -288 -226 -343 -393 -30 -91 -37 -275 -13 -356 48 -167 162 -298 312 -359 38 -15 534 -116 1428 -290 754 -146 1420 -275 1480 -285 240 -41 402 -54 685 -54 249 -1 285 1 376 22 353 77 674 269 877 523 73 91 789 1102 812 1146 23 43 19 131 -6 173 -47 76 -147 110 -224 76z"/>
 </g>

</svg>