<!DOCTYPE svg PUBLIC "-//W3C//DTD SVG 20010904//EN" "http://www.w3.org/TR/2001/REC-SVG-20010904/DTD/svg10.dtd">
<svg version="1.0" xmlns="http://www.w3.org/2000/svg" width="600px" height="600px" viewBox="0 0 6000 6000" preserveAspectRatio="xMidYMid meet">
<g id="layer101" fill="#f1f1f1" stroke="none">
 <path d="M1819 5649 c-112 -77 -197 -149 -292 -249 -48 -49 -87 -83 -87 -75 0 33 -23 116 -30 108 -4 -4 -45 -96 -91 -203 -80 -185 -84 -193 -87 -152 -4 48 -14 53 -31 15 -7 -14 -39 -68 -72 -119 -73 -113 -94 -166 -103 -259 -11 -129 -69 -265 -149 -352 -22 -24 -43 -40 -48 -37 -5 3 -9 35 -9 72 0 50 6 80 25 121 14 30 24 56 21 58 -7 8 -206 -298 -250 -384 -46 -92 -86 -207 -108 -308 -18 -86 -15 -409 5 -566 9 -69 28 -229 42 -354 40 -353 68 -476 170 -740 165 -428 409 -827 676 -1108 146 -155 563 -515 712 -616 129 -87 321 -147 569 -177 211 -26 778 -26 896 -1 333 72 624 240 899 518 273 277 477 610 718 1173 59 139 73 181 63 187 -7 5 -16 9 -19 9 -6 0 28 166 61 292 11 43 45 133 76 200 138 303 163 473 99 693 -15 51 -72 184 -130 305 -116 240 -125 266 -125 364 0 116 48 254 143 411 20 32 34 61 32 63 -2 2 -49 -23 -103 -56 l-100 -60 -6 86 c-4 48 -9 109 -12 136 l-6 49 -13 -30 c-8 -18 -23 -36 -34 -43 -45 -23 -87 26 -150 175 -116 273 -265 430 -456 480 -61 15 -155 20 -155 8 0 -4 20 -33 45 -64 83 -106 110 -178 164 -449 92 -459 96 -487 95 -750 0 -230 -1 -237 -31 -350 -38 -142 -93 -271 -158 -370 l-49 -75 -25 228 c-14 125 -29 227 -33 227 -4 0 -8 -14 -8 -31 0 -44 -46 -268 -76 -369 -34 -117 -87 -260 -96 -260 -3 0 -10 10 -13 23 -12 39 -81 150 -126 201 -46 52 -139 130 -146 122 -3 -2 16 -38 41 -80 58 -95 110 -221 136 -328 27 -109 36 -299 21 -409 -21 -144 -20 -143 -61 -28 -126 357 -379 678 -704 894 -106 70 -301 173 -311 163 -2 -2 24 -71 60 -152 l64 -147 -87 81 c-95 89 -226 182 -336 237 -80 40 -196 86 -196 77 0 -3 51 -67 113 -143 63 -75 116 -141 120 -147 3 -6 -127 60 -290 147 -164 87 -299 156 -301 154 -4 -4 47 -103 105 -202 14 -24 22 -43 19 -43 -3 0 -23 15 -43 34 -62 55 -316 256 -324 256 -4 0 2 -27 13 -61 11 -33 18 -62 16 -65 -10 -9 -169 77 -208 112 -71 64 -120 190 -120 305 0 101 27 215 179 764 83 296 148 541 145 544 -2 3 -22 -13 -44 -34 -22 -21 -41 -37 -44 -34 -2 2 46 96 106 208 60 112 107 208 106 213 -2 5 -48 -23 -103 -63 -217 -157 -202 -146 -184 -119 59 92 119 191 119 195 0 12 -21 2 -91 -46z"/>
 </g>

</svg>