<!DOCTYPE svg PUBLIC "-//W3C//DTD SVG 20010904//EN" "http://www.w3.org/TR/2001/REC-SVG-20010904/DTD/svg10.dtd">
<svg version="1.0" xmlns="http://www.w3.org/2000/svg" width="600px" height="600px" viewBox="0 0 6000 6000" preserveAspectRatio="xMidYMid meet">
<g id="layer101" fill="#010101" stroke="none">
 <path d="M2465 4820 c-1274 -86 -2203 -415 -2421 -856 -39 -78 -39 -79 -39 -199 0 -120 0 -121 39 -200 71 -143 240 -294 456 -407 167 -87 445 -191 655 -245 l70 -18 7 -60 c4 -33 14 -130 23 -215 33 -313 95 -613 175 -845 41 -119 123 -290 161 -339 22 -28 78 -43 104 -28 14 7 25 1 53 -30 19 -21 48 -46 63 -55 24 -14 29 -24 29 -54 0 -86 71 -115 261 -107 232 11 345 71 569 307 177 188 207 206 330 206 123 0 153 -18 330 -206 165 -173 246 -233 374 -276 73 -25 95 -27 231 -28 147 0 151 1 215 31 302 143 516 659 595 1429 27 271 27 267 55 276 14 4 77 22 140 39 155 43 360 120 500 188 251 122 439 281 516 437 39 79 39 80 39 200 0 119 -1 122 -37 196 -77 155 -219 283 -459 413 -97 52 -150 60 -187 26 -27 -25 -23 -25 -107 8 -67 26 -70 29 -72 61 -2 57 -32 75 -203 125 -341 98 -723 165 -1210 212 -193 18 -1045 28 -1255 14z"/>
 </g>
<g id="layer102" fill="#53595b" stroke="none">
 <path d="M2570 4644 c-115 -5 -431 -34 -560 -50 -811 -103 -1429 -312 -1700 -576 -189 -183 -171 -375 51 -551 88 -70 169 -120 279 -174 79 -38 231 -101 285 -119 179 -56 273 -84 287 -84 16 0 17 11 15 103 -1 79 2 108 12 121 33 39 315 166 534 240 420 141 775 200 1222 200 419 1 760 -50 1145 -171 258 -81 596 -230 621 -274 10 -17 13 -55 11 -128 -2 -90 0 -103 13 -97 8 3 63 19 121 36 354 103 642 248 792 398 153 152 162 312 27 470 -60 69 -208 173 -355 247 -67 34 -79 49 -80 100 l0 40 -72 28 c-40 15 -76 27 -80 27 -3 0 -20 -13 -36 -30 -17 -16 -37 -30 -45 -30 -8 0 -59 13 -113 29 -386 115 -695 171 -1204 222 -164 16 -293 21 -650 23 -245 2 -479 2 -520 0z"/>
 <path d="M2650 3565 c-407 -44 -815 -154 -1143 -308 l-108 -50 7 -136 c11 -225 19 -306 29 -304 6 1 57 22 115 46 349 146 762 244 1175 278 170 14 552 6 713 -15 385 -51 781 -156 1061 -283 41 -18 75 -32 77 -31 3 4 25 440 22 443 -10 9 -140 70 -214 101 -286 118 -608 203 -944 250 -160 22 -624 27 -790 9z"/>
 <path d="M2810 2919 c-85 -4 -186 -12 -225 -18 -38 -5 -92 -13 -120 -16 -103 -13 -385 -78 -525 -122 -152 -47 -317 -109 -433 -162 -64 -29 -68 -33 -63 -59 3 -15 10 -58 16 -97 30 -200 84 -435 135 -590 15 -44 55 -139 91 -211 66 -135 75 -172 49 -194 -25 -21 -17 -46 29 -88 68 -63 80 -67 110 -37 25 25 28 26 124 19 123 -8 214 6 302 49 54 26 94 60 240 208 158 159 183 180 254 215 l80 39 126 0 c126 0 126 0 206 -39 71 -35 96 -55 249 -211 94 -95 191 -185 217 -199 111 -64 299 -87 390 -47 207 89 367 433 463 996 7 44 16 103 20 130 3 28 8 58 11 68 4 13 -10 24 -68 51 -368 169 -862 293 -1243 311 -221 11 -283 11 -435 4z"/>
 </g>
<g id="layer103" fill="#93989b" stroke="none">
 <path d="M2590 4644 c-234 -16 -374 -27 -490 -40 -138 -15 -514 -71 -539 -79 -7 -3 -59 -15 -115 -26 -312 -64 -681 -189 -876 -296 -172 -95 -300 -205 -356 -305 -25 -46 -29 -63 -29 -133 0 -70 4 -87 29 -132 105 -191 398 -361 871 -509 157 -49 148 -52 141 59 -9 119 -2 131 99 184 372 196 925 348 1400 383 562 41 1138 -48 1670 -257 185 -73 351 -157 367 -185 9 -15 12 -55 10 -120 -2 -86 0 -98 14 -98 31 0 253 70 383 120 513 200 737 444 621 677 -54 109 -189 224 -385 329 -49 26 -95 55 -102 64 -7 8 -13 33 -13 55 l0 40 -72 28 c-40 15 -76 27 -80 27 -3 0 -20 -14 -38 -31 -37 -37 -30 -38 -240 23 -274 80 -620 146 -965 183 -295 31 -403 37 -820 40 -236 1 -455 1 -485 -1z"/>
 <path d="M2735 3570 c-311 -29 -696 -105 -715 -140 -23 -43 -82 -451 -67 -466 3 -3 69 11 148 30 303 74 485 97 829 103 304 5 461 -5 707 -47 257 -45 609 -147 824 -239 52 -23 97 -41 101 -41 12 0 19 61 26 252 l7 188 -110 49 c-338 151 -656 240 -1045 292 -165 22 -560 33 -705 19z"/>
 <path d="M2584 2899 c-345 -39 -722 -142 -1049 -286 l-87 -38 5 -65 c7 -84 59 -358 92 -481 40 -156 93 -297 151 -407 58 -111 64 -138 37 -183 -17 -29 -17 -29 17 -65 19 -19 50 -44 68 -56 l32 -20 19 24 c19 22 25 23 168 24 236 1 274 21 513 264 151 155 172 172 245 207 79 38 81 38 205 38 124 0 126 0 205 -38 73 -35 94 -52 250 -211 94 -96 190 -185 215 -199 73 -41 173 -67 259 -67 118 0 162 19 252 109 63 63 85 95 132 189 93 186 156 401 212 725 39 227 46 204 -92 265 -319 138 -680 233 -1032 272 -232 26 -587 26 -817 -1z"/>
 </g>
<g id="layer104" fill="#fefefd" stroke="none">
 <path d="M2515 4639 c-726 -40 -1425 -189 -1860 -395 -201 -95 -379 -235 -441 -347 -25 -45 -29 -62 -29 -132 0 -98 20 -141 109 -233 152 -159 403 -288 801 -411 56 -17 107 -31 115 -31 12 0 15 20 15 105 0 122 0 122 110 179 209 110 541 226 824 290 718 162 1436 118 2131 -131 134 -47 346 -140 420 -183 64 -37 72 -57 65 -167 -4 -72 -2 -93 8 -93 43 0 295 82 452 148 374 156 585 346 585 526 0 83 -33 151 -116 237 -76 78 -170 146 -299 214 -49 26 -95 55 -102 64 -7 9 -13 34 -13 56 l0 40 -72 28 c-40 15 -76 27 -80 27 -3 0 -20 -14 -38 -31 -37 -37 -29 -38 -244 25 -326 95 -751 166 -1226 206 -168 15 -916 21 -1115 9z"/>
 <path d="M2680 2909 c-347 -30 -740 -127 -1056 -259 -54 -23 -116 -49 -136 -57 -44 -19 -44 -16 -22 -162 49 -340 127 -613 230 -809 58 -111 64 -138 37 -183 -17 -29 -17 -29 17 -65 19 -19 50 -44 68 -56 l32 -20 19 24 c19 22 25 23 168 24 236 1 274 21 513 265 151 154 172 171 245 206 79 38 81 38 206 38 l126 0 86 -43 c79 -39 97 -54 233 -197 218 -229 285 -267 479 -269 99 -1 115 2 159 24 73 38 166 144 225 259 91 178 162 418 216 737 38 225 46 202 -92 261 -350 151 -746 250 -1128 283 -139 11 -486 11 -625 -1z"/>
 </g>

</svg>