<!DOCTYPE svg PUBLIC "-//W3C//DTD SVG 20010904//EN" "http://www.w3.org/TR/2001/REC-SVG-20010904/DTD/svg10.dtd">
<svg version="1.0" xmlns="http://www.w3.org/2000/svg" width="683px" height="683px" viewBox="0 0 6830 6830" preserveAspectRatio="xMidYMid meet">
<g id="layer101" fill="#070707" stroke="none">
 <path d="M641 6244 c-184 -49 -353 -204 -410 -377 -12 -34 -68 -290 -126 -570 -114 -552 -123 -621 -89 -751 41 -158 163 -310 308 -381 l78 -39 -6 -35 c-13 -86 -18 -729 -7 -961 58 -1237 280 -2085 620 -2368 157 -131 428 -200 741 -189 201 7 330 30 750 132 840 205 1008 205 1812 4 535 -133 778 -162 1043 -124 275 39 439 122 570 287 114 143 274 500 259 577 -4 17 -20 43 -36 56 l-29 25 22 89 c23 87 24 90 56 96 65 12 81 38 108 175 52 256 100 653 127 1040 14 203 18 987 5 1116 l-7 81 77 38 c144 71 266 223 307 381 34 130 25 199 -89 751 -58 280 -114 536 -126 570 -58 176 -226 328 -416 377 -94 25 -209 20 -445 -19 -1274 -208 -2659 -241 -3949 -94 -121 13 -184 17 -201 10 -23 -9 -62 -49 -70 -71 -2 -6 -37 -6 -91 1 -66 9 -90 16 -94 28 -17 54 -29 73 -52 86 -15 7 -111 27 -214 44 -207 34 -338 39 -426 15z"/>
 </g>
<g id="layer102" fill="#fffdfd" stroke="none">
 <path d="M1320 6072 c0 -6 -12 -24 -26 -41 -33 -40 -58 -40 -301 0 -163 27 -196 30 -251 21 -87 -15 -163 -52 -221 -110 -87 -87 -93 -106 -207 -656 -57 -276 -107 -526 -110 -556 -8 -66 14 -161 50 -223 35 -59 112 -131 172 -161 120 -60 1052 -189 1739 -241 403 -30 550 -36 1055 -42 645 -7 1125 11 1695 62 546 50 1324 160 1453 205 103 36 202 137 239 242 34 99 25 167 -90 715 -91 434 -109 510 -138 563 -56 106 -159 178 -287 202 -50 9 -82 7 -223 -15 -904 -145 -1572 -199 -2444 -200 -571 0 -974 19 -1525 74 -295 29 -321 34 -347 64 -13 14 -23 39 -23 54 0 25 -4 29 -37 34 -97 15 -173 19 -173 9z m2239 -504 c49 -18 81 -45 269 -232 261 -258 277 -284 277 -436 -1 -148 -15 -172 -259 -418 -248 -251 -274 -267 -431 -267 -157 0 -183 16 -431 267 -244 246 -258 270 -259 418 0 151 13 172 262 421 213 215 258 249 353 269 61 12 151 3 219 -22z"/>
 <path d="M3345 5381 c-48 -23 -399 -373 -414 -414 -17 -43 -13 -104 8 -145 21 -40 361 -382 401 -402 13 -7 47 -13 75 -13 28 0 62 6 75 13 40 20 380 362 401 402 21 41 25 102 8 145 -15 41 -366 391 -414 414 -22 10 -53 19 -70 19 -16 0 -48 -9 -70 -19z m280 -393 c30 -14 55 -55 55 -92 0 -14 -13 -40 -29 -58 l-29 -33 -207 0 -207 0 -29 33 c-44 49 -34 117 22 148 32 18 386 20 424 2z"/>
 <path d="M595 3955 c-11 -203 1 -921 19 -1141 80 -980 258 -1634 511 -1873 65 -61 128 -92 262 -128 91 -25 114 -27 303 -27 250 -1 304 8 798 128 448 110 551 128 797 146 272 20 522 -15 1054 -144 457 -112 539 -127 743 -133 187 -6 288 5 413 44 119 38 165 65 232 137 94 100 180 259 242 447 26 80 54 109 107 112 l39 3 22 74 c29 100 28 112 -8 139 -50 37 -52 58 -25 200 103 527 158 1301 135 1895 -5 138 -11 252 -14 254 -2 2 -109 -12 -237 -32 -1688 -259 -3424 -263 -5073 -11 -126 20 -249 38 -271 41 l-42 6 -7 -137z"/>
 </g>

</svg>