<!DOCTYPE svg PUBLIC "-//W3C//DTD SVG 20010904//EN" "http://www.w3.org/TR/2001/REC-SVG-20010904/DTD/svg10.dtd">
<svg version="1.0" xmlns="http://www.w3.org/2000/svg" width="676px" height="676px" viewBox="0 0 6760 6760" preserveAspectRatio="xMidYMid meet">
<g id="layer101" fill="#131313" stroke="none">
 <path d="M2870 6753 c-355 -27 -811 -99 -1172 -184 -111 -27 -131 -34 -153 -61 -19 -22 -25 -41 -25 -76 0 -26 43 -625 95 -1332 52 -707 97 -1325 100 -1375 5 -88 5 -89 -9 -45 -12 40 -153 561 -392 1450 -41 151 -79 288 -86 304 -34 82 -359 126 -567 76 -101 -25 -230 -84 -316 -145 -110 -78 -105 -63 -105 -325 l0 -228 -34 -6 c-84 -16 -166 -120 -166 -211 0 -22 11 -104 25 -183 17 -105 31 -156 50 -188 27 -46 88 -89 143 -100 36 -7 33 2 57 -194 52 -415 122 -765 237 -1178 57 -206 74 -236 140 -249 40 -8 41 -9 69 -88 23 -67 26 -81 13 -88 -21 -12 -44 -62 -44 -97 0 -61 228 -565 343 -758 77 -130 105 -162 225 -262 164 -138 343 -250 615 -386 69 -35 87 -49 83 -62 -40 -132 -31 -264 25 -374 28 -56 110 -140 180 -187 115 -77 306 -139 549 -178 101 -16 178 -18 630 -18 559 0 613 4 850 62 443 107 629 344 544 689 -5 19 11 31 132 95 252 135 269 145 349 198 95 64 240 179 311 248 49 48 127 165 192 288 29 55 64 129 173 361 168 363 347 961 443 1484 29 158 82 513 92 618 4 42 11 72 18 72 61 0 143 56 175 119 11 20 31 109 46 197 26 155 27 163 11 216 -19 68 -83 132 -149 149 l-43 12 4 213 c3 157 1 222 -8 244 -14 34 -114 113 -201 159 -30 17 -98 44 -150 62 -80 27 -112 33 -222 37 -191 7 -361 -26 -399 -79 -9 -13 -58 -177 -108 -364 -198 -738 -351 -1304 -374 -1385 -24 -84 -25 -84 -20 -30 3 30 20 267 39 525 19 259 64 873 100 1365 61 826 65 897 51 927 -8 18 -28 38 -43 46 -33 17 -384 96 -461 104 -62 7 -97 -8 -118 -50 -10 -19 -21 -26 -32 -23 -9 2 -50 10 -89 16 -66 11 -73 14 -73 35 0 32 -35 72 -73 84 -41 13 -160 27 -372 46 -124 11 -290 14 -615 13 -245 -1 -465 -3 -490 -5z"/>
 </g>
<g id="layer102" fill="#5d6263" stroke="none">
 <path d="M4400 6562 c0 -30 -42 -62 -82 -62 -20 0 -94 7 -165 15 -177 20 -341 33 -520 41 l-153 6 0 -946 0 -946 108 0 107 0 24 51 c33 69 104 139 175 173 140 66 340 17 419 -103 84 -126 96 -255 35 -375 -29 -56 -103 -132 -154 -156 -91 -44 -219 -44 -312 2 -76 36 -153 124 -176 201 -5 15 -19 17 -116 17 l-110 0 0 -500 0 -500 110 0 109 0 10 36 c11 41 82 132 127 163 60 42 143 64 219 58 96 -7 136 -21 188 -65 97 -80 141 -169 141 -282 0 -149 -80 -266 -228 -331 -41 -18 -63 -21 -135 -17 -71 3 -95 9 -139 33 -70 38 -158 133 -172 185 l-11 40 -109 0 -110 0 0 -500 0 -501 112 3 c100 3 111 5 114 22 5 34 75 125 125 161 72 54 125 68 227 63 106 -5 158 -28 224 -95 70 -72 102 -149 102 -248 0 -98 -29 -169 -100 -245 -81 -87 -186 -121 -304 -100 -119 21 -212 92 -262 201 l-23 48 -107 1 -108 0 0 -391 c0 -239 4 -389 9 -387 6 2 46 51 90 110 127 168 222 227 371 229 185 3 264 -43 413 -243 45 -60 99 -132 120 -158 20 -27 37 -52 37 -54 0 -3 24 -43 53 -88 29 -46 61 -100 72 -120 11 -21 25 -38 32 -38 18 0 213 102 308 161 17 11 44 25 60 33 64 31 305 209 305 227 0 3 -26 26 -57 50 -130 97 -270 239 -349 354 -86 124 -167 337 -185 485 -14 116 -26 -74 136 2135 74 1007 136 1857 137 1889 3 70 23 60 -212 107 -168 34 -195 48 -206 104 -8 43 -30 53 -128 60 -79 5 -86 4 -86 -13z"/>
 <path d="M2995 6549 c-163 -10 -315 -25 -540 -54 -306 -39 -713 -118 -722 -141 -2 -6 5 -135 16 -285 194 -2602 269 -3679 261 -3759 -33 -317 -211 -616 -507 -847 -46 -35 -83 -69 -83 -74 0 -10 147 -129 160 -129 4 0 27 -16 50 -35 23 -19 48 -35 54 -35 7 0 21 -9 31 -20 10 -11 27 -22 39 -26 11 -4 32 -15 46 -24 48 -34 289 -152 298 -146 5 3 17 20 26 38 9 18 27 51 41 73 13 22 33 56 44 76 19 35 51 79 208 288 131 173 212 221 379 222 185 1 266 -52 437 -288 21 -29 42 -53 48 -53 5 0 9 152 9 390 l0 390 -107 0 -108 0 -28 -54 c-77 -148 -226 -225 -377 -196 -197 38 -318 215 -282 412 15 82 32 116 86 171 73 76 126 100 226 105 124 6 182 -13 259 -84 36 -33 71 -77 87 -110 l26 -54 109 0 109 0 -2 498 -3 497 -105 3 -105 2 -33 -64 c-41 -79 -93 -128 -179 -168 -60 -29 -70 -30 -152 -26 -62 4 -98 11 -130 28 -60 30 -142 114 -171 175 -46 97 -35 240 24 328 14 20 23 37 21 37 -3 0 14 17 38 38 111 101 284 120 414 46 61 -35 135 -127 157 -197 5 -16 17 -17 113 -15 l108 3 3 498 2 498 -112 -3 -111 -3 -10 -30 c-10 -30 -64 -104 -102 -138 -11 -10 -48 -32 -83 -49 -55 -26 -75 -31 -140 -30 -92 0 -147 18 -216 71 -144 109 -180 339 -73 473 54 69 81 92 145 124 44 22 67 26 136 26 69 1 92 -4 144 -27 72 -32 153 -112 183 -180 l20 -45 109 0 110 0 0 945 0 945 -87 -2 c-49 -1 -142 -5 -208 -9z"/>
 <path d="M780 5323 c-54 -7 -143 -36 -193 -61 -29 -14 -54 -27 -57 -27 -3 0 -24 -13 -47 -28 l-43 -27 0 -63 c1 -86 17 -267 24 -274 3 -4 71 3 149 16 79 12 149 20 157 17 8 -2 27 -7 42 -10 34 -8 94 -59 114 -99 18 -33 64 -290 64 -355 0 -90 -74 -172 -173 -191 -29 -5 -112 -20 -185 -32 l-133 -22 5 -61 c17 -180 38 -337 67 -498 12 -62 27 -147 34 -188 11 -66 47 -224 90 -400 20 -81 51 -198 70 -260 42 -141 44 -175 14 -214 -11 -14 -24 -24 -29 -21 -22 14 -18 -22 12 -110 28 -85 34 -96 53 -91 11 3 35 2 54 -2 41 -9 50 -24 110 -177 56 -143 235 -507 270 -548 6 -8 9 -16 6 -19 -3 -3 4 -13 14 -22 19 -17 22 -16 76 24 82 60 256 238 306 312 24 35 42 64 41 66 -1 1 5 13 13 26 8 12 27 52 41 87 72 179 86 293 54 419 -12 47 -27 107 -32 135 -5 27 -14 58 -19 67 -5 10 -14 44 -20 75 -6 32 -15 63 -19 68 -5 6 -13 38 -19 72 -11 60 -124 486 -331 1253 -105 387 -132 489 -155 575 -7 28 -23 84 -34 125 -11 41 -29 109 -40 150 -11 41 -30 111 -42 155 -12 44 -24 93 -28 109 -5 22 -15 32 -36 38 -32 9 -203 17 -245 11z"/>
 <path d="M5840 5327 c-3 -4 -30 -8 -60 -11 -29 -3 -57 -9 -60 -13 -4 -5 -15 -37 -25 -73 -9 -36 -23 -85 -31 -110 -7 -25 -17 -63 -23 -85 -5 -22 -21 -85 -36 -140 -50 -185 -54 -200 -74 -275 -60 -226 -154 -576 -176 -650 -13 -47 -26 -96 -29 -110 -7 -31 -32 -124 -57 -210 -39 -133 -170 -636 -176 -675 -3 -22 -9 -44 -13 -50 -5 -5 -16 -45 -24 -89 -9 -43 -21 -86 -25 -95 -5 -9 -14 -39 -20 -66 -11 -56 -27 -117 -47 -187 -35 -117 2 -329 80 -463 15 -27 29 -55 30 -62 10 -63 229 -302 360 -392 38 -27 50 -30 62 -20 8 6 12 14 9 17 -3 3 5 16 17 29 12 13 18 23 14 23 -4 0 4 15 18 32 13 18 25 36 25 40 1 5 32 70 69 145 37 76 80 167 96 203 15 36 34 80 43 98 48 108 174 477 224 657 6 22 17 60 25 85 75 255 165 711 213 1091 19 147 21 183 10 193 -2 2 -85 19 -184 36 -98 17 -187 36 -196 41 -31 16 -85 88 -97 126 -14 47 1 172 44 371 7 34 73 103 119 123 52 24 84 23 235 -6 69 -13 126 -23 127 -21 1 1 5 77 9 168 7 178 5 189 -41 209 -11 5 -43 22 -71 38 -29 16 -81 39 -118 50 -64 20 -236 39 -246 28z"/>
 <path d="M2664 4715 c-98 -43 -122 -174 -47 -250 35 -34 63 -45 116 -45 85 0 147 66 147 155 0 109 -116 184 -216 140z"/>
 <path d="M3973 4714 c-42 -18 -81 -70 -88 -119 -8 -52 13 -102 60 -144 30 -26 44 -31 88 -31 94 0 157 61 157 153 0 71 -27 111 -97 143 -39 17 -78 17 -120 -2z"/>
 <path d="M565 4654 c-72 -13 -170 -29 -218 -36 -49 -6 -91 -17 -93 -23 -7 -17 34 -247 45 -258 12 -12 471 60 487 77 8 8 5 46 -10 139 l-20 127 -31 -1 c-16 -1 -88 -12 -160 -25z m135 -61 c72 -64 7 -180 -86 -157 -66 17 -88 105 -39 158 33 36 84 36 125 -1z"/>
 <path d="M5992 4562 c-27 -146 -27 -150 1 -157 28 -6 201 -35 247 -42 19 -2 47 -7 62 -9 78 -13 96 -16 133 -17 l40 -2 17 100 c24 141 23 163 -4 170 -22 5 -458 75 -468 75 -3 0 -16 -53 -28 -118z m199 29 c52 -52 26 -147 -41 -152 -72 -6 -106 17 -116 76 -5 36 -2 45 24 73 41 43 91 44 133 3z"/>
 <path d="M43 4585 c0 -33 2 -45 4 -27 2 18 2 45 0 60 -2 15 -4 0 -4 -33z"/>
 <path d="M6722 4590 c0 -19 2 -27 5 -17 2 9 2 25 0 35 -3 9 -5 1 -5 -18z"/>
 <path d="M2655 3528 c-54 -31 -89 -98 -82 -157 4 -38 13 -52 50 -88 43 -41 49 -43 106 -43 50 0 65 4 91 26 41 35 60 74 60 124 0 50 -19 89 -60 124 -26 21 -41 26 -88 26 -31 0 -66 -6 -77 -12z"/>
 <path d="M3965 3528 c-43 -25 -85 -94 -85 -140 0 -12 9 -41 21 -64 27 -57 74 -84 146 -84 52 0 58 3 99 44 43 42 44 45 44 106 0 61 -1 64 -44 106 -41 42 -46 44 -102 44 -33 0 -68 -6 -79 -12z"/>
 <path d="M2654 2341 c-115 -70 -107 -226 13 -276 72 -30 135 -11 187 58 51 66 28 172 -46 217 -42 26 -113 26 -154 1z"/>
 <path d="M3965 2341 c-43 -26 -61 -50 -75 -97 -37 -126 103 -238 220 -175 105 55 109 209 8 271 -42 26 -113 26 -153 1z"/>
 <path d="M2725 1468 c-50 -17 -92 -55 -155 -139 -161 -211 -312 -465 -359 -606 -77 -230 48 -370 404 -453 351 -82 1046 -91 1447 -20 343 61 517 177 518 345 0 135 -102 343 -314 644 -146 206 -189 241 -296 241 -71 0 -124 -25 -175 -81 -70 -76 -236 -298 -231 -308 3 -5 27 -14 53 -20 66 -16 256 -88 323 -122 84 -42 199 -126 220 -162 46 -75 -1 -157 -89 -157 -19 0 -46 16 -85 50 -90 79 -220 137 -470 210 l-130 38 -110 -30 c-224 -60 -410 -142 -505 -223 -42 -36 -60 -45 -90 -45 -61 0 -109 61 -96 121 18 81 239 214 495 299 69 23 126 43 127 44 1 1 -55 75 -125 166 -111 145 -134 168 -181 193 -58 29 -120 34 -176 15z"/>
 </g>
<g id="layer103" fill="#8b8f90" stroke="none">
 <path d="M4401 6558 c-10 -26 -37 -52 -64 -61 -10 -4 -89 2 -175 13 -166 20 -344 35 -554 46 l-128 6 0 -946 0 -946 108 0 107 0 19 45 c43 105 168 198 286 211 108 12 245 -44 311 -128 51 -67 74 -136 74 -228 0 -77 -3 -92 -33 -152 -33 -67 -102 -138 -162 -165 -46 -22 -142 -35 -197 -28 -107 13 -228 100 -273 196 l-23 49 -109 0 -108 0 0 -490 0 -490 108 0 107 0 18 43 c25 61 107 144 175 175 49 23 70 27 152 27 76 0 104 -4 142 -22 54 -25 128 -90 159 -139 63 -102 62 -266 -1 -368 -34 -56 -116 -123 -178 -146 -82 -31 -205 -25 -280 14 -83 42 -152 120 -176 199 -5 15 -19 17 -116 17 l-110 0 0 -490 0 -490 109 0 109 0 16 41 c25 62 120 151 188 177 86 32 143 37 223 17 122 -30 208 -113 247 -237 22 -73 23 -128 2 -199 -31 -107 -99 -185 -201 -231 -37 -17 -68 -22 -133 -23 -77 0 -92 3 -152 33 -77 38 -146 108 -174 177 l-19 45 -107 0 -108 0 0 -385 c0 -217 4 -385 9 -385 5 0 38 39 74 87 117 158 203 221 337 245 108 19 234 -12 327 -81 52 -38 179 -200 293 -375 31 -48 139 -229 143 -240 4 -12 128 45 262 121 154 88 415 271 415 291 0 5 -36 36 -79 71 -93 73 -221 204 -286 292 -116 157 -197 360 -217 545 -12 102 -6 194 130 2053 79 1070 143 1960 142 1977 0 31 0 32 -92 53 -51 12 -132 29 -181 38 -107 19 -147 46 -147 98 0 27 -5 34 -27 41 -16 4 -37 9 -48 10 -11 0 -44 4 -72 9 -49 6 -53 5 -62 -17z"/>
 <path d="M3030 6549 c-296 -18 -643 -61 -946 -119 -246 -47 -335 -67 -344 -76 -5 -5 52 -831 132 -1904 77 -1042 141 -1956 141 -2030 2 -197 -34 -338 -130 -520 -87 -162 -242 -341 -393 -454 -36 -26 -65 -52 -65 -56 0 -18 197 -161 357 -259 117 -71 308 -165 317 -155 5 5 24 38 43 74 52 96 112 184 262 390 113 155 206 217 351 236 100 12 236 -29 317 -96 20 -17 73 -78 118 -135 44 -58 85 -105 90 -105 7 0 9 137 8 382 l-3 383 -105 3 -105 2 -34 -65 c-38 -75 -92 -126 -171 -163 -44 -20 -71 -26 -135 -26 -111 -1 -174 23 -245 94 -84 84 -105 134 -105 250 0 122 13 163 76 233 173 194 468 154 588 -81 l21 -42 110 0 110 0 0 490 0 490 -109 0 -109 0 -26 -54 c-14 -29 -50 -76 -79 -103 -69 -66 -141 -93 -246 -93 -70 0 -86 4 -150 36 -124 62 -191 172 -191 314 0 64 21 143 52 197 25 41 95 98 155 126 69 32 217 32 286 0 64 -30 148 -112 177 -173 l24 -51 105 3 106 3 3 488 2 487 -110 0 -110 0 -22 -47 c-64 -137 -235 -224 -379 -194 -84 17 -139 44 -185 93 -76 78 -95 119 -101 216 -6 102 9 168 56 236 157 227 500 195 612 -59 l20 -46 107 3 107 3 3 943 2 942 -62 -1 c-35 -1 -124 -6 -198 -10z"/>
 <path d="M701 5304 c-29 -8 -65 -20 -80 -27 -102 -52 -138 -72 -154 -86 -17 -14 -18 -31 -15 -177 2 -90 6 -166 10 -170 4 -3 72 4 150 16 120 19 150 21 186 11 48 -14 106 -60 129 -104 19 -37 63 -282 63 -350 0 -81 -53 -156 -131 -185 -14 -6 -97 -22 -185 -37 -87 -15 -162 -30 -166 -34 -16 -14 52 -497 112 -802 39 -196 111 -488 150 -609 12 -36 24 -91 27 -123 6 -55 5 -58 -29 -90 l-35 -33 24 -69 c13 -39 26 -78 29 -87 5 -14 17 -18 49 -18 26 0 51 -7 64 -18 11 -9 48 -84 82 -167 68 -170 192 -425 258 -533 44 -72 45 -72 65 -54 12 10 39 30 61 45 61 41 227 214 280 292 96 143 156 300 171 448 6 65 3 81 -97 447 -21 80 -62 231 -90 335 -28 105 -60 224 -71 265 -11 41 -22 86 -25 100 -9 43 -111 433 -195 745 -44 165 -95 356 -114 425 -18 69 -54 202 -79 295 -26 94 -55 203 -65 242 -26 99 -33 109 -77 117 -67 11 -246 5 -302 -10z"/>
 <path d="M5767 5310 c-49 -9 -53 -14 -72 -85 -9 -33 -25 -91 -35 -130 -17 -63 -90 -334 -141 -525 -49 -178 -190 -706 -194 -720 -2 -8 -18 -71 -35 -140 -18 -69 -36 -141 -40 -160 -4 -19 -17 -69 -28 -110 -19 -68 -90 -333 -157 -585 -47 -175 -65 -238 -87 -315 -75 -256 37 -569 296 -825 89 -88 185 -165 207 -165 13 0 119 186 189 333 237 495 419 1099 525 1742 25 146 61 420 67 500 l3 40 -181 31 c-99 17 -189 36 -200 42 -38 20 -93 91 -105 134 -10 37 -7 66 17 206 33 196 52 234 135 276 65 32 71 32 236 4 73 -12 134 -20 137 -17 3 3 8 79 12 170 l7 165 -26 17 c-92 60 -165 94 -239 112 -65 15 -224 18 -291 5z"/>
 <path d="M2630 4682 c-66 -66 -64 -160 5 -221 30 -26 44 -31 86 -31 122 0 194 106 141 210 -26 52 -74 80 -140 80 -50 0 -58 -3 -92 -38z"/>
 <path d="M3950 4694 c-42 -36 -60 -74 -60 -129 0 -39 5 -52 38 -86 55 -59 130 -69 197 -25 84 55 77 196 -13 249 -47 27 -123 23 -162 -9z"/>
 <path d="M585 4654 c-349 -60 -325 -54 -325 -81 0 -35 32 -227 39 -235 4 -4 112 10 241 32 129 22 238 40 243 40 14 0 1 114 -28 248 -6 26 7 26 -170 -4z m119 -53 c39 -43 36 -126 -6 -156 -43 -30 -117 -17 -141 25 -43 71 2 150 86 150 30 0 49 -6 61 -19z"/>
 <path d="M6016 4672 c-3 -5 -12 -54 -21 -108 -8 -55 -17 -109 -20 -120 -4 -17 2 -24 23 -32 25 -10 464 -83 469 -79 4 5 45 258 42 262 -3 2 -307 56 -456 80 -17 3 -34 2 -37 -3z m181 -74 c29 -33 36 -72 19 -112 -27 -64 -106 -78 -157 -27 -63 63 -19 161 73 161 33 0 50 -6 65 -22z"/>
 <path d="M43 4585 c0 -33 2 -45 4 -27 2 18 2 45 0 60 -2 15 -4 0 -4 -33z"/>
 <path d="M6722 4590 c0 -19 2 -27 5 -17 2 9 2 25 0 35 -3 9 -5 1 -5 -18z"/>
 <path d="M2662 3524 c-131 -67 -95 -265 52 -281 117 -14 207 123 144 217 -49 71 -130 98 -196 64z"/>
 <path d="M3970 3522 c-76 -41 -102 -131 -60 -211 33 -66 128 -90 200 -50 126 71 84 261 -61 276 -31 3 -54 -1 -79 -15z"/>
 <path d="M2664 2340 c-32 -13 -72 -67 -80 -106 -9 -51 11 -107 51 -143 69 -60 185 -34 227 49 50 98 -21 211 -131 209 -25 0 -55 -4 -67 -9z"/>
 <path d="M3974 2340 c-11 -4 -34 -24 -52 -44 -28 -32 -32 -44 -32 -93 0 -52 3 -58 44 -99 40 -41 47 -44 97 -44 96 0 153 57 152 152 -1 54 -28 100 -73 123 -31 16 -102 19 -136 5z"/>
 <path d="M3855 1442 c-27 -17 -60 -43 -71 -58 -12 -16 -66 -88 -121 -160 l-100 -131 116 -37 c182 -60 367 -153 443 -224 56 -54 63 -64 63 -99 0 -56 -27 -91 -79 -105 -43 -11 -45 -14 -71 -81 -48 -120 -129 -229 -230 -305 l-30 -22 65 6 c324 29 556 103 663 211 101 100 96 214 -18 438 -99 194 -326 515 -396 562 -34 23 -56 28 -113 31 -64 3 -76 0 -121 -26z"/>
 </g>
<g id="layer104" fill="#fefdfc" stroke="none">
 <path d="M4410 6567 c0 -17 -49 -63 -76 -71 -11 -3 -72 0 -135 8 -120 16 -419 41 -601 51 l-108 6 0 -946 0 -945 103 0 102 0 19 45 c28 69 97 139 174 177 59 29 76 33 152 33 71 0 94 -4 141 -26 150 -71 231 -219 209 -380 -15 -106 -96 -216 -200 -270 -39 -21 -59 -24 -150 -24 -91 0 -112 3 -155 25 -66 32 -137 104 -166 168 l-24 52 -102 0 -103 0 0 -490 0 -490 103 0 102 0 20 48 c24 59 96 132 166 168 48 25 65 28 154 29 91 0 106 -3 159 -29 77 -38 131 -93 168 -173 26 -55 31 -77 31 -143 0 -66 -5 -88 -30 -142 -41 -88 -83 -132 -161 -170 -62 -31 -74 -33 -167 -33 -93 0 -104 3 -161 32 -69 36 -134 105 -161 170 l-18 43 -102 0 -103 0 0 -490 0 -490 103 0 103 0 23 50 c29 64 94 131 162 166 48 25 64 28 154 29 119 0 168 -19 251 -97 75 -70 106 -145 106 -253 0 -102 -27 -169 -96 -243 -69 -73 -148 -106 -256 -107 -73 0 -94 4 -145 28 -74 34 -145 102 -176 168 -27 58 -35 61 -144 57 l-80 -3 -2 -380 -2 -380 25 30 c14 17 50 63 81 103 90 119 173 172 297 193 193 32 328 -34 477 -236 113 -152 271 -401 292 -459 9 -23 338 158 513 282 87 61 170 130 163 135 -53 37 -164 134 -228 199 -229 231 -361 525 -361 806 0 54 11 249 25 433 81 1085 255 3474 255 3498 0 28 -1 29 -107 51 -238 49 -256 54 -284 78 -21 17 -29 33 -29 57 0 27 -5 34 -27 41 -16 4 -37 9 -49 10 -11 0 -44 4 -72 8 -40 5 -52 4 -52 -7z"/>
 <path d="M3140 6553 c-389 -15 -949 -93 -1350 -187 l-55 -13 3 -44 c1 -24 65 -903 142 -1952 77 -1050 140 -1934 140 -1965 0 -187 -80 -421 -211 -617 -63 -94 -215 -255 -310 -327 -38 -29 -69 -56 -69 -60 0 -7 140 -117 215 -167 121 -82 423 -251 448 -251 3 0 24 34 46 76 23 42 80 133 127 203 223 330 283 387 443 421 143 30 279 -8 384 -109 32 -31 86 -93 120 -139 l62 -83 3 373 c1 205 0 379 -3 385 -3 9 -33 13 -103 13 l-98 0 -23 -49 c-75 -167 -266 -250 -437 -190 -86 30 -169 104 -210 186 -26 51 -29 69 -29 148 0 116 24 172 104 249 86 81 135 101 251 101 82 0 103 -4 150 -26 65 -31 143 -111 171 -174 l20 -45 105 0 104 0 -2 488 -3 487 -101 3 -100 3 -24 -51 c-33 -71 -121 -151 -195 -179 -80 -30 -206 -27 -277 8 -71 35 -135 97 -171 165 -28 55 -31 70 -32 151 0 77 4 98 26 146 61 129 165 199 309 206 71 4 95 1 143 -17 74 -28 164 -110 197 -179 l23 -51 104 0 103 0 0 490 0 490 -105 0 -104 0 -21 -47 c-26 -60 -100 -137 -165 -171 -45 -24 -60 -27 -155 -27 -90 0 -112 3 -153 24 -66 32 -144 113 -176 180 -22 48 -26 69 -26 146 1 109 22 162 96 240 72 77 149 109 259 110 72 0 94 -4 140 -26 81 -39 135 -91 171 -165 l32 -65 101 3 101 3 3 943 2 942 -32 -2 c-18 -1 -67 -3 -108 -5z"/>
 <path d="M745 5305 c-101 -22 -185 -54 -242 -93 l-54 -37 5 -164 c3 -90 7 -166 10 -168 3 -3 58 4 123 16 65 12 135 21 156 21 77 0 159 -55 191 -128 20 -48 56 -256 56 -327 0 -68 -23 -118 -79 -168 -23 -20 -44 -37 -49 -37 -28 -1 -344 -59 -349 -64 -9 -9 32 -334 72 -574 44 -254 109 -562 150 -702 7 -25 21 -72 30 -105 10 -33 23 -79 31 -103 22 -69 18 -91 -24 -132 l-39 -36 24 -70 c13 -38 26 -77 29 -86 4 -12 14 -15 37 -12 64 10 86 -17 156 -187 94 -227 271 -575 302 -595 14 -9 167 116 249 203 166 177 257 367 285 599 6 50 -31 197 -277 1104 -11 41 -24 91 -29 110 -6 28 -205 781 -250 945 -6 22 -16 65 -24 95 -7 30 -19 78 -28 105 -8 28 -24 86 -36 130 -67 257 -93 355 -106 401 l-15 51 -69 12 c-88 14 -160 13 -236 -4z"/>
 <path d="M5776 5307 l-60 -12 -28 -105 c-16 -58 -36 -130 -45 -160 -9 -30 -20 -71 -24 -90 -4 -19 -17 -69 -28 -110 -11 -41 -31 -118 -44 -170 -65 -253 -143 -548 -202 -765 -36 -132 -70 -256 -74 -275 -5 -19 -20 -80 -35 -135 -41 -151 -55 -203 -76 -280 -10 -38 -42 -155 -70 -260 -28 -104 -62 -232 -76 -283 -13 -51 -33 -125 -44 -164 -24 -86 -25 -128 -5 -228 45 -233 175 -445 378 -616 108 -91 136 -110 146 -98 20 21 139 237 189 343 156 333 301 748 386 1111 46 197 91 419 121 593 38 229 79 547 71 555 -3 3 -81 18 -172 33 -212 36 -245 51 -287 134 -28 57 -29 96 -2 254 29 180 50 226 120 267 60 35 104 39 205 21 47 -9 108 -19 137 -22 l52 -7 3 163 c2 116 0 167 -9 179 -20 28 -112 76 -203 104 -99 32 -235 41 -324 23z"/>
 <path d="M600 4655 c-69 -12 -172 -30 -230 -40 -58 -10 -107 -19 -109 -21 -6 -5 32 -238 40 -248 8 -9 457 61 479 74 8 5 5 45 -9 127 -12 66 -21 123 -21 127 0 8 -5 7 -150 -19z m113 -65 c47 -53 27 -131 -43 -160 -61 -25 -130 23 -130 93 0 50 14 74 53 92 44 20 87 11 120 -25z"/>
 <path d="M6016 4669 c-15 -51 -43 -245 -36 -249 15 -9 480 -83 486 -78 6 7 47 248 43 252 -2 2 -103 19 -224 40 -121 20 -230 39 -242 42 -15 4 -24 1 -27 -7z m187 -80 c60 -65 15 -159 -76 -159 -38 0 -49 5 -71 31 -44 51 -30 129 26 154 44 19 87 10 121 -26z"/>
 <path d="M43 4585 c0 -33 2 -45 4 -27 2 18 2 45 0 60 -2 15 -4 0 -4 -33z"/>
 <path d="M6722 4590 c0 -19 2 -27 5 -17 2 9 2 25 0 35 -3 9 -5 1 -5 -18z"/>
 </g>

</svg>