<!DOCTYPE svg PUBLIC "-//W3C//DTD SVG 20010904//EN" "http://www.w3.org/TR/2001/REC-SVG-20010904/DTD/svg10.dtd">
<svg version="1.0" xmlns="http://www.w3.org/2000/svg" width="676px" height="676px" viewBox="0 0 6760 6760" preserveAspectRatio="xMidYMid meet">
<g id="layer101" fill="#070707" stroke="none">
 <path d="M1873 6745 c-321 -58 -616 -269 -784 -561 -67 -115 -91 -181 -149 -399 -27 -99 -96 -360 -155 -580 -59 -220 -142 -533 -185 -695 -43 -162 -126 -474 -184 -693 -234 -878 -316 -1188 -351 -1317 -109 -404 -81 -774 85 -1115 68 -140 135 -242 223 -342 235 -267 550 -442 897 -499 126 -21 385 -21 505 1 333 59 613 209 844 450 114 121 198 241 269 388 107 221 136 357 162 767 11 168 31 478 45 690 14 212 36 561 50 775 136 2098 130 1993 117 2115 -56 505 -431 915 -925 1011 -116 23 -351 25 -464 4z"/>
 <path d="M4565 6243 c-188 -24 -327 -65 -452 -133 -223 -120 -386 -289 -497 -515 -121 -246 -137 -386 -102 -890 9 -126 30 -439 46 -695 17 -256 41 -640 55 -855 14 -214 36 -559 50 -765 13 -206 33 -523 45 -705 28 -449 56 -592 159 -810 179 -379 499 -662 896 -793 168 -56 288 -75 475 -75 265 -1 466 46 695 160 423 212 734 636 810 1103 19 121 20 386 1 500 -13 76 -69 294 -326 1260 -43 162 -127 475 -185 695 -178 668 -278 1045 -364 1370 -97 364 -110 404 -162 509 -58 114 -112 189 -207 288 -137 142 -299 242 -488 301 -134 42 -337 65 -449 50z"/>
 <path d="M2500 325 c-36 -19 -75 -40 -87 -47 -13 -6 -23 -15 -23 -20 0 -9 90 35 155 76 59 37 30 31 -45 -9z"/>
 </g>
<g id="layer102" fill="#8e8e8d" stroke="none">
 <path d="M1945 6513 c-207 -44 -351 -118 -488 -252 -140 -136 -226 -294 -276 -506 -5 -22 -19 -75 -30 -117 -45 -168 -68 -252 -135 -508 -28 -109 -57 -217 -87 -327 -12 -43 -27 -100 -34 -128 -8 -27 -25 -95 -40 -150 -15 -55 -35 -131 -45 -170 -32 -122 -68 -257 -90 -340 -48 -179 -62 -237 -57 -241 5 -5 224 -42 1402 -234 171 -28 417 -69 548 -90 130 -22 246 -40 256 -40 16 0 19 11 25 93 7 95 26 388 96 1482 25 376 38 656 35 695 -11 112 -52 247 -108 354 -41 79 -71 120 -142 194 -152 159 -308 246 -509 281 -57 11 -279 13 -321 4z"/>
 <path d="M4628 6243 c23 -2 59 -2 80 0 20 2 1 4 -43 4 -44 0 -61 -2 -37 -4z"/>
 <path d="M4480 5985 c-144 -29 -271 -90 -397 -189 -106 -84 -193 -195 -253 -321 -104 -217 -105 -258 -46 -1165 26 -382 56 -854 68 -1048 12 -194 25 -357 29 -363 7 -11 103 2 519 71 255 42 619 102 1279 210 233 38 425 70 426 72 3 3 -9 51 -55 223 -12 44 -33 123 -46 175 -49 185 -73 276 -93 353 -12 42 -30 111 -41 152 -11 41 -29 109 -40 150 -11 41 -29 110 -41 153 -12 42 -27 100 -34 127 -8 28 -25 94 -39 148 -14 53 -37 139 -50 190 -14 50 -34 127 -45 170 -12 42 -30 110 -40 151 -64 245 -154 396 -319 539 -114 99 -268 173 -420 202 -92 18 -272 18 -362 0z"/>
 <path d="M563 3428 c-17 -62 -29 -114 -28 -116 3 -3 2319 -382 2321 -379 1 1 5 54 9 118 l7 117 -28 6 c-42 8 -2232 366 -2243 366 -4 0 -22 -51 -38 -112z"/>
 <path d="M466 3063 c-25 -86 -166 -625 -166 -637 0 -9 4 -16 9 -16 5 0 400 -70 878 -155 477 -86 1034 -185 1236 -221 202 -37 369 -65 371 -63 5 6 49 720 45 723 -4 3 -2348 386 -2361 386 -4 0 -9 -8 -12 -17z m1154 -412 c109 -20 101 -3 74 -159 -13 -77 -19 -92 -32 -88 -10 3 -60 12 -112 21 -52 9 -96 18 -98 20 -3 3 25 179 34 208 6 21 14 21 134 -2z"/>
 <path d="M5016 2834 c-616 -101 -1121 -185 -1122 -187 -4 -4 12 -227 17 -232 6 -5 2308 370 2315 378 3 3 -8 54 -24 114 -23 88 -32 108 -48 110 -10 1 -523 -81 -1138 -183z"/>
 <path d="M5630 2455 c-344 -57 -866 -142 -1160 -190 -294 -48 -538 -90 -542 -94 -6 -6 38 -710 46 -718 2 -3 474 79 1048 182 574 102 1134 203 1246 223 169 30 203 38 199 51 -154 589 -172 651 -192 650 -11 -1 -301 -47 -645 -104z m-333 -417 c10 -62 17 -114 14 -115 -21 -10 -217 -40 -222 -34 -11 10 -42 212 -34 219 7 7 164 39 201 41 19 1 23 -9 41 -111z"/>
 <path d="M4 2040 c0 -80 2 -112 3 -72 2 39 2 105 0 145 -1 39 -3 7 -3 -73z"/>
 <path d="M244 2114 c-8 -80 9 -265 35 -372 58 -237 165 -427 336 -597 150 -150 310 -248 517 -319 223 -75 553 -75 776 0 351 120 613 351 768 679 42 88 84 219 73 229 -2 3 -31 9 -64 15 -33 6 -125 22 -205 36 -228 42 -393 71 -555 100 -82 14 -172 30 -200 35 -65 12 -296 53 -477 86 -79 14 -201 36 -273 49 -71 13 -195 35 -275 49 -80 14 -208 37 -284 51 -77 14 -145 25 -152 25 -8 0 -15 -25 -20 -66z"/>
 <path d="M5735 1525 c-407 -74 -805 -145 -885 -159 -181 -33 -372 -67 -560 -101 -80 -14 -176 -31 -213 -37 l-69 -11 6 -31 c9 -49 63 -181 109 -270 83 -161 252 -348 405 -449 156 -104 355 -183 520 -207 120 -18 395 -8 492 18 179 47 336 120 465 217 88 66 238 220 294 304 101 149 184 359 210 538 6 39 11 128 11 197 0 124 0 126 -22 125 -13 0 -356 -61 -763 -134z"/>
 <path d="M5208 3 c23 -2 59 -2 80 0 20 2 1 4 -43 4 -44 0 -61 -2 -37 -4z"/>
 </g>
<g id="layer103" fill="#cbc0c0" stroke="none">
 <path d="M1925 6506 c-299 -64 -532 -243 -657 -506 -37 -77 -49 -113 -88 -260 -12 -47 -31 -119 -42 -160 -48 -178 -60 -224 -104 -390 -25 -96 -54 -204 -64 -240 -10 -36 -28 -103 -40 -150 -12 -47 -31 -116 -41 -155 -10 -38 -55 -207 -100 -375 -44 -168 -90 -336 -100 -375 -35 -126 -35 -122 -3 -129 16 -3 117 -19 224 -36 107 -16 236 -37 285 -45 50 -8 270 -44 490 -80 220 -36 436 -71 480 -79 44 -8 141 -25 215 -36 74 -12 203 -33 285 -46 251 -42 225 -42 225 -3 0 27 74 1199 124 1954 16 241 9 347 -29 475 -71 236 -252 449 -475 557 -132 64 -220 85 -380 88 -93 3 -166 -1 -205 -9z"/>
 <path d="M4628 6243 c23 -2 59 -2 80 0 20 2 1 4 -43 4 -44 0 -61 -2 -37 -4z"/>
 <path d="M4517 5990 c-206 -37 -370 -124 -513 -272 -118 -122 -180 -228 -229 -388 -44 -147 -43 -201 34 -1368 38 -585 72 -1066 75 -1069 2 -3 90 9 193 27 103 17 283 47 398 65 116 18 305 49 420 69 116 19 352 58 525 86 173 28 378 62 455 75 77 13 162 27 188 31 35 5 47 10 43 20 -6 14 -40 142 -121 449 -25 94 -54 203 -65 243 -11 40 -28 106 -39 147 -23 86 -53 199 -81 300 -47 177 -111 419 -135 510 -15 55 -35 132 -45 170 -10 39 -33 124 -50 190 -52 197 -130 335 -262 461 -126 120 -232 182 -393 229 -72 21 -116 28 -220 30 -71 2 -152 0 -178 -5z"/>
 <path d="M592 3523 c-5 -10 -17 -54 -27 -98 -9 -44 -21 -87 -25 -96 -7 -13 12 -18 133 -37 78 -13 192 -32 252 -42 105 -19 631 -105 705 -116 19 -2 114 -18 210 -35 96 -16 204 -34 240 -39 74 -10 397 -64 510 -85 100 -18 260 -39 264 -34 2 2 6 54 9 115 l5 111 -71 12 c-40 6 -81 13 -92 16 -11 2 -51 9 -90 14 -38 6 -180 29 -315 51 -135 23 -259 43 -276 45 -67 10 -1381 225 -1401 230 -15 3 -25 -1 -31 -12z"/>
 <path d="M6100 3009 c-380 -62 -672 -110 -775 -129 -60 -10 -405 -67 -765 -126 -360 -58 -657 -108 -659 -110 -3 -3 -1 -101 4 -169 2 -16 3 -37 4 -46 1 -14 8 -15 48 -8 25 5 74 12 107 15 34 3 64 8 68 11 10 5 474 82 543 89 28 3 66 9 85 14 19 5 231 40 470 79 521 83 499 80 776 126 l222 37 -15 57 c-25 100 -47 171 -52 170 -3 -1 -31 -5 -61 -10z"/>
 <path d="M247 2110 c-15 -182 38 -450 122 -621 149 -300 409 -535 711 -642 172 -61 240 -72 445 -71 174 0 199 2 293 27 309 82 539 235 727 484 94 124 205 359 205 434 0 12 -12 18 -42 22 -24 3 -106 17 -183 31 -77 14 -189 34 -250 45 -188 33 -454 81 -595 107 -218 39 -421 76 -475 85 -27 4 -114 19 -192 33 -79 15 -205 37 -280 50 -76 14 -203 37 -283 52 -80 14 -157 29 -171 31 -26 5 -26 4 -32 -67z"/>
 <path d="M6468 1655 c-2 -3 -67 -16 -144 -29 -130 -23 -375 -66 -489 -86 -27 -5 -77 -14 -110 -20 -98 -17 -176 -31 -250 -45 -38 -7 -101 -18 -140 -25 -38 -6 -101 -18 -140 -25 -38 -8 -146 -28 -240 -44 -163 -29 -368 -65 -650 -116 -71 -13 -164 -29 -205 -36 -41 -6 -79 -15 -84 -20 -10 -9 43 -162 89 -257 96 -197 299 -415 490 -527 195 -114 369 -163 606 -172 359 -13 669 104 928 352 245 235 374 521 388 866 7 152 2 189 -26 189 -10 0 -20 -2 -23 -5z"/>
 </g>
<g id="layer104" fill="#fbfafa" stroke="none">
 <path d="M1950 6509 c-73 -11 -190 -48 -262 -84 -138 -67 -283 -200 -371 -339 -32 -50 -57 -95 -57 -100 0 -6 -7 -24 -16 -41 -14 -27 -31 -87 -85 -295 -29 -110 -54 -204 -79 -295 -12 -44 -30 -111 -40 -150 -11 -38 -28 -104 -39 -145 -11 -41 -31 -118 -44 -170 -40 -152 -63 -239 -87 -325 -12 -44 -31 -114 -42 -155 -10 -41 -28 -106 -38 -145 -10 -38 -30 -115 -45 -170 -14 -55 -33 -125 -41 -155 -28 -100 -43 -164 -40 -167 2 -2 24 -6 116 -19 19 -2 116 -18 215 -35 99 -16 196 -32 215 -35 40 -5 541 -88 820 -134 102 -17 201 -33 220 -36 19 -2 46 -7 60 -10 14 -3 40 -8 59 -10 18 -3 129 -21 245 -40 116 -20 225 -36 241 -37 l30 -2 6 95 c4 52 10 145 13 205 4 61 18 281 31 490 14 209 27 416 30 460 23 366 47 721 54 825 6 69 8 136 6 150 -2 14 -9 61 -15 105 -13 89 -38 170 -82 260 -40 82 -45 90 -111 172 -135 169 -341 292 -552 330 -53 9 -257 11 -315 2z"/>
 <path d="M4628 6243 c23 -2 59 -2 80 0 20 2 1 4 -43 4 -44 0 -61 -2 -37 -4z"/>
 <path d="M4565 5994 c-129 -19 -292 -70 -352 -111 -15 -10 -41 -25 -58 -33 -16 -8 -75 -60 -130 -115 -143 -141 -197 -235 -261 -450 -26 -85 -24 -276 9 -755 15 -217 29 -431 32 -475 3 -44 9 -145 15 -225 6 -80 21 -322 35 -539 14 -217 27 -396 28 -398 2 -1 28 1 58 7 30 5 70 12 89 14 19 2 46 7 60 10 14 3 41 8 60 10 19 3 130 21 246 40 116 20 227 38 245 40 19 3 131 21 249 41 417 69 816 134 860 141 25 3 54 7 65 9 11 2 81 14 155 26 74 12 136 23 138 24 2 1 -4 20 -12 41 -9 22 -25 77 -36 124 -12 47 -30 118 -41 158 -10 39 -28 105 -38 145 -10 39 -29 108 -41 152 -12 44 -31 113 -41 152 -11 40 -29 107 -40 148 -11 41 -28 108 -39 147 -10 40 -31 118 -45 173 -15 55 -35 133 -46 173 -10 39 -28 107 -40 150 -11 42 -26 102 -33 132 -7 30 -21 77 -30 103 -9 26 -16 55 -16 63 0 15 -24 100 -66 239 -81 263 -305 497 -564 588 -113 40 -318 65 -415 51z"/>
 <path d="M249 2127 c-3 -80 0 -188 6 -232 13 -109 17 -130 29 -169 8 -22 17 -54 21 -71 10 -44 87 -209 137 -295 30 -51 138 -179 203 -240 59 -57 184 -150 250 -188 134 -76 315 -136 460 -151 80 -8 254 -8 335 1 244 26 515 158 716 348 64 61 204 236 204 256 0 2 12 22 26 44 28 42 114 263 114 293 0 11 -8 17 -24 17 -14 0 -85 11 -158 24 -135 25 -336 61 -650 117 -95 16 -220 39 -278 50 -58 11 -121 22 -140 25 -19 2 -82 14 -140 25 -58 11 -116 22 -130 24 -41 6 -707 125 -820 146 -175 34 -160 36 -161 -24z"/>
 <path d="M6466 1653 c-3 -3 -199 -40 -251 -48 -16 -2 -79 -13 -140 -25 -60 -11 -124 -22 -142 -24 -18 -3 -40 -7 -50 -10 -10 -3 -34 -8 -53 -10 -19 -3 -61 -10 -92 -16 -31 -6 -71 -13 -87 -15 -17 -2 -38 -6 -48 -9 -10 -3 -34 -8 -53 -10 -19 -3 -61 -10 -92 -16 -31 -6 -71 -13 -87 -15 -17 -2 -38 -6 -48 -9 -10 -3 -34 -8 -53 -10 -19 -3 -82 -14 -140 -25 -58 -11 -197 -36 -310 -56 -510 -90 -802 -144 -807 -148 -2 -3 5 -31 15 -63 62 -187 140 -320 278 -478 41 -47 78 -86 82 -86 4 0 26 -18 49 -39 116 -108 324 -212 518 -258 98 -24 129 -27 290 -27 237 1 361 27 544 115 319 155 544 407 661 741 28 80 46 151 55 218 11 83 16 216 10 267 -5 49 -10 59 -26 59 -11 0 -21 -2 -23 -3z"/>
 </g>

</svg>