<!DOCTYPE svg PUBLIC "-//W3C//DTD SVG 20010904//EN" "http://www.w3.org/TR/2001/REC-SVG-20010904/DTD/svg10.dtd">
<svg version="1.0" xmlns="http://www.w3.org/2000/svg" width="600px" height="600px" viewBox="0 0 6000 6000" preserveAspectRatio="xMidYMid meet">
<g id="layer101" fill="#292929" stroke="none">
 <path d="M93 5974 c-24 -14 -54 -44 -68 -68 l-25 -43 0 -2863 0 -2863 25 -43 c15 -26 43 -54 69 -69 l43 -25 842 0 c816 0 843 1 880 20 75 38 116 115 109 204 l-3 41 65 18 c113 31 350 75 500 93 110 13 223 18 465 18 404 0 593 -20 912 -96 l132 -32 -5 -40 c-12 -85 31 -168 107 -206 37 -19 64 -20 880 -20 l842 0 43 25 c26 15 54 43 69 69 l25 43 0 2863 0 2863 -25 43 c-15 26 -43 54 -69 69 l-43 25 -788 0 c-779 0 -789 0 -832 -21 -23 -11 -52 -34 -64 -50 l-20 -29 -454 0 -453 0 -29 24 c-69 58 -111 71 -223 71 -112 0 -154 -13 -223 -71 l-29 -24 -453 0 -454 0 -20 29 c-12 16 -41 39 -64 50 -43 21 -53 21 -833 21 l-789 0 -42 -26z"/>
 </g>
<g id="layer102" fill="#8d8d8d" stroke="none">
 <path d="M1841 5878 c30 -57 18 -110 -109 -474 -67 -193 -122 -355 -122 -360 0 -5 18 -22 40 -39 83 -60 140 -174 143 -282 2 -58 3 -61 18 -45 9 9 226 288 482 620 l466 602 -465 0 -465 0 12 -22z"/>
 <path d="M3257 5878 c11 -13 168 -214 348 -448 414 -536 596 -770 598 -770 1 0 3 28 4 63 2 107 56 213 144 282 21 17 38 35 39 40 0 6 -55 168 -122 360 -126 362 -139 418 -109 473 l12 22 -467 0 -467 0 20 -22z"/>
 <path d="M200 5450 l0 -350 413 0 413 0 43 174 c34 139 48 179 67 197 50 47 142 20 158 -47 4 -13 -9 -84 -29 -163 -19 -77 -35 -145 -35 -151 0 -7 32 -10 96 -8 l96 3 113 325 c62 179 115 335 119 348 l7 22 -730 0 -731 0 0 -350z"/>
 <path d="M2955 5790 c-17 -5 -42 -22 -57 -37 -20 -22 -986 -1268 -1111 -1435 l-28 -36 21 -61 c22 -65 26 -146 10 -201 -10 -34 -10 -34 9 -15 11 11 269 344 576 740 306 396 566 725 578 732 28 16 66 16 94 0 12 -7 272 -336 578 -732 307 -396 566 -729 576 -740 19 -19 19 -19 9 15 -19 65 -12 130 25 245 5 16 -116 177 -562 754 -312 404 -579 742 -593 752 -31 23 -86 31 -125 19z"/>
 <path d="M4346 5778 c4 -13 57 -169 119 -348 l112 -325 73 -3 c71 -3 72 -3 64 20 -4 13 -7 50 -7 83 1 160 131 288 293 288 159 0 289 -125 293 -282 1 -31 -2 -68 -6 -83 l-7 -28 260 0 260 0 0 350 0 350 -731 0 -730 0 7 -22z"/>
 <path d="M4929 5271 c-64 -65 -20 -171 71 -171 33 0 48 6 71 29 64 65 20 171 -71 171 -33 0 -48 -6 -71 -29z"/>
 <path d="M2663 4793 c-182 -236 -363 -469 -402 -520 l-71 -91 405 -276 405 -277 405 277 405 276 -71 91 c-39 51 -220 284 -402 520 -182 235 -333 427 -337 427 -4 0 -155 -192 -337 -427z"/>
 <path d="M200 3600 l0 -1300 520 0 c561 0 562 0 618 53 31 29 62 90 62 121 l0 25 -370 3 -370 3 -27 27 c-38 39 -38 97 0 136 l27 27 403 5 c434 5 432 5 483 62 90 98 65 253 -51 316 -26 15 -83 18 -432 22 l-403 5 -27 28 c-21 20 -28 37 -28 67 0 30 7 47 28 67 l27 28 403 5 c434 5 432 5 483 62 89 97 64 253 -51 316 -26 15 -83 18 -432 22 l-403 5 -27 28 c-38 38 -38 96 0 134 l27 28 403 5 c434 5 432 5 483 62 90 98 65 253 -51 316 -26 15 -83 18 -432 22 l-403 5 -27 27 c-38 39 -38 97 0 136 l27 27 403 5 c349 4 406 7 432 22 91 50 129 160 90 256 -21 49 -52 81 -100 103 -38 17 -79 19 -662 19 l-623 0 0 -1300z"/>
 <path d="M4515 4883 c-125 -66 -154 -219 -61 -321 51 -57 49 -57 483 -62 l403 -5 27 -27 c21 -21 28 -38 28 -68 0 -30 -7 -47 -28 -68 l-27 -27 -403 -5 c-349 -4 -406 -7 -432 -22 -115 -63 -140 -219 -51 -316 51 -57 49 -57 483 -62 l403 -5 27 -27 c21 -21 28 -38 28 -68 0 -30 -7 -47 -28 -67 l-27 -28 -403 -5 c-349 -4 -406 -7 -432 -22 -115 -63 -140 -219 -51 -316 51 -57 49 -57 483 -62 l403 -5 27 -27 c38 -39 38 -97 0 -135 l-27 -28 -403 -5 c-434 -5 -432 -5 -483 -62 -90 -98 -65 -253 51 -316 26 -15 83 -18 432 -22 l403 -5 27 -27 c38 -39 38 -97 0 -136 l-27 -27 -370 -3 -370 -3 0 -25 c0 -31 31 -92 62 -121 56 -53 57 -53 618 -53 l520 0 0 1300 0 1300 -627 0 c-553 -1 -632 -3 -658 -17z"/>
 <path d="M1914 3825 l-142 -183 14 -53 c31 -120 2 -242 -83 -346 l-34 -43 34 -42 c63 -78 97 -173 97 -268 0 -22 3 -40 6 -40 15 0 534 334 534 344 0 15 -271 799 -279 807 -3 4 -70 -76 -147 -176z"/>
 <path d="M3935 3998 c-33 -88 -275 -794 -275 -803 0 -10 519 -345 534 -345 3 0 6 18 6 40 0 95 34 190 97 268 l34 42 -34 43 c-45 55 -72 110 -86 175 -15 70 -14 106 3 171 l14 54 -144 184 c-85 109 -146 179 -149 171z"/>
 <path d="M2330 3837 c0 -3 52 -155 115 -338 63 -183 115 -343 115 -356 0 -50 -4 -53 -225 -195 -38 -25 -83 -53 -100 -62 -16 -9 -57 -34 -90 -56 -33 -21 -91 -58 -130 -82 l-70 -43 383 -5 382 -5 24 -25 c18 -18 56 -121 141 -382 65 -197 121 -358 125 -358 5 0 60 160 124 355 78 238 124 363 140 382 l24 28 383 5 383 5 -65 39 c-35 22 -100 63 -144 91 -44 29 -146 93 -228 144 -154 98 -177 118 -177 162 0 15 52 177 115 359 64 183 113 335 110 338 -2 3 -53 -28 -112 -68 -208 -141 -329 -224 -423 -289 -121 -84 -136 -84 -245 -9 -44 30 -138 94 -210 143 -71 48 -172 117 -224 153 -94 64 -121 79 -121 69z"/>
 <path d="M1600 2482 c0 -40 -33 -140 -60 -185 -17 -27 -27 -54 -23 -60 4 -7 105 -130 225 -274 l219 -263 450 0 450 0 -7 23 c-4 12 -63 192 -131 400 l-124 377 -499 0 c-474 0 -500 -1 -500 -18z"/>
 <path d="M3270 2104 c-71 -217 -130 -397 -130 -400 0 -2 202 -4 450 -4 l450 0 218 263 c120 144 221 267 225 274 4 6 -6 33 -23 60 -27 45 -60 145 -60 185 0 17 -26 18 -500 18 l-499 0 -131 -396z"/>
 <path d="M200 1150 l0 -950 783 0 784 0 -284 908 c-156 499 -288 926 -294 950 l-11 42 -489 0 -489 0 0 -950z m766 817 c30 -30 137 -356 129 -390 -18 -69 -111 -96 -159 -47 -32 33 -140 360 -131 392 23 74 109 98 161 45z m300 -800 c30 -30 137 -356 129 -390 -18 -69 -111 -96 -159 -47 -32 33 -140 360 -131 392 23 74 109 98 161 45z"/>
 <path d="M4825 2088 c-3 -7 -137 -435 -299 -950 l-293 -938 783 0 784 0 0 950 0 950 -485 0 c-379 0 -487 -3 -490 -12z m595 -120 c186 -80 232 -328 88 -475 -182 -186 -502 -54 -502 207 0 214 216 354 414 268z m-300 -800 c186 -80 232 -328 88 -475 -182 -186 -502 -54 -502 207 0 214 216 354 414 268z"/>
 <path d="M5229 1771 c-64 -65 -20 -171 71 -171 33 0 48 6 71 29 64 65 20 171 -71 171 -33 0 -48 -6 -71 -29z"/>
 <path d="M4929 971 c-64 -65 -20 -171 71 -171 58 0 100 42 100 100 0 91 -106 135 -171 71z"/>
 <path d="M1469 1815 c74 -234 80 -248 128 -307 81 -100 122 -136 192 -171 l66 -32 1145 0 1145 0 65 31 c69 33 110 69 195 174 51 63 55 73 125 300 40 129 75 238 77 243 2 4 1 7 -4 7 -4 -1 -105 -118 -223 -261 -150 -183 -226 -267 -252 -280 -36 -18 -77 -19 -1127 -19 -1010 0 -1093 1 -1126 17 -26 12 -99 93 -252 278 -119 143 -219 261 -223 263 -4 2 27 -108 69 -243z"/>
 <path d="M1673 1154 c49 -164 213 -681 218 -688 4 -5 62 5 131 22 353 88 671 119 1098 109 361 -9 554 -34 858 -109 68 -16 127 -26 131 -22 10 11 223 695 219 700 -2 2 -32 -8 -65 -21 -34 -14 -97 -30 -140 -36 -51 -6 -458 -9 -1178 -7 l-1100 3 -70 26 c-38 14 -78 29 -89 34 -15 7 -17 5 -13 -11z"/>
 </g>
<g id="layer103" fill="#adadad" stroke="none">
 <path d="M1841 5878 c30 -57 18 -110 -109 -475 -67 -194 -122 -356 -122 -360 1 -4 18 -20 39 -35 79 -54 142 -179 144 -285 1 -35 3 -63 4 -63 2 0 70 87 385 495 127 165 309 400 404 523 l173 222 -465 0 -465 0 12 -22z"/>
 <path d="M3352 5758 c146 -189 247 -320 493 -638 294 -380 356 -460 358 -460 1 0 3 28 4 63 2 107 63 227 143 284 22 15 40 32 40 38 0 5 -55 167 -122 360 -126 362 -139 418 -109 473 l12 22 -465 0 -465 0 111 -142z"/>
 <path d="M200 5450 l0 -350 413 0 413 0 43 174 c34 139 48 179 67 197 50 47 142 20 158 -47 4 -13 -9 -84 -29 -163 -19 -77 -35 -145 -35 -150 0 -7 35 -11 94 -11 l94 0 16 43 c23 63 226 649 226 653 0 2 -328 4 -730 4 l-730 0 0 -350z"/>
 <path d="M4344 5782 c4 -10 57 -166 120 -348 l114 -329 71 -3 72 -3 -8 28 c-4 15 -7 55 -7 88 2 108 67 205 169 255 62 30 178 33 239 6 54 -24 131 -99 157 -154 23 -49 31 -142 16 -194 l-7 -28 260 0 260 0 0 350 0 350 -731 0 c-699 0 -730 -1 -725 -18z"/>
 <path d="M4929 5271 c-64 -65 -20 -171 71 -171 33 0 48 6 71 29 64 65 20 171 -71 171 -33 0 -48 -6 -71 -29z"/>
 <path d="M2660 4788 c-184 -238 -365 -472 -402 -519 l-67 -87 405 -276 404 -276 405 276 404 276 -63 82 c-35 44 -215 277 -400 516 -185 239 -340 436 -344 438 -4 1 -158 -192 -342 -430z"/>
 <path d="M200 3600 l0 -1300 523 0 524 0 44 23 c52 27 109 105 109 148 l0 29 -366 0 -366 0 -34 34 c-46 46 -46 86 0 132 l34 34 391 0 c365 0 394 1 429 19 144 74 151 265 14 352 l-46 29 -394 0 -394 0 -34 34 c-46 46 -46 86 0 132 l34 34 394 0 394 0 46 29 c129 82 131 252 4 339 l-48 32 -395 0 -395 0 -34 34 c-46 46 -46 86 0 132 l34 34 393 0 392 0 44 26 c137 80 137 268 0 348 l-44 26 -392 0 -393 0 -34 34 c-46 46 -46 86 0 132 l34 34 394 0 394 0 46 29 c27 18 57 48 73 76 55 93 16 219 -84 272 l-44 23 -624 0 -623 0 0 -1300z"/>
 <path d="M4498 4871 c-131 -83 -131 -259 0 -342 l46 -29 394 0 394 0 34 -34 c25 -24 34 -43 34 -66 0 -23 -9 -41 -34 -66 l-34 -34 -395 0 -395 0 -48 -32 c-129 -86 -124 -264 9 -342 l44 -26 392 0 393 0 34 -34 c25 -24 34 -43 34 -66 0 -23 -9 -41 -34 -66 l-34 -34 -395 0 -395 0 -48 -32 c-127 -87 -125 -257 4 -339 l46 -29 394 0 394 0 34 -34 c44 -44 45 -83 5 -128 l-29 -33 -405 -5 -405 -5 -44 -30 c-59 -42 -88 -96 -88 -165 0 -71 30 -125 94 -167 l48 -33 395 0 395 0 34 -34 c25 -24 34 -43 34 -66 0 -23 -9 -42 -34 -66 l-34 -34 -366 0 -366 0 0 -29 c0 -43 57 -121 109 -148 l44 -23 524 0 523 0 0 1300 0 1300 -628 0 -628 0 -46 -29z"/>
 <path d="M1913 3824 l-141 -183 15 -48 c32 -105 -3 -252 -83 -350 l-36 -43 31 -35 c60 -69 101 -176 101 -267 0 -27 2 -48 5 -48 15 0 535 334 535 344 0 14 -271 799 -279 807 -3 4 -70 -76 -148 -177z"/>
 <path d="M3931 3988 c-37 -101 -271 -786 -271 -794 0 -9 521 -344 535 -344 3 0 5 18 5 40 0 95 41 206 101 274 l31 36 -36 43 c-81 99 -116 244 -83 350 l15 48 -144 185 c-130 167 -145 183 -153 162z"/>
 <path d="M2330 3837 c0 -2 30 -88 66 -193 36 -104 76 -220 89 -259 13 -38 35 -101 49 -139 36 -95 34 -131 -7 -170 -19 -17 -69 -53 -113 -80 -43 -27 -96 -59 -116 -72 -21 -13 -57 -36 -80 -51 -24 -14 -61 -38 -83 -53 -22 -14 -74 -46 -115 -71 l-75 -44 383 -5 382 -5 24 -25 c24 -24 40 -70 232 -662 14 -43 29 -78 34 -78 4 0 60 160 124 355 78 238 124 363 140 382 l24 28 384 5 383 5 -50 29 c-27 16 -79 48 -115 71 -141 91 -222 142 -285 180 -37 22 -89 57 -116 78 -44 33 -49 42 -49 76 0 21 11 67 24 102 13 35 37 105 54 154 17 50 58 168 91 264 33 96 58 177 56 180 -3 2 -27 -10 -53 -29 -45 -32 -129 -89 -435 -297 -76 -52 -153 -97 -170 -100 -25 -4 -43 3 -82 29 -92 63 -279 191 -390 267 -60 41 -128 87 -149 103 -34 25 -56 34 -56 25z"/>
 <path d="M1600 2482 c0 -40 -33 -140 -61 -186 -25 -40 -27 -51 -17 -65 7 -9 109 -132 226 -273 l214 -258 450 0 c375 0 449 2 445 14 -3 7 -62 187 -132 400 l-126 386 -499 0 c-474 0 -500 -1 -500 -18z"/>
 <path d="M3274 2113 c-70 -214 -129 -394 -131 -400 -4 -10 89 -13 445 -13 l450 0 173 207 c171 206 243 293 267 324 11 14 8 25 -17 65 -28 46 -61 146 -61 186 0 17 -26 18 -500 18 l-499 0 -127 -387z"/>
 <path d="M200 1150 l0 -950 780 0 c505 0 780 3 780 10 0 5 -130 428 -290 939 -159 511 -290 934 -290 940 0 8 -139 11 -490 11 l-490 0 0 -950z m766 817 c30 -30 137 -356 129 -390 -18 -69 -111 -96 -159 -47 -32 33 -140 360 -130 393 22 73 108 97 160 44z m300 -800 c30 -30 137 -356 129 -390 -18 -69 -111 -96 -159 -47 -34 34 -140 349 -131 389 6 29 37 64 65 74 25 10 74 -4 96 -26z"/>
 <path d="M4825 2088 c-17 -46 -585 -1869 -585 -1878 0 -7 248 -10 780 -10 l780 0 0 950 0 950 -485 0 c-379 0 -487 -3 -490 -12z m602 -120 c60 -28 112 -81 143 -143 18 -39 24 -66 24 -125 0 -88 -26 -152 -84 -210 -58 -58 -122 -84 -210 -84 -88 0 -144 23 -207 83 -61 59 -87 121 -87 211 0 90 26 152 87 211 92 88 220 110 334 57z m-301 -800 c57 -26 116 -86 146 -147 31 -66 31 -177 -2 -246 -31 -63 -82 -114 -145 -145 -69 -33 -180 -33 -246 -2 -61 30 -120 89 -149 148 -33 69 -33 179 0 248 39 80 117 144 205 167 47 13 140 1 191 -23z"/>
 <path d="M5229 1771 c-64 -65 -20 -171 71 -171 33 0 48 6 71 29 64 65 20 171 -71 171 -33 0 -48 -6 -71 -29z"/>
 <path d="M4929 971 c-64 -65 -20 -171 71 -171 58 0 100 42 100 100 0 91 -106 135 -171 71z"/>
 <path d="M1670 1165 c0 -9 219 -697 223 -701 3 -3 70 10 149 30 143 35 299 62 498 88 144 18 777 18 920 0 208 -27 357 -53 499 -88 79 -19 147 -32 151 -27 5 6 178 554 216 684 4 14 -10 11 -83 -15 l-88 -31 -1155 0 -1155 0 -87 31 c-49 16 -88 30 -88 29z"/>
 </g>
<g id="layer104" fill="#d9d9d9" stroke="none">
 <path d="M1847 5863 c9 -24 13 -52 10 -78 -4 -23 -60 -197 -127 -389 l-120 -348 58 -57 c84 -80 118 -156 134 -299 2 -17 103 107 418 515 228 295 443 572 477 615 l63 78 -465 0 -464 0 16 -37z"/>
 <path d="M3303 5822 c34 -43 249 -320 477 -615 l415 -537 8 60 c15 119 83 243 157 286 16 10 30 22 30 26 0 4 -54 164 -120 355 -66 191 -123 364 -126 383 -3 20 1 54 9 78 l15 42 -464 0 -464 0 63 -78z"/>
 <path d="M200 5450 l0 -350 412 2 412 3 42 170 c38 151 46 173 74 198 43 38 83 36 126 -7 19 -19 34 -44 34 -56 0 -11 -16 -84 -35 -160 -19 -76 -35 -141 -35 -144 0 -4 42 -6 94 -6 l94 0 15 43 c43 125 220 633 224 644 4 11 -137 13 -726 13 l-731 0 0 -350z"/>
 <path d="M4343 5787 c2 -7 52 -150 110 -317 58 -168 111 -320 117 -337 12 -33 12 -33 80 -33 l68 0 -10 37 c-24 87 11 202 82 273 202 202 554 24 503 -255 l-10 -55 259 0 258 0 0 350 0 350 -731 0 c-589 0 -730 -2 -726 -13z"/>
 <path d="M4951 5286 c-87 -48 -50 -186 49 -186 51 0 100 49 100 99 0 75 -83 124 -149 87z"/>
 <path d="M2595 4703 c-220 -285 -398 -520 -396 -523 2 -3 183 -127 403 -277 l398 -272 404 275 404 276 -117 152 c-65 83 -245 315 -400 516 -155 201 -285 366 -289 368 -4 1 -187 -231 -407 -515z"/>
 <path d="M200 3600 l0 -1300 518 0 518 0 52 26 c56 28 96 81 108 142 l7 32 -361 0 c-259 0 -368 3 -387 12 -29 13 -55 55 -55 88 0 29 26 76 47 86 10 5 196 11 413 14 361 5 398 7 433 24 78 39 122 137 99 222 -18 67 -48 103 -106 130 -51 24 -52 24 -429 24 -410 0 -421 1 -445 55 -15 33 -15 57 0 90 24 54 36 55 439 55 412 0 431 2 489 60 95 95 68 254 -52 314 l-52 26 -378 0 c-411 0 -422 1 -446 55 -7 14 -12 35 -12 46 0 28 26 75 47 85 10 5 196 11 413 14 361 5 398 7 433 24 78 39 122 137 99 222 -18 67 -48 103 -106 130 -51 24 -52 24 -428 24 -405 0 -418 1 -444 51 -18 35 -18 63 0 98 26 49 39 51 438 51 411 0 430 2 488 60 95 95 68 254 -52 314 l-52 26 -618 0 -618 0 0 -1300z"/>
 <path d="M4535 4888 c-137 -48 -178 -225 -75 -328 58 -58 77 -60 489 -60 403 0 415 -1 439 -55 16 -34 15 -60 -2 -94 -26 -50 -39 -51 -444 -51 -377 0 -377 0 -429 -24 -56 -27 -99 -85 -110 -150 -14 -87 49 -189 133 -214 30 -8 148 -12 413 -12 403 0 415 -1 439 -55 23 -51 7 -107 -39 -131 -23 -11 -99 -14 -407 -14 l-380 0 -53 -28 c-43 -22 -59 -38 -82 -82 -25 -47 -28 -63 -23 -109 6 -67 44 -125 101 -155 38 -20 59 -21 435 -26 217 -3 403 -9 413 -14 21 -10 47 -57 47 -86 0 -29 -26 -76 -47 -86 -10 -5 -196 -11 -413 -14 -361 -5 -398 -7 -433 -24 -78 -39 -122 -137 -99 -222 18 -67 48 -103 106 -130 51 -24 52 -24 428 -24 405 0 418 -1 444 -51 27 -52 8 -115 -41 -137 -19 -9 -128 -12 -387 -12 l-360 0 6 -31 c15 -78 62 -132 135 -157 24 -9 182 -12 547 -12 l514 0 0 1300 0 1300 -617 -1 c-403 0 -628 -4 -648 -11z"/>
 <path d="M1915 3824 l-137 -177 12 -64 c24 -124 -6 -243 -86 -340 l-36 -43 33 -37 c53 -61 90 -152 96 -238 3 -41 7 -75 9 -75 1 0 121 74 266 165 179 113 263 171 263 183 0 24 -268 802 -277 802 -4 0 -68 -79 -143 -176z"/>
 <path d="M3800 3607 c-74 -215 -135 -400 -135 -409 0 -11 87 -72 263 -182 145 -92 265 -166 266 -166 2 0 6 34 9 75 6 86 43 177 96 238 l33 37 -36 43 c-79 96 -110 217 -86 340 l12 64 -137 177 c-75 97 -139 176 -143 176 -4 0 -68 -177 -142 -393z"/>
 <path d="M1596 2447 c-7 -55 -45 -149 -73 -179 -11 -12 -13 -22 -6 -30 6 -7 108 -131 227 -275 l217 -263 451 0 c356 0 449 3 445 13 -2 6 -62 186 -133 400 l-128 387 -497 0 -497 0 -6 -53z"/>
 <path d="M3276 2114 c-70 -212 -130 -392 -133 -400 -4 -12 61 -14 445 -14 l450 0 214 257 c264 318 244 290 225 311 -28 30 -66 125 -73 179 l-6 53 -498 0 -497 0 -127 -386z"/>
 <path d="M200 1150 l0 -950 781 0 781 0 -6 23 c-5 21 -530 1708 -565 1817 l-18 55 -486 3 -487 2 0 -950z m758 825 c25 -21 41 -56 86 -193 31 -92 56 -178 56 -191 0 -34 -61 -91 -98 -91 -62 0 -85 35 -146 218 -31 92 -56 178 -56 191 0 13 15 38 34 57 42 42 82 45 124 9z m300 -800 c25 -21 41 -56 86 -193 31 -92 56 -178 56 -191 0 -34 -61 -91 -98 -91 -62 0 -85 35 -146 218 -31 92 -56 178 -56 191 0 13 15 38 34 57 42 42 82 45 124 9z"/>
 <path d="M4825 2088 c-14 -42 -576 -1843 -581 -1863 l-6 -25 781 0 781 0 0 950 0 950 -485 0 c-380 0 -487 -3 -490 -12z m597 -116 c59 -26 124 -91 151 -151 16 -34 22 -66 22 -121 0 -91 -24 -149 -85 -210 -61 -61 -119 -85 -210 -85 -336 0 -413 464 -95 578 62 22 153 18 217 -11z m-300 -800 c59 -26 124 -91 151 -151 30 -64 30 -178 0 -242 -27 -60 -92 -125 -152 -152 -64 -30 -178 -30 -242 0 -129 59 -202 206 -169 342 43 180 242 278 412 203z"/>
 <path d="M5251 1786 c-87 -48 -50 -186 49 -186 51 0 100 49 100 99 0 75 -83 124 -149 87z"/>
 <path d="M4951 986 c-87 -48 -50 -186 49 -186 51 0 100 49 100 99 0 75 -83 124 -149 87z"/>
 <path d="M1676 1147 c4 -12 53 -170 110 -351 56 -180 105 -330 107 -332 2 -3 58 9 123 25 345 87 523 106 984 106 461 0 637 -19 984 -106 65 -17 121 -28 123 -25 3 3 52 155 109 338 57 183 107 341 110 350 5 16 1 15 -41 -3 -110 -49 -106 -49 -1285 -49 -1179 0 -1170 0 -1283 49 l-48 21 7 -23z"/>
 </g>
<g id="layer105" fill="#fbfbfb" stroke="none">
 <path d="M1845 5883 c4 -10 10 -40 12 -68 4 -44 -10 -92 -121 -410 l-125 -360 45 -38 c85 -73 130 -160 142 -273 l7 -61 460 594 c253 326 466 602 474 613 13 20 9 20 -444 20 -432 0 -457 -1 -450 -17z"/>
 <path d="M3261 5880 c8 -11 221 -287 474 -613 l460 -594 7 61 c11 109 60 202 143 273 l45 38 -121 345 c-123 352 -137 409 -116 483 l7 27 -456 0 c-452 0 -456 0 -443 -20z"/>
 <path d="M200 5450 l0 -350 410 0 409 0 10 38 c5 20 24 93 41 161 17 68 37 136 45 151 14 27 52 50 85 50 51 0 100 -49 100 -100 0 -17 -47 -219 -66 -282 -5 -16 4 -18 89 -18 l94 0 46 133 c25 72 79 230 120 350 l76 217 -730 0 -729 0 0 -350z"/>
 <path d="M4411 5598 c39 -112 93 -269 121 -350 l50 -148 69 0 68 0 -11 31 c-6 17 -8 59 -6 93 9 104 65 189 160 242 47 26 62 29 138 29 93 0 137 -16 203 -74 74 -65 118 -208 89 -290 l-11 -31 260 0 259 0 0 350 0 350 -729 0 -730 0 70 -202z"/>
 <path d="M4934 5266 c-24 -24 -34 -43 -34 -66 0 -44 56 -100 100 -100 44 0 100 56 100 100 0 44 -56 100 -100 100 -23 0 -41 -9 -66 -34z"/>
 <path d="M2600 4709 c-217 -281 -396 -516 -397 -523 -3 -14 773 -541 797 -541 19 0 799 524 800 538 0 9 -789 1031 -799 1034 -3 1 -184 -227 -401 -508z"/>
 <path d="M200 3600 l0 -1300 495 0 c324 0 512 4 546 11 70 15 124 64 144 132 8 28 15 52 15 54 0 2 -167 3 -371 3 l-371 0 -29 29 c-38 39 -40 97 -5 138 l24 28 404 5 c431 5 423 4 481 59 110 101 66 284 -77 326 -40 12 -123 15 -424 15 l-374 0 -29 29 c-41 41 -41 101 0 142 l29 29 374 0 c301 0 384 3 424 15 136 40 183 210 87 316 -60 66 -83 69 -511 69 l-374 0 -29 29 c-41 41 -41 101 0 142 l29 29 375 0 c416 0 444 3 504 62 21 21 39 52 49 85 14 48 14 58 0 106 -10 33 -28 64 -49 85 -60 59 -88 62 -504 62 l-375 0 -29 29 c-41 41 -41 101 0 142 l29 29 374 0 c301 0 384 3 424 15 98 29 154 126 133 227 -15 67 -75 130 -141 146 -33 9 -223 12 -647 12 l-601 0 0 -1300z"/>
 <path d="M4541 4885 c-61 -19 -108 -68 -127 -132 -14 -48 -14 -58 0 -106 15 -53 54 -100 106 -128 20 -11 113 -15 428 -19 l404 -5 24 -28 c35 -41 33 -99 -5 -138 l-29 -29 -374 0 c-432 0 -453 -3 -512 -71 -94 -110 -48 -273 89 -315 38 -11 125 -14 422 -14 l375 0 29 -29 c23 -23 29 -38 29 -71 0 -33 -6 -48 -29 -71 l-29 -29 -375 0 c-415 0 -444 -3 -504 -62 -56 -54 -74 -154 -40 -223 5 -11 23 -35 40 -53 56 -58 87 -62 505 -62 l374 0 29 -29 c38 -39 40 -97 5 -138 l-24 -28 -404 -5 c-431 -5 -423 -4 -481 -59 -43 -39 -60 -80 -60 -141 0 -64 18 -105 67 -148 54 -47 99 -52 502 -52 l366 0 29 -29 c23 -23 29 -38 29 -71 0 -33 -6 -48 -29 -71 l-29 -29 -371 0 -370 0 6 -32 c8 -45 20 -67 56 -106 56 -59 84 -62 534 -62 l403 0 0 1300 0 1300 -507 -1 c-400 0 -517 -3 -552 -14z"/>
 <path d="M1916 3823 c-116 -150 -136 -182 -131 -203 3 -14 8 -57 12 -96 9 -109 -24 -205 -100 -291 l-30 -34 25 -27 c68 -75 108 -173 108 -268 0 -30 2 -54 4 -54 4 0 527 329 535 336 5 5 -268 796 -278 807 -4 4 -70 -72 -145 -170z"/>
 <path d="M3937 3993 c-11 -18 -280 -804 -276 -807 2 -2 123 -79 269 -171 l265 -166 7 73 c9 108 38 176 106 250 l25 27 -30 34 c-76 86 -109 182 -100 291 4 39 9 82 12 96 6 22 -13 52 -120 190 -146 189 -151 195 -158 183z"/>
 <path d="M1597 2449 c-6 -52 -46 -151 -74 -181 -18 -20 -46 18 231 -316 l209 -252 449 0 c356 0 449 3 446 13 -3 6 -63 186 -134 400 l-129 387 -496 0 -496 0 -6 -51z"/>
 <path d="M3276 2113 c-71 -214 -131 -394 -134 -400 -3 -10 90 -13 446 -13 l449 0 209 252 c115 139 217 263 228 276 17 21 17 25 3 40 -28 30 -68 129 -74 181 l-6 51 -496 0 -496 0 -129 -387z"/>
 <path d="M200 1150 l0 -950 780 0 c429 0 780 2 780 5 0 6 -528 1701 -566 1818 l-26 77 -484 0 -484 0 0 -950z m750 835 c31 -16 39 -34 110 -251 46 -138 47 -167 10 -204 -38 -38 -102 -38 -139 -1 -19 19 -131 341 -131 376 1 48 49 94 98 95 13 0 36 -7 52 -15z m299 -800 c16 -8 32 -22 36 -32 24 -58 115 -340 115 -356 0 -49 -50 -97 -101 -97 -49 0 -77 28 -107 107 -44 115 -92 270 -92 296 2 73 81 118 149 82z"/>
 <path d="M4816 2053 c-42 -131 -576 -1844 -576 -1848 0 -3 351 -5 780 -5 l780 0 0 950 0 950 -484 0 -484 0 -16 -47z m623 -88 c59 -32 100 -75 133 -138 33 -60 33 -194 0 -254 -33 -63 -74 -106 -134 -139 -47 -26 -62 -29 -138 -29 -93 0 -137 16 -203 74 -76 67 -115 198 -88 298 24 90 116 185 205 213 17 5 63 8 102 6 55 -2 82 -9 123 -31z m-300 -800 c59 -32 100 -75 133 -138 33 -60 33 -194 0 -254 -33 -63 -74 -106 -134 -139 -47 -26 -62 -29 -138 -29 -93 0 -137 16 -203 74 -76 67 -115 198 -88 298 24 90 116 185 205 213 17 5 63 8 102 6 55 -2 82 -9 123 -31z"/>
 <path d="M5234 1766 c-24 -24 -34 -43 -34 -66 0 -44 56 -100 100 -100 44 0 100 56 100 100 0 44 -56 100 -100 100 -23 0 -41 -9 -66 -34z"/>
 <path d="M4934 966 c-24 -24 -34 -43 -34 -66 0 -44 56 -100 100 -100 44 0 100 56 100 100 0 44 -56 100 -100 100 -23 0 -41 -9 -66 -34z"/>
 <path d="M4275 1146 c-100 -46 -99 -46 -1275 -46 -1159 0 -1173 0 -1269 42 -24 10 -46 16 -49 14 -4 -4 205 -686 212 -694 2 -1 45 9 97 23 124 33 313 69 479 92 172 23 848 26 1025 5 149 -19 356 -57 495 -92 63 -16 115 -28 116 -27 5 5 224 708 221 706 -1 0 -24 -11 -52 -23z"/>
 </g>

</svg>