<!DOCTYPE svg PUBLIC "-//W3C//DTD SVG 20010904//EN" "http://www.w3.org/TR/2001/REC-SVG-20010904/DTD/svg10.dtd">
<svg version="1.0" xmlns="http://www.w3.org/2000/svg" width="683px" height="683px" viewBox="0 0 6830 6830" preserveAspectRatio="xMidYMid meet">
<g id="layer101" fill="#1e1e1e" stroke="none">
 <path d="M2780 6803 c-463 -62 -918 -232 -1095 -409 l-35 -35 -2 -1584 -3 -1584 -315 1142 c-216 783 -321 1148 -335 1164 -11 13 -44 30 -75 39 -78 22 -314 30 -403 14 -166 -29 -334 -112 -448 -220 l-69 -65 0 -91 c0 -190 45 -657 101 -1039 120 -825 353 -1748 644 -2550 133 -366 144 -390 223 -467 103 -101 241 -207 279 -214 48 -9 91 12 108 54 31 73 19 95 -111 198 l-86 68 80 73 c174 158 422 518 422 611 0 50 -46 94 -98 96 -54 1 -68 -14 -157 -164 -37 -63 -93 -149 -123 -190 -70 -95 -230 -257 -241 -244 -15 15 -133 341 -219 604 -187 569 -343 1179 -446 1745 -76 417 -127 796 -110 823 6 9 51 38 101 63 136 69 334 109 538 109 l92 0 329 -1192 c251 -911 334 -1198 352 -1220 43 -51 130 -44 160 14 9 18 13 262 15 1053 l2 1029 374 201 c206 111 382 212 393 224 16 21 18 45 18 275 0 216 -2 255 -16 275 -21 30 -74 52 -105 44 -13 -4 -164 -82 -336 -175 -171 -92 -317 -168 -322 -168 -8 0 -11 176 -11 575 l0 575 48 35 c161 118 580 261 850 291 l62 7 0 -1725 0 -1724 -494 -613 c-279 -346 -496 -624 -499 -639 -3 -14 -1 -37 4 -51 6 -15 103 -119 217 -233 113 -114 204 -209 202 -212 -3 -2 -90 -37 -195 -76 -223 -85 -241 -94 -256 -121 -25 -47 -13 -82 96 -283 59 -109 105 -200 102 -202 -2 -3 -85 36 -183 86 -202 104 -225 108 -278 49 -24 -27 -27 -38 -23 -71 3 -22 15 -51 27 -63 26 -28 382 -206 522 -262 l96 -38 94 -175 c51 -96 105 -187 120 -202 l26 -28 1025 0 c989 0 1025 1 1048 19 13 10 69 102 123 203 l99 184 61 24 c394 151 859 431 1108 668 89 85 96 99 233 477 291 801 524 1724 644 2550 54 369 101 853 101 1038 l0 92 -69 65 c-114 108 -282 191 -448 220 -89 16 -325 8 -403 -14 -31 -9 -64 -26 -75 -39 -14 -16 -119 -381 -335 -1165 l-315 -1142 -5 306 -5 306 -28 24 c-44 38 -109 30 -149 -20 -16 -19 -18 -73 -18 -731 0 -658 2 -712 18 -731 42 -53 113 -55 154 -6 18 22 101 309 352 1220 l330 1192 91 0 c204 0 402 -40 538 -109 50 -25 95 -54 101 -63 17 -27 -34 -406 -110 -823 -103 -567 -259 -1177 -446 -1745 -87 -264 -204 -589 -219 -604 -13 -14 -182 161 -255 264 -34 47 -89 133 -123 191 -75 130 -90 144 -144 143 -51 -2 -97 -47 -97 -96 0 -94 257 -465 429 -619 l72 -64 -38 -33 c-73 -63 -239 -180 -358 -253 -129 -79 -425 -233 -432 -225 -3 2 43 92 101 200 108 200 121 239 96 287 -14 26 -37 36 -255 119 -104 39 -192 74 -194 76 -3 3 88 98 201 212 114 114 211 218 217 233 5 14 7 37 4 51 -3 15 -220 293 -499 639 l-494 613 0 1724 0 1725 63 -7 c103 -12 332 -65 461 -108 137 -45 317 -131 389 -183 l47 -35 0 -575 c0 -364 -4 -575 -10 -575 -5 0 -150 76 -322 168 -172 93 -324 171 -337 175 -31 8 -84 -14 -105 -44 -14 -20 -16 -59 -16 -275 0 -230 2 -254 18 -275 11 -12 187 -113 393 -223 l374 -201 5 -168 5 -169 28 -24 c40 -34 105 -33 141 2 l26 27 0 1128 0 1128 -35 35 c-47 48 -136 106 -241 161 -235 121 -530 205 -871 250 -107 14 -127 14 -156 1 -19 -8 -38 -20 -43 -27 -5 -8 -11 -237 -14 -509 l-5 -495 -65 -12 c-212 -40 -505 -33 -702 18 l-38 10 0 480 c0 529 1 516 -62 538 -36 13 -31 13 -168 -6z m-1965 -1462 c16 -6 30 -45 71 -192 l50 -184 -85 -8 c-252 -22 -422 -58 -550 -118 -35 -16 -66 -28 -67 -26 -2 2 -9 84 -16 182 l-12 178 40 33 c57 49 163 102 246 124 76 20 282 27 323 11z m5505 -7 c80 -18 212 -82 264 -127 l40 -34 -12 -178 c-7 -98 -14 -180 -16 -182 -1 -2 -32 10 -67 26 -128 60 -298 96 -550 118 l-86 8 52 184 c40 145 55 186 71 192 35 14 236 9 304 -7z m-3882 -254 l-3 -101 -279 -150 c-153 -83 -285 -153 -292 -156 -11 -4 -14 15 -14 94 l0 100 288 156 c158 85 291 155 295 156 4 1 6 -44 5 -99z m2251 -56 l291 -157 0 -98 c0 -55 -2 -99 -5 -99 -4 0 -136 70 -295 156 l-290 156 0 99 c0 54 2 99 4 99 2 0 135 -70 295 -156z m-1889 -2904 c-30 -661 -101 -1160 -216 -1509 -44 -135 -117 -301 -133 -301 -8 0 -421 762 -421 777 0 4 100 46 223 92 254 96 277 111 277 180 l0 45 -236 237 c-178 179 -234 240 -228 252 5 8 173 218 374 466 l365 453 3 -224 c2 -123 -2 -333 -8 -468z m1602 225 c195 -242 358 -446 362 -454 6 -9 -60 -81 -228 -250 l-236 -237 0 -45 c0 -69 23 -84 277 -180 123 -46 223 -88 223 -93 0 -15 -413 -776 -422 -776 -15 0 -95 184 -136 310 -137 427 -222 1160 -222 1930 0 225 2 262 14 250 7 -8 173 -213 368 -455z"/>
 <path d="M324 5126 c-72 -32 -86 -106 -30 -162 38 -38 70 -43 116 -19 36 19 50 43 50 87 0 43 -24 76 -66 94 -39 16 -32 16 -70 0z"/>
 <path d="M6445 5132 c-39 -8 -75 -53 -75 -95 0 -49 13 -73 52 -93 93 -48 194 72 126 151 -25 27 -70 44 -103 37z"/>
 </g>
<g id="layer102" fill="#717171" stroke="none">
 <path d="M3031 3843 c2 -1810 1 -1873 -47 -2338 -52 -513 -154 -957 -275 -1197 -16 -32 -29 -60 -29 -63 0 -3 331 -5 735 -5 404 0 735 2 735 5 0 3 -13 31 -29 63 -121 241 -222 681 -276 1197 -47 458 -48 531 -46 2333 3 1651 2 1704 -16 1698 -101 -30 -445 -36 -618 -11 -60 9 -116 18 -123 20 -12 4 -13 -278 -11 -1702z m640 -3299 c64 -64 41 -172 -41 -201 -47 -16 -333 -16 -380 0 -50 18 -83 70 -77 125 5 45 34 87 72 103 11 4 104 7 207 6 l188 -2 31 -31z"/>
 <path d="M637 5353 c24 -2 62 -2 86 0 23 2 4 4 -43 4 -47 0 -66 -2 -43 -4z"/>
 <path d="M6108 5353 c23 -2 61 -2 85 0 23 2 4 4 -43 4 -47 0 -66 -2 -42 -4z"/>
 <path d="M216 5191 c-12 -13 -16 -30 -13 -53 l4 -33 1 34 c1 19 9 43 19 53 9 10 14 18 11 18 -3 0 -13 -9 -22 -19z"/>
 <path d="M6607 5190 c6 -8 13 -31 16 -50 l4 -35 1 36 c1 24 -4 41 -15 50 -16 12 -16 12 -6 -1z"/>
 <path d="M213 4995 c0 -22 2 -30 4 -17 2 12 2 30 0 40 -3 9 -5 -1 -4 -23z"/>
 <path d="M6613 4995 c0 -22 2 -30 4 -17 2 12 2 30 0 40 -3 9 -5 -1 -4 -23z"/>
 <path d="M863 4953 c15 -2 39 -2 55 0 15 2 2 4 -28 4 -30 0 -43 -2 -27 -4z"/>
 <path d="M5913 4953 c15 -2 39 -2 55 0 15 2 2 4 -28 4 -30 0 -43 -2 -27 -4z"/>
 <path d="M343 4933 c9 -2 25 -2 35 0 9 3 1 5 -18 5 -19 0 -27 -2 -17 -5z"/>
 <path d="M222 4860 c0 -19 2 -27 5 -17 2 9 2 25 0 35 -3 9 -5 1 -5 -18z"/>
 <path d="M6602 4860 c0 -19 2 -27 5 -17 2 9 2 25 0 35 -3 9 -5 1 -5 -18z"/>
 <path d="M897 4753 c18 -2 50 -2 70 0 21 2 7 4 -32 4 -38 0 -55 -2 -38 -4z"/>
 <path d="M5857 4753 c18 -2 50 -2 70 0 21 2 7 4 -32 4 -38 0 -55 -2 -38 -4z"/>
 <path d="M254 4576 c-3 -8 -4 -23 -2 -33 3 -11 6 -6 9 15 6 34 2 42 -7 18z"/>
 <path d="M6569 4558 c4 -28 6 -29 9 -9 2 13 0 27 -5 32 -6 6 -7 -3 -4 -23z"/>
 <path d="M2794 2808 c-4 -7 -3 -8 4 -4 9 5 12 -50 15 -206 l2 -213 3 218 c2 202 -3 240 -24 205z"/>
 <path d="M4012 2598 l3 -223 2 218 c3 159 6 216 15 211 7 -4 8 -3 4 4 -22 35 -26 -3 -24 -210z"/>
 <path d="M2803 2160 c0 -36 2 -50 4 -32 2 17 2 47 0 65 -2 17 -4 3 -4 -33z"/>
 <path d="M4023 2155 c0 -33 2 -45 4 -27 2 18 2 45 0 60 -2 15 -4 0 -4 -33z"/>
 <path d="M2793 1955 c0 -27 2 -38 4 -22 2 15 2 37 0 50 -2 12 -4 0 -4 -28z"/>
 <path d="M4033 1950 c0 -25 2 -35 4 -22 2 12 2 32 0 45 -2 12 -4 2 -4 -23z"/>
 <path d="M2054 1889 c-4 -7 91 -108 232 -248 l239 -236 -234 236 c-137 139 -231 241 -227 248 4 6 5 11 2 11 -3 0 -8 -5 -12 -11z"/>
 <path d="M4765 1891 c5 -9 -62 -84 -226 -250 l-234 -236 240 237 c199 197 237 240 226 250 -11 11 -12 10 -6 -1z"/>
 <path d="M2782 1800 c0 -19 2 -27 5 -17 2 9 2 25 0 35 -3 9 -5 1 -5 -18z"/>
 <path d="M4042 1800 c0 -19 2 -27 5 -17 2 9 2 25 0 35 -3 9 -5 1 -5 -18z"/>
 <path d="M2035 1610 c116 -118 212 -214 215 -212 2 1 -92 98 -210 215 l-215 212 210 -215z"/>
 <path d="M4785 1610 c-115 -115 -207 -211 -205 -212 3 -2 99 93 215 210 115 116 207 212 205 212 -3 0 -99 -94 -215 -210z"/>
 <path d="M2772 1680 c0 -19 2 -27 5 -17 2 9 2 25 0 35 -3 9 -5 1 -5 -18z"/>
 <path d="M4052 1670 c0 -19 2 -27 5 -17 2 9 2 25 0 35 -3 9 -5 1 -5 -18z"/>
 <path d="M1135 1478 l-40 -43 43 40 c23 21 42 40 42 42 0 8 -9 0 -45 -39z"/>
 <path d="M5680 1485 c19 -19 36 -35 39 -35 3 0 -10 16 -29 35 -19 19 -36 35 -39 35 -3 0 10 -16 29 -35z"/>
 <path d="M1280 1343 l-65 -68 68 65 c62 60 72 70 64 70 -1 0 -32 -30 -67 -67z"/>
 <path d="M5545 1340 c38 -38 72 -70 74 -70 3 0 -26 32 -64 70 -38 39 -72 70 -74 70 -3 0 26 -31 64 -70z"/>
 <path d="M1362 1010 c0 -19 2 -27 5 -17 2 9 2 25 0 35 -3 9 -5 1 -5 -18z"/>
 </g>
<g id="layer103" fill="#909090" stroke="none">
 <path d="M3031 3813 c3 -1776 3 -1815 -37 -2233 -51 -543 -145 -972 -278 -1263 l-35 -77 734 0 734 0 -35 78 c-159 346 -251 828 -306 1597 -9 127 -11 608 -9 1894 l3 1724 -43 -6 c-232 -32 -431 -32 -614 -2 -49 8 -96 15 -104 15 -11 0 -13 -272 -10 -1727z m619 -3248 c56 -29 78 -117 43 -176 -29 -48 -74 -59 -254 -59 -168 0 -206 8 -242 48 -25 27 -33 94 -17 133 26 62 53 69 258 69 144 0 189 -3 212 -15z"/>
 <path d="M637 5353 c18 -2 50 -2 70 0 21 2 7 4 -32 4 -38 0 -55 -2 -38 -4z"/>
 <path d="M6118 5353 c17 -2 47 -2 65 0 17 2 3 4 -33 4 -36 0 -50 -2 -32 -4z"/>
 <path d="M863 4953 c15 -2 37 -2 50 0 12 2 0 4 -28 4 -27 0 -38 -2 -22 -4z"/>
 <path d="M5923 4953 c15 -2 37 -2 50 0 12 2 0 4 -28 4 -27 0 -38 -2 -22 -4z"/>
 <path d="M923 4753 c15 -2 39 -2 55 0 15 2 2 4 -28 4 -30 0 -43 -2 -27 -4z"/>
 <path d="M5853 4753 c15 -2 39 -2 55 0 15 2 2 4 -28 4 -30 0 -43 -2 -27 -4z"/>
 <path d="M2808 2703 c4 -211 8 -231 10 -55 1 94 -1 172 -5 172 -5 0 -7 -53 -5 -117z"/>
 <path d="M4012 2643 c2 -179 6 -158 10 60 2 64 0 117 -4 117 -5 0 -7 -80 -6 -177z"/>
 <path d="M2803 2175 c0 -27 2 -38 4 -22 2 15 2 37 0 50 -2 12 -4 0 -4 -28z"/>
 <path d="M4023 2170 c0 -25 2 -35 4 -22 2 12 2 32 0 45 -2 12 -4 2 -4 -23z"/>
 <path d="M2792 1970 c0 -19 2 -27 5 -17 2 9 2 25 0 35 -3 9 -5 1 -5 -18z"/>
 </g>
<g id="layer104" fill="#ffffff" stroke="none">
 <path d="M3040 3888 c1 -1076 -2 -1725 -9 -1858 -43 -801 -147 -1369 -316 -1722 l-32 -68 732 0 732 0 -35 73 c-128 267 -223 689 -276 1222 -45 454 -47 592 -46 2343 l1 1654 -28 -6 c-132 -29 -406 -34 -576 -11 -60 8 -118 17 -128 20 -20 7 -20 -14 -19 -1647z m594 -3312 c97 -40 111 -173 24 -226 -30 -18 -50 -20 -216 -20 -200 0 -223 5 -257 57 -25 38 -25 105 1 140 40 55 72 63 252 63 116 0 172 -4 196 -14z"/>
 </g>

</svg>