<!DOCTYPE svg PUBLIC "-//W3C//DTD SVG 20010904//EN" "http://www.w3.org/TR/2001/REC-SVG-20010904/DTD/svg10.dtd">
<svg version="1.0" xmlns="http://www.w3.org/2000/svg" width="600px" height="600px" viewBox="0 0 6000 6000" preserveAspectRatio="xMidYMid meet">
<g id="layer101" fill="#000000" stroke="none">
 <path d="M1193 5976 l-28 -24 -3 -1605 -2 -1605 -471 -187 c-259 -103 -480 -196 -490 -206 -32 -32 -32 -63 0 -196 17 -71 33 -151 35 -178 3 -28 14 -75 26 -105 11 -30 72 -268 135 -528 125 -513 141 -559 234 -682 59 -78 145 -148 238 -194 70 -34 457 -187 924 -365 l266 -101 959 2 959 3 450 176 c742 291 739 290 836 366 33 26 83 77 110 113 98 128 105 150 290 915 111 458 169 714 165 730 -4 14 -15 34 -25 44 -10 10 -231 103 -490 206 l-471 187 0 340 c0 368 -2 382 -55 406 -39 18 -79 15 -109 -9 l-26 -20 0 102 0 102 23 -21 c16 -15 36 -22 63 -22 47 0 77 19 93 57 8 21 11 321 9 1151 l-3 1124 -28 24 -28 24 -1779 0 -1779 0 -28 -24z"/>
 </g>
<g id="layer102" fill="#ffffff" stroke="none">
 <path d="M1360 5710 l0 -100 340 0 341 0 24 -25 c19 -18 25 -35 25 -65 0 -30 -6 -47 -25 -65 l-24 -25 -341 0 -340 0 0 -1949 c0 -1265 -3 -1959 -10 -1976 -5 -14 -116 -201 -246 -415 -129 -215 -233 -394 -229 -400 13 -22 101 -62 330 -153 272 -107 763 -295 784 -299 10 -2 17 18 27 73 51 294 216 568 444 738 431 321 983 224 1324 -233 94 -126 180 -324 211 -487 8 -46 17 -85 20 -87 5 -5 700 260 930 355 72 29 143 64 159 77 l29 23 -236 391 c-131 215 -242 404 -248 419 -7 20 -10 355 -9 1108 1 594 2 1470 1 1948 l-1 867 -1184 0 -1184 0 -26 31 c-33 39 -33 79 0 118 l26 31 1184 0 1184 0 0 100 0 100 -1640 0 -1640 0 0 -100z"/>
 <path d="M800 2390 c-190 -77 -361 -145 -382 -153 l-36 -15 25 -101 c14 -55 28 -99 32 -97 5 3 672 285 719 303 8 4 12 34 12 104 0 73 -3 99 -12 98 -7 -1 -168 -63 -358 -139z"/>
 <path d="M4830 2432 l0 -100 98 -41 c53 -22 219 -92 369 -154 l271 -114 25 98 c14 55 22 101 18 103 -10 6 -744 298 -763 303 -16 5 -18 -4 -18 -95z"/>
 <path d="M820 1980 c-179 -76 -329 -140 -334 -142 -11 -5 200 -877 228 -942 l22 -50 217 359 217 359 0 278 c0 216 -3 278 -12 277 -7 -1 -159 -63 -338 -139z"/>
 <path d="M4830 1842 l0 -278 217 -359 217 -359 22 50 c22 50 240 932 232 939 -7 7 -671 285 -680 285 -4 0 -8 -125 -8 -278z"/>
 <path d="M231 1975 c0 -11 9 -45 20 -75 l19 -55 -6 45 c-7 52 -32 118 -33 85z"/>
 <path d="M2891 1039 c-331 -65 -606 -356 -682 -724 -10 -49 -19 -98 -19 -107 0 -17 45 -18 815 -18 l815 0 0 34 c0 118 -100 366 -201 500 -175 231 -482 363 -728 315z m380 -529 c70 -19 93 -103 43 -154 l-27 -26 -279 0 c-181 0 -286 4 -300 11 -11 6 -26 26 -34 46 -14 31 -13 38 3 71 13 26 28 41 53 49 44 15 489 17 541 3z"/>
 </g>

</svg>