<!DOCTYPE svg PUBLIC "-//W3C//DTD SVG 20010904//EN" "http://www.w3.org/TR/2001/REC-SVG-20010904/DTD/svg10.dtd">
<svg version="1.0" xmlns="http://www.w3.org/2000/svg" width="600px" height="600px" viewBox="0 0 6000 6000" preserveAspectRatio="xMidYMid meet">
<g id="layer101" fill="#121212" stroke="none">
 <path d="M1038 5983 c-33 -21 -48 -53 -48 -104 0 -34 79 -587 96 -671 l6 -28 -249 0 c-277 0 -296 -4 -360 -71 -68 -72 -63 53 -63 -1656 0 -956 4 -1609 10 -1708 31 -468 95 -761 224 -1013 60 -117 133 -223 169 -247 17 -11 936 -225 968 -225 3 0 46 -52 94 -116 49 -63 98 -122 109 -130 31 -21 1981 -21 2012 0 11 8 60 66 107 129 l87 113 478 107 c305 69 486 114 502 125 36 26 121 153 173 257 105 211 163 440 204 810 15 132 17 344 20 1790 3 1192 1 1650 -7 1678 -14 49 -74 115 -125 138 -35 16 -70 19 -288 19 l-249 0 6 28 c19 93 96 639 96 677 0 40 -5 52 -34 81 l-34 34 -167 0 -167 0 -34 -34 c-19 -19 -34 -43 -34 -55 0 -20 -4 -21 -145 -21 -141 0 -145 1 -145 21 0 12 -15 36 -34 55 -30 30 -40 34 -84 34 -60 0 -107 -32 -117 -80 l-7 -30 -144 0 c-137 0 -144 1 -144 20 0 35 -51 81 -97 87 -106 14 -340 -76 -463 -180 -36 -30 -85 -82 -110 -116 -25 -33 -47 -60 -50 -60 -3 0 -25 27 -50 60 -101 137 -268 242 -450 284 -54 12 -176 15 -750 15 -621 -1 -688 -2 -712 -17z"/>
 </g>
<g id="layer102" fill="#fefefe" stroke="none">
 <path d="M3716 5856 c-8 -43 -53 -83 -104 -91 -73 -13 -148 -37 -207 -68 -77 -41 -181 -145 -222 -223 -63 -119 -63 -115 -63 -800 l0 -622 615 -1333 c503 -1092 615 -1342 615 -1376 0 -40 -7 -49 -147 -204 l-146 -162 99 -90 c54 -50 135 -126 179 -169 77 -74 80 -79 80 -123 0 -41 2 -45 20 -41 11 2 138 31 283 62 l263 58 -5 26 c-3 14 -116 746 -251 1627 l-246 1601 31 198 c16 109 30 206 30 216 0 17 -17 18 -275 18 -296 0 -315 3 -349 52 -9 12 -16 42 -16 66 0 37 6 50 34 78 l34 34 306 0 305 0 6 33 c3 17 41 271 85 562 44 292 83 542 86 558 l6 27 -67 0 c-38 0 -78 6 -94 15 -26 13 -61 67 -61 94 0 7 -46 11 -144 11 -141 0 -145 0 -151 -22 -19 -68 -56 -98 -119 -98 -43 0 -93 40 -104 83 l-8 32 -146 3 -146 3 -6 -35z"/>
 <path d="M1244 5743 c3 -16 42 -266 86 -558 44 -291 82 -545 85 -562 l6 -33 305 0 306 0 34 -34 c28 -28 34 -41 34 -78 0 -24 -7 -54 -16 -66 -34 -49 -53 -52 -349 -52 -258 0 -275 -1 -275 -18 0 -10 14 -107 30 -215 l31 -198 -121 -787 c-66 -433 -125 -810 -131 -839 -14 -69 -52 -103 -116 -103 -36 0 -50 6 -73 29 -16 16 -32 39 -35 53 -4 13 50 389 118 835 l125 810 -74 489 c-41 269 -76 499 -79 512 l-5 22 -238 -2 -237 -3 -3 -1285 c-3 -1241 6 -1865 28 -2085 17 -163 50 -352 80 -459 30 -104 58 -181 65 -174 2 2 16 80 30 173 14 94 31 183 37 198 38 97 194 85 213 -17 4 -19 -12 -153 -39 -326 -25 -162 -44 -295 -43 -296 1 -1 119 -27 262 -58 143 -32 269 -60 280 -62 18 -4 20 0 20 41 1 52 6 57 254 287 l104 96 -147 161 c-139 155 -146 164 -146 204 0 34 111 282 618 1377 l617 1335 0 610 c0 672 1 662 -63 795 -49 101 -142 194 -243 244 -131 64 -149 66 -777 66 l-564 0 6 -27z m-80 -3884 c25 -28 28 -37 23 -78 -11 -95 -117 -136 -189 -72 -29 26 -33 36 -33 79 0 40 5 56 24 76 50 53 124 51 175 -5z"/>
 <path d="M4865 4928 c-3 -13 -38 -243 -79 -512 l-74 -489 224 -1456 c123 -801 226 -1473 230 -1494 8 -50 17 -40 48 54 36 108 62 225 85 385 43 295 45 414 46 2009 l0 1520 -237 3 -238 2 -5 -22z"/>
 <path d="M2717 1778 c-153 -838 -277 -1529 -277 -1535 0 -19 1120 -19 1120 0 1 24 -555 3057 -560 3057 -3 0 -130 -685 -283 -1522z"/>
 <path d="M2712 3133 c-11 -21 -198 -426 -417 -900 l-397 -862 144 -158 c172 -188 178 -197 178 -245 0 -47 -21 -71 -220 -253 -77 -71 -140 -133 -140 -137 0 -4 59 -84 131 -178 129 -167 132 -170 170 -170 37 0 38 0 48 52 6 29 123 672 261 1428 138 756 254 1394 259 1418 5 23 7 42 5 42 -2 0 -12 -17 -22 -37z"/>
 <path d="M3271 3129 c5 -24 121 -663 259 -1419 138 -756 255 -1399 261 -1427 10 -53 11 -53 48 -53 38 0 41 3 170 170 72 94 131 174 131 179 0 4 -63 65 -140 135 -198 181 -220 207 -220 254 0 48 6 57 178 245 l144 157 -412 893 c-226 490 -415 896 -420 901 -4 4 -4 -12 1 -35z"/>
 </g>

</svg>