<!DOCTYPE svg PUBLIC "-//W3C//DTD SVG 20010904//EN" "http://www.w3.org/TR/2001/REC-SVG-20010904/DTD/svg10.dtd">
<svg version="1.0" xmlns="http://www.w3.org/2000/svg" width="600px" height="600px" viewBox="0 0 6000 6000" preserveAspectRatio="xMidYMid meet">
<g id="layer101" fill="#1a1a1a" stroke="none">
 <path d="M1714 5987 c-12 -7 -279 -300 -593 -652 -414 -464 -574 -650 -581 -675 -15 -54 -12 -2555 3 -2600 16 -46 68 -80 121 -80 110 0 231 -56 315 -145 69 -73 107 -156 124 -272 15 -101 29 -125 83 -145 l34 -12 0 -143 c0 -139 -1 -143 -21 -143 -12 0 -36 -15 -55 -34 -29 -29 -34 -41 -34 -81 0 -58 27 -99 75 -115 l35 -12 0 -138 0 -138 -35 -12 c-67 -22 -75 -47 -75 -233 0 -148 2 -167 20 -189 10 -14 32 -30 47 -36 32 -13 928 -132 992 -132 82 0 131 50 131 135 0 30 6 38 43 62 176 111 472 203 657 203 186 0 481 -92 662 -206 32 -21 38 -30 38 -59 0 -85 49 -135 131 -135 64 0 960 119 992 132 15 6 37 22 47 36 19 24 20 44 20 691 0 411 4 691 11 731 28 179 163 330 334 375 33 8 78 15 101 15 53 0 105 34 121 80 17 50 17 2560 0 2608 -13 38 -1126 1290 -1169 1316 -63 39 -68 37 -693 -289 -323 -168 -590 -305 -595 -305 -5 0 -272 137 -594 305 -505 263 -592 305 -628 305 -24 -1 -53 -6 -64 -13z"/>
 </g>
<g id="layer102" fill="#fefefe" stroke="none">
 <path d="M1289 5163 l-514 -576 -3 -139 c-2 -130 -1 -139 15 -134 142 44 1373 366 1398 366 24 0 44 -9 65 -27 27 -25 37 -54 95 -271 36 -134 65 -258 65 -277 0 -24 -9 -44 -27 -65 -26 -28 -74 -42 -821 -242 l-792 -213 2 -689 3 -689 55 -13 c30 -8 93 -33 140 -56 120 -58 238 -177 298 -298 48 -99 72 -189 72 -278 0 -95 -16 -118 -103 -146 -15 -5 -17 -21 -17 -149 l0 -144 31 -7 c17 -3 44 -19 60 -35 58 -58 27 -168 -54 -189 l-32 -8 0 -144 0 -144 32 -8 c17 -4 43 -22 57 -39 23 -28 26 -39 26 -115 0 -59 4 -86 13 -89 10 -4 684 -95 701 -95 2 0 7 26 11 58 20 199 29 259 51 361 86 386 276 701 573 951 55 47 101 87 101 90 0 3 -24 21 -54 40 -95 60 -86 -126 -86 1745 0 1826 -5 1697 62 1731 30 16 31 17 13 30 -10 8 -172 93 -359 190 -188 98 -391 203 -452 235 l-110 59 -515 -577z"/>
 <path d="M3538 5397 l-658 -342 0 -1562 0 -1563 133 -89 c462 -309 694 -591 825 -1001 50 -159 69 -261 97 -532 4 -32 9 -58 11 -58 17 0 691 91 702 95 9 3 12 141 12 642 0 716 -1 704 72 853 60 121 178 240 298 298 47 23 110 48 140 56 l55 13 3 690 2 691 -67 16 c-169 42 -203 56 -223 89 -32 51 -26 103 14 143 41 41 76 44 184 14 39 -11 76 -20 82 -20 6 0 10 46 10 120 l0 119 -52 15 c-48 14 -332 90 -1013 272 -132 35 -245 64 -251 64 -10 0 -71 -217 -63 -224 2 -2 49 -15 104 -29 141 -38 181 -72 171 -152 -7 -55 -51 -95 -106 -95 -21 0 -114 20 -207 45 -144 39 -172 50 -195 75 -19 21 -28 41 -28 64 0 39 115 477 135 517 19 37 39 50 82 56 36 4 130 -20 1290 -331 50 -13 101 -27 112 -31 21 -6 21 -4 21 132 l-1 138 -510 570 c-280 313 -513 573 -517 576 -4 4 -303 -146 -664 -334z m-227 -503 c76 -73 27 -194 -77 -194 -119 0 -156 161 -50 215 41 21 92 12 127 -21z m-9 -854 c108 -84 7 -253 -116 -195 -109 52 -72 215 48 215 28 0 52 -7 68 -20z m1277 -45 c30 -15 61 -69 61 -105 0 -65 -64 -116 -134 -107 -104 14 -133 153 -44 207 39 24 78 25 117 5z m-1294 -811 c34 -16 65 -65 65 -104 0 -35 -28 -79 -62 -96 -42 -22 -103 -13 -135 19 -52 52 -35 154 30 182 42 19 62 18 102 -1z m17 -874 c74 -58 55 -165 -34 -199 -72 -27 -148 31 -148 112 0 31 7 46 34 73 29 29 41 34 79 34 29 0 53 -7 69 -20z"/>
 <path d="M1455 4255 c-335 -90 -627 -169 -647 -175 l-38 -11 0 -119 c0 -71 4 -120 10 -120 5 0 159 40 342 89 183 49 488 131 678 182 190 50 347 93 349 95 2 2 -9 53 -24 114 -22 82 -33 110 -44 109 -9 0 -290 -74 -626 -164z"/>
 <path d="M2905 1498 c-278 -219 -455 -479 -541 -795 -21 -79 -55 -243 -49 -243 1 0 43 18 93 40 211 91 401 135 592 135 191 0 373 -42 589 -135 52 -22 96 -39 97 -37 2 2 -8 57 -21 123 -76 377 -247 655 -550 895 -58 46 -109 85 -113 86 -4 1 -47 -30 -97 -69z"/>
 </g>

</svg>