<!DOCTYPE svg PUBLIC "-//W3C//DTD SVG 20010904//EN" "http://www.w3.org/TR/2001/REC-SVG-20010904/DTD/svg10.dtd">
<svg version="1.0" xmlns="http://www.w3.org/2000/svg" width="600px" height="600px" viewBox="0 0 6000 6000" preserveAspectRatio="xMidYMid meet">
<g id="layer101" fill="#181818" stroke="none">
 <path d="M2165 5984 c-44 -22 -85 -64 -102 -102 -7 -18 -23 -124 -33 -235 -11 -111 -23 -217 -26 -234 l-5 -33 -91 0 c-106 0 -147 -18 -177 -79 -10 -20 -94 -262 -186 -539 l-167 -503 -68 -90 c-188 -251 -319 -574 -364 -898 -20 -144 -20 -398 0 -542 45 -324 176 -647 364 -898 l68 -90 167 -503 c92 -277 176 -519 186 -539 30 -61 71 -79 177 -79 l91 0 5 -32 c3 -18 13 -109 21 -203 23 -238 30 -269 73 -318 21 -22 51 -46 69 -54 26 -10 168 -13 731 -13 l699 0 44 23 c28 15 54 40 73 70 27 44 30 61 52 274 13 126 24 234 24 241 0 9 25 12 90 12 99 0 134 12 168 55 12 14 98 259 193 543 167 503 173 519 224 587 175 234 305 520 360 788 l18 87 56 0 c76 0 126 16 151 47 19 24 20 39 20 273 0 234 -1 249 -20 273 -25 31 -75 47 -151 47 l-56 0 -18 88 c-54 264 -179 540 -350 772 l-62 85 -172 517 c-95 284 -181 529 -193 543 -34 43 -69 55 -168 55 -65 0 -90 3 -90 13 0 6 -11 114 -24 240 -22 213 -25 230 -52 274 -19 30 -45 55 -73 70 l-44 23 -701 0 c-615 0 -705 -2 -731 -16z m1679 -1253 c-2 -2 -18 6 -36 17 -113 69 -374 157 -568 192 l-105 18 308 1 309 1 31 33 32 32 16 -145 c9 -80 15 -147 13 -149z m-1836 257 c23 -23 29 -23 335 -28 172 -3 299 -7 284 -8 -132 -10 -408 -93 -574 -172 -84 -40 -103 -46 -103 -32 0 41 24 262 29 262 2 0 15 -10 29 -22z m267 -3857 c111 -37 285 -78 352 -83 15 -1 -112 -5 -284 -8 l-311 -5 -26 -24 c-14 -14 -28 -23 -30 -20 -4 4 -26 222 -26 256 0 20 7 19 103 -27 56 -27 156 -67 222 -89z m1571 117 c-3 -13 -10 -79 -17 -148 l-11 -126 -33 33 -33 33 -308 1 -309 1 100 18 c200 36 379 94 535 174 81 41 81 41 76 14z"/>
 </g>
<g id="layer102" fill="#414141" stroke="none">
 <path d="M2165 5984 c-42 -21 -81 -61 -100 -100 -9 -20 -23 -111 -35 -236 -11 -112 -23 -218 -26 -235 l-5 -33 -91 0 c-106 0 -147 -18 -177 -79 -10 -20 -94 -262 -186 -539 l-167 -503 -68 -90 c-188 -251 -319 -574 -364 -898 -20 -144 -20 -398 0 -542 45 -324 176 -647 364 -898 l68 -90 167 -503 c92 -277 176 -519 186 -539 30 -61 71 -79 177 -79 l91 0 5 -32 c3 -18 14 -123 25 -233 11 -110 27 -216 35 -236 16 -39 74 -95 113 -110 14 -5 314 -9 722 -9 l698 0 44 23 c28 15 54 40 72 69 27 43 31 62 53 275 13 125 24 234 24 241 0 9 25 12 90 12 99 0 134 12 168 55 12 14 98 259 193 543 167 503 173 519 224 587 175 234 305 520 360 788 l18 87 56 0 c76 0 126 16 151 47 19 24 20 39 20 273 0 234 -1 249 -20 273 -25 31 -75 47 -151 47 l-56 0 -18 88 c-54 264 -179 540 -350 772 l-62 85 -172 517 c-95 284 -181 529 -193 543 -34 43 -69 55 -168 55 -65 0 -90 3 -90 13 0 6 -11 114 -24 238 -25 235 -32 264 -83 315 -55 55 -35 54 -790 54 -612 0 -702 -2 -728 -16z m1405 -626 c58 -39 64 -105 15 -154 l-24 -24 -664 0 -664 0 -27 26 c-28 29 -36 87 -15 125 25 48 33 48 710 49 l636 0 33 -22z m274 -627 c-2 -2 -18 6 -36 17 -113 69 -374 157 -568 192 l-105 18 308 1 309 1 31 33 32 32 16 -145 c9 -80 15 -147 13 -149z m-1836 257 c23 -23 29 -23 335 -28 172 -3 299 -7 284 -8 -132 -10 -408 -93 -574 -172 -84 -40 -103 -46 -103 -32 0 41 24 262 29 262 2 0 15 -10 29 -22z m937 -593 c22 -21 25 -33 25 -101 0 -66 -3 -81 -22 -101 -31 -33 -80 -31 -108 5 -19 24 -21 37 -18 105 3 68 6 82 27 98 32 26 67 24 96 -6z m0 -1140 c19 -18 25 -35 25 -69 l0 -44 -36 11 c-25 8 -47 8 -76 0 l-40 -11 5 51 c7 82 71 114 122 62z m-1236 -211 c12 -15 21 -34 21 -44 0 -10 -9 -29 -21 -44 -19 -24 -26 -26 -105 -26 -96 0 -124 16 -124 70 0 54 28 70 124 70 79 0 86 -2 105 -26z m1036 -44 l0 -70 -44 0 c-57 0 -81 21 -81 71 0 47 27 69 85 69 l40 0 0 -70z m1034 44 c26 -34 26 -54 0 -88 l-20 -26 -357 0 -357 0 0 70 0 70 357 0 357 0 20 -26z m513 9 c23 -20 24 -80 1 -105 -13 -15 -32 -18 -103 -18 -98 0 -123 14 -123 70 0 55 25 70 121 70 65 0 90 -4 104 -17z m-1361 -206 l39 10 0 -304 0 -304 -26 -26 c-20 -20 -31 -24 -57 -19 -63 13 -62 6 -65 346 l-3 308 36 -11 c26 -8 48 -8 76 0z m16 -1039 c20 -19 23 -31 23 -100 0 -70 -3 -82 -25 -103 -29 -30 -64 -32 -96 -6 -21 16 -24 30 -27 98 -3 68 -1 81 18 106 27 34 74 36 107 5z m-672 -677 c111 -37 285 -78 352 -83 15 -1 -112 -5 -284 -8 l-311 -5 -26 -24 c-14 -14 -28 -23 -30 -20 -4 4 -26 222 -26 256 0 20 7 19 103 -27 56 -27 156 -67 222 -89z m1571 117 c-3 -13 -10 -80 -17 -149 l-11 -127 -28 32 -28 31 -314 5 c-220 4 -295 7 -251 13 166 21 415 100 573 181 81 41 81 41 76 14z m-261 -452 c34 -34 41 -71 21 -113 -31 -64 -17 -63 -711 -63 -667 0 -679 1 -704 48 -21 39 -13 97 15 126 l27 26 664 0 664 0 24 -24z"/>
 </g>
<g id="layer103" fill="#9e9e9e" stroke="none">
 <path d="M1782 5359 c-18 -12 -41 -38 -51 -58 -10 -20 -94 -262 -186 -539 l-167 -503 -68 -90 c-188 -251 -319 -574 -364 -898 -20 -144 -20 -398 0 -542 45 -324 176 -647 364 -898 l68 -90 167 -503 c92 -277 176 -519 186 -539 31 -62 71 -79 184 -79 l97 0 -6 38 c-3 20 -10 91 -16 157 -6 66 -18 184 -26 263 -21 216 -32 199 89 142 536 -256 1181 -251 1722 14 38 19 70 34 71 33 1 -1 -5 -60 -12 -132 -28 -289 -44 -471 -44 -492 0 -22 3 -23 90 -23 99 0 134 12 168 55 12 14 98 259 193 543 167 503 173 519 224 587 175 234 305 520 360 788 l18 87 56 0 c76 0 126 16 151 47 19 24 20 39 20 273 0 234 -1 249 -20 273 -25 31 -75 47 -151 47 l-56 0 -18 88 c-54 264 -179 540 -350 772 l-62 85 -172 517 c-95 284 -181 529 -193 543 -34 44 -69 55 -170 55 l-94 0 18 -182 c9 -101 24 -246 31 -323 8 -77 13 -142 11 -144 -2 -2 -18 6 -36 17 -60 37 -249 112 -357 143 -470 133 -972 93 -1398 -111 -121 -57 -110 -74 -89 142 8 79 20 197 26 263 6 66 13 137 16 158 l6 37 -99 0 c-82 0 -103 -4 -131 -21z m1162 -960 c24 -19 26 -26 26 -105 0 -98 -16 -124 -74 -124 -55 0 -76 35 -76 127 0 65 3 77 25 98 30 30 64 32 99 4z m3 -1141 c18 -17 23 -32 23 -70 0 -47 -1 -49 -22 -42 -29 10 -65 11 -100 1 -27 -7 -28 -7 -28 36 0 85 71 127 127 75z m-1262 -192 c62 -26 61 -106 -3 -133 -48 -20 -155 -13 -182 12 -39 35 -17 118 33 128 49 10 120 6 152 -7z m1062 -26 c-8 -29 -8 -52 0 -81 l11 -42 -51 6 c-60 8 -90 33 -90 76 0 53 32 76 109 80 l31 1 -10 -40z m1001 29 c18 -6 35 -22 42 -40 17 -40 -2 -84 -42 -98 -20 -7 -155 -11 -367 -11 l-336 0 0 80 0 80 336 0 c212 0 347 -4 367 -11z m549 -24 c29 -33 29 -57 -1 -92 -23 -26 -29 -28 -106 -28 -77 0 -83 2 -106 28 -29 34 -30 56 -4 90 25 31 46 36 130 32 55 -3 68 -7 87 -30z m-1397 -199 c14 0 35 3 48 8 l22 7 0 -310 0 -310 -26 -20 c-35 -28 -69 -26 -99 4 l-25 24 0 306 0 305 28 -7 c15 -4 38 -7 52 -7z m50 -1036 c17 -17 20 -33 20 -104 0 -79 -2 -86 -26 -105 -35 -28 -69 -26 -99 4 -22 21 -25 33 -25 98 0 60 4 79 21 101 26 33 79 36 109 6z"/>
 </g>
<g id="layer104" fill="#fdfdfd" stroke="none">
 <path d="M1782 5359 c-18 -12 -41 -38 -51 -58 -10 -20 -94 -262 -186 -539 l-167 -503 -68 -90 c-188 -251 -319 -574 -364 -898 -20 -144 -20 -398 0 -542 45 -324 176 -647 364 -898 l68 -90 167 -503 c92 -277 176 -519 186 -539 30 -61 71 -79 178 -79 l91 0 0 33 c0 17 -7 91 -14 162 -8 72 -12 133 -10 136 1 3 -3 64 -11 135 -8 71 -15 141 -15 156 l0 27 103 -49 c218 -104 450 -165 697 -181 249 -17 492 9 722 75 87 26 304 114 346 142 13 9 25 14 26 12 2 -2 -2 -61 -9 -133 -7 -71 -18 -195 -25 -275 -6 -80 -14 -166 -17 -192 l-6 -48 92 0 c100 0 135 11 169 55 12 14 98 259 193 543 167 503 173 519 224 587 175 234 305 520 360 788 l18 87 56 0 c76 0 126 16 151 47 19 24 20 39 20 273 0 234 -1 249 -20 273 -25 31 -75 47 -151 47 l-56 0 -18 88 c-54 264 -179 540 -350 772 l-62 85 -172 517 c-95 284 -181 529 -193 543 -34 44 -69 55 -169 55 l-92 0 6 -47 c3 -27 11 -113 17 -193 6 -80 17 -203 25 -275 7 -71 11 -132 9 -134 -2 -2 -18 6 -36 17 -65 40 -255 114 -374 147 -222 61 -447 82 -689 66 -243 -17 -476 -78 -692 -181 l-103 -49 0 27 c0 15 7 85 15 156 8 71 12 132 11 135 -2 3 2 65 10 136 7 72 14 145 14 163 l0 32 -92 0 c-77 0 -99 -4 -126 -21z m1168 -959 c17 -17 20 -33 20 -108 0 -95 -8 -111 -57 -126 -26 -8 -78 16 -87 39 -3 9 -6 51 -6 93 0 64 3 79 22 99 27 29 80 31 108 3z m-675 -185 c14 -13 25 -36 25 -50 0 -33 -42 -75 -75 -75 -33 0 -75 42 -75 75 0 33 42 75 75 75 14 0 37 -11 50 -25z m1343 5 c45 -42 16 -130 -42 -130 -39 0 -57 11 -71 44 -32 76 54 141 113 86z m-1855 -481 c24 -11 47 -47 47 -73 0 -7 -9 -25 -21 -40 -26 -33 -79 -36 -109 -6 -30 30 -27 83 6 109 30 24 43 26 77 10z m2331 0 c73 -34 44 -139 -38 -139 -63 0 -90 89 -40 129 30 24 43 26 78 10z m-1144 -479 c15 -15 20 -33 20 -69 l0 -50 -53 6 c-32 3 -62 1 -75 -6 -21 -11 -22 -10 -22 41 0 39 5 57 22 75 27 29 80 31 108 3z m-1245 -205 c16 -15 25 -36 25 -55 0 -19 -9 -40 -25 -55 -21 -22 -33 -25 -99 -25 -64 0 -79 3 -102 23 -20 17 -27 33 -27 57 0 24 7 40 27 57 23 20 38 23 102 23 66 0 78 -3 99 -25z m1048 -2 c-4 -16 -8 -39 -8 -53 0 -14 4 -37 8 -52 7 -27 6 -28 -32 -28 -81 0 -126 49 -102 109 15 35 43 49 99 50 42 1 42 0 35 -26z m1028 -2 c10 -13 19 -36 19 -51 0 -15 -9 -38 -19 -51 l-19 -24 -367 -3 -367 -3 9 23 c4 13 8 39 8 58 0 19 -4 45 -8 58 l-9 23 367 -3 367 -3 19 -24z m493 18 c55 -26 55 -112 0 -138 -36 -16 -140 -14 -174 4 -52 27 -53 102 -2 129 32 18 141 21 176 5z m-1357 -216 l53 6 0 -309 c0 -305 0 -309 -22 -330 -32 -29 -81 -27 -107 6 -20 26 -21 38 -21 336 l0 309 22 -12 c13 -7 43 -9 75 -6z m-1124 -485 c48 -64 -37 -149 -101 -101 -36 27 -42 83 -12 113 30 30 86 24 113 -12z m2308 21 c48 -25 44 -105 -7 -128 -35 -16 -48 -14 -78 10 -19 15 -26 30 -26 55 0 60 57 92 111 63z m-1826 -504 c14 -13 25 -36 25 -50 0 -14 -11 -37 -25 -50 -13 -14 -36 -25 -50 -25 -14 0 -37 11 -50 25 -14 13 -25 36 -25 50 0 14 11 37 25 50 13 14 36 25 50 25 14 0 37 -11 50 -25z m1345 5 c12 -12 20 -33 20 -55 0 -81 -104 -105 -135 -31 -32 76 58 143 115 86z m-667 -77 c14 -13 17 -33 17 -105 0 -75 -3 -91 -20 -108 -27 -27 -77 -26 -107 2 -20 19 -23 31 -23 103 0 50 5 87 13 97 31 40 82 44 120 11z"/>
 </g>

</svg>