<svg id="icons" enable-background="new 0 0 64 64" height="512" viewBox="0 0 64 64" width="512" xmlns="http://www.w3.org/2000/svg"><path d="m63 53.494h-62c0-.01.01-1.49 3-3.08 3.53-1.879 11.229-3.92 27.99-3.92 16.79 0 24.489 2.051 28.01 3.93 3 1.599 3 3.07 3 3.07z" fill="#656d78"/><path d="m36 12.506v1.279.01c-1.311-.189-2.65-.289-4.01-.289s-2.69.1-3.99.279v-1.279c0-1.111.9-2 2-2h4c1.11 0 2 .889 2 2z" fill="#d3374e"/><path d="m60 40.475v9.949c-3.521-1.879-11.22-3.93-28.01-3.93-16.761 0-24.46 2.041-27.99 3.92v-9.939h.02c0-14.09 10.42-25.75 23.98-27.689 1.3-.182 2.63-.281 3.99-.281 1.359 0 2.699.1 4.01.291 13.55 1.939 23.96 13.59 23.96 27.68h.04zm-17-.971-7.99-12.01h-.01l-4.5 6.76-2.5-3.76-6 9.01h5zm-17-14.01c0-1.1-.89-2-2-2-1.1 0-2 .9-2 2 0 1.109.9 2 2 2 1.11 0 2-.89 2-2z" fill="#ed5565"/><path d="m59.96 40.475c0-14.09-10.41-25.74-23.96-27.68-1.311-.191-2.65-.291-4.01-.291-.629 0-1.25.027-1.866.068.729.047 1.454.119 2.169.223 13.55 1.939 23.96 13.59 23.96 27.68h.04v8.482c1.575.475 2.788.977 3.707 1.467v-9.949z" fill="#da4453"/><g fill="#ccd1d9"><path d="m28 30.494 2.5 3.76-3.5 5.25h-5z"/><path d="m21.994 40.502c-.19 0-.383-.055-.554-.168-.459-.307-.584-.928-.277-1.387l5.998-9.002c.305-.461.926-.584 1.387-.277.459.305.584.926.277 1.387l-5.998 9.002c-.192.289-.51.445-.833.445z"/><path d="m30.498 35.252c-.323 0-.641-.156-.833-.445l-2.499-3.752c-.307-.461-.182-1.082.277-1.387.46-.307 1.081-.184 1.387.277l2.499 3.752c.307.461.182 1.082-.277 1.387-.171.113-.364.168-.554.168z"/><path d="m43.001 40.502h-21.004c-.553 0-1-.447-1-1s.447-1 1-1h21.004c.553 0 1 .447 1 1s-.447 1-1 1z"/></g><path d="m35.01 27.494 7.99 12.01h-16l3.5-5.25 4.5-6.76z" fill="#e6e9ed"/><path d="m27.001 40.502c-.19 0-.383-.055-.554-.168-.459-.307-.584-.928-.277-1.387l7.996-12.002c.305-.461.925-.584 1.387-.277.459.305.584.926.277 1.387l-7.996 12.002c-.192.289-.51.445-.833.445z" fill="#e6e9ed"/><path d="m43.002 40.502c-.323 0-.641-.156-.833-.445l-7.996-12.002c-.307-.461-.182-1.082.277-1.387.46-.307 1.081-.184 1.387.277l7.996 12.002c.307.459.182 1.08-.277 1.387-.171.113-.364.168-.554.168z" fill="#e6e9ed"/><path d="m43.001 40.502h-15.999c-.553 0-1-.447-1-1s.447-1 1-1h15.999c.553 0 1 .447 1 1s-.447 1-1 1z" fill="#e6e9ed"/><path d="m24 22.994c1.388 0 2.5 1.125 2.5 2.5 0 1.387-1.112 2.5-2.5 2.5-1.375 0-2.5-1.113-2.5-2.5 0-1.375 1.125-2.5 2.5-2.5z" fill="#ffce54"/></svg>