<?xml version="1.0" encoding="iso-8859-1"?>
<!-- Generator: Adobe Illustrator 19.0.0, SVG Export Plug-In . SVG Version: 6.00 Build 0)  -->
<svg version="1.1" id="Capa_1" xmlns="http://www.w3.org/2000/svg" xmlns:xlink="http://www.w3.org/1999/xlink" x="0px" y="0px"
	 viewBox="0 0 512.1 512.1" style="enable-background:new 0 0 512.1 512.1;" xml:space="preserve">
<path style="fill:#F5A85B;" d="M322.05,176.2h-8.3c-6.3,0-11.2-5.7-10.1-11.9l0,0c4-24.9,3-50.4-3-75l-3.4-13.7h-82.4l-3.4,13.7
	c-6,24.5-7,50-3,75l0,0c1,6.3-3.8,11.9-10.1,11.9h-8.3c-7.6,0-14.9,3.3-19.9,9l-13.4,15.2c-9.3,10.5-14.4,24-14.4,38v243.2
	c0,12.7,10.3,23.1,23.1,23.1h181.4c12.7,0,23.1-10.3,23.1-23.1V238.3c0-14-5.1-27.5-14.4-38l-13.5-15.2
	C336.95,179.4,329.65,176.2,322.05,176.2z"/>
<path style="opacity:0.1;enable-background:new    ;" d="M298.55,223.3h-84.9c-4.1,0-7.5-3.4-7.5-7.5s3.4-7.5,7.5-7.5h84.9
	c4.1,0,7.5,3.4,7.5,7.5C306.05,220,302.65,223.3,298.55,223.3z"/>
<g>
	<path style="fill:#4A5058;" d="M300.25,7.5h-88.5c-5,0-9.1,4.2-9.1,9.3V68c0,5.2,4.1,9.3,9.1,9.3h2.6l-2.9,11.9
		c-2.2,9-3.7,18.2-4.6,27.5h98.3c-0.9-9.2-2.4-18.4-4.6-27.5l-2.9-11.9h2.6c5,0,9.1-4.2,9.1-9.3V16.8
		C309.35,11.7,305.35,7.5,300.25,7.5z"/>
	<rect x="142.25" y="246.7" style="fill:#4A5058;" width="227.5" height="212.1"/>
</g>
<g>
	<path style="fill:#FFFFFF;" d="M316.75,305.1c-2,3.3-6.1,4.4-9.5,2.7c-14.6-7.4-32.5-11.4-51.1-11.4s-36.5,4-51.1,11.4
		c-3.4,1.7-7.6,0.6-9.5-2.7l-4.6-7.5c-2.2-3.6-0.8-8.3,2.9-10.3c18-9.2,39.8-14.2,62.3-14.2s44.3,5,62.3,14.2
		c3.8,1.9,5.1,6.6,2.9,10.3L316.75,305.1z"/>
	<ellipse style="fill:#FFFFFF;" cx="256.05" cy="356.7" rx="65.7" ry="39.9"/>
</g>
<path style="opacity:0.1;enable-background:new    ;" d="M237.15,75.5h-22.3l-3.4,13.7c-6,24.5-7,50-3,75l0,0
	c1,6.3-3.8,11.9-10.1,11.9h-8.3c-7.6,0-14.9,3.3-19.9,9l-13.4,15.2c-9.3,10.5-14.4,24-14.4,38v243.2c0,12.7,10.3,23.1,23.1,23.1
	h22.3c-12.7,0-23.1-10.3-23.1-23.1V238.3c0-14,5.1-27.5,14.4-38l13.4-15.2c5.1-5.7,12.3-9,19.9-9h8.3c6.3,0,11.2-5.7,10.1-11.9l0,0
	c-4-24.9-3-50.4,3-75L237.15,75.5z"/>
<path style="opacity:0.1;enable-background:new    ;" d="M222.75,66.4V16.5c0-5,4.1-9.1,9.1-9.1h-20.1c-5,0-9.1,4.1-9.1,9.1v49.9
	c0,5,4.1,9.1,9.1,9.1h20.1C226.85,75.5,222.75,71.5,222.75,66.4z"/>
<path d="M369.85,287.8c4.1,0,7.5-3.4,7.5-7.5v-42c0-15.8-5.8-31.1-16.3-42.9l-13.4-15.2c-6.5-7.3-15.8-11.5-25.6-11.5h-8.3
	c-1.1,0-1.8-0.6-2.1-1c-0.3-0.4-0.8-1.1-0.6-2.2c4.2-26.1,3.2-52.3-3.1-78l-1.4-5.6c6.1-2.5,10.4-8.4,10.4-15.4V16.6
	c0-9.1-7.4-16.6-16.6-16.6h-88.5c-9.1,0-16.6,7.4-16.6,16.6v49.9c0,6.9,4.3,12.9,10.4,15.4l-1.4,5.6c-6.3,25.7-7.3,51.9-3.1,78
	c0.2,1.1-0.3,1.9-0.6,2.2c-0.3,0.4-1,1-2.1,1h-8.4c-9.8,0-19.1,4.2-25.6,11.5l-13.4,15.2c-10.5,11.9-16.3,27.1-16.3,42.9v243.2
	c0,16.9,13.7,30.6,30.6,30.6h181.4c16.9,0,30.6-13.7,30.6-30.6V314.8c0-4.1-3.4-7.5-7.5-7.5s-7.5,3.4-7.5,7.5v136.5h-166.7
	c-4.1,0-7.5,3.4-7.5,7.5s3.4,7.5,7.5,7.5h166.6v15.1c0,8.6-7,15.6-15.6,15.6h-181.3c-8.6,0-15.6-7-15.6-15.6v-15.1h14.8
	c4.1,0,7.5-3.4,7.5-7.5s-3.4-7.5-7.5-7.5h-14.8V254.2h212.5v26.1C362.35,284.4,365.65,287.8,369.85,287.8z M210.25,16.6
	c0-0.9,0.7-1.6,1.6-1.6h88.5c0.9,0,1.6,0.7,1.6,1.6v49.9c0,0.9-0.7,1.6-1.6,1.6h-3h-38.6c-4.1,0-7.5,3.4-7.5,7.5s3.4,7.5,7.5,7.5
	h32.7l2,8c1.5,6,2.6,12.1,3.5,18.2h-81.5c0.8-6.1,2-12.1,3.5-18.2l2-8h5.1c4.1,0,7.5-3.4,7.5-7.5s-3.4-7.5-7.5-7.5h-11l0,0h-3
	c-0.9,0-1.6-0.7-1.6-1.6L210.25,16.6L210.25,16.6z M149.75,239.2v-0.9c0-12.2,4.4-23.9,12.5-33l13.4-15.2c3.6-4.1,8.8-6.5,14.3-6.5
	h8.3c5.2,0,10.2-2.3,13.5-6.3c3.3-4,4.8-9.2,4-14.4c-2.1-12.9-2.8-25.9-2.1-38.8h84.4c0.7,12.9,0,25.9-2.1,38.8
	c-0.8,5.2,0.6,10.4,4,14.4s8.3,6.3,13.5,6.3h8.3c5.5,0,10.7,2.4,14.3,6.5l13.4,15.2c8.1,9.1,12.5,20.8,12.5,33v0.9H149.75
	L149.75,239.2z M220.25,417.7c-4.1,0-7.5,3.4-7.5,7.5s3.4,7.5,7.5,7.5h71.6c4.1,0,7.5-3.4,7.5-7.5s-3.4-7.5-7.5-7.5H220.25z
	 M329.25,356.7c0-26.6-32.2-47.4-73.2-47.4s-73.2,20.8-73.2,47.4c0,26.6,32.2,47.4,73.2,47.4S329.25,383.3,329.25,356.7z
	 M256.05,389.1c-31.6,0-58.2-14.8-58.2-32.4s26.7-32.4,58.2-32.4s58.2,14.8,58.2,32.4S287.65,389.1,256.05,389.1z M329.25,289.8
	c-1.1-3.9-3.9-7.3-7.5-9.1c-19.2-9.8-42-15-65.7-15c-23.7,0-46.5,5.2-65.7,15c-3.7,1.9-6.4,5.2-7.5,9.1s-0.5,8.2,1.6,11.7l4.6,7.5
	c2.7,4.5,7.6,7.1,12.7,7.1c2.3,0,4.5-0.5,6.7-1.6c13.5-6.8,30.5-10.6,47.8-10.6c17.3,0,34.2,3.8,47.8,10.6
	c6.9,3.5,15.4,1.1,19.3-5.5l4.6-7.5C329.85,298,330.45,293.7,329.25,289.8z M310.45,301c-15.8-7.9-34.6-12.1-54.4-12.1
	c-19.8,0-38.6,4.2-54.4,12.1l-4.3-7.1c16.9-8.6,37.7-13.3,58.7-13.3s41.9,4.7,58.7,13.3L310.45,301z"/>
<g>
</g>
<g>
</g>
<g>
</g>
<g>
</g>
<g>
</g>
<g>
</g>
<g>
</g>
<g>
</g>
<g>
</g>
<g>
</g>
<g>
</g>
<g>
</g>
<g>
</g>
<g>
</g>
<g>
</g>
</svg>
