<svg enable-background="new 0 0 100 100" height="512" viewBox="0 0 100 100" width="512" xmlns="http://www.w3.org/2000/svg"><path d="m80.6766129 27.0986729h-3.4616699c-.7354736 0-1.331665.5961914-1.331665 1.331543v7.6879864c0 .7358398.5961914 1.3320312 1.331665 1.3320312h3.4616699c.7354736 0 1.331665-.5961914 1.331665-1.3320312v-7.6879864c0-.7353516-.5961914-1.331543-1.331665-1.331543z" fill="#de594e"/><path d="m80.6766129 38.9157028h-3.4616699c-.7354736 0-1.331665.5961914-1.331665 1.331543v7.6879883c0 .7358398.5961914 1.3320312 1.331665 1.3320312h3.4616699c.7354736 0 1.331665-.5961914 1.331665-1.3320312v-7.6879883c0-.7353516-.5961914-1.331543-1.331665-1.331543z" fill="#feda6f"/><path d="m80.6766129 50.7327347h-3.4616699c-.7354736 0-1.331665.5961914-1.331665 1.331543v7.6879883c0 .7358398.5961914 1.3320312 1.331665 1.3320312h3.4616699c.7354736 0 1.331665-.5961914 1.331665-1.3320312v-7.6879883c0-.7353516-.5961914-1.331543-1.331665-1.331543z" fill="#dbd8dd"/><path d="m80.6766129 62.5497665h-3.4616699c-.7354736 0-1.331665.5961914-1.331665 1.331543v7.6879883c0 .7358398.5961914 1.3320312 1.331665 1.3320312h3.4616699c.7354736 0 1.331665-.5961914 1.331665-1.3320312v-7.6879883c0-.7353516-.5961914-1.331543-1.331665-1.331543z" fill="#fb7833"/><path d="m73.1990128 15.0222168h-44.6467877c-2.7572632 0-4.9924927 2.2353516-4.9924927 4.9926758v59.9702148c0 2.7573242 2.2352295 4.9926758 4.9924927 4.9926758h44.6467896c2.7572632 0 4.9924927-2.2353516 4.9924927-4.9926758v-59.9702148c-.000002-2.7573242-2.2352315-4.9926758-4.9924946-4.9926758z" fill="#ededed"/><g fill="#344d5b"><path d="m17.99172 23.204138h9.988299v2.99649h-9.988299z"/><path d="m17.99172 31.544758h9.988299v2.99649h-9.988299z"/><path d="m17.99172 39.88538h9.988299v2.99649h-9.988299z"/><path d="m17.99172 48.225998h9.988299v2.99649h-9.988299z"/><path d="m17.99172 56.56662h9.988299v2.99649h-9.988299z"/><path d="m17.99172 64.907242h9.988299v2.99649h-9.988299z"/><path d="m17.99172 73.247856h9.988299v2.99649h-9.988299z"/></g><path d="m66.8653793 58.706749c-1.5610809-1.9359894-6.4802055-5.4635544-7.9020538-4.6104317-1.1617393.7018318-1.5489769 1.7062492-1.670002 2.2145615-.0545082.1875153-.0604591.3023834-.0604591.3023834-.0242157.0242157-.0605621.0606384-.1149979.0908585-.3872108.3145905-1.440033.9679947-1.440033.9679947-1.4037361.6171761-1.7002182-.3205986-1.7002182-.3205986l-4.7731323-4.7731323-.0431023-.0432243-4.7731552-4.7729301s-.9378777-.2965851-.3206482-1.7002449c0 0 .65345-1.0528488.968071-1.4400864.0006256-.0012016.0013504-.0018005.001976-.0028.0010262.0023994.0024757.0058022.0034752.0082054.03022-.0544357.0665665-.0906563.0907822-.1150703 0 0 .1148949-.005806.3024864-.0604401-.0007515-.0018005-.0018539-.0044022-.0026016-.0062027.5091133-.1216736 1.5110016-.5093117 2.2117081-1.6692238.8530464-1.421875-2.6744194-6.3408966-4.6105576-7.9020538-.4054222-.3326035-.9741745-.4294624-1.4642487-.2297401-.4356689.1693039-.9620171.5021057-1.3917046 1.1374969-.0543594.0784492-.1028404.1632996-.1572723.254158 0 0-.036274.0362206-.1028862.1028633-.6171074.6169777-3.7271423 3.8963928-2.9647713 6.3651085 0 0 2.6153793 6.8782234 8.7807655 13.4596634l-.0021248.0022049c.0075302.0070038.0150337.0132065.0226364.0204124.0070076.0076027.0133591.015007.0204659.0226135l.0021248-.0022011c6.5813904 6.1653862 13.4596405 8.7807884 13.4596405 8.7807884 2.4679909.7622681 5.7461014-2.3458366 6.3645325-2.964016.0020523.0015984.0040512.0029984.0061035.0048027.0666428-.0666428.10289-.1028633.10289-.1028633.0907822-.0544357.1755295-.1030655.2541275-.157299-.0020981-.0018005-.0041733-.0034027-.0062714-.0050011.0002441-.0002022.0005493-.0004005.0007935-.0006027.6353912-.4296608.9681702-.955986 1.1375504-1.391655.199646-.4901008.1028672-1.0588493-.2298889-1.4642982z" fill="#467082"/></svg>