<svg xmlns="http://www.w3.org/2000/svg" xmlns:xlink="http://www.w3.org/1999/xlink" version="1.1" style="" xml:space="preserve" width="512.0120239257812" height="512.0120239257812"><rect id="backgroundrect" width="100%" height="100%" x="0" y="0" fill="none" stroke="none"/>



















<g class="currentLayer" style=""><title>Layer 1</title><g id="svg_1" class="selected" fill="#abecab" fill-opacity="1">
	<g id="svg_2" fill="#abecab" fill-opacity="1">
		<path d="M104.47971426868439,330.764 c-5.664,-2.624 -12.32,-1.6960000000000002 -17.088,2.368 l-64,54.72 c-3.552,3.04 -5.6,7.488 -5.6,12.16 v96 c0,8.832 7.168,16 16,16 h64 c8.832,0 16,-7.168 16,-16 v-150.72 C113.79171426868439,339.052 110.14371426868439,333.388 104.47971426868439,330.764 z" id="svg_3" fill="#abecab" fill-opacity="1"/>
	</g>
</g><g id="svg_4" class="selected" fill="#abecab" fill-opacity="1">
	<g id="svg_5" fill="#abecab" fill-opacity="1">
		<path d="M232.47971426868438,221.004 c-5.632,-2.624 -12.32,-1.6960000000000002 -17.088,2.368 l-64,54.72 c-3.552,3.04 -5.6,7.488 -5.6,12.16 v205.76 c0,8.832 7.168,16 16,16 h64 c8.832,0 16,-7.168 16,-16 v-260.48 C241.7917142686844,229.292 238.1437142686844,223.596 232.47971426868438,221.004 z" id="svg_6" fill="#abecab" fill-opacity="1"/>
	</g>
</g><g id="svg_7" class="selected" fill="#abecab" fill-opacity="1">
	<g id="svg_8" fill="#abecab" fill-opacity="1">
		<path d="M360.4797142686844,111.244 c-5.664,-2.624 -12.32,-1.6960000000000002 -17.088,2.368 l-64,54.72 c-3.552,3.04 -5.6,7.488 -5.6,12.16 v315.52 c0,8.832 7.168,16 16,16 h64 c8.832,0 16,-7.168 16,-16 v-370.24 C369.79171426868436,119.532 366.1757142686844,113.868 360.4797142686844,111.244 z" id="svg_9" fill="#abecab" fill-opacity="1"/>
	</g>
</g><g id="svg_10" class="selected" fill="#abecab" fill-opacity="1">
	<g id="svg_11" fill="#abecab" fill-opacity="1">
		<path d="M488.4797142686844,1.484 c-5.632,-2.624 -12.352,-1.7280000000000002 -17.088,2.368 l-64,54.72 c-3.552,3.04 -5.6,7.488 -5.6,12.16 v425.28 c0,8.832 7.168,16 16,16 h64 c8.832,0 16,-7.168 16,-16 v-480 C497.79171426868436,9.772 494.1757142686844,4.076 488.4797142686844,1.484 z" id="svg_12" fill="#abecab" fill-opacity="1"/>
	</g>
</g><g id="svg_13">
</g><g id="svg_14">
</g><g id="svg_15">
</g><g id="svg_16">
</g><g id="svg_17">
</g><g id="svg_18">
</g><g id="svg_19">
</g><g id="svg_20">
</g><g id="svg_21">
</g><g id="svg_22">
</g><g id="svg_23">
</g><g id="svg_24">
</g><g id="svg_25">
</g><g id="svg_26">
</g><g id="svg_27">
</g></g></svg>