<?xml version="1.0" encoding="iso-8859-1"?>
<!-- Generator: Adobe Illustrator 19.0.0, SVG Export Plug-In . SVG Version: 6.00 Build 0)  -->
<svg version="1.1" id="Capa_1" xmlns="http://www.w3.org/2000/svg" xmlns:xlink="http://www.w3.org/1999/xlink" x="0px" y="0px"
	 viewBox="0 0 512 512" style="enable-background:new 0 0 512 512;" xml:space="preserve">
<path style="fill:#CFD8DC;" d="M117.333,0h277.333C459.468,0,512,52.532,512,117.333v277.333C512,459.468,459.468,512,394.667,512
	H117.333C52.532,512,0,459.468,0,394.667V117.333C0,52.532,52.532,0,117.333,0z"/>
<path style="fill:#455A64;" d="M402.005,268.907c0.427-4.267,0.661-8.533,0.661-12.907c0-4.373-0.256-8.768-0.683-13.163
	l33.941-26.624c7.446-6.164,9.317-16.821,4.416-25.152l-36.267-62.827c-5.016-8.318-15.294-11.813-24.341-8.277l-39.531,15.893
	c-7.054-5.036-14.552-9.421-22.4-13.099l-5.995-42.56C309.942,70.853,301.79,64.098,292.267,64h-72.533
	c-9.767,0.185-18.016,7.304-19.627,16.939l-5.973,42.133c-7.825,3.694-15.313,8.062-22.379,13.056l-39.723-16.021
	c-9.042-3.331-19.174,0.256-24.107,8.533l-36.267,62.549c-5.067,8.492-3.091,19.42,4.629,25.6l33.621,26.347
	c-0.427,4.267-0.661,8.533-0.661,12.907c0,4.373,0.256,8.768,0.683,13.163l-33.856,26.56c-7.446,6.164-9.317,16.821-4.416,25.152
	l36.267,62.827c4.986,8.317,15.239,11.83,24.277,8.32l39.531-15.915c7.053,5.037,14.551,9.422,22.4,13.099l5.995,42.539
	c1.869,9.366,10.055,16.135,19.605,16.213h72.533c9.774-0.187,18.025-7.316,19.627-16.96l5.909-42.112
	c7.822-3.691,15.309-8.052,22.379-13.035l39.744,15.979c9.047,3.426,19.246-0.181,24.128-8.533l36.267-62.528
	c5.057-8.494,3.082-19.415-4.629-25.6L402.005,268.907z M298.667,256c0,23.564-19.103,42.667-42.667,42.667
	S213.333,279.564,213.333,256s19.103-42.667,42.667-42.667S298.667,232.436,298.667,256z"/>
<g>
</g>
<g>
</g>
<g>
</g>
<g>
</g>
<g>
</g>
<g>
</g>
<g>
</g>
<g>
</g>
<g>
</g>
<g>
</g>
<g>
</g>
<g>
</g>
<g>
</g>
<g>
</g>
<g>
</g>
</svg>
