<?xml version="1.0" encoding="iso-8859-1"?>
<!-- Generator: Adobe Illustrator 21.0.0, SVG Export Plug-In . SVG Version: 6.00 Build 0)  -->
<svg version="1.1" id="Capa_1" xmlns="http://www.w3.org/2000/svg" xmlns:xlink="http://www.w3.org/1999/xlink" x="0px" y="0px"
	 viewBox="0 0 609.403 609.403" style="enable-background:new 0 0 609.403 609.403;" xml:space="preserve">
<g>
	<g>
		<g id="filled_outline_31_">
			<path style="fill:#69CCD7;" d="M365.658,416.399V71.068c0-33.646-27.27-60.916-60.916-60.916l0,0
				c-33.646,0-60.916,27.27-60.916,60.916v345.331c-44.854,33.646-53.951,97.282-20.305,142.136
				c33.646,44.854,97.282,53.951,142.136,20.305s53.951-97.282,20.305-142.136C380.196,429.008,373.354,422.176,365.658,416.399z"/>
			<path style="fill:#61BDC7;" d="M365.658,416.399V253.815L243.827,375.646v40.753c-44.854,33.646-53.951,97.282-20.305,142.136
				c33.646,44.854,97.282,53.951,142.136,20.305s53.951-97.282,20.305-142.136C380.196,429.008,373.354,422.176,365.658,416.399z"/>
			<circle style="fill:#ED3124;" cx="304.742" cy="497.477" r="40.61"/>
			<rect x="243.827" y="365.494" style="fill:#519DA6;" width="30.458" height="20.305"/>
			<rect x="243.827" y="314.731" style="fill:#519DA6;" width="30.458" height="20.305"/>
			<rect x="243.827" y="263.968" style="fill:#519DA6;" width="30.458" height="20.305"/>
			<rect x="243.827" y="213.205" style="fill:#519DA6;" width="30.458" height="20.305"/>
			<rect x="243.827" y="162.442" style="fill:#519DA6;" width="30.458" height="20.305"/>
			<rect x="243.827" y="111.679" style="fill:#519DA6;" width="30.458" height="20.305"/>
			<path d="M304.742,0c-39.23,0.041-71.028,31.839-71.068,71.068v340.406c-30.174,24.63-45.179,63.301-39.514,101.841
				c8.62,61.068,65.119,103.597,126.187,94.978c55.19-7.787,96.186-55.078,96.074-110.816c0.102-33.321-14.813-64.916-40.61-86.003
				V71.068C375.77,31.839,343.972,0.041,304.742,0z M396.116,497.477c0.071,50.469-40.783,91.424-91.252,91.495
				c-50.469,0.071-91.424-40.783-91.495-91.252c-0.041-28.803,13.503-55.941,36.549-73.221c2.558-1.919,4.061-4.924,4.061-8.122
				v-30.58h20.305v-20.305h-20.305v-30.458h20.305v-20.305h-20.305v-30.458h20.305v-20.305h-20.305V233.51h20.305v-20.305h-20.305
				v-30.458h20.305v-20.305h-20.305v-30.458h20.305v-20.305h-20.305v-40.61c0-28.031,22.732-50.763,50.763-50.763
				s50.763,22.732,50.763,50.763v345.331c0,3.198,1.503,6.203,4.061,8.122C382.623,441.679,396.187,468.745,396.116,497.477z"/>
			<path d="M314.895,447.73V91.373H294.59V447.73c-27.473,5.604-45.189,32.417-39.585,59.89
				c5.604,27.473,32.417,45.189,59.89,39.585s45.189-32.417,39.585-59.89C350.409,467.375,334.835,451.801,314.895,447.73z
				 M304.742,527.935c-16.823,0-30.458-13.635-30.458-30.458c0-16.823,13.635-30.458,30.458-30.458
				c16.823,0,30.458,13.635,30.458,30.458C335.2,514.3,321.565,527.935,304.742,527.935z"/>
		</g>
	</g>
</g>
<g>
</g>
<g>
</g>
<g>
</g>
<g>
</g>
<g>
</g>
<g>
</g>
<g>
</g>
<g>
</g>
<g>
</g>
<g>
</g>
<g>
</g>
<g>
</g>
<g>
</g>
<g>
</g>
<g>
</g>
</svg>
