<svg height="512pt" viewBox="0 0 512 512" width="512pt" xmlns="http://www.w3.org/2000/svg"><path d="m512 256c0 141.386719-114.613281 256-256 256s-256-114.613281-256-256 114.613281-256 256-256 256 114.613281 256 256zm0 0" fill="#bd9b7b"/><path d="m511.410156 273.238281-115.585937-115.585937-306.425781 82.53125 13.515624 13v27.097656l17.453126 17v21.140625l-19.757813 53.378906 139.707031 139.707031c5.191406.3125 10.414063.492188 15.683594.492188 135.589844 0 246.539062-105.417969 255.410156-238.761719zm0 0" fill="#8a6744"/><path d="m120.367188 262.226562h271.148437v62.152344h-271.148437zm0 0" fill="#ff633e"/><path d="m255.941406 262.226562h135.574219v62.152344h-135.574219zm0 0" fill="#e70020"/><path d="m102.914062 228.941406h306.046876v51.339844h-306.046876zm0 0" fill="#83e46f"/><path d="m255.941406 228.941406h153.019532v51.339844h-153.019532zm0 0" fill="#00c800"/><path d="m422.601562 318.421875v27.121094c0 20.101562-16.363281 36.457031-36.457031 36.457031h-260.28125c-20.101562 0-36.457031-16.351562-36.457031-36.457031v-27.121094zm0 0" fill="#ffb74d"/><path d="m422.476562 222.578125v17.605469h-333.078124v-17.605469c0-51.050781 41.535156-92.578125 92.582031-92.578125h147.914062c51.046875 0 92.582031 41.527344 92.582031 92.578125zm0 0" fill="#ffb74d"/><path d="m422.476562 222.578125v17.605469h-166.535156v-110.183594h73.953125c51.046875 0 92.582031 41.527344 92.582031 92.578125zm0 0" fill="#ffaa20"/><path d="m422.601562 318.421875v27.121094c0 20.101562-16.363281 36.457031-36.457031 36.457031h-130.203125v-63.578125zm0 0" fill="#ffaa20"/><path d="m354.902344 280.277344-98.960938 69.796875-98.964844-69.796875zm0 0" fill="#ffdb2d"/><path d="m255.941406 280.277344h98.960938l-98.960938 69.796875zm0 0" fill="#fec000"/><g fill="#e67500"><path d="m142.652344 188.960938h19.277344v19.277343h-19.277344zm0 0"/><path d="m179.691406 163.574219h19.273438v19.273437h-19.273438zm0 0"/><path d="m222.007812 188.960938h19.273438v19.277343h-19.273438zm0 0"/><path d="m249.671875 161.945312h19.277344v19.277344h-19.277344zm0 0"/></g><path d="m284.089844 182.453125h19.273437v19.273437h-19.273437zm0 0" fill="#c06100"/><path d="m321.195312 163.574219h19.277344v19.273437h-19.277344zm0 0" fill="#c06100"/><path d="m354.070312 188.960938h19.277344v19.277343h-19.277344zm0 0" fill="#c06100"/><path d="m255.941406 161.945312h13.007813v19.277344h-13.007813zm0 0" fill="#c06100"/></svg>