<svg height="512pt" viewBox="0 -1 512.0005 512" width="512pt" xmlns="http://www.w3.org/2000/svg"><path d="m182.320312 7.601562h147.363282l-35.675782 418.148438c-10.5625-3.074219-22.910156-4.847656-36.101562-4.847656s-25.550781 1.761718-36.113281 4.847656" fill="#515a5e"/><path d="m217.988281 231.585938v270.507812c-64.742187-6.894531-86.671875-30.050781-86.671875-30.050781v-292.863281l-62.699218 226.609374c-39.226563 10.167969-61.011719-15.980468-61.011719-15.980468 7.269531-159.785156 66.820312-297.792969 66.820312-297.792969 34.859375-34.855469 89.464844-54.289063 89.464844-54.289063" fill="#f0c398"/><path d="m80.289062 363.628906-11.671874 42.160156c-39.226563 10.167969-61.011719-15.980468-61.011719-15.980468.6875-15.175782 1.855469-30.152344 3.382812-44.832032 18.351563 18.097657 50.980469 18.097657 68.792969 18.097657zm0 0" fill="#d89d6c"/><path d="m294.007812 231.585938v270.507812c64.757813-6.894531 86.6875-30.050781 86.6875-30.050781v-292.863281l62.695313 226.609374c39.21875 10.167969 61.003906-15.980468 61.003906-15.980468-7.257812-159.785156-66.8125-297.792969-66.8125-297.792969-34.867187-34.855469-89.472656-54.289063-89.472656-54.289063" fill="#f0c398"/><g fill="#d89d6c"><path d="m431.710938 363.628906 11.671874 42.160156c39.226563 10.167969 61.011719-15.980468 61.011719-15.980468-.6875-15.175782-1.855469-30.152344-3.386719-44.832032-18.347656 18.097657-50.976562 18.097657-68.789062 18.097657zm0 0"/><path d="m182.320312 7.601562-41.621093 77.324219 41.621093 15.855469-38.648437 38.648438 74.320313 92.15625c0-.003907 7.914062-181.402344-35.671876-223.984376zm0 0"/><path d="m329.683594 7.601562 41.621094 77.324219-41.621094 15.855469 38.648437 38.648438-74.320312 92.15625c0-.003907-7.914063-181.402344 35.671875-223.984376zm0 0"/><path d="m380.695312 368.617188-58.984374 31.710937v-32.65625l58.984374-31.710937"/><path d="m131.316406 368.617188 58.984375 31.710937v-32.65625l-58.984375-31.710937"/></g><path d="m492.332031 374.796875c-1.21875-6.519531-10.125-8.226563-13.777343-2.738281-1.890626 2.84375-1.625 6.726562.644531 9.273437 2.171875 2.4375 5.75 3.214844 8.738281 1.90625 3.203125-1.402343 5.117188-4.992187 4.394531-8.441406zm0 0"/><path d="m25.632812 368.824219c-3.25.679687-5.738281 3.394531-6.074218 6.710937-.347656 3.371094 1.6875 6.613282 4.828125 7.835938 6.316406 2.460937 12.523437-4.367188 9.5625-10.425782-1.488281-3.054687-4.976563-4.789062-8.316407-4.121093zm0 0"/><path d="m475.570312 178.875c-15.746093-54.308594-30.390624-88.445312-31.007812-89.871094-.378906-.882812-.925781-1.683594-1.605469-2.363281-35.582031-35.574219-89.738281-55.167969-92.277343-56.074219l-14.300782-26.566406c-1.132812-2.101562-3.1875-3.550781-5.546875-3.9140625-.382812-.0585937-.765625-.0742187-1.148437-.0742187v-.0117188h-147.363282v.0117188c-.382812 0-.765624.015625-1.152343.0742187-2.359375.3632815-4.414063 1.8125005-5.546875 3.9140625l-14.296875 26.566406c-.988281.351563-20.867188 7.503906-44.515625 20.902344-3.65625 2.070312-4.9375 6.710938-2.867188 10.363281 1.398438 2.46875 3.972656 3.855469 6.621094 3.855469 1.269531 0 2.558594-.316406 3.742188-.988281 9.503906-5.382813 18.445312-9.734375 25.628906-12.976563l-15.929688 29.601563c-1.039062 1.925781-1.195312 4.207031-.429687 6.257812.761719 2.050781 2.375 3.671875 4.417969 4.453125l30.644531 11.671875-30.34375 30.34375c-2.746094 2.75-2.980469 7.125-.539063 10.152344l72.628906 90.0625v259.246094c-44.203124-6.042969-65.203124-19.964844-71.464843-24.914063v-87.257812l47.78125 25.683594c1.125.605468 2.363281.90625 3.597656.90625 1.351563 0 2.703125-.359376 3.902344-1.074219 2.296875-1.375 3.703125-3.851563 3.703125-6.527344v-32.660156c0-2.796875-1.539063-5.371094-4.003906-6.695313l-54.980469-29.558594v-152.234374c0-3.804688-2.808594-7.023438-6.582031-7.535157-3.769532-.511719-7.335938 1.839844-8.351563 5.503907l-49.332031 178.308593c-16.195313-.125-40.6875-1.363281-55.664063-13.523437 12.554688-113.945313 47.804688-210.09375 58.980469-238.433594 18.988281 14.75 31.957031 41.246094 32.097656 41.539062 1.308594 2.71875 4.027344 4.308594 6.855469 4.308594 1.109375 0 2.230469-.242187 3.296875-.757812 3.78125-1.820313 5.375-6.363282 3.550781-10.148438-.664062-1.375-14.863281-30.472656-37.132812-47.445312 3.964843-3.496094 8.265625-6.960938 12.882812-10.351563 3.386719-2.484375 4.113281-7.242187 1.628907-10.628906-2.488282-3.382813-7.246094-4.113281-10.632813-1.628906-8.039063 5.90625-15.261719 12.046875-21.464844 18.253906-.679687.679687-1.226562 1.480469-1.605469 2.363281-.613281 1.425782-15.257812 35.5625-31.007812 89.871094-14.527344 50.097656-32.640625 127.300781-36.4296875 210.589844-.0859375 1.894531.5390625 3.753906 1.7539065 5.210937.847656 1.019531 17.996093 21.097657 48.941406 21.09375 6.078125 0 12.699219-.773437 19.820313-2.621093 2.632812-.683594 4.699218-2.714844 5.421874-5.332032l47.765626-172.640625v236.867188c0 1.945312.746093 3.816406 2.082031 5.226562.976562 1.03125 24.625 25.277344 91.390625 32.386719.269531.027344.539062.042969.804687.042969 1.871094 0 3.683594-.691407 5.085938-1.949219 1.605469-1.445312 2.519531-3.5 2.519531-5.65625v-69.492188c9.78125-2.671874 20.898438-4.09375 32.3125-4.09375 9.925781 0 19.652344 1.089844 28.5 3.136719v70.449219c0 2.15625.914062 4.210938 2.519531 5.65625 1.402344 1.257812 3.214844 1.949219 5.082031 1.949219.269532 0 .539063-.015625.804688-.042969 66.777344-7.109375 90.429688-31.355469 91.402344-32.382812 1.335937-1.414063 2.082031-3.285157 2.082031-5.230469v-161.863281c0-4.199219-3.402344-7.601563-7.601563-7.601563-4.203124 0-7.605468 3.402344-7.605468 7.601563v21.238281l-54.980469 29.554687c-2.464844 1.328125-4.003906 3.898438-4.003906 6.699219v32.65625c0 2.675781 1.40625 5.15625 3.703125 6.527344 1.199218.71875 2.550781 1.078125 3.902344 1.078125 1.234374 0 2.472656-.300782 3.597656-.90625l47.78125-25.683594v87.269531c-2.476563 1.96875-7.253906 5.347657-14.800782 9.042969-10.777343 5.28125-29.070312 12.082031-56.675781 15.859375v-259.246094l72.636719-90.066406c2.441406-3.027344 2.207031-7.402344-.539062-10.152344l-30.347657-30.34375 30.648438-11.671875c2.042969-.78125 3.65625-2.402344 4.417969-4.453125.761718-2.050781.605468-4.332031-.429688-6.257812l-15.925781-29.585938c16.546875 7.472657 42.464843 20.871094 63.300781 39.253907-22.269531 16.976562-36.472656 46.074218-37.136719 47.449218-1.820312 3.785156-.230469 8.328125 3.554688 10.148438 1.0625.515625 2.183593.757812 3.292969.757812 2.828124 0 5.546874-1.589844 6.855468-4.308594.144532-.296874 13.058594-26.773437 32.101563-41.546874 11.175781 28.324218 46.425781 124.421874 58.972656 238.441406-14.972656 12.160156-39.460937 13.402344-55.660156 13.527344l-49.332031-178.308594c-1.011719-3.667969-4.582032-6.019532-8.351563-5.507813s-6.582031 3.730469-6.582031 7.535157v100.644531c0 4.199219 3.40625 7.605469 7.605468 7.605469 4.199219 0 7.605469-3.40625 7.605469-7.605469v-44.648438l47.761719 172.640625c.726562 2.617188 2.792969 4.648438 5.421875 5.332032 7.125 1.847656 13.738281 2.621093 19.816406 2.621093 30.9375 0 48.089844-20.074219 48.9375-21.09375 1.214844-1.457031 1.839844-3.316406 1.753907-5.210937-3.785157-83.289063-21.894532-160.492188-36.421876-210.589844zm-460.214843 208.027344c.46875-9.347656 1.121093-18.625 1.925781-27.804688 16.714844 9.496094 37.621094 11.210938 53.179688 11.515625l-7.960938 28.765625c-25.648438 4.972656-41.828125-7.457031-47.144531-12.476562zm167.339843-14.6875v15.390625l-43.777343-23.53125v-15.394531zm146.617188 15.394531v-15.394531l43.777344-23.53125v15.390625zm-141.617188-281.449219c1.824219-1.824218 2.601563-4.449218 2.058594-6.96875-.539062-2.523437-2.320312-4.597656-4.726562-5.515625l-33.523438-12.769531 32.070313-59.589844c23.976562 37.703125 28.066406 134.832032 27.371093 189.414063l-57.0625-70.757813zm70.210938 307.140625c-11.230469 0-22.269531 1.253907-32.3125 3.613281v-185.09375c.09375-2.289062 1.878906-47.320312-1.507812-96.777343-3.867188-56.488281-12.757813-96.652344-26.484376-119.835938h116.800782c-13.722656 23.183594-22.617188 63.347657-26.484375 119.835938-3.347657 48.863281-1.644531 93.40625-1.511719 96.679687v184.355469c-9.019531-1.820313-18.699219-2.777344-28.5-2.777344zm69.070312-319.625c-2.410156.917969-4.1875 2.992188-4.726562 5.515625-.539062 2.519532.234375 5.144532 2.054688 6.96875l33.816406 33.8125-57.0625 70.757813c-.699219-54.578125 3.378906-151.707031 27.371094-189.414063l32.074218 59.589844zm122.53125 305.703125-7.957031-28.765625c15.554688-.304687 36.457031-2.015625 53.167969-11.511719.808594 9.175782 1.457031 18.445313 1.925781 27.789063-5.3125 4.980469-21.574219 17.429687-47.136719 12.488281zm0 0"/><path d="m268.945312 25.648438h-22.085937c-4.203125 0-7.605469 3.402343-7.605469 7.601562 0 4.203125 3.402344 7.605469 7.605469 7.605469h22.085937c4.199219 0 7.605469-3.402344 7.605469-7.605469 0-4.199219-3.40625-7.601562-7.605469-7.601562zm0 0"/></svg>