<?xml version="1.0" encoding="iso-8859-1"?>
<!-- Generator: Adobe Illustrator 21.0.0, SVG Export Plug-In . SVG Version: 6.00 Build 0)  -->
<svg xmlns="http://www.w3.org/2000/svg" xmlns:xlink="http://www.w3.org/1999/xlink" version="1.1" id="Capa_1" x="0px" y="0px" viewBox="0 0 512 512" style="enable-background:new 0 0 512 512;" xml:space="preserve" width="512" height="512">
<g>
	<g>
		<g>
			<g>
				<g>
					<g>
						<g>
							<g>
								<g>
									<g>
										<circle style="fill:#3F6199;" cx="256" cy="256" r="256"/>
									</g>
								</g>
							</g>
						</g>
					</g>
				</g>
			</g>
		</g>
	</g>
	<path style="fill:#2B4160;" d="M512,256c0-2.287-0.033-4.567-0.093-6.84L375.5,112.752l-12.774,23.974L271,45l-86,30l54.85,54.85   l-103.35,27.14l100.556,100.556L172,435l76.898,76.898c2.36,0.064,4.727,0.102,7.102,0.102C397.385,512,512,397.385,512,256z"/>
	<g>
		<polygon style="fill:#FF9B87;" points="271,149 241,149 241,75 185,75 185,45 271,45   "/>
	</g>
	<g>
		<rect x="255.905" y="45" style="fill:#FF8870;" width="15.095" height="104"/>
	</g>
	<g>
		<polygon style="fill:#FF583E;" points="340,435 172,435 152,128.813 360,128.813   "/>
	</g>
	<g>
		<polygon style="fill:#E82E21;" points="360,128.813 255.905,128.813 255.905,435 340,435   "/>
	</g>
	<g>
		<rect x="136.5" y="112.752" style="fill:#FFFFFF;" width="239" height="44.237"/>
	</g>
	<g>
		<rect x="255.905" y="112.752" style="fill:#E9EDF5;" width="119.595" height="44.237"/>
	</g>
	<g>
		<ellipse style="fill:#FF9B87;" cx="256" cy="284.5" rx="54" ry="61.5"/>
	</g>
	<g>
		<path style="fill:#FF8870;" d="M256,223c-0.032,0-0.063,0.003-0.095,0.003v122.995c0.032,0,0.063,0.003,0.095,0.003    c29.823,0,54-27.534,54-61.5S285.823,223,256,223z"/>
	</g>
</g>















</svg>
