<svg height="468pt" viewBox="-60 0 468 468.68288" width="468pt" xmlns="http://www.w3.org/2000/svg"><path d="m86.183594 393.710938h254.207031v67.972656h-254.207031zm0 0" fill="#d36c4f"/><path d="m295.332031 393.710938h45.058594v67.972656h-45.058594zm0 0" fill="#c1573e"/><path d="m299.945312 110.433594c-15.953124.003906-28.886718 12.941406-28.882812 28.898437v-60.503906c0-15.957031-12.933594-28.890625-28.886719-28.890625-15.957031 0-28.890625 12.933594-28.890625 28.890625v-42.5625c0-15.953125-12.933594-28.886719-28.886718-28.886719-15.953126 0-28.886719 12.933594-28.886719 28.886719v49.691406c0-15.953125-12.933594-28.886719-28.890625-28.886719-15.953125 0-28.886719 12.933594-28.886719 28.886719v147.601563l-30.535156-30.535156c-13.695313-13.695313-37.722657-11.871094-49.601563 0-13.699218 13.695312-13.699218 35.902343 0 49.597656l65.238282 65.238281c9.542968 9.542969 14.902343 22.484375 14.902343 35.980469v39.871094h231.097657v-254.378907c.003906-15.957031-12.933594-28.898437-28.890626-28.898437zm0 0" fill="#f9ad6a"/><g fill="#ea8c46"><path d="m67.203125 203.039062c-13.695313-13.695312-37.722656-11.871093-49.601563 0-1.878906 1.902344-3.539062 4.011719-4.9375 6.292969 12.757813-7.652343 32.101563-7.355469 43.859376 4.398438l30.535156 30.535156 10.695312-10.695313zm0 0"/><path d="m251.835938 78.828125v157.597656c.003906-12.21875 7.703124-23.113281 19.222656-27.199219v-130.398437c0-15.957031-12.933594-28.890625-28.886719-28.890625-3.273437.007812-6.519531.574219-9.601563 1.671875 11.539063 4.074219 19.257813 14.980469 19.265626 27.21875zm0 0"/><path d="m136.285156 85.957031v150.472657c.007813-12.21875 7.707032-23.113282 19.226563-27.199219v-123.273438c0-15.953125-12.933594-28.886719-28.890625-28.886719-3.269532.007813-6.515625.574219-9.597656 1.671876 11.539062 4.074218 19.257812 14.980468 19.261718 27.214843zm0 0"/><path d="m194.0625 36.265625v193.035156c.003906-12.222656 7.703125-23.117187 19.222656-27.203125v-165.832031c.015625-9.378906-4.53125-18.175781-12.191406-23.589844-7.660156-5.410156-17.472656-6.757812-26.308594-3.609375 11.539063 4.066406 19.265625 14.964844 19.277344 27.199219zm0 0"/><path d="m299.945312 110.433594c-3.269531.007812-6.515624.574218-9.597656 1.671875 11.539063 4.066406 19.261719 14.964843 19.273438 27.203125v254.398437h19.226562v-254.375c.003906-15.964843-12.9375-28.902343-28.902344-28.898437zm0 0"/></g><path d="m151.753906 270.605469h123.058594v67.582031h-123.058594zm0 0" fill="#274d59"/><path d="m251.808594 270.605469h23.003906v67.582031h-23.003906zm0 0" fill="#1b3c44"/><path d="m155.511719 85.957031c0-15.953125-12.933594-28.886719-28.890625-28.886719-15.953125 0-28.886719 12.933594-28.886719 28.886719v24.476563h57.777344zm0 0" fill="#d36c4f"/><path d="m154.921875 80.132812c-.757813-3.695312-2.234375-7.207031-4.347656-10.328124-.519531-.769532-1.074219-1.511719-1.664063-2.226563-2.363281-2.863281-5.257812-5.25-8.519531-7.023437-.820313-.445313-1.660156-.84375-2.523437-1.199219-3.558594-1.503907-7.382813-2.277344-11.246094-2.273438-.902344 0-1.792969.054688-2.679688.136719-.492187.046875-.976562.125-1.460937.195312-.34375.046876-.6875.097657-1.027344.15625-.644531.121094-1.28125.261719-1.910156.425782l-.402344.097656c-.71875.195312-1.429687.402344-2.128906.660156 11.539062 4.066406 19.261719 14.964844 19.273437 27.199219v24.476563h19.226563v-24.472657c0-1.957031-.199219-3.910156-.589844-5.824219zm0 0" fill="#c1573e"/><path d="m67.203125 203.039062c-13.695313-13.695312-37.722656-11.871093-49.601563 0-13.699218 13.695313-13.699218 35.902344 0 49.601563l11.265626 11.261719 49.597656-49.597656zm0 0" fill="#d36c4f"/><path d="m67.203125 203.039062c-13.695313-13.695312-37.722656-11.871093-49.601563 0-1.878906 1.902344-3.539062 4.011719-4.9375 6.292969 12.757813-7.652343 32.101563-7.355469 43.859376 4.398438l11.261718 11.265625 10.695313-10.695313zm0 0" fill="#c1573e"/><path d="m97.738281 233.574219-11.554687-11.554688v41.875l11.554687 14.867188zm0 0" fill="#ea8c46"/><path d="m321.835938 301.21875h14v16.304688h-14zm-309.171876-43.636719c-16.429687-16.425781-16.429687-43.0625 0-59.492187 14.039063-14.039063 42.464844-17.023438 59.492188 0l18.582031 18.585937v-52.84375h14v106.773438h-14v-34.128907l-12.273437-12.273437-39.695313 39.695313 49.011719 49.011718c10.890625 10.832032 16.996094 25.570313 16.953125 40.929688v32.871094h217.097656v-48.523438h14v50.027344h4.554688c3.867187 0 7 3.132812 7 7v66.46875c0 3.867187-3.132813 7-7 7h-254.203125c-3.867188 0-7-3.132813-7-7v-66.46875c0-3.867188 3.132812-7 7-7h4.554687v-34.375c.03125-11.644532-4.597656-22.816406-12.851562-31.027344zm320.730469 144.632813h-240.210937v52.46875h240.207031zm-319.054687-174.378906c-.023438 7.445312 2.9375 14.59375 8.21875 19.847656l6.3125 6.3125 39.695312-39.695313-6.304687-6.3125c-10.996094-10.992187-30.707031-8.988281-39.695313 0-5.285156 5.25-8.246094 12.398438-8.226562 19.847657zm90.398437-85.855469h-14v-56.023438c-.007812-13.671875 7.765625-26.164062 20.035157-32.199219 12.269531-6.035156 26.90625-4.570312 37.738281 3.78125v-21.273437c-.136719-12.910156 6.671875-24.898437 17.832031-31.394531s24.945312-6.496094 36.105469 0c11.160156 6.496094 17.96875 18.484375 17.832031 31.394531v14.140625c10.832031-8.351562 25.464844-9.816406 37.738281-3.78125 12.269531 6.035156 20.042969 18.527344 20.035157 32.203125v32.070313c10.832031-8.355469 25.472656-9.820313 37.746093-3.78125 12.273438 6.039062 20.042969 18.535156 20.035157 32.214843v143.714844h-14v-143.714844c0-12.089843-9.800782-21.890625-21.890626-21.890625-12.085937 0-21.886718 9.800782-21.886718 21.890625v69.902344h-14v-130.398437c-.164063-11.972657-9.914063-21.59375-21.886719-21.59375s-21.722656 9.621093-21.886719 21.59375v123.265624h-14v-165.835937c.109375-7.886719-4.039062-15.226563-10.855468-19.199219-6.816407-3.976562-15.242188-3.976562-22.058594 0-6.816406 3.972656-10.964844 11.3125-10.855469 19.199219v172.96875h-14v-91.800781h-43.777344zm0-56.023438v17.476563h43.773438v-17.476563c-.164063-11.96875-9.914063-21.589843-21.886719-21.589843s-21.726562 9.621093-21.886719 21.589843zm108.542969 191.648438v-14h-61.527344c-3.867187 0-7 3.136719-7 7v67.601562c0 3.867188 3.132813 7 7 7h123.058594c3.867188 0 7-3.132812 7-7v-67.601562c0-3.863281-3.132812-7-7-7h-48.636719v14h41.636719v53.601562h-109.058594v-53.601562zm0 0" fill="#0c282d"/></svg>