<?xml version="1.0" encoding="iso-8859-1"?>
<!-- Generator: Adobe Illustrator 19.0.0, SVG Export Plug-In . SVG Version: 6.00 Build 0)  -->
<svg version="1.1" id="Capa_1" xmlns="http://www.w3.org/2000/svg" xmlns:xlink="http://www.w3.org/1999/xlink" x="0px" y="0px"
	 viewBox="0 0 512 512" style="enable-background:new 0 0 512 512;" xml:space="preserve">
<circle style="fill:#590F38;" cx="256" cy="256" r="256"/>
<path style="fill:#3F0729;" d="M509.408,292.431L409.316,192.339l-10.408,11.53l-72.718-72.718L95.407,355.696l156.249,156.249
	c1.447,0.024,2.892,0.055,4.344,0.055C385.015,512,491.72,416.558,509.408,292.431z"/>
<path style="fill:#97CC52;" d="M96.094,355.696c-5.651-17.404-29.594-32.672-29.594-51.96c0-19.287,23.943-34.555,29.594-51.959
	c5.857-18.038-4.336-44.424,6.59-59.438c11.036-15.164,39.354-13.57,54.518-24.606c15.014-10.927,22.188-38.412,40.225-44.269
	c17.404-5.651,39.285,12.184,58.572,12.184s41.168-17.835,58.572-12.184c18.038,5.857,25.212,33.342,40.226,44.269
	c15.164,11.036,43.483,9.442,54.518,24.606c10.927,15.014,0.733,41.4,6.59,59.437c5.651,17.404,29.594,32.672,29.594,51.96
	c0,19.287-23.943,34.555-29.594,51.959L96.094,355.696z"/>
<path style="fill:#60C344;" d="M445.5,303.736c0-19.288-23.943-34.556-29.594-51.959c-5.857-18.037,4.337-44.424-6.59-59.438
	c-11.036-15.164-39.354-13.57-54.518-24.606c-15.014-10.927-22.188-38.412-40.226-44.269c-17.404-5.651-39.284,12.184-58.572,12.184
	c-0.111,0-0.222-0.008-0.333-0.009v220.056h160.239C421.557,338.292,445.5,323.024,445.5,303.736z"/>
<circle style="fill:#FF6838;" cx="158.4" cy="234.74" r="46.42"/>
<circle style="fill:#AE4E32;" cx="353.61" cy="234.74" r="46.42"/>
<circle style="fill:#FF6838;" cx="256" cy="196.56" r="46.42"/>
<path style="fill:#AE4E32;" d="M256,150.136c-0.112,0-0.222,0.008-0.333,0.008v92.828c0.112,0.001,0.221,0.009,0.333,0.009
	c25.638,0,46.422-20.784,46.422-46.422S281.638,150.136,256,150.136z"/>
<path style="fill:#FFECB3;" d="M416.593,355.696H95.407v-20.342c0-88.693,71.9-160.593,160.593-160.593l0,0
	c88.693,0,160.593,71.9,160.593,160.593L416.593,355.696L416.593,355.696z"/>
<path style="fill:#FFD863;" d="M416.593,335.354c0-88.693-71.9-160.593-160.593-160.593l0,0c-0.111,0-0.222,0.004-0.333,0.004
	v180.931h160.927v-20.342H416.593z"/>
<g>
</g>
<g>
</g>
<g>
</g>
<g>
</g>
<g>
</g>
<g>
</g>
<g>
</g>
<g>
</g>
<g>
</g>
<g>
</g>
<g>
</g>
<g>
</g>
<g>
</g>
<g>
</g>
<g>
</g>
</svg>
