<svg enable-background="new 0 0 140 140" height="512" viewBox="0 0 140 140" width="512" xmlns="http://www.w3.org/2000/svg"><circle cx="70" cy="70" fill="#de594e" r="64"/><path d="m90.0331955 44.9745445-.0799561-.0700073c-.3800049-.3300171-.8400269-.5700073-1.3500366-.6900024l-5.7199707-5.7800293c-.0800171-.0799561-.1900024-.1299438-.3099976-.1299438h-3.5100098l-17.489994-17.4900513c-.4100342-.4799805-1.0100098-.789978-1.6900024-.789978-1.210022 0-2.2000122.9500122-2.2399902 2.1500244l-.9100342 21.9499512h-4.6300049c-1.7399902 0-3.1499634 1.4100342-3.1499634 3.1500244v64.6500244c0 .7699585.289978 1.4699707.75 2.0199585l-.0100098.0100098.0999756.0900269c.0599976.0700073.1199951.1300049.1900024.1900024l19.758976 19.7589188c.0863648.0003622.1713258.0065268.2578126.0065268 29.5595093 0 54.4250488-20.0452347 61.7789841-47.2797318l-41.5857468-41.5857505c-.0499878-.0599976-.1000366-.1099854-.1600342-.1599732z" opacity=".1"/><path d="m75.750305 41.450775h6.120526v3.256044h-6.120526z" fill="#293b44"/><path d="m62.1212273 22.1747017c-.049366-1.2021275-1.0383606-2.1512661-2.2415009-2.1512661-1.2031364 0-2.1920319.9491386-2.241394 2.1512661l-.9909172 24.1248016h6.4648285z" fill="#293b44"/><path d="m87.8934402 44.1295242h-35.7868804c-1.7390594 0-3.1489601 1.4099007-3.1489601 3.1489601v64.6488037c0 1.7391586 1.4099007 3.1488647 3.1489601 3.1488647h35.7868805c1.7390594 0 3.1489639-1.4097061 3.1489639-3.1488647v-64.6488037c0-1.7390594-1.4099045-3.1489601-3.148964-3.1489601z" fill="#344d5b"/><path d="m54.808746 49.727161h30.382507v24.031233h-30.382507z" fill="#4da0dc"/><path d="m82.5756454 38.3087502h-7.5300522c-.2401428 0-.4348602.194725-.4348602.4347649v2.8071594c0 .240139.1947174.4347649.4348602.4347649h7.5300522c.2401428 0 .434761-.1946259.434761-.4347649v-2.8071595c.0000001-.2400398-.1946181-.4347648-.434761-.4347648z" fill="#344d5b"/><g fill="#304551"><path d="m74.1184311 94.0029678h-8.2368622c1.2264023-.6463775 2.6268005-1.0109405 4.1184311-1.0109405s2.8920288.364563 4.1184311 1.0109405z"/><path d="m76.3640747 95.6768875h-12.7281532c.3562698-.3728561.7457161-.712738 1.1683464-1.002655h10.3914642c.4226303.289917.8120728.6297989 1.1683426 1.002655z"/><path d="m77.6568375 97.3590927h-15.3136788c.2071686-.356369.4392166-.6961441.6960487-1.0109406h13.9214859c.2569275.3147965.4889832.6545716.6961442 1.0109406z"/><path d="m78.4357376 99.0413055h-16.8714714c.115921-.348175.2568321-.6795578.4143295-1.0110474h16.0428047c.1575013.3314896.2984086.6628724.4143372 1.0110474z"/><path d="m78.8168869 100.7151184h-17.6338768c.0413742-.3397751.0994377-.6711578.1905785-1.0026474h17.2527237c.0912399.3314896.1492004.6628723.1905746 1.0026474z"/><path d="m78.8998337 101.891861c0 .1739883-.0082932.3396759-.0165863.5054703h-17.766491c-.008297-.1657944-.0165901-.3314819-.0165901-.5054703s.0082932-.3397827.0165901-.5055771h17.7664909c.0082932.1657943.0165864.3315887.0165864.5055771z"/><path d="m78.8168869 103.0684967c-.0413742.3397827-.0993347.6712646-.1905746 1.0027542h-17.2527237c-.0911407-.3314896-.1492043-.6629715-.1905785-1.0027542z"/><path d="m78.4274368 104.7507095c-.115921.3397751-.2485352.6795578-.4060364 1.0026474h-16.0428047c-.1574974-.3230896-.2901115-.6628723-.4061356-1.0026474z"/><path d="m77.6568375 106.4246216c-.2071609.3562698-.4392166.6961517-.6961441 1.0109482h-13.9214859c-.2568321-.3147964-.4888802-.6546783-.6960487-1.0109482z"/><path d="m76.3640747 108.1068344c-.3562698.3728561-.7457123.7126389-1.1683426 1.0026474h-10.3914642c-.4226303-.2900085-.8120766-.6297913-1.1683464-1.0026474z"/><path d="m74.1018448 109.7890472c-1.2264099.6463776-2.6185074 1.0026474-4.1018448 1.0026474s-2.8754349-.3562698-4.1018448-1.0026474z"/></g><path d="m62.8210068 77.7103653h-7.1411972c-.4811363 0-.8710251.3900299-.8710251.8710251v2.9554672c0 .4811401.3898888.8710251.8710251.8710251h7.1411972c.4809952 0 .8710251-.3898849.8710251-.8710251v-2.9554672c0-.4809952-.3900299-.8710251-.8710251-.8710251z" fill="#4abba4"/><path d="m73.2283936 77.7103653h-7.1411972c-.4811401 0-.8710251.3900299-.8710251.8710251v2.9554672c0 .4811401.3898849.8710251.8710251.8710251h7.1411972c.4809875 0 .8710251-.3898849.8710251-.8710251v-2.9554672c-.0000001-.4809952-.3900376-.8710251-.8710251-.8710251z" fill="#dd584d"/><path d="m83.6357727 77.7103653h-7.1411972c-.4811325 0-.8710251.3900299-.8710251.8710251v2.9554672c0 .4811401.3898926.8710251.8710251.8710251h7.1411972c.4809952 0 .8710251-.3898849.8710251-.8710251v-2.9554672c0-.4809952-.3900299-.8710251-.8710251-.8710251z" fill="#feda6f"/><g fill="#dbd8dd"><path d="m62.8210068 84.6152267h-7.1411972c-.4811363 0-.8710251.3900375-.8710251.8710251v2.9554749c0 .4811325.3898888.8710251.8710251.8710251h7.1411972c.4809952 0 .8710251-.3898926.8710251-.8710251v-2.9554749c0-.4809875-.3900299-.8710251-.8710251-.8710251z"/><path d="m73.2283936 84.6152267h-7.1411972c-.4811401 0-.8710251.3900375-.8710251.8710251v2.9554749c0 .4811325.3898849.8710251.8710251.8710251h7.1411972c.4809875 0 .8710251-.3898926.8710251-.8710251v-2.9554749c-.0000001-.4809875-.3900376-.8710251-.8710251-.8710251z"/><path d="m83.6357727 84.6152267h-7.1411972c-.4811325 0-.8710251.3900375-.8710251.8710251v2.9554749c0 .4811325.3898926.8710251.8710251.8710251h7.1411972c.4809952 0 .8710251-.3898926.8710251-.8710251v-2.9554749c0-.4809875-.3900299-.8710251-.8710251-.8710251z"/></g></svg>