<?xml version="1.0" encoding="iso-8859-1"?>
<!-- Generator: Adobe Illustrator 19.0.0, SVG Export Plug-In . SVG Version: 6.00 Build 0)  -->
<svg version="1.1" id="Layer_1" xmlns="http://www.w3.org/2000/svg" xmlns:xlink="http://www.w3.org/1999/xlink" x="0px" y="0px"
	 viewBox="0 0 512 512" style="enable-background:new 0 0 512 512;" xml:space="preserve">
<path style="fill:#FF6308;" d="M511.386,238.386C502.334,105.219,391.463,0,256,0C114.615,0,0,114.615,0,256
	c0,115.848,76.959,213.705,182.535,245.282L511.386,238.386z"/>
<path style="fill:#9D3D1A;" d="M512,256c0-5.922-0.219-11.792-0.615-17.614L306,33L131.856,450.604l50.679,50.678
	C205.807,508.243,230.463,512,256,512C397.385,512,512,397.385,512,256z"/>
<polygon style="fill:#001A31;" points="306,33 306,113 236,133 256,33 "/>
<g>
	<polygon style="fill:#6B2A22;" points="256,33 256,133 206,113 206,33 	"/>
	<polygon style="fill:#6B2A22;" points="306,113 306,133 236,153 256,113 	"/>
</g>
<polygon style="fill:#9D3D1A;" points="256,113 256,153 206,133 206,113 "/>
<path style="fill:#FFA851;" d="M376,419.16c5.97,3.46,10,9.9,10,17.3c0,11.05-8.95,20-20,20H256l-60-161.73L286,133h20v45.53
	c41.31,17.98,70,56.07,70,91.01V419.16z"/>
<g>
	<path style="fill:#FFC65C;" d="M226,133l30,133.46v190H146c-11.05,0-20-8.95-20-20c0-7.4,4.03-13.84,10-17.3V288
		c0-48.43,28.69-90.15,70-109.11V133H226z"/>
	<path style="fill:#FFC65C;" d="M356,287.95l0.001,20l-20.001,45l20,45v38.51H256l-40-151.73L256,133h30v59.55
		C326.53,205.33,356,243.26,356,287.95z"/>
</g>
<path style="fill:#FFDD7D;" d="M256,133v303.46H156v-38.51l20-45l-20-45v-20c0-44.69,29.47-82.63,70-95.4V133H256z"/>
<polygon style="fill:#6B2A22;" points="256,307.95 212.617,352.95 256,397.95 356.001,397.95 356.001,307.95 "/>
<rect x="156" y="307.95" style="fill:#9D3D1A;" width="100" height="90"/>
<polygon style="fill:#FFDD7D;" points="256,327.95 221.293,337.95 256,347.95 336.001,347.95 336.001,327.95 "/>
<rect x="176" y="327.95" style="fill:#FFFFFF;" width="80" height="20"/>
<path style="fill:#FFA851;" d="M256,207.95l-21.818,40l21.818,40c22.091,0,40-17.909,40-40S278.092,207.95,256,207.95z"/>
<path style="fill:#FFC65C;" d="M216,247.95c0,22.091,17.909,40,40,40v-80C233.909,207.95,216,225.859,216,247.95z"/>
<g>
</g>
<g>
</g>
<g>
</g>
<g>
</g>
<g>
</g>
<g>
</g>
<g>
</g>
<g>
</g>
<g>
</g>
<g>
</g>
<g>
</g>
<g>
</g>
<g>
</g>
<g>
</g>
<g>
</g>
</svg>
