<svg height="512pt" viewBox="0 -13 512 511" width="512pt" xmlns="http://www.w3.org/2000/svg"><path d="m512 53.882812v378.144532c0 29.476562-23.886719 53.378906-53.367188 53.378906h-405.265624c-29.480469.003906-53.367188-23.898438-53.367188-53.378906v-378.144532c0-29.480468 23.886719-53.382812 53.367188-53.382812h405.265624c29.480469 0 53.367188 23.902344 53.367188 53.382812zm0 0" fill="#bce8f1"/><path d="m512 53.882812v51.132813h-512v-51.132813c0-29.480468 23.886719-53.382812 53.367188-53.382812h405.265624c29.480469 0 53.367188 23.902344 53.367188 53.382812zm0 0" fill="#4c5072"/><path d="m75.125 52.761719c0 10.386719-8.421875 18.8125-18.808594 18.8125-10.390625 0-18.8125-8.425781-18.8125-18.8125 0-10.390625 8.421875-18.8125 18.8125-18.8125 10.386719 0 18.808594 8.421875 18.808594 18.8125zm0 0" fill="#e1ebf0"/><path d="m146.742188 52.761719c0 10.386719-8.421876 18.8125-18.8125 18.8125-10.386719 0-18.808594-8.425781-18.808594-18.8125 0-10.390625 8.421875-18.8125 18.808594-18.8125 10.390624 0 18.8125 8.421875 18.8125 18.8125zm0 0" fill="#95dae8"/><path d="m218.359375 52.761719c0 10.386719-8.421875 18.8125-18.8125 18.8125-10.386719 0-18.8125-8.425781-18.8125-18.8125 0-10.390625 8.425781-18.8125 18.8125-18.8125 10.390625 0 18.8125 8.421875 18.8125 18.8125zm0 0" fill="#ff435e"/><path d="m364.539062 292.15625c0-7.429688-.761718-14.695312-2.179687-21.71875l37.929687-30.007812-27.328124-47.359376-45.015626 17.867188c-10.8125-9.589844-23.558593-17.035156-37.570312-21.71875l-7.039062-47.890625h-54.671876l-7.023437 47.890625c-14.027344 4.683594-26.773437 12.128906-37.585937 21.71875l-44.996094-17.867188-27.34375 47.359376 37.941406 30.007812c-1.429688 7.023438-2.179688 14.289062-2.179688 21.71875 0 7.445312.75 14.714844 2.179688 21.734375l-37.941406 30.011719 27.34375 47.355468 44.996094-17.867187c10.8125 9.59375 23.558593 17.039063 37.585937 21.71875l7.023437 47.878906h54.671876l7.039062-47.878906c14.011719-4.679687 26.757812-12.125 37.570312-21.71875l45.015626 17.867187 27.328124-47.355468-37.929687-30.011719c1.417969-7.019531 2.179687-14.289063 2.179687-21.734375zm-108.53125 52.476562c-28.984374 0-52.476562-23.488281-52.476562-52.476562 0-28.96875 23.492188-52.460938 52.476562-52.460938 28.972657 0 52.460938 23.492188 52.460938 52.460938 0 28.988281-23.488281 52.476562-52.460938 52.476562zm0 0" fill="#353a59"/><path d="m240.402344 429.402344-6.53125-44.53125-7.925782-2.648438c-12.191406-4.066406-23.25-10.457031-32.871093-18.992187l-6.257813-5.550781-41.863281 16.621093-15.605469-27.027343 35.289063-27.910157-1.667969-8.183593c-1.261719-6.203126-1.902344-12.605469-1.902344-19.023438 0-6.410156.636719-12.804688 1.902344-19.007812l1.667969-8.183594-35.289063-27.910156 15.605469-27.027344 41.863281 16.621094 6.257813-5.550782c9.617187-8.535156 20.679687-14.925781 32.871093-18.992187l7.925782-2.648438 6.53125-44.546875h31.199218l6.546876 44.546875 7.921874 2.644531c12.1875 4.074219 23.242188 10.464844 32.859376 18.996094l6.253906 5.550782 41.878906-16.621094 15.59375 27.027344-35.257812 27.898437 1.644531 8.164063c1.269531 6.300781 1.914062 12.703124 1.914062 19.039062 0 6.34375-.644531 12.757812-1.914062 19.054688l-1.644531 8.164062 35.257812 27.898438-15.59375 27.027343-41.878906-16.621093-6.253906 5.550781c-9.617188 8.53125-20.675782 14.925781-32.859376 18.996093l-7.917968 2.644532-6.546875 44.53125zm15.605468-203.289063c-36.425781 0-66.058593 29.628907-66.058593 66.042969 0 36.425781 29.632812 66.0625 66.058593 66.0625 36.417969 0 66.046876-29.636719 66.046876-66.0625 0-36.417969-29.628907-66.042969-66.046876-66.042969zm0 0" fill="#4c5072"/></svg>