<?xml version="1.0" encoding="iso-8859-1"?>
<!-- Generator: Adobe Illustrator 18.0.0, SVG Export Plug-In . SVG Version: 6.00 Build 0)  -->
<!DOCTYPE svg PUBLIC "-//W3C//DTD SVG 1.1//EN" "http://www.w3.org/Graphics/SVG/1.1/DTD/svg11.dtd">
<svg version="1.1" id="Capa_1" xmlns="http://www.w3.org/2000/svg" xmlns:xlink="http://www.w3.org/1999/xlink" x="0px" y="0px"
	 viewBox="0 0 120.229 120.229" style="enable-background:new 0 0 120.229 120.229;" xml:space="preserve">
<g>
	<path style="fill:#FBAC31;" d="M62.388,120.229h-4.361c-0.567,0-1.031-0.465-1.031-1.031v-88.7c0-0.566,0.464-1.031,1.031-1.031
		h4.361c0.566,0,1.031,0.465,1.031,1.031v88.7C63.419,119.764,62.954,120.229,62.388,120.229z"/>
	<g>
		<path style="fill:#FEBF4D;" d="M60.59,40.046C86.515,38.627,60.289,0,60.289,0S35.268,41.433,60.59,40.046z"/>
		<path style="fill:#FBAC31;" d="M60.59,40.046c6.133-0.335,9.322-2.767,10.656-6.263c-4.314,5.195-13.19,5.119-16.274-3.126
			C51.251,20.71,60.289,0,60.289,0S35.268,41.433,60.59,40.046z"/>
		<path style="fill:#FFD566;" d="M61.55,6.294c0,0,11.557,16.508,6.899,27.256C68.449,33.551,65.876,17.815,61.55,6.294z"/>
	</g>
	<g>
		<path style="fill:#FEBF4D;" d="M62.882,54.493C77.338,32.927,30.706,30.65,30.706,30.65S48.762,75.559,62.882,54.493z"/>
		<path style="fill:#FBAC31;" d="M62.882,54.493c3.42-5.102,3.396-9.112,1.404-12.28c1.556,6.571-3.842,13.617-12.284,11.123
			C41.816,50.326,30.706,30.65,30.706,30.65S48.762,75.559,62.882,54.493z"/>
		<path style="fill:#FFD566;" d="M36.493,33.429c0,0,20.139,0.694,25.926,10.879C62.419,44.308,48.298,36.9,36.493,33.429z"/>
	</g>
	<g>
		<path style="fill:#FEBF4D;" d="M60.631,54.865C46.174,33.299,92.807,31.022,92.807,31.022S74.751,75.93,60.631,54.865z"/>
		<path style="fill:#FBAC31;" d="M60.631,54.865c-3.42-5.102-3.396-9.113-1.404-12.28c-1.557,6.571,3.842,13.617,12.283,11.123
			c10.186-3.01,21.297-22.686,21.297-22.686S74.751,75.93,60.631,54.865z"/>
		<path style="fill:#FFD566;" d="M87.02,33.8c0,0-20.139,0.694-25.926,10.88C61.094,44.68,75.214,37.272,87.02,33.8z"/>
	</g>
	<g>
		<path style="fill:#FEBF4D;" d="M62.206,74.706C77.277,52.222,28.66,49.849,28.66,49.849S47.484,96.667,62.206,74.706z"/>
		<path style="fill:#FBAC31;" d="M62.206,74.705c3.565-5.318,3.54-9.5,1.464-12.803c1.622,6.851-4.005,14.197-12.807,11.597
			c-10.619-3.138-22.203-23.65-22.203-23.65S47.484,96.667,62.206,74.705z"/>
		<path style="fill:#FFD566;" d="M34.693,52.744c0,0,20.996,0.725,27.029,11.343C61.723,64.087,47.002,56.364,34.693,52.744z"/>
	</g>
	<g>
		<path style="fill:#FEBF4D;" d="M57.247,77.309C42.176,54.825,90.793,52.451,90.793,52.451S71.969,99.27,57.247,77.309z"/>
		<path style="fill:#FBAC31;" d="M57.247,77.309c-3.565-5.318-3.54-9.5-1.464-12.803c-1.622,6.851,4.005,14.196,12.807,11.596
			c10.619-3.137,22.203-23.65,22.203-23.65S71.969,99.27,57.247,77.309z"/>
		<path style="fill:#FFD566;" d="M84.759,55.348c0,0-20.995,0.724-27.029,11.343C57.729,66.69,72.451,58.967,84.759,55.348z"/>
	</g>
	<g>
		<path style="fill:#FEBF4D;" d="M58.595,96.113C74.076,73.018,24.137,70.58,24.137,70.58S43.473,118.672,58.595,96.113z"/>
		<path style="fill:#FBAC31;" d="M58.595,96.113c3.662-5.463,3.636-9.759,1.504-13.151C61.765,90,55.984,97.545,46.943,94.874
			C36.035,91.651,24.137,70.58,24.137,70.58S43.473,118.672,58.595,96.113z"/>
		<path style="fill:#FFD566;" d="M30.334,73.555c0,0,21.567,0.743,27.765,11.651C58.099,85.206,42.977,77.273,30.334,73.555z"/>
	</g>
	<g>
		<path style="fill:#FEBF4D;" d="M61.634,96.237C46.151,73.142,96.092,70.704,96.092,70.704S76.755,118.796,61.634,96.237z"/>
		<path style="fill:#FBAC31;" d="M61.633,96.237c-3.662-5.464-3.636-9.759-1.504-13.151c-1.666,7.037,4.114,14.583,13.155,11.912
			c10.908-3.223,22.808-24.294,22.808-24.294S76.755,118.796,61.633,96.237z"/>
		<path style="fill:#FFD566;" d="M89.894,73.679c0,0-21.566,0.743-27.765,11.651C62.129,85.33,77.251,77.396,89.894,73.679z"/>
	</g>
</g>
<g>
</g>
<g>
</g>
<g>
</g>
<g>
</g>
<g>
</g>
<g>
</g>
<g>
</g>
<g>
</g>
<g>
</g>
<g>
</g>
<g>
</g>
<g>
</g>
<g>
</g>
<g>
</g>
<g>
</g>
</svg>
