<?xml version="1.0" encoding="iso-8859-1"?>
<!-- Generator: Adobe Illustrator 19.0.0, SVG Export Plug-In . SVG Version: 6.00 Build 0)  -->
<svg version="1.1" id="Capa_1" xmlns="http://www.w3.org/2000/svg" xmlns:xlink="http://www.w3.org/1999/xlink" x="0px" y="0px"
	 viewBox="0 0 512.002 512.002" style="enable-background:new 0 0 512.002 512.002;" xml:space="preserve">
<rect y="346.397" style="fill:#E4E9ED;" width="511.325" height="95.482"/>
<path style="fill:#C7D9E5;" d="M460.409,70.124c0,0-43.225,18.824-43.225,87.148c0,57.866,60.655,63.443,60.655,109.457
	c0,34.162-9.76,44.62-9.76,44.62s43.923-34.859,43.923-84.359C512,154.483,444.374,192.13,460.409,70.124z"/>
<rect y="346.397" style="fill:#F49F00;" width="170.689" height="95.482"/>
<rect x="153.471" y="346.397" style="fill:#BABECB;" width="34.434" height="95.482"/>
<rect y="407.442" style="fill:#D7D9DB;" width="511.325" height="34.434"/>
<rect x="464.951" y="346.397" style="fill:#A5A7B7;" width="46.374" height="95.482"/>
<rect x="464.951" y="407.442" style="fill:#9396A3;" width="46.374" height="34.434"/>
<rect y="407.442" style="fill:#DD8903;" width="170.689" height="34.434"/>
<rect x="153.471" y="407.442" style="fill:#9EA3B2;" width="34.434" height="34.434"/>
<g>
</g>
<g>
</g>
<g>
</g>
<g>
</g>
<g>
</g>
<g>
</g>
<g>
</g>
<g>
</g>
<g>
</g>
<g>
</g>
<g>
</g>
<g>
</g>
<g>
</g>
<g>
</g>
<g>
</g>
</svg>
