<svg height="511pt" viewBox="0 -2 511.99942 511" width="511pt" xmlns="http://www.w3.org/2000/svg"><path d="m179.683594 46.128906s.050781-17.136718.046875-31.171875c-.003907-7.988281-6.480469-14.457031-14.464844-14.457031h-51.484375c-7.882812 0-14.308594 6.304688-14.460938 14.183594-.738281 38.328125-1.265624 169.503906 13.671876 234.242187h66.734374zm0 0" fill="#fbc700"/><path d="m84.644531 80.585938s-2.808593-16.902344-5.15625-30.742188c-1.335937-7.871094-8.796875-13.171875-16.671875-11.839844l-50.761718 8.585938c-7.773438 1.316406-13.058594 8.605468-11.894532 16.398437 5.664063 37.914063 23.011719 143.605469 48.542969 204.949219l65.796875-11.132812zm0 0" fill="#ffe02f"/><path d="m427.355469 80.585938s2.808593-16.902344 5.15625-30.742188c1.335937-7.871094 8.796875-13.171875 16.671875-11.839844l50.761718 8.585938c7.769532 1.316406 13.058594 8.605468 11.890626 16.398437-5.664063 37.914063-23.011719 143.609375-48.539063 204.949219l-65.800781-11.132812zm0 0" fill="#fbc700"/><path d="m511.835938 62.992188c-5.664063 37.914062-23.007813 143.597656-48.539063 204.945312l-21.441406-4.101562c25.53125-61.34375 42.875-167.027344 48.539062-204.941407.984375-6.546875-2.589843-12.746093-8.367187-15.335937l17.917968 3.03125c7.773438 1.3125 13.058594 8.605468 11.890626 16.402344zm0 0" fill="#e9b900"/><path d="m332.3125 46.128906s-.046875-17.136718-.042969-31.171875c.003907-7.988281 6.476563-14.457031 14.464844-14.457031h51.484375c7.882812 0 14.308594 6.304688 14.460938 14.183594.738281 38.328125 1.265624 169.503906-13.675782 234.242187h-66.734375zm0 0" fill="#ffe02f"/><path d="m256 254.222656s2.605469-205.179687 6.21875-243.800781c.410156-4.386719 4.234375-7.640625 8.628906-7.363281l64.570313 4.085937c4.691406.296875 8.15625 4.480469 7.574219 9.144531-3.046876 24.339844-11.371094 173.625-12.207032 237.933594zm0 0" fill="#fbc700"/><path d="m256 254.222656s-2.605469-205.179687-6.21875-243.800781c-.410156-4.386719-4.234375-7.640625-8.628906-7.363281l-64.570313 4.085937c-4.691406.296875-8.160156 4.480469-7.574219 9.144531 3.046876 24.339844 11.371094 173.625 12.207032 237.933594zm0 0" fill="#ffe02f"/><path d="m375.835938 188.875-11.667969 26.34375c-6.59375 14.890625-21.347657 24.492188-37.632813 24.492188h-141.074218c-16.28125 0-31.039063-9.601563-37.632813-24.492188l-11.664063-26.34375c-5.621093-12.691406-18.195312-20.875-32.078124-20.875h-57.199219c-13.980469 0-24.476563 12.773438-21.761719 26.488281l45.816406 272.316407c5.40625 27.335937 31.929688 45.105468 59.273438 39.738281 24.824218-4.867188 58.292968-10.257813 98.644531-13.96875 18.050781-1.660157 36.230469-1.660157 54.28125 0 40.351563 3.710937 73.820313 9.101562 98.640625 13.96875 27.347656 5.367187 53.867188-12.402344 59.277344-39.738281l45.816406-272.316407c2.710938-13.714843-7.78125-26.488281-21.761719-26.488281h-57.199219c-13.882812 0-26.457031 8.183594-32.078124 20.875zm0 0" fill="#ea4444"/><path d="m486.871094 194.488281-45.8125 272.3125c-5.410156 27.34375-31.933594 45.105469-59.273438 39.738281-24.824218-4.867187-58.292968-10.253906-98.644531-13.960937-18.054687-1.660156-36.226563-1.660156-54.277344 0-40.355469 3.707031-73.824219 9.09375-98.644531 13.960937-27.34375 5.367188-53.867188-12.394531-59.277344-39.738281l-3.03125-18.019531c8.636719 20.910156 31.082032 33.519531 54.132813 28.992188 23.820312-4.671876 55.945312-9.847657 94.671875-13.402344 17.324218-1.597656 34.769531-1.597656 52.09375 0 38.726562 3.554687 70.851562 8.730468 94.671875 13.402344 26.246093 5.152343 51.691406-11.90625 56.886719-38.128907l43.96875-261.351562c.707031-3.574219.484374-7.078125-.5-10.296875h1.28125c13.980468 0 24.46875 12.773437 21.753906 26.492187zm0 0" fill="#d93131"/><path d="m333.539062 355.859375c0 42.824219-34.714843 77.539063-77.539062 77.539063s-77.539062-34.714844-77.539062-77.539063c0-42.820313 34.714843-77.535156 77.539062-77.535156s77.539062 34.714843 77.539062 77.535156zm0 0" fill="#fef1da"/></svg>