<?xml version="1.0" encoding="iso-8859-1"?>
<!-- Generator: Adobe Illustrator 19.1.0, SVG Export Plug-In . SVG Version: 6.00 Build 0)  -->
<svg version="1.1" id="Capa_1" xmlns="http://www.w3.org/2000/svg" xmlns:xlink="http://www.w3.org/1999/xlink" x="0px" y="0px"
	 viewBox="0 0 427.189 427.189" style="enable-background:new 0 0 427.189 427.189;" xml:space="preserve">
<g>
	<path style="fill:#FF6666;" d="M236.744,48.738v2.685c4.193-2.826,6.958-7.618,6.958-13.044v-12.66
		c0-8.667-7.051-15.719-15.719-15.719h-28.789c-7.746,0-14.184,5.637-15.47,13.02h27.302
		C225.207,23.02,236.744,34.557,236.744,48.738z"/>
	<path style="fill:#CC6633;" d="M264.516,38.379c0-6.995-4.595-12.931-10.923-14.964c0.068,0.76,0.108,14.964,0.108,14.964
		c0,5.917-2.013,11.368-5.384,15.719C248.318,54.098,264.516,54.098,264.516,38.379z"/>
	<path style="fill:#669933;" d="M218.588,155.423v1.418l15.471,3.05l-3.665-6.642C226.595,154.348,222.647,155.084,218.588,155.423z
		"/>
	<path style="fill:#CC6633;" d="M199.194,54.098h27.551v-5.359c0-8.667-7.051-15.719-15.719-15.719h-27.551v5.359
		C183.475,47.046,190.526,54.098,199.194,54.098z"/>
	<path style="fill:#669933;" d="M172.069,266.399c-18.328-12.84-49.103-21.155-66.069-13.723
		c-1.19,18.483,17.14,44.568,35.467,57.408c12.676,8.879,28.623,8.639,37.984,0.15l-53.889-37.75
		c-2.262-1.584-2.811-4.702-1.226-6.964c1.584-2.26,4.702-2.811,6.964-1.225l53.889,37.75
		C189.968,290.35,184.747,275.281,172.069,266.399z"/>
	<path style="fill:#CC6633;" d="M178.859,54.098c-3.371-4.351-5.384-9.802-5.384-15.719c0,0,0.041-14.198,0.108-14.955
		c-6.328,2.03-10.922,7.962-10.922,14.955C162.66,54.872,178.859,54.098,178.859,54.098z"/>
	<path style="fill:#669933;" d="M255.108,266.399c-7.063,4.948-12.033,11.926-13.994,19.648c-1.433,5.642-1.109,11.168,0.869,16.002
		l53.893-37.754c2.263-1.586,5.379-1.036,6.964,1.225c1.585,2.262,1.035,5.38-1.227,6.964l-53.888,37.75
		c9.361,8.488,25.307,8.73,37.985-0.15c18.327-12.84,36.657-38.925,35.467-57.408C304.21,245.246,273.434,253.561,255.108,266.399z"
		/>
	<path style="fill:#FF6666;" d="M205.803,64.098h-27.424c-5.906,0-11.349-2.006-15.695-5.365V94.41
		c0,16.058,7.386,30.407,18.912,39.808c0.071-16.005,2.564-47.322,19.568-65.747C202.635,66.878,204.186,65.428,205.803,64.098z"/>
	<path style="fill:#FF6666;" d="M264.492,94.41V58.732c-4.346,3.359-9.789,5.365-15.695,5.365h-13.564
		c-11.053,0-19.793,3.648-26.721,11.155c-17.259,18.701-17.186,55.132-16.793,65.408c6.63,3.188,14.045,4.977,21.87,4.977
		C241.658,145.639,264.492,122.657,264.492,94.41z"/>
	<path style="fill:#669933;" d="M193.118,159.89l15.47-3.053v-1.412c-4.062-0.334-8.014-1.064-11.813-2.162L193.118,159.89z"/>
	<path style="fill:#663333;" d="M328.295,245.074l0.01-0.018c-20.558-11.632-56.979-2.229-78.935,13.153
		c-9.024,6.321-15.398,15.334-17.949,25.377c-2.174,8.563-1.365,17.017,2.231,24.299l-15.064,10.553v-68.626h5.634
		c2.761,0,5-2.238,5-5c0-2.762-2.239-5-5-5h-5.634v-72.779c0,0,24.715,4.84,25.036,4.84c1.577,0,3.086-0.747,4.038-2.052
		c1.146-1.57,1.278-3.662,0.339-5.364l-8.17-14.802c20.482-9.874,34.661-30.925,34.661-55.245c0,0,0.024-55.705,0.024-56.031
		c0-13.729-10.812-24.979-24.369-25.683C245.671,5.106,237.414,0,227.983,0h-28.789c-9.431,0-17.688,5.106-22.165,12.696
		C163.473,13.4,152.66,24.65,152.66,38.379c0,0.326,0.024,56.031,0.024,56.031c0,39.542,33.72,54.787,34.662,55.241l-8.171,14.806
		c-0.939,1.702-0.852,3.827,0.339,5.364c1.699,2.192,4.683,2.021,5.006,1.957l24.068-4.748v26.405h-5.634c-2.761,0-5,2.238-5,5
		s2.239,5,5,5h5.634v115.003l-15.07-10.558c7.964-16.228,1.568-37.566-15.711-49.671c-21.818-15.285-57.913-24.655-78.538-13.361
		c-0.012,0.006-2.456,1.239-2.867,3.732c-3.843,23.304,17.372,54.312,39.327,69.693c8.046,5.637,17.167,8.373,25.885,8.373
		c10.004,0,19.466-3.617,26.163-10.579l20.811,14.578v18.74h-5.634c-2.761,0-5,2.238-5,5c0,2.762,2.239,5,5,5h5.634v62.803
		c0,2.762,2.239,5,5,5s5-2.238,5-5v-91.543l20.811-14.578c6.697,6.963,16.157,10.579,26.163,10.579
		c8.717,0,17.841-2.737,25.886-8.373c21.955-15.381,43.233-46.4,39.327-69.693C330.515,247.035,329.561,245.792,328.295,245.074z
		 M185.188,302.046l-53.889-37.75c-2.262-1.586-5.379-1.034-6.964,1.225c-1.585,2.262-1.035,5.38,1.226,6.964l53.889,37.75
		c-9.361,8.488-25.308,8.729-37.984-0.15c-18.328-12.84-36.657-38.925-35.467-57.408c16.967-7.433,47.742,0.883,66.069,13.723
		C184.747,275.281,189.968,290.35,185.188,302.046z M218.588,156.841v-1.418c4.059-0.339,8.007-1.075,11.806-2.174l3.665,6.642
		L218.588,156.841z M253.702,38.379c0,0-0.041-14.204-0.108-14.964c6.328,2.033,10.923,7.969,10.923,14.964
		c0,15.719-16.198,15.719-16.198,15.719C251.689,49.747,253.702,44.296,253.702,38.379z M199.194,10h28.789
		c8.668,0,15.719,7.052,15.719,15.719v12.66c0,5.426-2.764,10.218-6.958,13.044v-2.685c0-14.182-11.538-25.719-25.719-25.719
		h-27.302C185.01,15.637,191.448,10,199.194,10z M183.475,33.02h27.551c8.667,0,15.719,7.052,15.719,15.719v5.359h-27.551
		c-8.668,0-15.719-7.052-15.719-15.719V33.02z M173.583,23.424c-0.067,0.757-0.108,14.955-0.108,14.955
		c0,5.917,2.013,11.368,5.384,15.719c0,0-16.198,0.774-16.198-15.719C162.66,31.386,167.255,25.454,173.583,23.424z
		 M181.596,134.218c-11.526-9.4-18.912-23.75-18.912-39.808V58.732c4.346,3.359,9.789,5.365,15.695,5.365h27.424
		c-1.617,1.33-3.169,2.78-4.639,4.373C184.161,86.896,181.668,118.213,181.596,134.218z M208.588,156.837l-15.47,3.053l3.657-6.627
		c3.799,1.099,7.751,1.828,11.813,2.162V156.837z M213.589,145.639c-7.824,0-15.24-1.79-21.87-4.977
		c-0.393-10.276-0.465-46.707,16.793-65.408c6.927-7.507,15.668-11.155,26.721-11.155h13.564c5.905,0,11.349-2.006,15.695-5.365
		V94.41C264.492,122.657,241.658,145.639,213.589,145.639z M285.71,310.085c-12.678,8.881-28.624,8.639-37.985,0.15l53.888-37.75
		c2.262-1.584,2.811-4.702,1.227-6.964c-1.584-2.262-4.701-2.811-6.964-1.225l-53.893,37.754c-1.979-4.834-2.302-10.36-0.869-16.002
		c1.961-7.723,6.93-14.7,13.994-19.648c18.326-12.839,49.102-21.153,66.069-13.723C322.366,271.16,304.037,297.245,285.71,310.085z"
		/>
</g>
<g>
</g>
<g>
</g>
<g>
</g>
<g>
</g>
<g>
</g>
<g>
</g>
<g>
</g>
<g>
</g>
<g>
</g>
<g>
</g>
<g>
</g>
<g>
</g>
<g>
</g>
<g>
</g>
<g>
</g>
</svg>
