<svg height="464pt" viewBox="0 -20 464 464" width="464pt" xmlns="http://www.w3.org/2000/svg"><path d="m296 136c17.671875 0 32-14.328125 32-32s-14.328125-32-32-32c-2.953125.042969-5.886719.496094-8.710938 1.351562-2.566406-11.871093-11.628906-21.265624-23.402343-24.253906 0-.371094.113281-.722656.113281-1.097656.066406-12.476562-7.15625-23.839844-18.484375-29.070312-11.324219-5.230469-24.660156-3.363282-34.117187 4.773437-5.167969-8.847656-14.292969-14.648437-24.496094-15.574219-10.203125-.925781-20.226563 3.140625-26.902344 10.910156-6.148438-7.171874-15.183594-11.222656-24.628906-11.035156-9.445313.1875-18.3125 4.589844-24.171875 12.003906-4.648438-2.59375-9.875-3.972656-15.199219-4.007812-17.671875 0-32 14.328125-32 32s14.328125 32 32 32zm0 0" fill="#557c3e"/><path d="m384 352c0 17.671875 14.328125 32 32 32s32-14.328125 32-32c-.03125-5.324219-1.410156-10.550781-4-15.199219 7.410156-5.859375 11.8125-14.726562 12-24.175781.183594-9.445312-3.863281-18.480469-11.039062-24.625 7.769531-6.675781 11.835937-16.699219 10.910156-26.902344-.925782-10.203125-6.726563-19.328125-15.574219-24.496094 8.136719-9.457031 10.003906-22.792968 4.773437-34.117187-5.230468-11.328125-16.59375-18.550781-29.070312-18.484375-.375 0-.726562.097656-1.097656.113281-2.988282-11.773437-12.382813-20.835937-24.253906-23.402343.855468-2.824219 1.308593-5.757813 1.351562-8.710938 0-17.671875-14.328125-32-32-32s-32 14.328125-32 32zm0 0" fill="#009245"/><path d="m128 88h240v240zm0 0" fill="#fadb86"/><path d="m344 200c0 48.601562-39.398438 88-88 88s-88-39.398438-88-88 39.398438-88 88-88 88 39.398438 88 88zm0 0" fill="#f37453"/><path d="m312 200c0 30.929688-25.070312 56-56 56s-56-25.070312-56-56 25.070312-56 56-56 56 25.070312 56 56zm0 0" fill="#f7931e"/><path d="m232 136c0 48.601562-39.398438 88-88 88s-88-39.398438-88-88 39.398438-88 88-88 88 39.398438 88 88zm0 0" fill="#d8cc60"/><path d="m200 136c0 30.929688-25.070312 56-56 56s-56-25.070312-56-56 25.070312-56 56-56 56 25.070312 56 56zm0 0" fill="#b9c55a"/><path d="m408 312c0 48.601562-39.398438 88-88 88s-88-39.398438-88-88 39.398438-88 88-88 88 39.398438 88 88zm0 0" fill="#d8cc60"/><path d="m376 312c0 30.929688-25.070312 56-56 56s-56-25.070312-56-56 25.070312-56 56-56 56 25.070312 56 56zm0 0" fill="#b9c55a"/><path d="m424 424h-424v-424zm0 0" fill="#fce9c0"/><path d="m424 424h40l-424-424h-40zm0 0" fill="#fbe3a9"/><g fill="#d7ba8c"><path d="m40 368h16v16h-16zm0 0"/><path d="m112 360h16v16h-16zm0 0"/><path d="m80 328h16v16h-16zm0 0"/><path d="m32 296h16v16h-16zm0 0"/><path d="m64 264h16v16h-16zm0 0"/><path d="m40 216h16v16h-16zm0 0"/><path d="m104 232h16v16h-16zm0 0"/><path d="m120 288h16v16h-16zm0 0"/><path d="m160 320h16v16h-16zm0 0"/><path d="m192 384h16v16h-16zm0 0"/></g></svg>