<?xml version="1.0" encoding="iso-8859-1"?>
<!-- Generator: Adobe Illustrator 19.0.0, SVG Export Plug-In . SVG Version: 6.00 Build 0)  -->
<svg version="1.1" id="Capa_1" xmlns="http://www.w3.org/2000/svg" xmlns:xlink="http://www.w3.org/1999/xlink" x="0px" y="0px"
	 viewBox="0 0 468.293 468.293" style="enable-background:new 0 0 468.293 468.293;" xml:space="preserve">
<path style="fill:#E1E6E9;" d="M138.405,0c-30.886,30.886-48.202,48.202-79.088,79.088v376.717c0,6.897,5.591,12.488,12.488,12.488
	h324.683c6.897,0,12.488-5.591,12.488-12.488V12.488C408.976,5.591,403.385,0,396.488,0H138.405z"/>
<path style="fill:#FCD462;" d="M327.805,410.747H140.488c-10.345,0-18.732-8.386-18.732-18.732V217.186
	c0-10.345,8.386-18.732,18.732-18.732h187.317c10.345,0,18.732,8.386,18.732,18.732v174.829
	C346.537,402.361,338.15,410.747,327.805,410.747z"/>
<g>
	<path style="fill:#F6C358;" d="M209.046,264.809h29.782v-66.354h-9.366v56.988h-25.175c-6.522-6.522-11.385-11.385-18.908-18.908
		h-63.623v61.822h87.29V264.809z"/>
	<path style="fill:#F6C358;" d="M282.913,236.535c-9.242,9.242-14.424,14.424-23.667,23.667v38.155h87.29v-61.822H282.913z"/>
	<path style="fill:#F6C358;" d="M259.247,344.319h-50.2v-33.474h-87.29v61.822h63.623c7.552-7.552,12.422-12.422,18.982-18.982
		h25.101v57.064h9.366v-57.064h25.102c6.56,6.56,11.431,11.431,18.982,18.982h63.623v-61.822h-87.29V344.319z"/>
</g>
<g>
	<path style="fill:#64798A;" d="M181.724,88.436c-2.878,0-5.238,0.587-7.083,1.76c-1.845,1.177-2.766,2.95-2.766,5.324
		c0,2.377,0.921,4.191,2.766,5.446c1.845,1.258,5.77,2.616,11.776,4.065c6.006,1.456,10.531,3.496,13.577,6.118
		c3.045,2.629,4.57,6.497,4.57,11.609c0,5.112-1.93,9.262-5.784,12.448c-3.857,3.185-8.915,4.778-15.169,4.778
		c-9.167,0-17.294-3.158-24.391-9.471l6.203-7.462c5.92,5.143,12.069,7.711,18.436,7.711c3.185,0,5.712-0.682,7.588-2.053
		c1.869-1.368,2.807-3.185,2.807-5.446c0-2.264-0.88-4.024-2.64-5.283c-1.76-1.255-4.792-2.401-9.095-3.434
		c-4.304-1.033-7.571-1.985-9.805-2.851c-2.237-0.866-4.219-1.995-5.951-3.393c-3.465-2.626-5.197-6.65-5.197-12.069
		s1.971-9.597,5.91-12.53s8.812-4.399,14.624-4.399c3.745,0,7.462,0.614,11.148,1.842c3.687,1.231,6.872,2.964,9.556,5.197
		l-5.283,7.458c-1.732-1.562-4.079-2.848-7.039-3.854C187.518,88.941,184.599,88.436,181.724,88.436z"/>
	<path style="fill:#64798A;" d="M216.8,80.725h9.89v58.586h-9.89V80.725z"/>
	<path style="fill:#64798A;" d="M252.837,139.312h-9.89V80.725h15.422l17.683,36.794l17.686-36.794h15.336v58.586h-9.89v-45.76
		l-20.448,40.648h-5.532l-20.367-40.648V139.312z"/>
</g>
<g>
</g>
<g>
</g>
<g>
</g>
<g>
</g>
<g>
</g>
<g>
</g>
<g>
</g>
<g>
</g>
<g>
</g>
<g>
</g>
<g>
</g>
<g>
</g>
<g>
</g>
<g>
</g>
<g>
</g>
</svg>
