<svg height="512" viewBox="0 0 64 64" width="512" xmlns="http://www.w3.org/2000/svg"><path d="m20 21h24a0 0 0 0 1 0 0v38a2 2 0 0 1 -2 2h-20a2 2 0 0 1 -2-2v-38a0 0 0 0 1 0 0z" fill="#dd3e46"/><path d="m34 17h8v4h-8z" fill="#4f6572"/><path d="m36 3h4v14h-4z" fill="#1b262d"/><path d="m24 25h16v14h-16z" fill="#cfdfe8"/><path d="m27 28h2v2h-2z" fill="#4f6572"/><path d="m31 30h2v2h-2z" fill="#4f6572"/><g fill="#143441"><path d="m27 56h10v2h-10z"/><path d="m27 51h10v2h-10z"/><path d="m27 47h10v2h-10z"/><path d="m27 43h10v2h-10z"/></g><path d="m23 17h4v4h-4z" fill="#fcf05a"/><path d="m20 43h4v10h-4z" fill="#a52531"/><path d="m40 43h4v10h-4z" fill="#a52531"/><path d="m23 56h2v2h-2z" fill="#f4f4e6"/><path d="m39 56h2v2h-2z" fill="#f4f4e6"/><path d="m31.257 14.669a8.323 8.323 0 0 1 0-11.338l1.486 1.338-.743-.669.745.667c-.158.178-3.83 4.41 0 8.664z" fill="#6db1c6"/><path d="m27.257 14.669a8.323 8.323 0 0 1 0-11.338l1.486 1.338-.743-.669.745.667c-.158.178-3.83 4.41 0 8.664z" fill="#6db1c6"/><path d="m44.743 14.669-1.486-1.338c3.853-4.282.159-8.485 0-8.662l1.486-1.338a8.323 8.323 0 0 1 0 11.338z" fill="#6db1c6"/><path d="m48.743 14.669-1.486-1.338c3.853-4.282.159-8.485 0-8.662l1.486-1.338a8.323 8.323 0 0 1 0 11.338z" fill="#6db1c6"/></svg>