<svg height="512" viewBox="0 0 64 64" width="512" xmlns="http://www.w3.org/2000/svg"><path d="m17 13-10 10h10z" fill="#006df0"/><path d="m17 13v10h-10v8h12.7a4 4 0 0 0 2.353-.765l8.9-6.47a4 4 0 0 1 2.347-.765h23.7v-10z" fill="#efeadd"/><path d="m7 23 10-10h40v10h4v-10a4 4 0 0 0 -4-4h-23.892a4 4 0 0 1 -2.058-.57l-8.1-4.86a4 4 0 0 0 -2.058-.57h-13.892a4 4 0 0 0 -4 4v24h4z" fill="#ddb200"/><path d="m61 23v34a4 4 0 0 1 -4 4h-50a4 4 0 0 1 -4-4v-26h16.7a3.981 3.981 0 0 0 2.35-.77l8.9-6.46a3.981 3.981 0 0 1 2.35-.77z" fill="#ffcd00"/><path d="m3 31v26a4 4 0 0 0 4 4h29c-18.24 0-33-13.418-33-30z" fill="#ddb200"/><circle cx="42" cy="42" fill="#57a4ff" r="13"/><path d="m47.58 53.75a13.007 13.007 0 1 1 -8.16-24.5 13.005 13.005 0 0 0 5.58 24.75 13.679 13.679 0 0 0 2.58-.25z" fill="#2488ff"/><path d="m35 44h4a1 1 0 0 1 1 1v4a1 1 0 0 0 1 1h2a1 1 0 0 0 1-1v-4a1 1 0 0 1 1-1h4a1 1 0 0 0 1-1v-2a1 1 0 0 0 -1-1h-4a1 1 0 0 1 -1-1v-4a1 1 0 0 0 -1-1h-2a1 1 0 0 0 -1 1v4a1 1 0 0 1 -1 1h-4a1 1 0 0 0 -1 1v2a1 1 0 0 0 1 1z" fill="#f00"/><path d="m9 54h12v2h-12z" fill="#f1f2f2"/><path d="m9 51h12v2h-12z" fill="#f1f2f2"/><path d="m9 48h6v2h-6z" fill="#f1f2f2"/><g fill="#57a4ff"><path d="m10 26h10v2h-10z"/><path d="m22 16h2v2h-2z"/><path d="m26 16h26v2h-26z"/><path d="m22 19h2v2h-2z"/><path d="m22 22h2v2h-2z"/><path d="m26 19h26v2h-26z"/></g></svg>