<?xml version="1.0" encoding="iso-8859-1"?>
<!-- Generator: Adobe Illustrator 19.0.0, SVG Export Plug-In . SVG Version: 6.00 Build 0)  -->
<svg version="1.1" id="Capa_1" xmlns="http://www.w3.org/2000/svg" xmlns:xlink="http://www.w3.org/1999/xlink" x="0px" y="0px"
	 viewBox="0 0 428.408 428.408" style="enable-background:new 0 0 428.408 428.408;" xml:space="preserve">
<g>
	<g>
		<g>
			<path style="fill:#00CEB4;" d="M138.971,252.821c27.556,17.429,35.765,53.897,18.335,81.452
				c-4.677,7.395-10.94,13.658-18.335,18.335V252.821z"/>
			<g>
				<path style="fill:#00EFD1;" d="M138.971,252.821v99.788c-9.18,5.426-19.639,8.311-30.302,8.359V244.461
					C119.333,244.509,129.792,247.395,138.971,252.821z"/>
				<path style="fill:#00EFD1;" d="M108.669,244.461v116.506c-10.837,0.02-21.482-2.867-30.824-8.359v-99.788
					C87.188,247.328,97.832,244.442,108.669,244.461z"/>
			</g>
			<path style="fill:#00CEB4;" d="M77.845,252.821v99.788c-27.556-17.429-35.765-53.897-18.335-81.452
				C64.187,263.761,70.45,257.498,77.845,252.821z"/>
		</g>
		<path style="fill:#083863;" d="M40.751,132.657c-4.694-0.086-8.754-3.291-9.927-7.837c-1.426-5.452,1.509-11.098,6.792-13.061
			l250.776-77.322c5.533-1.639,11.347,1.517,12.987,7.05c0.026,0.088,0.051,0.176,0.074,0.264
			c1.426,5.452-1.509,11.098-6.792,13.061L43.886,132.135L40.751,132.657z"/>
	</g>
	<polygon style="fill:#00EFD1;" points="271.673,214.159 36.571,214.159 36.571,151.466 391.837,151.466 391.837,214.159 	"/>
	<path style="fill:#00CEB4;" d="M271.673,224.608c-5.771,0-10.449-4.678-10.449-10.449v-31.347c0-5.771,4.678-10.449,10.449-10.449
		s10.449,4.678,10.449,10.449v31.347C282.122,219.93,277.444,224.608,271.673,224.608z"/>
	<path style="fill:#D4E1F4;" d="M138.971,352.608c27.556-17.429,35.765-53.897,18.335-81.452
		c-4.677-7.395-10.94-13.658-18.335-18.335c-18.853-11.139-42.274-11.139-61.127,0c-27.556,17.429-35.765,53.897-18.335,81.452
		c4.677,7.395,10.94,13.658,18.335,18.335C96.698,363.748,120.118,363.748,138.971,352.608z M428.408,143.629v219.429
		c0,17.312-14.035,31.347-31.347,31.347H31.347C14.035,394.404,0,380.37,0,363.057V143.629c0-17.312,14.035-31.347,31.347-31.347
		h365.714C414.374,112.282,428.408,126.316,428.408,143.629z M391.837,214.159v-62.694H36.571v62.694H391.837z"/>
	<g>
		<circle style="fill:#00ACEA;" cx="347.429" cy="302.976" r="30.824"/>
		<circle style="fill:#00ACEA;" cx="253.388" cy="302.976" r="30.824"/>
	</g>
</g>
<g>
</g>
<g>
</g>
<g>
</g>
<g>
</g>
<g>
</g>
<g>
</g>
<g>
</g>
<g>
</g>
<g>
</g>
<g>
</g>
<g>
</g>
<g>
</g>
<g>
</g>
<g>
</g>
<g>
</g>
</svg>
