<?xml version="1.0" encoding="iso-8859-1"?>
<!-- Generator: Adobe Illustrator 19.0.0, SVG Export Plug-In . SVG Version: 6.00 Build 0)  -->
<svg version="1.1" id="Capa_1" xmlns="http://www.w3.org/2000/svg" xmlns:xlink="http://www.w3.org/1999/xlink" x="0px" y="0px"
	 viewBox="0 0 512.051 512.051" style="enable-background:new 0 0 512.051 512.051;" xml:space="preserve">
<g transform="translate(0 -1)">
	<path style="fill:#428DFF;" d="M272.191,513.051c-0.102,0-0.212,0-0.314-0.009c-2.3-0.078-4.475-1.068-6.044-2.752
		c-1.569-1.684-2.404-3.923-2.32-6.223c6.381-183.068-16.788-265.492-17.025-266.297c-0.868-2.981-0.078-6.198,2.071-8.438
		s5.332-3.162,8.346-2.417c3.014,0.745,5.401,3.042,6.261,6.025c0.983,3.424,24.17,85.907,17.686,271.737
		C280.692,509.347,276.862,513.049,272.191,513.051L272.191,513.051z"/>
	<path style="fill:#428DFF;" d="M488.343,287.424c-4.461-0.004-8.192-3.39-8.627-7.83c-3.296-33.737-10.94-95.322-25.085-128.763
		C408.121,40.865,281.486-10.837,171.301,35.153c-14.608,6.06-28.639,13.426-41.923,22.008c-2.601,1.7-5.912,1.88-8.682,0.472
		c-2.77-1.408-4.576-4.188-4.736-7.291c-0.16-3.103,1.35-6.055,3.961-7.74c14.164-9.153,29.125-17.007,44.703-23.466
		c118.998-49.67,255.762,6.17,305.992,124.932c14.297,33.78,22.229,91.424,26.373,133.83c0.466,4.769-3.02,9.013-7.788,9.483
		C488.911,287.407,488.623,287.424,488.343,287.424z"/>
	<path style="fill:#428DFF;" d="M40.708,356.848c-3.839,0.001-7.222-2.523-8.313-6.203C-11.148,204.45,35.344,118.95,82.005,72.975
		c2.205-2.188,5.411-3.031,8.407-2.209c2.996,0.822,5.324,3.182,6.104,6.189c0.78,3.007-0.107,6.201-2.325,8.376
		c-62.068,61.153-77.678,151.178-45.17,260.364c0.777,2.625,0.272,5.463-1.364,7.658C46.021,355.548,43.446,356.843,40.708,356.848
		L40.708,356.848z"/>
	<path style="fill:#428DFF;" d="M97.844,443.627c-2.302,0.001-4.51-0.913-6.138-2.54c-1.628-1.628-2.542-3.836-2.54-6.138
		c0-62.042-0.161-101.153-3.272-122.407c-1.557-9.355-3.714-18.6-6.458-27.678C54.393,196.131,99.576,102.673,184.674,67.187
		c24.279-10.213,50.503-14.972,76.822-13.941c69.373,2.483,144.991,61.051,168.576,130.551
		c19.136,56.39,19.364,149.949,17.068,234.034c-0.235,4.745-4.164,8.465-8.915,8.441c-4.79-0.137-8.565-4.125-8.441-8.915
		c2.263-82.542,2.11-174.186-16.153-227.983c-21.093-62.178-91.042-116.576-152.754-118.788
		c-52.668-1.915-103.08,21.456-135.653,62.887S81.84,229.408,96.132,280.136c2.964,9.8,5.28,19.785,6.932,29.89
		c3.297,22.492,3.458,60.203,3.458,124.924c0.001,2.302-0.913,4.51-2.54,6.138C102.354,442.715,100.146,443.629,97.844,443.627z"/>
	<path style="fill:#428DFF;" d="M385.005,469.661c-0.102,0-0.212,0-0.314-0.009c-2.3-0.079-4.474-1.07-6.043-2.753
		c-1.569-1.683-2.404-3.922-2.322-6.221c4.864-139.508,3.483-219.458-17.602-269.271c-21.172-50.035-74.998-77.875-128.068-66.237
		c-4.68,1.034-9.313-1.921-10.347-6.602s1.921-9.313,6.602-10.347c61.241-13.438,123.361,18.684,147.797,76.424
		c22.483,53.119,24.025,131.525,18.958,276.644C393.506,465.957,389.676,469.66,385.005,469.661L385.005,469.661z M158.589,452.305
		c-2.302,0.001-4.51-0.913-6.138-2.54c-1.628-1.628-2.542-3.836-2.54-6.138c0.831-55.493-5.146-110.878-17.797-164.915
		c-15.814-58.424,3.601-118.703,48.297-150.085c2.537-1.78,5.831-2.072,8.642-0.765c2.81,1.307,4.71,4.014,4.983,7.102
		c0.273,3.087-1.122,6.086-3.659,7.866c-38.729,27.195-55.424,79.949-41.534,131.272c0.737,2.627,18.424,67.008,18.424,169.525
		c0.001,2.302-0.913,4.51-2.54,6.138C163.099,451.393,160.891,452.307,158.589,452.305L158.589,452.305z"/>
	<path style="fill:#428DFF;" d="M332.903,495.695c-0.102,0-0.203,0-0.305-0.009c-2.3-0.076-4.476-1.064-6.047-2.746
		c-1.571-1.682-2.408-3.92-2.326-6.22c0.373-10.907-0.009-27.873-0.347-42.839c-0.237-10.297-0.449-19.822-0.407-26.348
		c0.035-4.768,3.909-8.616,8.678-8.618h0.059c2.302,0.014,4.504,0.943,6.12,2.582c1.617,1.639,2.515,3.853,2.498,6.155
		c-0.042,6.398,0.169,15.746,0.398,25.83c0.347,15.203,0.738,32.432,0.339,43.831C341.408,491.986,337.577,495.693,332.903,495.695
		L332.903,495.695z"/>
	<path style="fill:#428DFF;" d="M210.657,495.695c-2.302,0.001-4.51-0.913-6.138-2.54c-1.628-1.628-2.542-3.836-2.54-6.138
		c0-103.22-5.525-207.212-12.068-227.076c-12.633-34.992,4.078-73.78,38.186-88.636c35.258-14.732,75.791,1.813,90.669,37.009
		c17.305,40.941,22.381,112.695,23.602,165.686c0.112,4.793-3.682,8.769-8.474,8.881h-0.203c-4.714,0-8.566-3.762-8.678-8.475
		c-1.178-51.492-5.992-120.915-22.195-159.263c-11.137-26.441-41.57-38.885-68.042-27.822
		c-25.69,11.419-38.104,40.819-28.373,67.195c7.983,24.271,12.932,139.585,12.932,232.5c0.001,2.302-0.913,4.51-2.54,6.138
		C215.167,494.783,212.959,495.697,210.657,495.695z"/>
</g>
<g>
</g>
<g>
</g>
<g>
</g>
<g>
</g>
<g>
</g>
<g>
</g>
<g>
</g>
<g>
</g>
<g>
</g>
<g>
</g>
<g>
</g>
<g>
</g>
<g>
</g>
<g>
</g>
<g>
</g>
</svg>
