<?xml version="1.0" encoding="iso-8859-1"?>
<!-- Generator: Adobe Illustrator 19.0.0, SVG Export Plug-In . SVG Version: 6.00 Build 0)  -->
<svg version="1.1" id="Layer_1" xmlns="http://www.w3.org/2000/svg" xmlns:xlink="http://www.w3.org/1999/xlink" x="0px" y="0px"
	 viewBox="0 0 511.981 511.981" style="enable-background:new 0 0 511.981 511.981;" xml:space="preserve">
<path style="fill:#FECD57;" d="M468.987,426.782H42.995V139.23c0-58.818,47.686-106.504,106.512-106.504h212.984
	c58.812,0,106.496,47.686,106.496,106.504V426.782z"/>
<g>
	<path style="fill:#424953;" d="M106.899,426.782c0-5.89-4.766-10.64-10.64-10.64c-5.89,0-10.656,4.75-10.656,10.64H106.899z"/>
	<path style="fill:#424953;" d="M426.395,426.782c0-5.89-4.781-10.64-10.655-10.64c-5.875,0-10.656,4.75-10.656,10.64H426.395z"/>
</g>
<polygon style="fill:#D94452;" points="369.647,73.24 255.878,85.482 142.351,73.24 142.351,0.282 369.647,0.282 "/>
<rect x="117.541" y="109.281" style="fill:#FECD57;" width="276.92" height="402.7"/>
<path style="opacity:0.1;enable-background:new    ;" d="M415.74,181.83c0-5.883-4.75-10.648-10.656-10.648
	c-5.875,0-10.625,4.766-10.625,10.648v244.952h21.281V181.83z"/>
<path style="opacity:0.1;enable-background:new    ;" d="M117.539,181.83c0-5.883-4.75-10.648-10.641-10.648
	c-5.89,0-10.64,4.766-10.64,10.648v244.952h21.281V181.83z"/>
<g>
	<path style="fill:#424953;" d="M85.603,426.782c0-5.89-4.781-10.64-10.656-10.64s-10.656,4.75-10.656,10.64H85.603z"/>
	<path style="fill:#424953;" d="M64.291,426.782c0-5.89-4.766-10.64-10.641-10.64c-5.89,0-10.656,4.75-10.656,10.64H64.291z"/>
	<path style="fill:#424953;" d="M447.706,426.782c0-5.89-4.78-10.64-10.654-10.64c-5.875,0-10.656,4.75-10.656,10.64H447.706z"/>
	<path style="fill:#424953;" d="M468.987,426.782c0-5.89-4.75-10.64-10.656-10.64c-5.875,0-10.625,4.75-10.625,10.64H468.987z"/>
	<path style="fill:#424953;" d="M214.708,191.986c0,5.883,4.765,10.648,10.64,10.648c5.891,0,10.656-4.765,10.656-10.648v-88.411
		h-21.295v88.411H214.708z"/>
	<path style="fill:#424953;" d="M278.589,103.574v88.411c0,5.883,4.781,10.648,10.655,10.648c5.875,0,10.656-4.765,10.656-10.648
		v-88.411H278.589z"/>
</g>
<path style="fill:#EC5564;" d="M391.334,9.742C387.803,5.297,381.022,0,368.679,0c-18.218,0-44.218,11.89-69.497,31.803
	c-18.28,14.421-33.226,30.741-43.147,46.858c-9.796-16.093-24.468-32.39-42.404-46.795c-24.876-19.952-50.375-31.865-68.249-31.865
	c-12.031,0-18.687,5.21-22.171,9.585c-6.109,7.687-7.484,18.976-4.078,33.553c6.156,26.46,31.515,46.444,75.341,59.38
	c30.78,9.094,59.529,11.305,60.748,11.391c0.25,0.023,0.5,0.031,0.781,0.031l0,0l0,0l0,0l0,0c0.25,0,0.5-0.008,0.766-0.023
	c1.234-0.094,30.601-2.297,62.006-11.375c44.717-12.929,70.528-32.913,76.716-59.404C398.834,28.687,397.459,17.453,391.334,9.742z"
	/>
<g>
</g>
<g>
</g>
<g>
</g>
<g>
</g>
<g>
</g>
<g>
</g>
<g>
</g>
<g>
</g>
<g>
</g>
<g>
</g>
<g>
</g>
<g>
</g>
<g>
</g>
<g>
</g>
<g>
</g>
</svg>
