<?xml version="1.0" encoding="iso-8859-1"?>
<!-- Generator: Adobe Illustrator 19.0.0, SVG Export Plug-In . SVG Version: 6.00 Build 0)  -->
<svg version="1.1" id="Layer_1" xmlns="http://www.w3.org/2000/svg" xmlns:xlink="http://www.w3.org/1999/xlink" x="0px" y="0px"
	 viewBox="0 0 504.123 504.123" style="enable-background:new 0 0 504.123 504.123;" xml:space="preserve">
<path style="fill:#68767A;" d="M234.937,363c0,5.766-4.679,10.461-10.437,10.461H10.437C4.679,373.461,0,368.766,0,363V236.386
	c0-5.75,4.679-10.429,10.437-10.429H224.5c5.758,0,10.437,4.679,10.437,10.429L234.937,363L234.937,363z"/>
<path style="fill:#4F5C5E;" d="M224.5,225.957H10.437C4.679,225.957,0,230.636,0,236.386v42.157c0,5.766,4.679,10.445,10.437,10.445
	H224.5c5.758,0,10.437-4.679,10.437-10.445v-42.157C234.937,230.628,230.258,225.957,224.5,225.957z"/>
<rect x="406.055" y="228.557" style="fill:#68767A;" width="34.438" height="142.257"/>
<polygon style="fill:#566566;" points="496.648,397.816 438.233,370.846 438.233,228.557 496.648,201.602 "/>
<polygon style="fill:#4F5C5E;" points="496.648,397.816 438.233,343.891 438.233,255.52 496.648,201.602 "/>
<g>
	<polyline style="fill:#5C6A6D;" points="435.247,347.632 400.801,347.632 400.801,251.77 	"/>
	<path style="fill:#5C6A6D;" d="M504.123,398.541c0,3.119-2.497,5.616-5.616,5.616l0,0c-3.104,0-5.616-2.489-5.616-5.616V200.846
		c0-3.096,2.513-5.616,5.616-5.616l0,0c3.119,0,5.616,2.521,5.616,5.616V398.541z"/>
</g>
<path style="fill:#990037;" d="M409.797,395.737c0,8.736-7.097,15.833-15.841,15.833H69.23c-8.743,0-15.84-7.089-15.84-15.833
	V203.658c0-8.735,7.089-15.833,15.84-15.833h324.734c8.736,0,15.841,7.089,15.841,15.833v192.079H409.797z"/>
<path style="fill:#BC043D;" d="M393.964,187.833H69.23c-8.743,0-15.84,7.089-15.84,15.833v63.921c0,8.751,7.089,15.848,15.84,15.848
	h324.734c8.736,0,15.841-7.089,15.841-15.848v-63.921C409.797,194.922,402.7,187.833,393.964,187.833z"/>
<path style="fill:#FFA300;" d="M384.441,372.571c0,3.111-2.513,5.632-5.632,5.632H263.302c-3.111,0-5.632-2.521-5.632-5.632v-68.324
	c0-3.111,2.521-5.632,5.632-5.632h115.507c3.119,0,5.632,2.521,5.632,5.632L384.441,372.571L384.441,372.571z"/>
<path style="fill:#FF6D00;" d="M378.809,298.614H263.302c-3.111,0-5.632,2.521-5.632,5.632v22.741c0,3.111,2.521,5.632,5.632,5.632
	h115.507c3.119,0,5.632-2.521,5.632-5.632v-22.741C384.441,301.135,381.921,298.614,378.809,298.614z"/>
<path style="fill:#990037;" d="M314.691,191.323h-24.017v-25.372c0-24.277,19.755-44.048,44.04-44.048h49.388v24.032h-49.388
	c-11.036,0-20.023,8.972-20.023,20.015V191.323z"/>
<path style="fill:#FF6D00;" d="M492.891,134.751c0,12.997-10.539,23.536-23.536,23.536h-85.087
	c-12.997,0-23.528-10.539-23.528-23.536l0,0c0-12.997,10.531-23.52,23.528-23.52h85.087
	C482.351,111.23,492.891,121.754,492.891,134.751L492.891,134.751z"/>
<path style="fill:#FFA300;" d="M360.739,134.751L360.739,134.751c0-12.997,10.531-23.52,23.528-23.52h85.087
	c12.997,0,23.536,10.524,23.536,23.52l0,0"/>
<g>
	<path style="fill:#BC043D;" d="M118.461,319.968c0,1.938-1.56,3.505-3.497,3.505H75.91c-1.93,0-3.497-1.568-3.497-3.505l0,0
		c0-1.938,1.568-3.505,3.497-3.505h39.054C116.901,316.463,118.461,318.031,118.461,319.968L118.461,319.968z"/>
	<path style="fill:#BC043D;" d="M118.461,338.999c0,1.938-1.56,3.49-3.497,3.49H75.91c-1.93,0-3.497-1.552-3.497-3.49l0,0
		c0-1.953,1.568-3.505,3.497-3.505h39.054C116.901,335.494,118.461,337.046,118.461,338.999L118.461,338.999z"/>
	<path style="fill:#BC043D;" d="M118.461,358.014c0,1.938-1.56,3.505-3.497,3.505H75.91c-1.93,0-3.497-1.568-3.497-3.505l0,0
		c0-1.938,1.568-3.505,3.497-3.505h39.054C116.901,354.509,118.461,356.076,118.461,358.014L118.461,358.014z"/>
</g>
<path style="fill:#68767A;" d="M254.173,177.971h-28.089V134.68c0-7.735-6.294-14.045-14.045-14.045H100.864
	c-7.735,0-14.045,6.309-14.045,14.045v43.292H58.73V134.68c0-23.229,18.897-42.126,42.134-42.126h111.167
	c23.237,0,42.142,18.889,42.142,42.126L254.173,177.971L254.173,177.971z"/>
<g>
</g>
<g>
</g>
<g>
</g>
<g>
</g>
<g>
</g>
<g>
</g>
<g>
</g>
<g>
</g>
<g>
</g>
<g>
</g>
<g>
</g>
<g>
</g>
<g>
</g>
<g>
</g>
<g>
</g>
</svg>
