<svg height="512pt" viewBox="-55 0 512 512" width="512pt" xmlns="http://www.w3.org/2000/svg"><path d="m349.871094 487.996094h-297.996094c-8.285156 0-15-6.355469-15-14.199219v-397.597656c0-7.839844 6.714844-14.199219 15-14.199219h297.996094c8.285156 0 15 6.359375 15 14.199219v397.597656c0 7.84375-6.714844 14.199219-15 14.199219zm0 0" fill="#ff415b"/><path d="m349.871094 62h-148.664063v425.996094h148.667969c8.28125 0 15-6.355469 15-14.199219v-397.597656c-.003906-7.839844-6.71875-14.199219-15.003906-14.199219zm0 0" fill="#b20042"/><path d="m51.875 91c-3.945312 0-7.730469-1.554688-10.542969-4.328125-2.851562-2.820313-4.457031-6.664063-4.457031-10.671875v-61c0-8.285156 6.714844-15 15-15h63c8.285156 0 15 6.714844 15 15v60c0 8.210938-6.605469 14.894531-14.816406 15l-63 .996094c-.0625.003906-.121094.003906-.183594.003906zm0 0" fill="#00347b"/><g fill-rule="evenodd"><path d="m371.746094 105.5h-341.746094c-16.570312 0-30-13.429688-30-30s13.429688-30 30-30h341.746094c16.570312 0 30 13.429688 30 30 0 16.566406-13.429688 30-30 30zm0 0" fill="#fdbf00"/><path d="m371.746094 512h-341.746094c-16.570312 0-30-13.429688-30-30s13.429688-30 30-30h341.746094c16.570312 0 30 13.429688 30 30 0 16.566406-13.429688 30-30 30zm0 0" fill="#fdbf00"/><path d="m371.746094 308.6875h-341.746094c-16.570312 0-30-13.429688-30-30s13.429688-30 30-30h341.746094c16.570312 0 30 13.429688 30 30 0 16.566406-13.429688 30-30 30zm0 0" fill="#fdbf00"/><path d="m371.746094 45.5h-170.539063v60h170.542969c16.566406 0 30-13.429688 30-30s-13.433594-30-30.003906-30zm0 0" fill="#ff9100"/><path d="m371.746094 248.6875h-170.539063v60h170.542969c16.566406 0 30-13.433594 30-30 0-16.570312-13.433594-30-30.003906-30zm0 0" fill="#ff9100"/><path d="m371.746094 452h-170.539063v60h170.542969c16.566406 0 30-13.433594 30-30-.003906-16.570312-13.433594-30-30.003906-30zm0 0" fill="#ff9100"/></g></svg>