<?xml version="1.0" encoding="iso-8859-1"?>
<!-- Generator: Adobe Illustrator 19.0.0, SVG Export Plug-In . SVG Version: 6.00 Build 0)  -->
<svg version="1.1" id="Capa_1" xmlns="http://www.w3.org/2000/svg" xmlns:xlink="http://www.w3.org/1999/xlink" x="0px" y="0px"
	 viewBox="0 0 496 496" style="enable-background:new 0 0 496 496;" xml:space="preserve">
<g>
	<path style="fill:#F0BC5E;" d="M296,168h9.616c11.712-17.864,16.568-39.024,13.472-60.776c-5.28-37.176-34.688-67.6-71.712-73.912
		c-59.2-10.08-110.176,39.424-102.64,98.248c4.728,36.888,33.44,67.072,69.848,74.632c17.104,3.552,33.784,1.744,49.408-4.4V200
		C264,182.328,278.328,168,296,168z"/>
	<rect x="16" y="320" style="fill:#F0BC5E;" width="48" height="168"/>
	<rect x="96" y="368" style="fill:#F0BC5E;" width="48" height="120"/>
	<rect x="176" y="336" style="fill:#F0BC5E;" width="48" height="152"/>
</g>
<path d="M232,96c4.408,0,8,3.592,8,8h16c0-10.416-6.712-19.216-16-22.528V64h-16v17.472c-9.288,3.312-16,12.112-16,22.528
	c0,13.232,10.768,24,24,24c4.408,0,8,3.592,8,8s-3.592,8-8,8s-8-3.592-8-8h-16c0,10.416,6.712,19.216,16,22.528V176h16v-17.472
	c9.288-3.312,16-12.112,16-22.528c0-13.232-10.768-24-24-24c-4.408,0-8-3.592-8-8S227.592,96,232,96z"/>
<polygon points="32,80 48,80 48,48 80,48 80,32 32,32 "/>
<polygon points="48,160 32,160 32,208 80,208 80,192 48,192 "/>
<polygon points="416,80 432,80 432,32 384,32 384,48 416,48 "/>
<path d="M464,160.808V0H0v240h256v216c0,22.056,17.944,40,40,40h160c22.056,0,40-17.944,40-40V200
	C496,180.688,482.232,164.528,464,160.808z M256,200v24H16V16h432v144H296C273.944,160,256,177.944,256,200z M480,456
	c0,13.232-10.768,24-24,24H296c-13.232,0-24-10.768-24-24V200c0-13.232,10.768-24,24-24h160c13.232,0,24,10.768,24,24V456z"/>
<path d="M416,464h48V352h-48V464z M432,368h16v80h-16V368z"/>
<path d="M352,464h48v-48h-48V464z M368,432h16v16h-16V432z"/>
<path d="M288,464h48v-48h-48V464z M304,432h16v16h-16V432z"/>
<path d="M352,400h48v-48h-48V400z M368,368h16v16h-16V368z"/>
<path d="M288,400h48v-48h-48V400z M304,368h16v16h-16V368z"/>
<path d="M352,336h48v-48h-48V336z M368,304h16v16h-16V304z"/>
<path d="M416,336h48v-48h-48V336z M432,304h16v16h-16V304z"/>
<path d="M288,336h48v-48h-48V336z M304,304h16v16h-16V304z"/>
<path d="M288,272h176v-80H288V272z M304,208h144v48H304V208z"/>
<path d="M40,256c-13.232,0-24,10.768-24,24s10.768,24,24,24c5.784,0,11.032-2.144,15.176-5.56l41.304,24.784
	C96.168,324.768,96,326.36,96,328c0,13.232,10.768,24,24,24s24-10.768,24-24c0-0.32-0.08-0.624-0.096-0.944l38.16-15.264
	c4.4,4.992,10.768,8.208,17.936,8.208c13.232,0,24-10.768,24-24s-10.768-24-24-24s-24,10.768-24,24c0,0.32,0.08,0.624,0.096,0.944
	l-38.16,15.264C133.536,307.216,127.168,304,120,304c-5.784,0-11.032,2.144-15.176,5.56L63.52,284.784
	C63.832,283.232,64,281.64,64,280C64,266.768,53.232,256,40,256z M200,288c4.408,0,8,3.592,8,8s-3.592,8-8,8s-8-3.592-8-8
	S195.592,288,200,288z M40,288c-4.408,0-8-3.592-8-8s3.592-8,8-8s8,3.592,8,8S44.408,288,40,288z M128,328c0,4.408-3.592,8-8,8
	s-8-3.592-8-8s3.592-8,8-8C124.408,320,128,323.592,128,328z"/>
<rect y="480" width="240" height="16"/>
<rect x="272" y="112" width="16" height="16"/>
<rect x="176" y="112" width="16" height="16"/>
<g>
</g>
<g>
</g>
<g>
</g>
<g>
</g>
<g>
</g>
<g>
</g>
<g>
</g>
<g>
</g>
<g>
</g>
<g>
</g>
<g>
</g>
<g>
</g>
<g>
</g>
<g>
</g>
<g>
</g>
</svg>
